solid Default
  facet normal 0.000000e+00 -1.000000e+00 -6.123234e-17
    outer loop
      vertex -1.350000e+01 2.450000e+01 7.105427e-15
      vertex -1.961182e+01 2.450000e+01 1.551111e+00
      vertex -2.500000e+01 2.450000e+01 7.105427e-15
    endloop
  endfacet
  facet normal 0.000000e+00 -1.000000e+00 -6.123234e-17
    outer loop
      vertex -1.961182e+01 2.450000e+01 1.551111e+00
      vertex -1.350000e+01 2.450000e+01 7.105427e-15
      vertex -1.925000e+01 2.450000e+01 1.700962e+00
    endloop
  endfacet
  facet normal 0.000000e+00 -1.000000e+00 -6.123234e-17
    outer loop
      vertex -1.925000e+01 2.450000e+01 1.700962e+00
      vertex -1.350000e+01 2.450000e+01 7.105427e-15
      vertex -1.350000e+01 2.450000e+01 6.000000e+00
    endloop
  endfacet
  facet normal 0.000000e+00 -1.000000e+00 -6.123234e-17
    outer loop
      vertex -2.500000e+01 2.450000e+01 7.105427e-15
      vertex -1.961182e+01 2.450000e+01 1.551111e+00
      vertex -2.000000e+01 2.450000e+01 1.500000e+00
    endloop
  endfacet
  facet normal 0.000000e+00 -1.000000e+00 -6.123234e-17
    outer loop
      vertex -1.925000e+01 2.450000e+01 1.700962e+00
      vertex -1.350000e+01 2.450000e+01 6.000000e+00
      vertex -1.893933e+01 2.450000e+01 1.939341e+00
    endloop
  endfacet
  facet normal 0.000000e+00 -1.000000e+00 -6.123234e-17
    outer loop
      vertex -1.893933e+01 2.450000e+01 1.939341e+00
      vertex -1.350000e+01 2.450000e+01 6.000000e+00
      vertex -1.870093e+01 2.450000e+01 2.250000e+00
    endloop
  endfacet
  facet normal 0.000000e+00 -1.000000e+00 -6.123234e-17
    outer loop
      vertex -1.870093e+01 2.450000e+01 2.250000e+00
      vertex -1.350000e+01 2.450000e+01 6.000000e+00
      vertex -1.855115e+01 2.450000e+01 2.611771e+00
    endloop
  endfacet
  facet normal 0.000000e+00 -1.000000e+00 -6.123234e-17
    outer loop
      vertex -1.855115e+01 2.450000e+01 2.611771e+00
      vertex -1.350000e+01 2.450000e+01 6.000000e+00
      vertex -1.850000e+01 2.450000e+01 3.000000e+00
    endloop
  endfacet
  facet normal 0.000000e+00 -1.000000e+00 -6.123234e-17
    outer loop
      vertex -1.850000e+01 2.450000e+01 3.000000e+00
      vertex -1.350000e+01 2.450000e+01 6.000000e+00
      vertex -1.855115e+01 2.450000e+01 3.388229e+00
    endloop
  endfacet
  facet normal 0.000000e+00 -1.000000e+00 -6.123234e-17
    outer loop
      vertex -1.855115e+01 2.450000e+01 3.388229e+00
      vertex -1.350000e+01 2.450000e+01 6.000000e+00
      vertex -1.870093e+01 2.450000e+01 3.750000e+00
    endloop
  endfacet
  facet normal 0.000000e+00 -1.000000e+00 -6.123234e-17
    outer loop
      vertex -1.870093e+01 2.450000e+01 3.750000e+00
      vertex -1.350000e+01 2.450000e+01 6.000000e+00
      vertex -1.893933e+01 2.450000e+01 4.060661e+00
    endloop
  endfacet
  facet normal 0.000000e+00 -1.000000e+00 -6.123234e-17
    outer loop
      vertex -1.893933e+01 2.450000e+01 4.060661e+00
      vertex -1.350000e+01 2.450000e+01 6.000000e+00
      vertex -1.925000e+01 2.450000e+01 4.299038e+00
    endloop
  endfacet
  facet normal 0.000000e+00 -1.000000e+00 -6.123234e-17
    outer loop
      vertex -1.925000e+01 2.450000e+01 4.299038e+00
      vertex -1.350000e+01 2.450000e+01 6.000000e+00
      vertex -1.961182e+01 2.450000e+01 4.448891e+00
    endloop
  endfacet
  facet normal 0.000000e+00 -1.000000e+00 -6.123234e-17
    outer loop
      vertex -1.961182e+01 2.450000e+01 4.448891e+00
      vertex -1.350000e+01 2.450000e+01 6.000000e+00
      vertex -2.000000e+01 2.450000e+01 4.500000e+00
    endloop
  endfacet
  facet normal 0.000000e+00 -1.000000e+00 -6.123234e-17
    outer loop
      vertex -2.500000e+01 2.450000e+01 7.105427e-15
      vertex -2.106067e+01 2.450000e+01 1.939341e+00
      vertex -2.500000e+01 2.450000e+01 6.000000e+00
    endloop
  endfacet
  facet normal 0.000000e+00 -1.000000e+00 -6.123234e-17
    outer loop
      vertex -2.106067e+01 2.450000e+01 1.939341e+00
      vertex -2.500000e+01 2.450000e+01 7.105427e-15
      vertex -2.075000e+01 2.450000e+01 1.700962e+00
    endloop
  endfacet
  facet normal 0.000000e+00 -1.000000e+00 -6.123234e-17
    outer loop
      vertex -2.075000e+01 2.450000e+01 1.700962e+00
      vertex -2.500000e+01 2.450000e+01 7.105427e-15
      vertex -2.038818e+01 2.450000e+01 1.551111e+00
    endloop
  endfacet
  facet normal 0.000000e+00 -1.000000e+00 -6.123234e-17
    outer loop
      vertex -2.038818e+01 2.450000e+01 1.551111e+00
      vertex -2.500000e+01 2.450000e+01 7.105427e-15
      vertex -2.000000e+01 2.450000e+01 1.500000e+00
    endloop
  endfacet
  facet normal 0.000000e+00 -1.000000e+00 -6.123234e-17
    outer loop
      vertex -2.500000e+01 2.450000e+01 6.000000e+00
      vertex -2.106067e+01 2.450000e+01 1.939341e+00
      vertex -2.129907e+01 2.450000e+01 2.250000e+00
    endloop
  endfacet
  facet normal 0.000000e+00 -1.000000e+00 -6.123234e-17
    outer loop
      vertex -2.500000e+01 2.450000e+01 6.000000e+00
      vertex -2.129907e+01 2.450000e+01 2.250000e+00
      vertex -2.144885e+01 2.450000e+01 2.611771e+00
    endloop
  endfacet
  facet normal 0.000000e+00 -1.000000e+00 -6.123234e-17
    outer loop
      vertex -2.500000e+01 2.450000e+01 6.000000e+00
      vertex -2.144885e+01 2.450000e+01 2.611771e+00
      vertex -2.150000e+01 2.450000e+01 3.000000e+00
    endloop
  endfacet
  facet normal 0.000000e+00 -1.000000e+00 -6.123234e-17
    outer loop
      vertex -2.500000e+01 2.450000e+01 6.000000e+00
      vertex -2.150000e+01 2.450000e+01 3.000000e+00
      vertex -2.144885e+01 2.450000e+01 3.388229e+00
    endloop
  endfacet
  facet normal 0.000000e+00 -1.000000e+00 -6.123234e-17
    outer loop
      vertex -2.500000e+01 2.450000e+01 6.000000e+00
      vertex -2.144885e+01 2.450000e+01 3.388229e+00
      vertex -2.129907e+01 2.450000e+01 3.750000e+00
    endloop
  endfacet
  facet normal 0.000000e+00 -1.000000e+00 -6.123234e-17
    outer loop
      vertex -2.500000e+01 2.450000e+01 6.000000e+00
      vertex -2.129907e+01 2.450000e+01 3.750000e+00
      vertex -2.106067e+01 2.450000e+01 4.060661e+00
    endloop
  endfacet
  facet normal 0.000000e+00 -1.000000e+00 -6.123234e-17
    outer loop
      vertex -2.500000e+01 2.450000e+01 6.000000e+00
      vertex -2.106067e+01 2.450000e+01 4.060661e+00
      vertex -2.075000e+01 2.450000e+01 4.299038e+00
    endloop
  endfacet
  facet normal 0.000000e+00 -1.000000e+00 -6.123234e-17
    outer loop
      vertex -2.500000e+01 2.450000e+01 6.000000e+00
      vertex -2.075000e+01 2.450000e+01 4.299038e+00
      vertex -2.038818e+01 2.450000e+01 4.448891e+00
    endloop
  endfacet
  facet normal 0.000000e+00 -1.000000e+00 -6.123234e-17
    outer loop
      vertex -2.500000e+01 2.450000e+01 6.000000e+00
      vertex -2.038818e+01 2.450000e+01 4.448891e+00
      vertex -2.000000e+01 2.450000e+01 4.500000e+00
    endloop
  endfacet
  facet normal 0.000000e+00 -1.000000e+00 -6.123234e-17
    outer loop
      vertex -2.500000e+01 2.450000e+01 6.000000e+00
      vertex -2.000000e+01 2.450000e+01 4.500000e+00
      vertex -1.350000e+01 2.450000e+01 6.000000e+00
    endloop
  endfacet
  facet normal 1.598142e-16 -4.377934e-17 -1.000000e+00
    outer loop
      vertex -2.500000e+01 3.050000e+01 7.105427e-15
      vertex -2.269995e+01 2.904999e+01 7.105427e-15
      vertex -2.500000e+01 2.450000e+01 7.105427e-15
    endloop
  endfacet
  facet normal 1.598142e-16 -4.377934e-17 -1.000000e+00
    outer loop
      vertex -2.269995e+01 2.904999e+01 7.105427e-15
      vertex -2.500000e+01 3.050000e+01 7.105427e-15
      vertex -8.500000e+00 3.050000e+01 7.105427e-15
    endloop
  endfacet
  facet normal 1.598142e-16 -4.377934e-17 -1.000000e+00
    outer loop
      vertex -2.269995e+01 2.904999e+01 7.105427e-15
      vertex -8.500000e+00 3.050000e+01 7.105427e-15
      vertex -1.730005e+01 2.904999e+01 7.105427e-15
    endloop
  endfacet
  facet normal 1.598142e-16 -4.377934e-17 -1.000000e+00
    outer loop
      vertex -1.730005e+01 2.904999e+01 7.105427e-15
      vertex -8.500000e+00 3.050000e+01 7.105427e-15
      vertex -1.730005e+01 2.694998e+01 7.105427e-15
    endloop
  endfacet
  facet normal 1.598142e-16 -4.377934e-17 -1.000000e+00
    outer loop
      vertex -1.730005e+01 2.694998e+01 7.105427e-15
      vertex -8.500000e+00 3.050000e+01 7.105427e-15
      vertex -1.350000e+01 2.450000e+01 7.105427e-15
    endloop
  endfacet
  facet normal 1.598142e-16 -4.377934e-17 -1.000000e+00
    outer loop
      vertex -1.350000e+01 2.450000e+01 7.105427e-15
      vertex -8.500000e+00 3.050000e+01 7.105427e-15
      vertex -1.350000e+01 9.500000e+00 7.105427e-15
    endloop
  endfacet
  facet normal 1.598142e-16 -4.377934e-17 -1.000000e+00
    outer loop
      vertex -1.350000e+01 9.500000e+00 7.105427e-15
      vertex -8.500000e+00 3.050000e+01 7.105427e-15
      vertex -8.500000e+00 1.550000e+01 7.105427e-15
    endloop
  endfacet
  facet normal 1.598142e-16 -4.377934e-17 -1.000000e+00
    outer loop
      vertex -1.350000e+01 9.500000e+00 7.105427e-15
      vertex -8.500000e+00 1.550000e+01 7.105427e-15
      vertex 1.500000e+01 9.500000e+00 7.105427e-15
    endloop
  endfacet
  facet normal 1.598142e-16 -4.377934e-17 -1.000000e+00
    outer loop
      vertex 1.500000e+01 9.500000e+00 7.105427e-15
      vertex -8.500000e+00 1.550000e+01 7.105427e-15
      vertex 2.500000e+01 1.550000e+01 3.552714e-15
    endloop
  endfacet
  facet normal 1.598142e-16 -4.377934e-17 -1.000000e+00
    outer loop
      vertex 1.500000e+01 9.500000e+00 7.105427e-15
      vertex 2.500000e+01 1.550000e+01 3.552714e-15
      vertex 2.000000e+01 4.500000e+00 7.105427e-15
    endloop
  endfacet
  facet normal 1.598142e-16 -4.377934e-17 -1.000000e+00
    outer loop
      vertex 2.000000e+01 4.500000e+00 7.105427e-15
      vertex 2.500000e+01 1.550000e+01 3.552714e-15
      vertex 2.000000e+01 -3.050000e+01 3.552714e-15
    endloop
  endfacet
  facet normal 1.598142e-16 -4.377934e-17 -1.000000e+00
    outer loop
      vertex 2.000000e+01 -3.050000e+01 3.552714e-15
      vertex 2.500000e+01 1.550000e+01 3.552714e-15
      vertex 2.500000e+01 -3.050000e+01 0.000000e+00
    endloop
  endfacet
  facet normal 1.598142e-16 -4.377934e-17 -1.000000e+00
    outer loop
      vertex -2.500000e+01 2.450000e+01 7.105427e-15
      vertex -2.269995e+01 2.694998e+01 7.105427e-15
      vertex -1.350000e+01 2.450000e+01 7.105427e-15
    endloop
  endfacet
  facet normal 1.598142e-16 -4.377934e-17 -1.000000e+00
    outer loop
      vertex -2.269995e+01 2.694998e+01 7.105427e-15
      vertex -2.500000e+01 2.450000e+01 7.105427e-15
      vertex -2.269995e+01 2.904999e+01 7.105427e-15
    endloop
  endfacet
  facet normal 1.598142e-16 -4.377934e-17 -1.000000e+00
    outer loop
      vertex -1.350000e+01 2.450000e+01 7.105427e-15
      vertex -2.269995e+01 2.694998e+01 7.105427e-15
      vertex -1.730005e+01 2.694998e+01 7.105427e-15
    endloop
  endfacet
  facet normal 1.000000e+00 3.749399e-33 -6.123234e-17
    outer loop
      vertex 2.500000e+01 1.550000e+01 3.552714e-15
      vertex 2.500000e+01 -3.050000e+01 6.000000e+00
      vertex 2.500000e+01 -3.050000e+01 0.000000e+00
    endloop
  endfacet
  facet normal 1.000000e+00 3.749399e-33 -6.123234e-17
    outer loop
      vertex 2.500000e+01 -3.050000e+01 6.000000e+00
      vertex 2.500000e+01 1.550000e+01 3.552714e-15
      vertex 2.500000e+01 1.550000e+01 6.000000e+00
    endloop
  endfacet
  facet normal 0.000000e+00 -1.000000e+00 -6.123234e-17
    outer loop
      vertex 2.500000e+01 -3.050000e+01 6.000000e+00
      vertex 2.000000e+01 -3.050000e+01 3.552714e-15
      vertex 2.500000e+01 -3.050000e+01 0.000000e+00
    endloop
  endfacet
  facet normal 0.000000e+00 -1.000000e+00 -6.123234e-17
    outer loop
      vertex 2.000000e+01 -3.050000e+01 3.552714e-15
      vertex 2.500000e+01 -3.050000e+01 6.000000e+00
      vertex 2.000000e+01 -3.050000e+01 6.000000e+00
    endloop
  endfacet
  facet normal -1.305262e-01 6.070849e-17 -9.914449e-01
    outer loop
      vertex -1.961182e+01 2.694998e+01 4.448891e+00
      vertex -2.000000e+01 2.450000e+01 4.500000e+00
      vertex -2.000000e+01 2.694998e+01 4.500000e+00
    endloop
  endfacet
  facet normal -1.305262e-01 6.070849e-17 -9.914449e-01
    outer loop
      vertex -2.000000e+01 2.450000e+01 4.500000e+00
      vertex -1.961182e+01 2.694998e+01 4.448891e+00
      vertex -1.961182e+01 2.450000e+01 4.448891e+00
    endloop
  endfacet
  facet normal -3.826834e-01 5.657131e-17 -9.238795e-01
    outer loop
      vertex -1.925000e+01 2.694998e+01 4.299038e+00
      vertex -1.961182e+01 2.450000e+01 4.448891e+00
      vertex -1.961182e+01 2.694998e+01 4.448891e+00
    endloop
  endfacet
  facet normal -3.826834e-01 5.657131e-17 -9.238795e-01
    outer loop
      vertex -1.961182e+01 2.450000e+01 4.448891e+00
      vertex -1.925000e+01 2.694998e+01 4.299038e+00
      vertex -1.925000e+01 2.450000e+01 4.299038e+00
    endloop
  endfacet
  facet normal 7.933533e-01 -3.727589e-17 6.087614e-01
    outer loop
      vertex -2.106067e+01 2.694998e+01 1.939341e+00
      vertex -2.129907e+01 2.450000e+01 2.250000e+00
      vertex -2.106067e+01 2.450000e+01 1.939341e+00
    endloop
  endfacet
  facet normal 7.933533e-01 -3.727589e-17 6.087614e-01
    outer loop
      vertex -2.129907e+01 2.450000e+01 2.250000e+00
      vertex -2.106067e+01 2.694998e+01 1.939341e+00
      vertex -2.129907e+01 2.694998e+01 2.250000e+00
    endloop
  endfacet
  facet normal 9.914449e-01 7.992423e-18 -1.305262e-01
    outer loop
      vertex -2.150000e+01 2.694998e+01 3.000000e+00
      vertex -2.144885e+01 2.450000e+01 3.388229e+00
      vertex -2.150000e+01 2.450000e+01 3.000000e+00
    endloop
  endfacet
  facet normal 9.914449e-01 7.992423e-18 -1.305262e-01
    outer loop
      vertex -2.144885e+01 2.450000e+01 3.388229e+00
      vertex -2.150000e+01 2.694998e+01 3.000000e+00
      vertex -2.144885e+01 2.694998e+01 3.388229e+00
    endloop
  endfacet
  facet normal 9.238795e-01 2.343260e-17 -3.826834e-01
    outer loop
      vertex -2.144885e+01 2.694998e+01 3.388229e+00
      vertex -2.129907e+01 2.450000e+01 3.750000e+00
      vertex -2.144885e+01 2.450000e+01 3.388229e+00
    endloop
  endfacet
  facet normal 9.238795e-01 2.343260e-17 -3.826834e-01
    outer loop
      vertex -2.129907e+01 2.450000e+01 3.750000e+00
      vertex -2.144885e+01 2.694998e+01 3.388229e+00
      vertex -2.129907e+01 2.694998e+01 3.750000e+00
    endloop
  endfacet
  facet normal -1.305262e-01 -6.070849e-17 9.914449e-01
    outer loop
      vertex -1.961182e+01 2.450000e+01 1.551111e+00
      vertex -2.000000e+01 2.694998e+01 1.500000e+00
      vertex -2.000000e+01 2.450000e+01 1.500000e+00
    endloop
  endfacet
  facet normal -1.305262e-01 -6.070849e-17 9.914449e-01
    outer loop
      vertex -2.000000e+01 2.694998e+01 1.500000e+00
      vertex -1.961182e+01 2.450000e+01 1.551111e+00
      vertex -1.961182e+01 2.694998e+01 1.551111e+00
    endloop
  endfacet
  facet normal -3.826834e-01 -5.657131e-17 9.238795e-01
    outer loop
      vertex -1.925000e+01 2.450000e+01 1.700962e+00
      vertex -1.961182e+01 2.694998e+01 1.551111e+00
      vertex -1.961182e+01 2.450000e+01 1.551111e+00
    endloop
  endfacet
  facet normal -3.826834e-01 -5.657131e-17 9.238795e-01
    outer loop
      vertex -1.961182e+01 2.694998e+01 1.551111e+00
      vertex -1.925000e+01 2.450000e+01 1.700962e+00
      vertex -1.925000e+01 2.694998e+01 1.700962e+00
    endloop
  endfacet
  facet normal -7.933533e-01 3.727589e-17 -6.087614e-01
    outer loop
      vertex -1.893933e+01 2.694998e+01 4.060661e+00
      vertex -1.870093e+01 2.450000e+01 3.750000e+00
      vertex -1.893933e+01 2.450000e+01 4.060661e+00
    endloop
  endfacet
  facet normal -7.933533e-01 3.727589e-17 -6.087614e-01
    outer loop
      vertex -1.870093e+01 2.450000e+01 3.750000e+00
      vertex -1.893933e+01 2.694998e+01 4.060661e+00
      vertex -1.870093e+01 2.694998e+01 3.750000e+00
    endloop
  endfacet
  facet normal 1.305262e-01 6.070849e-17 -9.914449e-01
    outer loop
      vertex -2.000000e+01 2.694998e+01 4.500000e+00
      vertex -2.038818e+01 2.450000e+01 4.448891e+00
      vertex -2.038818e+01 2.694998e+01 4.448891e+00
    endloop
  endfacet
  facet normal 1.305262e-01 6.070849e-17 -9.914449e-01
    outer loop
      vertex -2.038818e+01 2.450000e+01 4.448891e+00
      vertex -2.000000e+01 2.694998e+01 4.500000e+00
      vertex -2.000000e+01 2.450000e+01 4.500000e+00
    endloop
  endfacet
  facet normal 9.914449e-01 -7.992423e-18 1.305262e-01
    outer loop
      vertex -2.144885e+01 2.694998e+01 2.611771e+00
      vertex -2.150000e+01 2.450000e+01 3.000000e+00
      vertex -2.144885e+01 2.450000e+01 2.611771e+00
    endloop
  endfacet
  facet normal 9.914449e-01 -7.992423e-18 1.305262e-01
    outer loop
      vertex -2.150000e+01 2.450000e+01 3.000000e+00
      vertex -2.144885e+01 2.694998e+01 2.611771e+00
      vertex -2.150000e+01 2.694998e+01 3.000000e+00
    endloop
  endfacet
  facet normal -6.087614e-01 4.857888e-17 -7.933533e-01
    outer loop
      vertex -1.893933e+01 2.694998e+01 4.060661e+00
      vertex -1.925000e+01 2.450000e+01 4.299038e+00
      vertex -1.925000e+01 2.694998e+01 4.299038e+00
    endloop
  endfacet
  facet normal -6.087614e-01 4.857888e-17 -7.933533e-01
    outer loop
      vertex -1.925000e+01 2.450000e+01 4.299038e+00
      vertex -1.893933e+01 2.694998e+01 4.060661e+00
      vertex -1.893933e+01 2.450000e+01 4.060661e+00
    endloop
  endfacet
  facet normal 9.238795e-01 -2.343260e-17 3.826834e-01
    outer loop
      vertex -2.129907e+01 2.694998e+01 2.250000e+00
      vertex -2.144885e+01 2.450000e+01 2.611771e+00
      vertex -2.129907e+01 2.450000e+01 2.250000e+00
    endloop
  endfacet
  facet normal 9.238795e-01 -2.343260e-17 3.826834e-01
    outer loop
      vertex -2.144885e+01 2.450000e+01 2.611771e+00
      vertex -2.129907e+01 2.694998e+01 2.250000e+00
      vertex -2.144885e+01 2.694998e+01 2.611771e+00
    endloop
  endfacet
  facet normal 3.826834e-01 5.657131e-17 -9.238795e-01
    outer loop
      vertex -2.038818e+01 2.694998e+01 4.448891e+00
      vertex -2.075000e+01 2.450000e+01 4.299038e+00
      vertex -2.075000e+01 2.694998e+01 4.299038e+00
    endloop
  endfacet
  facet normal 3.826834e-01 5.657131e-17 -9.238795e-01
    outer loop
      vertex -2.075000e+01 2.450000e+01 4.299038e+00
      vertex -2.038818e+01 2.694998e+01 4.448891e+00
      vertex -2.038818e+01 2.450000e+01 4.448891e+00
    endloop
  endfacet
  facet normal 1.305262e-01 -6.070849e-17 9.914449e-01
    outer loop
      vertex -2.000000e+01 2.450000e+01 1.500000e+00
      vertex -2.038818e+01 2.694998e+01 1.551111e+00
      vertex -2.038818e+01 2.450000e+01 1.551111e+00
    endloop
  endfacet
  facet normal 1.305262e-01 -6.070849e-17 9.914449e-01
    outer loop
      vertex -2.038818e+01 2.694998e+01 1.551111e+00
      vertex -2.000000e+01 2.450000e+01 1.500000e+00
      vertex -2.000000e+01 2.694998e+01 1.500000e+00
    endloop
  endfacet
  facet normal -9.238795e-01 -2.343260e-17 3.826834e-01
    outer loop
      vertex -1.855115e+01 2.694998e+01 2.611771e+00
      vertex -1.870093e+01 2.450000e+01 2.250000e+00
      vertex -1.855115e+01 2.450000e+01 2.611771e+00
    endloop
  endfacet
  facet normal -9.238795e-01 -2.343260e-17 3.826834e-01
    outer loop
      vertex -1.870093e+01 2.450000e+01 2.250000e+00
      vertex -1.855115e+01 2.694998e+01 2.611771e+00
      vertex -1.870093e+01 2.694998e+01 2.250000e+00
    endloop
  endfacet
  facet normal 3.826834e-01 -5.657131e-17 9.238795e-01
    outer loop
      vertex -2.038818e+01 2.450000e+01 1.551111e+00
      vertex -2.075000e+01 2.694998e+01 1.700962e+00
      vertex -2.075000e+01 2.450000e+01 1.700962e+00
    endloop
  endfacet
  facet normal 3.826834e-01 -5.657131e-17 9.238795e-01
    outer loop
      vertex -2.075000e+01 2.694998e+01 1.700962e+00
      vertex -2.038818e+01 2.450000e+01 1.551111e+00
      vertex -2.038818e+01 2.694998e+01 1.551111e+00
    endloop
  endfacet
  facet normal 7.933533e-01 3.727589e-17 -6.087614e-01
    outer loop
      vertex -2.129907e+01 2.694998e+01 3.750000e+00
      vertex -2.106067e+01 2.450000e+01 4.060661e+00
      vertex -2.129907e+01 2.450000e+01 3.750000e+00
    endloop
  endfacet
  facet normal 7.933533e-01 3.727589e-17 -6.087614e-01
    outer loop
      vertex -2.106067e+01 2.450000e+01 4.060661e+00
      vertex -2.129907e+01 2.694998e+01 3.750000e+00
      vertex -2.106067e+01 2.694998e+01 4.060661e+00
    endloop
  endfacet
  facet normal -9.238795e-01 2.343260e-17 -3.826834e-01
    outer loop
      vertex -1.870093e+01 2.694998e+01 3.750000e+00
      vertex -1.855115e+01 2.450000e+01 3.388229e+00
      vertex -1.870093e+01 2.450000e+01 3.750000e+00
    endloop
  endfacet
  facet normal -9.238795e-01 2.343260e-17 -3.826834e-01
    outer loop
      vertex -1.855115e+01 2.450000e+01 3.388229e+00
      vertex -1.870093e+01 2.694998e+01 3.750000e+00
      vertex -1.855115e+01 2.694998e+01 3.388229e+00
    endloop
  endfacet
  facet normal 6.087614e-01 -4.857888e-17 7.933533e-01
    outer loop
      vertex -2.075000e+01 2.450000e+01 1.700962e+00
      vertex -2.106067e+01 2.694998e+01 1.939341e+00
      vertex -2.106067e+01 2.450000e+01 1.939341e+00
    endloop
  endfacet
  facet normal 6.087614e-01 -4.857888e-17 7.933533e-01
    outer loop
      vertex -2.106067e+01 2.694998e+01 1.939341e+00
      vertex -2.075000e+01 2.450000e+01 1.700962e+00
      vertex -2.075000e+01 2.694998e+01 1.700962e+00
    endloop
  endfacet
  facet normal -9.914449e-01 7.992423e-18 -1.305262e-01
    outer loop
      vertex -1.855115e+01 2.694998e+01 3.388229e+00
      vertex -1.850000e+01 2.450000e+01 3.000000e+00
      vertex -1.855115e+01 2.450000e+01 3.388229e+00
    endloop
  endfacet
  facet normal -9.914449e-01 7.992423e-18 -1.305262e-01
    outer loop
      vertex -1.850000e+01 2.450000e+01 3.000000e+00
      vertex -1.855115e+01 2.694998e+01 3.388229e+00
      vertex -1.850000e+01 2.694998e+01 3.000000e+00
    endloop
  endfacet
  facet normal 6.087614e-01 4.857888e-17 -7.933533e-01
    outer loop
      vertex -2.075000e+01 2.694998e+01 4.299038e+00
      vertex -2.106067e+01 2.450000e+01 4.060661e+00
      vertex -2.106067e+01 2.694998e+01 4.060661e+00
    endloop
  endfacet
  facet normal 6.087614e-01 4.857888e-17 -7.933533e-01
    outer loop
      vertex -2.106067e+01 2.450000e+01 4.060661e+00
      vertex -2.075000e+01 2.694998e+01 4.299038e+00
      vertex -2.075000e+01 2.450000e+01 4.299038e+00
    endloop
  endfacet
  facet normal -6.087614e-01 -4.857888e-17 7.933533e-01
    outer loop
      vertex -1.893933e+01 2.450000e+01 1.939341e+00
      vertex -1.925000e+01 2.694998e+01 1.700962e+00
      vertex -1.925000e+01 2.450000e+01 1.700962e+00
    endloop
  endfacet
  facet normal -6.087614e-01 -4.857888e-17 7.933533e-01
    outer loop
      vertex -1.925000e+01 2.694998e+01 1.700962e+00
      vertex -1.893933e+01 2.450000e+01 1.939341e+00
      vertex -1.893933e+01 2.694998e+01 1.939341e+00
    endloop
  endfacet
  facet normal -7.933533e-01 -3.727589e-17 6.087614e-01
    outer loop
      vertex -1.870093e+01 2.694998e+01 2.250000e+00
      vertex -1.893933e+01 2.450000e+01 1.939341e+00
      vertex -1.870093e+01 2.450000e+01 2.250000e+00
    endloop
  endfacet
  facet normal -7.933533e-01 -3.727589e-17 6.087614e-01
    outer loop
      vertex -1.893933e+01 2.450000e+01 1.939341e+00
      vertex -1.870093e+01 2.694998e+01 2.250000e+00
      vertex -1.893933e+01 2.694998e+01 1.939341e+00
    endloop
  endfacet
  facet normal 3.826834e-01 -7.134347e-14 9.238795e-01
    outer loop
      vertex -2.075000e+01 2.904999e+01 1.700962e+00
      vertex -2.038818e+01 3.050000e+01 1.551111e+00
      vertex -2.075000e+01 3.050000e+01 1.700962e+00
    endloop
  endfacet
  facet normal 3.826834e-01 -7.134347e-14 9.238795e-01
    outer loop
      vertex -2.038818e+01 3.050000e+01 1.551111e+00
      vertex -2.075000e+01 2.904999e+01 1.700962e+00
      vertex -2.038818e+01 2.904999e+01 1.551111e+00
    endloop
  endfacet
  facet normal 9.914449e-01 1.248441e-14 -1.305262e-01
    outer loop
      vertex -2.150000e+01 3.050000e+01 3.000000e+00
      vertex -2.144885e+01 2.904999e+01 3.388229e+00
      vertex -2.150000e+01 2.904999e+01 3.000000e+00
    endloop
  endfacet
  facet normal 9.914449e-01 1.248441e-14 -1.305262e-01
    outer loop
      vertex -2.144885e+01 2.904999e+01 3.388229e+00
      vertex -2.150000e+01 3.050000e+01 3.000000e+00
      vertex -2.144885e+01 3.050000e+01 3.388229e+00
    endloop
  endfacet
  facet normal 7.933533e-01 -6.307867e-14 6.087614e-01
    outer loop
      vertex -2.106067e+01 3.050000e+01 1.939341e+00
      vertex -2.129907e+01 2.904999e+01 2.250000e+00
      vertex -2.106067e+01 2.904999e+01 1.939341e+00
    endloop
  endfacet
  facet normal 7.933533e-01 -6.307867e-14 6.087614e-01
    outer loop
      vertex -2.129907e+01 2.904999e+01 2.250000e+00
      vertex -2.106067e+01 3.050000e+01 1.939341e+00
      vertex -2.129907e+01 3.050000e+01 2.250000e+00
    endloop
  endfacet
  facet normal 9.914449e-01 -7.358825e-14 1.305262e-01
    outer loop
      vertex -2.144885e+01 3.050000e+01 2.611771e+00
      vertex -2.150000e+01 2.904999e+01 3.000000e+00
      vertex -2.144885e+01 2.904999e+01 2.611771e+00
    endloop
  endfacet
  facet normal 9.914449e-01 -7.358825e-14 1.305262e-01
    outer loop
      vertex -2.150000e+01 2.904999e+01 3.000000e+00
      vertex -2.144885e+01 3.050000e+01 2.611771e+00
      vertex -2.150000e+01 3.050000e+01 3.000000e+00
    endloop
  endfacet
  facet normal 9.238795e-01 1.221532e-14 -3.826834e-01
    outer loop
      vertex -2.144885e+01 3.050000e+01 3.388229e+00
      vertex -2.129907e+01 2.904999e+01 3.750000e+00
      vertex -2.144885e+01 2.904999e+01 3.388229e+00
    endloop
  endfacet
  facet normal 9.238795e-01 1.221532e-14 -3.826834e-01
    outer loop
      vertex -2.129907e+01 2.904999e+01 3.750000e+00
      vertex -2.144885e+01 3.050000e+01 3.388229e+00
      vertex -2.129907e+01 3.050000e+01 3.750000e+00
    endloop
  endfacet
  facet normal -9.914449e-01 -7.992423e-18 1.305262e-01
    outer loop
      vertex -1.850000e+01 2.694998e+01 3.000000e+00
      vertex -1.855115e+01 2.450000e+01 2.611771e+00
      vertex -1.850000e+01 2.450000e+01 3.000000e+00
    endloop
  endfacet
  facet normal -9.914449e-01 -7.992423e-18 1.305262e-01
    outer loop
      vertex -1.855115e+01 2.450000e+01 2.611771e+00
      vertex -1.850000e+01 2.694998e+01 3.000000e+00
      vertex -1.855115e+01 2.694998e+01 2.611771e+00
    endloop
  endfacet
  facet normal -9.914449e-01 1.664397e-14 -1.305262e-01
    outer loop
      vertex -1.855115e+01 3.050000e+01 3.388229e+00
      vertex -1.850000e+01 2.904999e+01 3.000000e+00
      vertex -1.855115e+01 2.904999e+01 3.388229e+00
    endloop
  endfacet
  facet normal -9.914449e-01 1.664397e-14 -1.305262e-01
    outer loop
      vertex -1.850000e+01 2.904999e+01 3.000000e+00
      vertex -1.855115e+01 3.050000e+01 3.388229e+00
      vertex -1.850000e+01 3.050000e+01 3.000000e+00
    endloop
  endfacet
  facet normal 9.238795e-01 -9.548147e-14 3.826834e-01
    outer loop
      vertex -2.129907e+01 3.050000e+01 2.250000e+00
      vertex -2.144885e+01 2.904999e+01 2.611771e+00
      vertex -2.129907e+01 2.904999e+01 2.250000e+00
    endloop
  endfacet
  facet normal 9.238795e-01 -9.548147e-14 3.826834e-01
    outer loop
      vertex -2.144885e+01 2.904999e+01 2.611771e+00
      vertex -2.129907e+01 3.050000e+01 2.250000e+00
      vertex -2.144885e+01 3.050000e+01 2.611771e+00
    endloop
  endfacet
  facet normal 3.826834e-01 5.893629e-14 -9.238795e-01
    outer loop
      vertex -2.038818e+01 3.050000e+01 4.448891e+00
      vertex -2.075000e+01 2.904999e+01 4.299038e+00
      vertex -2.075000e+01 3.050000e+01 4.299038e+00
    endloop
  endfacet
  facet normal 3.826834e-01 5.893629e-14 -9.238795e-01
    outer loop
      vertex -2.075000e+01 2.904999e+01 4.299038e+00
      vertex -2.038818e+01 3.050000e+01 4.448891e+00
      vertex -2.038818e+01 2.904999e+01 4.448891e+00
    endloop
  endfacet
  facet normal -7.933533e-01 -2.913167e-14 6.087614e-01
    outer loop
      vertex -1.870093e+01 3.050000e+01 2.250000e+00
      vertex -1.893933e+01 2.904999e+01 1.939341e+00
      vertex -1.870093e+01 2.904999e+01 2.250000e+00
    endloop
  endfacet
  facet normal -7.933533e-01 -2.913167e-14 6.087614e-01
    outer loop
      vertex -1.893933e+01 2.904999e+01 1.939341e+00
      vertex -1.870093e+01 3.050000e+01 2.250000e+00
      vertex -1.893933e+01 3.050000e+01 1.939341e+00
    endloop
  endfacet
  facet normal -1.305262e-01 -1.106293e-13 9.914449e-01
    outer loop
      vertex -1.961182e+01 2.904999e+01 1.551111e+00
      vertex -2.000000e+01 3.050000e+01 1.500000e+00
      vertex -2.000000e+01 2.904999e+01 1.500000e+00
    endloop
  endfacet
  facet normal -1.305262e-01 -1.106293e-13 9.914449e-01
    outer loop
      vertex -2.000000e+01 3.050000e+01 1.500000e+00
      vertex -1.961182e+01 2.904999e+01 1.551111e+00
      vertex -1.961182e+01 3.050000e+01 1.551111e+00
    endloop
  endfacet
  facet normal 6.087614e-01 6.956457e-14 -7.933533e-01
    outer loop
      vertex -2.075000e+01 3.050000e+01 4.299038e+00
      vertex -2.106067e+01 2.904999e+01 4.060661e+00
      vertex -2.106067e+01 3.050000e+01 4.060661e+00
    endloop
  endfacet
  facet normal 6.087614e-01 6.956457e-14 -7.933533e-01
    outer loop
      vertex -2.106067e+01 2.904999e+01 4.060661e+00
      vertex -2.075000e+01 3.050000e+01 4.299038e+00
      vertex -2.075000e+01 2.904999e+01 4.299038e+00
    endloop
  endfacet
  facet normal 7.933533e-01 4.367887e-14 -6.087614e-01
    outer loop
      vertex -2.129907e+01 3.050000e+01 3.750000e+00
      vertex -2.106067e+01 2.904999e+01 4.060661e+00
      vertex -2.129907e+01 2.904999e+01 3.750000e+00
    endloop
  endfacet
  facet normal 7.933533e-01 4.367887e-14 -6.087614e-01
    outer loop
      vertex -2.106067e+01 2.904999e+01 4.060661e+00
      vertex -2.129907e+01 3.050000e+01 3.750000e+00
      vertex -2.106067e+01 3.050000e+01 4.060661e+00
    endloop
  endfacet
  facet normal -7.933533e-01 -1.172614e-14 -6.087614e-01
    outer loop
      vertex -1.893933e+01 3.050000e+01 4.060661e+00
      vertex -1.870093e+01 2.904999e+01 3.750000e+00
      vertex -1.893933e+01 2.904999e+01 4.060661e+00
    endloop
  endfacet
  facet normal -7.933533e-01 -1.172614e-14 -6.087614e-01
    outer loop
      vertex -1.870093e+01 2.904999e+01 3.750000e+00
      vertex -1.893933e+01 3.050000e+01 4.060661e+00
      vertex -1.870093e+01 3.050000e+01 3.750000e+00
    endloop
  endfacet
  facet normal 1.305262e-01 5.534552e-14 -9.914449e-01
    outer loop
      vertex -2.000000e+01 3.050000e+01 4.500000e+00
      vertex -2.038818e+01 2.904999e+01 4.448891e+00
      vertex -2.038818e+01 3.050000e+01 4.448891e+00
    endloop
  endfacet
  facet normal 1.305262e-01 5.534552e-14 -9.914449e-01
    outer loop
      vertex -2.038818e+01 2.904999e+01 4.448891e+00
      vertex -2.000000e+01 3.050000e+01 4.500000e+00
      vertex -2.000000e+01 2.904999e+01 4.500000e+00
    endloop
  endfacet
  facet normal 0.000000e+00 -1.000000e+00 -6.123234e-17
    outer loop
      vertex -1.730005e+01 2.904999e+01 7.105427e-15
      vertex -1.925000e+01 2.904999e+01 1.700962e+00
      vertex -2.269995e+01 2.904999e+01 7.105427e-15
    endloop
  endfacet
  facet normal 0.000000e+00 -1.000000e+00 -6.123234e-17
    outer loop
      vertex -1.925000e+01 2.904999e+01 1.700962e+00
      vertex -1.730005e+01 2.904999e+01 7.105427e-15
      vertex -1.893933e+01 2.904999e+01 1.939341e+00
    endloop
  endfacet
  facet normal 0.000000e+00 -1.000000e+00 -6.123234e-17
    outer loop
      vertex -1.893933e+01 2.904999e+01 1.939341e+00
      vertex -1.730005e+01 2.904999e+01 7.105427e-15
      vertex -1.870093e+01 2.904999e+01 2.250000e+00
    endloop
  endfacet
  facet normal 0.000000e+00 -1.000000e+00 -6.123234e-17
    outer loop
      vertex -1.870093e+01 2.904999e+01 2.250000e+00
      vertex -1.730005e+01 2.904999e+01 7.105427e-15
      vertex -1.855115e+01 2.904999e+01 2.611771e+00
    endloop
  endfacet
  facet normal 0.000000e+00 -1.000000e+00 -6.123234e-17
    outer loop
      vertex -1.855115e+01 2.904999e+01 2.611771e+00
      vertex -1.730005e+01 2.904999e+01 7.105427e-15
      vertex -1.730005e+01 2.904999e+01 6.000000e+00
    endloop
  endfacet
  facet normal 0.000000e+00 -1.000000e+00 -6.123234e-17
    outer loop
      vertex -2.269995e+01 2.904999e+01 7.105427e-15
      vertex -1.925000e+01 2.904999e+01 1.700962e+00
      vertex -1.961182e+01 2.904999e+01 1.551111e+00
    endloop
  endfacet
  facet normal 0.000000e+00 -1.000000e+00 -6.123234e-17
    outer loop
      vertex -2.269995e+01 2.904999e+01 7.105427e-15
      vertex -1.961182e+01 2.904999e+01 1.551111e+00
      vertex -2.000000e+01 2.904999e+01 1.500000e+00
    endloop
  endfacet
  facet normal 0.000000e+00 -1.000000e+00 -6.123234e-17
    outer loop
      vertex -1.855115e+01 2.904999e+01 2.611771e+00
      vertex -1.730005e+01 2.904999e+01 6.000000e+00
      vertex -1.850000e+01 2.904999e+01 3.000000e+00
    endloop
  endfacet
  facet normal 0.000000e+00 -1.000000e+00 -6.123234e-17
    outer loop
      vertex -1.850000e+01 2.904999e+01 3.000000e+00
      vertex -1.730005e+01 2.904999e+01 6.000000e+00
      vertex -1.855115e+01 2.904999e+01 3.388229e+00
    endloop
  endfacet
  facet normal 0.000000e+00 -1.000000e+00 -6.123234e-17
    outer loop
      vertex -1.855115e+01 2.904999e+01 3.388229e+00
      vertex -1.730005e+01 2.904999e+01 6.000000e+00
      vertex -1.870093e+01 2.904999e+01 3.750000e+00
    endloop
  endfacet
  facet normal 0.000000e+00 -1.000000e+00 -6.123234e-17
    outer loop
      vertex -1.870093e+01 2.904999e+01 3.750000e+00
      vertex -1.730005e+01 2.904999e+01 6.000000e+00
      vertex -1.893933e+01 2.904999e+01 4.060661e+00
    endloop
  endfacet
  facet normal 0.000000e+00 -1.000000e+00 -6.123234e-17
    outer loop
      vertex -1.893933e+01 2.904999e+01 4.060661e+00
      vertex -1.730005e+01 2.904999e+01 6.000000e+00
      vertex -1.925000e+01 2.904999e+01 4.299038e+00
    endloop
  endfacet
  facet normal 0.000000e+00 -1.000000e+00 -6.123234e-17
    outer loop
      vertex -1.925000e+01 2.904999e+01 4.299038e+00
      vertex -1.730005e+01 2.904999e+01 6.000000e+00
      vertex -1.961182e+01 2.904999e+01 4.448891e+00
    endloop
  endfacet
  facet normal 0.000000e+00 -1.000000e+00 -6.123234e-17
    outer loop
      vertex -1.961182e+01 2.904999e+01 4.448891e+00
      vertex -1.730005e+01 2.904999e+01 6.000000e+00
      vertex -2.000000e+01 2.904999e+01 4.500000e+00
    endloop
  endfacet
  facet normal 0.000000e+00 -1.000000e+00 -6.123234e-17
    outer loop
      vertex -2.000000e+01 2.904999e+01 4.500000e+00
      vertex -1.730005e+01 2.904999e+01 6.000000e+00
      vertex -2.269995e+01 2.904999e+01 6.000000e+00
    endloop
  endfacet
  facet normal 0.000000e+00 -1.000000e+00 -6.123234e-17
    outer loop
      vertex -2.269995e+01 2.904999e+01 7.105427e-15
      vertex -2.144885e+01 2.904999e+01 2.611771e+00
      vertex -2.269995e+01 2.904999e+01 6.000000e+00
    endloop
  endfacet
  facet normal 0.000000e+00 -1.000000e+00 -6.123234e-17
    outer loop
      vertex -2.144885e+01 2.904999e+01 2.611771e+00
      vertex -2.269995e+01 2.904999e+01 7.105427e-15
      vertex -2.129907e+01 2.904999e+01 2.250000e+00
    endloop
  endfacet
  facet normal 0.000000e+00 -1.000000e+00 -6.123234e-17
    outer loop
      vertex -2.129907e+01 2.904999e+01 2.250000e+00
      vertex -2.269995e+01 2.904999e+01 7.105427e-15
      vertex -2.106067e+01 2.904999e+01 1.939341e+00
    endloop
  endfacet
  facet normal 0.000000e+00 -1.000000e+00 -6.123234e-17
    outer loop
      vertex -2.106067e+01 2.904999e+01 1.939341e+00
      vertex -2.269995e+01 2.904999e+01 7.105427e-15
      vertex -2.075000e+01 2.904999e+01 1.700962e+00
    endloop
  endfacet
  facet normal 0.000000e+00 -1.000000e+00 -6.123234e-17
    outer loop
      vertex -2.075000e+01 2.904999e+01 1.700962e+00
      vertex -2.269995e+01 2.904999e+01 7.105427e-15
      vertex -2.038818e+01 2.904999e+01 1.551111e+00
    endloop
  endfacet
  facet normal 0.000000e+00 -1.000000e+00 -6.123234e-17
    outer loop
      vertex -2.038818e+01 2.904999e+01 1.551111e+00
      vertex -2.269995e+01 2.904999e+01 7.105427e-15
      vertex -2.000000e+01 2.904999e+01 1.500000e+00
    endloop
  endfacet
  facet normal 0.000000e+00 -1.000000e+00 -6.123234e-17
    outer loop
      vertex -2.269995e+01 2.904999e+01 6.000000e+00
      vertex -2.144885e+01 2.904999e+01 2.611771e+00
      vertex -2.150000e+01 2.904999e+01 3.000000e+00
    endloop
  endfacet
  facet normal 0.000000e+00 -1.000000e+00 -6.123234e-17
    outer loop
      vertex -2.269995e+01 2.904999e+01 6.000000e+00
      vertex -2.150000e+01 2.904999e+01 3.000000e+00
      vertex -2.144885e+01 2.904999e+01 3.388229e+00
    endloop
  endfacet
  facet normal 0.000000e+00 -1.000000e+00 -6.123234e-17
    outer loop
      vertex -2.269995e+01 2.904999e+01 6.000000e+00
      vertex -2.144885e+01 2.904999e+01 3.388229e+00
      vertex -2.129907e+01 2.904999e+01 3.750000e+00
    endloop
  endfacet
  facet normal 0.000000e+00 -1.000000e+00 -6.123234e-17
    outer loop
      vertex -2.269995e+01 2.904999e+01 6.000000e+00
      vertex -2.129907e+01 2.904999e+01 3.750000e+00
      vertex -2.106067e+01 2.904999e+01 4.060661e+00
    endloop
  endfacet
  facet normal 0.000000e+00 -1.000000e+00 -6.123234e-17
    outer loop
      vertex -2.269995e+01 2.904999e+01 6.000000e+00
      vertex -2.106067e+01 2.904999e+01 4.060661e+00
      vertex -2.075000e+01 2.904999e+01 4.299038e+00
    endloop
  endfacet
  facet normal 0.000000e+00 -1.000000e+00 -6.123234e-17
    outer loop
      vertex -2.269995e+01 2.904999e+01 6.000000e+00
      vertex -2.075000e+01 2.904999e+01 4.299038e+00
      vertex -2.038818e+01 2.904999e+01 4.448891e+00
    endloop
  endfacet
  facet normal 0.000000e+00 -1.000000e+00 -6.123234e-17
    outer loop
      vertex -2.269995e+01 2.904999e+01 6.000000e+00
      vertex -2.038818e+01 2.904999e+01 4.448891e+00
      vertex -2.000000e+01 2.904999e+01 4.500000e+00
    endloop
  endfacet
  facet normal -3.826834e-01 -1.104515e-13 9.238795e-01
    outer loop
      vertex -1.961182e+01 2.904999e+01 1.551111e+00
      vertex -1.925000e+01 3.050000e+01 1.700962e+00
      vertex -1.961182e+01 3.050000e+01 1.551111e+00
    endloop
  endfacet
  facet normal -3.826834e-01 -1.104515e-13 9.238795e-01
    outer loop
      vertex -1.925000e+01 3.050000e+01 1.700962e+00
      vertex -1.961182e+01 2.904999e+01 1.551111e+00
      vertex -1.925000e+01 2.904999e+01 1.700962e+00
    endloop
  endfacet
  facet normal -1.000000e+00 -3.749399e-33 6.123234e-17
    outer loop
      vertex -1.730005e+01 2.904999e+01 6.000000e+00
      vertex -1.730005e+01 2.694998e+01 7.105427e-15
      vertex -1.730005e+01 2.694998e+01 6.000000e+00
    endloop
  endfacet
  facet normal -1.000000e+00 -3.749399e-33 6.123234e-17
    outer loop
      vertex -1.730005e+01 2.694998e+01 7.105427e-15
      vertex -1.730005e+01 2.904999e+01 6.000000e+00
      vertex -1.730005e+01 2.904999e+01 7.105427e-15
    endloop
  endfacet
  facet normal -9.238795e-01 -2.136007e-14 3.826834e-01
    outer loop
      vertex -1.855115e+01 3.050000e+01 2.611771e+00
      vertex -1.870093e+01 2.904999e+01 2.250000e+00
      vertex -1.855115e+01 2.904999e+01 2.611771e+00
    endloop
  endfacet
  facet normal -9.238795e-01 -2.136007e-14 3.826834e-01
    outer loop
      vertex -1.870093e+01 2.904999e+01 2.250000e+00
      vertex -1.855115e+01 3.050000e+01 2.611771e+00
      vertex -1.870093e+01 3.050000e+01 2.250000e+00
    endloop
  endfacet
  facet normal 1.000000e+00 3.749399e-33 -6.123234e-17
    outer loop
      vertex -2.269995e+01 2.904999e+01 7.105427e-15
      vertex -2.269995e+01 2.694998e+01 6.000000e+00
      vertex -2.269995e+01 2.694998e+01 7.105427e-15
    endloop
  endfacet
  facet normal 1.000000e+00 3.749399e-33 -6.123234e-17
    outer loop
      vertex -2.269995e+01 2.694998e+01 6.000000e+00
      vertex -2.269995e+01 2.904999e+01 7.105427e-15
      vertex -2.269995e+01 2.904999e+01 6.000000e+00
    endloop
  endfacet
  facet normal -9.238795e-01 -1.007804e-14 -3.826834e-01
    outer loop
      vertex -1.870093e+01 3.050000e+01 3.750000e+00
      vertex -1.855115e+01 2.904999e+01 3.388229e+00
      vertex -1.870093e+01 2.904999e+01 3.750000e+00
    endloop
  endfacet
  facet normal -9.238795e-01 -1.007804e-14 -3.826834e-01
    outer loop
      vertex -1.855115e+01 2.904999e+01 3.388229e+00
      vertex -1.870093e+01 3.050000e+01 3.750000e+00
      vertex -1.855115e+01 3.050000e+01 3.388229e+00
    endloop
  endfacet
  facet normal -1.305262e-01 3.912878e-14 -9.914449e-01
    outer loop
      vertex -1.961182e+01 3.050000e+01 4.448891e+00
      vertex -2.000000e+01 2.904999e+01 4.500000e+00
      vertex -2.000000e+01 3.050000e+01 4.500000e+00
    endloop
  endfacet
  facet normal -1.305262e-01 3.912878e-14 -9.914449e-01
    outer loop
      vertex -2.000000e+01 2.904999e+01 4.500000e+00
      vertex -1.961182e+01 3.050000e+01 4.448891e+00
      vertex -1.961182e+01 2.904999e+01 4.448891e+00
    endloop
  endfacet
  facet normal 6.087614e-01 8.222446e-16 7.933533e-01
    outer loop
      vertex -2.075000e+01 2.904999e+01 1.700962e+00
      vertex -2.106067e+01 3.050000e+01 1.939341e+00
      vertex -2.106067e+01 2.904999e+01 1.939341e+00
    endloop
  endfacet
  facet normal 6.087614e-01 8.222446e-16 7.933533e-01
    outer loop
      vertex -2.106067e+01 3.050000e+01 1.939341e+00
      vertex -2.075000e+01 2.904999e+01 1.700962e+00
      vertex -2.075000e+01 3.050000e+01 1.700962e+00
    endloop
  endfacet
  facet normal 0.000000e+00 1.000000e+00 6.123234e-17
    outer loop
      vertex -2.269995e+01 2.694998e+01 7.105427e-15
      vertex -2.075000e+01 2.694998e+01 1.700962e+00
      vertex -1.730005e+01 2.694998e+01 7.105427e-15
    endloop
  endfacet
  facet normal 0.000000e+00 1.000000e+00 6.123234e-17
    outer loop
      vertex -2.075000e+01 2.694998e+01 1.700962e+00
      vertex -2.269995e+01 2.694998e+01 7.105427e-15
      vertex -2.106067e+01 2.694998e+01 1.939341e+00
    endloop
  endfacet
  facet normal 0.000000e+00 1.000000e+00 6.123234e-17
    outer loop
      vertex -2.106067e+01 2.694998e+01 1.939341e+00
      vertex -2.269995e+01 2.694998e+01 7.105427e-15
      vertex -2.129907e+01 2.694998e+01 2.250000e+00
    endloop
  endfacet
  facet normal 0.000000e+00 1.000000e+00 6.123234e-17
    outer loop
      vertex -2.129907e+01 2.694998e+01 2.250000e+00
      vertex -2.269995e+01 2.694998e+01 7.105427e-15
      vertex -2.144885e+01 2.694998e+01 2.611771e+00
    endloop
  endfacet
  facet normal 0.000000e+00 1.000000e+00 6.123234e-17
    outer loop
      vertex -2.144885e+01 2.694998e+01 2.611771e+00
      vertex -2.269995e+01 2.694998e+01 7.105427e-15
      vertex -2.269995e+01 2.694998e+01 6.000000e+00
    endloop
  endfacet
  facet normal 0.000000e+00 1.000000e+00 6.123234e-17
    outer loop
      vertex -1.730005e+01 2.694998e+01 7.105427e-15
      vertex -2.075000e+01 2.694998e+01 1.700962e+00
      vertex -2.038818e+01 2.694998e+01 1.551111e+00
    endloop
  endfacet
  facet normal 0.000000e+00 1.000000e+00 6.123234e-17
    outer loop
      vertex -1.730005e+01 2.694998e+01 7.105427e-15
      vertex -2.038818e+01 2.694998e+01 1.551111e+00
      vertex -2.000000e+01 2.694998e+01 1.500000e+00
    endloop
  endfacet
  facet normal 0.000000e+00 1.000000e+00 6.123234e-17
    outer loop
      vertex -2.144885e+01 2.694998e+01 2.611771e+00
      vertex -2.269995e+01 2.694998e+01 6.000000e+00
      vertex -2.150000e+01 2.694998e+01 3.000000e+00
    endloop
  endfacet
  facet normal 0.000000e+00 1.000000e+00 6.123234e-17
    outer loop
      vertex -2.150000e+01 2.694998e+01 3.000000e+00
      vertex -2.269995e+01 2.694998e+01 6.000000e+00
      vertex -2.144885e+01 2.694998e+01 3.388229e+00
    endloop
  endfacet
  facet normal 0.000000e+00 1.000000e+00 6.123234e-17
    outer loop
      vertex -2.144885e+01 2.694998e+01 3.388229e+00
      vertex -2.269995e+01 2.694998e+01 6.000000e+00
      vertex -2.129907e+01 2.694998e+01 3.750000e+00
    endloop
  endfacet
  facet normal 0.000000e+00 1.000000e+00 6.123234e-17
    outer loop
      vertex -2.129907e+01 2.694998e+01 3.750000e+00
      vertex -2.269995e+01 2.694998e+01 6.000000e+00
      vertex -2.106067e+01 2.694998e+01 4.060661e+00
    endloop
  endfacet
  facet normal 0.000000e+00 1.000000e+00 6.123234e-17
    outer loop
      vertex -2.106067e+01 2.694998e+01 4.060661e+00
      vertex -2.269995e+01 2.694998e+01 6.000000e+00
      vertex -2.075000e+01 2.694998e+01 4.299038e+00
    endloop
  endfacet
  facet normal 0.000000e+00 1.000000e+00 6.123234e-17
    outer loop
      vertex -2.075000e+01 2.694998e+01 4.299038e+00
      vertex -2.269995e+01 2.694998e+01 6.000000e+00
      vertex -2.038818e+01 2.694998e+01 4.448891e+00
    endloop
  endfacet
  facet normal 0.000000e+00 1.000000e+00 6.123234e-17
    outer loop
      vertex -2.038818e+01 2.694998e+01 4.448891e+00
      vertex -2.269995e+01 2.694998e+01 6.000000e+00
      vertex -2.000000e+01 2.694998e+01 4.500000e+00
    endloop
  endfacet
  facet normal 0.000000e+00 1.000000e+00 6.123234e-17
    outer loop
      vertex -1.730005e+01 2.694998e+01 7.105427e-15
      vertex -1.855115e+01 2.694998e+01 2.611771e+00
      vertex -1.730005e+01 2.694998e+01 6.000000e+00
    endloop
  endfacet
  facet normal 0.000000e+00 1.000000e+00 6.123234e-17
    outer loop
      vertex -1.855115e+01 2.694998e+01 2.611771e+00
      vertex -1.730005e+01 2.694998e+01 7.105427e-15
      vertex -1.870093e+01 2.694998e+01 2.250000e+00
    endloop
  endfacet
  facet normal 0.000000e+00 1.000000e+00 6.123234e-17
    outer loop
      vertex -1.870093e+01 2.694998e+01 2.250000e+00
      vertex -1.730005e+01 2.694998e+01 7.105427e-15
      vertex -1.893933e+01 2.694998e+01 1.939341e+00
    endloop
  endfacet
  facet normal 0.000000e+00 1.000000e+00 6.123234e-17
    outer loop
      vertex -1.893933e+01 2.694998e+01 1.939341e+00
      vertex -1.730005e+01 2.694998e+01 7.105427e-15
      vertex -1.925000e+01 2.694998e+01 1.700962e+00
    endloop
  endfacet
  facet normal 0.000000e+00 1.000000e+00 6.123234e-17
    outer loop
      vertex -1.925000e+01 2.694998e+01 1.700962e+00
      vertex -1.730005e+01 2.694998e+01 7.105427e-15
      vertex -1.961182e+01 2.694998e+01 1.551111e+00
    endloop
  endfacet
  facet normal 0.000000e+00 1.000000e+00 6.123234e-17
    outer loop
      vertex -1.961182e+01 2.694998e+01 1.551111e+00
      vertex -1.730005e+01 2.694998e+01 7.105427e-15
      vertex -2.000000e+01 2.694998e+01 1.500000e+00
    endloop
  endfacet
  facet normal 0.000000e+00 1.000000e+00 6.123234e-17
    outer loop
      vertex -1.730005e+01 2.694998e+01 6.000000e+00
      vertex -1.855115e+01 2.694998e+01 2.611771e+00
      vertex -1.850000e+01 2.694998e+01 3.000000e+00
    endloop
  endfacet
  facet normal 0.000000e+00 1.000000e+00 6.123234e-17
    outer loop
      vertex -1.730005e+01 2.694998e+01 6.000000e+00
      vertex -1.850000e+01 2.694998e+01 3.000000e+00
      vertex -1.855115e+01 2.694998e+01 3.388229e+00
    endloop
  endfacet
  facet normal 0.000000e+00 1.000000e+00 6.123234e-17
    outer loop
      vertex -1.730005e+01 2.694998e+01 6.000000e+00
      vertex -1.855115e+01 2.694998e+01 3.388229e+00
      vertex -1.870093e+01 2.694998e+01 3.750000e+00
    endloop
  endfacet
  facet normal 0.000000e+00 1.000000e+00 6.123234e-17
    outer loop
      vertex -1.730005e+01 2.694998e+01 6.000000e+00
      vertex -1.870093e+01 2.694998e+01 3.750000e+00
      vertex -1.893933e+01 2.694998e+01 4.060661e+00
    endloop
  endfacet
  facet normal 0.000000e+00 1.000000e+00 6.123234e-17
    outer loop
      vertex -1.730005e+01 2.694998e+01 6.000000e+00
      vertex -1.893933e+01 2.694998e+01 4.060661e+00
      vertex -1.925000e+01 2.694998e+01 4.299038e+00
    endloop
  endfacet
  facet normal 0.000000e+00 1.000000e+00 6.123234e-17
    outer loop
      vertex -1.730005e+01 2.694998e+01 6.000000e+00
      vertex -1.925000e+01 2.694998e+01 4.299038e+00
      vertex -1.961182e+01 2.694998e+01 4.448891e+00
    endloop
  endfacet
  facet normal 0.000000e+00 1.000000e+00 6.123234e-17
    outer loop
      vertex -1.730005e+01 2.694998e+01 6.000000e+00
      vertex -1.961182e+01 2.694998e+01 4.448891e+00
      vertex -2.000000e+01 2.694998e+01 4.500000e+00
    endloop
  endfacet
  facet normal 0.000000e+00 1.000000e+00 6.123234e-17
    outer loop
      vertex -1.730005e+01 2.694998e+01 6.000000e+00
      vertex -2.000000e+01 2.694998e+01 4.500000e+00
      vertex -2.269995e+01 2.694998e+01 6.000000e+00
    endloop
  endfacet
  facet normal 1.305262e-01 -1.189472e-13 9.914449e-01
    outer loop
      vertex -2.000000e+01 2.904999e+01 1.500000e+00
      vertex -2.038818e+01 3.050000e+01 1.551111e+00
      vertex -2.038818e+01 2.904999e+01 1.551111e+00
    endloop
  endfacet
  facet normal 1.305262e-01 -1.189472e-13 9.914449e-01
    outer loop
      vertex -2.038818e+01 3.050000e+01 1.551111e+00
      vertex -2.000000e+01 2.904999e+01 1.500000e+00
      vertex -2.000000e+01 3.050000e+01 1.500000e+00
    endloop
  endfacet
  facet normal -3.826834e-01 1.154982e-13 -9.238795e-01
    outer loop
      vertex -1.925000e+01 3.050000e+01 4.299038e+00
      vertex -1.961182e+01 2.904999e+01 4.448891e+00
      vertex -1.961182e+01 3.050000e+01 4.448891e+00
    endloop
  endfacet
  facet normal -3.826834e-01 1.154982e-13 -9.238795e-01
    outer loop
      vertex -1.961182e+01 2.904999e+01 4.448891e+00
      vertex -1.925000e+01 3.050000e+01 4.299038e+00
      vertex -1.925000e+01 2.904999e+01 4.299038e+00
    endloop
  endfacet
  facet normal -6.087614e-01 8.851592e-14 -7.933533e-01
    outer loop
      vertex -1.893933e+01 3.050000e+01 4.060661e+00
      vertex -1.925000e+01 2.904999e+01 4.299038e+00
      vertex -1.925000e+01 3.050000e+01 4.299038e+00
    endloop
  endfacet
  facet normal -6.087614e-01 8.851592e-14 -7.933533e-01
    outer loop
      vertex -1.925000e+01 2.904999e+01 4.299038e+00
      vertex -1.893933e+01 3.050000e+01 4.060661e+00
      vertex -1.893933e+01 2.904999e+01 4.060661e+00
    endloop
  endfacet
  facet normal -6.087614e-01 -5.494875e-15 7.933533e-01
    outer loop
      vertex -1.893933e+01 2.904999e+01 1.939341e+00
      vertex -1.925000e+01 3.050000e+01 1.700962e+00
      vertex -1.925000e+01 2.904999e+01 1.700962e+00
    endloop
  endfacet
  facet normal -6.087614e-01 -5.494875e-15 7.933533e-01
    outer loop
      vertex -1.925000e+01 3.050000e+01 1.700962e+00
      vertex -1.893933e+01 2.904999e+01 1.939341e+00
      vertex -1.893933e+01 3.050000e+01 1.939341e+00
    endloop
  endfacet
  facet normal -9.914449e-01 -1.144509e-14 1.305262e-01
    outer loop
      vertex -1.850000e+01 3.050000e+01 3.000000e+00
      vertex -1.855115e+01 2.904999e+01 2.611771e+00
      vertex -1.850000e+01 2.904999e+01 3.000000e+00
    endloop
  endfacet
  facet normal -9.914449e-01 -1.144509e-14 1.305262e-01
    outer loop
      vertex -1.855115e+01 2.904999e+01 2.611771e+00
      vertex -1.850000e+01 3.050000e+01 3.000000e+00
      vertex -1.855115e+01 3.050000e+01 2.611771e+00
    endloop
  endfacet
  facet normal -1.000000e+00 -3.749399e-33 6.123234e-17
    outer loop
      vertex -2.500000e+01 3.050000e+01 6.000000e+00
      vertex -2.500000e+01 2.450000e+01 7.105427e-15
      vertex -2.500000e+01 2.450000e+01 6.000000e+00
    endloop
  endfacet
  facet normal -1.000000e+00 -3.749399e-33 6.123234e-17
    outer loop
      vertex -2.500000e+01 2.450000e+01 7.105427e-15
      vertex -2.500000e+01 3.050000e+01 6.000000e+00
      vertex -2.500000e+01 3.050000e+01 7.105427e-15
    endloop
  endfacet
  facet normal -2.421587e-16 -1.125599e-17 1.000000e+00
    outer loop
      vertex -2.500000e+01 2.450000e+01 6.000000e+00
      vertex -2.269995e+01 2.694998e+01 6.000000e+00
      vertex -2.500000e+01 3.050000e+01 6.000000e+00
    endloop
  endfacet
  facet normal -2.421587e-16 -1.125599e-17 1.000000e+00
    outer loop
      vertex -2.269995e+01 2.694998e+01 6.000000e+00
      vertex -2.500000e+01 2.450000e+01 6.000000e+00
      vertex -1.350000e+01 2.450000e+01 6.000000e+00
    endloop
  endfacet
  facet normal -2.421587e-16 -1.125599e-17 1.000000e+00
    outer loop
      vertex -2.269995e+01 2.694998e+01 6.000000e+00
      vertex -1.350000e+01 2.450000e+01 6.000000e+00
      vertex -1.730005e+01 2.694998e+01 6.000000e+00
    endloop
  endfacet
  facet normal -2.421587e-16 -1.125599e-17 1.000000e+00
    outer loop
      vertex -1.730005e+01 2.694998e+01 6.000000e+00
      vertex -1.350000e+01 2.450000e+01 6.000000e+00
      vertex -1.730005e+01 2.904999e+01 6.000000e+00
    endloop
  endfacet
  facet normal -2.421587e-16 -1.125599e-17 1.000000e+00
    outer loop
      vertex 2.500000e+01 -3.050000e+01 6.000000e+00
      vertex 2.000000e+01 4.500000e+00 6.000000e+00
      vertex 2.000000e+01 -3.050000e+01 6.000000e+00
    endloop
  endfacet
  facet normal -2.421587e-16 -1.125599e-17 1.000000e+00
    outer loop
      vertex -1.350000e+01 9.500000e+00 6.000000e+00
      vertex -8.500000e+00 1.550000e+01 6.000000e+00
      vertex -1.350000e+01 2.450000e+01 6.000000e+00
    endloop
  endfacet
  facet normal -2.421587e-16 -1.125599e-17 1.000000e+00
    outer loop
      vertex -8.500000e+00 1.550000e+01 6.000000e+00
      vertex -1.350000e+01 9.500000e+00 6.000000e+00
      vertex 1.500000e+01 9.500000e+00 6.000000e+00
    endloop
  endfacet
  facet normal -2.421587e-16 -1.125599e-17 1.000000e+00
    outer loop
      vertex -8.500000e+00 1.550000e+01 6.000000e+00
      vertex 1.500000e+01 9.500000e+00 6.000000e+00
      vertex 2.500000e+01 1.550000e+01 6.000000e+00
    endloop
  endfacet
  facet normal -2.421587e-16 -1.125599e-17 1.000000e+00
    outer loop
      vertex 2.500000e+01 1.550000e+01 6.000000e+00
      vertex 1.500000e+01 9.500000e+00 6.000000e+00
      vertex 2.000000e+01 4.500000e+00 6.000000e+00
    endloop
  endfacet
  facet normal -2.421587e-16 -1.125599e-17 1.000000e+00
    outer loop
      vertex 2.500000e+01 1.550000e+01 6.000000e+00
      vertex 2.000000e+01 4.500000e+00 6.000000e+00
      vertex 2.500000e+01 -3.050000e+01 6.000000e+00
    endloop
  endfacet
  facet normal -2.421587e-16 -1.125599e-17 1.000000e+00
    outer loop
      vertex -2.500000e+01 3.050000e+01 6.000000e+00
      vertex -2.269995e+01 2.904999e+01 6.000000e+00
      vertex -8.500000e+00 3.050000e+01 6.000000e+00
    endloop
  endfacet
  facet normal -2.421587e-16 -1.125599e-17 1.000000e+00
    outer loop
      vertex -2.269995e+01 2.904999e+01 6.000000e+00
      vertex -2.500000e+01 3.050000e+01 6.000000e+00
      vertex -2.269995e+01 2.694998e+01 6.000000e+00
    endloop
  endfacet
  facet normal -2.421587e-16 -1.125599e-17 1.000000e+00
    outer loop
      vertex -8.500000e+00 3.050000e+01 6.000000e+00
      vertex -2.269995e+01 2.904999e+01 6.000000e+00
      vertex -1.730005e+01 2.904999e+01 6.000000e+00
    endloop
  endfacet
  facet normal -2.421587e-16 -1.125599e-17 1.000000e+00
    outer loop
      vertex -8.500000e+00 3.050000e+01 6.000000e+00
      vertex -1.730005e+01 2.904999e+01 6.000000e+00
      vertex -1.350000e+01 2.450000e+01 6.000000e+00
    endloop
  endfacet
  facet normal -2.421587e-16 -1.125599e-17 1.000000e+00
    outer loop
      vertex -8.500000e+00 3.050000e+01 6.000000e+00
      vertex -1.350000e+01 2.450000e+01 6.000000e+00
      vertex -8.500000e+00 1.550000e+01 6.000000e+00
    endloop
  endfacet
  facet normal -7.071068e-01 -7.071068e-01 -4.610097e-17
    outer loop
      vertex 1.500000e+01 9.500000e+00 6.000000e+00
      vertex 2.000000e+01 4.500000e+00 7.105427e-15
      vertex 2.000000e+01 4.500000e+00 6.000000e+00
    endloop
  endfacet
  facet normal -7.071068e-01 -7.071068e-01 -4.610097e-17
    outer loop
      vertex 2.000000e+01 4.500000e+00 7.105427e-15
      vertex 1.500000e+01 9.500000e+00 6.000000e+00
      vertex 1.500000e+01 9.500000e+00 7.105427e-15
    endloop
  endfacet
  facet normal 0.000000e+00 1.000000e+00 6.123234e-17
    outer loop
      vertex -2.500000e+01 3.050000e+01 7.105427e-15
      vertex -2.000000e+01 3.050000e+01 1.500000e+00
      vertex -8.500000e+00 3.050000e+01 7.105427e-15
    endloop
  endfacet
  facet normal 0.000000e+00 1.000000e+00 6.123234e-17
    outer loop
      vertex -2.000000e+01 3.050000e+01 1.500000e+00
      vertex -2.500000e+01 3.050000e+01 7.105427e-15
      vertex -2.038818e+01 3.050000e+01 1.551111e+00
    endloop
  endfacet
  facet normal 0.000000e+00 1.000000e+00 6.123234e-17
    outer loop
      vertex -2.038818e+01 3.050000e+01 1.551111e+00
      vertex -2.500000e+01 3.050000e+01 7.105427e-15
      vertex -2.075000e+01 3.050000e+01 1.700962e+00
    endloop
  endfacet
  facet normal 0.000000e+00 1.000000e+00 6.123234e-17
    outer loop
      vertex -2.075000e+01 3.050000e+01 1.700962e+00
      vertex -2.500000e+01 3.050000e+01 7.105427e-15
      vertex -2.106067e+01 3.050000e+01 1.939341e+00
    endloop
  endfacet
  facet normal 0.000000e+00 1.000000e+00 6.123234e-17
    outer loop
      vertex -2.106067e+01 3.050000e+01 1.939341e+00
      vertex -2.500000e+01 3.050000e+01 7.105427e-15
      vertex -2.500000e+01 3.050000e+01 6.000000e+00
    endloop
  endfacet
  facet normal 0.000000e+00 1.000000e+00 6.123234e-17
    outer loop
      vertex -2.106067e+01 3.050000e+01 1.939341e+00
      vertex -2.500000e+01 3.050000e+01 6.000000e+00
      vertex -2.129907e+01 3.050000e+01 2.250000e+00
    endloop
  endfacet
  facet normal 0.000000e+00 1.000000e+00 6.123234e-17
    outer loop
      vertex -2.129907e+01 3.050000e+01 2.250000e+00
      vertex -2.500000e+01 3.050000e+01 6.000000e+00
      vertex -2.144885e+01 3.050000e+01 2.611771e+00
    endloop
  endfacet
  facet normal 0.000000e+00 1.000000e+00 6.123234e-17
    outer loop
      vertex -2.144885e+01 3.050000e+01 2.611771e+00
      vertex -2.500000e+01 3.050000e+01 6.000000e+00
      vertex -2.150000e+01 3.050000e+01 3.000000e+00
    endloop
  endfacet
  facet normal 0.000000e+00 1.000000e+00 6.123234e-17
    outer loop
      vertex -2.150000e+01 3.050000e+01 3.000000e+00
      vertex -2.500000e+01 3.050000e+01 6.000000e+00
      vertex -2.144885e+01 3.050000e+01 3.388229e+00
    endloop
  endfacet
  facet normal 0.000000e+00 1.000000e+00 6.123234e-17
    outer loop
      vertex -2.144885e+01 3.050000e+01 3.388229e+00
      vertex -2.500000e+01 3.050000e+01 6.000000e+00
      vertex -2.129907e+01 3.050000e+01 3.750000e+00
    endloop
  endfacet
  facet normal 0.000000e+00 1.000000e+00 6.123234e-17
    outer loop
      vertex -2.129907e+01 3.050000e+01 3.750000e+00
      vertex -2.500000e+01 3.050000e+01 6.000000e+00
      vertex -2.106067e+01 3.050000e+01 4.060661e+00
    endloop
  endfacet
  facet normal 0.000000e+00 1.000000e+00 6.123234e-17
    outer loop
      vertex -2.106067e+01 3.050000e+01 4.060661e+00
      vertex -2.500000e+01 3.050000e+01 6.000000e+00
      vertex -2.075000e+01 3.050000e+01 4.299038e+00
    endloop
  endfacet
  facet normal 0.000000e+00 1.000000e+00 6.123234e-17
    outer loop
      vertex -2.075000e+01 3.050000e+01 4.299038e+00
      vertex -2.500000e+01 3.050000e+01 6.000000e+00
      vertex -2.038818e+01 3.050000e+01 4.448891e+00
    endloop
  endfacet
  facet normal 0.000000e+00 1.000000e+00 6.123234e-17
    outer loop
      vertex -2.038818e+01 3.050000e+01 4.448891e+00
      vertex -2.500000e+01 3.050000e+01 6.000000e+00
      vertex -2.000000e+01 3.050000e+01 4.500000e+00
    endloop
  endfacet
  facet normal 0.000000e+00 1.000000e+00 6.123234e-17
    outer loop
      vertex -8.500000e+00 3.050000e+01 7.105427e-15
      vertex -1.961182e+01 3.050000e+01 1.551111e+00
      vertex -8.500000e+00 3.050000e+01 6.000000e+00
    endloop
  endfacet
  facet normal 0.000000e+00 1.000000e+00 6.123234e-17
    outer loop
      vertex -1.961182e+01 3.050000e+01 1.551111e+00
      vertex -8.500000e+00 3.050000e+01 7.105427e-15
      vertex -2.000000e+01 3.050000e+01 1.500000e+00
    endloop
  endfacet
  facet normal 0.000000e+00 1.000000e+00 6.123234e-17
    outer loop
      vertex -8.500000e+00 3.050000e+01 6.000000e+00
      vertex -1.961182e+01 3.050000e+01 1.551111e+00
      vertex -1.925000e+01 3.050000e+01 1.700962e+00
    endloop
  endfacet
  facet normal 0.000000e+00 1.000000e+00 6.123234e-17
    outer loop
      vertex -8.500000e+00 3.050000e+01 6.000000e+00
      vertex -1.925000e+01 3.050000e+01 1.700962e+00
      vertex -1.893933e+01 3.050000e+01 1.939341e+00
    endloop
  endfacet
  facet normal 0.000000e+00 1.000000e+00 6.123234e-17
    outer loop
      vertex -8.500000e+00 3.050000e+01 6.000000e+00
      vertex -1.893933e+01 3.050000e+01 1.939341e+00
      vertex -1.870093e+01 3.050000e+01 2.250000e+00
    endloop
  endfacet
  facet normal 0.000000e+00 1.000000e+00 6.123234e-17
    outer loop
      vertex -8.500000e+00 3.050000e+01 6.000000e+00
      vertex -1.870093e+01 3.050000e+01 2.250000e+00
      vertex -1.855115e+01 3.050000e+01 2.611771e+00
    endloop
  endfacet
  facet normal 0.000000e+00 1.000000e+00 6.123234e-17
    outer loop
      vertex -8.500000e+00 3.050000e+01 6.000000e+00
      vertex -1.855115e+01 3.050000e+01 2.611771e+00
      vertex -1.850000e+01 3.050000e+01 3.000000e+00
    endloop
  endfacet
  facet normal 0.000000e+00 1.000000e+00 6.123234e-17
    outer loop
      vertex -8.500000e+00 3.050000e+01 6.000000e+00
      vertex -1.850000e+01 3.050000e+01 3.000000e+00
      vertex -1.855115e+01 3.050000e+01 3.388229e+00
    endloop
  endfacet
  facet normal 0.000000e+00 1.000000e+00 6.123234e-17
    outer loop
      vertex -8.500000e+00 3.050000e+01 6.000000e+00
      vertex -1.855115e+01 3.050000e+01 3.388229e+00
      vertex -1.870093e+01 3.050000e+01 3.750000e+00
    endloop
  endfacet
  facet normal 0.000000e+00 1.000000e+00 6.123234e-17
    outer loop
      vertex -8.500000e+00 3.050000e+01 6.000000e+00
      vertex -1.870093e+01 3.050000e+01 3.750000e+00
      vertex -1.893933e+01 3.050000e+01 4.060661e+00
    endloop
  endfacet
  facet normal 0.000000e+00 1.000000e+00 6.123234e-17
    outer loop
      vertex -8.500000e+00 3.050000e+01 6.000000e+00
      vertex -1.893933e+01 3.050000e+01 4.060661e+00
      vertex -1.925000e+01 3.050000e+01 4.299038e+00
    endloop
  endfacet
  facet normal 0.000000e+00 1.000000e+00 6.123234e-17
    outer loop
      vertex -8.500000e+00 3.050000e+01 6.000000e+00
      vertex -1.925000e+01 3.050000e+01 4.299038e+00
      vertex -1.961182e+01 3.050000e+01 4.448891e+00
    endloop
  endfacet
  facet normal 0.000000e+00 1.000000e+00 6.123234e-17
    outer loop
      vertex -8.500000e+00 3.050000e+01 6.000000e+00
      vertex -1.961182e+01 3.050000e+01 4.448891e+00
      vertex -2.000000e+01 3.050000e+01 4.500000e+00
    endloop
  endfacet
  facet normal 0.000000e+00 1.000000e+00 6.123234e-17
    outer loop
      vertex -8.500000e+00 3.050000e+01 6.000000e+00
      vertex -2.000000e+01 3.050000e+01 4.500000e+00
      vertex -2.500000e+01 3.050000e+01 6.000000e+00
    endloop
  endfacet
  facet normal -1.000000e+00 6.083308e-32 -9.934795e-16
    outer loop
      vertex -1.350000e+01 2.450000e+01 6.000000e+00
      vertex -1.350000e+01 9.500000e+00 7.105427e-15
      vertex -1.350000e+01 9.500000e+00 6.000000e+00
    endloop
  endfacet
  facet normal -1.000000e+00 6.083308e-32 -9.934795e-16
    outer loop
      vertex -1.350000e+01 9.500000e+00 7.105427e-15
      vertex -1.350000e+01 2.450000e+01 6.000000e+00
      vertex -1.350000e+01 2.450000e+01 7.105427e-15
    endloop
  endfacet
  facet normal 0.000000e+00 1.000000e+00 6.123234e-17
    outer loop
      vertex -8.500000e+00 1.550000e+01 6.000000e+00
      vertex 2.500000e+01 1.550000e+01 3.552714e-15
      vertex -8.500000e+00 1.550000e+01 7.105427e-15
    endloop
  endfacet
  facet normal 0.000000e+00 1.000000e+00 6.123234e-17
    outer loop
      vertex 2.500000e+01 1.550000e+01 3.552714e-15
      vertex -8.500000e+00 1.550000e+01 6.000000e+00
      vertex 2.500000e+01 1.550000e+01 6.000000e+00
    endloop
  endfacet
  facet normal 1.000000e+00 -6.083308e-32 9.934795e-16
    outer loop
      vertex -8.500000e+00 3.050000e+01 7.105427e-15
      vertex -8.500000e+00 1.550000e+01 6.000000e+00
      vertex -8.500000e+00 1.550000e+01 7.105427e-15
    endloop
  endfacet
  facet normal 1.000000e+00 -6.083308e-32 9.934795e-16
    outer loop
      vertex -8.500000e+00 1.550000e+01 6.000000e+00
      vertex -8.500000e+00 3.050000e+01 7.105427e-15
      vertex -8.500000e+00 3.050000e+01 6.000000e+00
    endloop
  endfacet
  facet normal 0.000000e+00 -1.000000e+00 -6.123234e-17
    outer loop
      vertex 1.500000e+01 9.500000e+00 6.000000e+00
      vertex -1.350000e+01 9.500000e+00 7.105427e-15
      vertex 1.500000e+01 9.500000e+00 7.105427e-15
    endloop
  endfacet
  facet normal 0.000000e+00 -1.000000e+00 -6.123234e-17
    outer loop
      vertex -1.350000e+01 9.500000e+00 7.105427e-15
      vertex 1.500000e+01 9.500000e+00 6.000000e+00
      vertex -1.350000e+01 9.500000e+00 6.000000e+00
    endloop
  endfacet
  facet normal -1.000000e+00 -3.749399e-33 6.123234e-17
    outer loop
      vertex 2.000000e+01 4.500000e+00 6.000000e+00
      vertex 2.000000e+01 -3.050000e+01 3.552714e-15
      vertex 2.000000e+01 -3.050000e+01 6.000000e+00
    endloop
  endfacet
  facet normal -1.000000e+00 -3.749399e-33 6.123234e-17
    outer loop
      vertex 2.000000e+01 -3.050000e+01 3.552714e-15
      vertex 2.000000e+01 4.500000e+00 6.000000e+00
      vertex 2.000000e+01 4.500000e+00 7.105427e-15
    endloop
  endfacet
endsolid Default
