solid Default
  facet normal -1.000000e+00 -6.123234e-17 -6.123234e-17
    outer loop
      vertex 2.350000e+01 1.225000e+01 7.105427e-15
      vertex 2.350000e+01 1.886182e+01 1.551111e+00
      vertex 2.350000e+01 2.425000e+01 7.105427e-15
    endloop
  endfacet
  facet normal -1.000000e+00 -6.123234e-17 -6.123234e-17
    outer loop
      vertex 2.350000e+01 1.886182e+01 1.551111e+00
      vertex 2.350000e+01 1.225000e+01 7.105427e-15
      vertex 2.350000e+01 1.850000e+01 1.700962e+00
    endloop
  endfacet
  facet normal -1.000000e+00 -6.123234e-17 -6.123234e-17
    outer loop
      vertex 2.350000e+01 1.850000e+01 1.700962e+00
      vertex 2.350000e+01 1.225000e+01 7.105427e-15
      vertex 2.350000e+01 1.225000e+01 6.000000e+00
    endloop
  endfacet
  facet normal -1.000000e+00 -6.123234e-17 -6.123234e-17
    outer loop
      vertex 2.350000e+01 2.425000e+01 7.105427e-15
      vertex 2.350000e+01 1.886182e+01 1.551111e+00
      vertex 2.350000e+01 1.925000e+01 1.500000e+00
    endloop
  endfacet
  facet normal -1.000000e+00 -6.123234e-17 -6.123234e-17
    outer loop
      vertex 2.350000e+01 1.850000e+01 1.700962e+00
      vertex 2.350000e+01 1.225000e+01 6.000000e+00
      vertex 2.350000e+01 1.818933e+01 1.939341e+00
    endloop
  endfacet
  facet normal -1.000000e+00 -6.123234e-17 -6.123234e-17
    outer loop
      vertex 2.350000e+01 1.818933e+01 1.939341e+00
      vertex 2.350000e+01 1.225000e+01 6.000000e+00
      vertex 2.350000e+01 1.795099e+01 2.250000e+00
    endloop
  endfacet
  facet normal -1.000000e+00 -6.123234e-17 -6.123234e-17
    outer loop
      vertex 2.350000e+01 1.795099e+01 2.250000e+00
      vertex 2.350000e+01 1.225000e+01 6.000000e+00
      vertex 2.350000e+01 1.780115e+01 2.611773e+00
    endloop
  endfacet
  facet normal -1.000000e+00 -6.123234e-17 -6.123234e-17
    outer loop
      vertex 2.350000e+01 1.780115e+01 2.611773e+00
      vertex 2.350000e+01 1.225000e+01 6.000000e+00
      vertex 2.350000e+01 1.775000e+01 3.000000e+00
    endloop
  endfacet
  facet normal -1.000000e+00 -6.123234e-17 -6.123234e-17
    outer loop
      vertex 2.350000e+01 1.775000e+01 3.000000e+00
      vertex 2.350000e+01 1.225000e+01 6.000000e+00
      vertex 2.350000e+01 1.780115e+01 3.388229e+00
    endloop
  endfacet
  facet normal -1.000000e+00 -6.123234e-17 -6.123234e-17
    outer loop
      vertex 2.350000e+01 1.780115e+01 3.388229e+00
      vertex 2.350000e+01 1.225000e+01 6.000000e+00
      vertex 2.350000e+01 1.795099e+01 3.750000e+00
    endloop
  endfacet
  facet normal -1.000000e+00 -6.123234e-17 -6.123234e-17
    outer loop
      vertex 2.350000e+01 1.795099e+01 3.750000e+00
      vertex 2.350000e+01 1.225000e+01 6.000000e+00
      vertex 2.350000e+01 1.818933e+01 4.060661e+00
    endloop
  endfacet
  facet normal -1.000000e+00 -6.123234e-17 -6.123234e-17
    outer loop
      vertex 2.350000e+01 1.818933e+01 4.060661e+00
      vertex 2.350000e+01 1.225000e+01 6.000000e+00
      vertex 2.350000e+01 1.850000e+01 4.299038e+00
    endloop
  endfacet
  facet normal -1.000000e+00 -6.123234e-17 -6.123234e-17
    outer loop
      vertex 2.350000e+01 1.850000e+01 4.299038e+00
      vertex 2.350000e+01 1.225000e+01 6.000000e+00
      vertex 2.350000e+01 1.886182e+01 4.448889e+00
    endloop
  endfacet
  facet normal -1.000000e+00 -6.123234e-17 -6.123234e-17
    outer loop
      vertex 2.350000e+01 1.886182e+01 4.448889e+00
      vertex 2.350000e+01 1.225000e+01 6.000000e+00
      vertex 2.350000e+01 1.925000e+01 4.500000e+00
    endloop
  endfacet
  facet normal -1.000000e+00 -6.123234e-17 -6.123234e-17
    outer loop
      vertex 2.350000e+01 2.425000e+01 7.105427e-15
      vertex 2.350000e+01 2.031067e+01 1.939341e+00
      vertex 2.350000e+01 2.425000e+01 6.000000e+00
    endloop
  endfacet
  facet normal -1.000000e+00 -6.123234e-17 -6.123234e-17
    outer loop
      vertex 2.350000e+01 2.031067e+01 1.939341e+00
      vertex 2.350000e+01 2.425000e+01 7.105427e-15
      vertex 2.350000e+01 2.000000e+01 1.700962e+00
    endloop
  endfacet
  facet normal -1.000000e+00 -6.123234e-17 -6.123234e-17
    outer loop
      vertex 2.350000e+01 2.000000e+01 1.700962e+00
      vertex 2.350000e+01 2.425000e+01 7.105427e-15
      vertex 2.350000e+01 1.963824e+01 1.551111e+00
    endloop
  endfacet
  facet normal -1.000000e+00 -6.123234e-17 -6.123234e-17
    outer loop
      vertex 2.350000e+01 1.963824e+01 1.551111e+00
      vertex 2.350000e+01 2.425000e+01 7.105427e-15
      vertex 2.350000e+01 1.925000e+01 1.500000e+00
    endloop
  endfacet
  facet normal -1.000000e+00 -6.123234e-17 -6.123234e-17
    outer loop
      vertex 2.350000e+01 2.425000e+01 6.000000e+00
      vertex 2.350000e+01 2.031067e+01 1.939341e+00
      vertex 2.350000e+01 2.054907e+01 2.250000e+00
    endloop
  endfacet
  facet normal -1.000000e+00 -6.123234e-17 -6.123234e-17
    outer loop
      vertex 2.350000e+01 2.425000e+01 6.000000e+00
      vertex 2.350000e+01 2.054907e+01 2.250000e+00
      vertex 2.350000e+01 2.069891e+01 2.611773e+00
    endloop
  endfacet
  facet normal -1.000000e+00 -6.123234e-17 -6.123234e-17
    outer loop
      vertex 2.350000e+01 2.425000e+01 6.000000e+00
      vertex 2.350000e+01 2.069891e+01 2.611773e+00
      vertex 2.350000e+01 2.075000e+01 3.000000e+00
    endloop
  endfacet
  facet normal -1.000000e+00 -6.123234e-17 -6.123234e-17
    outer loop
      vertex 2.350000e+01 2.425000e+01 6.000000e+00
      vertex 2.350000e+01 2.075000e+01 3.000000e+00
      vertex 2.350000e+01 2.069891e+01 3.388229e+00
    endloop
  endfacet
  facet normal -1.000000e+00 -6.123234e-17 -6.123234e-17
    outer loop
      vertex 2.350000e+01 2.425000e+01 6.000000e+00
      vertex 2.350000e+01 2.069891e+01 3.388229e+00
      vertex 2.350000e+01 2.054907e+01 3.750000e+00
    endloop
  endfacet
  facet normal -1.000000e+00 -6.123234e-17 -6.123234e-17
    outer loop
      vertex 2.350000e+01 2.425000e+01 6.000000e+00
      vertex 2.350000e+01 2.054907e+01 3.750000e+00
      vertex 2.350000e+01 2.031067e+01 4.060661e+00
    endloop
  endfacet
  facet normal -1.000000e+00 -6.123234e-17 -6.123234e-17
    outer loop
      vertex 2.350000e+01 2.425000e+01 6.000000e+00
      vertex 2.350000e+01 2.031067e+01 4.060661e+00
      vertex 2.350000e+01 2.000000e+01 4.299038e+00
    endloop
  endfacet
  facet normal -1.000000e+00 -6.123234e-17 -6.123234e-17
    outer loop
      vertex 2.350000e+01 2.425000e+01 6.000000e+00
      vertex 2.350000e+01 2.000000e+01 4.299038e+00
      vertex 2.350000e+01 1.963824e+01 4.448889e+00
    endloop
  endfacet
  facet normal -1.000000e+00 -6.123234e-17 -6.123234e-17
    outer loop
      vertex 2.350000e+01 2.425000e+01 6.000000e+00
      vertex 2.350000e+01 1.963824e+01 4.448889e+00
      vertex 2.350000e+01 1.925000e+01 4.500000e+00
    endloop
  endfacet
  facet normal -1.000000e+00 -6.123234e-17 -6.123234e-17
    outer loop
      vertex 2.350000e+01 2.425000e+01 6.000000e+00
      vertex 2.350000e+01 1.925000e+01 4.500000e+00
      vertex 2.350000e+01 1.225000e+01 6.000000e+00
    endloop
  endfacet
  facet normal 6.123234e-17 6.123234e-17 -1.000000e+00
    outer loop
      vertex 2.950000e+01 2.425000e+01 7.105427e-15
      vertex 2.804999e+01 2.195001e+01 7.105427e-15
      vertex 2.350000e+01 2.425000e+01 7.105427e-15
    endloop
  endfacet
  facet normal 6.123234e-17 6.123234e-17 -1.000000e+00
    outer loop
      vertex 2.804999e+01 2.195001e+01 7.105427e-15
      vertex 2.950000e+01 2.425000e+01 7.105427e-15
      vertex 2.950000e+01 7.250000e+00 7.105427e-15
    endloop
  endfacet
  facet normal 6.123234e-17 6.123234e-17 -1.000000e+00
    outer loop
      vertex 2.804999e+01 2.195001e+01 7.105427e-15
      vertex 2.950000e+01 7.250000e+00 7.105427e-15
      vertex 2.804999e+01 1.654999e+01 7.105427e-15
    endloop
  endfacet
  facet normal 6.123234e-17 6.123234e-17 -1.000000e+00
    outer loop
      vertex 2.804999e+01 1.654999e+01 7.105427e-15
      vertex 2.950000e+01 7.250000e+00 7.105427e-15
      vertex 2.594998e+01 1.654999e+01 7.105427e-15
    endloop
  endfacet
  facet normal 6.123234e-17 6.123234e-17 -1.000000e+00
    outer loop
      vertex 2.594998e+01 1.654999e+01 7.105427e-15
      vertex 2.950000e+01 7.250000e+00 7.105427e-15
      vertex 2.350000e+01 1.225000e+01 7.105427e-15
    endloop
  endfacet
  facet normal 6.123234e-17 6.123234e-17 -1.000000e+00
    outer loop
      vertex 2.350000e+01 1.225000e+01 7.105427e-15
      vertex 2.950000e+01 7.250000e+00 7.105427e-15
      vertex 8.500000e+00 1.225000e+01 3.552714e-15
    endloop
  endfacet
  facet normal 6.123234e-17 6.123234e-17 -1.000000e+00
    outer loop
      vertex 8.500000e+00 1.225000e+01 3.552714e-15
      vertex 2.950000e+01 7.250000e+00 7.105427e-15
      vertex 1.450000e+01 7.250000e+00 3.552714e-15
    endloop
  endfacet
  facet normal 6.123234e-17 6.123234e-17 -1.000000e+00
    outer loop
      vertex 8.500000e+00 1.225000e+01 3.552714e-15
      vertex 1.450000e+01 7.250000e+00 3.552714e-15
      vertex 8.500000e+00 -1.625000e+01 0.000000e+00
    endloop
  endfacet
  facet normal 6.123234e-17 6.123234e-17 -1.000000e+00
    outer loop
      vertex 8.500000e+00 -1.625000e+01 0.000000e+00
      vertex 1.450000e+01 7.250000e+00 3.552714e-15
      vertex 1.450000e+01 -2.425000e+01 0.000000e+00
    endloop
  endfacet
  facet normal 6.123234e-17 6.123234e-17 -1.000000e+00
    outer loop
      vertex 8.500000e+00 -1.625000e+01 0.000000e+00
      vertex 1.450000e+01 -2.425000e+01 0.000000e+00
      vertex 3.500000e+00 -2.125000e+01 0.000000e+00
    endloop
  endfacet
  facet normal 6.123234e-17 6.123234e-17 -1.000000e+00
    outer loop
      vertex 3.500000e+00 -2.125000e+01 0.000000e+00
      vertex 1.450000e+01 -2.425000e+01 0.000000e+00
      vertex -2.950000e+01 -2.125000e+01 0.000000e+00
    endloop
  endfacet
  facet normal 6.123234e-17 6.123234e-17 -1.000000e+00
    outer loop
      vertex -2.950000e+01 -2.125000e+01 0.000000e+00
      vertex 1.450000e+01 -2.425000e+01 0.000000e+00
      vertex -2.950000e+01 -2.425000e+01 0.000000e+00
    endloop
  endfacet
  facet normal 6.123234e-17 6.123234e-17 -1.000000e+00
    outer loop
      vertex 2.350000e+01 2.425000e+01 7.105427e-15
      vertex 2.594998e+01 2.195001e+01 7.105427e-15
      vertex 2.350000e+01 1.225000e+01 7.105427e-15
    endloop
  endfacet
  facet normal 6.123234e-17 6.123234e-17 -1.000000e+00
    outer loop
      vertex 2.594998e+01 2.195001e+01 7.105427e-15
      vertex 2.350000e+01 2.425000e+01 7.105427e-15
      vertex 2.804999e+01 2.195001e+01 7.105427e-15
    endloop
  endfacet
  facet normal 6.123234e-17 6.123234e-17 -1.000000e+00
    outer loop
      vertex 2.350000e+01 1.225000e+01 7.105427e-15
      vertex 2.594998e+01 2.195001e+01 7.105427e-15
      vertex 2.594998e+01 1.654999e+01 7.105427e-15
    endloop
  endfacet
  facet normal 6.123234e-17 -1.000000e+00 -6.123234e-17
    outer loop
      vertex 1.450000e+01 -2.425000e+01 0.000000e+00
      vertex -2.950000e+01 -2.425000e+01 6.000000e+00
      vertex -2.950000e+01 -2.425000e+01 0.000000e+00
    endloop
  endfacet
  facet normal 6.123234e-17 -1.000000e+00 -6.123234e-17
    outer loop
      vertex -2.950000e+01 -2.425000e+01 6.000000e+00
      vertex 1.450000e+01 -2.425000e+01 0.000000e+00
      vertex 1.450000e+01 -2.425000e+01 6.000000e+00
    endloop
  endfacet
  facet normal -1.000000e+00 -6.123234e-17 -6.123234e-17
    outer loop
      vertex -2.950000e+01 -2.425000e+01 6.000000e+00
      vertex -2.950000e+01 -2.125000e+01 0.000000e+00
      vertex -2.950000e+01 -2.425000e+01 0.000000e+00
    endloop
  endfacet
  facet normal -1.000000e+00 -6.123234e-17 -6.123234e-17
    outer loop
      vertex -2.950000e+01 -2.125000e+01 0.000000e+00
      vertex -2.950000e+01 -2.425000e+01 6.000000e+00
      vertex -2.950000e+01 -2.125000e+01 6.000000e+00
    endloop
  endfacet
  facet normal -7.612676e-16 1.000000e+00 3.911427e-15
    outer loop
      vertex 3.500000e+00 -2.125000e+01 6.000000e+00
      vertex -2.950000e+01 -2.125000e+01 0.000000e+00
      vertex -2.950000e+01 -2.125000e+01 6.000000e+00
    endloop
  endfacet
  facet normal -7.612676e-16 1.000000e+00 3.911427e-15
    outer loop
      vertex -2.950000e+01 -2.125000e+01 0.000000e+00
      vertex 3.500000e+00 -2.125000e+01 6.000000e+00
      vertex 3.500000e+00 -2.125000e+01 0.000000e+00
    endloop
  endfacet
  facet normal 5.191859e-17 1.305262e-01 -9.914449e-01
    outer loop
      vertex 2.594998e+01 1.886182e+01 4.448889e+00
      vertex 2.350000e+01 1.925000e+01 4.500000e+00
      vertex 2.594998e+01 1.925000e+01 4.500000e+00
    endloop
  endfacet
  facet normal 5.191859e-17 1.305262e-01 -9.914449e-01
    outer loop
      vertex 2.350000e+01 1.925000e+01 4.500000e+00
      vertex 2.594998e+01 1.886182e+01 4.448889e+00
      vertex 2.350000e+01 1.886182e+01 4.448889e+00
    endloop
  endfacet
  facet normal 3.313871e-17 3.826834e-01 -9.238795e-01
    outer loop
      vertex 2.594998e+01 1.850000e+01 4.299038e+00
      vertex 2.350000e+01 1.886182e+01 4.448889e+00
      vertex 2.594998e+01 1.886182e+01 4.448889e+00
    endloop
  endfacet
  facet normal 3.313871e-17 3.826834e-01 -9.238795e-01
    outer loop
      vertex 2.350000e+01 1.886182e+01 4.448889e+00
      vertex 2.594998e+01 1.850000e+01 4.299038e+00
      vertex 2.350000e+01 1.850000e+01 4.299038e+00
    endloop
  endfacet
  facet normal 1.372654e-17 -7.933533e-01 6.087614e-01
    outer loop
      vertex 2.594998e+01 2.031067e+01 1.939341e+00
      vertex 2.350000e+01 2.054907e+01 2.250000e+00
      vertex 2.350000e+01 2.031067e+01 1.939341e+00
    endloop
  endfacet
  facet normal 1.372654e-17 -7.933533e-01 6.087614e-01
    outer loop
      vertex 2.350000e+01 2.054907e+01 2.250000e+00
      vertex 2.594998e+01 2.031067e+01 1.939341e+00
      vertex 2.594998e+01 2.054907e+01 2.250000e+00
    endloop
  endfacet
  facet normal 6.794374e-17 -9.914449e-01 -1.305262e-01
    outer loop
      vertex 2.594998e+01 2.075000e+01 3.000000e+00
      vertex 2.350000e+01 2.069891e+01 3.388229e+00
      vertex 2.350000e+01 2.075000e+01 3.000000e+00
    endloop
  endfacet
  facet normal 6.794374e-17 -9.914449e-01 -1.305262e-01
    outer loop
      vertex 2.350000e+01 2.069891e+01 3.388229e+00
      vertex 2.594998e+01 2.075000e+01 3.000000e+00
      vertex 2.594998e+01 2.069891e+01 3.388229e+00
    endloop
  endfacet
  facet normal 8.282619e-17 -9.238795e-01 -3.826834e-01
    outer loop
      vertex 2.594998e+01 2.069891e+01 3.388229e+00
      vertex 2.350000e+01 2.054907e+01 3.750000e+00
      vertex 2.350000e+01 2.069891e+01 3.388229e+00
    endloop
  endfacet
  facet normal 8.282619e-17 -9.238795e-01 -3.826834e-01
    outer loop
      vertex 2.350000e+01 2.054907e+01 3.750000e+00
      vertex 2.594998e+01 2.069891e+01 3.388229e+00
      vertex 2.594998e+01 2.054907e+01 3.750000e+00
    endloop
  endfacet
  facet normal -6.870092e-17 1.305262e-01 9.914449e-01
    outer loop
      vertex 2.350000e+01 1.886182e+01 1.551111e+00
      vertex 2.594998e+01 1.925000e+01 1.500000e+00
      vertex 2.350000e+01 1.925000e+01 1.500000e+00
    endloop
  endfacet
  facet normal -6.870092e-17 1.305262e-01 9.914449e-01
    outer loop
      vertex 2.594998e+01 1.925000e+01 1.500000e+00
      vertex 2.350000e+01 1.886182e+01 1.551111e+00
      vertex 2.594998e+01 1.886182e+01 1.551111e+00
    endloop
  endfacet
  facet normal -8.234196e-17 3.826834e-01 9.238795e-01
    outer loop
      vertex 2.350000e+01 1.850000e+01 1.700962e+00
      vertex 2.594998e+01 1.886182e+01 1.551111e+00
      vertex 2.350000e+01 1.886182e+01 1.551111e+00
    endloop
  endfacet
  facet normal -8.234196e-17 3.826834e-01 9.238795e-01
    outer loop
      vertex 2.594998e+01 1.886182e+01 1.551111e+00
      vertex 2.350000e+01 1.850000e+01 1.700962e+00
      vertex 2.594998e+01 1.850000e+01 1.700962e+00
    endloop
  endfacet
  facet normal -1.372654e-17 7.933533e-01 -6.087614e-01
    outer loop
      vertex 2.594998e+01 1.818933e+01 4.060661e+00
      vertex 2.350000e+01 1.795099e+01 3.750000e+00
      vertex 2.350000e+01 1.818933e+01 4.060661e+00
    endloop
  endfacet
  facet normal -1.372654e-17 7.933533e-01 -6.087614e-01
    outer loop
      vertex 2.350000e+01 1.795099e+01 3.750000e+00
      vertex 2.594998e+01 1.818933e+01 4.060661e+00
      vertex 2.594998e+01 1.795099e+01 3.750000e+00
    endloop
  endfacet
  facet normal 6.870092e-17 -1.305262e-01 -9.914449e-01
    outer loop
      vertex 2.594998e+01 1.925000e+01 4.500000e+00
      vertex 2.350000e+01 1.963824e+01 4.448889e+00
      vertex 2.594998e+01 1.963824e+01 4.448889e+00
    endloop
  endfacet
  facet normal 6.870092e-17 -1.305262e-01 -9.914449e-01
    outer loop
      vertex 2.350000e+01 1.963824e+01 4.448889e+00
      vertex 2.594998e+01 1.925000e+01 4.500000e+00
      vertex 2.350000e+01 1.925000e+01 4.500000e+00
    endloop
  endfacet
  facet normal 5.271607e-17 -9.914449e-01 1.305262e-01
    outer loop
      vertex 2.594998e+01 2.069891e+01 2.611773e+00
      vertex 2.350000e+01 2.075000e+01 3.000000e+00
      vertex 2.350000e+01 2.069891e+01 2.611773e+00
    endloop
  endfacet
  facet normal 5.271607e-17 -9.914449e-01 1.305262e-01
    outer loop
      vertex 2.350000e+01 2.075000e+01 3.000000e+00
      vertex 2.594998e+01 2.069891e+01 2.611773e+00
      vertex 2.594998e+01 2.075000e+01 3.000000e+00
    endloop
  endfacet
  facet normal 1.130299e-17 6.087614e-01 -7.933533e-01
    outer loop
      vertex 2.594998e+01 1.818933e+01 4.060661e+00
      vertex 2.350000e+01 1.850000e+01 4.299038e+00
      vertex 2.594998e+01 1.850000e+01 4.299038e+00
    endloop
  endfacet
  facet normal 1.130299e-17 6.087614e-01 -7.933533e-01
    outer loop
      vertex 2.350000e+01 1.850000e+01 4.299038e+00
      vertex 2.594998e+01 1.818933e+01 4.060661e+00
      vertex 2.350000e+01 1.818933e+01 4.060661e+00
    endloop
  endfacet
  facet normal 3.031641e-17 -9.238795e-01 3.826834e-01
    outer loop
      vertex 2.594998e+01 2.054907e+01 2.250000e+00
      vertex 2.350000e+01 2.069891e+01 2.611773e+00
      vertex 2.350000e+01 2.054907e+01 2.250000e+00
    endloop
  endfacet
  facet normal 3.031641e-17 -9.238795e-01 3.826834e-01
    outer loop
      vertex 2.350000e+01 2.069891e+01 2.611773e+00
      vertex 2.594998e+01 2.054907e+01 2.250000e+00
      vertex 2.594998e+01 2.069891e+01 2.611773e+00
    endloop
  endfacet
  facet normal 8.000391e-17 -3.826834e-01 -9.238795e-01
    outer loop
      vertex 2.594998e+01 1.963824e+01 4.448889e+00
      vertex 2.350000e+01 2.000000e+01 4.299038e+00
      vertex 2.594998e+01 2.000000e+01 4.299038e+00
    endloop
  endfacet
  facet normal 8.000391e-17 -3.826834e-01 -9.238795e-01
    outer loop
      vertex 2.350000e+01 2.000000e+01 4.299038e+00
      vertex 2.594998e+01 1.963824e+01 4.448889e+00
      vertex 2.350000e+01 1.963824e+01 4.448889e+00
    endloop
  endfacet
  facet normal -5.351354e-17 -1.305262e-01 9.914449e-01
    outer loop
      vertex 2.350000e+01 1.925000e+01 1.500000e+00
      vertex 2.594998e+01 1.963824e+01 1.551111e+00
      vertex 2.350000e+01 1.963824e+01 1.551111e+00
    endloop
  endfacet
  facet normal -5.351354e-17 -1.305262e-01 9.914449e-01
    outer loop
      vertex 2.594998e+01 1.963824e+01 1.551111e+00
      vertex 2.350000e+01 1.925000e+01 1.500000e+00
      vertex 2.594998e+01 1.925000e+01 1.500000e+00
    endloop
  endfacet
  facet normal -8.000390e-17 9.238795e-01 3.826834e-01
    outer loop
      vertex 2.594998e+01 1.780115e+01 2.611773e+00
      vertex 2.350000e+01 1.795099e+01 2.250000e+00
      vertex 2.350000e+01 1.780115e+01 2.611773e+00
    endloop
  endfacet
  facet normal -8.000390e-17 9.238795e-01 3.826834e-01
    outer loop
      vertex 2.350000e+01 1.795099e+01 2.250000e+00
      vertex 2.594998e+01 1.780115e+01 2.611773e+00
      vertex 2.594998e+01 1.795099e+01 2.250000e+00
    endloop
  endfacet
  facet normal -3.313871e-17 -3.826834e-01 9.238795e-01
    outer loop
      vertex 2.350000e+01 1.963824e+01 1.551111e+00
      vertex 2.594998e+01 2.000000e+01 1.700962e+00
      vertex 2.350000e+01 2.000000e+01 1.700962e+00
    endloop
  endfacet
  facet normal -3.313871e-17 -3.826834e-01 9.238795e-01
    outer loop
      vertex 2.594998e+01 2.000000e+01 1.700962e+00
      vertex 2.350000e+01 1.963824e+01 1.551111e+00
      vertex 2.594998e+01 1.963824e+01 1.551111e+00
    endloop
  endfacet
  facet normal 8.585477e-17 -7.933533e-01 -6.087614e-01
    outer loop
      vertex 2.594998e+01 2.054907e+01 3.750000e+00
      vertex 2.350000e+01 2.031067e+01 4.060661e+00
      vertex 2.350000e+01 2.054907e+01 3.750000e+00
    endloop
  endfacet
  facet normal 8.585477e-17 -7.933533e-01 -6.087614e-01
    outer loop
      vertex 2.350000e+01 2.031067e+01 4.060661e+00
      vertex 2.594998e+01 2.054907e+01 3.750000e+00
      vertex 2.594998e+01 2.031067e+01 4.060661e+00
    endloop
  endfacet
  facet normal -3.313870e-17 9.238795e-01 -3.826834e-01
    outer loop
      vertex 2.594998e+01 1.795099e+01 3.750000e+00
      vertex 2.350000e+01 1.780115e+01 3.388229e+00
      vertex 2.350000e+01 1.795099e+01 3.750000e+00
    endloop
  endfacet
  facet normal -3.313870e-17 9.238795e-01 -3.826834e-01
    outer loop
      vertex 2.350000e+01 1.780115e+01 3.388229e+00
      vertex 2.594998e+01 1.795099e+01 3.750000e+00
      vertex 2.594998e+01 1.780115e+01 3.388229e+00
    endloop
  endfacet
  facet normal -1.130299e-17 -6.087614e-01 7.933533e-01
    outer loop
      vertex 2.350000e+01 2.000000e+01 1.700962e+00
      vertex 2.594998e+01 2.031067e+01 1.939341e+00
      vertex 2.350000e+01 2.031067e+01 1.939341e+00
    endloop
  endfacet
  facet normal -1.130299e-17 -6.087614e-01 7.933533e-01
    outer loop
      vertex 2.594998e+01 2.031067e+01 1.939341e+00
      vertex 2.350000e+01 2.000000e+01 1.700962e+00
      vertex 2.594998e+01 2.000000e+01 1.700962e+00
    endloop
  endfacet
  facet normal -5.271607e-17 9.914449e-01 -1.305262e-01
    outer loop
      vertex 2.594998e+01 1.780115e+01 3.388229e+00
      vertex 2.350000e+01 1.775000e+01 3.000000e+00
      vertex 2.350000e+01 1.780115e+01 3.388229e+00
    endloop
  endfacet
  facet normal -5.271607e-17 9.914449e-01 -1.305262e-01
    outer loop
      vertex 2.350000e+01 1.775000e+01 3.000000e+00
      vertex 2.594998e+01 1.780115e+01 3.388229e+00
      vertex 2.594998e+01 1.775000e+01 3.000000e+00
    endloop
  endfacet
  facet normal 8.585477e-17 -6.087614e-01 -7.933533e-01
    outer loop
      vertex 2.594998e+01 2.000000e+01 4.299038e+00
      vertex 2.350000e+01 2.031067e+01 4.060661e+00
      vertex 2.594998e+01 2.031067e+01 4.060661e+00
    endloop
  endfacet
  facet normal 8.585477e-17 -6.087614e-01 -7.933533e-01
    outer loop
      vertex 2.350000e+01 2.031067e+01 4.060661e+00
      vertex 2.594998e+01 2.000000e+01 4.299038e+00
      vertex 2.350000e+01 2.000000e+01 4.299038e+00
    endloop
  endfacet
  facet normal -8.585477e-17 6.087614e-01 7.933533e-01
    outer loop
      vertex 2.350000e+01 1.818933e+01 1.939341e+00
      vertex 2.594998e+01 1.850000e+01 1.700962e+00
      vertex 2.350000e+01 1.850000e+01 1.700962e+00
    endloop
  endfacet
  facet normal -8.585477e-17 6.087614e-01 7.933533e-01
    outer loop
      vertex 2.594998e+01 1.850000e+01 1.700962e+00
      vertex 2.350000e+01 1.818933e+01 1.939341e+00
      vertex 2.594998e+01 1.818933e+01 1.939341e+00
    endloop
  endfacet
  facet normal -8.827832e-17 7.933533e-01 6.087614e-01
    outer loop
      vertex 2.594998e+01 1.795099e+01 2.250000e+00
      vertex 2.350000e+01 1.818933e+01 1.939341e+00
      vertex 2.350000e+01 1.795099e+01 2.250000e+00
    endloop
  endfacet
  facet normal -8.827832e-17 7.933533e-01 6.087614e-01
    outer loop
      vertex 2.350000e+01 1.818933e+01 1.939341e+00
      vertex 2.594998e+01 1.795099e+01 2.250000e+00
      vertex 2.594998e+01 1.818933e+01 1.939341e+00
    endloop
  endfacet
  facet normal -8.961357e-14 -3.826834e-01 9.238795e-01
    outer loop
      vertex 2.804999e+01 2.000000e+01 1.700962e+00
      vertex 2.950000e+01 1.963824e+01 1.551111e+00
      vertex 2.950000e+01 2.000000e+01 1.700962e+00
    endloop
  endfacet
  facet normal -8.961357e-14 -3.826834e-01 9.238795e-01
    outer loop
      vertex 2.950000e+01 1.963824e+01 1.551111e+00
      vertex 2.804999e+01 2.000000e+01 1.700962e+00
      vertex 2.804999e+01 1.963824e+01 1.551111e+00
    endloop
  endfacet
  facet normal -3.484094e-14 -9.914449e-01 -1.305262e-01
    outer loop
      vertex 2.950000e+01 2.075000e+01 3.000000e+00
      vertex 2.804999e+01 2.069891e+01 3.388229e+00
      vertex 2.804999e+01 2.075000e+01 3.000000e+00
    endloop
  endfacet
  facet normal -3.484094e-14 -9.914449e-01 -1.305262e-01
    outer loop
      vertex 2.804999e+01 2.069891e+01 3.388229e+00
      vertex 2.950000e+01 2.075000e+01 3.000000e+00
      vertex 2.950000e+01 2.069891e+01 3.388229e+00
    endloop
  endfacet
  facet normal -6.303009e-14 -7.933533e-01 6.087614e-01
    outer loop
      vertex 2.950000e+01 2.031067e+01 1.939341e+00
      vertex 2.804999e+01 2.054907e+01 2.250000e+00
      vertex 2.804999e+01 2.031067e+01 1.939341e+00
    endloop
  endfacet
  facet normal -6.303009e-14 -7.933533e-01 6.087614e-01
    outer loop
      vertex 2.804999e+01 2.054907e+01 2.250000e+00
      vertex 2.950000e+01 2.031067e+01 1.939341e+00
      vertex 2.950000e+01 2.054907e+01 2.250000e+00
    endloop
  endfacet
  facet normal -8.932289e-14 -9.914449e-01 1.305262e-01
    outer loop
      vertex 2.950000e+01 2.069891e+01 2.611773e+00
      vertex 2.804999e+01 2.075000e+01 3.000000e+00
      vertex 2.804999e+01 2.069891e+01 2.611773e+00
    endloop
  endfacet
  facet normal -8.932289e-14 -9.914449e-01 1.305262e-01
    outer loop
      vertex 2.804999e+01 2.075000e+01 3.000000e+00
      vertex 2.950000e+01 2.069891e+01 2.611773e+00
      vertex 2.950000e+01 2.075000e+01 3.000000e+00
    endloop
  endfacet
  facet normal 1.227189e-14 -9.238795e-01 -3.826834e-01
    outer loop
      vertex 2.950000e+01 2.069891e+01 3.388229e+00
      vertex 2.804999e+01 2.054907e+01 3.750000e+00
      vertex 2.804999e+01 2.069891e+01 3.388229e+00
    endloop
  endfacet
  facet normal 1.227189e-14 -9.238795e-01 -3.826834e-01
    outer loop
      vertex 2.804999e+01 2.054907e+01 3.750000e+00
      vertex 2.950000e+01 2.069891e+01 3.388229e+00
      vertex 2.950000e+01 2.054907e+01 3.750000e+00
    endloop
  endfacet
  facet normal -6.870092e-17 9.914449e-01 1.305262e-01
    outer loop
      vertex 2.594998e+01 1.775000e+01 3.000000e+00
      vertex 2.350000e+01 1.780115e+01 2.611773e+00
      vertex 2.350000e+01 1.775000e+01 3.000000e+00
    endloop
  endfacet
  facet normal -6.870092e-17 9.914449e-01 1.305262e-01
    outer loop
      vertex 2.350000e+01 1.780115e+01 2.611773e+00
      vertex 2.594998e+01 1.775000e+01 3.000000e+00
      vertex 2.594998e+01 1.780115e+01 2.611773e+00
    endloop
  endfacet
  facet normal 7.879123e-16 9.914449e-01 -1.305262e-01
    outer loop
      vertex 2.950000e+01 1.780115e+01 3.388229e+00
      vertex 2.804999e+01 1.775000e+01 3.000000e+00
      vertex 2.804999e+01 1.780115e+01 3.388229e+00
    endloop
  endfacet
  facet normal 7.879123e-16 9.914449e-01 -1.305262e-01
    outer loop
      vertex 2.804999e+01 1.775000e+01 3.000000e+00
      vertex 2.950000e+01 1.780115e+01 3.388229e+00
      vertex 2.950000e+01 1.775000e+01 3.000000e+00
    endloop
  endfacet
  facet normal -3.654586e-14 -9.238795e-01 3.826834e-01
    outer loop
      vertex 2.950000e+01 2.054907e+01 2.250000e+00
      vertex 2.804999e+01 2.069891e+01 2.611773e+00
      vertex 2.804999e+01 2.054907e+01 2.250000e+00
    endloop
  endfacet
  facet normal -3.654586e-14 -9.238795e-01 3.826834e-01
    outer loop
      vertex 2.804999e+01 2.069891e+01 2.611773e+00
      vertex 2.950000e+01 2.054907e+01 2.250000e+00
      vertex 2.950000e+01 2.069891e+01 2.611773e+00
    endloop
  endfacet
  facet normal 5.895972e-14 -3.826834e-01 -9.238795e-01
    outer loop
      vertex 2.950000e+01 1.963824e+01 4.448889e+00
      vertex 2.804999e+01 2.000000e+01 4.299038e+00
      vertex 2.950000e+01 2.000000e+01 4.299038e+00
    endloop
  endfacet
  facet normal 5.895972e-14 -3.826834e-01 -9.238795e-01
    outer loop
      vertex 2.804999e+01 2.000000e+01 4.299038e+00
      vertex 2.950000e+01 1.963824e+01 4.448889e+00
      vertex 2.804999e+01 1.963824e+01 4.448889e+00
    endloop
  endfacet
  facet normal -3.910163e-15 7.933533e-01 6.087614e-01
    outer loop
      vertex 2.950000e+01 1.795099e+01 2.250000e+00
      vertex 2.804999e+01 1.818933e+01 1.939341e+00
      vertex 2.804999e+01 1.795099e+01 2.250000e+00
    endloop
  endfacet
  facet normal -3.910163e-15 7.933533e-01 6.087614e-01
    outer loop
      vertex 2.804999e+01 1.818933e+01 1.939341e+00
      vertex 2.950000e+01 1.795099e+01 2.250000e+00
      vertex 2.950000e+01 1.818933e+01 1.939341e+00
    endloop
  endfacet
  facet normal -1.106362e-13 1.305262e-01 9.914449e-01
    outer loop
      vertex 2.804999e+01 1.886182e+01 1.551111e+00
      vertex 2.950000e+01 1.925000e+01 1.500000e+00
      vertex 2.804999e+01 1.925000e+01 1.500000e+00
    endloop
  endfacet
  facet normal -1.106362e-13 1.305262e-01 9.914449e-01
    outer loop
      vertex 2.950000e+01 1.925000e+01 1.500000e+00
      vertex 2.804999e+01 1.886182e+01 1.551111e+00
      vertex 2.950000e+01 1.886182e+01 1.551111e+00
    endloop
  endfacet
  facet normal 6.960875e-14 -6.087614e-01 -7.933533e-01
    outer loop
      vertex 2.950000e+01 2.000000e+01 4.299038e+00
      vertex 2.804999e+01 2.031067e+01 4.060661e+00
      vertex 2.950000e+01 2.031067e+01 4.060661e+00
    endloop
  endfacet
  facet normal 6.960875e-14 -6.087614e-01 -7.933533e-01
    outer loop
      vertex 2.804999e+01 2.031067e+01 4.060661e+00
      vertex 2.950000e+01 2.000000e+01 4.299038e+00
      vertex 2.804999e+01 2.000000e+01 4.299038e+00
    endloop
  endfacet
  facet normal 4.373276e-14 -7.933533e-01 -6.087614e-01
    outer loop
      vertex 2.950000e+01 2.054907e+01 3.750000e+00
      vertex 2.804999e+01 2.031067e+01 4.060661e+00
      vertex 2.804999e+01 2.054907e+01 3.750000e+00
    endloop
  endfacet
  facet normal 4.373276e-14 -7.933533e-01 -6.087614e-01
    outer loop
      vertex 2.804999e+01 2.031067e+01 4.060661e+00
      vertex 2.950000e+01 2.054907e+01 3.750000e+00
      vertex 2.950000e+01 2.031067e+01 4.060661e+00
    endloop
  endfacet
  facet normal -3.706234e-14 7.933533e-01 -6.087614e-01
    outer loop
      vertex 2.950000e+01 1.818933e+01 4.060661e+00
      vertex 2.804999e+01 1.795099e+01 3.750000e+00
      vertex 2.804999e+01 1.818933e+01 4.060661e+00
    endloop
  endfacet
  facet normal -3.706234e-14 7.933533e-01 -6.087614e-01
    outer loop
      vertex 2.804999e+01 1.795099e+01 3.750000e+00
      vertex 2.950000e+01 1.818933e+01 4.060661e+00
      vertex 2.950000e+01 1.795099e+01 3.750000e+00
    endloop
  endfacet
  facet normal 5.535129e-14 -1.305262e-01 -9.914449e-01
    outer loop
      vertex 2.950000e+01 1.925000e+01 4.500000e+00
      vertex 2.804999e+01 1.963824e+01 4.448889e+00
      vertex 2.950000e+01 1.963824e+01 4.448889e+00
    endloop
  endfacet
  facet normal 5.535129e-14 -1.305262e-01 -9.914449e-01
    outer loop
      vertex 2.804999e+01 1.963824e+01 4.448889e+00
      vertex 2.950000e+01 1.925000e+01 4.500000e+00
      vertex 2.804999e+01 1.925000e+01 4.500000e+00
    endloop
  endfacet
  facet normal -1.000000e+00 -6.123234e-17 -6.123234e-17
    outer loop
      vertex 2.804999e+01 1.654999e+01 7.105427e-15
      vertex 2.804999e+01 1.850000e+01 1.700962e+00
      vertex 2.804999e+01 2.195001e+01 7.105427e-15
    endloop
  endfacet
  facet normal -1.000000e+00 -6.123234e-17 -6.123234e-17
    outer loop
      vertex 2.804999e+01 1.850000e+01 1.700962e+00
      vertex 2.804999e+01 1.654999e+01 7.105427e-15
      vertex 2.804999e+01 1.818933e+01 1.939341e+00
    endloop
  endfacet
  facet normal -1.000000e+00 -6.123234e-17 -6.123234e-17
    outer loop
      vertex 2.804999e+01 1.818933e+01 1.939341e+00
      vertex 2.804999e+01 1.654999e+01 7.105427e-15
      vertex 2.804999e+01 1.795099e+01 2.250000e+00
    endloop
  endfacet
  facet normal -1.000000e+00 -6.123234e-17 -6.123234e-17
    outer loop
      vertex 2.804999e+01 1.795099e+01 2.250000e+00
      vertex 2.804999e+01 1.654999e+01 7.105427e-15
      vertex 2.804999e+01 1.780115e+01 2.611773e+00
    endloop
  endfacet
  facet normal -1.000000e+00 -6.123234e-17 -6.123234e-17
    outer loop
      vertex 2.804999e+01 1.780115e+01 2.611773e+00
      vertex 2.804999e+01 1.654999e+01 7.105427e-15
      vertex 2.804999e+01 1.654999e+01 6.000000e+00
    endloop
  endfacet
  facet normal -1.000000e+00 -6.123234e-17 -6.123234e-17
    outer loop
      vertex 2.804999e+01 2.195001e+01 7.105427e-15
      vertex 2.804999e+01 1.850000e+01 1.700962e+00
      vertex 2.804999e+01 1.886182e+01 1.551111e+00
    endloop
  endfacet
  facet normal -1.000000e+00 -6.123234e-17 -6.123234e-17
    outer loop
      vertex 2.804999e+01 2.195001e+01 7.105427e-15
      vertex 2.804999e+01 1.886182e+01 1.551111e+00
      vertex 2.804999e+01 1.925000e+01 1.500000e+00
    endloop
  endfacet
  facet normal -1.000000e+00 -6.123234e-17 -6.123234e-17
    outer loop
      vertex 2.804999e+01 1.780115e+01 2.611773e+00
      vertex 2.804999e+01 1.654999e+01 6.000000e+00
      vertex 2.804999e+01 1.775000e+01 3.000000e+00
    endloop
  endfacet
  facet normal -1.000000e+00 -6.123234e-17 -6.123234e-17
    outer loop
      vertex 2.804999e+01 1.775000e+01 3.000000e+00
      vertex 2.804999e+01 1.654999e+01 6.000000e+00
      vertex 2.804999e+01 1.780115e+01 3.388229e+00
    endloop
  endfacet
  facet normal -1.000000e+00 -6.123234e-17 -6.123234e-17
    outer loop
      vertex 2.804999e+01 1.780115e+01 3.388229e+00
      vertex 2.804999e+01 1.654999e+01 6.000000e+00
      vertex 2.804999e+01 1.795099e+01 3.750000e+00
    endloop
  endfacet
  facet normal -1.000000e+00 -6.123234e-17 -6.123234e-17
    outer loop
      vertex 2.804999e+01 1.795099e+01 3.750000e+00
      vertex 2.804999e+01 1.654999e+01 6.000000e+00
      vertex 2.804999e+01 1.818933e+01 4.060661e+00
    endloop
  endfacet
  facet normal -1.000000e+00 -6.123234e-17 -6.123234e-17
    outer loop
      vertex 2.804999e+01 1.818933e+01 4.060661e+00
      vertex 2.804999e+01 1.654999e+01 6.000000e+00
      vertex 2.804999e+01 1.850000e+01 4.299038e+00
    endloop
  endfacet
  facet normal -1.000000e+00 -6.123234e-17 -6.123234e-17
    outer loop
      vertex 2.804999e+01 1.850000e+01 4.299038e+00
      vertex 2.804999e+01 1.654999e+01 6.000000e+00
      vertex 2.804999e+01 1.886182e+01 4.448889e+00
    endloop
  endfacet
  facet normal -1.000000e+00 -6.123234e-17 -6.123234e-17
    outer loop
      vertex 2.804999e+01 1.886182e+01 4.448889e+00
      vertex 2.804999e+01 1.654999e+01 6.000000e+00
      vertex 2.804999e+01 1.925000e+01 4.500000e+00
    endloop
  endfacet
  facet normal -1.000000e+00 -6.123234e-17 -6.123234e-17
    outer loop
      vertex 2.804999e+01 1.925000e+01 4.500000e+00
      vertex 2.804999e+01 1.654999e+01 6.000000e+00
      vertex 2.804999e+01 2.195001e+01 6.000000e+00
    endloop
  endfacet
  facet normal -1.000000e+00 -6.123234e-17 -6.123234e-17
    outer loop
      vertex 2.804999e+01 2.195001e+01 7.105427e-15
      vertex 2.804999e+01 2.069891e+01 2.611773e+00
      vertex 2.804999e+01 2.195001e+01 6.000000e+00
    endloop
  endfacet
  facet normal -1.000000e+00 -6.123234e-17 -6.123234e-17
    outer loop
      vertex 2.804999e+01 2.069891e+01 2.611773e+00
      vertex 2.804999e+01 2.195001e+01 7.105427e-15
      vertex 2.804999e+01 2.054907e+01 2.250000e+00
    endloop
  endfacet
  facet normal -1.000000e+00 -6.123234e-17 -6.123234e-17
    outer loop
      vertex 2.804999e+01 2.054907e+01 2.250000e+00
      vertex 2.804999e+01 2.195001e+01 7.105427e-15
      vertex 2.804999e+01 2.031067e+01 1.939341e+00
    endloop
  endfacet
  facet normal -1.000000e+00 -6.123234e-17 -6.123234e-17
    outer loop
      vertex 2.804999e+01 2.031067e+01 1.939341e+00
      vertex 2.804999e+01 2.195001e+01 7.105427e-15
      vertex 2.804999e+01 2.000000e+01 1.700962e+00
    endloop
  endfacet
  facet normal -1.000000e+00 -6.123234e-17 -6.123234e-17
    outer loop
      vertex 2.804999e+01 2.000000e+01 1.700962e+00
      vertex 2.804999e+01 2.195001e+01 7.105427e-15
      vertex 2.804999e+01 1.963824e+01 1.551111e+00
    endloop
  endfacet
  facet normal -1.000000e+00 -6.123234e-17 -6.123234e-17
    outer loop
      vertex 2.804999e+01 1.963824e+01 1.551111e+00
      vertex 2.804999e+01 2.195001e+01 7.105427e-15
      vertex 2.804999e+01 1.925000e+01 1.500000e+00
    endloop
  endfacet
  facet normal -1.000000e+00 -6.123234e-17 -6.123234e-17
    outer loop
      vertex 2.804999e+01 2.195001e+01 6.000000e+00
      vertex 2.804999e+01 2.069891e+01 2.611773e+00
      vertex 2.804999e+01 2.075000e+01 3.000000e+00
    endloop
  endfacet
  facet normal -1.000000e+00 -6.123234e-17 -6.123234e-17
    outer loop
      vertex 2.804999e+01 2.195001e+01 6.000000e+00
      vertex 2.804999e+01 2.075000e+01 3.000000e+00
      vertex 2.804999e+01 2.069891e+01 3.388229e+00
    endloop
  endfacet
  facet normal -1.000000e+00 -6.123234e-17 -6.123234e-17
    outer loop
      vertex 2.804999e+01 2.195001e+01 6.000000e+00
      vertex 2.804999e+01 2.069891e+01 3.388229e+00
      vertex 2.804999e+01 2.054907e+01 3.750000e+00
    endloop
  endfacet
  facet normal -1.000000e+00 -6.123234e-17 -6.123234e-17
    outer loop
      vertex 2.804999e+01 2.195001e+01 6.000000e+00
      vertex 2.804999e+01 2.054907e+01 3.750000e+00
      vertex 2.804999e+01 2.031067e+01 4.060661e+00
    endloop
  endfacet
  facet normal -1.000000e+00 -6.123234e-17 -6.123234e-17
    outer loop
      vertex 2.804999e+01 2.195001e+01 6.000000e+00
      vertex 2.804999e+01 2.031067e+01 4.060661e+00
      vertex 2.804999e+01 2.000000e+01 4.299038e+00
    endloop
  endfacet
  facet normal -1.000000e+00 -6.123234e-17 -6.123234e-17
    outer loop
      vertex 2.804999e+01 2.195001e+01 6.000000e+00
      vertex 2.804999e+01 2.000000e+01 4.299038e+00
      vertex 2.804999e+01 1.963824e+01 4.448889e+00
    endloop
  endfacet
  facet normal -1.000000e+00 -6.123234e-17 -6.123234e-17
    outer loop
      vertex 2.804999e+01 2.195001e+01 6.000000e+00
      vertex 2.804999e+01 1.963824e+01 4.448889e+00
      vertex 2.804999e+01 1.925000e+01 4.500000e+00
    endloop
  endfacet
  facet normal -1.165652e-13 3.826834e-01 9.238795e-01
    outer loop
      vertex 2.804999e+01 1.886182e+01 1.551111e+00
      vertex 2.950000e+01 1.850000e+01 1.700962e+00
      vertex 2.950000e+01 1.886182e+01 1.551111e+00
    endloop
  endfacet
  facet normal -1.165652e-13 3.826834e-01 9.238795e-01
    outer loop
      vertex 2.950000e+01 1.850000e+01 1.700962e+00
      vertex 2.804999e+01 1.886182e+01 1.551111e+00
      vertex 2.804999e+01 1.850000e+01 1.700962e+00
    endloop
  endfacet
  facet normal -6.123234e-17 1.000000e+00 -7.028533e-15
    outer loop
      vertex 2.804999e+01 1.654999e+01 6.000000e+00
      vertex 2.594998e+01 1.654999e+01 7.105427e-15
      vertex 2.594998e+01 1.654999e+01 6.000000e+00
    endloop
  endfacet
  facet normal -6.123234e-17 1.000000e+00 -7.028533e-15
    outer loop
      vertex 2.594998e+01 1.654999e+01 7.105427e-15
      vertex 2.804999e+01 1.654999e+01 6.000000e+00
      vertex 2.804999e+01 1.654999e+01 7.105427e-15
    endloop
  endfacet
  facet normal -6.699731e-15 9.238795e-01 3.826834e-01
    outer loop
      vertex 2.950000e+01 1.780115e+01 2.611773e+00
      vertex 2.804999e+01 1.795099e+01 2.250000e+00
      vertex 2.804999e+01 1.780115e+01 2.611773e+00
    endloop
  endfacet
  facet normal -6.699731e-15 9.238795e-01 3.826834e-01
    outer loop
      vertex 2.804999e+01 1.795099e+01 2.250000e+00
      vertex 2.950000e+01 1.780115e+01 2.611773e+00
      vertex 2.950000e+01 1.795099e+01 2.250000e+00
    endloop
  endfacet
  facet normal 6.123234e-17 -1.000000e+00 7.028533e-15
    outer loop
      vertex 2.804999e+01 2.195001e+01 7.105427e-15
      vertex 2.594998e+01 2.195001e+01 6.000000e+00
      vertex 2.594998e+01 2.195001e+01 7.105427e-15
    endloop
  endfacet
  facet normal 6.123234e-17 -1.000000e+00 7.028533e-15
    outer loop
      vertex 2.594998e+01 2.195001e+01 6.000000e+00
      vertex 2.804999e+01 2.195001e+01 7.105427e-15
      vertex 2.804999e+01 2.195001e+01 6.000000e+00
    endloop
  endfacet
  facet normal -1.013461e-14 9.238795e-01 -3.826834e-01
    outer loop
      vertex 2.950000e+01 1.795099e+01 3.750000e+00
      vertex 2.804999e+01 1.780115e+01 3.388229e+00
      vertex 2.804999e+01 1.795099e+01 3.750000e+00
    endloop
  endfacet
  facet normal -1.013461e-14 9.238795e-01 -3.826834e-01
    outer loop
      vertex 2.804999e+01 1.780115e+01 3.388229e+00
      vertex 2.950000e+01 1.795099e+01 3.750000e+00
      vertex 2.950000e+01 1.780115e+01 3.388229e+00
    endloop
  endfacet
  facet normal 4.535899e-14 1.305262e-01 -9.914449e-01
    outer loop
      vertex 2.950000e+01 1.886182e+01 4.448889e+00
      vertex 2.804999e+01 1.925000e+01 4.500000e+00
      vertex 2.950000e+01 1.925000e+01 4.500000e+00
    endloop
  endfacet
  facet normal 4.535899e-14 1.305262e-01 -9.914449e-01
    outer loop
      vertex 2.804999e+01 1.925000e+01 4.500000e+00
      vertex 2.950000e+01 1.886182e+01 4.448889e+00
      vertex 2.804999e+01 1.886182e+01 4.448889e+00
    endloop
  endfacet
  facet normal -4.762775e-14 -6.087614e-01 7.933533e-01
    outer loop
      vertex 2.804999e+01 2.000000e+01 1.700962e+00
      vertex 2.950000e+01 2.031067e+01 1.939341e+00
      vertex 2.804999e+01 2.031067e+01 1.939341e+00
    endloop
  endfacet
  facet normal -4.762775e-14 -6.087614e-01 7.933533e-01
    outer loop
      vertex 2.950000e+01 2.031067e+01 1.939341e+00
      vertex 2.804999e+01 2.000000e+01 1.700962e+00
      vertex 2.950000e+01 2.000000e+01 1.700962e+00
    endloop
  endfacet
  facet normal 1.000000e+00 6.123234e-17 6.123234e-17
    outer loop
      vertex 2.594998e+01 2.195001e+01 7.105427e-15
      vertex 2.594998e+01 2.000000e+01 1.700962e+00
      vertex 2.594998e+01 1.654999e+01 7.105427e-15
    endloop
  endfacet
  facet normal 1.000000e+00 6.123234e-17 6.123234e-17
    outer loop
      vertex 2.594998e+01 2.000000e+01 1.700962e+00
      vertex 2.594998e+01 2.195001e+01 7.105427e-15
      vertex 2.594998e+01 2.031067e+01 1.939341e+00
    endloop
  endfacet
  facet normal 1.000000e+00 6.123234e-17 6.123234e-17
    outer loop
      vertex 2.594998e+01 2.031067e+01 1.939341e+00
      vertex 2.594998e+01 2.195001e+01 7.105427e-15
      vertex 2.594998e+01 2.054907e+01 2.250000e+00
    endloop
  endfacet
  facet normal 1.000000e+00 6.123234e-17 6.123234e-17
    outer loop
      vertex 2.594998e+01 2.054907e+01 2.250000e+00
      vertex 2.594998e+01 2.195001e+01 7.105427e-15
      vertex 2.594998e+01 2.069891e+01 2.611773e+00
    endloop
  endfacet
  facet normal 1.000000e+00 6.123234e-17 6.123234e-17
    outer loop
      vertex 2.594998e+01 2.069891e+01 2.611773e+00
      vertex 2.594998e+01 2.195001e+01 7.105427e-15
      vertex 2.594998e+01 2.195001e+01 6.000000e+00
    endloop
  endfacet
  facet normal 1.000000e+00 6.123234e-17 6.123234e-17
    outer loop
      vertex 2.594998e+01 1.654999e+01 7.105427e-15
      vertex 2.594998e+01 2.000000e+01 1.700962e+00
      vertex 2.594998e+01 1.963824e+01 1.551111e+00
    endloop
  endfacet
  facet normal 1.000000e+00 6.123234e-17 6.123234e-17
    outer loop
      vertex 2.594998e+01 1.654999e+01 7.105427e-15
      vertex 2.594998e+01 1.963824e+01 1.551111e+00
      vertex 2.594998e+01 1.925000e+01 1.500000e+00
    endloop
  endfacet
  facet normal 1.000000e+00 6.123234e-17 6.123234e-17
    outer loop
      vertex 2.594998e+01 2.069891e+01 2.611773e+00
      vertex 2.594998e+01 2.195001e+01 6.000000e+00
      vertex 2.594998e+01 2.075000e+01 3.000000e+00
    endloop
  endfacet
  facet normal 1.000000e+00 6.123234e-17 6.123234e-17
    outer loop
      vertex 2.594998e+01 2.075000e+01 3.000000e+00
      vertex 2.594998e+01 2.195001e+01 6.000000e+00
      vertex 2.594998e+01 2.069891e+01 3.388229e+00
    endloop
  endfacet
  facet normal 1.000000e+00 6.123234e-17 6.123234e-17
    outer loop
      vertex 2.594998e+01 2.069891e+01 3.388229e+00
      vertex 2.594998e+01 2.195001e+01 6.000000e+00
      vertex 2.594998e+01 2.054907e+01 3.750000e+00
    endloop
  endfacet
  facet normal 1.000000e+00 6.123234e-17 6.123234e-17
    outer loop
      vertex 2.594998e+01 2.054907e+01 3.750000e+00
      vertex 2.594998e+01 2.195001e+01 6.000000e+00
      vertex 2.594998e+01 2.031067e+01 4.060661e+00
    endloop
  endfacet
  facet normal 1.000000e+00 6.123234e-17 6.123234e-17
    outer loop
      vertex 2.594998e+01 2.031067e+01 4.060661e+00
      vertex 2.594998e+01 2.195001e+01 6.000000e+00
      vertex 2.594998e+01 2.000000e+01 4.299038e+00
    endloop
  endfacet
  facet normal 1.000000e+00 6.123234e-17 6.123234e-17
    outer loop
      vertex 2.594998e+01 2.000000e+01 4.299038e+00
      vertex 2.594998e+01 2.195001e+01 6.000000e+00
      vertex 2.594998e+01 1.963824e+01 4.448889e+00
    endloop
  endfacet
  facet normal 1.000000e+00 6.123234e-17 6.123234e-17
    outer loop
      vertex 2.594998e+01 1.963824e+01 4.448889e+00
      vertex 2.594998e+01 2.195001e+01 6.000000e+00
      vertex 2.594998e+01 1.925000e+01 4.500000e+00
    endloop
  endfacet
  facet normal 1.000000e+00 6.123234e-17 6.123234e-17
    outer loop
      vertex 2.594998e+01 1.654999e+01 7.105427e-15
      vertex 2.594998e+01 1.780115e+01 2.611773e+00
      vertex 2.594998e+01 1.654999e+01 6.000000e+00
    endloop
  endfacet
  facet normal 1.000000e+00 6.123234e-17 6.123234e-17
    outer loop
      vertex 2.594998e+01 1.780115e+01 2.611773e+00
      vertex 2.594998e+01 1.654999e+01 7.105427e-15
      vertex 2.594998e+01 1.795099e+01 2.250000e+00
    endloop
  endfacet
  facet normal 1.000000e+00 6.123234e-17 6.123234e-17
    outer loop
      vertex 2.594998e+01 1.795099e+01 2.250000e+00
      vertex 2.594998e+01 1.654999e+01 7.105427e-15
      vertex 2.594998e+01 1.818933e+01 1.939341e+00
    endloop
  endfacet
  facet normal 1.000000e+00 6.123234e-17 6.123234e-17
    outer loop
      vertex 2.594998e+01 1.818933e+01 1.939341e+00
      vertex 2.594998e+01 1.654999e+01 7.105427e-15
      vertex 2.594998e+01 1.850000e+01 1.700962e+00
    endloop
  endfacet
  facet normal 1.000000e+00 6.123234e-17 6.123234e-17
    outer loop
      vertex 2.594998e+01 1.850000e+01 1.700962e+00
      vertex 2.594998e+01 1.654999e+01 7.105427e-15
      vertex 2.594998e+01 1.886182e+01 1.551111e+00
    endloop
  endfacet
  facet normal 1.000000e+00 6.123234e-17 6.123234e-17
    outer loop
      vertex 2.594998e+01 1.886182e+01 1.551111e+00
      vertex 2.594998e+01 1.654999e+01 7.105427e-15
      vertex 2.594998e+01 1.925000e+01 1.500000e+00
    endloop
  endfacet
  facet normal 1.000000e+00 6.123234e-17 6.123234e-17
    outer loop
      vertex 2.594998e+01 1.654999e+01 6.000000e+00
      vertex 2.594998e+01 1.780115e+01 2.611773e+00
      vertex 2.594998e+01 1.775000e+01 3.000000e+00
    endloop
  endfacet
  facet normal 1.000000e+00 6.123234e-17 6.123234e-17
    outer loop
      vertex 2.594998e+01 1.654999e+01 6.000000e+00
      vertex 2.594998e+01 1.775000e+01 3.000000e+00
      vertex 2.594998e+01 1.780115e+01 3.388229e+00
    endloop
  endfacet
  facet normal 1.000000e+00 6.123234e-17 6.123234e-17
    outer loop
      vertex 2.594998e+01 1.654999e+01 6.000000e+00
      vertex 2.594998e+01 1.780115e+01 3.388229e+00
      vertex 2.594998e+01 1.795099e+01 3.750000e+00
    endloop
  endfacet
  facet normal 1.000000e+00 6.123234e-17 6.123234e-17
    outer loop
      vertex 2.594998e+01 1.654999e+01 6.000000e+00
      vertex 2.594998e+01 1.795099e+01 3.750000e+00
      vertex 2.594998e+01 1.818933e+01 4.060661e+00
    endloop
  endfacet
  facet normal 1.000000e+00 6.123234e-17 6.123234e-17
    outer loop
      vertex 2.594998e+01 1.654999e+01 6.000000e+00
      vertex 2.594998e+01 1.818933e+01 4.060661e+00
      vertex 2.594998e+01 1.850000e+01 4.299038e+00
    endloop
  endfacet
  facet normal 1.000000e+00 6.123234e-17 6.123234e-17
    outer loop
      vertex 2.594998e+01 1.654999e+01 6.000000e+00
      vertex 2.594998e+01 1.850000e+01 4.299038e+00
      vertex 2.594998e+01 1.886182e+01 4.448889e+00
    endloop
  endfacet
  facet normal 1.000000e+00 6.123234e-17 6.123234e-17
    outer loop
      vertex 2.594998e+01 1.654999e+01 6.000000e+00
      vertex 2.594998e+01 1.886182e+01 4.448889e+00
      vertex 2.594998e+01 1.925000e+01 4.500000e+00
    endloop
  endfacet
  facet normal 1.000000e+00 6.123234e-17 6.123234e-17
    outer loop
      vertex 2.594998e+01 1.654999e+01 6.000000e+00
      vertex 2.594998e+01 1.925000e+01 4.500000e+00
      vertex 2.594998e+01 2.195001e+01 6.000000e+00
    endloop
  endfacet
  facet normal -1.168605e-13 -1.305262e-01 9.914449e-01
    outer loop
      vertex 2.804999e+01 1.925000e+01 1.500000e+00
      vertex 2.950000e+01 1.963824e+01 1.551111e+00
      vertex 2.804999e+01 1.963824e+01 1.551111e+00
    endloop
  endfacet
  facet normal -1.168605e-13 -1.305262e-01 9.914449e-01
    outer loop
      vertex 2.950000e+01 1.963824e+01 1.551111e+00
      vertex 2.804999e+01 1.925000e+01 1.500000e+00
      vertex 2.950000e+01 1.925000e+01 1.500000e+00
    endloop
  endfacet
  facet normal 1.337717e-13 3.826834e-01 -9.238795e-01
    outer loop
      vertex 2.950000e+01 1.850000e+01 4.299038e+00
      vertex 2.804999e+01 1.886182e+01 4.448889e+00
      vertex 2.950000e+01 1.886182e+01 4.448889e+00
    endloop
  endfacet
  facet normal 1.337717e-13 3.826834e-01 -9.238795e-01
    outer loop
      vertex 2.804999e+01 1.886182e+01 4.448889e+00
      vertex 2.950000e+01 1.850000e+01 4.299038e+00
      vertex 2.804999e+01 1.850000e+01 4.299038e+00
    endloop
  endfacet
  facet normal 6.909268e-14 6.087614e-01 -7.933533e-01
    outer loop
      vertex 2.950000e+01 1.818933e+01 4.060661e+00
      vertex 2.804999e+01 1.850000e+01 4.299038e+00
      vertex 2.950000e+01 1.850000e+01 4.299038e+00
    endloop
  endfacet
  facet normal 6.909268e-14 6.087614e-01 -7.933533e-01
    outer loop
      vertex 2.804999e+01 1.850000e+01 4.299038e+00
      vertex 2.950000e+01 1.818933e+01 4.060661e+00
      vertex 2.804999e+01 1.818933e+01 4.060661e+00
    endloop
  endfacet
  facet normal -2.493196e-14 6.087614e-01 7.933533e-01
    outer loop
      vertex 2.804999e+01 1.818933e+01 1.939341e+00
      vertex 2.950000e+01 1.850000e+01 1.700962e+00
      vertex 2.804999e+01 1.850000e+01 1.700962e+00
    endloop
  endfacet
  facet normal -2.493196e-14 6.087614e-01 7.933533e-01
    outer loop
      vertex 2.950000e+01 1.850000e+01 1.700962e+00
      vertex 2.804999e+01 1.818933e+01 1.939341e+00
      vertex 2.950000e+01 1.818933e+01 1.939341e+00
    endloop
  endfacet
  facet normal -4.309764e-14 9.914449e-01 1.305262e-01
    outer loop
      vertex 2.950000e+01 1.775000e+01 3.000000e+00
      vertex 2.804999e+01 1.780115e+01 2.611773e+00
      vertex 2.804999e+01 1.775000e+01 3.000000e+00
    endloop
  endfacet
  facet normal -4.309764e-14 9.914449e-01 1.305262e-01
    outer loop
      vertex 2.804999e+01 1.780115e+01 2.611773e+00
      vertex 2.950000e+01 1.775000e+01 3.000000e+00
      vertex 2.950000e+01 1.780115e+01 2.611773e+00
    endloop
  endfacet
  facet normal -6.123234e-17 1.000000e+00 6.718550e-16
    outer loop
      vertex 2.950000e+01 2.425000e+01 6.000000e+00
      vertex 2.350000e+01 2.425000e+01 7.105427e-15
      vertex 2.350000e+01 2.425000e+01 6.000000e+00
    endloop
  endfacet
  facet normal -6.123234e-17 1.000000e+00 6.718550e-16
    outer loop
      vertex 2.350000e+01 2.425000e+01 7.105427e-15
      vertex 2.950000e+01 2.425000e+01 6.000000e+00
      vertex 2.950000e+01 2.425000e+01 7.105427e-15
    endloop
  endfacet
  facet normal -9.218285e-17 -1.003740e-17 1.000000e+00
    outer loop
      vertex 2.350000e+01 2.425000e+01 6.000000e+00
      vertex 2.594998e+01 2.195001e+01 6.000000e+00
      vertex 2.950000e+01 2.425000e+01 6.000000e+00
    endloop
  endfacet
  facet normal -9.218285e-17 -1.003740e-17 1.000000e+00
    outer loop
      vertex 2.594998e+01 2.195001e+01 6.000000e+00
      vertex 2.350000e+01 2.425000e+01 6.000000e+00
      vertex 2.350000e+01 1.225000e+01 6.000000e+00
    endloop
  endfacet
  facet normal -9.218285e-17 -1.003740e-17 1.000000e+00
    outer loop
      vertex 2.594998e+01 2.195001e+01 6.000000e+00
      vertex 2.350000e+01 1.225000e+01 6.000000e+00
      vertex 2.594998e+01 1.654999e+01 6.000000e+00
    endloop
  endfacet
  facet normal -9.218285e-17 -1.003740e-17 1.000000e+00
    outer loop
      vertex 2.594998e+01 1.654999e+01 6.000000e+00
      vertex 2.350000e+01 1.225000e+01 6.000000e+00
      vertex 2.804999e+01 1.654999e+01 6.000000e+00
    endloop
  endfacet
  facet normal -9.218285e-17 -1.003740e-17 1.000000e+00
    outer loop
      vertex -2.950000e+01 -2.425000e+01 6.000000e+00
      vertex 3.500000e+00 -2.125000e+01 6.000000e+00
      vertex -2.950000e+01 -2.125000e+01 6.000000e+00
    endloop
  endfacet
  facet normal -9.218285e-17 -1.003740e-17 1.000000e+00
    outer loop
      vertex 8.500000e+00 1.225000e+01 6.000000e+00
      vertex 1.450000e+01 7.250000e+00 6.000000e+00
      vertex 2.350000e+01 1.225000e+01 6.000000e+00
    endloop
  endfacet
  facet normal -9.218285e-17 -1.003740e-17 1.000000e+00
    outer loop
      vertex 1.450000e+01 7.250000e+00 6.000000e+00
      vertex 8.500000e+00 1.225000e+01 6.000000e+00
      vertex 8.500000e+00 -1.625000e+01 6.000000e+00
    endloop
  endfacet
  facet normal -9.218285e-17 -1.003740e-17 1.000000e+00
    outer loop
      vertex 1.450000e+01 7.250000e+00 6.000000e+00
      vertex 8.500000e+00 -1.625000e+01 6.000000e+00
      vertex 1.450000e+01 -2.425000e+01 6.000000e+00
    endloop
  endfacet
  facet normal -9.218285e-17 -1.003740e-17 1.000000e+00
    outer loop
      vertex 1.450000e+01 -2.425000e+01 6.000000e+00
      vertex 8.500000e+00 -1.625000e+01 6.000000e+00
      vertex 3.500000e+00 -2.125000e+01 6.000000e+00
    endloop
  endfacet
  facet normal -9.218285e-17 -1.003740e-17 1.000000e+00
    outer loop
      vertex 1.450000e+01 -2.425000e+01 6.000000e+00
      vertex 3.500000e+00 -2.125000e+01 6.000000e+00
      vertex -2.950000e+01 -2.425000e+01 6.000000e+00
    endloop
  endfacet
  facet normal -9.218285e-17 -1.003740e-17 1.000000e+00
    outer loop
      vertex 2.950000e+01 2.425000e+01 6.000000e+00
      vertex 2.804999e+01 2.195001e+01 6.000000e+00
      vertex 2.950000e+01 7.250000e+00 6.000000e+00
    endloop
  endfacet
  facet normal -9.218285e-17 -1.003740e-17 1.000000e+00
    outer loop
      vertex 2.804999e+01 2.195001e+01 6.000000e+00
      vertex 2.950000e+01 2.425000e+01 6.000000e+00
      vertex 2.594998e+01 2.195001e+01 6.000000e+00
    endloop
  endfacet
  facet normal -9.218285e-17 -1.003740e-17 1.000000e+00
    outer loop
      vertex 2.950000e+01 7.250000e+00 6.000000e+00
      vertex 2.804999e+01 2.195001e+01 6.000000e+00
      vertex 2.804999e+01 1.654999e+01 6.000000e+00
    endloop
  endfacet
  facet normal -9.218285e-17 -1.003740e-17 1.000000e+00
    outer loop
      vertex 2.950000e+01 7.250000e+00 6.000000e+00
      vertex 2.804999e+01 1.654999e+01 6.000000e+00
      vertex 2.350000e+01 1.225000e+01 6.000000e+00
    endloop
  endfacet
  facet normal -9.218285e-17 -1.003740e-17 1.000000e+00
    outer loop
      vertex 2.950000e+01 7.250000e+00 6.000000e+00
      vertex 2.350000e+01 1.225000e+01 6.000000e+00
      vertex 1.450000e+01 7.250000e+00 6.000000e+00
    endloop
  endfacet
  facet normal -7.071068e-01 7.071068e-01 0.000000e+00
    outer loop
      vertex 3.500000e+00 -2.125000e+01 6.000000e+00
      vertex 8.500000e+00 -1.625000e+01 0.000000e+00
      vertex 3.500000e+00 -2.125000e+01 0.000000e+00
    endloop
  endfacet
  facet normal -7.071068e-01 7.071068e-01 0.000000e+00
    outer loop
      vertex 8.500000e+00 -1.625000e+01 0.000000e+00
      vertex 3.500000e+00 -2.125000e+01 6.000000e+00
      vertex 8.500000e+00 -1.625000e+01 6.000000e+00
    endloop
  endfacet
  facet normal 1.000000e+00 6.123234e-17 6.123234e-17
    outer loop
      vertex 2.950000e+01 2.425000e+01 7.105427e-15
      vertex 2.950000e+01 1.925000e+01 1.500000e+00
      vertex 2.950000e+01 7.250000e+00 7.105427e-15
    endloop
  endfacet
  facet normal 1.000000e+00 6.123234e-17 6.123234e-17
    outer loop
      vertex 2.950000e+01 1.925000e+01 1.500000e+00
      vertex 2.950000e+01 2.425000e+01 7.105427e-15
      vertex 2.950000e+01 1.963824e+01 1.551111e+00
    endloop
  endfacet
  facet normal 1.000000e+00 6.123234e-17 6.123234e-17
    outer loop
      vertex 2.950000e+01 1.963824e+01 1.551111e+00
      vertex 2.950000e+01 2.425000e+01 7.105427e-15
      vertex 2.950000e+01 2.000000e+01 1.700962e+00
    endloop
  endfacet
  facet normal 1.000000e+00 6.123234e-17 6.123234e-17
    outer loop
      vertex 2.950000e+01 2.000000e+01 1.700962e+00
      vertex 2.950000e+01 2.425000e+01 7.105427e-15
      vertex 2.950000e+01 2.031067e+01 1.939341e+00
    endloop
  endfacet
  facet normal 1.000000e+00 6.123234e-17 6.123234e-17
    outer loop
      vertex 2.950000e+01 2.031067e+01 1.939341e+00
      vertex 2.950000e+01 2.425000e+01 7.105427e-15
      vertex 2.950000e+01 2.425000e+01 6.000000e+00
    endloop
  endfacet
  facet normal 1.000000e+00 6.123234e-17 6.123234e-17
    outer loop
      vertex 2.950000e+01 2.031067e+01 1.939341e+00
      vertex 2.950000e+01 2.425000e+01 6.000000e+00
      vertex 2.950000e+01 2.054907e+01 2.250000e+00
    endloop
  endfacet
  facet normal 1.000000e+00 6.123234e-17 6.123234e-17
    outer loop
      vertex 2.950000e+01 2.054907e+01 2.250000e+00
      vertex 2.950000e+01 2.425000e+01 6.000000e+00
      vertex 2.950000e+01 2.069891e+01 2.611773e+00
    endloop
  endfacet
  facet normal 1.000000e+00 6.123234e-17 6.123234e-17
    outer loop
      vertex 2.950000e+01 2.069891e+01 2.611773e+00
      vertex 2.950000e+01 2.425000e+01 6.000000e+00
      vertex 2.950000e+01 2.075000e+01 3.000000e+00
    endloop
  endfacet
  facet normal 1.000000e+00 6.123234e-17 6.123234e-17
    outer loop
      vertex 2.950000e+01 2.075000e+01 3.000000e+00
      vertex 2.950000e+01 2.425000e+01 6.000000e+00
      vertex 2.950000e+01 2.069891e+01 3.388229e+00
    endloop
  endfacet
  facet normal 1.000000e+00 6.123234e-17 6.123234e-17
    outer loop
      vertex 2.950000e+01 2.069891e+01 3.388229e+00
      vertex 2.950000e+01 2.425000e+01 6.000000e+00
      vertex 2.950000e+01 2.054907e+01 3.750000e+00
    endloop
  endfacet
  facet normal 1.000000e+00 6.123234e-17 6.123234e-17
    outer loop
      vertex 2.950000e+01 2.054907e+01 3.750000e+00
      vertex 2.950000e+01 2.425000e+01 6.000000e+00
      vertex 2.950000e+01 2.031067e+01 4.060661e+00
    endloop
  endfacet
  facet normal 1.000000e+00 6.123234e-17 6.123234e-17
    outer loop
      vertex 2.950000e+01 2.031067e+01 4.060661e+00
      vertex 2.950000e+01 2.425000e+01 6.000000e+00
      vertex 2.950000e+01 2.000000e+01 4.299038e+00
    endloop
  endfacet
  facet normal 1.000000e+00 6.123234e-17 6.123234e-17
    outer loop
      vertex 2.950000e+01 2.000000e+01 4.299038e+00
      vertex 2.950000e+01 2.425000e+01 6.000000e+00
      vertex 2.950000e+01 1.963824e+01 4.448889e+00
    endloop
  endfacet
  facet normal 1.000000e+00 6.123234e-17 6.123234e-17
    outer loop
      vertex 2.950000e+01 1.963824e+01 4.448889e+00
      vertex 2.950000e+01 2.425000e+01 6.000000e+00
      vertex 2.950000e+01 1.925000e+01 4.500000e+00
    endloop
  endfacet
  facet normal 1.000000e+00 6.123234e-17 6.123234e-17
    outer loop
      vertex 2.950000e+01 7.250000e+00 7.105427e-15
      vertex 2.950000e+01 1.886182e+01 1.551111e+00
      vertex 2.950000e+01 7.250000e+00 6.000000e+00
    endloop
  endfacet
  facet normal 1.000000e+00 6.123234e-17 6.123234e-17
    outer loop
      vertex 2.950000e+01 1.886182e+01 1.551111e+00
      vertex 2.950000e+01 7.250000e+00 7.105427e-15
      vertex 2.950000e+01 1.925000e+01 1.500000e+00
    endloop
  endfacet
  facet normal 1.000000e+00 6.123234e-17 6.123234e-17
    outer loop
      vertex 2.950000e+01 7.250000e+00 6.000000e+00
      vertex 2.950000e+01 1.886182e+01 1.551111e+00
      vertex 2.950000e+01 1.850000e+01 1.700962e+00
    endloop
  endfacet
  facet normal 1.000000e+00 6.123234e-17 6.123234e-17
    outer loop
      vertex 2.950000e+01 7.250000e+00 6.000000e+00
      vertex 2.950000e+01 1.850000e+01 1.700962e+00
      vertex 2.950000e+01 1.818933e+01 1.939341e+00
    endloop
  endfacet
  facet normal 1.000000e+00 6.123234e-17 6.123234e-17
    outer loop
      vertex 2.950000e+01 7.250000e+00 6.000000e+00
      vertex 2.950000e+01 1.818933e+01 1.939341e+00
      vertex 2.950000e+01 1.795099e+01 2.250000e+00
    endloop
  endfacet
  facet normal 1.000000e+00 6.123234e-17 6.123234e-17
    outer loop
      vertex 2.950000e+01 7.250000e+00 6.000000e+00
      vertex 2.950000e+01 1.795099e+01 2.250000e+00
      vertex 2.950000e+01 1.780115e+01 2.611773e+00
    endloop
  endfacet
  facet normal 1.000000e+00 6.123234e-17 6.123234e-17
    outer loop
      vertex 2.950000e+01 7.250000e+00 6.000000e+00
      vertex 2.950000e+01 1.780115e+01 2.611773e+00
      vertex 2.950000e+01 1.775000e+01 3.000000e+00
    endloop
  endfacet
  facet normal 1.000000e+00 6.123234e-17 6.123234e-17
    outer loop
      vertex 2.950000e+01 7.250000e+00 6.000000e+00
      vertex 2.950000e+01 1.775000e+01 3.000000e+00
      vertex 2.950000e+01 1.780115e+01 3.388229e+00
    endloop
  endfacet
  facet normal 1.000000e+00 6.123234e-17 6.123234e-17
    outer loop
      vertex 2.950000e+01 7.250000e+00 6.000000e+00
      vertex 2.950000e+01 1.780115e+01 3.388229e+00
      vertex 2.950000e+01 1.795099e+01 3.750000e+00
    endloop
  endfacet
  facet normal 1.000000e+00 6.123234e-17 6.123234e-17
    outer loop
      vertex 2.950000e+01 7.250000e+00 6.000000e+00
      vertex 2.950000e+01 1.795099e+01 3.750000e+00
      vertex 2.950000e+01 1.818933e+01 4.060661e+00
    endloop
  endfacet
  facet normal 1.000000e+00 6.123234e-17 6.123234e-17
    outer loop
      vertex 2.950000e+01 7.250000e+00 6.000000e+00
      vertex 2.950000e+01 1.818933e+01 4.060661e+00
      vertex 2.950000e+01 1.850000e+01 4.299038e+00
    endloop
  endfacet
  facet normal 1.000000e+00 6.123234e-17 6.123234e-17
    outer loop
      vertex 2.950000e+01 7.250000e+00 6.000000e+00
      vertex 2.950000e+01 1.850000e+01 4.299038e+00
      vertex 2.950000e+01 1.886182e+01 4.448889e+00
    endloop
  endfacet
  facet normal 1.000000e+00 6.123234e-17 6.123234e-17
    outer loop
      vertex 2.950000e+01 7.250000e+00 6.000000e+00
      vertex 2.950000e+01 1.886182e+01 4.448889e+00
      vertex 2.950000e+01 1.925000e+01 4.500000e+00
    endloop
  endfacet
  facet normal 1.000000e+00 6.123234e-17 6.123234e-17
    outer loop
      vertex 2.950000e+01 7.250000e+00 6.000000e+00
      vertex 2.950000e+01 1.925000e+01 4.500000e+00
      vertex 2.950000e+01 2.425000e+01 6.000000e+00
    endloop
  endfacet
  facet normal -6.123234e-17 1.000000e+00 6.123234e-17
    outer loop
      vertex 2.350000e+01 1.225000e+01 6.000000e+00
      vertex 8.500000e+00 1.225000e+01 3.552714e-15
      vertex 8.500000e+00 1.225000e+01 6.000000e+00
    endloop
  endfacet
  facet normal -6.123234e-17 1.000000e+00 6.123234e-17
    outer loop
      vertex 8.500000e+00 1.225000e+01 3.552714e-15
      vertex 2.350000e+01 1.225000e+01 6.000000e+00
      vertex 2.350000e+01 1.225000e+01 7.105427e-15
    endloop
  endfacet
  facet normal 1.000000e+00 6.123234e-17 6.123234e-17
    outer loop
      vertex 1.450000e+01 7.250000e+00 6.000000e+00
      vertex 1.450000e+01 -2.425000e+01 0.000000e+00
      vertex 1.450000e+01 7.250000e+00 3.552714e-15
    endloop
  endfacet
  facet normal 1.000000e+00 6.123234e-17 6.123234e-17
    outer loop
      vertex 1.450000e+01 -2.425000e+01 0.000000e+00
      vertex 1.450000e+01 7.250000e+00 6.000000e+00
      vertex 1.450000e+01 -2.425000e+01 6.000000e+00
    endloop
  endfacet
  facet normal 6.123234e-17 -1.000000e+00 -6.123234e-17
    outer loop
      vertex 2.950000e+01 7.250000e+00 7.105427e-15
      vertex 1.450000e+01 7.250000e+00 6.000000e+00
      vertex 1.450000e+01 7.250000e+00 3.552714e-15
    endloop
  endfacet
  facet normal 6.123234e-17 -1.000000e+00 -6.123234e-17
    outer loop
      vertex 1.450000e+01 7.250000e+00 6.000000e+00
      vertex 2.950000e+01 7.250000e+00 7.105427e-15
      vertex 2.950000e+01 7.250000e+00 6.000000e+00
    endloop
  endfacet
  facet normal -1.000000e+00 -1.625532e-16 -6.123234e-17
    outer loop
      vertex 8.500000e+00 -1.625000e+01 6.000000e+00
      vertex 8.500000e+00 1.225000e+01 3.552714e-15
      vertex 8.500000e+00 -1.625000e+01 0.000000e+00
    endloop
  endfacet
  facet normal -1.000000e+00 -1.625532e-16 -6.123234e-17
    outer loop
      vertex 8.500000e+00 1.225000e+01 3.552714e-15
      vertex 8.500000e+00 -1.625000e+01 6.000000e+00
      vertex 8.500000e+00 1.225000e+01 6.000000e+00
    endloop
  endfacet
endsolid Default
