solid Default
  facet normal 6.123234e-17 -5.330771e-16 -1.000000e+00
    outer loop
      vertex -2.950000e+01 -6.750000e+00 0.000000e+00
      vertex 1.450000e+01 -9.750000e+00 0.000000e+00
      vertex -2.950000e+01 -9.750000e+00 0.000000e+00
    endloop
  endfacet
  facet normal 6.123234e-17 -5.330771e-16 -1.000000e+00
    outer loop
      vertex 1.450000e+01 -9.750000e+00 0.000000e+00
      vertex -2.950000e+01 -6.750000e+00 0.000000e+00
      vertex 8.500000e+00 -6.750000e+00 0.000000e+00
    endloop
  endfacet
  facet normal 6.123234e-17 -5.330771e-16 -1.000000e+00
    outer loop
      vertex 1.450000e+01 -9.750000e+00 0.000000e+00
      vertex 8.500000e+00 -6.750000e+00 0.000000e+00
      vertex 1.450000e+01 -4.750000e+00 0.000000e+00
    endloop
  endfacet
  facet normal 6.123234e-17 -5.330771e-16 -1.000000e+00
    outer loop
      vertex 1.450000e+01 -4.750000e+00 0.000000e+00
      vertex 8.500000e+00 -6.750000e+00 0.000000e+00
      vertex 8.500000e+00 1.250000e+00 0.000000e+00
    endloop
  endfacet
  facet normal 6.123234e-17 -5.330771e-16 -1.000000e+00
    outer loop
      vertex 1.450000e+01 -4.750000e+00 0.000000e+00
      vertex 8.500000e+00 1.250000e+00 0.000000e+00
      vertex 2.950000e+01 -4.750000e+00 3.552714e-15
    endloop
  endfacet
  facet normal 6.123234e-17 -5.330771e-16 -1.000000e+00
    outer loop
      vertex 2.950000e+01 -4.750000e+00 3.552714e-15
      vertex 8.500000e+00 1.250000e+00 0.000000e+00
      vertex 2.594998e+01 1.049988e+00 3.552714e-15
    endloop
  endfacet
  facet normal 6.123234e-17 -5.330771e-16 -1.000000e+00
    outer loop
      vertex 2.594998e+01 1.049988e+00 3.552714e-15
      vertex 8.500000e+00 1.250000e+00 0.000000e+00
      vertex 2.350000e+01 1.250000e+00 3.552714e-15
    endloop
  endfacet
  facet normal 6.123234e-17 -5.330771e-16 -1.000000e+00
    outer loop
      vertex 2.594998e+01 1.049988e+00 3.552714e-15
      vertex 2.350000e+01 1.250000e+00 3.552714e-15
      vertex 2.594998e+01 6.450012e+00 3.552714e-15
    endloop
  endfacet
  facet normal 6.123234e-17 -5.330771e-16 -1.000000e+00
    outer loop
      vertex 2.594998e+01 6.450012e+00 3.552714e-15
      vertex 2.350000e+01 1.250000e+00 3.552714e-15
      vertex 2.350000e+01 9.750000e+00 3.552714e-15
    endloop
  endfacet
  facet normal 6.123234e-17 -5.330771e-16 -1.000000e+00
    outer loop
      vertex 2.594998e+01 6.450012e+00 3.552714e-15
      vertex 2.350000e+01 9.750000e+00 3.552714e-15
      vertex 2.804999e+01 6.450012e+00 3.552714e-15
    endloop
  endfacet
  facet normal 6.123234e-17 -5.330771e-16 -1.000000e+00
    outer loop
      vertex 2.950000e+01 -4.750000e+00 3.552714e-15
      vertex 2.804999e+01 1.049988e+00 3.552714e-15
      vertex 2.950000e+01 9.750000e+00 3.552714e-15
    endloop
  endfacet
  facet normal 6.123234e-17 -5.330771e-16 -1.000000e+00
    outer loop
      vertex 2.804999e+01 1.049988e+00 3.552714e-15
      vertex 2.950000e+01 -4.750000e+00 3.552714e-15
      vertex 2.594998e+01 1.049988e+00 3.552714e-15
    endloop
  endfacet
  facet normal 6.123234e-17 -5.330771e-16 -1.000000e+00
    outer loop
      vertex 2.950000e+01 9.750000e+00 3.552714e-15
      vertex 2.804999e+01 1.049988e+00 3.552714e-15
      vertex 2.804999e+01 6.450012e+00 3.552714e-15
    endloop
  endfacet
  facet normal 6.123234e-17 -5.330771e-16 -1.000000e+00
    outer loop
      vertex 2.950000e+01 9.750000e+00 3.552714e-15
      vertex 2.804999e+01 6.450012e+00 3.552714e-15
      vertex 2.350000e+01 9.750000e+00 3.552714e-15
    endloop
  endfacet
  facet normal 1.000000e+00 6.262065e-16 6.123234e-17
    outer loop
      vertex 2.950000e+01 -4.750000e+00 6.000000e+00
      vertex 2.950000e+01 3.361755e+00 4.448889e+00
      vertex 2.950000e+01 9.750000e+00 6.000000e+00
    endloop
  endfacet
  facet normal 1.000000e+00 6.262065e-16 6.123234e-17
    outer loop
      vertex 2.950000e+01 3.361755e+00 4.448889e+00
      vertex 2.950000e+01 -4.750000e+00 6.000000e+00
      vertex 2.950000e+01 3.000000e+00 4.299038e+00
    endloop
  endfacet
  facet normal 1.000000e+00 6.262065e-16 6.123234e-17
    outer loop
      vertex 2.950000e+01 3.000000e+00 4.299038e+00
      vertex 2.950000e+01 -4.750000e+00 6.000000e+00
      vertex 2.950000e+01 -4.750000e+00 3.552714e-15
    endloop
  endfacet
  facet normal 1.000000e+00 6.262065e-16 6.123234e-17
    outer loop
      vertex 2.950000e+01 9.750000e+00 6.000000e+00
      vertex 2.950000e+01 3.361755e+00 4.448889e+00
      vertex 2.950000e+01 3.750000e+00 4.500000e+00
    endloop
  endfacet
  facet normal 1.000000e+00 6.262065e-16 6.123234e-17
    outer loop
      vertex 2.950000e+01 3.000000e+00 4.299038e+00
      vertex 2.950000e+01 -4.750000e+00 3.552714e-15
      vertex 2.950000e+01 2.689331e+00 4.060659e+00
    endloop
  endfacet
  facet normal 1.000000e+00 6.262065e-16 6.123234e-17
    outer loop
      vertex 2.950000e+01 2.689331e+00 4.060659e+00
      vertex 2.950000e+01 -4.750000e+00 3.552714e-15
      vertex 2.950000e+01 2.450928e+00 3.750000e+00
    endloop
  endfacet
  facet normal 1.000000e+00 6.262065e-16 6.123234e-17
    outer loop
      vertex 2.950000e+01 2.450928e+00 3.750000e+00
      vertex 2.950000e+01 -4.750000e+00 3.552714e-15
      vertex 2.950000e+01 2.301086e+00 3.388227e+00
    endloop
  endfacet
  facet normal 1.000000e+00 6.262065e-16 6.123234e-17
    outer loop
      vertex 2.950000e+01 2.301086e+00 3.388227e+00
      vertex 2.950000e+01 -4.750000e+00 3.552714e-15
      vertex 2.950000e+01 2.250000e+00 3.000000e+00
    endloop
  endfacet
  facet normal 1.000000e+00 6.262065e-16 6.123234e-17
    outer loop
      vertex 2.950000e+01 2.250000e+00 3.000000e+00
      vertex 2.950000e+01 -4.750000e+00 3.552714e-15
      vertex 2.950000e+01 2.301086e+00 2.611771e+00
    endloop
  endfacet
  facet normal 1.000000e+00 6.262065e-16 6.123234e-17
    outer loop
      vertex 2.950000e+01 2.301086e+00 2.611771e+00
      vertex 2.950000e+01 -4.750000e+00 3.552714e-15
      vertex 2.950000e+01 2.450928e+00 2.250000e+00
    endloop
  endfacet
  facet normal 1.000000e+00 6.262065e-16 6.123234e-17
    outer loop
      vertex 2.950000e+01 2.450928e+00 2.250000e+00
      vertex 2.950000e+01 -4.750000e+00 3.552714e-15
      vertex 2.950000e+01 2.689331e+00 1.939339e+00
    endloop
  endfacet
  facet normal 1.000000e+00 6.262065e-16 6.123234e-17
    outer loop
      vertex 2.950000e+01 2.689331e+00 1.939339e+00
      vertex 2.950000e+01 -4.750000e+00 3.552714e-15
      vertex 2.950000e+01 3.000000e+00 1.700962e+00
    endloop
  endfacet
  facet normal 1.000000e+00 6.262065e-16 6.123234e-17
    outer loop
      vertex 2.950000e+01 3.000000e+00 1.700962e+00
      vertex 2.950000e+01 -4.750000e+00 3.552714e-15
      vertex 2.950000e+01 3.361755e+00 1.551111e+00
    endloop
  endfacet
  facet normal 1.000000e+00 6.262065e-16 6.123234e-17
    outer loop
      vertex 2.950000e+01 3.361755e+00 1.551111e+00
      vertex 2.950000e+01 -4.750000e+00 3.552714e-15
      vertex 2.950000e+01 3.750000e+00 1.500000e+00
    endloop
  endfacet
  facet normal 1.000000e+00 6.262065e-16 6.123234e-17
    outer loop
      vertex 2.950000e+01 9.750000e+00 6.000000e+00
      vertex 2.950000e+01 4.810669e+00 4.060659e+00
      vertex 2.950000e+01 9.750000e+00 3.552714e-15
    endloop
  endfacet
  facet normal 1.000000e+00 6.262065e-16 6.123234e-17
    outer loop
      vertex 2.950000e+01 4.810669e+00 4.060659e+00
      vertex 2.950000e+01 9.750000e+00 6.000000e+00
      vertex 2.950000e+01 4.500000e+00 4.299038e+00
    endloop
  endfacet
  facet normal 1.000000e+00 6.262065e-16 6.123234e-17
    outer loop
      vertex 2.950000e+01 4.500000e+00 4.299038e+00
      vertex 2.950000e+01 9.750000e+00 6.000000e+00
      vertex 2.950000e+01 4.138184e+00 4.448889e+00
    endloop
  endfacet
  facet normal 1.000000e+00 6.262065e-16 6.123234e-17
    outer loop
      vertex 2.950000e+01 4.138184e+00 4.448889e+00
      vertex 2.950000e+01 9.750000e+00 6.000000e+00
      vertex 2.950000e+01 3.750000e+00 4.500000e+00
    endloop
  endfacet
  facet normal 1.000000e+00 6.262065e-16 6.123234e-17
    outer loop
      vertex 2.950000e+01 9.750000e+00 3.552714e-15
      vertex 2.950000e+01 4.810669e+00 4.060659e+00
      vertex 2.950000e+01 5.049011e+00 3.750000e+00
    endloop
  endfacet
  facet normal 1.000000e+00 6.262065e-16 6.123234e-17
    outer loop
      vertex 2.950000e+01 9.750000e+00 3.552714e-15
      vertex 2.950000e+01 5.049011e+00 3.750000e+00
      vertex 2.950000e+01 5.198853e+00 3.388227e+00
    endloop
  endfacet
  facet normal 1.000000e+00 6.262065e-16 6.123234e-17
    outer loop
      vertex 2.950000e+01 9.750000e+00 3.552714e-15
      vertex 2.950000e+01 5.198853e+00 3.388227e+00
      vertex 2.950000e+01 5.250000e+00 3.000000e+00
    endloop
  endfacet
  facet normal 1.000000e+00 6.262065e-16 6.123234e-17
    outer loop
      vertex 2.950000e+01 9.750000e+00 3.552714e-15
      vertex 2.950000e+01 5.250000e+00 3.000000e+00
      vertex 2.950000e+01 5.198853e+00 2.611771e+00
    endloop
  endfacet
  facet normal 1.000000e+00 6.262065e-16 6.123234e-17
    outer loop
      vertex 2.950000e+01 9.750000e+00 3.552714e-15
      vertex 2.950000e+01 5.198853e+00 2.611771e+00
      vertex 2.950000e+01 5.049011e+00 2.250000e+00
    endloop
  endfacet
  facet normal 1.000000e+00 6.262065e-16 6.123234e-17
    outer loop
      vertex 2.950000e+01 9.750000e+00 3.552714e-15
      vertex 2.950000e+01 5.049011e+00 2.250000e+00
      vertex 2.950000e+01 4.810669e+00 1.939339e+00
    endloop
  endfacet
  facet normal 1.000000e+00 6.262065e-16 6.123234e-17
    outer loop
      vertex 2.950000e+01 9.750000e+00 3.552714e-15
      vertex 2.950000e+01 4.810669e+00 1.939339e+00
      vertex 2.950000e+01 4.500000e+00 1.700962e+00
    endloop
  endfacet
  facet normal 1.000000e+00 6.262065e-16 6.123234e-17
    outer loop
      vertex 2.950000e+01 9.750000e+00 3.552714e-15
      vertex 2.950000e+01 4.500000e+00 1.700962e+00
      vertex 2.950000e+01 4.138184e+00 1.551111e+00
    endloop
  endfacet
  facet normal 1.000000e+00 6.262065e-16 6.123234e-17
    outer loop
      vertex 2.950000e+01 9.750000e+00 3.552714e-15
      vertex 2.950000e+01 4.138184e+00 1.551111e+00
      vertex 2.950000e+01 3.750000e+00 1.500000e+00
    endloop
  endfacet
  facet normal 1.000000e+00 6.262065e-16 6.123234e-17
    outer loop
      vertex 2.950000e+01 9.750000e+00 3.552714e-15
      vertex 2.950000e+01 3.750000e+00 1.500000e+00
      vertex 2.950000e+01 -4.750000e+00 3.552714e-15
    endloop
  endfacet
  facet normal -6.123234e-17 1.000000e+00 -5.330771e-16
    outer loop
      vertex 2.950000e+01 9.750000e+00 6.000000e+00
      vertex 2.350000e+01 9.750000e+00 3.552714e-15
      vertex 2.350000e+01 9.750000e+00 6.000000e+00
    endloop
  endfacet
  facet normal -6.123234e-17 1.000000e+00 -5.330771e-16
    outer loop
      vertex 2.350000e+01 9.750000e+00 3.552714e-15
      vertex 2.950000e+01 9.750000e+00 6.000000e+00
      vertex 2.950000e+01 9.750000e+00 3.552714e-15
    endloop
  endfacet
  facet normal 1.151836e-16 1.801086e-15 1.000000e+00
    outer loop
      vertex 2.950000e+01 -4.750000e+00 6.000000e+00
      vertex 2.804999e+01 1.049988e+00 6.000000e+00
      vertex 1.450000e+01 -4.750000e+00 6.000000e+00
    endloop
  endfacet
  facet normal 1.151836e-16 1.801086e-15 1.000000e+00
    outer loop
      vertex 2.804999e+01 1.049988e+00 6.000000e+00
      vertex 2.950000e+01 -4.750000e+00 6.000000e+00
      vertex 2.950000e+01 9.750000e+00 6.000000e+00
    endloop
  endfacet
  facet normal 1.151836e-16 1.801086e-15 1.000000e+00
    outer loop
      vertex 2.804999e+01 1.049988e+00 6.000000e+00
      vertex 2.950000e+01 9.750000e+00 6.000000e+00
      vertex 2.804999e+01 6.450012e+00 6.000000e+00
    endloop
  endfacet
  facet normal 1.151836e-16 1.801086e-15 1.000000e+00
    outer loop
      vertex 2.804999e+01 6.450012e+00 6.000000e+00
      vertex 2.950000e+01 9.750000e+00 6.000000e+00
      vertex 2.594998e+01 6.450012e+00 6.000000e+00
    endloop
  endfacet
  facet normal 1.151836e-16 1.801086e-15 1.000000e+00
    outer loop
      vertex 2.594998e+01 6.450012e+00 6.000000e+00
      vertex 2.350000e+01 1.250000e+00 6.000000e+00
      vertex 2.594998e+01 1.049988e+00 6.000000e+00
    endloop
  endfacet
  facet normal 1.151836e-16 1.801086e-15 1.000000e+00
    outer loop
      vertex 2.350000e+01 1.250000e+00 6.000000e+00
      vertex 2.594998e+01 6.450012e+00 6.000000e+00
      vertex 2.350000e+01 9.750000e+00 6.000000e+00
    endloop
  endfacet
  facet normal 1.151836e-16 1.801086e-15 1.000000e+00
    outer loop
      vertex 2.350000e+01 9.750000e+00 6.000000e+00
      vertex 2.594998e+01 6.450012e+00 6.000000e+00
      vertex 2.950000e+01 9.750000e+00 6.000000e+00
    endloop
  endfacet
  facet normal 1.151836e-16 1.801086e-15 1.000000e+00
    outer loop
      vertex 1.450000e+01 -9.750000e+00 6.000000e+00
      vertex 8.500000e+00 -6.750000e+00 6.000000e+00
      vertex -2.950000e+01 -9.750000e+00 6.000000e+00
    endloop
  endfacet
  facet normal 1.151836e-16 1.801086e-15 1.000000e+00
    outer loop
      vertex 8.500000e+00 -6.750000e+00 6.000000e+00
      vertex 1.450000e+01 -9.750000e+00 6.000000e+00
      vertex 1.450000e+01 -4.750000e+00 6.000000e+00
    endloop
  endfacet
  facet normal 1.151836e-16 1.801086e-15 1.000000e+00
    outer loop
      vertex 8.500000e+00 -6.750000e+00 6.000000e+00
      vertex 1.450000e+01 -4.750000e+00 6.000000e+00
      vertex 8.500000e+00 1.250000e+00 6.000000e+00
    endloop
  endfacet
  facet normal 1.151836e-16 1.801086e-15 1.000000e+00
    outer loop
      vertex 8.500000e+00 1.250000e+00 6.000000e+00
      vertex 1.450000e+01 -4.750000e+00 6.000000e+00
      vertex 2.594998e+01 1.049988e+00 6.000000e+00
    endloop
  endfacet
  facet normal 1.151836e-16 1.801086e-15 1.000000e+00
    outer loop
      vertex 2.594998e+01 1.049988e+00 6.000000e+00
      vertex 1.450000e+01 -4.750000e+00 6.000000e+00
      vertex 2.804999e+01 1.049988e+00 6.000000e+00
    endloop
  endfacet
  facet normal 1.151836e-16 1.801086e-15 1.000000e+00
    outer loop
      vertex 8.500000e+00 1.250000e+00 6.000000e+00
      vertex 2.594998e+01 1.049988e+00 6.000000e+00
      vertex 2.350000e+01 1.250000e+00 6.000000e+00
    endloop
  endfacet
  facet normal 1.151836e-16 1.801086e-15 1.000000e+00
    outer loop
      vertex -2.950000e+01 -6.750000e+00 6.000000e+00
      vertex -2.950000e+01 -9.750000e+00 6.000000e+00
      vertex 8.500000e+00 -6.750000e+00 6.000000e+00
    endloop
  endfacet
  facet normal 6.123234e-17 -1.000000e+00 6.123234e-17
    outer loop
      vertex 1.450000e+01 -9.750000e+00 0.000000e+00
      vertex -2.950000e+01 -9.750000e+00 6.000000e+00
      vertex -2.950000e+01 -9.750000e+00 0.000000e+00
    endloop
  endfacet
  facet normal 6.123234e-17 -1.000000e+00 6.123234e-17
    outer loop
      vertex -2.950000e+01 -9.750000e+00 6.000000e+00
      vertex 1.450000e+01 -9.750000e+00 0.000000e+00
      vertex 1.450000e+01 -9.750000e+00 6.000000e+00
    endloop
  endfacet
  facet normal -1.000000e+00 -6.123234e-17 -6.123234e-17
    outer loop
      vertex -2.950000e+01 -6.750000e+00 0.000000e+00
      vertex -2.950000e+01 -9.750000e+00 6.000000e+00
      vertex -2.950000e+01 -6.750000e+00 6.000000e+00
    endloop
  endfacet
  facet normal -1.000000e+00 -6.123234e-17 -6.123234e-17
    outer loop
      vertex -2.950000e+01 -9.750000e+00 6.000000e+00
      vertex -2.950000e+01 -6.750000e+00 0.000000e+00
      vertex -2.950000e+01 -9.750000e+00 0.000000e+00
    endloop
  endfacet
  facet normal -6.123234e-17 1.000000e+00 -6.123234e-17
    outer loop
      vertex 8.500000e+00 -6.750000e+00 6.000000e+00
      vertex -2.950000e+01 -6.750000e+00 0.000000e+00
      vertex -2.950000e+01 -6.750000e+00 6.000000e+00
    endloop
  endfacet
  facet normal -6.123234e-17 1.000000e+00 -6.123234e-17
    outer loop
      vertex -2.950000e+01 -6.750000e+00 0.000000e+00
      vertex 8.500000e+00 -6.750000e+00 6.000000e+00
      vertex 8.500000e+00 -6.750000e+00 0.000000e+00
    endloop
  endfacet
  facet normal 6.123234e-17 -1.000000e+00 5.330771e-16
    outer loop
      vertex 2.804999e+01 6.450012e+00 3.552714e-15
      vertex 2.594998e+01 6.450012e+00 6.000000e+00
      vertex 2.594998e+01 6.450012e+00 3.552714e-15
    endloop
  endfacet
  facet normal 6.123234e-17 -1.000000e+00 5.330771e-16
    outer loop
      vertex 2.594998e+01 6.450012e+00 6.000000e+00
      vertex 2.804999e+01 6.450012e+00 3.552714e-15
      vertex 2.804999e+01 6.450012e+00 6.000000e+00
    endloop
  endfacet
  facet normal 1.000000e+00 6.123234e-17 6.123234e-17
    outer loop
      vertex 2.594998e+01 1.049988e+00 6.000000e+00
      vertex 2.594998e+01 3.000000e+00 4.299038e+00
      vertex 2.594998e+01 6.450012e+00 6.000000e+00
    endloop
  endfacet
  facet normal 1.000000e+00 6.123234e-17 6.123234e-17
    outer loop
      vertex 2.594998e+01 3.000000e+00 4.299038e+00
      vertex 2.594998e+01 1.049988e+00 6.000000e+00
      vertex 2.594998e+01 2.689331e+00 4.060659e+00
    endloop
  endfacet
  facet normal 1.000000e+00 6.123234e-17 6.123234e-17
    outer loop
      vertex 2.594998e+01 2.689331e+00 4.060659e+00
      vertex 2.594998e+01 1.049988e+00 6.000000e+00
      vertex 2.594998e+01 2.450928e+00 3.750000e+00
    endloop
  endfacet
  facet normal 1.000000e+00 6.123234e-17 6.123234e-17
    outer loop
      vertex 2.594998e+01 2.450928e+00 3.750000e+00
      vertex 2.594998e+01 1.049988e+00 6.000000e+00
      vertex 2.594998e+01 2.301086e+00 3.388227e+00
    endloop
  endfacet
  facet normal 1.000000e+00 6.123234e-17 6.123234e-17
    outer loop
      vertex 2.594998e+01 2.301086e+00 3.388227e+00
      vertex 2.594998e+01 1.049988e+00 6.000000e+00
      vertex 2.594998e+01 1.049988e+00 3.552714e-15
    endloop
  endfacet
  facet normal 1.000000e+00 6.123234e-17 6.123234e-17
    outer loop
      vertex 2.594998e+01 6.450012e+00 6.000000e+00
      vertex 2.594998e+01 3.000000e+00 4.299038e+00
      vertex 2.594998e+01 3.361755e+00 4.448889e+00
    endloop
  endfacet
  facet normal 1.000000e+00 6.123234e-17 6.123234e-17
    outer loop
      vertex 2.594998e+01 6.450012e+00 6.000000e+00
      vertex 2.594998e+01 3.361755e+00 4.448889e+00
      vertex 2.594998e+01 3.750000e+00 4.500000e+00
    endloop
  endfacet
  facet normal 1.000000e+00 6.123234e-17 6.123234e-17
    outer loop
      vertex 2.594998e+01 2.301086e+00 3.388227e+00
      vertex 2.594998e+01 1.049988e+00 3.552714e-15
      vertex 2.594998e+01 2.250000e+00 3.000000e+00
    endloop
  endfacet
  facet normal 1.000000e+00 6.123234e-17 6.123234e-17
    outer loop
      vertex 2.594998e+01 2.250000e+00 3.000000e+00
      vertex 2.594998e+01 1.049988e+00 3.552714e-15
      vertex 2.594998e+01 2.301086e+00 2.611771e+00
    endloop
  endfacet
  facet normal 1.000000e+00 6.123234e-17 6.123234e-17
    outer loop
      vertex 2.594998e+01 2.301086e+00 2.611771e+00
      vertex 2.594998e+01 1.049988e+00 3.552714e-15
      vertex 2.594998e+01 2.450928e+00 2.250000e+00
    endloop
  endfacet
  facet normal 1.000000e+00 6.123234e-17 6.123234e-17
    outer loop
      vertex 2.594998e+01 2.450928e+00 2.250000e+00
      vertex 2.594998e+01 1.049988e+00 3.552714e-15
      vertex 2.594998e+01 2.689331e+00 1.939339e+00
    endloop
  endfacet
  facet normal 1.000000e+00 6.123234e-17 6.123234e-17
    outer loop
      vertex 2.594998e+01 2.689331e+00 1.939339e+00
      vertex 2.594998e+01 1.049988e+00 3.552714e-15
      vertex 2.594998e+01 3.000000e+00 1.700962e+00
    endloop
  endfacet
  facet normal 1.000000e+00 6.123234e-17 6.123234e-17
    outer loop
      vertex 2.594998e+01 3.000000e+00 1.700962e+00
      vertex 2.594998e+01 1.049988e+00 3.552714e-15
      vertex 2.594998e+01 3.361755e+00 1.551111e+00
    endloop
  endfacet
  facet normal 1.000000e+00 6.123234e-17 6.123234e-17
    outer loop
      vertex 2.594998e+01 3.361755e+00 1.551111e+00
      vertex 2.594998e+01 1.049988e+00 3.552714e-15
      vertex 2.594998e+01 3.750000e+00 1.500000e+00
    endloop
  endfacet
  facet normal 1.000000e+00 6.123234e-17 6.123234e-17
    outer loop
      vertex 2.594998e+01 6.450012e+00 6.000000e+00
      vertex 2.594998e+01 5.198853e+00 3.388227e+00
      vertex 2.594998e+01 6.450012e+00 3.552714e-15
    endloop
  endfacet
  facet normal 1.000000e+00 6.123234e-17 6.123234e-17
    outer loop
      vertex 2.594998e+01 5.198853e+00 3.388227e+00
      vertex 2.594998e+01 6.450012e+00 6.000000e+00
      vertex 2.594998e+01 5.049011e+00 3.750000e+00
    endloop
  endfacet
  facet normal 1.000000e+00 6.123234e-17 6.123234e-17
    outer loop
      vertex 2.594998e+01 5.049011e+00 3.750000e+00
      vertex 2.594998e+01 6.450012e+00 6.000000e+00
      vertex 2.594998e+01 4.810669e+00 4.060659e+00
    endloop
  endfacet
  facet normal 1.000000e+00 6.123234e-17 6.123234e-17
    outer loop
      vertex 2.594998e+01 4.810669e+00 4.060659e+00
      vertex 2.594998e+01 6.450012e+00 6.000000e+00
      vertex 2.594998e+01 4.500000e+00 4.299038e+00
    endloop
  endfacet
  facet normal 1.000000e+00 6.123234e-17 6.123234e-17
    outer loop
      vertex 2.594998e+01 4.500000e+00 4.299038e+00
      vertex 2.594998e+01 6.450012e+00 6.000000e+00
      vertex 2.594998e+01 4.138184e+00 4.448889e+00
    endloop
  endfacet
  facet normal 1.000000e+00 6.123234e-17 6.123234e-17
    outer loop
      vertex 2.594998e+01 4.138184e+00 4.448889e+00
      vertex 2.594998e+01 6.450012e+00 6.000000e+00
      vertex 2.594998e+01 3.750000e+00 4.500000e+00
    endloop
  endfacet
  facet normal 1.000000e+00 6.123234e-17 6.123234e-17
    outer loop
      vertex 2.594998e+01 6.450012e+00 3.552714e-15
      vertex 2.594998e+01 5.198853e+00 3.388227e+00
      vertex 2.594998e+01 5.250000e+00 3.000000e+00
    endloop
  endfacet
  facet normal 1.000000e+00 6.123234e-17 6.123234e-17
    outer loop
      vertex 2.594998e+01 6.450012e+00 3.552714e-15
      vertex 2.594998e+01 5.250000e+00 3.000000e+00
      vertex 2.594998e+01 5.198853e+00 2.611771e+00
    endloop
  endfacet
  facet normal 1.000000e+00 6.123234e-17 6.123234e-17
    outer loop
      vertex 2.594998e+01 6.450012e+00 3.552714e-15
      vertex 2.594998e+01 5.198853e+00 2.611771e+00
      vertex 2.594998e+01 5.049011e+00 2.250000e+00
    endloop
  endfacet
  facet normal 1.000000e+00 6.123234e-17 6.123234e-17
    outer loop
      vertex 2.594998e+01 6.450012e+00 3.552714e-15
      vertex 2.594998e+01 5.049011e+00 2.250000e+00
      vertex 2.594998e+01 4.810669e+00 1.939339e+00
    endloop
  endfacet
  facet normal 1.000000e+00 6.123234e-17 6.123234e-17
    outer loop
      vertex 2.594998e+01 6.450012e+00 3.552714e-15
      vertex 2.594998e+01 4.810669e+00 1.939339e+00
      vertex 2.594998e+01 4.500000e+00 1.700962e+00
    endloop
  endfacet
  facet normal 1.000000e+00 6.123234e-17 6.123234e-17
    outer loop
      vertex 2.594998e+01 6.450012e+00 3.552714e-15
      vertex 2.594998e+01 4.500000e+00 1.700962e+00
      vertex 2.594998e+01 4.138184e+00 1.551111e+00
    endloop
  endfacet
  facet normal 1.000000e+00 6.123234e-17 6.123234e-17
    outer loop
      vertex 2.594998e+01 6.450012e+00 3.552714e-15
      vertex 2.594998e+01 4.138184e+00 1.551111e+00
      vertex 2.594998e+01 3.750000e+00 1.500000e+00
    endloop
  endfacet
  facet normal 1.000000e+00 6.123234e-17 6.123234e-17
    outer loop
      vertex 2.594998e+01 6.450012e+00 3.552714e-15
      vertex 2.594998e+01 3.750000e+00 1.500000e+00
      vertex 2.594998e+01 1.049988e+00 3.552714e-15
    endloop
  endfacet
  facet normal -6.123234e-17 1.000000e+00 -5.330771e-16
    outer loop
      vertex 2.804999e+01 1.049988e+00 6.000000e+00
      vertex 2.594998e+01 1.049988e+00 3.552714e-15
      vertex 2.594998e+01 1.049988e+00 6.000000e+00
    endloop
  endfacet
  facet normal -6.123234e-17 1.000000e+00 -5.330771e-16
    outer loop
      vertex 2.594998e+01 1.049988e+00 3.552714e-15
      vertex 2.804999e+01 1.049988e+00 6.000000e+00
      vertex 2.804999e+01 1.049988e+00 3.552714e-15
    endloop
  endfacet
  facet normal -1.000000e+00 -6.123234e-17 -6.123234e-17
    outer loop
      vertex 2.804999e+01 6.450012e+00 6.000000e+00
      vertex 2.804999e+01 4.500000e+00 4.299038e+00
      vertex 2.804999e+01 1.049988e+00 6.000000e+00
    endloop
  endfacet
  facet normal -1.000000e+00 -6.123234e-17 -6.123234e-17
    outer loop
      vertex 2.804999e+01 4.500000e+00 4.299038e+00
      vertex 2.804999e+01 6.450012e+00 6.000000e+00
      vertex 2.804999e+01 4.810669e+00 4.060659e+00
    endloop
  endfacet
  facet normal -1.000000e+00 -6.123234e-17 -6.123234e-17
    outer loop
      vertex 2.804999e+01 4.810669e+00 4.060659e+00
      vertex 2.804999e+01 6.450012e+00 6.000000e+00
      vertex 2.804999e+01 5.049011e+00 3.750000e+00
    endloop
  endfacet
  facet normal -1.000000e+00 -6.123234e-17 -6.123234e-17
    outer loop
      vertex 2.804999e+01 5.049011e+00 3.750000e+00
      vertex 2.804999e+01 6.450012e+00 6.000000e+00
      vertex 2.804999e+01 5.198853e+00 3.388227e+00
    endloop
  endfacet
  facet normal -1.000000e+00 -6.123234e-17 -6.123234e-17
    outer loop
      vertex 2.804999e+01 5.198853e+00 3.388227e+00
      vertex 2.804999e+01 6.450012e+00 6.000000e+00
      vertex 2.804999e+01 6.450012e+00 3.552714e-15
    endloop
  endfacet
  facet normal -1.000000e+00 -6.123234e-17 -6.123234e-17
    outer loop
      vertex 2.804999e+01 1.049988e+00 6.000000e+00
      vertex 2.804999e+01 4.500000e+00 4.299038e+00
      vertex 2.804999e+01 4.138184e+00 4.448889e+00
    endloop
  endfacet
  facet normal -1.000000e+00 -6.123234e-17 -6.123234e-17
    outer loop
      vertex 2.804999e+01 1.049988e+00 6.000000e+00
      vertex 2.804999e+01 4.138184e+00 4.448889e+00
      vertex 2.804999e+01 3.750000e+00 4.500000e+00
    endloop
  endfacet
  facet normal -1.000000e+00 -6.123234e-17 -6.123234e-17
    outer loop
      vertex 2.804999e+01 5.198853e+00 3.388227e+00
      vertex 2.804999e+01 6.450012e+00 3.552714e-15
      vertex 2.804999e+01 5.250000e+00 3.000000e+00
    endloop
  endfacet
  facet normal -1.000000e+00 -6.123234e-17 -6.123234e-17
    outer loop
      vertex 2.804999e+01 5.250000e+00 3.000000e+00
      vertex 2.804999e+01 6.450012e+00 3.552714e-15
      vertex 2.804999e+01 5.198853e+00 2.611771e+00
    endloop
  endfacet
  facet normal -1.000000e+00 -6.123234e-17 -6.123234e-17
    outer loop
      vertex 2.804999e+01 5.198853e+00 2.611771e+00
      vertex 2.804999e+01 6.450012e+00 3.552714e-15
      vertex 2.804999e+01 5.049011e+00 2.250000e+00
    endloop
  endfacet
  facet normal -1.000000e+00 -6.123234e-17 -6.123234e-17
    outer loop
      vertex 2.804999e+01 5.049011e+00 2.250000e+00
      vertex 2.804999e+01 6.450012e+00 3.552714e-15
      vertex 2.804999e+01 4.810669e+00 1.939339e+00
    endloop
  endfacet
  facet normal -1.000000e+00 -6.123234e-17 -6.123234e-17
    outer loop
      vertex 2.804999e+01 4.810669e+00 1.939339e+00
      vertex 2.804999e+01 6.450012e+00 3.552714e-15
      vertex 2.804999e+01 4.500000e+00 1.700962e+00
    endloop
  endfacet
  facet normal -1.000000e+00 -6.123234e-17 -6.123234e-17
    outer loop
      vertex 2.804999e+01 4.500000e+00 1.700962e+00
      vertex 2.804999e+01 6.450012e+00 3.552714e-15
      vertex 2.804999e+01 4.138184e+00 1.551111e+00
    endloop
  endfacet
  facet normal -1.000000e+00 -6.123234e-17 -6.123234e-17
    outer loop
      vertex 2.804999e+01 4.138184e+00 1.551111e+00
      vertex 2.804999e+01 6.450012e+00 3.552714e-15
      vertex 2.804999e+01 3.750000e+00 1.500000e+00
    endloop
  endfacet
  facet normal -1.000000e+00 -6.123234e-17 -6.123234e-17
    outer loop
      vertex 2.804999e+01 1.049988e+00 6.000000e+00
      vertex 2.804999e+01 2.301086e+00 3.388227e+00
      vertex 2.804999e+01 1.049988e+00 3.552714e-15
    endloop
  endfacet
  facet normal -1.000000e+00 -6.123234e-17 -6.123234e-17
    outer loop
      vertex 2.804999e+01 2.301086e+00 3.388227e+00
      vertex 2.804999e+01 1.049988e+00 6.000000e+00
      vertex 2.804999e+01 2.450928e+00 3.750000e+00
    endloop
  endfacet
  facet normal -1.000000e+00 -6.123234e-17 -6.123234e-17
    outer loop
      vertex 2.804999e+01 2.450928e+00 3.750000e+00
      vertex 2.804999e+01 1.049988e+00 6.000000e+00
      vertex 2.804999e+01 2.689331e+00 4.060659e+00
    endloop
  endfacet
  facet normal -1.000000e+00 -6.123234e-17 -6.123234e-17
    outer loop
      vertex 2.804999e+01 2.689331e+00 4.060659e+00
      vertex 2.804999e+01 1.049988e+00 6.000000e+00
      vertex 2.804999e+01 3.000000e+00 4.299038e+00
    endloop
  endfacet
  facet normal -1.000000e+00 -6.123234e-17 -6.123234e-17
    outer loop
      vertex 2.804999e+01 3.000000e+00 4.299038e+00
      vertex 2.804999e+01 1.049988e+00 6.000000e+00
      vertex 2.804999e+01 3.361755e+00 4.448889e+00
    endloop
  endfacet
  facet normal -1.000000e+00 -6.123234e-17 -6.123234e-17
    outer loop
      vertex 2.804999e+01 3.361755e+00 4.448889e+00
      vertex 2.804999e+01 1.049988e+00 6.000000e+00
      vertex 2.804999e+01 3.750000e+00 4.500000e+00
    endloop
  endfacet
  facet normal -1.000000e+00 -6.123234e-17 -6.123234e-17
    outer loop
      vertex 2.804999e+01 1.049988e+00 3.552714e-15
      vertex 2.804999e+01 2.301086e+00 3.388227e+00
      vertex 2.804999e+01 2.250000e+00 3.000000e+00
    endloop
  endfacet
  facet normal -1.000000e+00 -6.123234e-17 -6.123234e-17
    outer loop
      vertex 2.804999e+01 1.049988e+00 3.552714e-15
      vertex 2.804999e+01 2.250000e+00 3.000000e+00
      vertex 2.804999e+01 2.301086e+00 2.611771e+00
    endloop
  endfacet
  facet normal -1.000000e+00 -6.123234e-17 -6.123234e-17
    outer loop
      vertex 2.804999e+01 1.049988e+00 3.552714e-15
      vertex 2.804999e+01 2.301086e+00 2.611771e+00
      vertex 2.804999e+01 2.450928e+00 2.250000e+00
    endloop
  endfacet
  facet normal -1.000000e+00 -6.123234e-17 -6.123234e-17
    outer loop
      vertex 2.804999e+01 1.049988e+00 3.552714e-15
      vertex 2.804999e+01 2.450928e+00 2.250000e+00
      vertex 2.804999e+01 2.689331e+00 1.939339e+00
    endloop
  endfacet
  facet normal -1.000000e+00 -6.123234e-17 -6.123234e-17
    outer loop
      vertex 2.804999e+01 1.049988e+00 3.552714e-15
      vertex 2.804999e+01 2.689331e+00 1.939339e+00
      vertex 2.804999e+01 3.000000e+00 1.700962e+00
    endloop
  endfacet
  facet normal -1.000000e+00 -6.123234e-17 -6.123234e-17
    outer loop
      vertex 2.804999e+01 1.049988e+00 3.552714e-15
      vertex 2.804999e+01 3.000000e+00 1.700962e+00
      vertex 2.804999e+01 3.361755e+00 1.551111e+00
    endloop
  endfacet
  facet normal -1.000000e+00 -6.123234e-17 -6.123234e-17
    outer loop
      vertex 2.804999e+01 1.049988e+00 3.552714e-15
      vertex 2.804999e+01 3.361755e+00 1.551111e+00
      vertex 2.804999e+01 3.750000e+00 1.500000e+00
    endloop
  endfacet
  facet normal -1.000000e+00 -6.123234e-17 -6.123234e-17
    outer loop
      vertex 2.804999e+01 1.049988e+00 3.552714e-15
      vertex 2.804999e+01 3.750000e+00 1.500000e+00
      vertex 2.804999e+01 6.450012e+00 3.552714e-15
    endloop
  endfacet
  facet normal -3.313870e-17 9.238795e-01 -3.826834e-01
    outer loop
      vertex 2.594998e+01 2.450928e+00 3.750000e+00
      vertex 2.350000e+01 2.301086e+00 3.388227e+00
      vertex 2.350000e+01 2.450928e+00 3.750000e+00
    endloop
  endfacet
  facet normal -3.313870e-17 9.238795e-01 -3.826834e-01
    outer loop
      vertex 2.350000e+01 2.301086e+00 3.388227e+00
      vertex 2.594998e+01 2.450928e+00 3.750000e+00
      vertex 2.594998e+01 2.301086e+00 3.388227e+00
    endloop
  endfacet
  facet normal -1.130299e-17 7.933533e-01 -6.087614e-01
    outer loop
      vertex 2.594998e+01 2.689331e+00 4.060659e+00
      vertex 2.350000e+01 2.450928e+00 3.750000e+00
      vertex 2.350000e+01 2.689331e+00 4.060659e+00
    endloop
  endfacet
  facet normal -1.130299e-17 7.933533e-01 -6.087614e-01
    outer loop
      vertex 2.350000e+01 2.450928e+00 3.750000e+00
      vertex 2.594998e+01 2.689331e+00 4.060659e+00
      vertex 2.594998e+01 2.450928e+00 3.750000e+00
    endloop
  endfacet
  facet normal 1.130299e-17 6.087614e-01 -7.933533e-01
    outer loop
      vertex 2.350000e+01 3.000000e+00 4.299038e+00
      vertex 2.594998e+01 2.689331e+00 4.060659e+00
      vertex 2.350000e+01 2.689331e+00 4.060659e+00
    endloop
  endfacet
  facet normal 1.130299e-17 6.087614e-01 -7.933533e-01
    outer loop
      vertex 2.594998e+01 2.689331e+00 4.060659e+00
      vertex 2.350000e+01 3.000000e+00 4.299038e+00
      vertex 2.594998e+01 3.000000e+00 4.299038e+00
    endloop
  endfacet
  facet normal 3.313870e-17 3.826834e-01 -9.238795e-01
    outer loop
      vertex 2.350000e+01 3.361755e+00 4.448889e+00
      vertex 2.594998e+01 3.000000e+00 4.299038e+00
      vertex 2.350000e+01 3.000000e+00 4.299038e+00
    endloop
  endfacet
  facet normal 3.313870e-17 3.826834e-01 -9.238795e-01
    outer loop
      vertex 2.594998e+01 3.000000e+00 4.299038e+00
      vertex 2.350000e+01 3.361755e+00 4.448889e+00
      vertex 2.594998e+01 3.361755e+00 4.448889e+00
    endloop
  endfacet
  facet normal 5.271606e-17 1.305262e-01 -9.914449e-01
    outer loop
      vertex 2.350000e+01 3.750000e+00 4.500000e+00
      vertex 2.594998e+01 3.361755e+00 4.448889e+00
      vertex 2.350000e+01 3.361755e+00 4.448889e+00
    endloop
  endfacet
  facet normal 5.271606e-17 1.305262e-01 -9.914449e-01
    outer loop
      vertex 2.594998e+01 3.361755e+00 4.448889e+00
      vertex 2.350000e+01 3.750000e+00 4.500000e+00
      vertex 2.594998e+01 3.750000e+00 4.500000e+00
    endloop
  endfacet
  facet normal 6.870092e-17 -1.305262e-01 -9.914449e-01
    outer loop
      vertex 2.350000e+01 4.138184e+00 4.448889e+00
      vertex 2.594998e+01 3.750000e+00 4.500000e+00
      vertex 2.350000e+01 3.750000e+00 4.500000e+00
    endloop
  endfacet
  facet normal 6.870092e-17 -1.305262e-01 -9.914449e-01
    outer loop
      vertex 2.594998e+01 3.750000e+00 4.500000e+00
      vertex 2.350000e+01 4.138184e+00 4.448889e+00
      vertex 2.594998e+01 4.138184e+00 4.448889e+00
    endloop
  endfacet
  facet normal 8.000390e-17 -3.826834e-01 -9.238795e-01
    outer loop
      vertex 2.350000e+01 4.500000e+00 4.299038e+00
      vertex 2.594998e+01 4.138184e+00 4.448889e+00
      vertex 2.350000e+01 4.138184e+00 4.448889e+00
    endloop
  endfacet
  facet normal 8.000390e-17 -3.826834e-01 -9.238795e-01
    outer loop
      vertex 2.594998e+01 4.138184e+00 4.448889e+00
      vertex 2.350000e+01 4.500000e+00 4.299038e+00
      vertex 2.594998e+01 4.500000e+00 4.299038e+00
    endloop
  endfacet
  facet normal 8.585477e-17 -6.087614e-01 -7.933533e-01
    outer loop
      vertex 2.350000e+01 4.810669e+00 4.060659e+00
      vertex 2.594998e+01 4.500000e+00 4.299038e+00
      vertex 2.350000e+01 4.500000e+00 4.299038e+00
    endloop
  endfacet
  facet normal 8.585477e-17 -6.087614e-01 -7.933533e-01
    outer loop
      vertex 2.594998e+01 4.500000e+00 4.299038e+00
      vertex 2.350000e+01 4.810669e+00 4.060659e+00
      vertex 2.594998e+01 4.810669e+00 4.060659e+00
    endloop
  endfacet
  facet normal 8.585477e-17 -7.933533e-01 -6.087614e-01
    outer loop
      vertex 2.594998e+01 5.049011e+00 3.750000e+00
      vertex 2.350000e+01 4.810669e+00 4.060659e+00
      vertex 2.350000e+01 5.049011e+00 3.750000e+00
    endloop
  endfacet
  facet normal 8.585477e-17 -7.933533e-01 -6.087614e-01
    outer loop
      vertex 2.350000e+01 4.810669e+00 4.060659e+00
      vertex 2.594998e+01 5.049011e+00 3.750000e+00
      vertex 2.594998e+01 4.810669e+00 4.060659e+00
    endloop
  endfacet
  facet normal 8.000390e-17 -9.238795e-01 -3.826834e-01
    outer loop
      vertex 2.594998e+01 5.198853e+00 3.388227e+00
      vertex 2.350000e+01 5.049011e+00 3.750000e+00
      vertex 2.350000e+01 5.198853e+00 3.388227e+00
    endloop
  endfacet
  facet normal 8.000390e-17 -9.238795e-01 -3.826834e-01
    outer loop
      vertex 2.350000e+01 5.049011e+00 3.750000e+00
      vertex 2.594998e+01 5.198853e+00 3.388227e+00
      vertex 2.594998e+01 5.049011e+00 3.750000e+00
    endloop
  endfacet
  facet normal 6.870092e-17 -9.914449e-01 -1.305262e-01
    outer loop
      vertex 2.594998e+01 5.250000e+00 3.000000e+00
      vertex 2.350000e+01 5.198853e+00 3.388227e+00
      vertex 2.350000e+01 5.250000e+00 3.000000e+00
    endloop
  endfacet
  facet normal 6.870092e-17 -9.914449e-01 -1.305262e-01
    outer loop
      vertex 2.350000e+01 5.198853e+00 3.388227e+00
      vertex 2.594998e+01 5.250000e+00 3.000000e+00
      vertex 2.594998e+01 5.198853e+00 3.388227e+00
    endloop
  endfacet
  facet normal 5.271606e-17 -9.914449e-01 1.305262e-01
    outer loop
      vertex 2.594998e+01 5.198853e+00 2.611771e+00
      vertex 2.350000e+01 5.250000e+00 3.000000e+00
      vertex 2.350000e+01 5.198853e+00 2.611771e+00
    endloop
  endfacet
  facet normal 5.271606e-17 -9.914449e-01 1.305262e-01
    outer loop
      vertex 2.350000e+01 5.250000e+00 3.000000e+00
      vertex 2.594998e+01 5.198853e+00 2.611771e+00
      vertex 2.594998e+01 5.250000e+00 3.000000e+00
    endloop
  endfacet
  facet normal 3.313870e-17 -9.238795e-01 3.826834e-01
    outer loop
      vertex 2.594998e+01 5.049011e+00 2.250000e+00
      vertex 2.350000e+01 5.198853e+00 2.611771e+00
      vertex 2.350000e+01 5.049011e+00 2.250000e+00
    endloop
  endfacet
  facet normal 3.313870e-17 -9.238795e-01 3.826834e-01
    outer loop
      vertex 2.350000e+01 5.198853e+00 2.611771e+00
      vertex 2.594998e+01 5.049011e+00 2.250000e+00
      vertex 2.594998e+01 5.198853e+00 2.611771e+00
    endloop
  endfacet
  facet normal 1.130299e-17 -7.933533e-01 6.087614e-01
    outer loop
      vertex 2.594998e+01 4.810669e+00 1.939339e+00
      vertex 2.350000e+01 5.049011e+00 2.250000e+00
      vertex 2.350000e+01 4.810669e+00 1.939339e+00
    endloop
  endfacet
  facet normal 1.130299e-17 -7.933533e-01 6.087614e-01
    outer loop
      vertex 2.350000e+01 5.049011e+00 2.250000e+00
      vertex 2.594998e+01 4.810669e+00 1.939339e+00
      vertex 2.594998e+01 5.049011e+00 2.250000e+00
    endloop
  endfacet
  facet normal -1.130299e-17 -6.087614e-01 7.933533e-01
    outer loop
      vertex 2.594998e+01 4.810669e+00 1.939339e+00
      vertex 2.350000e+01 4.500000e+00 1.700962e+00
      vertex 2.594998e+01 4.500000e+00 1.700962e+00
    endloop
  endfacet
  facet normal -1.130299e-17 -6.087614e-01 7.933533e-01
    outer loop
      vertex 2.350000e+01 4.500000e+00 1.700962e+00
      vertex 2.594998e+01 4.810669e+00 1.939339e+00
      vertex 2.350000e+01 4.810669e+00 1.939339e+00
    endloop
  endfacet
  facet normal -3.313870e-17 -3.826834e-01 9.238795e-01
    outer loop
      vertex 2.594998e+01 4.500000e+00 1.700962e+00
      vertex 2.350000e+01 4.138184e+00 1.551111e+00
      vertex 2.594998e+01 4.138184e+00 1.551111e+00
    endloop
  endfacet
  facet normal -3.313870e-17 -3.826834e-01 9.238795e-01
    outer loop
      vertex 2.350000e+01 4.138184e+00 1.551111e+00
      vertex 2.594998e+01 4.500000e+00 1.700962e+00
      vertex 2.350000e+01 4.500000e+00 1.700962e+00
    endloop
  endfacet
  facet normal -5.271606e-17 -1.305262e-01 9.914449e-01
    outer loop
      vertex 2.594998e+01 4.138184e+00 1.551111e+00
      vertex 2.350000e+01 3.750000e+00 1.500000e+00
      vertex 2.594998e+01 3.750000e+00 1.500000e+00
    endloop
  endfacet
  facet normal -5.271606e-17 -1.305262e-01 9.914449e-01
    outer loop
      vertex 2.350000e+01 3.750000e+00 1.500000e+00
      vertex 2.594998e+01 4.138184e+00 1.551111e+00
      vertex 2.350000e+01 4.138184e+00 1.551111e+00
    endloop
  endfacet
  facet normal -6.870092e-17 1.305262e-01 9.914449e-01
    outer loop
      vertex 2.594998e+01 3.750000e+00 1.500000e+00
      vertex 2.350000e+01 3.361755e+00 1.551111e+00
      vertex 2.594998e+01 3.361755e+00 1.551111e+00
    endloop
  endfacet
  facet normal -6.870092e-17 1.305262e-01 9.914449e-01
    outer loop
      vertex 2.350000e+01 3.361755e+00 1.551111e+00
      vertex 2.594998e+01 3.750000e+00 1.500000e+00
      vertex 2.350000e+01 3.750000e+00 1.500000e+00
    endloop
  endfacet
  facet normal -8.000390e-17 3.826834e-01 9.238795e-01
    outer loop
      vertex 2.594998e+01 3.361755e+00 1.551111e+00
      vertex 2.350000e+01 3.000000e+00 1.700962e+00
      vertex 2.594998e+01 3.000000e+00 1.700962e+00
    endloop
  endfacet
  facet normal -8.000390e-17 3.826834e-01 9.238795e-01
    outer loop
      vertex 2.350000e+01 3.000000e+00 1.700962e+00
      vertex 2.594998e+01 3.361755e+00 1.551111e+00
      vertex 2.350000e+01 3.361755e+00 1.551111e+00
    endloop
  endfacet
  facet normal -8.585477e-17 6.087614e-01 7.933533e-01
    outer loop
      vertex 2.594998e+01 3.000000e+00 1.700962e+00
      vertex 2.350000e+01 2.689331e+00 1.939339e+00
      vertex 2.594998e+01 2.689331e+00 1.939339e+00
    endloop
  endfacet
  facet normal -8.585477e-17 6.087614e-01 7.933533e-01
    outer loop
      vertex 2.350000e+01 2.689331e+00 1.939339e+00
      vertex 2.594998e+01 3.000000e+00 1.700962e+00
      vertex 2.350000e+01 3.000000e+00 1.700962e+00
    endloop
  endfacet
  facet normal -8.585477e-17 7.933533e-01 6.087614e-01
    outer loop
      vertex 2.594998e+01 2.450928e+00 2.250000e+00
      vertex 2.350000e+01 2.689331e+00 1.939339e+00
      vertex 2.350000e+01 2.450928e+00 2.250000e+00
    endloop
  endfacet
  facet normal -8.585477e-17 7.933533e-01 6.087614e-01
    outer loop
      vertex 2.350000e+01 2.689331e+00 1.939339e+00
      vertex 2.594998e+01 2.450928e+00 2.250000e+00
      vertex 2.594998e+01 2.689331e+00 1.939339e+00
    endloop
  endfacet
  facet normal -8.000390e-17 9.238795e-01 3.826834e-01
    outer loop
      vertex 2.594998e+01 2.301086e+00 2.611771e+00
      vertex 2.350000e+01 2.450928e+00 2.250000e+00
      vertex 2.350000e+01 2.301086e+00 2.611771e+00
    endloop
  endfacet
  facet normal -8.000390e-17 9.238795e-01 3.826834e-01
    outer loop
      vertex 2.350000e+01 2.450928e+00 2.250000e+00
      vertex 2.594998e+01 2.301086e+00 2.611771e+00
      vertex 2.594998e+01 2.450928e+00 2.250000e+00
    endloop
  endfacet
  facet normal -6.870092e-17 9.914449e-01 1.305262e-01
    outer loop
      vertex 2.594998e+01 2.250000e+00 3.000000e+00
      vertex 2.350000e+01 2.301086e+00 2.611771e+00
      vertex 2.350000e+01 2.250000e+00 3.000000e+00
    endloop
  endfacet
  facet normal -6.870092e-17 9.914449e-01 1.305262e-01
    outer loop
      vertex 2.350000e+01 2.301086e+00 2.611771e+00
      vertex 2.594998e+01 2.250000e+00 3.000000e+00
      vertex 2.594998e+01 2.301086e+00 2.611771e+00
    endloop
  endfacet
  facet normal -5.271606e-17 9.914449e-01 -1.305262e-01
    outer loop
      vertex 2.594998e+01 2.301086e+00 3.388227e+00
      vertex 2.350000e+01 2.250000e+00 3.000000e+00
      vertex 2.350000e+01 2.301086e+00 3.388227e+00
    endloop
  endfacet
  facet normal -5.271606e-17 9.914449e-01 -1.305262e-01
    outer loop
      vertex 2.350000e+01 2.250000e+00 3.000000e+00
      vertex 2.594998e+01 2.301086e+00 3.388227e+00
      vertex 2.594998e+01 2.250000e+00 3.000000e+00
    endloop
  endfacet
  facet normal -3.313870e-17 9.238795e-01 -3.826834e-01
    outer loop
      vertex 2.950000e+01 2.450928e+00 3.750000e+00
      vertex 2.804999e+01 2.301086e+00 3.388227e+00
      vertex 2.804999e+01 2.450928e+00 3.750000e+00
    endloop
  endfacet
  facet normal -3.313870e-17 9.238795e-01 -3.826834e-01
    outer loop
      vertex 2.804999e+01 2.301086e+00 3.388227e+00
      vertex 2.950000e+01 2.450928e+00 3.750000e+00
      vertex 2.950000e+01 2.301086e+00 3.388227e+00
    endloop
  endfacet
  facet normal -5.271606e-17 9.914449e-01 -1.305262e-01
    outer loop
      vertex 2.950000e+01 2.301086e+00 3.388227e+00
      vertex 2.804999e+01 2.250000e+00 3.000000e+00
      vertex 2.804999e+01 2.301086e+00 3.388227e+00
    endloop
  endfacet
  facet normal -5.271606e-17 9.914449e-01 -1.305262e-01
    outer loop
      vertex 2.804999e+01 2.250000e+00 3.000000e+00
      vertex 2.950000e+01 2.301086e+00 3.388227e+00
      vertex 2.950000e+01 2.250000e+00 3.000000e+00
    endloop
  endfacet
  facet normal -6.870092e-17 9.914449e-01 1.305262e-01
    outer loop
      vertex 2.950000e+01 2.250000e+00 3.000000e+00
      vertex 2.804999e+01 2.301086e+00 2.611771e+00
      vertex 2.804999e+01 2.250000e+00 3.000000e+00
    endloop
  endfacet
  facet normal -6.870092e-17 9.914449e-01 1.305262e-01
    outer loop
      vertex 2.804999e+01 2.301086e+00 2.611771e+00
      vertex 2.950000e+01 2.250000e+00 3.000000e+00
      vertex 2.950000e+01 2.301086e+00 2.611771e+00
    endloop
  endfacet
  facet normal -8.000390e-17 9.238795e-01 3.826834e-01
    outer loop
      vertex 2.950000e+01 2.301086e+00 2.611771e+00
      vertex 2.804999e+01 2.450928e+00 2.250000e+00
      vertex 2.804999e+01 2.301086e+00 2.611771e+00
    endloop
  endfacet
  facet normal -8.000390e-17 9.238795e-01 3.826834e-01
    outer loop
      vertex 2.804999e+01 2.450928e+00 2.250000e+00
      vertex 2.950000e+01 2.301086e+00 2.611771e+00
      vertex 2.950000e+01 2.450928e+00 2.250000e+00
    endloop
  endfacet
  facet normal -8.585477e-17 7.933533e-01 6.087614e-01
    outer loop
      vertex 2.950000e+01 2.450928e+00 2.250000e+00
      vertex 2.804999e+01 2.689331e+00 1.939339e+00
      vertex 2.804999e+01 2.450928e+00 2.250000e+00
    endloop
  endfacet
  facet normal -8.585477e-17 7.933533e-01 6.087614e-01
    outer loop
      vertex 2.804999e+01 2.689331e+00 1.939339e+00
      vertex 2.950000e+01 2.450928e+00 2.250000e+00
      vertex 2.950000e+01 2.689331e+00 1.939339e+00
    endloop
  endfacet
  facet normal -8.585477e-17 6.087614e-01 7.933533e-01
    outer loop
      vertex 2.950000e+01 3.000000e+00 1.700962e+00
      vertex 2.804999e+01 2.689331e+00 1.939339e+00
      vertex 2.950000e+01 2.689331e+00 1.939339e+00
    endloop
  endfacet
  facet normal -8.585477e-17 6.087614e-01 7.933533e-01
    outer loop
      vertex 2.804999e+01 2.689331e+00 1.939339e+00
      vertex 2.950000e+01 3.000000e+00 1.700962e+00
      vertex 2.804999e+01 3.000000e+00 1.700962e+00
    endloop
  endfacet
  facet normal -8.000390e-17 3.826834e-01 9.238795e-01
    outer loop
      vertex 2.950000e+01 3.361755e+00 1.551111e+00
      vertex 2.804999e+01 3.000000e+00 1.700962e+00
      vertex 2.950000e+01 3.000000e+00 1.700962e+00
    endloop
  endfacet
  facet normal -8.000390e-17 3.826834e-01 9.238795e-01
    outer loop
      vertex 2.804999e+01 3.000000e+00 1.700962e+00
      vertex 2.950000e+01 3.361755e+00 1.551111e+00
      vertex 2.804999e+01 3.361755e+00 1.551111e+00
    endloop
  endfacet
  facet normal -6.870092e-17 1.305262e-01 9.914449e-01
    outer loop
      vertex 2.950000e+01 3.750000e+00 1.500000e+00
      vertex 2.804999e+01 3.361755e+00 1.551111e+00
      vertex 2.950000e+01 3.361755e+00 1.551111e+00
    endloop
  endfacet
  facet normal -6.870092e-17 1.305262e-01 9.914449e-01
    outer loop
      vertex 2.804999e+01 3.361755e+00 1.551111e+00
      vertex 2.950000e+01 3.750000e+00 1.500000e+00
      vertex 2.804999e+01 3.750000e+00 1.500000e+00
    endloop
  endfacet
  facet normal -5.271606e-17 -1.305262e-01 9.914449e-01
    outer loop
      vertex 2.950000e+01 4.138184e+00 1.551111e+00
      vertex 2.804999e+01 3.750000e+00 1.500000e+00
      vertex 2.950000e+01 3.750000e+00 1.500000e+00
    endloop
  endfacet
  facet normal -5.271606e-17 -1.305262e-01 9.914449e-01
    outer loop
      vertex 2.804999e+01 3.750000e+00 1.500000e+00
      vertex 2.950000e+01 4.138184e+00 1.551111e+00
      vertex 2.804999e+01 4.138184e+00 1.551111e+00
    endloop
  endfacet
  facet normal -3.313870e-17 -3.826834e-01 9.238795e-01
    outer loop
      vertex 2.950000e+01 4.500000e+00 1.700962e+00
      vertex 2.804999e+01 4.138184e+00 1.551111e+00
      vertex 2.950000e+01 4.138184e+00 1.551111e+00
    endloop
  endfacet
  facet normal -3.313870e-17 -3.826834e-01 9.238795e-01
    outer loop
      vertex 2.804999e+01 4.138184e+00 1.551111e+00
      vertex 2.950000e+01 4.500000e+00 1.700962e+00
      vertex 2.804999e+01 4.500000e+00 1.700962e+00
    endloop
  endfacet
  facet normal -1.130299e-17 -6.087614e-01 7.933533e-01
    outer loop
      vertex 2.950000e+01 4.810669e+00 1.939339e+00
      vertex 2.804999e+01 4.500000e+00 1.700962e+00
      vertex 2.950000e+01 4.500000e+00 1.700962e+00
    endloop
  endfacet
  facet normal -1.130299e-17 -6.087614e-01 7.933533e-01
    outer loop
      vertex 2.804999e+01 4.500000e+00 1.700962e+00
      vertex 2.950000e+01 4.810669e+00 1.939339e+00
      vertex 2.804999e+01 4.810669e+00 1.939339e+00
    endloop
  endfacet
  facet normal 1.130299e-17 -7.933533e-01 6.087614e-01
    outer loop
      vertex 2.950000e+01 4.810669e+00 1.939339e+00
      vertex 2.804999e+01 5.049011e+00 2.250000e+00
      vertex 2.804999e+01 4.810669e+00 1.939339e+00
    endloop
  endfacet
  facet normal 1.130299e-17 -7.933533e-01 6.087614e-01
    outer loop
      vertex 2.804999e+01 5.049011e+00 2.250000e+00
      vertex 2.950000e+01 4.810669e+00 1.939339e+00
      vertex 2.950000e+01 5.049011e+00 2.250000e+00
    endloop
  endfacet
  facet normal 3.313870e-17 -9.238795e-01 3.826834e-01
    outer loop
      vertex 2.950000e+01 5.049011e+00 2.250000e+00
      vertex 2.804999e+01 5.198853e+00 2.611771e+00
      vertex 2.804999e+01 5.049011e+00 2.250000e+00
    endloop
  endfacet
  facet normal 3.313870e-17 -9.238795e-01 3.826834e-01
    outer loop
      vertex 2.804999e+01 5.198853e+00 2.611771e+00
      vertex 2.950000e+01 5.049011e+00 2.250000e+00
      vertex 2.950000e+01 5.198853e+00 2.611771e+00
    endloop
  endfacet
  facet normal 5.271606e-17 -9.914449e-01 1.305262e-01
    outer loop
      vertex 2.950000e+01 5.198853e+00 2.611771e+00
      vertex 2.804999e+01 5.250000e+00 3.000000e+00
      vertex 2.804999e+01 5.198853e+00 2.611771e+00
    endloop
  endfacet
  facet normal 5.271606e-17 -9.914449e-01 1.305262e-01
    outer loop
      vertex 2.804999e+01 5.250000e+00 3.000000e+00
      vertex 2.950000e+01 5.198853e+00 2.611771e+00
      vertex 2.950000e+01 5.250000e+00 3.000000e+00
    endloop
  endfacet
  facet normal 6.870092e-17 -9.914449e-01 -1.305262e-01
    outer loop
      vertex 2.950000e+01 5.250000e+00 3.000000e+00
      vertex 2.804999e+01 5.198853e+00 3.388227e+00
      vertex 2.804999e+01 5.250000e+00 3.000000e+00
    endloop
  endfacet
  facet normal 6.870092e-17 -9.914449e-01 -1.305262e-01
    outer loop
      vertex 2.804999e+01 5.198853e+00 3.388227e+00
      vertex 2.950000e+01 5.250000e+00 3.000000e+00
      vertex 2.950000e+01 5.198853e+00 3.388227e+00
    endloop
  endfacet
  facet normal 8.000390e-17 -9.238795e-01 -3.826834e-01
    outer loop
      vertex 2.950000e+01 5.198853e+00 3.388227e+00
      vertex 2.804999e+01 5.049011e+00 3.750000e+00
      vertex 2.804999e+01 5.198853e+00 3.388227e+00
    endloop
  endfacet
  facet normal 8.000390e-17 -9.238795e-01 -3.826834e-01
    outer loop
      vertex 2.804999e+01 5.049011e+00 3.750000e+00
      vertex 2.950000e+01 5.198853e+00 3.388227e+00
      vertex 2.950000e+01 5.049011e+00 3.750000e+00
    endloop
  endfacet
  facet normal 8.585477e-17 -7.933533e-01 -6.087614e-01
    outer loop
      vertex 2.950000e+01 5.049011e+00 3.750000e+00
      vertex 2.804999e+01 4.810669e+00 4.060659e+00
      vertex 2.804999e+01 5.049011e+00 3.750000e+00
    endloop
  endfacet
  facet normal 8.585477e-17 -7.933533e-01 -6.087614e-01
    outer loop
      vertex 2.804999e+01 4.810669e+00 4.060659e+00
      vertex 2.950000e+01 5.049011e+00 3.750000e+00
      vertex 2.950000e+01 4.810669e+00 4.060659e+00
    endloop
  endfacet
  facet normal 8.585477e-17 -6.087614e-01 -7.933533e-01
    outer loop
      vertex 2.804999e+01 4.810669e+00 4.060659e+00
      vertex 2.950000e+01 4.500000e+00 4.299038e+00
      vertex 2.804999e+01 4.500000e+00 4.299038e+00
    endloop
  endfacet
  facet normal 8.585477e-17 -6.087614e-01 -7.933533e-01
    outer loop
      vertex 2.950000e+01 4.500000e+00 4.299038e+00
      vertex 2.804999e+01 4.810669e+00 4.060659e+00
      vertex 2.950000e+01 4.810669e+00 4.060659e+00
    endloop
  endfacet
  facet normal 8.000390e-17 -3.826834e-01 -9.238795e-01
    outer loop
      vertex 2.804999e+01 4.500000e+00 4.299038e+00
      vertex 2.950000e+01 4.138184e+00 4.448889e+00
      vertex 2.804999e+01 4.138184e+00 4.448889e+00
    endloop
  endfacet
  facet normal 8.000390e-17 -3.826834e-01 -9.238795e-01
    outer loop
      vertex 2.950000e+01 4.138184e+00 4.448889e+00
      vertex 2.804999e+01 4.500000e+00 4.299038e+00
      vertex 2.950000e+01 4.500000e+00 4.299038e+00
    endloop
  endfacet
  facet normal 6.870092e-17 -1.305262e-01 -9.914449e-01
    outer loop
      vertex 2.804999e+01 4.138184e+00 4.448889e+00
      vertex 2.950000e+01 3.750000e+00 4.500000e+00
      vertex 2.804999e+01 3.750000e+00 4.500000e+00
    endloop
  endfacet
  facet normal 6.870092e-17 -1.305262e-01 -9.914449e-01
    outer loop
      vertex 2.950000e+01 3.750000e+00 4.500000e+00
      vertex 2.804999e+01 4.138184e+00 4.448889e+00
      vertex 2.950000e+01 4.138184e+00 4.448889e+00
    endloop
  endfacet
  facet normal 5.271606e-17 1.305262e-01 -9.914449e-01
    outer loop
      vertex 2.804999e+01 3.750000e+00 4.500000e+00
      vertex 2.950000e+01 3.361755e+00 4.448889e+00
      vertex 2.804999e+01 3.361755e+00 4.448889e+00
    endloop
  endfacet
  facet normal 5.271606e-17 1.305262e-01 -9.914449e-01
    outer loop
      vertex 2.950000e+01 3.361755e+00 4.448889e+00
      vertex 2.804999e+01 3.750000e+00 4.500000e+00
      vertex 2.950000e+01 3.750000e+00 4.500000e+00
    endloop
  endfacet
  facet normal 3.313870e-17 3.826834e-01 -9.238795e-01
    outer loop
      vertex 2.804999e+01 3.361755e+00 4.448889e+00
      vertex 2.950000e+01 3.000000e+00 4.299038e+00
      vertex 2.804999e+01 3.000000e+00 4.299038e+00
    endloop
  endfacet
  facet normal 3.313870e-17 3.826834e-01 -9.238795e-01
    outer loop
      vertex 2.950000e+01 3.000000e+00 4.299038e+00
      vertex 2.804999e+01 3.361755e+00 4.448889e+00
      vertex 2.950000e+01 3.361755e+00 4.448889e+00
    endloop
  endfacet
  facet normal 1.130299e-17 6.087614e-01 -7.933533e-01
    outer loop
      vertex 2.804999e+01 3.000000e+00 4.299038e+00
      vertex 2.950000e+01 2.689331e+00 4.060659e+00
      vertex 2.804999e+01 2.689331e+00 4.060659e+00
    endloop
  endfacet
  facet normal 1.130299e-17 6.087614e-01 -7.933533e-01
    outer loop
      vertex 2.950000e+01 2.689331e+00 4.060659e+00
      vertex 2.804999e+01 3.000000e+00 4.299038e+00
      vertex 2.950000e+01 3.000000e+00 4.299038e+00
    endloop
  endfacet
  facet normal -1.130299e-17 7.933533e-01 -6.087614e-01
    outer loop
      vertex 2.950000e+01 2.689331e+00 4.060659e+00
      vertex 2.804999e+01 2.450928e+00 3.750000e+00
      vertex 2.804999e+01 2.689331e+00 4.060659e+00
    endloop
  endfacet
  facet normal -1.130299e-17 7.933533e-01 -6.087614e-01
    outer loop
      vertex 2.804999e+01 2.450928e+00 3.750000e+00
      vertex 2.950000e+01 2.689331e+00 4.060659e+00
      vertex 2.950000e+01 2.450928e+00 3.750000e+00
    endloop
  endfacet
  facet normal -1.000000e+00 -6.123234e-17 -6.123234e-17
    outer loop
      vertex 2.350000e+01 9.750000e+00 6.000000e+00
      vertex 2.350000e+01 4.138184e+00 4.448889e+00
      vertex 2.350000e+01 3.750000e+00 4.500000e+00
    endloop
  endfacet
  facet normal -1.000000e+00 -6.123234e-17 -6.123234e-17
    outer loop
      vertex 2.350000e+01 4.138184e+00 4.448889e+00
      vertex 2.350000e+01 9.750000e+00 6.000000e+00
      vertex 2.350000e+01 4.500000e+00 4.299038e+00
    endloop
  endfacet
  facet normal -1.000000e+00 -6.123234e-17 -6.123234e-17
    outer loop
      vertex 2.350000e+01 4.500000e+00 4.299038e+00
      vertex 2.350000e+01 9.750000e+00 6.000000e+00
      vertex 2.350000e+01 4.810669e+00 4.060659e+00
    endloop
  endfacet
  facet normal -1.000000e+00 -6.123234e-17 -6.123234e-17
    outer loop
      vertex 2.350000e+01 4.810669e+00 4.060659e+00
      vertex 2.350000e+01 9.750000e+00 6.000000e+00
      vertex 2.350000e+01 9.750000e+00 3.552714e-15
    endloop
  endfacet
  facet normal -1.000000e+00 -6.123234e-17 -6.123234e-17
    outer loop
      vertex 2.350000e+01 4.810669e+00 4.060659e+00
      vertex 2.350000e+01 9.750000e+00 3.552714e-15
      vertex 2.350000e+01 5.049011e+00 3.750000e+00
    endloop
  endfacet
  facet normal -1.000000e+00 -6.123234e-17 -6.123234e-17
    outer loop
      vertex 2.350000e+01 5.049011e+00 3.750000e+00
      vertex 2.350000e+01 9.750000e+00 3.552714e-15
      vertex 2.350000e+01 5.198853e+00 3.388227e+00
    endloop
  endfacet
  facet normal -1.000000e+00 -6.123234e-17 -6.123234e-17
    outer loop
      vertex 2.350000e+01 5.198853e+00 3.388227e+00
      vertex 2.350000e+01 9.750000e+00 3.552714e-15
      vertex 2.350000e+01 5.250000e+00 3.000000e+00
    endloop
  endfacet
  facet normal -1.000000e+00 -6.123234e-17 -6.123234e-17
    outer loop
      vertex 2.350000e+01 5.250000e+00 3.000000e+00
      vertex 2.350000e+01 9.750000e+00 3.552714e-15
      vertex 2.350000e+01 5.198853e+00 2.611771e+00
    endloop
  endfacet
  facet normal -1.000000e+00 -6.123234e-17 -6.123234e-17
    outer loop
      vertex 2.350000e+01 5.198853e+00 2.611771e+00
      vertex 2.350000e+01 9.750000e+00 3.552714e-15
      vertex 2.350000e+01 5.049011e+00 2.250000e+00
    endloop
  endfacet
  facet normal -1.000000e+00 -6.123234e-17 -6.123234e-17
    outer loop
      vertex 2.350000e+01 5.049011e+00 2.250000e+00
      vertex 2.350000e+01 9.750000e+00 3.552714e-15
      vertex 2.350000e+01 4.810669e+00 1.939339e+00
    endloop
  endfacet
  facet normal -1.000000e+00 -6.123234e-17 -6.123234e-17
    outer loop
      vertex 2.350000e+01 4.810669e+00 1.939339e+00
      vertex 2.350000e+01 9.750000e+00 3.552714e-15
      vertex 2.350000e+01 4.500000e+00 1.700962e+00
    endloop
  endfacet
  facet normal -1.000000e+00 -6.123234e-17 -6.123234e-17
    outer loop
      vertex 2.350000e+01 4.500000e+00 1.700962e+00
      vertex 2.350000e+01 9.750000e+00 3.552714e-15
      vertex 2.350000e+01 4.138184e+00 1.551111e+00
    endloop
  endfacet
  facet normal -1.000000e+00 -6.123234e-17 -6.123234e-17
    outer loop
      vertex 2.350000e+01 4.138184e+00 1.551111e+00
      vertex 2.350000e+01 9.750000e+00 3.552714e-15
      vertex 2.350000e+01 3.750000e+00 1.500000e+00
    endloop
  endfacet
  facet normal -1.000000e+00 -6.123234e-17 -6.123234e-17
    outer loop
      vertex 2.350000e+01 3.750000e+00 1.500000e+00
      vertex 2.350000e+01 9.750000e+00 3.552714e-15
      vertex 2.350000e+01 1.250000e+00 3.552714e-15
    endloop
  endfacet
  facet normal -1.000000e+00 -6.123234e-17 -6.123234e-17
    outer loop
      vertex 2.350000e+01 1.250000e+00 6.000000e+00
      vertex 2.350000e+01 2.301086e+00 3.388227e+00
      vertex 2.350000e+01 1.250000e+00 3.552714e-15
    endloop
  endfacet
  facet normal -1.000000e+00 -6.123234e-17 -6.123234e-17
    outer loop
      vertex 2.350000e+01 2.301086e+00 3.388227e+00
      vertex 2.350000e+01 1.250000e+00 6.000000e+00
      vertex 2.350000e+01 2.450928e+00 3.750000e+00
    endloop
  endfacet
  facet normal -1.000000e+00 -6.123234e-17 -6.123234e-17
    outer loop
      vertex 2.350000e+01 2.450928e+00 3.750000e+00
      vertex 2.350000e+01 1.250000e+00 6.000000e+00
      vertex 2.350000e+01 2.689331e+00 4.060659e+00
    endloop
  endfacet
  facet normal -1.000000e+00 -6.123234e-17 -6.123234e-17
    outer loop
      vertex 2.350000e+01 2.689331e+00 4.060659e+00
      vertex 2.350000e+01 1.250000e+00 6.000000e+00
      vertex 2.350000e+01 3.000000e+00 4.299038e+00
    endloop
  endfacet
  facet normal -1.000000e+00 -6.123234e-17 -6.123234e-17
    outer loop
      vertex 2.350000e+01 3.000000e+00 4.299038e+00
      vertex 2.350000e+01 1.250000e+00 6.000000e+00
      vertex 2.350000e+01 3.361755e+00 4.448889e+00
    endloop
  endfacet
  facet normal -1.000000e+00 -6.123234e-17 -6.123234e-17
    outer loop
      vertex 2.350000e+01 3.361755e+00 4.448889e+00
      vertex 2.350000e+01 1.250000e+00 6.000000e+00
      vertex 2.350000e+01 9.750000e+00 6.000000e+00
    endloop
  endfacet
  facet normal -1.000000e+00 -6.123234e-17 -6.123234e-17
    outer loop
      vertex 2.350000e+01 3.361755e+00 4.448889e+00
      vertex 2.350000e+01 9.750000e+00 6.000000e+00
      vertex 2.350000e+01 3.750000e+00 4.500000e+00
    endloop
  endfacet
  facet normal -1.000000e+00 -6.123234e-17 -6.123234e-17
    outer loop
      vertex 2.350000e+01 1.250000e+00 3.552714e-15
      vertex 2.350000e+01 2.301086e+00 3.388227e+00
      vertex 2.350000e+01 2.250000e+00 3.000000e+00
    endloop
  endfacet
  facet normal -1.000000e+00 -6.123234e-17 -6.123234e-17
    outer loop
      vertex 2.350000e+01 1.250000e+00 3.552714e-15
      vertex 2.350000e+01 2.250000e+00 3.000000e+00
      vertex 2.350000e+01 2.301086e+00 2.611771e+00
    endloop
  endfacet
  facet normal -1.000000e+00 -6.123234e-17 -6.123234e-17
    outer loop
      vertex 2.350000e+01 1.250000e+00 3.552714e-15
      vertex 2.350000e+01 2.301086e+00 2.611771e+00
      vertex 2.350000e+01 2.450928e+00 2.250000e+00
    endloop
  endfacet
  facet normal -1.000000e+00 -6.123234e-17 -6.123234e-17
    outer loop
      vertex 2.350000e+01 1.250000e+00 3.552714e-15
      vertex 2.350000e+01 2.450928e+00 2.250000e+00
      vertex 2.350000e+01 2.689331e+00 1.939339e+00
    endloop
  endfacet
  facet normal -1.000000e+00 -6.123234e-17 -6.123234e-17
    outer loop
      vertex 2.350000e+01 1.250000e+00 3.552714e-15
      vertex 2.350000e+01 2.689331e+00 1.939339e+00
      vertex 2.350000e+01 3.000000e+00 1.700962e+00
    endloop
  endfacet
  facet normal -1.000000e+00 -6.123234e-17 -6.123234e-17
    outer loop
      vertex 2.350000e+01 1.250000e+00 3.552714e-15
      vertex 2.350000e+01 3.000000e+00 1.700962e+00
      vertex 2.350000e+01 3.361755e+00 1.551111e+00
    endloop
  endfacet
  facet normal -1.000000e+00 -6.123234e-17 -6.123234e-17
    outer loop
      vertex 2.350000e+01 1.250000e+00 3.552714e-15
      vertex 2.350000e+01 3.361755e+00 1.551111e+00
      vertex 2.350000e+01 3.750000e+00 1.500000e+00
    endloop
  endfacet
  facet normal -1.000000e+00 -6.123234e-17 -6.123234e-17
    outer loop
      vertex 8.500000e+00 1.250000e+00 6.000000e+00
      vertex 8.500000e+00 -6.750000e+00 0.000000e+00
      vertex 8.500000e+00 -6.750000e+00 6.000000e+00
    endloop
  endfacet
  facet normal -1.000000e+00 -6.123234e-17 -6.123234e-17
    outer loop
      vertex 8.500000e+00 -6.750000e+00 0.000000e+00
      vertex 8.500000e+00 1.250000e+00 6.000000e+00
      vertex 8.500000e+00 1.250000e+00 0.000000e+00
    endloop
  endfacet
  facet normal -6.123234e-17 1.000000e+00 -6.123234e-17
    outer loop
      vertex 2.350000e+01 1.250000e+00 6.000000e+00
      vertex 8.500000e+00 1.250000e+00 0.000000e+00
      vertex 8.500000e+00 1.250000e+00 6.000000e+00
    endloop
  endfacet
  facet normal -6.123234e-17 1.000000e+00 -6.123234e-17
    outer loop
      vertex 8.500000e+00 1.250000e+00 0.000000e+00
      vertex 2.350000e+01 1.250000e+00 6.000000e+00
      vertex 2.350000e+01 1.250000e+00 3.552714e-15
    endloop
  endfacet
  facet normal 1.000000e+00 6.929048e-16 6.123234e-17
    outer loop
      vertex 1.450000e+01 -9.750000e+00 0.000000e+00
      vertex 1.450000e+01 -4.750000e+00 6.000000e+00
      vertex 1.450000e+01 -9.750000e+00 6.000000e+00
    endloop
  endfacet
  facet normal 1.000000e+00 6.929048e-16 6.123234e-17
    outer loop
      vertex 1.450000e+01 -4.750000e+00 6.000000e+00
      vertex 1.450000e+01 -9.750000e+00 0.000000e+00
      vertex 1.450000e+01 -4.750000e+00 0.000000e+00
    endloop
  endfacet
  facet normal 6.929048e-16 -1.000000e+00 6.123234e-17
    outer loop
      vertex 2.950000e+01 -4.750000e+00 3.552714e-15
      vertex 1.450000e+01 -4.750000e+00 6.000000e+00
      vertex 1.450000e+01 -4.750000e+00 0.000000e+00
    endloop
  endfacet
  facet normal 6.929048e-16 -1.000000e+00 6.123234e-17
    outer loop
      vertex 1.450000e+01 -4.750000e+00 6.000000e+00
      vertex 2.950000e+01 -4.750000e+00 3.552714e-15
      vertex 2.950000e+01 -4.750000e+00 6.000000e+00
    endloop
  endfacet
endsolid Default
