solid MIDIViolina
facet normal 1.67367943503869e-012 1.63485170706609e-014 1.0
  outer loop
    vertex -22.2045109170213 794.174848350836 387.449330748116
    vertex -22.1448811130515 853.721915021892 387.449330748112
    vertex -22.2045109170457 854.174848350822 387.449330748112
  endloop
endfacet
facet normal 1.67367943503869e-012 1.63485170706609e-014 1.0
  outer loop
    vertex -22.1448811130515 853.721915021892 387.449330748112
    vertex -22.2045109170213 794.174848350836 387.449330748116
    vertex -22.1448811130271 794.627781679766 387.449330748116
  endloop
endfacet
facet normal 1.67367943503869e-012 1.63485170706609e-014 1.0
  outer loop
    vertex -22.1448811130515 853.721915021892 387.449330748112
    vertex -22.1448811130271 794.627781679766 387.449330748116
    vertex -21.9700553736683 853.299848350821 387.449330748112
  endloop
endfacet
facet normal 1.67367943503869e-012 1.63485170706609e-014 1.0
  outer loop
    vertex -21.9700553736683 853.299848350821 387.449330748112
    vertex -22.1448811130271 794.627781679766 387.449330748116
    vertex -21.9700553736441 795.049848350836 387.449330748116
  endloop
endfacet
facet normal 1.67367943503869e-012 1.63485170706609e-014 1.0
  outer loop
    vertex -21.9700553736683 853.299848350821 387.449330748112
    vertex -21.9700553736441 795.049848350836 387.449330748116
    vertex -21.691947784122 852.937411483745 387.449330748112
  endloop
endfacet
facet normal 1.67367943503869e-012 1.63485170706609e-014 1.0
  outer loop
    vertex -21.691947784122 852.937411483745 387.449330748112
    vertex -21.9700553736441 795.049848350836 387.449330748116
    vertex -21.6919477840978 795.412285217913 387.449330748116
  endloop
endfacet
facet normal 1.67367943503869e-012 1.63485170706609e-014 1.0
  outer loop
    vertex -21.691947784122 852.937411483745 387.449330748112
    vertex -21.6919477840978 795.412285217913 387.449330748116
    vertex -21.3295109170455 852.659303894199 387.449330748112
  endloop
endfacet
facet normal 1.67367943503869e-012 1.63485170706609e-014 1.0
  outer loop
    vertex -21.3295109170455 852.659303894199 387.449330748112
    vertex -21.6919477840978 795.412285217913 387.449330748116
    vertex -21.3295109170214 795.690392807459 387.449330748116
  endloop
endfacet
facet normal 1.67367943503869e-012 1.63485170706609e-014 1.0
  outer loop
    vertex -21.3295109170455 852.659303894199 387.449330748112
    vertex -21.3295109170214 795.690392807459 387.449330748116
    vertex -20.907444245975 852.484478154816 387.449330748112
  endloop
endfacet
facet normal 1.67367943503869e-012 1.63485170706609e-014 1.0
  outer loop
    vertex -20.907444245975 852.484478154816 387.449330748112
    vertex -21.3295109170214 795.690392807459 387.449330748116
    vertex -20.9074442459507 795.865218546842 387.449330748116
  endloop
endfacet
facet normal 1.67367943503869e-012 1.63485170706609e-014 1.0
  outer loop
    vertex -20.907444245975 852.484478154816 387.449330748112
    vertex -20.9074442459507 795.865218546842 387.449330748116
    vertex -20.4545109170455 852.424848350821 387.449330748112
  endloop
endfacet
facet normal 1.67367943503869e-012 1.63485170706609e-014 1.0
  outer loop
    vertex -20.4545109170455 852.424848350821 387.449330748112
    vertex -20.9074442459507 795.865218546842 387.449330748116
    vertex -20.4545109170213 795.924848350836 387.449330748116
  endloop
endfacet
facet normal 1.67367943503869e-012 1.63485170706609e-014 1.0
  outer loop
    vertex -20.4545109170455 852.424848350821 387.449330748112
    vertex -20.4545109170213 795.924848350836 387.449330748116
    vertex -20.0015775881161 852.484478154816 387.449330748113
  endloop
endfacet
facet normal 1.67367943503869e-012 1.63485170706609e-014 1.0
  outer loop
    vertex -20.0015775881161 852.484478154816 387.449330748113
    vertex -20.4545109170213 795.924848350836 387.449330748116
    vertex -20.001577588092 795.865218546842 387.449330748116
  endloop
endfacet
facet normal 1.67367943503869e-012 1.63485170706609e-014 1.0
  outer loop
    vertex -20.0015775881161 852.484478154816 387.449330748113
    vertex -20.001577588092 795.865218546842 387.449330748116
    vertex -19.5795109170456 852.659303894199 387.449330748112
  endloop
endfacet
facet normal 1.67367943503869e-012 1.63485170706609e-014 1.0
  outer loop
    vertex -19.5795109170456 852.659303894199 387.449330748112
    vertex -20.001577588092 795.865218546842 387.449330748116
    vertex -19.5795109170213 795.690392807459 387.449330748116
  endloop
endfacet
facet normal 1.67367943503869e-012 1.63485170706609e-014 1.0
  outer loop
    vertex -19.5795109170456 852.659303894199 387.449330748112
    vertex -19.5795109170213 795.690392807459 387.449330748116
    vertex -19.2170740499691 852.937411483745 387.449330748112
  endloop
endfacet
facet normal 1.67367943503869e-012 1.63485170706609e-014 1.0
  outer loop
    vertex -19.2170740499691 852.937411483745 387.449330748112
    vertex -19.5795109170213 795.690392807459 387.449330748116
    vertex -19.2170740499449 795.412285217913 387.449330748116
  endloop
endfacet
facet normal 1.67367943503869e-012 1.63485170706609e-014 1.0
  outer loop
    vertex -19.2170740499691 852.937411483745 387.449330748112
    vertex -19.2170740499449 795.412285217913 387.449330748116
    vertex -18.9389664604229 853.299848350821 387.449330748112
  endloop
endfacet
facet normal 1.67367943503869e-012 1.63485170706609e-014 1.0
  outer loop
    vertex -18.9389664604229 853.299848350821 387.449330748112
    vertex -19.2170740499449 795.412285217913 387.449330748116
    vertex -18.9389664603985 795.049848350836 387.449330748116
  endloop
endfacet
facet normal 1.67367943503869e-012 1.63485170706609e-014 1.0
  outer loop
    vertex -18.9389664604229 853.299848350821 387.449330748112
    vertex -18.9389664603985 795.049848350836 387.449330748116
    vertex -18.7641407210397 853.721915021892 387.449330748112
  endloop
endfacet
facet normal 1.67367943503869e-012 1.63485170706609e-014 1.0
  outer loop
    vertex -18.7641407210397 853.721915021892 387.449330748112
    vertex -18.9389664603985 795.049848350836 387.449330748116
    vertex -18.7641407210154 794.627781679766 387.449330748116
  endloop
endfacet
facet normal 1.67367943503869e-012 1.63485170706609e-014 1.0
  outer loop
    vertex -18.7641407210397 853.721915021892 387.449330748112
    vertex -18.7641407210154 794.627781679766 387.449330748116
    vertex -18.7045109170456 854.174848350822 387.449330748112
  endloop
endfacet
facet normal 1.67367943503869e-012 1.63485170706609e-014 1.0
  outer loop
    vertex -18.7045109170456 854.174848350822 387.449330748112
    vertex -18.7641407210154 794.627781679766 387.449330748116
    vertex -18.7045109170212 794.174848350836 387.449330748116
  endloop
endfacet
facet normal 1.67367943503869e-012 1.63485170706609e-014 1.0
  outer loop
    vertex -25.4545109170467 791.674848350835 387.449330748124
    vertex -22.2045109170213 794.174848350836 387.449330748116
    vertex -22.2045109170457 854.174848350822 387.449330748112
  endloop
endfacet
facet normal 1.67367943503869e-012 1.63485170706609e-014 1.0
  outer loop
    vertex -22.2045109170213 794.174848350836 387.449330748116
    vertex -25.4545109170467 791.674848350835 387.449330748124
    vertex -22.1448811130271 793.721915021907 387.449330748116
  endloop
endfacet
facet normal 1.67367943503869e-012 1.63485170706609e-014 1.0
  outer loop
    vertex -22.1448811130271 793.721915021907 387.449330748116
    vertex -25.4545109170467 791.674848350835 387.449330748124
    vertex -21.970055373644 793.299848350836 387.449330748116
  endloop
endfacet
facet normal 1.67367943503869e-012 1.63485170706609e-014 1.0
  outer loop
    vertex -21.970055373644 793.299848350836 387.449330748116
    vertex -25.4545109170467 791.674848350835 387.449330748124
    vertex -21.6919477840976 792.93741148376 387.449330748116
  endloop
endfacet
facet normal 1.67367943503869e-012 1.63485170706609e-014 1.0
  outer loop
    vertex -21.6919477840976 792.93741148376 387.449330748116
    vertex -25.4545109170467 791.674848350835 387.449330748124
    vertex -21.3295109170211 792.659303894214 387.449330748116
  endloop
endfacet
facet normal 1.67367943503869e-012 1.63485170706609e-014 1.0
  outer loop
    vertex -21.3295109170211 792.659303894214 387.449330748116
    vertex -25.4545109170467 791.674848350835 387.449330748124
    vertex -20.9074442459506 792.48447815483 387.449330748116
  endloop
endfacet
facet normal 1.67367943503869e-012 1.63485170706609e-014 1.0
  outer loop
    vertex -20.9074442459506 792.48447815483 387.449330748116
    vertex -25.4545109170467 791.674848350835 387.449330748124
    vertex -15.4545109170174 791.674848350836 387.449330748106
  endloop
endfacet
facet normal 1.67367943503869e-012 1.63485170706609e-014 1.0
  outer loop
    vertex -20.9074442459506 792.48447815483 387.449330748116
    vertex -15.4545109170174 791.674848350836 387.449330748106
    vertex -20.4545109170211 792.424848350836 387.449330748116
  endloop
endfacet
facet normal 1.67367943503869e-012 1.63485170706609e-014 1.0
  outer loop
    vertex -20.4545109170211 792.424848350836 387.449330748116
    vertex -15.4545109170174 791.674848350836 387.449330748106
    vertex -20.0015775880917 792.48447815483 387.449330748116
  endloop
endfacet
facet normal 1.67367943503869e-012 1.63485170706609e-014 1.0
  outer loop
    vertex -20.0015775880917 792.48447815483 387.449330748116
    vertex -15.4545109170174 791.674848350836 387.449330748106
    vertex -19.5795109170212 792.659303894214 387.449330748116
  endloop
endfacet
facet normal 1.67367943503869e-012 1.63485170706609e-014 1.0
  outer loop
    vertex -19.5795109170212 792.659303894214 387.449330748116
    vertex -15.4545109170174 791.674848350836 387.449330748106
    vertex -19.2170740499447 792.93741148376 387.449330748116
  endloop
endfacet
facet normal 1.67367943503869e-012 1.63485170706609e-014 1.0
  outer loop
    vertex -19.2170740499447 792.93741148376 387.449330748116
    vertex -15.4545109170174 791.674848350836 387.449330748106
    vertex -18.9389664603984 793.299848350836 387.449330748116
  endloop
endfacet
facet normal 1.67367943503869e-012 1.63485170706609e-014 1.0
  outer loop
    vertex -18.9389664603984 793.299848350836 387.449330748116
    vertex -15.4545109170174 791.674848350836 387.449330748106
    vertex -18.7641407210154 793.721915021907 387.449330748116
  endloop
endfacet
facet normal 1.67367943503869e-012 1.63485170706609e-014 1.0
  outer loop
    vertex -18.7641407210154 793.721915021907 387.449330748116
    vertex -15.4545109170174 791.674848350836 387.449330748106
    vertex -18.7045109170212 794.174848350836 387.449330748116
  endloop
endfacet
facet normal 1.67367943503869e-012 1.63485170706609e-014 1.0
  outer loop
    vertex -18.7045109170212 794.174848350836 387.449330748116
    vertex -15.4545109170174 791.674848350836 387.449330748106
    vertex -15.454510917042 856.674848350822 387.449330748106
  endloop
endfacet
facet normal 1.67367943503869e-012 1.63485170706609e-014 1.0
  outer loop
    vertex -25.4545109170713 856.674848350819 387.449330748122
    vertex -20.9074442459751 855.865218546827 387.449330748112
    vertex -15.454510917042 856.674848350822 387.449330748106
  endloop
endfacet
facet normal 1.67367943503869e-012 1.63485170706609e-014 1.0
  outer loop
    vertex -20.9074442459751 855.865218546827 387.449330748112
    vertex -25.4545109170713 856.674848350819 387.449330748122
    vertex -21.3295109170457 855.690392807444 387.449330748112
  endloop
endfacet
facet normal 1.67367943503869e-012 1.63485170706609e-014 1.0
  outer loop
    vertex -21.3295109170457 855.690392807444 387.449330748112
    vertex -25.4545109170713 856.674848350819 387.449330748122
    vertex -21.6919477841222 855.412285217898 387.449330748112
  endloop
endfacet
facet normal 1.67367943503869e-012 1.63485170706609e-014 1.0
  outer loop
    vertex -21.6919477841222 855.412285217898 387.449330748112
    vertex -25.4545109170713 856.674848350819 387.449330748122
    vertex -21.9700553736685 855.049848350822 387.449330748112
  endloop
endfacet
facet normal 1.67367943503869e-012 1.63485170706609e-014 1.0
  outer loop
    vertex -21.9700553736685 855.049848350822 387.449330748112
    vertex -25.4545109170713 856.674848350819 387.449330748122
    vertex -22.1448811130516 854.627781679751 387.449330748112
  endloop
endfacet
facet normal 1.67367943503869e-012 1.63485170706609e-014 1.0
  outer loop
    vertex -22.1448811130516 854.627781679751 387.449330748112
    vertex -25.4545109170713 856.674848350819 387.449330748122
    vertex -22.2045109170457 854.174848350822 387.449330748112
  endloop
endfacet
facet normal 1.67367943503869e-012 1.63485170706609e-014 1.0
  outer loop
    vertex -22.2045109170457 854.174848350822 387.449330748112
    vertex -25.4545109170713 856.674848350819 387.449330748122
    vertex -25.4545109170467 791.674848350835 387.449330748124
  endloop
endfacet
facet normal 1.67367943503869e-012 1.63485170706609e-014 1.0
  outer loop
    vertex -15.454510917042 856.674848350822 387.449330748106
    vertex -20.9074442459751 855.865218546827 387.449330748112
    vertex -20.4545109170457 855.924848350822 387.449330748112
  endloop
endfacet
facet normal 1.67367943503869e-012 1.63485170706609e-014 1.0
  outer loop
    vertex -15.454510917042 856.674848350822 387.449330748106
    vertex -20.4545109170457 855.924848350822 387.449330748112
    vertex -20.0015775881164 855.865218546827 387.449330748112
  endloop
endfacet
facet normal 1.67367943503869e-012 1.63485170706609e-014 1.0
  outer loop
    vertex -15.454510917042 856.674848350822 387.449330748106
    vertex -20.0015775881164 855.865218546827 387.449330748112
    vertex -19.5795109170458 855.690392807444 387.449330748112
  endloop
endfacet
facet normal 1.67367943503869e-012 1.63485170706609e-014 1.0
  outer loop
    vertex -15.454510917042 856.674848350822 387.449330748106
    vertex -19.5795109170458 855.690392807444 387.449330748112
    vertex -19.2170740499693 855.412285217898 387.449330748113
  endloop
endfacet
facet normal 1.67367943503869e-012 1.63485170706609e-014 1.0
  outer loop
    vertex -15.454510917042 856.674848350822 387.449330748106
    vertex -19.2170740499693 855.412285217898 387.449330748113
    vertex -18.9389664604229 855.049848350822 387.449330748112
  endloop
endfacet
facet normal 1.67367943503869e-012 1.63485170706609e-014 1.0
  outer loop
    vertex -15.454510917042 856.674848350822 387.449330748106
    vertex -18.9389664604229 855.049848350822 387.449330748112
    vertex -18.7641407210397 854.627781679751 387.449330748112
  endloop
endfacet
facet normal 1.67367943503869e-012 1.63485170706609e-014 1.0
  outer loop
    vertex -15.454510917042 856.674848350822 387.449330748106
    vertex -18.7641407210397 854.627781679751 387.449330748112
    vertex -18.7045109170456 854.174848350822 387.449330748112
  endloop
endfacet
facet normal 1.67367943503869e-012 1.63485170706609e-014 1.0
  outer loop
    vertex -15.454510917042 856.674848350822 387.449330748106
    vertex -18.7045109170456 854.174848350822 387.449330748112
    vertex -18.7045109170212 794.174848350836 387.449330748116
  endloop
endfacet
facet normal 0.923879532511263 0.382683432365147 -3.92092685738082e-013
  outer loop
    vertex -22.1448811130287 793.721915021907 383.449330748133
    vertex -21.970055373644 793.299848350836 387.449330748116
    vertex -21.9700553736456 793.299848350836 383.449330748133
  endloop
endfacet
facet normal 0.923879532511263 0.382683432365147 -3.92092685738082e-013
  outer loop
    vertex -21.970055373644 793.299848350836 387.449330748116
    vertex -22.1448811130287 793.721915021907 383.449330748133
    vertex -22.1448811130271 793.721915021907 387.449330748116
  endloop
endfacet
facet normal 1.03955244412393e-013 -1.0 2.88764567813935e-014
  outer loop
    vertex -15.4545109170174 791.674848350836 387.449330748106
    vertex -25.4545109170486 791.674848350835 383.449330748146
    vertex -15.4545109170193 791.674848350836 383.449330748128
  endloop
endfacet
facet normal 1.03955244412393e-013 -1.0 2.88764567813935e-014
  outer loop
    vertex -25.4545109170486 791.674848350835 383.449330748146
    vertex -15.4545109170174 791.674848350836 387.449330748106
    vertex -25.4545109170467 791.674848350835 387.449330748124
  endloop
endfacet
facet normal -0.793353340291276 0.608761429008668 3.15827482244212e-013
  outer loop
    vertex -19.2170740499447 792.93741148376 387.449330748116
    vertex -18.9389664604001 793.299848350836 383.449330748133
    vertex -19.2170740499464 792.93741148376 383.449330748133
  endloop
endfacet
facet normal -0.793353340291276 0.608761429008668 3.15827482244212e-013
  outer loop
    vertex -18.9389664604001 793.299848350836 383.449330748133
    vertex -19.2170740499447 792.93741148376 387.449330748116
    vertex -18.9389664603984 793.299848350836 387.449330748116
  endloop
endfacet
facet normal 0.382683432365086 0.923879532511288 -1.88929375825067e-013
  outer loop
    vertex -21.3295109170211 792.659303894214 387.449330748116
    vertex -20.9074442459522 792.48447815483 383.449330748133
    vertex -21.3295109170228 792.659303894214 383.449330748133
  endloop
endfacet
facet normal 0.382683432365086 0.923879532511288 -1.88929375825067e-013
  outer loop
    vertex -20.9074442459522 792.48447815483 383.449330748133
    vertex -21.3295109170211 792.659303894214 387.449330748116
    vertex -20.9074442459506 792.48447815483 387.449330748116
  endloop
endfacet
facet normal 0.793353340291214 0.608761429008749 -3.62603498528034e-013
  outer loop
    vertex -21.9700553736456 793.299848350836 383.449330748133
    vertex -21.6919477840976 792.93741148376 387.449330748116
    vertex -21.6919477840993 792.93741148376 383.449330748133
  endloop
endfacet
facet normal 0.793353340291214 0.608761429008749 -3.62603498528034e-013
  outer loop
    vertex -21.6919477840976 792.93741148376 387.449330748116
    vertex -21.9700553736456 793.299848350836 383.449330748133
    vertex -21.970055373644 793.299848350836 387.449330748116
  endloop
endfacet
facet normal 0.793353340291287 -0.608761429008653 -2.92603350276031e-013
  outer loop
    vertex -21.6919477840995 795.412285217913 383.449330748133
    vertex -21.9700553736441 795.049848350836 387.449330748116
    vertex -21.9700553736457 795.049848350836 383.449330748133
  endloop
endfacet
facet normal 0.793353340291287 -0.608761429008653 -2.92603350276031e-013
  outer loop
    vertex -21.9700553736441 795.049848350836 387.449330748116
    vertex -21.6919477840995 795.412285217913 383.449330748133
    vertex -21.6919477840978 795.412285217913 387.449330748116
  endloop
endfacet
facet normal 0.991444861373801 0.130526192220128 -4.09552556466232e-013
  outer loop
    vertex -22.2045109170229 794.174848350836 383.449330748133
    vertex -22.1448811130271 793.721915021907 387.449330748116
    vertex -22.1448811130287 793.721915021907 383.449330748133
  endloop
endfacet
facet normal 0.991444861373801 0.130526192220128 -4.09552556466232e-013
  outer loop
    vertex -22.1448811130271 793.721915021907 387.449330748116
    vertex -22.2045109170229 794.174848350836 383.449330748133
    vertex -22.2045109170213 794.174848350836 387.449330748116
  endloop
endfacet
facet normal -0.130526192219985 0.991444861373819 3.21251529229231e-014
  outer loop
    vertex -20.4545109170211 792.424848350836 387.449330748116
    vertex -20.0015775880934 792.48447815483 383.449330748133
    vertex -20.4545109170228 792.424848350836 383.449330748133
  endloop
endfacet
facet normal -0.130526192219985 0.991444861373819 3.21251529229231e-014
  outer loop
    vertex -20.0015775880934 792.48447815483 383.449330748133
    vertex -20.4545109170211 792.424848350836 387.449330748116
    vertex -20.0015775880917 792.48447815483 387.449330748116
  endloop
endfacet
facet normal -0.793353340291139 -0.608761429008846 3.48537687996978e-013
  outer loop
    vertex -18.9389664603985 795.049848350836 387.449330748116
    vertex -19.2170740499466 795.412285217913 383.449330748133
    vertex -18.9389664604003 795.049848350836 383.449330748133
  endloop
endfacet
facet normal -0.793353340291139 -0.608761429008846 3.48537687996978e-013
  outer loop
    vertex -19.2170740499466 795.412285217913 383.449330748133
    vertex -18.9389664603985 795.049848350836 387.449330748116
    vertex -19.2170740499449 795.412285217913 387.449330748116
  endloop
endfacet
facet normal -0.923879532511232 -0.382683432365223 3.99680789457454e-013
  outer loop
    vertex -18.9389664603985 795.049848350836 387.449330748116
    vertex -18.7641407210171 794.627781679766 383.449330748133
    vertex -18.7641407210154 794.627781679766 387.449330748116
  endloop
endfacet
facet normal -0.923879532511232 -0.382683432365223 3.99680789457454e-013
  outer loop
    vertex -18.7641407210171 794.627781679766 383.449330748133
    vertex -18.9389664603985 795.049848350836 387.449330748116
    vertex -18.9389664604003 795.049848350836 383.449330748133
  endloop
endfacet
facet normal 0.130526192220134 -0.9914448613738 -3.78517820968761e-014
  outer loop
    vertex -20.4545109170457 855.924848350822 387.449330748112
    vertex -20.9074442459768 855.865218546827 383.449330748133
    vertex -20.4545109170474 855.924848350822 383.449330748133
  endloop
endfacet
facet normal 0.130526192220134 -0.9914448613738 -3.78517820968761e-014
  outer loop
    vertex -20.9074442459768 855.865218546827 383.449330748133
    vertex -20.4545109170457 855.924848350822 387.449330748112
    vertex -20.9074442459751 855.865218546827 387.449330748112
  endloop
endfacet
facet normal 0.382683432365173 -0.923879532511252 -1.24903484978828e-013
  outer loop
    vertex -20.9074442459507 795.865218546842 387.449330748116
    vertex -21.3295109170229 795.690392807459 383.449330748133
    vertex -20.9074442459524 795.865218546842 383.449330748133
  endloop
endfacet
facet normal 0.382683432365173 -0.923879532511252 -1.24903484978828e-013
  outer loop
    vertex -21.3295109170229 795.690392807459 383.449330748133
    vertex -20.9074442459507 795.865218546842 387.449330748116
    vertex -21.3295109170214 795.690392807459 387.449330748116
  endloop
endfacet
facet normal 0.991444861373807 -0.130526192220078 -4.09249187468015e-013
  outer loop
    vertex -22.1448811130288 794.627781679766 383.449330748133
    vertex -22.2045109170213 794.174848350836 387.449330748116
    vertex -22.2045109170229 794.174848350836 383.449330748133
  endloop
endfacet
facet normal 0.991444861373807 -0.130526192220078 -4.09249187468015e-013
  outer loop
    vertex -22.2045109170213 794.174848350836 387.449330748116
    vertex -22.1448811130288 794.627781679766 383.449330748133
    vertex -22.1448811130271 794.627781679766 387.449330748116
  endloop
endfacet
facet normal -0.382683432364946 -0.923879532511346 1.84893505090874e-013
  outer loop
    vertex -19.579510917023 795.690392807459 383.449330748133
    vertex -20.001577588092 795.865218546842 387.449330748116
    vertex -20.0015775880937 795.865218546842 383.449330748133
  endloop
endfacet
facet normal -0.382683432364946 -0.923879532511346 1.84893505090874e-013
  outer loop
    vertex -20.001577588092 795.865218546842 387.449330748116
    vertex -19.579510917023 795.690392807459 383.449330748133
    vertex -19.5795109170213 795.690392807459 387.449330748116
  endloop
endfacet
facet normal 0.608761429008597 0.79335334029133 -2.88727238773776e-013
  outer loop
    vertex -21.6919477840993 792.93741148376 383.449330748133
    vertex -21.3295109170211 792.659303894214 387.449330748116
    vertex -21.3295109170228 792.659303894214 383.449330748133
  endloop
endfacet
facet normal 0.608761429008597 0.79335334029133 -2.88727238773776e-013
  outer loop
    vertex -21.3295109170211 792.659303894214 387.449330748116
    vertex -21.6919477840993 792.93741148376 383.449330748133
    vertex -21.6919477840976 792.93741148376 387.449330748116
  endloop
endfacet
facet normal 0.608761429008724 -0.793353340291233 -2.10513767910496e-013
  outer loop
    vertex -21.3295109170214 795.690392807459 387.449330748116
    vertex -21.6919477840995 795.412285217913 383.449330748133
    vertex -21.3295109170229 795.690392807459 383.449330748133
  endloop
endfacet
facet normal 0.608761429008724 -0.793353340291233 -2.10513767910496e-013
  outer loop
    vertex -21.6919477840995 795.412285217913 383.449330748133
    vertex -21.3295109170214 795.690392807459 387.449330748116
    vertex -21.6919477840978 795.412285217913 387.449330748116
  endloop
endfacet
facet normal 0.130526192219929 0.991444861373827 -8.29050950873948e-014
  outer loop
    vertex -20.9074442459506 792.48447815483 387.449330748116
    vertex -20.4545109170228 792.424848350836 383.449330748133
    vertex -20.9074442459522 792.48447815483 383.449330748133
  endloop
endfacet
facet normal 0.130526192219929 0.991444861373827 -8.29050950873948e-014
  outer loop
    vertex -20.4545109170228 792.424848350836 383.449330748133
    vertex -20.9074442459506 792.48447815483 387.449330748116
    vertex -20.4545109170211 792.424848350836 387.449330748116
  endloop
endfacet
facet normal -0.991444861373801 -0.130526192220128 4.22360135619414e-013
  outer loop
    vertex -18.7045109170212 794.174848350836 387.449330748116
    vertex -18.7641407210171 794.627781679766 383.449330748133
    vertex -18.7045109170229 794.174848350836 383.449330748133
  endloop
endfacet
facet normal -0.991444861373801 -0.130526192220128 4.22360135619414e-013
  outer loop
    vertex -18.7641407210171 794.627781679766 383.449330748133
    vertex -18.7045109170212 794.174848350836 387.449330748116
    vertex -18.7641407210154 794.627781679766 387.449330748116
  endloop
endfacet
facet normal -0.923879532511279 0.382683432365108 3.81082161079821e-013
  outer loop
    vertex -18.7641407210397 853.721915021892 387.449330748112
    vertex -18.9389664604245 853.299848350821 383.449330748133
    vertex -18.9389664604229 853.299848350821 387.449330748112
  endloop
endfacet
facet normal -0.923879532511279 0.382683432365108 3.81082161079821e-013
  outer loop
    vertex -18.9389664604245 853.299848350821 383.449330748133
    vertex -18.7641407210397 853.721915021892 387.449330748112
    vertex -18.7641407210414 853.721915021892 383.449330748133
  endloop
endfacet
facet normal -0.923879532511351 0.382683432364936 3.76663126631975e-013
  outer loop
    vertex -18.9389664603984 793.299848350836 387.449330748116
    vertex -18.764140721017 793.721915021907 383.449330748133
    vertex -18.9389664604001 793.299848350836 383.449330748133
  endloop
endfacet
facet normal -0.923879532511351 0.382683432364936 3.76663126631975e-013
  outer loop
    vertex -18.764140721017 793.721915021907 383.449330748133
    vertex -18.9389664603984 793.299848350836 387.449330748116
    vertex -18.7641407210154 793.721915021907 387.449330748116
  endloop
endfacet
facet normal 0.991444861373827 -0.130526192219929 -4.05030023286002e-013
  outer loop
    vertex -22.1448811130532 854.627781679751 383.449330748133
    vertex -22.2045109170457 854.174848350822 387.449330748112
    vertex -22.2045109170473 854.174848350821 383.449330748133
  endloop
endfacet
facet normal 0.991444861373827 -0.130526192219929 -4.05030023286002e-013
  outer loop
    vertex -22.2045109170457 854.174848350822 387.449330748112
    vertex -22.1448811130532 854.627781679751 383.449330748133
    vertex -22.1448811130516 854.627781679751 387.449330748112
  endloop
endfacet
facet normal -0.923879532511214 -0.382683432365266 3.89918789216832e-013
  outer loop
    vertex -18.9389664604229 855.049848350822 387.449330748112
    vertex -18.7641407210414 854.627781679751 383.449330748133
    vertex -18.7641407210397 854.627781679751 387.449330748112
  endloop
endfacet
facet normal -0.923879532511214 -0.382683432365266 3.89918789216832e-013
  outer loop
    vertex -18.7641407210414 854.627781679751 383.449330748133
    vertex -18.9389664604229 855.049848350822 387.449330748112
    vertex -18.9389664604246 855.049848350822 383.449330748133
  endloop
endfacet
facet normal -0.608761429008709 0.793353340291244 2.4290387271532e-013
  outer loop
    vertex -19.5795109170229 792.659303894214 383.449330748133
    vertex -19.2170740499447 792.93741148376 387.449330748116
    vertex -19.2170740499464 792.93741148376 383.449330748133
  endloop
endfacet
facet normal -0.608761429008709 0.793353340291244 2.4290387271532e-013
  outer loop
    vertex -19.2170740499447 792.93741148376 387.449330748116
    vertex -19.5795109170229 792.659303894214 383.449330748133
    vertex -19.5795109170212 792.659303894214 387.449330748116
  endloop
endfacet
facet normal -0.793353340291163 -0.608761429008815 3.36925595113966e-013
  outer loop
    vertex -19.2170740499693 855.412285217898 387.449330748113
    vertex -18.9389664604246 855.049848350822 383.449330748133
    vertex -18.9389664604229 855.049848350822 387.449330748112
  endloop
endfacet
facet normal -0.793353340291163 -0.608761429008815 3.36925595113966e-013
  outer loop
    vertex -18.9389664604246 855.049848350822 383.449330748133
    vertex -19.2170740499693 855.412285217898 387.449330748113
    vertex -19.2170740499709 855.412285217898 383.449330748133
  endloop
endfacet
facet normal -0.130526192220191 -0.991444861373792 7.86869715997196e-014
  outer loop
    vertex -20.001577588092 795.865218546842 387.449330748116
    vertex -20.454510917023 795.924848350836 383.449330748133
    vertex -20.0015775880937 795.865218546842 383.449330748133
  endloop
endfacet
facet normal -0.130526192220191 -0.991444861373792 7.86869715997196e-014
  outer loop
    vertex -20.454510917023 795.924848350836 383.449330748133
    vertex -20.001577588092 795.865218546842 387.449330748116
    vertex -20.4545109170213 795.924848350836 387.449330748116
  endloop
endfacet
facet normal 0.923879532511334 -0.382683432364975 -3.65572667423697e-013
  outer loop
    vertex -21.9700553736457 795.049848350836 383.449330748133
    vertex -22.1448811130271 794.627781679766 387.449330748116
    vertex -22.1448811130288 794.627781679766 383.449330748133
  endloop
endfacet
facet normal 0.923879532511334 -0.382683432364975 -3.65572667423697e-013
  outer loop
    vertex -22.1448811130271 794.627781679766 387.449330748116
    vertex -21.9700553736457 795.049848350836 383.449330748133
    vertex -21.9700553736441 795.049848350836 387.449330748116
  endloop
endfacet
facet normal -0.991444861373812 0.130526192220042 4.1934509766474e-013
  outer loop
    vertex -18.7641407210154 793.721915021907 387.449330748116
    vertex -18.7045109170229 794.174848350836 383.449330748133
    vertex -18.764140721017 793.721915021907 383.449330748133
  endloop
endfacet
facet normal -0.991444861373812 0.130526192220042 4.1934509766474e-013
  outer loop
    vertex -18.7045109170229 794.174848350836 383.449330748133
    vertex -18.7641407210154 793.721915021907 387.449330748116
    vertex -18.7045109170212 794.174848350836 387.449330748116
  endloop
endfacet
facet normal -0.382683432365122 0.923879532511273 1.50667528549858e-013
  outer loop
    vertex -20.0015775881161 852.484478154816 387.449330748113
    vertex -19.5795109170472 852.659303894199 383.449330748133
    vertex -20.0015775881178 852.484478154816 383.449330748133
  endloop
endfacet
facet normal -0.382683432365122 0.923879532511273 1.50667528549858e-013
  outer loop
    vertex -19.5795109170472 852.659303894199 383.449330748133
    vertex -20.0015775881161 852.484478154816 387.449330748113
    vertex -19.5795109170456 852.659303894199 387.449330748112
  endloop
endfacet
facet normal 0.130526192220141 -0.991444861373799 -2.71536419977325e-014
  outer loop
    vertex -20.4545109170213 795.924848350836 387.449330748116
    vertex -20.9074442459524 795.865218546842 383.449330748133
    vertex -20.454510917023 795.924848350836 383.449330748133
  endloop
endfacet
facet normal 0.130526192220141 -0.991444861373799 -2.71536419977325e-014
  outer loop
    vertex -20.9074442459524 795.865218546842 383.449330748133
    vertex -20.4545109170213 795.924848350836 387.449330748116
    vertex -20.9074442459507 795.865218546842 387.449330748116
  endloop
endfacet
facet normal -0.382683432365 -0.923879532511324 1.67591041864146e-013
  outer loop
    vertex -19.5795109170458 855.690392807444 387.449330748112
    vertex -20.001577588118 855.865218546827 383.449330748133
    vertex -19.5795109170474 855.690392807444 383.449330748133
  endloop
endfacet
facet normal -0.382683432365 -0.923879532511324 1.67591041864146e-013
  outer loop
    vertex -20.001577588118 855.865218546827 383.449330748133
    vertex -19.5795109170458 855.690392807444 387.449330748112
    vertex -20.0015775881164 855.865218546827 387.449330748112
  endloop
endfacet
facet normal -0.608761429008822 -0.793353340291158 2.70398317375532e-013
  outer loop
    vertex -19.2170740499449 795.412285217913 387.449330748116
    vertex -19.579510917023 795.690392807459 383.449330748133
    vertex -19.2170740499466 795.412285217913 383.449330748133
  endloop
endfacet
facet normal -0.608761429008822 -0.793353340291158 2.70398317375532e-013
  outer loop
    vertex -19.579510917023 795.690392807459 383.449330748133
    vertex -19.2170740499449 795.412285217913 387.449330748116
    vertex -19.5795109170213 795.690392807459 387.449330748116
  endloop
endfacet
facet normal -0.382683432365122 0.923879532511273 1.39998416722622e-013
  outer loop
    vertex -20.0015775880917 792.48447815483 387.449330748116
    vertex -19.5795109170229 792.659303894214 383.449330748133
    vertex -20.0015775880934 792.48447815483 383.449330748133
  endloop
endfacet
facet normal -0.382683432365122 0.923879532511273 1.39998416722622e-013
  outer loop
    vertex -19.5795109170229 792.659303894214 383.449330748133
    vertex -20.0015775880917 792.48447815483 387.449330748116
    vertex -19.5795109170212 792.659303894214 387.449330748116
  endloop
endfacet
facet normal 0.923879532511245 -0.382683432365191 -3.64657046346052e-013
  outer loop
    vertex -21.9700553736701 855.049848350821 383.449330748133
    vertex -22.1448811130516 854.627781679751 387.449330748112
    vertex -22.1448811130532 854.627781679751 383.449330748133
  endloop
endfacet
facet normal 0.923879532511245 -0.382683432365191 -3.64657046346052e-013
  outer loop
    vertex -22.1448811130516 854.627781679751 387.449330748112
    vertex -21.9700553736701 855.049848350821 383.449330748133
    vertex -21.9700553736685 855.049848350822 387.449330748112
  endloop
endfacet
facet normal -0.608761429008685 0.793353340291263 2.48551597282719e-013
  outer loop
    vertex -19.5795109170456 852.659303894199 387.449330748112
    vertex -19.2170740499707 852.937411483745 383.449330748133
    vertex -19.5795109170472 852.659303894199 383.449330748133
  endloop
endfacet
facet normal -0.608761429008685 0.793353340291263 2.48551597282719e-013
  outer loop
    vertex -19.2170740499707 852.937411483745 383.449330748133
    vertex -19.5795109170456 852.659303894199 387.449330748112
    vertex -19.2170740499691 852.937411483745 387.449330748112
  endloop
endfacet
facet normal 0.923879532511209 0.382683432365277 -3.930071777403e-013
  outer loop
    vertex -22.1448811130532 853.721915021892 383.449330748133
    vertex -21.9700553736683 853.299848350821 387.449330748112
    vertex -21.9700553736699 853.299848350821 383.449330748133
  endloop
endfacet
facet normal 0.923879532511209 0.382683432365277 -3.930071777403e-013
  outer loop
    vertex -21.9700553736683 853.299848350821 387.449330748112
    vertex -22.1448811130532 853.721915021892 383.449330748133
    vertex -22.1448811130515 853.721915021892 387.449330748112
  endloop
endfacet
facet normal -0.130526192219992 0.991444861373818 4.43316554056287e-014
  outer loop
    vertex -20.4545109170455 852.424848350821 387.449330748112
    vertex -20.0015775881178 852.484478154816 383.449330748133
    vertex -20.4545109170472 852.424848350821 383.449330748133
  endloop
endfacet
facet normal -0.130526192219992 0.991444861373818 4.43316554056287e-014
  outer loop
    vertex -20.0015775881178 852.484478154816 383.449330748133
    vertex -20.4545109170455 852.424848350821 387.449330748112
    vertex -20.0015775881161 852.484478154816 387.449330748113
  endloop
endfacet
facet normal -0.608761429008724 -0.793353340291233 2.54200960440234e-013
  outer loop
    vertex -19.2170740499693 855.412285217898 387.449330748113
    vertex -19.5795109170474 855.690392807444 383.449330748133
    vertex -19.2170740499709 855.412285217898 383.449330748133
  endloop
endfacet
facet normal -0.608761429008724 -0.793353340291233 2.54200960440234e-013
  outer loop
    vertex -19.5795109170474 855.690392807444 383.449330748133
    vertex -19.2170740499693 855.412285217898 387.449330748113
    vertex -19.5795109170458 855.690392807444 387.449330748112
  endloop
endfacet
facet normal 0.793353340291336 -0.608761429008589 -3.08799663129576e-013
  outer loop
    vertex -21.6919477841239 855.412285217898 383.449330748133
    vertex -21.9700553736685 855.049848350822 387.449330748112
    vertex -21.9700553736701 855.049848350821 383.449330748133
  endloop
endfacet
facet normal 0.793353340291336 -0.608761429008589 -3.08799663129576e-013
  outer loop
    vertex -21.9700553736685 855.049848350822 387.449330748112
    vertex -21.6919477841239 855.412285217898 383.449330748133
    vertex -21.6919477841222 855.412285217898 387.449330748112
  endloop
endfacet
facet normal -0.130526192220184 -0.991444861373793 6.6481492279653e-014
  outer loop
    vertex -20.0015775881164 855.865218546827 387.449330748112
    vertex -20.4545109170474 855.924848350822 383.449330748133
    vertex -20.001577588118 855.865218546827 383.449330748133
  endloop
endfacet
facet normal -0.130526192220184 -0.991444861373793 6.6481492279653e-014
  outer loop
    vertex -20.4545109170474 855.924848350822 383.449330748133
    vertex -20.0015775881164 855.865218546827 387.449330748112
    vertex -20.4545109170457 855.924848350822 387.449330748112
  endloop
endfacet
facet normal 0.608761429008749 -0.793353340291214 -2.37255950448333e-013
  outer loop
    vertex -21.3295109170474 855.690392807444 383.449330748133
    vertex -21.6919477841222 855.412285217898 387.449330748112
    vertex -21.6919477841239 855.412285217898 383.449330748133
  endloop
endfacet
facet normal 0.608761429008749 -0.793353340291214 -2.37255950448333e-013
  outer loop
    vertex -21.6919477841222 855.412285217898 387.449330748112
    vertex -21.3295109170474 855.690392807444 383.449330748133
    vertex -21.3295109170457 855.690392807444 387.449330748112
  endloop
endfacet
facet normal 0.382683432365173 -0.923879532511252 -1.39994464797403e-013
  outer loop
    vertex -20.9074442459751 855.865218546827 387.449330748112
    vertex -21.3295109170474 855.690392807444 383.449330748133
    vertex -20.9074442459768 855.865218546827 383.449330748133
  endloop
endfacet
facet normal 0.382683432365173 -0.923879532511252 -1.39994464797403e-013
  outer loop
    vertex -21.3295109170474 855.690392807444 383.449330748133
    vertex -20.9074442459751 855.865218546827 387.449330748112
    vertex -21.3295109170457 855.690392807444 387.449330748112
  endloop
endfacet
facet normal -0.991444861373831 0.130526192219893 4.15126705370307e-013
  outer loop
    vertex -18.7045109170456 854.174848350822 387.449330748112
    vertex -18.7641407210414 853.721915021892 383.449330748133
    vertex -18.7641407210397 853.721915021892 387.449330748112
  endloop
endfacet
facet normal -0.991444861373831 0.130526192219893 4.15126705370307e-013
  outer loop
    vertex -18.7641407210414 853.721915021892 383.449330748133
    vertex -18.7045109170456 854.174848350822 387.449330748112
    vertex -18.7045109170473 854.174848350822 383.449330748133
  endloop
endfacet
facet normal 0.130526192219916 0.991444861373828 -7.14519627751564e-014
  outer loop
    vertex -20.907444245975 852.484478154816 387.449330748112
    vertex -20.4545109170472 852.424848350821 383.449330748133
    vertex -20.9074442459766 852.484478154816 383.449330748133
  endloop
endfacet
facet normal 0.130526192219916 0.991444861373828 -7.14519627751564e-014
  outer loop
    vertex -20.4545109170472 852.424848350821 383.449330748133
    vertex -20.907444245975 852.484478154816 387.449330748112
    vertex -20.4545109170455 852.424848350821 387.449330748112
  endloop
endfacet
facet normal 0.608761429008597 0.79335334029133 -2.79560509470272e-013
  outer loop
    vertex -21.6919477841237 852.937411483745 383.449330748133
    vertex -21.3295109170455 852.659303894199 387.449330748112
    vertex -21.3295109170472 852.659303894199 383.449330748133
  endloop
endfacet
facet normal 0.608761429008597 0.79335334029133 -2.79560509470272e-013
  outer loop
    vertex -21.3295109170455 852.659303894199 387.449330748112
    vertex -21.6919477841237 852.937411483745 383.449330748133
    vertex -21.691947784122 852.937411483745 387.449330748112
  endloop
endfacet
facet normal 0.991444861373801 0.130526192220128 -4.19497373897962e-013
  outer loop
    vertex -22.2045109170473 854.174848350821 383.449330748133
    vertex -22.1448811130515 853.721915021892 387.449330748112
    vertex -22.1448811130532 853.721915021892 383.449330748133
  endloop
endfacet
facet normal 0.991444861373801 0.130526192220128 -4.19497373897962e-013
  outer loop
    vertex -22.1448811130515 853.721915021892 387.449330748112
    vertex -22.2045109170473 854.174848350821 383.449330748133
    vertex -22.2045109170457 854.174848350822 387.449330748112
  endloop
endfacet
facet normal 0.793353340291287 0.608761429008653 -3.50989515180153e-013
  outer loop
    vertex -21.9700553736699 853.299848350821 383.449330748133
    vertex -21.691947784122 852.937411483745 387.449330748112
    vertex -21.6919477841237 852.937411483745 383.449330748133
  endloop
endfacet
facet normal 0.793353340291287 0.608761429008653 -3.50989515180153e-013
  outer loop
    vertex -21.691947784122 852.937411483745 387.449330748112
    vertex -21.9700553736699 853.299848350821 383.449330748133
    vertex -21.9700553736683 853.299848350821 387.449330748112
  endloop
endfacet
facet normal -0.99144486137382 -0.130526192219979 4.15126705370302e-013
  outer loop
    vertex -18.7641407210397 854.627781679751 387.449330748112
    vertex -18.7045109170473 854.174848350822 383.449330748133
    vertex -18.7045109170456 854.174848350822 387.449330748112
  endloop
endfacet
facet normal -0.99144486137382 -0.130526192219979 4.15126705370302e-013
  outer loop
    vertex -18.7045109170473 854.174848350822 383.449330748133
    vertex -18.7641407210397 854.627781679751 387.449330748112
    vertex -18.7641407210414 854.627781679751 383.449330748133
  endloop
endfacet
facet normal -0.793353340291373 0.608761429008541 3.22861728846845e-013
  outer loop
    vertex -18.9389664604229 853.299848350821 387.449330748112
    vertex -19.2170740499707 852.937411483745 383.449330748133
    vertex -19.2170740499691 852.937411483745 387.449330748112
  endloop
endfacet
facet normal -0.793353340291373 0.608761429008541 3.22861728846845e-013
  outer loop
    vertex -19.2170740499707 852.937411483745 383.449330748133
    vertex -18.9389664604229 853.299848350821 387.449330748112
    vertex -18.9389664604245 853.299848350821 383.449330748133
  endloop
endfacet
facet normal 0.382683432365086 0.923879532511288 -1.78257733275027e-013
  outer loop
    vertex -21.3295109170455 852.659303894199 387.449330748112
    vertex -20.9074442459766 852.484478154816 383.449330748133
    vertex -21.3295109170472 852.659303894199 383.449330748133
  endloop
endfacet
facet normal 0.382683432365086 0.923879532511288 -1.78257733275027e-013
  outer loop
    vertex -20.9074442459766 852.484478154816 383.449330748133
    vertex -21.3295109170455 852.659303894199 387.449330748112
    vertex -20.907444245975 852.484478154816 387.449330748112
  endloop
endfacet
facet normal -1.67367943503869e-012 -9.24046617078981e-015 -1.0
  outer loop
    vertex -25.4545109170787 856.674848350819 383.449330748144
    vertex -22.2045109170473 854.174848350821 383.449330748133
    vertex -25.4545109170486 791.674848350835 383.449330748146
  endloop
endfacet
facet normal -1.67367943503869e-012 -9.24046617078981e-015 -1.0
  outer loop
    vertex -22.2045109170473 854.174848350821 383.449330748133
    vertex -25.4545109170787 856.674848350819 383.449330748144
    vertex -22.1448811130532 854.627781679751 383.449330748133
  endloop
endfacet
facet normal -1.67367943503869e-012 -9.24046617078981e-015 -1.0
  outer loop
    vertex -22.1448811130532 854.627781679751 383.449330748133
    vertex -25.4545109170787 856.674848350819 383.449330748144
    vertex -21.9700553736701 855.049848350821 383.449330748133
  endloop
endfacet
facet normal -1.67367943503869e-012 -9.24046617078981e-015 -1.0
  outer loop
    vertex -21.9700553736701 855.049848350821 383.449330748133
    vertex -25.4545109170787 856.674848350819 383.449330748144
    vertex -21.6919477841239 855.412285217898 383.449330748133
  endloop
endfacet
facet normal -1.67367943503869e-012 -9.24046617078981e-015 -1.0
  outer loop
    vertex -21.6919477841239 855.412285217898 383.449330748133
    vertex -25.4545109170787 856.674848350819 383.449330748144
    vertex -21.3295109170474 855.690392807444 383.449330748133
  endloop
endfacet
facet normal -1.67367943503869e-012 -9.24046617078981e-015 -1.0
  outer loop
    vertex -21.3295109170474 855.690392807444 383.449330748133
    vertex -25.4545109170787 856.674848350819 383.449330748144
    vertex -20.9074442459768 855.865218546827 383.449330748133
  endloop
endfacet
facet normal -1.67367943503869e-012 -9.24046617078981e-015 -1.0
  outer loop
    vertex -20.9074442459768 855.865218546827 383.449330748133
    vertex -25.4545109170787 856.674848350819 383.449330748144
    vertex -15.4545109170494 856.674848350822 383.449330748128
  endloop
endfacet
facet normal -1.67367943503869e-012 -9.24046617078981e-015 -1.0
  outer loop
    vertex -20.9074442459768 855.865218546827 383.449330748133
    vertex -15.4545109170494 856.674848350822 383.449330748128
    vertex -20.4545109170474 855.924848350822 383.449330748133
  endloop
endfacet
facet normal -1.67367943503869e-012 -9.24046617078981e-015 -1.0
  outer loop
    vertex -20.4545109170474 855.924848350822 383.449330748133
    vertex -15.4545109170494 856.674848350822 383.449330748128
    vertex -20.001577588118 855.865218546827 383.449330748133
  endloop
endfacet
facet normal -1.67367943503869e-012 -9.24046617078981e-015 -1.0
  outer loop
    vertex -20.001577588118 855.865218546827 383.449330748133
    vertex -15.4545109170494 856.674848350822 383.449330748128
    vertex -19.5795109170474 855.690392807444 383.449330748133
  endloop
endfacet
facet normal -1.67367943503869e-012 -9.24046617078981e-015 -1.0
  outer loop
    vertex -19.5795109170474 855.690392807444 383.449330748133
    vertex -15.4545109170494 856.674848350822 383.449330748128
    vertex -19.2170740499709 855.412285217898 383.449330748133
  endloop
endfacet
facet normal -1.67367943503869e-012 -9.24046617078981e-015 -1.0
  outer loop
    vertex -19.2170740499709 855.412285217898 383.449330748133
    vertex -15.4545109170494 856.674848350822 383.449330748128
    vertex -18.9389664604246 855.049848350822 383.449330748133
  endloop
endfacet
facet normal -1.67367943503869e-012 -9.24046617078981e-015 -1.0
  outer loop
    vertex -18.9389664604246 855.049848350822 383.449330748133
    vertex -15.4545109170494 856.674848350822 383.449330748128
    vertex -18.7641407210414 854.627781679751 383.449330748133
  endloop
endfacet
facet normal -1.67367943503869e-012 -9.24046617078981e-015 -1.0
  outer loop
    vertex -18.7641407210414 854.627781679751 383.449330748133
    vertex -15.4545109170494 856.674848350822 383.449330748128
    vertex -18.7045109170473 854.174848350822 383.449330748133
  endloop
endfacet
facet normal -1.67367943503869e-012 -9.24046617078981e-015 -1.0
  outer loop
    vertex -18.7045109170473 854.174848350822 383.449330748133
    vertex -15.4545109170494 856.674848350822 383.449330748128
    vertex -18.7045109170229 794.174848350836 383.449330748133
  endloop
endfacet
facet normal -1.67367943503869e-012 -9.24046617078981e-015 -1.0
  outer loop
    vertex -25.4545109170486 791.674848350835 383.449330748146
    vertex -20.9074442459522 792.48447815483 383.449330748133
    vertex -15.4545109170193 791.674848350836 383.449330748128
  endloop
endfacet
facet normal -1.67367943503869e-012 -9.24046617078981e-015 -1.0
  outer loop
    vertex -20.9074442459522 792.48447815483 383.449330748133
    vertex -25.4545109170486 791.674848350835 383.449330748146
    vertex -21.3295109170228 792.659303894214 383.449330748133
  endloop
endfacet
facet normal -1.67367943503869e-012 -9.24046617078981e-015 -1.0
  outer loop
    vertex -21.3295109170228 792.659303894214 383.449330748133
    vertex -25.4545109170486 791.674848350835 383.449330748146
    vertex -21.6919477840993 792.93741148376 383.449330748133
  endloop
endfacet
facet normal -1.67367943503869e-012 -9.24046617078981e-015 -1.0
  outer loop
    vertex -21.6919477840993 792.93741148376 383.449330748133
    vertex -25.4545109170486 791.674848350835 383.449330748146
    vertex -21.9700553736456 793.299848350836 383.449330748133
  endloop
endfacet
facet normal -1.67367943503869e-012 -9.24046617078981e-015 -1.0
  outer loop
    vertex -21.9700553736456 793.299848350836 383.449330748133
    vertex -25.4545109170486 791.674848350835 383.449330748146
    vertex -22.1448811130287 793.721915021907 383.449330748133
  endloop
endfacet
facet normal -1.67367943503869e-012 -9.24046617078981e-015 -1.0
  outer loop
    vertex -22.1448811130287 793.721915021907 383.449330748133
    vertex -25.4545109170486 791.674848350835 383.449330748146
    vertex -22.2045109170229 794.174848350836 383.449330748133
  endloop
endfacet
facet normal -1.67367943503869e-012 -9.24046617078981e-015 -1.0
  outer loop
    vertex -22.2045109170229 794.174848350836 383.449330748133
    vertex -25.4545109170486 791.674848350835 383.449330748146
    vertex -22.2045109170473 854.174848350821 383.449330748133
  endloop
endfacet
facet normal -1.67367943503869e-012 -9.24046617078981e-015 -1.0
  outer loop
    vertex -15.4545109170193 791.674848350836 383.449330748128
    vertex -20.9074442459522 792.48447815483 383.449330748133
    vertex -20.4545109170228 792.424848350836 383.449330748133
  endloop
endfacet
facet normal -1.67367943503869e-012 -9.24046617078981e-015 -1.0
  outer loop
    vertex -15.4545109170193 791.674848350836 383.449330748128
    vertex -20.4545109170228 792.424848350836 383.449330748133
    vertex -20.0015775880934 792.48447815483 383.449330748133
  endloop
endfacet
facet normal -1.67367943503869e-012 -9.24046617078981e-015 -1.0
  outer loop
    vertex -15.4545109170193 791.674848350836 383.449330748128
    vertex -20.0015775880934 792.48447815483 383.449330748133
    vertex -19.5795109170229 792.659303894214 383.449330748133
  endloop
endfacet
facet normal -1.67367943503869e-012 -9.24046617078981e-015 -1.0
  outer loop
    vertex -15.4545109170193 791.674848350836 383.449330748128
    vertex -19.5795109170229 792.659303894214 383.449330748133
    vertex -19.2170740499464 792.93741148376 383.449330748133
  endloop
endfacet
facet normal -1.67367943503869e-012 -9.24046617078981e-015 -1.0
  outer loop
    vertex -15.4545109170193 791.674848350836 383.449330748128
    vertex -19.2170740499464 792.93741148376 383.449330748133
    vertex -18.9389664604001 793.299848350836 383.449330748133
  endloop
endfacet
facet normal -1.67367943503869e-012 -9.24046617078981e-015 -1.0
  outer loop
    vertex -15.4545109170193 791.674848350836 383.449330748128
    vertex -18.9389664604001 793.299848350836 383.449330748133
    vertex -18.764140721017 793.721915021907 383.449330748133
  endloop
endfacet
facet normal -1.67367943503869e-012 -9.24046617078981e-015 -1.0
  outer loop
    vertex -15.4545109170193 791.674848350836 383.449330748128
    vertex -18.764140721017 793.721915021907 383.449330748133
    vertex -18.7045109170229 794.174848350836 383.449330748133
  endloop
endfacet
facet normal -1.67367943503869e-012 -9.24046617078981e-015 -1.0
  outer loop
    vertex -15.4545109170193 791.674848350836 383.449330748128
    vertex -18.7045109170229 794.174848350836 383.449330748133
    vertex -15.4545109170494 856.674848350822 383.449330748128
  endloop
endfacet
facet normal -1.67367943503869e-012 -9.24046617078981e-015 -1.0
  outer loop
    vertex -22.1448811130532 853.721915021892 383.449330748133
    vertex -22.2045109170229 794.174848350836 383.449330748133
    vertex -22.2045109170473 854.174848350821 383.449330748133
  endloop
endfacet
facet normal -1.67367943503869e-012 -9.24046617078981e-015 -1.0
  outer loop
    vertex -22.2045109170229 794.174848350836 383.449330748133
    vertex -22.1448811130532 853.721915021892 383.449330748133
    vertex -22.1448811130288 794.627781679766 383.449330748133
  endloop
endfacet
facet normal -1.67367943503869e-012 -9.24046617078981e-015 -1.0
  outer loop
    vertex -22.1448811130288 794.627781679766 383.449330748133
    vertex -22.1448811130532 853.721915021892 383.449330748133
    vertex -21.9700553736699 853.299848350821 383.449330748133
  endloop
endfacet
facet normal -1.67367943503869e-012 -9.24046617078981e-015 -1.0
  outer loop
    vertex -22.1448811130288 794.627781679766 383.449330748133
    vertex -21.9700553736699 853.299848350821 383.449330748133
    vertex -21.9700553736457 795.049848350836 383.449330748133
  endloop
endfacet
facet normal -1.67367943503869e-012 -9.24046617078981e-015 -1.0
  outer loop
    vertex -21.9700553736457 795.049848350836 383.449330748133
    vertex -21.9700553736699 853.299848350821 383.449330748133
    vertex -21.6919477841237 852.937411483745 383.449330748133
  endloop
endfacet
facet normal -1.67367943503869e-012 -9.24046617078981e-015 -1.0
  outer loop
    vertex -21.9700553736457 795.049848350836 383.449330748133
    vertex -21.6919477841237 852.937411483745 383.449330748133
    vertex -21.6919477840995 795.412285217913 383.449330748133
  endloop
endfacet
facet normal -1.67367943503869e-012 -9.24046617078981e-015 -1.0
  outer loop
    vertex -21.6919477840995 795.412285217913 383.449330748133
    vertex -21.6919477841237 852.937411483745 383.449330748133
    vertex -21.3295109170472 852.659303894199 383.449330748133
  endloop
endfacet
facet normal -1.67367943503869e-012 -9.24046617078981e-015 -1.0
  outer loop
    vertex -21.6919477840995 795.412285217913 383.449330748133
    vertex -21.3295109170472 852.659303894199 383.449330748133
    vertex -21.3295109170229 795.690392807459 383.449330748133
  endloop
endfacet
facet normal -1.67367943503869e-012 -9.24046617078981e-015 -1.0
  outer loop
    vertex -21.3295109170229 795.690392807459 383.449330748133
    vertex -21.3295109170472 852.659303894199 383.449330748133
    vertex -20.9074442459766 852.484478154816 383.449330748133
  endloop
endfacet
facet normal -1.67367943503869e-012 -9.24046617078981e-015 -1.0
  outer loop
    vertex -21.3295109170229 795.690392807459 383.449330748133
    vertex -20.9074442459766 852.484478154816 383.449330748133
    vertex -20.9074442459524 795.865218546842 383.449330748133
  endloop
endfacet
facet normal -1.67367943503869e-012 -9.24046617078981e-015 -1.0
  outer loop
    vertex -20.9074442459524 795.865218546842 383.449330748133
    vertex -20.9074442459766 852.484478154816 383.449330748133
    vertex -20.4545109170472 852.424848350821 383.449330748133
  endloop
endfacet
facet normal -1.67367943503869e-012 -9.24046617078981e-015 -1.0
  outer loop
    vertex -20.9074442459524 795.865218546842 383.449330748133
    vertex -20.4545109170472 852.424848350821 383.449330748133
    vertex -20.454510917023 795.924848350836 383.449330748133
  endloop
endfacet
facet normal -1.67367943503869e-012 -9.24046617078981e-015 -1.0
  outer loop
    vertex -20.454510917023 795.924848350836 383.449330748133
    vertex -20.4545109170472 852.424848350821 383.449330748133
    vertex -20.0015775881178 852.484478154816 383.449330748133
  endloop
endfacet
facet normal -1.67367943503869e-012 -9.24046617078981e-015 -1.0
  outer loop
    vertex -20.454510917023 795.924848350836 383.449330748133
    vertex -20.0015775881178 852.484478154816 383.449330748133
    vertex -20.0015775880937 795.865218546842 383.449330748133
  endloop
endfacet
facet normal -1.67367943503869e-012 -9.24046617078981e-015 -1.0
  outer loop
    vertex -20.0015775880937 795.865218546842 383.449330748133
    vertex -20.0015775881178 852.484478154816 383.449330748133
    vertex -19.5795109170472 852.659303894199 383.449330748133
  endloop
endfacet
facet normal -1.67367943503869e-012 -9.24046617078981e-015 -1.0
  outer loop
    vertex -20.0015775880937 795.865218546842 383.449330748133
    vertex -19.5795109170472 852.659303894199 383.449330748133
    vertex -19.579510917023 795.690392807459 383.449330748133
  endloop
endfacet
facet normal -1.67367943503869e-012 -9.24046617078981e-015 -1.0
  outer loop
    vertex -19.579510917023 795.690392807459 383.449330748133
    vertex -19.5795109170472 852.659303894199 383.449330748133
    vertex -19.2170740499707 852.937411483745 383.449330748133
  endloop
endfacet
facet normal -1.67367943503869e-012 -9.24046617078981e-015 -1.0
  outer loop
    vertex -19.579510917023 795.690392807459 383.449330748133
    vertex -19.2170740499707 852.937411483745 383.449330748133
    vertex -19.2170740499466 795.412285217913 383.449330748133
  endloop
endfacet
facet normal -1.67367943503869e-012 -9.24046617078981e-015 -1.0
  outer loop
    vertex -19.2170740499466 795.412285217913 383.449330748133
    vertex -19.2170740499707 852.937411483745 383.449330748133
    vertex -18.9389664604245 853.299848350821 383.449330748133
  endloop
endfacet
facet normal -1.67367943503869e-012 -9.24046617078981e-015 -1.0
  outer loop
    vertex -19.2170740499466 795.412285217913 383.449330748133
    vertex -18.9389664604245 853.299848350821 383.449330748133
    vertex -18.9389664604003 795.049848350836 383.449330748133
  endloop
endfacet
facet normal -1.67367943503869e-012 -9.24046617078981e-015 -1.0
  outer loop
    vertex -18.9389664604003 795.049848350836 383.449330748133
    vertex -18.9389664604245 853.299848350821 383.449330748133
    vertex -18.7641407210414 853.721915021892 383.449330748133
  endloop
endfacet
facet normal -1.67367943503869e-012 -9.24046617078981e-015 -1.0
  outer loop
    vertex -18.9389664604003 795.049848350836 383.449330748133
    vertex -18.7641407210414 853.721915021892 383.449330748133
    vertex -18.7641407210171 794.627781679766 383.449330748133
  endloop
endfacet
facet normal -1.67367943503869e-012 -9.24046617078981e-015 -1.0
  outer loop
    vertex -18.7641407210171 794.627781679766 383.449330748133
    vertex -18.7641407210414 853.721915021892 383.449330748133
    vertex -18.7045109170473 854.174848350822 383.449330748133
  endloop
endfacet
facet normal -1.67367943503869e-012 -9.24046617078981e-015 -1.0
  outer loop
    vertex -18.7641407210171 794.627781679766 383.449330748133
    vertex -18.7045109170473 854.174848350822 383.449330748133
    vertex -18.7045109170229 794.174848350836 383.449330748133
  endloop
endfacet
facet normal -3.23416315949613e-013 1.0 -6.93034962748758e-014
  outer loop
    vertex -25.4545109170787 856.674848350819 383.449330748144
    vertex -15.454510917042 856.674848350822 387.449330748106
    vertex -15.4545109170494 856.674848350822 383.449330748128
  endloop
endfacet
facet normal -3.23416315949613e-013 1.0 -6.93034962748758e-014
  outer loop
    vertex -15.454510917042 856.674848350822 387.449330748106
    vertex -25.4545109170787 856.674848350819 383.449330748144
    vertex -25.4545109170713 856.674848350819 387.449330748122
  endloop
endfacet
facet normal -1.0 -4.21507418370657e-013 1.16660885397039e-012
  outer loop
    vertex -25.4545109170467 791.674848350835 387.449330748124
    vertex -25.4545109170787 856.674848350819 383.449330748144
    vertex -25.4545109170486 791.674848350835 383.449330748146
  endloop
endfacet
facet normal -1.0 -4.21507418370657e-013 1.16660885397039e-012
  outer loop
    vertex -25.4545109170787 856.674848350819 383.449330748144
    vertex -25.4545109170467 791.674848350835 387.449330748124
    vertex -25.4545109170713 856.674848350819 387.449330748122
  endloop
endfacet
facet normal 1.0 4.20796613280681e-013 -1.16660885397038e-012
  outer loop
    vertex -15.4545109170494 856.674848350822 383.449330748128
    vertex -15.4545109170174 791.674848350836 387.449330748106
    vertex -15.4545109170193 791.674848350836 383.449330748128
  endloop
endfacet
facet normal 1.0 4.20796613280681e-013 -1.16660885397038e-012
  outer loop
    vertex -15.4545109170174 791.674848350836 387.449330748106
    vertex -15.4545109170494 856.674848350822 383.449330748128
    vertex -15.454510917042 856.674848350822 387.449330748106
  endloop
endfacet
endsolid MIDIViolina
