solid Default
  facet normal -8.453414e-14 1.020016e-14 -1.000000e+00
    outer loop
      vertex 3.650000e+01 2.100000e+01 0.000000e+00
      vertex 2.250000e+01 1.600000e+01 2.664535e-15
      vertex -3.150000e+01 1.600000e+01 1.243450e-14
    endloop
  endfacet
  facet normal -8.453414e-14 1.020016e-14 -1.000000e+00
    outer loop
      vertex 2.250000e+01 1.600000e+01 2.664535e-15
      vertex 3.650000e+01 2.100000e+01 0.000000e+00
      vertex 3.650000e+01 -1.400000e+01 0.000000e+00
    endloop
  endfacet
  facet normal -8.453414e-14 1.020016e-14 -1.000000e+00
    outer loop
      vertex 2.250000e+01 1.600000e+01 2.664535e-15
      vertex 3.650000e+01 -1.400000e+01 0.000000e+00
      vertex 3.286758e+01 -1.063245e+01 8.881784e-16
    endloop
  endfacet
  facet normal -8.453414e-14 1.020016e-14 -1.000000e+00
    outer loop
      vertex 2.250000e+01 1.600000e+01 2.664535e-15
      vertex 3.286758e+01 -1.063245e+01 8.881784e-16
      vertex 3.188123e+01 -9.875549e+00 8.881784e-16
    endloop
  endfacet
  facet normal -8.453414e-14 1.020016e-14 -1.000000e+00
    outer loop
      vertex 2.250000e+01 1.600000e+01 2.664535e-15
      vertex 3.188123e+01 -9.875549e+00 8.881784e-16
      vertex 3.073260e+01 -9.399780e+00 8.881784e-16
    endloop
  endfacet
  facet normal -8.453414e-14 1.020016e-14 -1.000000e+00
    outer loop
      vertex 2.250000e+01 1.600000e+01 2.664535e-15
      vertex 3.073260e+01 -9.399780e+00 8.881784e-16
      vertex 2.950000e+01 -9.237488e+00 8.881784e-16
    endloop
  endfacet
  facet normal -8.453414e-14 1.020016e-14 -1.000000e+00
    outer loop
      vertex 3.286758e+01 -1.063245e+01 8.881784e-16
      vertex 3.650000e+01 -1.400000e+01 0.000000e+00
      vertex 3.362445e+01 -1.161877e+01 8.881784e-16
    endloop
  endfacet
  facet normal -8.453414e-14 1.020016e-14 -1.000000e+00
    outer loop
      vertex 3.362445e+01 -1.161877e+01 8.881784e-16
      vertex 3.650000e+01 -1.400000e+01 0.000000e+00
      vertex 3.410022e+01 -1.276740e+01 0.000000e+00
    endloop
  endfacet
  facet normal -8.453414e-14 1.020016e-14 -1.000000e+00
    outer loop
      vertex 3.410022e+01 -1.276740e+01 0.000000e+00
      vertex 3.650000e+01 -1.400000e+01 0.000000e+00
      vertex 3.426248e+01 -1.400000e+01 0.000000e+00
    endloop
  endfacet
  facet normal -8.453414e-14 1.020016e-14 -1.000000e+00
    outer loop
      vertex 3.426248e+01 -1.400000e+01 0.000000e+00
      vertex 3.650000e+01 -1.400000e+01 0.000000e+00
      vertex 3.626147e+01 -1.581177e+01 0.000000e+00
    endloop
  endfacet
  facet normal -8.453414e-14 1.020016e-14 -1.000000e+00
    outer loop
      vertex 3.426248e+01 -1.400000e+01 0.000000e+00
      vertex 3.626147e+01 -1.581177e+01 0.000000e+00
      vertex 3.410022e+01 -1.523267e+01 0.000000e+00
    endloop
  endfacet
  facet normal -8.453414e-14 1.020016e-14 -1.000000e+00
    outer loop
      vertex 3.410022e+01 -1.523267e+01 0.000000e+00
      vertex 3.626147e+01 -1.581177e+01 0.000000e+00
      vertex 3.362445e+01 -1.638129e+01 8.881784e-16
    endloop
  endfacet
  facet normal -8.453414e-14 1.020016e-14 -1.000000e+00
    outer loop
      vertex 3.362445e+01 -1.638129e+01 8.881784e-16
      vertex 3.626147e+01 -1.581177e+01 0.000000e+00
      vertex 3.556216e+01 -1.750000e+01 0.000000e+00
    endloop
  endfacet
  facet normal -8.453414e-14 1.020016e-14 -1.000000e+00
    outer loop
      vertex 3.362445e+01 -1.638129e+01 8.881784e-16
      vertex 3.556216e+01 -1.750000e+01 0.000000e+00
      vertex 3.286758e+01 -1.736761e+01 8.881784e-16
    endloop
  endfacet
  facet normal -8.453414e-14 1.020016e-14 -1.000000e+00
    outer loop
      vertex 3.286758e+01 -1.736761e+01 8.881784e-16
      vertex 3.556216e+01 -1.750000e+01 0.000000e+00
      vertex 3.188123e+01 -1.812445e+01 8.881784e-16
    endloop
  endfacet
  facet normal -8.453414e-14 1.020016e-14 -1.000000e+00
    outer loop
      vertex 3.188123e+01 -1.812445e+01 8.881784e-16
      vertex 3.556216e+01 -1.750000e+01 0.000000e+00
      vertex 3.444974e+01 -1.894977e+01 0.000000e+00
    endloop
  endfacet
  facet normal -8.453414e-14 1.020016e-14 -1.000000e+00
    outer loop
      vertex 3.188123e+01 -1.812445e+01 8.881784e-16
      vertex 3.444974e+01 -1.894977e+01 0.000000e+00
      vertex 3.073260e+01 -1.860022e+01 8.881784e-16
    endloop
  endfacet
  facet normal -8.453414e-14 1.020016e-14 -1.000000e+00
    outer loop
      vertex 3.073260e+01 -1.860022e+01 8.881784e-16
      vertex 3.444974e+01 -1.894977e+01 0.000000e+00
      vertex 2.950000e+01 -1.876251e+01 8.881784e-16
    endloop
  endfacet
  facet normal -8.453414e-14 1.020016e-14 -1.000000e+00
    outer loop
      vertex 2.250000e+01 1.600000e+01 2.664535e-15
      vertex 2.613239e+01 -1.063245e+01 1.776357e-15
      vertex 2.250000e+01 -1.400000e+01 2.664535e-15
    endloop
  endfacet
  facet normal -8.453414e-14 1.020016e-14 -1.000000e+00
    outer loop
      vertex 2.613239e+01 -1.063245e+01 1.776357e-15
      vertex 2.250000e+01 1.600000e+01 2.664535e-15
      vertex 2.711874e+01 -9.875549e+00 1.776357e-15
    endloop
  endfacet
  facet normal -8.453414e-14 1.020016e-14 -1.000000e+00
    outer loop
      vertex 2.711874e+01 -9.875549e+00 1.776357e-15
      vertex 2.250000e+01 1.600000e+01 2.664535e-15
      vertex 2.826736e+01 -9.399780e+00 1.776357e-15
    endloop
  endfacet
  facet normal -8.453414e-14 1.020016e-14 -1.000000e+00
    outer loop
      vertex 2.826736e+01 -9.399780e+00 1.776357e-15
      vertex 2.250000e+01 1.600000e+01 2.664535e-15
      vertex 2.950000e+01 -9.237488e+00 8.881784e-16
    endloop
  endfacet
  facet normal -8.453414e-14 1.020016e-14 -1.000000e+00
    outer loop
      vertex 2.250000e+01 -1.400000e+01 2.664535e-15
      vertex 2.613239e+01 -1.063245e+01 1.776357e-15
      vertex 2.537555e+01 -1.161877e+01 1.776357e-15
    endloop
  endfacet
  facet normal -8.453414e-14 1.020016e-14 -1.000000e+00
    outer loop
      vertex 2.250000e+01 -1.400000e+01 2.664535e-15
      vertex 2.537555e+01 -1.161877e+01 1.776357e-15
      vertex 2.489978e+01 -1.276740e+01 1.776357e-15
    endloop
  endfacet
  facet normal -8.453414e-14 1.020016e-14 -1.000000e+00
    outer loop
      vertex 2.250000e+01 -1.400000e+01 2.664535e-15
      vertex 2.489978e+01 -1.276740e+01 1.776357e-15
      vertex 2.473749e+01 -1.400000e+01 1.776357e-15
    endloop
  endfacet
  facet normal -8.453414e-14 1.020016e-14 -1.000000e+00
    outer loop
      vertex 2.250000e+01 -1.400000e+01 2.664535e-15
      vertex 2.473749e+01 -1.400000e+01 1.776357e-15
      vertex 2.273849e+01 -1.581177e+01 2.664535e-15
    endloop
  endfacet
  facet normal -8.453414e-14 1.020016e-14 -1.000000e+00
    outer loop
      vertex 2.273849e+01 -1.581177e+01 2.664535e-15
      vertex 2.473749e+01 -1.400000e+01 1.776357e-15
      vertex 2.489978e+01 -1.523267e+01 1.776357e-15
    endloop
  endfacet
  facet normal -8.453414e-14 1.020016e-14 -1.000000e+00
    outer loop
      vertex 2.273849e+01 -1.581177e+01 2.664535e-15
      vertex 2.489978e+01 -1.523267e+01 1.776357e-15
      vertex 2.537555e+01 -1.638129e+01 1.776357e-15
    endloop
  endfacet
  facet normal -8.453414e-14 1.020016e-14 -1.000000e+00
    outer loop
      vertex 2.273849e+01 -1.581177e+01 2.664535e-15
      vertex 2.537555e+01 -1.638129e+01 1.776357e-15
      vertex 2.343781e+01 -1.750000e+01 2.664535e-15
    endloop
  endfacet
  facet normal -8.453414e-14 1.020016e-14 -1.000000e+00
    outer loop
      vertex 2.343781e+01 -1.750000e+01 2.664535e-15
      vertex 2.537555e+01 -1.638129e+01 1.776357e-15
      vertex 2.613239e+01 -1.736761e+01 1.776357e-15
    endloop
  endfacet
  facet normal -8.453414e-14 1.020016e-14 -1.000000e+00
    outer loop
      vertex 2.343781e+01 -1.750000e+01 2.664535e-15
      vertex 2.613239e+01 -1.736761e+01 1.776357e-15
      vertex 2.711874e+01 -1.812445e+01 1.776357e-15
    endloop
  endfacet
  facet normal -8.453414e-14 1.020016e-14 -1.000000e+00
    outer loop
      vertex 2.343781e+01 -1.750000e+01 2.664535e-15
      vertex 2.711874e+01 -1.812445e+01 1.776357e-15
      vertex 2.455023e+01 -1.894977e+01 1.776357e-15
    endloop
  endfacet
  facet normal -8.453414e-14 1.020016e-14 -1.000000e+00
    outer loop
      vertex 2.455023e+01 -1.894977e+01 1.776357e-15
      vertex 2.711874e+01 -1.812445e+01 1.776357e-15
      vertex 2.826736e+01 -1.860022e+01 1.776357e-15
    endloop
  endfacet
  facet normal -8.453414e-14 1.020016e-14 -1.000000e+00
    outer loop
      vertex 2.455023e+01 -1.894977e+01 1.776357e-15
      vertex 2.826736e+01 -1.860022e+01 1.776357e-15
      vertex 2.950000e+01 -1.876251e+01 8.881784e-16
    endloop
  endfacet
  facet normal -8.453414e-14 1.020016e-14 -1.000000e+00
    outer loop
      vertex 2.455023e+01 -1.894977e+01 1.776357e-15
      vertex 2.950000e+01 -1.876251e+01 8.881784e-16
      vertex 3.444974e+01 -1.894977e+01 0.000000e+00
    endloop
  endfacet
  facet normal -8.453414e-14 1.020016e-14 -1.000000e+00
    outer loop
      vertex 2.455023e+01 -1.894977e+01 1.776357e-15
      vertex 3.444974e+01 -1.894977e+01 0.000000e+00
      vertex 3.300000e+01 -2.006219e+01 8.881784e-16
    endloop
  endfacet
  facet normal -8.453414e-14 1.020016e-14 -1.000000e+00
    outer loop
      vertex 2.455023e+01 -1.894977e+01 1.776357e-15
      vertex 3.300000e+01 -2.006219e+01 8.881784e-16
      vertex 2.600000e+01 -2.006219e+01 1.776357e-15
    endloop
  endfacet
  facet normal -8.453414e-14 1.020016e-14 -1.000000e+00
    outer loop
      vertex 2.600000e+01 -2.006219e+01 1.776357e-15
      vertex 3.300000e+01 -2.006219e+01 8.881784e-16
      vertex 2.768826e+01 -2.076147e+01 1.776357e-15
    endloop
  endfacet
  facet normal -8.453414e-14 1.020016e-14 -1.000000e+00
    outer loop
      vertex 2.768826e+01 -2.076147e+01 1.776357e-15
      vertex 3.300000e+01 -2.006219e+01 8.881784e-16
      vertex 3.131174e+01 -2.076147e+01 8.881784e-16
    endloop
  endfacet
  facet normal -8.453414e-14 1.020016e-14 -1.000000e+00
    outer loop
      vertex 2.768826e+01 -2.076147e+01 1.776357e-15
      vertex 3.131174e+01 -2.076147e+01 8.881784e-16
      vertex 2.950000e+01 -2.100000e+01 8.881784e-16
    endloop
  endfacet
  facet normal -8.453414e-14 1.020016e-14 -1.000000e+00
    outer loop
      vertex -3.650000e+01 2.100000e+01 1.332268e-14
      vertex -3.150000e+01 1.600000e+01 1.243450e-14
      vertex -3.650000e+01 -7.000000e+00 1.332268e-14
    endloop
  endfacet
  facet normal -8.453414e-14 1.020016e-14 -1.000000e+00
    outer loop
      vertex -3.150000e+01 1.600000e+01 1.243450e-14
      vertex -3.650000e+01 2.100000e+01 1.332268e-14
      vertex 3.650000e+01 2.100000e+01 0.000000e+00
    endloop
  endfacet
  facet normal -8.453414e-14 1.020016e-14 -1.000000e+00
    outer loop
      vertex -3.650000e+01 -7.000000e+00 1.332268e-14
      vertex -3.150000e+01 1.600000e+01 1.243450e-14
      vertex -3.150000e+01 -7.000000e+00 1.243450e-14
    endloop
  endfacet
  facet normal -1.000000e+00 2.481687e-13 3.533383e-14
    outer loop
      vertex -3.650000e+01 -7.000000e+00 1.332268e-14
      vertex -3.650000e+01 -2.452942e+00 3.309630e+00
      vertex -3.650000e+01 -2.000000e+00 3.250000e+00
    endloop
  endfacet
  facet normal -1.000000e+00 2.481687e-13 3.533383e-14
    outer loop
      vertex -3.650000e+01 -2.452942e+00 3.309630e+00
      vertex -3.650000e+01 -7.000000e+00 1.332268e-14
      vertex -3.650000e+01 -2.875000e+00 3.484456e+00
    endloop
  endfacet
  facet normal -1.000000e+00 2.481687e-13 3.533383e-14
    outer loop
      vertex -3.650000e+01 -2.875000e+00 3.484456e+00
      vertex -3.650000e+01 -7.000000e+00 1.332268e-14
      vertex -3.650000e+01 -3.237427e+00 3.762564e+00
    endloop
  endfacet
  facet normal -1.000000e+00 2.481687e-13 3.533383e-14
    outer loop
      vertex -3.650000e+01 -3.237427e+00 3.762564e+00
      vertex -3.650000e+01 -7.000000e+00 1.332268e-14
      vertex -3.650000e+01 -3.515564e+00 4.125000e+00
    endloop
  endfacet
  facet normal -1.000000e+00 2.481687e-13 3.533383e-14
    outer loop
      vertex -3.650000e+01 -3.515564e+00 4.125000e+00
      vertex -3.650000e+01 -7.000000e+00 1.332268e-14
      vertex -3.650000e+01 -7.000000e+00 1.000000e+01
    endloop
  endfacet
  facet normal -1.000000e+00 2.481687e-13 3.533383e-14
    outer loop
      vertex -3.650000e+01 -3.515564e+00 4.125000e+00
      vertex -3.650000e+01 -7.000000e+00 1.000000e+01
      vertex -3.650000e+01 -3.690369e+00 4.547067e+00
    endloop
  endfacet
  facet normal -1.000000e+00 2.481687e-13 3.533383e-14
    outer loop
      vertex -3.650000e+01 -3.690369e+00 4.547067e+00
      vertex -3.650000e+01 -7.000000e+00 1.000000e+01
      vertex -3.650000e+01 -3.750000e+00 5.000000e+00
    endloop
  endfacet
  facet normal -1.000000e+00 2.481687e-13 3.533383e-14
    outer loop
      vertex -3.650000e+01 -3.750000e+00 5.000000e+00
      vertex -3.650000e+01 -7.000000e+00 1.000000e+01
      vertex -3.650000e+01 -3.690369e+00 5.452933e+00
    endloop
  endfacet
  facet normal -1.000000e+00 2.481687e-13 3.533383e-14
    outer loop
      vertex -3.650000e+01 -3.690369e+00 5.452933e+00
      vertex -3.650000e+01 -7.000000e+00 1.000000e+01
      vertex -3.650000e+01 -3.515564e+00 5.875000e+00
    endloop
  endfacet
  facet normal -1.000000e+00 2.481687e-13 3.533383e-14
    outer loop
      vertex -3.650000e+01 -3.515564e+00 5.875000e+00
      vertex -3.650000e+01 -7.000000e+00 1.000000e+01
      vertex -3.650000e+01 -3.237427e+00 6.237437e+00
    endloop
  endfacet
  facet normal -1.000000e+00 2.481687e-13 3.533383e-14
    outer loop
      vertex -3.650000e+01 -3.237427e+00 6.237437e+00
      vertex -3.650000e+01 -7.000000e+00 1.000000e+01
      vertex -3.650000e+01 -2.875000e+00 6.515545e+00
    endloop
  endfacet
  facet normal -1.000000e+00 2.481687e-13 3.533383e-14
    outer loop
      vertex -3.650000e+01 -2.875000e+00 6.515545e+00
      vertex -3.650000e+01 -7.000000e+00 1.000000e+01
      vertex -3.650000e+01 -2.452942e+00 6.690371e+00
    endloop
  endfacet
  facet normal -1.000000e+00 2.481687e-13 3.533383e-14
    outer loop
      vertex -3.650000e+01 -2.452942e+00 6.690371e+00
      vertex -3.650000e+01 -7.000000e+00 1.000000e+01
      vertex -3.650000e+01 -2.000000e+00 6.750000e+00
    endloop
  endfacet
  facet normal -1.000000e+00 2.481687e-13 3.533383e-14
    outer loop
      vertex -3.650000e+01 -2.000000e+00 6.750000e+00
      vertex -3.650000e+01 -7.000000e+00 1.000000e+01
      vertex -3.650000e+01 2.100000e+01 1.000000e+01
    endloop
  endfacet
  facet normal -1.000000e+00 2.481687e-13 3.533383e-14
    outer loop
      vertex -3.650000e+01 -7.000000e+00 1.332268e-14
      vertex -3.650000e+01 2.100000e+01 1.000000e+01
      vertex -3.650000e+01 2.100000e+01 1.332268e-14
    endloop
  endfacet
  facet normal -1.000000e+00 2.481687e-13 3.533383e-14
    outer loop
      vertex -3.650000e+01 2.100000e+01 1.000000e+01
      vertex -3.650000e+01 -7.000000e+00 1.332268e-14
      vertex -3.650000e+01 -1.547058e+00 3.309630e+00
    endloop
  endfacet
  facet normal -1.000000e+00 2.481687e-13 3.533383e-14
    outer loop
      vertex -3.650000e+01 -1.547058e+00 3.309630e+00
      vertex -3.650000e+01 -7.000000e+00 1.332268e-14
      vertex -3.650000e+01 -2.000000e+00 3.250000e+00
    endloop
  endfacet
  facet normal -1.000000e+00 2.481687e-13 3.533383e-14
    outer loop
      vertex -3.650000e+01 2.100000e+01 1.000000e+01
      vertex -3.650000e+01 -1.547058e+00 3.309630e+00
      vertex -3.650000e+01 -1.125000e+00 3.484456e+00
    endloop
  endfacet
  facet normal -1.000000e+00 2.481687e-13 3.533383e-14
    outer loop
      vertex -3.650000e+01 2.100000e+01 1.000000e+01
      vertex -3.650000e+01 -1.125000e+00 3.484456e+00
      vertex -3.650000e+01 -7.625732e-01 3.762564e+00
    endloop
  endfacet
  facet normal -1.000000e+00 2.481687e-13 3.533383e-14
    outer loop
      vertex -3.650000e+01 2.100000e+01 1.000000e+01
      vertex -3.650000e+01 -7.625732e-01 3.762564e+00
      vertex -3.650000e+01 -4.844971e-01 4.125000e+00
    endloop
  endfacet
  facet normal -1.000000e+00 2.481687e-13 3.533383e-14
    outer loop
      vertex -3.650000e+01 2.100000e+01 1.000000e+01
      vertex -3.650000e+01 -4.844971e-01 4.125000e+00
      vertex -3.650000e+01 -3.096313e-01 4.547067e+00
    endloop
  endfacet
  facet normal -1.000000e+00 2.481687e-13 3.533383e-14
    outer loop
      vertex -3.650000e+01 2.100000e+01 1.000000e+01
      vertex -3.650000e+01 -3.096313e-01 4.547067e+00
      vertex -3.650000e+01 -2.500000e-01 5.000000e+00
    endloop
  endfacet
  facet normal -1.000000e+00 2.481687e-13 3.533383e-14
    outer loop
      vertex -3.650000e+01 2.100000e+01 1.000000e+01
      vertex -3.650000e+01 -2.500000e-01 5.000000e+00
      vertex -3.650000e+01 -3.096313e-01 5.452933e+00
    endloop
  endfacet
  facet normal -1.000000e+00 2.481687e-13 3.533383e-14
    outer loop
      vertex -3.650000e+01 2.100000e+01 1.000000e+01
      vertex -3.650000e+01 -3.096313e-01 5.452933e+00
      vertex -3.650000e+01 -4.844971e-01 5.875000e+00
    endloop
  endfacet
  facet normal -1.000000e+00 2.481687e-13 3.533383e-14
    outer loop
      vertex -3.650000e+01 2.100000e+01 1.000000e+01
      vertex -3.650000e+01 -4.844971e-01 5.875000e+00
      vertex -3.650000e+01 -7.625732e-01 6.237437e+00
    endloop
  endfacet
  facet normal -1.000000e+00 2.481687e-13 3.533383e-14
    outer loop
      vertex -3.650000e+01 2.100000e+01 1.000000e+01
      vertex -3.650000e+01 -7.625732e-01 6.237437e+00
      vertex -3.650000e+01 -1.125000e+00 6.515545e+00
    endloop
  endfacet
  facet normal -1.000000e+00 2.481687e-13 3.533383e-14
    outer loop
      vertex -3.650000e+01 2.100000e+01 1.000000e+01
      vertex -3.650000e+01 -1.125000e+00 6.515545e+00
      vertex -3.650000e+01 -1.547058e+00 6.690371e+00
    endloop
  endfacet
  facet normal -1.000000e+00 2.481687e-13 3.533383e-14
    outer loop
      vertex -3.650000e+01 2.100000e+01 1.000000e+01
      vertex -3.650000e+01 -1.547058e+00 6.690371e+00
      vertex -3.650000e+01 -2.000000e+00 6.750000e+00
    endloop
  endfacet
  facet normal 6.087614e-01 7.933533e-01 2.200630e-14
    outer loop
      vertex 2.613239e+01 -1.736761e+01 5.000000e+00
      vertex 2.711874e+01 -1.812445e+01 1.776357e-15
      vertex 2.613239e+01 -1.736761e+01 1.776357e-15
    endloop
  endfacet
  facet normal 6.087614e-01 7.933533e-01 2.200630e-14
    outer loop
      vertex 2.711874e+01 -1.812445e+01 1.776357e-15
      vertex 2.613239e+01 -1.736761e+01 5.000000e+00
      vertex 2.711874e+01 -1.812445e+01 5.000000e+00
    endloop
  endfacet
  facet normal 7.933533e-01 6.087614e-01 9.292827e-15
    outer loop
      vertex 2.537555e+01 -1.638129e+01 1.776357e-15
      vertex 2.613239e+01 -1.736761e+01 5.000000e+00
      vertex 2.613239e+01 -1.736761e+01 1.776357e-15
    endloop
  endfacet
  facet normal 7.933533e-01 6.087614e-01 9.292827e-15
    outer loop
      vertex 2.613239e+01 -1.736761e+01 5.000000e+00
      vertex 2.537555e+01 -1.638129e+01 1.776357e-15
      vertex 2.537555e+01 -1.638129e+01 5.000000e+00
    endloop
  endfacet
  facet normal 1.305262e-01 9.914449e-01 4.216997e-14
    outer loop
      vertex 2.826736e+01 -1.860022e+01 5.000000e+00
      vertex 2.950000e+01 -1.876251e+01 8.881784e-16
      vertex 2.826736e+01 -1.860022e+01 1.776357e-15
    endloop
  endfacet
  facet normal 1.305262e-01 9.914449e-01 4.216997e-14
    outer loop
      vertex 2.950000e+01 -1.876251e+01 8.881784e-16
      vertex 2.826736e+01 -1.860022e+01 5.000000e+00
      vertex 2.950000e+01 -1.876251e+01 5.000000e+00
    endloop
  endfacet
  facet normal 9.238795e-01 -3.826834e-01 -3.895322e-14
    outer loop
      vertex 3.626147e+01 -1.581177e+01 0.000000e+00
      vertex 3.556216e+01 -1.750000e+01 5.000000e+00
      vertex 3.556216e+01 -1.750000e+01 0.000000e+00
    endloop
  endfacet
  facet normal 9.238795e-01 -3.826834e-01 -3.895322e-14
    outer loop
      vertex 3.556216e+01 -1.750000e+01 5.000000e+00
      vertex 3.626147e+01 -1.581177e+01 0.000000e+00
      vertex 3.626147e+01 -1.581177e+01 5.000000e+00
    endloop
  endfacet
  facet normal 9.914449e-01 1.305262e-01 -1.712444e-14
    outer loop
      vertex 2.473749e+01 -1.400000e+01 1.776357e-15
      vertex 2.489978e+01 -1.523267e+01 5.000000e+00
      vertex 2.489978e+01 -1.523267e+01 1.776357e-15
    endloop
  endfacet
  facet normal 9.914449e-01 1.305262e-01 -1.712444e-14
    outer loop
      vertex 2.489978e+01 -1.523267e+01 5.000000e+00
      vertex 2.473749e+01 -1.400000e+01 1.776357e-15
      vertex 2.473749e+01 -1.400000e+01 5.000000e+00
    endloop
  endfacet
  facet normal 3.826834e-01 9.238795e-01 3.322009e-14
    outer loop
      vertex 2.711874e+01 -1.812445e+01 5.000000e+00
      vertex 2.826736e+01 -1.860022e+01 1.776357e-15
      vertex 2.711874e+01 -1.812445e+01 1.776357e-15
    endloop
  endfacet
  facet normal 3.826834e-01 9.238795e-01 3.322009e-14
    outer loop
      vertex 2.826736e+01 -1.860022e+01 1.776357e-15
      vertex 2.711874e+01 -1.812445e+01 5.000000e+00
      vertex 2.826736e+01 -1.860022e+01 5.000000e+00
    endloop
  endfacet
  facet normal -1.305262e-01 9.914449e-01 4.824605e-14
    outer loop
      vertex 2.950000e+01 -1.876251e+01 5.000000e+00
      vertex 3.073260e+01 -1.860022e+01 8.881784e-16
      vertex 2.950000e+01 -1.876251e+01 8.881784e-16
    endloop
  endfacet
  facet normal -1.305262e-01 9.914449e-01 4.824605e-14
    outer loop
      vertex 3.073260e+01 -1.860022e+01 8.881784e-16
      vertex 2.950000e+01 -1.876251e+01 5.000000e+00
      vertex 3.073260e+01 -1.860022e+01 5.000000e+00
    endloop
  endfacet
  facet normal -3.826834e-01 9.238795e-01 5.103423e-14
    outer loop
      vertex 3.073260e+01 -1.860022e+01 5.000000e+00
      vertex 3.188123e+01 -1.812445e+01 8.881784e-16
      vertex 3.073260e+01 -1.860022e+01 8.881784e-16
    endloop
  endfacet
  facet normal -3.826834e-01 9.238795e-01 5.103423e-14
    outer loop
      vertex 3.188123e+01 -1.812445e+01 8.881784e-16
      vertex 3.073260e+01 -1.860022e+01 5.000000e+00
      vertex 3.188123e+01 -1.812445e+01 5.000000e+00
    endloop
  endfacet
  facet normal -6.087614e-01 7.933533e-01 5.034452e-14
    outer loop
      vertex 3.188123e+01 -1.812445e+01 5.000000e+00
      vertex 3.286758e+01 -1.736761e+01 8.881784e-16
      vertex 3.188123e+01 -1.812445e+01 8.881784e-16
    endloop
  endfacet
  facet normal -6.087614e-01 7.933533e-01 5.034452e-14
    outer loop
      vertex 3.286758e+01 -1.736761e+01 8.881784e-16
      vertex 3.188123e+01 -1.812445e+01 5.000000e+00
      vertex 3.286758e+01 -1.736761e+01 5.000000e+00
    endloop
  endfacet
  facet normal 2.327531e-14 -4.558219e-14 1.000000e+00
    outer loop
      vertex 2.250000e+01 -1.400000e+01 5.000000e+00
      vertex 3.650000e+01 1.600000e+01 5.000000e+00
      vertex 2.250000e+01 1.600000e+01 5.000000e+00
    endloop
  endfacet
  facet normal 2.327531e-14 -4.558219e-14 1.000000e+00
    outer loop
      vertex 3.650000e+01 1.600000e+01 5.000000e+00
      vertex 2.250000e+01 -1.400000e+01 5.000000e+00
      vertex 2.613239e+01 -1.063245e+01 5.000000e+00
    endloop
  endfacet
  facet normal 2.327531e-14 -4.558219e-14 1.000000e+00
    outer loop
      vertex 3.650000e+01 1.600000e+01 5.000000e+00
      vertex 2.613239e+01 -1.063245e+01 5.000000e+00
      vertex 2.711874e+01 -9.875549e+00 5.000000e+00
    endloop
  endfacet
  facet normal 2.327531e-14 -4.558219e-14 1.000000e+00
    outer loop
      vertex 3.650000e+01 1.600000e+01 5.000000e+00
      vertex 2.711874e+01 -9.875549e+00 5.000000e+00
      vertex 2.826736e+01 -9.399780e+00 5.000000e+00
    endloop
  endfacet
  facet normal 2.327531e-14 -4.558219e-14 1.000000e+00
    outer loop
      vertex 3.650000e+01 1.600000e+01 5.000000e+00
      vertex 2.826736e+01 -9.399780e+00 5.000000e+00
      vertex 2.950000e+01 -9.237488e+00 5.000000e+00
    endloop
  endfacet
  facet normal 2.327531e-14 -4.558219e-14 1.000000e+00
    outer loop
      vertex 2.613239e+01 -1.063245e+01 5.000000e+00
      vertex 2.250000e+01 -1.400000e+01 5.000000e+00
      vertex 2.537555e+01 -1.161877e+01 5.000000e+00
    endloop
  endfacet
  facet normal 2.327531e-14 -4.558219e-14 1.000000e+00
    outer loop
      vertex 2.537555e+01 -1.161877e+01 5.000000e+00
      vertex 2.250000e+01 -1.400000e+01 5.000000e+00
      vertex 2.489978e+01 -1.276740e+01 5.000000e+00
    endloop
  endfacet
  facet normal 2.327531e-14 -4.558219e-14 1.000000e+00
    outer loop
      vertex 2.489978e+01 -1.276740e+01 5.000000e+00
      vertex 2.250000e+01 -1.400000e+01 5.000000e+00
      vertex 2.473749e+01 -1.400000e+01 5.000000e+00
    endloop
  endfacet
  facet normal 2.327531e-14 -4.558219e-14 1.000000e+00
    outer loop
      vertex 2.473749e+01 -1.400000e+01 5.000000e+00
      vertex 2.250000e+01 -1.400000e+01 5.000000e+00
      vertex 2.273849e+01 -1.581177e+01 5.000000e+00
    endloop
  endfacet
  facet normal 2.327531e-14 -4.558219e-14 1.000000e+00
    outer loop
      vertex 2.473749e+01 -1.400000e+01 5.000000e+00
      vertex 2.273849e+01 -1.581177e+01 5.000000e+00
      vertex 2.489978e+01 -1.523267e+01 5.000000e+00
    endloop
  endfacet
  facet normal 2.327531e-14 -4.558219e-14 1.000000e+00
    outer loop
      vertex 2.489978e+01 -1.523267e+01 5.000000e+00
      vertex 2.273849e+01 -1.581177e+01 5.000000e+00
      vertex 2.537555e+01 -1.638129e+01 5.000000e+00
    endloop
  endfacet
  facet normal 2.327531e-14 -4.558219e-14 1.000000e+00
    outer loop
      vertex 2.537555e+01 -1.638129e+01 5.000000e+00
      vertex 2.273849e+01 -1.581177e+01 5.000000e+00
      vertex 2.343781e+01 -1.750000e+01 5.000000e+00
    endloop
  endfacet
  facet normal 2.327531e-14 -4.558219e-14 1.000000e+00
    outer loop
      vertex 2.537555e+01 -1.638129e+01 5.000000e+00
      vertex 2.343781e+01 -1.750000e+01 5.000000e+00
      vertex 2.613239e+01 -1.736761e+01 5.000000e+00
    endloop
  endfacet
  facet normal 2.327531e-14 -4.558219e-14 1.000000e+00
    outer loop
      vertex 2.613239e+01 -1.736761e+01 5.000000e+00
      vertex 2.343781e+01 -1.750000e+01 5.000000e+00
      vertex 2.711874e+01 -1.812445e+01 5.000000e+00
    endloop
  endfacet
  facet normal 2.327531e-14 -4.558219e-14 1.000000e+00
    outer loop
      vertex 2.711874e+01 -1.812445e+01 5.000000e+00
      vertex 2.343781e+01 -1.750000e+01 5.000000e+00
      vertex 2.455023e+01 -1.894977e+01 5.000000e+00
    endloop
  endfacet
  facet normal 2.327531e-14 -4.558219e-14 1.000000e+00
    outer loop
      vertex 2.711874e+01 -1.812445e+01 5.000000e+00
      vertex 2.455023e+01 -1.894977e+01 5.000000e+00
      vertex 2.826736e+01 -1.860022e+01 5.000000e+00
    endloop
  endfacet
  facet normal 2.327531e-14 -4.558219e-14 1.000000e+00
    outer loop
      vertex 2.826736e+01 -1.860022e+01 5.000000e+00
      vertex 2.455023e+01 -1.894977e+01 5.000000e+00
      vertex 2.950000e+01 -1.876251e+01 5.000000e+00
    endloop
  endfacet
  facet normal 2.327531e-14 -4.558219e-14 1.000000e+00
    outer loop
      vertex 3.650000e+01 1.600000e+01 5.000000e+00
      vertex 3.286758e+01 -1.063245e+01 5.000000e+00
      vertex 3.650000e+01 -1.400000e+01 5.000000e+00
    endloop
  endfacet
  facet normal 2.327531e-14 -4.558219e-14 1.000000e+00
    outer loop
      vertex 3.286758e+01 -1.063245e+01 5.000000e+00
      vertex 3.650000e+01 1.600000e+01 5.000000e+00
      vertex 3.188123e+01 -9.875549e+00 5.000000e+00
    endloop
  endfacet
  facet normal 2.327531e-14 -4.558219e-14 1.000000e+00
    outer loop
      vertex 3.188123e+01 -9.875549e+00 5.000000e+00
      vertex 3.650000e+01 1.600000e+01 5.000000e+00
      vertex 3.073260e+01 -9.399780e+00 5.000000e+00
    endloop
  endfacet
  facet normal 2.327531e-14 -4.558219e-14 1.000000e+00
    outer loop
      vertex 3.073260e+01 -9.399780e+00 5.000000e+00
      vertex 3.650000e+01 1.600000e+01 5.000000e+00
      vertex 2.950000e+01 -9.237488e+00 5.000000e+00
    endloop
  endfacet
  facet normal 2.327531e-14 -4.558219e-14 1.000000e+00
    outer loop
      vertex 3.650000e+01 -1.400000e+01 5.000000e+00
      vertex 3.286758e+01 -1.063245e+01 5.000000e+00
      vertex 3.362445e+01 -1.161877e+01 5.000000e+00
    endloop
  endfacet
  facet normal 2.327531e-14 -4.558219e-14 1.000000e+00
    outer loop
      vertex 3.650000e+01 -1.400000e+01 5.000000e+00
      vertex 3.362445e+01 -1.161877e+01 5.000000e+00
      vertex 3.410022e+01 -1.276740e+01 5.000000e+00
    endloop
  endfacet
  facet normal 2.327531e-14 -4.558219e-14 1.000000e+00
    outer loop
      vertex 3.650000e+01 -1.400000e+01 5.000000e+00
      vertex 3.410022e+01 -1.276740e+01 5.000000e+00
      vertex 3.426248e+01 -1.400000e+01 5.000000e+00
    endloop
  endfacet
  facet normal 2.327531e-14 -4.558219e-14 1.000000e+00
    outer loop
      vertex 3.650000e+01 -1.400000e+01 5.000000e+00
      vertex 3.426248e+01 -1.400000e+01 5.000000e+00
      vertex 3.410022e+01 -1.523267e+01 5.000000e+00
    endloop
  endfacet
  facet normal 2.327531e-14 -4.558219e-14 1.000000e+00
    outer loop
      vertex 3.650000e+01 -1.400000e+01 5.000000e+00
      vertex 3.410022e+01 -1.523267e+01 5.000000e+00
      vertex 3.626147e+01 -1.581177e+01 5.000000e+00
    endloop
  endfacet
  facet normal 2.327531e-14 -4.558219e-14 1.000000e+00
    outer loop
      vertex 3.626147e+01 -1.581177e+01 5.000000e+00
      vertex 3.410022e+01 -1.523267e+01 5.000000e+00
      vertex 3.362445e+01 -1.638129e+01 5.000000e+00
    endloop
  endfacet
  facet normal 2.327531e-14 -4.558219e-14 1.000000e+00
    outer loop
      vertex 3.626147e+01 -1.581177e+01 5.000000e+00
      vertex 3.362445e+01 -1.638129e+01 5.000000e+00
      vertex 3.556216e+01 -1.750000e+01 5.000000e+00
    endloop
  endfacet
  facet normal 2.327531e-14 -4.558219e-14 1.000000e+00
    outer loop
      vertex 3.556216e+01 -1.750000e+01 5.000000e+00
      vertex 3.362445e+01 -1.638129e+01 5.000000e+00
      vertex 3.286758e+01 -1.736761e+01 5.000000e+00
    endloop
  endfacet
  facet normal 2.327531e-14 -4.558219e-14 1.000000e+00
    outer loop
      vertex 3.556216e+01 -1.750000e+01 5.000000e+00
      vertex 3.286758e+01 -1.736761e+01 5.000000e+00
      vertex 3.188123e+01 -1.812445e+01 5.000000e+00
    endloop
  endfacet
  facet normal 2.327531e-14 -4.558219e-14 1.000000e+00
    outer loop
      vertex 3.556216e+01 -1.750000e+01 5.000000e+00
      vertex 3.188123e+01 -1.812445e+01 5.000000e+00
      vertex 3.444974e+01 -1.894977e+01 5.000000e+00
    endloop
  endfacet
  facet normal 2.327531e-14 -4.558219e-14 1.000000e+00
    outer loop
      vertex 3.444974e+01 -1.894977e+01 5.000000e+00
      vertex 3.188123e+01 -1.812445e+01 5.000000e+00
      vertex 3.073260e+01 -1.860022e+01 5.000000e+00
    endloop
  endfacet
  facet normal 2.327531e-14 -4.558219e-14 1.000000e+00
    outer loop
      vertex 3.444974e+01 -1.894977e+01 5.000000e+00
      vertex 3.073260e+01 -1.860022e+01 5.000000e+00
      vertex 2.950000e+01 -1.876251e+01 5.000000e+00
    endloop
  endfacet
  facet normal 2.327531e-14 -4.558219e-14 1.000000e+00
    outer loop
      vertex 3.444974e+01 -1.894977e+01 5.000000e+00
      vertex 2.950000e+01 -1.876251e+01 5.000000e+00
      vertex 2.455023e+01 -1.894977e+01 5.000000e+00
    endloop
  endfacet
  facet normal 2.327531e-14 -4.558219e-14 1.000000e+00
    outer loop
      vertex 3.444974e+01 -1.894977e+01 5.000000e+00
      vertex 2.455023e+01 -1.894977e+01 5.000000e+00
      vertex 2.600000e+01 -2.006219e+01 5.000000e+00
    endloop
  endfacet
  facet normal 2.327531e-14 -4.558219e-14 1.000000e+00
    outer loop
      vertex 3.444974e+01 -1.894977e+01 5.000000e+00
      vertex 2.600000e+01 -2.006219e+01 5.000000e+00
      vertex 3.300000e+01 -2.006219e+01 5.000000e+00
    endloop
  endfacet
  facet normal 2.327531e-14 -4.558219e-14 1.000000e+00
    outer loop
      vertex 3.300000e+01 -2.006219e+01 5.000000e+00
      vertex 2.600000e+01 -2.006219e+01 5.000000e+00
      vertex 2.768826e+01 -2.076147e+01 5.000000e+00
    endloop
  endfacet
  facet normal 2.327531e-14 -4.558219e-14 1.000000e+00
    outer loop
      vertex 3.300000e+01 -2.006219e+01 5.000000e+00
      vertex 2.768826e+01 -2.076147e+01 5.000000e+00
      vertex 3.131174e+01 -2.076147e+01 5.000000e+00
    endloop
  endfacet
  facet normal 2.327531e-14 -4.558219e-14 1.000000e+00
    outer loop
      vertex 3.131174e+01 -2.076147e+01 5.000000e+00
      vertex 2.768826e+01 -2.076147e+01 5.000000e+00
      vertex 2.950000e+01 -2.100000e+01 5.000000e+00
    endloop
  endfacet
  facet normal -9.914449e-01 -1.305262e-01 1.712444e-14
    outer loop
      vertex 2.273849e+01 -1.581177e+01 5.000000e+00
      vertex 2.250000e+01 -1.400000e+01 2.664535e-15
      vertex 2.273849e+01 -1.581177e+01 2.664535e-15
    endloop
  endfacet
  facet normal -9.914449e-01 -1.305262e-01 1.712444e-14
    outer loop
      vertex 2.250000e+01 -1.400000e+01 2.664535e-15
      vertex 2.273849e+01 -1.581177e+01 5.000000e+00
      vertex 2.250000e+01 -1.400000e+01 5.000000e+00
    endloop
  endfacet
  facet normal 9.914449e-01 -1.305262e-01 -2.902793e-14
    outer loop
      vertex 3.650000e+01 -1.400000e+01 0.000000e+00
      vertex 3.626147e+01 -1.581177e+01 5.000000e+00
      vertex 3.626147e+01 -1.581177e+01 0.000000e+00
    endloop
  endfacet
  facet normal 9.914449e-01 -1.305262e-01 -2.902793e-14
    outer loop
      vertex 3.626147e+01 -1.581177e+01 5.000000e+00
      vertex 3.650000e+01 -1.400000e+01 0.000000e+00
      vertex 3.650000e+01 -1.400000e+01 5.000000e+00
    endloop
  endfacet
  facet normal 7.933533e-01 -6.087614e-01 -4.622391e-14
    outer loop
      vertex 3.556216e+01 -1.750000e+01 5.000000e+00
      vertex 3.444974e+01 -1.894977e+01 0.000000e+00
      vertex 3.556216e+01 -1.750000e+01 0.000000e+00
    endloop
  endfacet
  facet normal 7.933533e-01 -6.087614e-01 -4.622391e-14
    outer loop
      vertex 3.444974e+01 -1.894977e+01 0.000000e+00
      vertex 3.556216e+01 -1.750000e+01 5.000000e+00
      vertex 3.444974e+01 -1.894977e+01 5.000000e+00
    endloop
  endfacet
  facet normal 3.826834e-01 -9.238795e-01 -5.103423e-14
    outer loop
      vertex 3.300000e+01 -2.006219e+01 8.881784e-16
      vertex 3.131174e+01 -2.076147e+01 5.000000e+00
      vertex 3.131174e+01 -2.076147e+01 8.881784e-16
    endloop
  endfacet
  facet normal 3.826834e-01 -9.238795e-01 -5.103423e-14
    outer loop
      vertex 3.131174e+01 -2.076147e+01 5.000000e+00
      vertex 3.300000e+01 -2.006219e+01 8.881784e-16
      vertex 3.300000e+01 -2.006219e+01 5.000000e+00
    endloop
  endfacet
  facet normal -3.826834e-01 -9.238795e-01 -3.322009e-14
    outer loop
      vertex 2.768826e+01 -2.076147e+01 1.776357e-15
      vertex 2.600000e+01 -2.006219e+01 5.000000e+00
      vertex 2.600000e+01 -2.006219e+01 1.776357e-15
    endloop
  endfacet
  facet normal -3.826834e-01 -9.238795e-01 -3.322009e-14
    outer loop
      vertex 2.600000e+01 -2.006219e+01 5.000000e+00
      vertex 2.768826e+01 -2.076147e+01 1.776357e-15
      vertex 2.768826e+01 -2.076147e+01 5.000000e+00
    endloop
  endfacet
  facet normal -6.087614e-01 -7.933533e-01 -2.200630e-14
    outer loop
      vertex 2.600000e+01 -2.006219e+01 1.776357e-15
      vertex 2.455023e+01 -1.894977e+01 5.000000e+00
      vertex 2.455023e+01 -1.894977e+01 1.776357e-15
    endloop
  endfacet
  facet normal -6.087614e-01 -7.933533e-01 -2.200630e-14
    outer loop
      vertex 2.455023e+01 -1.894977e+01 5.000000e+00
      vertex 2.600000e+01 -2.006219e+01 1.776357e-15
      vertex 2.600000e+01 -2.006219e+01 5.000000e+00
    endloop
  endfacet
  facet normal 1.305262e-01 -9.914449e-01 -4.824605e-14
    outer loop
      vertex 3.131174e+01 -2.076147e+01 8.881784e-16
      vertex 2.950000e+01 -2.100000e+01 5.000000e+00
      vertex 2.950000e+01 -2.100000e+01 8.881784e-16
    endloop
  endfacet
  facet normal 1.305262e-01 -9.914449e-01 -4.824605e-14
    outer loop
      vertex 2.950000e+01 -2.100000e+01 5.000000e+00
      vertex 3.131174e+01 -2.076147e+01 8.881784e-16
      vertex 3.131174e+01 -2.076147e+01 5.000000e+00
    endloop
  endfacet
  facet normal -1.305262e-01 -9.914449e-01 -4.216997e-14
    outer loop
      vertex 2.950000e+01 -2.100000e+01 8.881784e-16
      vertex 2.768826e+01 -2.076147e+01 5.000000e+00
      vertex 2.768826e+01 -2.076147e+01 1.776357e-15
    endloop
  endfacet
  facet normal -1.305262e-01 -9.914449e-01 -4.216997e-14
    outer loop
      vertex 2.768826e+01 -2.076147e+01 5.000000e+00
      vertex 2.950000e+01 -2.100000e+01 8.881784e-16
      vertex 2.950000e+01 -2.100000e+01 5.000000e+00
    endloop
  endfacet
  facet normal -7.933533e-01 -6.087614e-01 -9.292827e-15
    outer loop
      vertex 2.455023e+01 -1.894977e+01 5.000000e+00
      vertex 2.343781e+01 -1.750000e+01 2.664535e-15
      vertex 2.455023e+01 -1.894977e+01 1.776357e-15
    endloop
  endfacet
  facet normal -7.933533e-01 -6.087614e-01 -9.292827e-15
    outer loop
      vertex 2.343781e+01 -1.750000e+01 2.664535e-15
      vertex 2.455023e+01 -1.894977e+01 5.000000e+00
      vertex 2.343781e+01 -1.750000e+01 5.000000e+00
    endloop
  endfacet
  facet normal 1.305262e-01 -9.914449e-01 -4.824605e-14
    outer loop
      vertex 2.950000e+01 -9.237488e+00 8.881784e-16
      vertex 2.826736e+01 -9.399780e+00 5.000000e+00
      vertex 2.826736e+01 -9.399780e+00 1.776357e-15
    endloop
  endfacet
  facet normal 1.305262e-01 -9.914449e-01 -4.824605e-14
    outer loop
      vertex 2.826736e+01 -9.399780e+00 5.000000e+00
      vertex 2.950000e+01 -9.237488e+00 8.881784e-16
      vertex 2.950000e+01 -9.237488e+00 5.000000e+00
    endloop
  endfacet
  facet normal 3.826834e-01 -9.238795e-01 -5.103423e-14
    outer loop
      vertex 2.826736e+01 -9.399780e+00 1.776357e-15
      vertex 2.711874e+01 -9.875549e+00 5.000000e+00
      vertex 2.711874e+01 -9.875549e+00 1.776357e-15
    endloop
  endfacet
  facet normal 3.826834e-01 -9.238795e-01 -5.103423e-14
    outer loop
      vertex 2.711874e+01 -9.875549e+00 5.000000e+00
      vertex 2.826736e+01 -9.399780e+00 1.776357e-15
      vertex 2.826736e+01 -9.399780e+00 5.000000e+00
    endloop
  endfacet
  facet normal -9.238795e-01 -3.826834e-01 4.053939e-15
    outer loop
      vertex 2.343781e+01 -1.750000e+01 5.000000e+00
      vertex 2.273849e+01 -1.581177e+01 2.664535e-15
      vertex 2.343781e+01 -1.750000e+01 2.664535e-15
    endloop
  endfacet
  facet normal -9.238795e-01 -3.826834e-01 4.053939e-15
    outer loop
      vertex 2.273849e+01 -1.581177e+01 2.664535e-15
      vertex 2.343781e+01 -1.750000e+01 5.000000e+00
      vertex 2.273849e+01 -1.581177e+01 5.000000e+00
    endloop
  endfacet
  facet normal 7.933533e-01 -6.087614e-01 -4.622391e-14
    outer loop
      vertex 2.613239e+01 -1.063245e+01 1.776357e-15
      vertex 2.537555e+01 -1.161877e+01 5.000000e+00
      vertex 2.537555e+01 -1.161877e+01 1.776357e-15
    endloop
  endfacet
  facet normal 7.933533e-01 -6.087614e-01 -4.622391e-14
    outer loop
      vertex 2.537555e+01 -1.161877e+01 5.000000e+00
      vertex 2.613239e+01 -1.063245e+01 1.776357e-15
      vertex 2.613239e+01 -1.063245e+01 5.000000e+00
    endloop
  endfacet
  facet normal 9.238795e-01 -3.826834e-01 -3.895322e-14
    outer loop
      vertex 2.537555e+01 -1.161877e+01 1.776357e-15
      vertex 2.489978e+01 -1.276740e+01 5.000000e+00
      vertex 2.489978e+01 -1.276740e+01 1.776357e-15
    endloop
  endfacet
  facet normal 9.238795e-01 -3.826834e-01 -3.895322e-14
    outer loop
      vertex 2.489978e+01 -1.276740e+01 5.000000e+00
      vertex 2.537555e+01 -1.161877e+01 1.776357e-15
      vertex 2.537555e+01 -1.161877e+01 5.000000e+00
    endloop
  endfacet
  facet normal 6.087614e-01 -7.933533e-01 -5.034452e-14
    outer loop
      vertex 3.444974e+01 -1.894977e+01 0.000000e+00
      vertex 3.300000e+01 -2.006219e+01 5.000000e+00
      vertex 3.300000e+01 -2.006219e+01 8.881784e-16
    endloop
  endfacet
  facet normal 6.087614e-01 -7.933533e-01 -5.034452e-14
    outer loop
      vertex 3.300000e+01 -2.006219e+01 5.000000e+00
      vertex 3.444974e+01 -1.894977e+01 0.000000e+00
      vertex 3.444974e+01 -1.894977e+01 5.000000e+00
    endloop
  endfacet
  facet normal 1.000000e+00 -2.923205e-15 -3.765565e-14
    outer loop
      vertex 3.650000e+01 2.100000e+01 0.000000e+00
      vertex 3.650000e+01 -1.400000e+01 5.000000e+00
      vertex 3.650000e+01 -1.400000e+01 0.000000e+00
    endloop
  endfacet
  facet normal 1.000000e+00 -2.923205e-15 -3.765565e-14
    outer loop
      vertex 3.650000e+01 -1.400000e+01 5.000000e+00
      vertex 3.650000e+01 2.100000e+01 0.000000e+00
      vertex 3.650000e+01 1.600000e+01 5.000000e+00
    endloop
  endfacet
  facet normal 1.000000e+00 -2.923205e-15 -3.765565e-14
    outer loop
      vertex 3.650000e+01 1.600000e+01 5.000000e+00
      vertex 3.650000e+01 2.100000e+01 0.000000e+00
      vertex 3.650000e+01 2.100000e+01 1.000000e+01
    endloop
  endfacet
  facet normal 1.000000e+00 -2.923205e-15 -3.765565e-14
    outer loop
      vertex 3.650000e+01 1.600000e+01 5.000000e+00
      vertex 3.650000e+01 2.100000e+01 1.000000e+01
      vertex 3.650000e+01 1.600000e+01 1.000000e+01
    endloop
  endfacet
  facet normal -1.305262e-01 -9.914449e-01 -4.216997e-14
    outer loop
      vertex 3.073260e+01 -9.399780e+00 8.881784e-16
      vertex 2.950000e+01 -9.237488e+00 5.000000e+00
      vertex 2.950000e+01 -9.237488e+00 8.881784e-16
    endloop
  endfacet
  facet normal -1.305262e-01 -9.914449e-01 -4.216997e-14
    outer loop
      vertex 2.950000e+01 -9.237488e+00 5.000000e+00
      vertex 3.073260e+01 -9.399780e+00 8.881784e-16
      vertex 3.073260e+01 -9.399780e+00 5.000000e+00
    endloop
  endfacet
  facet normal -1.000000e+00 -8.342963e-28 1.866463e-14
    outer loop
      vertex 2.250000e+01 -1.400000e+01 5.000000e+00
      vertex 2.250000e+01 1.600000e+01 2.664535e-15
      vertex 2.250000e+01 -1.400000e+01 2.664535e-15
    endloop
  endfacet
  facet normal -1.000000e+00 -8.342963e-28 1.866463e-14
    outer loop
      vertex 2.250000e+01 1.600000e+01 2.664535e-15
      vertex 2.250000e+01 -1.400000e+01 5.000000e+00
      vertex 2.250000e+01 1.600000e+01 5.000000e+00
    endloop
  endfacet
  facet normal 6.087614e-01 -7.933533e-01 -5.034452e-14
    outer loop
      vertex 2.711874e+01 -9.875549e+00 1.776357e-15
      vertex 2.613239e+01 -1.063245e+01 5.000000e+00
      vertex 2.613239e+01 -1.063245e+01 1.776357e-15
    endloop
  endfacet
  facet normal 6.087614e-01 -7.933533e-01 -5.034452e-14
    outer loop
      vertex 2.613239e+01 -1.063245e+01 5.000000e+00
      vertex 2.711874e+01 -9.875549e+00 1.776357e-15
      vertex 2.711874e+01 -9.875549e+00 5.000000e+00
    endloop
  endfacet
  facet normal 9.914449e-01 -1.305262e-01 -2.902793e-14
    outer loop
      vertex 2.489978e+01 -1.276740e+01 1.776357e-15
      vertex 2.473749e+01 -1.400000e+01 5.000000e+00
      vertex 2.473749e+01 -1.400000e+01 1.776357e-15
    endloop
  endfacet
  facet normal 9.914449e-01 -1.305262e-01 -2.902793e-14
    outer loop
      vertex 2.473749e+01 -1.400000e+01 5.000000e+00
      vertex 2.489978e+01 -1.276740e+01 1.776357e-15
      vertex 2.489978e+01 -1.276740e+01 5.000000e+00
    endloop
  endfacet
  facet normal 9.238795e-01 3.826834e-01 -4.053939e-15
    outer loop
      vertex 2.489978e+01 -1.523267e+01 1.776357e-15
      vertex 2.537555e+01 -1.638129e+01 5.000000e+00
      vertex 2.537555e+01 -1.638129e+01 1.776357e-15
    endloop
  endfacet
  facet normal 9.238795e-01 3.826834e-01 -4.053939e-15
    outer loop
      vertex 2.537555e+01 -1.638129e+01 5.000000e+00
      vertex 2.489978e+01 -1.523267e+01 1.776357e-15
      vertex 2.489978e+01 -1.523267e+01 5.000000e+00
    endloop
  endfacet
  facet normal -9.914449e-01 -1.305262e-01 1.712444e-14
    outer loop
      vertex 3.426248e+01 -1.400000e+01 5.000000e+00
      vertex 3.410022e+01 -1.276740e+01 0.000000e+00
      vertex 3.426248e+01 -1.400000e+01 0.000000e+00
    endloop
  endfacet
  facet normal -9.914449e-01 -1.305262e-01 1.712444e-14
    outer loop
      vertex 3.410022e+01 -1.276740e+01 0.000000e+00
      vertex 3.426248e+01 -1.400000e+01 5.000000e+00
      vertex 3.410022e+01 -1.276740e+01 5.000000e+00
    endloop
  endfacet
  facet normal -6.087614e-01 -7.933533e-01 -2.200630e-14
    outer loop
      vertex 3.286758e+01 -1.063245e+01 8.881784e-16
      vertex 3.188123e+01 -9.875549e+00 5.000000e+00
      vertex 3.188123e+01 -9.875549e+00 8.881784e-16
    endloop
  endfacet
  facet normal -6.087614e-01 -7.933533e-01 -2.200630e-14
    outer loop
      vertex 3.188123e+01 -9.875549e+00 5.000000e+00
      vertex 3.286758e+01 -1.063245e+01 8.881784e-16
      vertex 3.286758e+01 -1.063245e+01 5.000000e+00
    endloop
  endfacet
  facet normal -9.914449e-01 1.305262e-01 2.902793e-14
    outer loop
      vertex 3.410022e+01 -1.523267e+01 5.000000e+00
      vertex 3.426248e+01 -1.400000e+01 0.000000e+00
      vertex 3.410022e+01 -1.523267e+01 0.000000e+00
    endloop
  endfacet
  facet normal -9.914449e-01 1.305262e-01 2.902793e-14
    outer loop
      vertex 3.426248e+01 -1.400000e+01 0.000000e+00
      vertex 3.410022e+01 -1.523267e+01 5.000000e+00
      vertex 3.426248e+01 -1.400000e+01 5.000000e+00
    endloop
  endfacet
  facet normal -9.238795e-01 3.826834e-01 3.895322e-14
    outer loop
      vertex 3.362445e+01 -1.638129e+01 5.000000e+00
      vertex 3.410022e+01 -1.523267e+01 0.000000e+00
      vertex 3.362445e+01 -1.638129e+01 8.881784e-16
    endloop
  endfacet
  facet normal -9.238795e-01 3.826834e-01 3.895322e-14
    outer loop
      vertex 3.410022e+01 -1.523267e+01 0.000000e+00
      vertex 3.362445e+01 -1.638129e+01 5.000000e+00
      vertex 3.410022e+01 -1.523267e+01 5.000000e+00
    endloop
  endfacet
  facet normal -9.238795e-01 -3.826834e-01 4.053939e-15
    outer loop
      vertex 3.410022e+01 -1.276740e+01 5.000000e+00
      vertex 3.362445e+01 -1.161877e+01 8.881784e-16
      vertex 3.410022e+01 -1.276740e+01 0.000000e+00
    endloop
  endfacet
  facet normal -9.238795e-01 -3.826834e-01 4.053939e-15
    outer loop
      vertex 3.362445e+01 -1.161877e+01 8.881784e-16
      vertex 3.410022e+01 -1.276740e+01 5.000000e+00
      vertex 3.362445e+01 -1.161877e+01 5.000000e+00
    endloop
  endfacet
  facet normal -7.933533e-01 6.087614e-01 4.622391e-14
    outer loop
      vertex 3.286758e+01 -1.736761e+01 5.000000e+00
      vertex 3.362445e+01 -1.638129e+01 8.881784e-16
      vertex 3.286758e+01 -1.736761e+01 8.881784e-16
    endloop
  endfacet
  facet normal -7.933533e-01 6.087614e-01 4.622391e-14
    outer loop
      vertex 3.362445e+01 -1.638129e+01 8.881784e-16
      vertex 3.286758e+01 -1.736761e+01 5.000000e+00
      vertex 3.362445e+01 -1.638129e+01 5.000000e+00
    endloop
  endfacet
  facet normal -7.933533e-01 -6.087614e-01 -9.292827e-15
    outer loop
      vertex 3.362445e+01 -1.161877e+01 5.000000e+00
      vertex 3.286758e+01 -1.063245e+01 8.881784e-16
      vertex 3.362445e+01 -1.161877e+01 8.881784e-16
    endloop
  endfacet
  facet normal -7.933533e-01 -6.087614e-01 -9.292827e-15
    outer loop
      vertex 3.286758e+01 -1.063245e+01 8.881784e-16
      vertex 3.362445e+01 -1.161877e+01 5.000000e+00
      vertex 3.286758e+01 -1.063245e+01 5.000000e+00
    endloop
  endfacet
  facet normal -3.826834e-01 -9.238795e-01 -3.322009e-14
    outer loop
      vertex 3.188123e+01 -9.875549e+00 8.881784e-16
      vertex 3.073260e+01 -9.399780e+00 5.000000e+00
      vertex 3.073260e+01 -9.399780e+00 8.881784e-16
    endloop
  endfacet
  facet normal -3.826834e-01 -9.238795e-01 -3.322009e-14
    outer loop
      vertex 3.073260e+01 -9.399780e+00 5.000000e+00
      vertex 3.188123e+01 -9.875549e+00 8.881784e-16
      vertex 3.188123e+01 -9.875549e+00 5.000000e+00
    endloop
  endfacet
  facet normal -5.613302e-14 -1.000000e+00 -1.419466e-13
    outer loop
      vertex 2.250000e+01 1.600000e+01 2.664535e-15
      vertex -3.150000e+01 1.600000e+01 1.000000e+01
      vertex -3.150000e+01 1.600000e+01 1.243450e-14
    endloop
  endfacet
  facet normal -5.613302e-14 -1.000000e+00 -1.419466e-13
    outer loop
      vertex -3.150000e+01 1.600000e+01 1.000000e+01
      vertex 2.250000e+01 1.600000e+01 2.664535e-15
      vertex 2.250000e+01 1.600000e+01 5.000000e+00
    endloop
  endfacet
  facet normal -5.613302e-14 -1.000000e+00 -1.419466e-13
    outer loop
      vertex -3.150000e+01 1.600000e+01 1.000000e+01
      vertex 2.250000e+01 1.600000e+01 5.000000e+00
      vertex 3.650000e+01 1.600000e+01 1.000000e+01
    endloop
  endfacet
  facet normal -5.613302e-14 -1.000000e+00 -1.419466e-13
    outer loop
      vertex 3.650000e+01 1.600000e+01 1.000000e+01
      vertex 2.250000e+01 1.600000e+01 5.000000e+00
      vertex 3.650000e+01 1.600000e+01 5.000000e+00
    endloop
  endfacet
  facet normal 4.619197e-14 1.437096e-13 1.000000e+00
    outer loop
      vertex -3.650000e+01 2.100000e+01 1.000000e+01
      vertex -3.150000e+01 1.600000e+01 1.000000e+01
      vertex 3.650000e+01 2.100000e+01 1.000000e+01
    endloop
  endfacet
  facet normal 4.619197e-14 1.437096e-13 1.000000e+00
    outer loop
      vertex -3.150000e+01 1.600000e+01 1.000000e+01
      vertex -3.650000e+01 2.100000e+01 1.000000e+01
      vertex -3.650000e+01 -7.000000e+00 1.000000e+01
    endloop
  endfacet
  facet normal 4.619197e-14 1.437096e-13 1.000000e+00
    outer loop
      vertex -3.150000e+01 1.600000e+01 1.000000e+01
      vertex -3.650000e+01 -7.000000e+00 1.000000e+01
      vertex -3.150000e+01 -7.000000e+00 1.000000e+01
    endloop
  endfacet
  facet normal 4.619197e-14 1.437096e-13 1.000000e+00
    outer loop
      vertex 3.650000e+01 1.600000e+01 1.000000e+01
      vertex 3.650000e+01 2.100000e+01 1.000000e+01
      vertex -3.150000e+01 1.600000e+01 1.000000e+01
    endloop
  endfacet
  facet normal -4.250614e-13 -1.000000e+00 -6.468326e-14
    outer loop
      vertex -3.150000e+01 -7.000000e+00 1.243450e-14
      vertex -3.650000e+01 -7.000000e+00 1.000000e+01
      vertex -3.650000e+01 -7.000000e+00 1.332268e-14
    endloop
  endfacet
  facet normal -4.250614e-13 -1.000000e+00 -6.468326e-14
    outer loop
      vertex -3.650000e+01 -7.000000e+00 1.000000e+01
      vertex -3.150000e+01 -7.000000e+00 1.243450e-14
      vertex -3.150000e+01 -7.000000e+00 1.000000e+01
    endloop
  endfacet
  facet normal 4.250614e-13 1.000000e+00 -5.497608e-13
    outer loop
      vertex -3.650000e+01 2.100000e+01 1.000000e+01
      vertex 3.650000e+01 2.100000e+01 0.000000e+00
      vertex -3.650000e+01 2.100000e+01 1.332268e-14
    endloop
  endfacet
  facet normal 4.250614e-13 1.000000e+00 -5.497608e-13
    outer loop
      vertex 3.650000e+01 2.100000e+01 0.000000e+00
      vertex -3.650000e+01 2.100000e+01 1.000000e+01
      vertex 3.650000e+01 2.100000e+01 1.000000e+01
    endloop
  endfacet
  facet normal 1.000000e+00 -2.614079e-13 -4.638603e-14
    outer loop
      vertex -3.150000e+01 1.600000e+01 1.243450e-14
      vertex -3.150000e+01 2.500000e-01 1.102886e+00
      vertex -3.150000e+01 -7.000000e+00 1.243450e-14
    endloop
  endfacet
  facet normal 1.000000e+00 -2.614079e-13 -4.638603e-14
    outer loop
      vertex -3.150000e+01 2.500000e-01 1.102886e+00
      vertex -3.150000e+01 1.600000e+01 1.243450e-14
      vertex -3.150000e+01 1.600000e+01 1.000000e+01
    endloop
  endfacet
  facet normal 1.000000e+00 -2.614079e-13 -4.638603e-14
    outer loop
      vertex -3.150000e+01 2.500000e-01 1.102886e+00
      vertex -3.150000e+01 1.600000e+01 1.000000e+01
      vertex -3.150000e+01 2.500000e+00 5.000000e+00
    endloop
  endfacet
  facet normal 1.000000e+00 -2.614079e-13 -4.638603e-14
    outer loop
      vertex -3.150000e+01 2.500000e+00 5.000000e+00
      vertex -3.150000e+01 1.600000e+01 1.000000e+01
      vertex -3.150000e+01 2.500000e-01 8.897115e+00
    endloop
  endfacet
  facet normal 1.000000e+00 -2.614079e-13 -4.638603e-14
    outer loop
      vertex -3.150000e+01 2.500000e-01 8.897115e+00
      vertex -3.150000e+01 1.600000e+01 1.000000e+01
      vertex -3.150000e+01 -2.000000e+00 8.897115e+00
    endloop
  endfacet
  facet normal 1.000000e+00 -2.614079e-13 -4.638603e-14
    outer loop
      vertex -3.150000e+01 -2.000000e+00 8.897115e+00
      vertex -3.150000e+01 1.600000e+01 1.000000e+01
      vertex -3.150000e+01 -4.250000e+00 8.897115e+00
    endloop
  endfacet
  facet normal 1.000000e+00 -2.614079e-13 -4.638603e-14
    outer loop
      vertex -3.150000e+01 -7.000000e+00 1.243450e-14
      vertex -3.150000e+01 -6.500000e+00 5.000000e+00
      vertex -3.150000e+01 -7.000000e+00 1.000000e+01
    endloop
  endfacet
  facet normal 1.000000e+00 -2.614079e-13 -4.638603e-14
    outer loop
      vertex -3.150000e+01 -6.500000e+00 5.000000e+00
      vertex -3.150000e+01 -7.000000e+00 1.243450e-14
      vertex -3.150000e+01 -4.250000e+00 1.102886e+00
    endloop
  endfacet
  facet normal 1.000000e+00 -2.614079e-13 -4.638603e-14
    outer loop
      vertex -3.150000e+01 -4.250000e+00 1.102886e+00
      vertex -3.150000e+01 -7.000000e+00 1.243450e-14
      vertex -3.150000e+01 2.500000e-01 1.102886e+00
    endloop
  endfacet
  facet normal 1.000000e+00 -2.614079e-13 -4.638603e-14
    outer loop
      vertex -3.150000e+01 -4.250000e+00 1.102886e+00
      vertex -3.150000e+01 2.500000e-01 1.102886e+00
      vertex -3.150000e+01 -2.000000e+00 1.102886e+00
    endloop
  endfacet
  facet normal 1.000000e+00 -2.614079e-13 -4.638603e-14
    outer loop
      vertex -3.150000e+01 -7.000000e+00 1.000000e+01
      vertex -3.150000e+01 -6.500000e+00 5.000000e+00
      vertex -3.150000e+01 -4.250000e+00 8.897115e+00
    endloop
  endfacet
  facet normal 1.000000e+00 -2.614079e-13 -4.638603e-14
    outer loop
      vertex -3.150000e+01 -7.000000e+00 1.000000e+01
      vertex -3.150000e+01 -4.250000e+00 8.897115e+00
      vertex -3.150000e+01 1.600000e+01 1.000000e+01
    endloop
  endfacet
  facet normal 1.000000e+00 5.517288e-28 -2.389475e-14
    outer loop
      vertex -3.450000e+01 2.500000e+00 5.000000e+00
      vertex -3.450000e+01 -2.000000e+00 1.102886e+00
      vertex -3.450000e+01 2.500000e-01 1.102886e+00
    endloop
  endfacet
  facet normal 1.000000e+00 5.517288e-28 -2.389475e-14
    outer loop
      vertex -3.450000e+01 -2.000000e+00 1.102886e+00
      vertex -3.450000e+01 2.500000e+00 5.000000e+00
      vertex -3.450000e+01 -4.250000e+00 1.102886e+00
    endloop
  endfacet
  facet normal 1.000000e+00 5.517288e-28 -2.389475e-14
    outer loop
      vertex -3.450000e+01 -4.250000e+00 1.102886e+00
      vertex -3.450000e+01 2.500000e+00 5.000000e+00
      vertex -3.450000e+01 -1.125000e+00 3.484456e+00
    endloop
  endfacet
  facet normal 1.000000e+00 5.517288e-28 -2.389475e-14
    outer loop
      vertex -3.450000e+01 -4.250000e+00 1.102886e+00
      vertex -3.450000e+01 -1.125000e+00 3.484456e+00
      vertex -3.450000e+01 -1.547058e+00 3.309630e+00
    endloop
  endfacet
  facet normal 1.000000e+00 5.517288e-28 -2.389475e-14
    outer loop
      vertex -3.450000e+01 -4.250000e+00 1.102886e+00
      vertex -3.450000e+01 -1.547058e+00 3.309630e+00
      vertex -3.450000e+01 -2.000000e+00 3.250000e+00
    endloop
  endfacet
  facet normal 1.000000e+00 5.517288e-28 -2.389475e-14
    outer loop
      vertex -3.450000e+01 -1.125000e+00 3.484456e+00
      vertex -3.450000e+01 2.500000e+00 5.000000e+00
      vertex -3.450000e+01 -7.625732e-01 3.762564e+00
    endloop
  endfacet
  facet normal 1.000000e+00 5.517288e-28 -2.389475e-14
    outer loop
      vertex -3.450000e+01 -7.625732e-01 3.762564e+00
      vertex -3.450000e+01 2.500000e+00 5.000000e+00
      vertex -3.450000e+01 -4.844971e-01 4.125000e+00
    endloop
  endfacet
  facet normal 1.000000e+00 5.517288e-28 -2.389475e-14
    outer loop
      vertex -3.450000e+01 -4.844971e-01 4.125000e+00
      vertex -3.450000e+01 2.500000e+00 5.000000e+00
      vertex -3.450000e+01 -3.096313e-01 4.547067e+00
    endloop
  endfacet
  facet normal 1.000000e+00 5.517288e-28 -2.389475e-14
    outer loop
      vertex -3.450000e+01 -3.096313e-01 4.547067e+00
      vertex -3.450000e+01 2.500000e+00 5.000000e+00
      vertex -3.450000e+01 -2.500000e-01 5.000000e+00
    endloop
  endfacet
  facet normal 1.000000e+00 5.517288e-28 -2.389475e-14
    outer loop
      vertex -3.450000e+01 -2.500000e-01 5.000000e+00
      vertex -3.450000e+01 2.500000e+00 5.000000e+00
      vertex -3.450000e+01 2.500000e-01 8.897115e+00
    endloop
  endfacet
  facet normal 1.000000e+00 5.517288e-28 -2.389475e-14
    outer loop
      vertex -3.450000e+01 -2.500000e-01 5.000000e+00
      vertex -3.450000e+01 2.500000e-01 8.897115e+00
      vertex -3.450000e+01 -3.096313e-01 5.452933e+00
    endloop
  endfacet
  facet normal 1.000000e+00 5.517288e-28 -2.389475e-14
    outer loop
      vertex -3.450000e+01 -3.096313e-01 5.452933e+00
      vertex -3.450000e+01 2.500000e-01 8.897115e+00
      vertex -3.450000e+01 -4.844971e-01 5.875000e+00
    endloop
  endfacet
  facet normal 1.000000e+00 5.517288e-28 -2.389475e-14
    outer loop
      vertex -3.450000e+01 -4.844971e-01 5.875000e+00
      vertex -3.450000e+01 2.500000e-01 8.897115e+00
      vertex -3.450000e+01 -7.625732e-01 6.237437e+00
    endloop
  endfacet
  facet normal 1.000000e+00 5.517288e-28 -2.389475e-14
    outer loop
      vertex -3.450000e+01 -7.625732e-01 6.237437e+00
      vertex -3.450000e+01 2.500000e-01 8.897115e+00
      vertex -3.450000e+01 -1.125000e+00 6.515545e+00
    endloop
  endfacet
  facet normal 1.000000e+00 5.517288e-28 -2.389475e-14
    outer loop
      vertex -3.450000e+01 -1.125000e+00 6.515545e+00
      vertex -3.450000e+01 2.500000e-01 8.897115e+00
      vertex -3.450000e+01 -1.547058e+00 6.690371e+00
    endloop
  endfacet
  facet normal 1.000000e+00 5.517288e-28 -2.389475e-14
    outer loop
      vertex -3.450000e+01 -1.547058e+00 6.690371e+00
      vertex -3.450000e+01 2.500000e-01 8.897115e+00
      vertex -3.450000e+01 -2.000000e+00 6.750000e+00
    endloop
  endfacet
  facet normal 1.000000e+00 5.517288e-28 -2.389475e-14
    outer loop
      vertex -3.450000e+01 -2.000000e+00 6.750000e+00
      vertex -3.450000e+01 2.500000e-01 8.897115e+00
      vertex -3.450000e+01 -2.000000e+00 8.897115e+00
    endloop
  endfacet
  facet normal 1.000000e+00 5.517288e-28 -2.389475e-14
    outer loop
      vertex -3.450000e+01 -4.250000e+00 1.102886e+00
      vertex -3.450000e+01 -2.875000e+00 3.484456e+00
      vertex -3.450000e+01 -6.500000e+00 5.000000e+00
    endloop
  endfacet
  facet normal 1.000000e+00 5.517288e-28 -2.389475e-14
    outer loop
      vertex -3.450000e+01 -2.875000e+00 3.484456e+00
      vertex -3.450000e+01 -4.250000e+00 1.102886e+00
      vertex -3.450000e+01 -2.452942e+00 3.309630e+00
    endloop
  endfacet
  facet normal 1.000000e+00 5.517288e-28 -2.389475e-14
    outer loop
      vertex -3.450000e+01 -2.452942e+00 3.309630e+00
      vertex -3.450000e+01 -4.250000e+00 1.102886e+00
      vertex -3.450000e+01 -2.000000e+00 3.250000e+00
    endloop
  endfacet
  facet normal 1.000000e+00 5.517288e-28 -2.389475e-14
    outer loop
      vertex -3.450000e+01 -6.500000e+00 5.000000e+00
      vertex -3.450000e+01 -2.875000e+00 3.484456e+00
      vertex -3.450000e+01 -3.237427e+00 3.762564e+00
    endloop
  endfacet
  facet normal 1.000000e+00 5.517288e-28 -2.389475e-14
    outer loop
      vertex -3.450000e+01 -6.500000e+00 5.000000e+00
      vertex -3.450000e+01 -3.237427e+00 3.762564e+00
      vertex -3.450000e+01 -3.515564e+00 4.125000e+00
    endloop
  endfacet
  facet normal 1.000000e+00 5.517288e-28 -2.389475e-14
    outer loop
      vertex -3.450000e+01 -6.500000e+00 5.000000e+00
      vertex -3.450000e+01 -3.515564e+00 4.125000e+00
      vertex -3.450000e+01 -3.690369e+00 4.547067e+00
    endloop
  endfacet
  facet normal 1.000000e+00 5.517288e-28 -2.389475e-14
    outer loop
      vertex -3.450000e+01 -6.500000e+00 5.000000e+00
      vertex -3.450000e+01 -3.690369e+00 4.547067e+00
      vertex -3.450000e+01 -3.750000e+00 5.000000e+00
    endloop
  endfacet
  facet normal 1.000000e+00 5.517288e-28 -2.389475e-14
    outer loop
      vertex -3.450000e+01 -6.500000e+00 5.000000e+00
      vertex -3.450000e+01 -3.750000e+00 5.000000e+00
      vertex -3.450000e+01 -3.690369e+00 5.452933e+00
    endloop
  endfacet
  facet normal 1.000000e+00 5.517288e-28 -2.389475e-14
    outer loop
      vertex -3.450000e+01 -6.500000e+00 5.000000e+00
      vertex -3.450000e+01 -3.690369e+00 5.452933e+00
      vertex -3.450000e+01 -4.250000e+00 8.897115e+00
    endloop
  endfacet
  facet normal 1.000000e+00 5.517288e-28 -2.389475e-14
    outer loop
      vertex -3.450000e+01 -4.250000e+00 8.897115e+00
      vertex -3.450000e+01 -3.690369e+00 5.452933e+00
      vertex -3.450000e+01 -3.515564e+00 5.875000e+00
    endloop
  endfacet
  facet normal 1.000000e+00 5.517288e-28 -2.389475e-14
    outer loop
      vertex -3.450000e+01 -4.250000e+00 8.897115e+00
      vertex -3.450000e+01 -3.515564e+00 5.875000e+00
      vertex -3.450000e+01 -3.237427e+00 6.237437e+00
    endloop
  endfacet
  facet normal 1.000000e+00 5.517288e-28 -2.389475e-14
    outer loop
      vertex -3.450000e+01 -4.250000e+00 8.897115e+00
      vertex -3.450000e+01 -3.237427e+00 6.237437e+00
      vertex -3.450000e+01 -2.875000e+00 6.515545e+00
    endloop
  endfacet
  facet normal 1.000000e+00 5.517288e-28 -2.389475e-14
    outer loop
      vertex -3.450000e+01 -4.250000e+00 8.897115e+00
      vertex -3.450000e+01 -2.875000e+00 6.515545e+00
      vertex -3.450000e+01 -2.452942e+00 6.690371e+00
    endloop
  endfacet
  facet normal 1.000000e+00 5.517288e-28 -2.389475e-14
    outer loop
      vertex -3.450000e+01 -4.250000e+00 8.897115e+00
      vertex -3.450000e+01 -2.452942e+00 6.690371e+00
      vertex -3.450000e+01 -2.000000e+00 6.750000e+00
    endloop
  endfacet
  facet normal 1.000000e+00 5.517288e-28 -2.389475e-14
    outer loop
      vertex -3.450000e+01 -4.250000e+00 8.897115e+00
      vertex -3.450000e+01 -2.000000e+00 6.750000e+00
      vertex -3.450000e+01 -2.000000e+00 8.897115e+00
    endloop
  endfacet
  facet normal 2.389398e-14 -2.310117e-14 1.000000e+00
    outer loop
      vertex -3.450000e+01 -2.000000e+00 1.102886e+00
      vertex -3.150000e+01 2.500000e-01 1.102886e+00
      vertex -3.450000e+01 2.500000e-01 1.102886e+00
    endloop
  endfacet
  facet normal 2.389398e-14 -2.310117e-14 1.000000e+00
    outer loop
      vertex -3.150000e+01 2.500000e-01 1.102886e+00
      vertex -3.450000e+01 -2.000000e+00 1.102886e+00
      vertex -3.150000e+01 -2.000000e+00 1.102886e+00
    endloop
  endfacet
  facet normal 2.389398e-14 -2.310117e-14 1.000000e+00
    outer loop
      vertex -3.150000e+01 -2.000000e+00 1.102886e+00
      vertex -3.450000e+01 -2.000000e+00 1.102886e+00
      vertex -3.450000e+01 -4.250000e+00 1.102886e+00
    endloop
  endfacet
  facet normal 2.389398e-14 -2.310117e-14 1.000000e+00
    outer loop
      vertex -3.150000e+01 -2.000000e+00 1.102886e+00
      vertex -3.450000e+01 -4.250000e+00 1.102886e+00
      vertex -3.150000e+01 -4.250000e+00 1.102886e+00
    endloop
  endfacet
  facet normal 1.194737e-14 -8.660254e-01 5.000000e-01
    outer loop
      vertex -3.150000e+01 2.500000e-01 1.102886e+00
      vertex -3.450000e+01 2.500000e+00 5.000000e+00
      vertex -3.450000e+01 2.500000e-01 1.102886e+00
    endloop
  endfacet
  facet normal 1.194737e-14 -8.660254e-01 5.000000e-01
    outer loop
      vertex -3.450000e+01 2.500000e+00 5.000000e+00
      vertex -3.150000e+01 2.500000e-01 1.102886e+00
      vertex -3.150000e+01 2.500000e+00 5.000000e+00
    endloop
  endfacet
  facet normal -1.194737e-14 -8.660254e-01 -5.000000e-01
    outer loop
      vertex -3.150000e+01 2.500000e+00 5.000000e+00
      vertex -3.450000e+01 2.500000e-01 8.897115e+00
      vertex -3.450000e+01 2.500000e+00 5.000000e+00
    endloop
  endfacet
  facet normal -1.194737e-14 -8.660254e-01 -5.000000e-01
    outer loop
      vertex -3.450000e+01 2.500000e-01 8.897115e+00
      vertex -3.150000e+01 2.500000e+00 5.000000e+00
      vertex -3.150000e+01 2.500000e-01 8.897115e+00
    endloop
  endfacet
  facet normal -2.376614e-14 2.374286e-14 -1.000000e+00
    outer loop
      vertex -3.150000e+01 -2.000000e+00 8.897115e+00
      vertex -3.450000e+01 2.500000e-01 8.897115e+00
      vertex -3.150000e+01 2.500000e-01 8.897115e+00
    endloop
  endfacet
  facet normal -2.376614e-14 2.374286e-14 -1.000000e+00
    outer loop
      vertex -3.450000e+01 2.500000e-01 8.897115e+00
      vertex -3.150000e+01 -2.000000e+00 8.897115e+00
      vertex -3.450000e+01 -2.000000e+00 8.897115e+00
    endloop
  endfacet
  facet normal -2.376614e-14 2.374286e-14 -1.000000e+00
    outer loop
      vertex -3.450000e+01 -2.000000e+00 8.897115e+00
      vertex -3.150000e+01 -2.000000e+00 8.897115e+00
      vertex -3.150000e+01 -4.250000e+00 8.897115e+00
    endloop
  endfacet
  facet normal -2.376614e-14 2.374286e-14 -1.000000e+00
    outer loop
      vertex -3.450000e+01 -2.000000e+00 8.897115e+00
      vertex -3.150000e+01 -4.250000e+00 8.897115e+00
      vertex -3.450000e+01 -4.250000e+00 8.897115e+00
    endloop
  endfacet
  facet normal -1.194737e-14 8.660254e-01 -5.000000e-01
    outer loop
      vertex -3.450000e+01 -4.250000e+00 8.897115e+00
      vertex -3.150000e+01 -6.500000e+00 5.000000e+00
      vertex -3.450000e+01 -6.500000e+00 5.000000e+00
    endloop
  endfacet
  facet normal -1.194737e-14 8.660254e-01 -5.000000e-01
    outer loop
      vertex -3.150000e+01 -6.500000e+00 5.000000e+00
      vertex -3.450000e+01 -4.250000e+00 8.897115e+00
      vertex -3.150000e+01 -4.250000e+00 8.897115e+00
    endloop
  endfacet
  facet normal 1.194737e-14 8.660254e-01 5.000000e-01
    outer loop
      vertex -3.450000e+01 -6.500000e+00 5.000000e+00
      vertex -3.150000e+01 -4.250000e+00 1.102886e+00
      vertex -3.450000e+01 -4.250000e+00 1.102886e+00
    endloop
  endfacet
  facet normal 1.194737e-14 8.660254e-01 5.000000e-01
    outer loop
      vertex -3.150000e+01 -4.250000e+00 1.102886e+00
      vertex -3.450000e+01 -6.500000e+00 5.000000e+00
      vertex -3.150000e+01 -6.500000e+00 5.000000e+00
    endloop
  endfacet
  facet normal 2.838227e-14 -1.305262e-01 9.914449e-01
    outer loop
      vertex -3.650000e+01 -2.000000e+00 3.250000e+00
      vertex -3.450000e+01 -1.547058e+00 3.309630e+00
      vertex -3.650000e+01 -1.547058e+00 3.309630e+00
    endloop
  endfacet
  facet normal 2.838227e-14 -1.305262e-01 9.914449e-01
    outer loop
      vertex -3.450000e+01 -1.547058e+00 3.309630e+00
      vertex -3.650000e+01 -2.000000e+00 3.250000e+00
      vertex -3.450000e+01 -2.000000e+00 3.250000e+00
    endloop
  endfacet
  facet normal 2.937706e-14 1.305262e-01 9.914449e-01
    outer loop
      vertex -3.650000e+01 -2.452942e+00 3.309630e+00
      vertex -3.450000e+01 -2.000000e+00 3.250000e+00
      vertex -3.650000e+01 -2.000000e+00 3.250000e+00
    endloop
  endfacet
  facet normal 2.937706e-14 1.305262e-01 9.914449e-01
    outer loop
      vertex -3.450000e+01 -2.000000e+00 3.250000e+00
      vertex -3.650000e+01 -2.452942e+00 3.309630e+00
      vertex -3.450000e+01 -2.452942e+00 3.309630e+00
    endloop
  endfacet
  facet normal 2.836986e-14 3.826834e-01 9.238795e-01
    outer loop
      vertex -3.650000e+01 -2.875000e+00 3.484456e+00
      vertex -3.450000e+01 -2.452942e+00 3.309630e+00
      vertex -3.650000e+01 -2.452942e+00 3.309630e+00
    endloop
  endfacet
  facet normal 2.836986e-14 3.826834e-01 9.238795e-01
    outer loop
      vertex -3.450000e+01 -2.452942e+00 3.309630e+00
      vertex -3.650000e+01 -2.875000e+00 3.484456e+00
      vertex -3.450000e+01 -2.875000e+00 3.484456e+00
    endloop
  endfacet
  facet normal 2.542929e-14 6.087614e-01 7.933533e-01
    outer loop
      vertex -3.650000e+01 -3.237427e+00 3.762564e+00
      vertex -3.450000e+01 -2.875000e+00 3.484456e+00
      vertex -3.650000e+01 -2.875000e+00 3.484456e+00
    endloop
  endfacet
  facet normal 2.542929e-14 6.087614e-01 7.933533e-01
    outer loop
      vertex -3.450000e+01 -2.875000e+00 3.484456e+00
      vertex -3.650000e+01 -3.237427e+00 3.762564e+00
      vertex -3.450000e+01 -3.237427e+00 3.762564e+00
    endloop
  endfacet
  facet normal 2.075576e-14 7.933533e-01 6.087614e-01
    outer loop
      vertex -3.450000e+01 -3.515564e+00 4.125000e+00
      vertex -3.650000e+01 -3.237427e+00 3.762564e+00
      vertex -3.650000e+01 -3.515564e+00 4.125000e+00
    endloop
  endfacet
  facet normal 2.075576e-14 7.933533e-01 6.087614e-01
    outer loop
      vertex -3.650000e+01 -3.237427e+00 3.762564e+00
      vertex -3.450000e+01 -3.515564e+00 4.125000e+00
      vertex -3.450000e+01 -3.237427e+00 3.762564e+00
    endloop
  endfacet
  facet normal 1.466777e-14 9.238795e-01 3.826834e-01
    outer loop
      vertex -3.650000e+01 -3.690369e+00 4.547067e+00
      vertex -3.450000e+01 -3.515564e+00 4.125000e+00
      vertex -3.650000e+01 -3.515564e+00 4.125000e+00
    endloop
  endfacet
  facet normal 1.466777e-14 9.238795e-01 3.826834e-01
    outer loop
      vertex -3.450000e+01 -3.515564e+00 4.125000e+00
      vertex -3.650000e+01 -3.690369e+00 4.547067e+00
      vertex -3.450000e+01 -3.690369e+00 4.547067e+00
    endloop
  endfacet
  facet normal 7.580183e-15 9.914449e-01 1.305262e-01
    outer loop
      vertex -3.450000e+01 -3.750000e+00 5.000000e+00
      vertex -3.650000e+01 -3.690369e+00 4.547067e+00
      vertex -3.650000e+01 -3.750000e+00 5.000000e+00
    endloop
  endfacet
  facet normal 7.580183e-15 9.914449e-01 1.305262e-01
    outer loop
      vertex -3.650000e+01 -3.690369e+00 4.547067e+00
      vertex -3.450000e+01 -3.750000e+00 5.000000e+00
      vertex -3.450000e+01 -3.690369e+00 4.547067e+00
    endloop
  endfacet
  facet normal -2.397727e-17 9.914449e-01 -1.305262e-01
    outer loop
      vertex -3.450000e+01 -3.690369e+00 5.452933e+00
      vertex -3.650000e+01 -3.750000e+00 5.000000e+00
      vertex -3.650000e+01 -3.690369e+00 5.452933e+00
    endloop
  endfacet
  facet normal -2.397727e-17 9.914449e-01 -1.305262e-01
    outer loop
      vertex -3.650000e+01 -3.750000e+00 5.000000e+00
      vertex -3.450000e+01 -3.690369e+00 5.452933e+00
      vertex -3.450000e+01 -3.750000e+00 5.000000e+00
    endloop
  endfacet
  facet normal -7.626503e-15 9.238795e-01 -3.826834e-01
    outer loop
      vertex -3.450000e+01 -3.515564e+00 5.875000e+00
      vertex -3.650000e+01 -3.690369e+00 5.452933e+00
      vertex -3.650000e+01 -3.515564e+00 5.875000e+00
    endloop
  endfacet
  facet normal -7.626503e-15 9.238795e-01 -3.826834e-01
    outer loop
      vertex -3.650000e+01 -3.690369e+00 5.452933e+00
      vertex -3.450000e+01 -3.515564e+00 5.875000e+00
      vertex -3.450000e+01 -3.690369e+00 5.452933e+00
    endloop
  endfacet
  facet normal -1.470930e-14 7.933533e-01 -6.087614e-01
    outer loop
      vertex -3.650000e+01 -3.237427e+00 6.237437e+00
      vertex -3.450000e+01 -3.515564e+00 5.875000e+00
      vertex -3.650000e+01 -3.515564e+00 5.875000e+00
    endloop
  endfacet
  facet normal -1.470930e-14 7.933533e-01 -6.087614e-01
    outer loop
      vertex -3.450000e+01 -3.515564e+00 5.875000e+00
      vertex -3.650000e+01 -3.237427e+00 6.237437e+00
      vertex -3.450000e+01 -3.237427e+00 6.237437e+00
    endloop
  endfacet
  facet normal -2.078967e-14 6.087614e-01 -7.933533e-01
    outer loop
      vertex -3.450000e+01 -3.237427e+00 6.237437e+00
      vertex -3.650000e+01 -2.875000e+00 6.515545e+00
      vertex -3.450000e+01 -2.875000e+00 6.515545e+00
    endloop
  endfacet
  facet normal -2.078967e-14 6.087614e-01 -7.933533e-01
    outer loop
      vertex -3.650000e+01 -2.875000e+00 6.515545e+00
      vertex -3.450000e+01 -3.237427e+00 6.237437e+00
      vertex -3.650000e+01 -3.237427e+00 6.237437e+00
    endloop
  endfacet
  facet normal -2.545327e-14 3.826834e-01 -9.238795e-01
    outer loop
      vertex -3.450000e+01 -2.875000e+00 6.515545e+00
      vertex -3.650000e+01 -2.452942e+00 6.690371e+00
      vertex -3.450000e+01 -2.452942e+00 6.690371e+00
    endloop
  endfacet
  facet normal -2.545327e-14 3.826834e-01 -9.238795e-01
    outer loop
      vertex -3.650000e+01 -2.452942e+00 6.690371e+00
      vertex -3.450000e+01 -2.875000e+00 6.515545e+00
      vertex -3.650000e+01 -2.875000e+00 6.515545e+00
    endloop
  endfacet
  facet normal -2.838227e-14 1.305262e-01 -9.914449e-01
    outer loop
      vertex -3.450000e+01 -2.452942e+00 6.690371e+00
      vertex -3.650000e+01 -2.000000e+00 6.750000e+00
      vertex -3.450000e+01 -2.000000e+00 6.750000e+00
    endloop
  endfacet
  facet normal -2.838227e-14 1.305262e-01 -9.914449e-01
    outer loop
      vertex -3.650000e+01 -2.000000e+00 6.750000e+00
      vertex -3.450000e+01 -2.452942e+00 6.690371e+00
      vertex -3.650000e+01 -2.452942e+00 6.690371e+00
    endloop
  endfacet
  facet normal -2.937706e-14 -1.305262e-01 -9.914449e-01
    outer loop
      vertex -3.450000e+01 -2.000000e+00 6.750000e+00
      vertex -3.650000e+01 -1.547058e+00 6.690371e+00
      vertex -3.450000e+01 -1.547058e+00 6.690371e+00
    endloop
  endfacet
  facet normal -2.937706e-14 -1.305262e-01 -9.914449e-01
    outer loop
      vertex -3.650000e+01 -1.547058e+00 6.690371e+00
      vertex -3.450000e+01 -2.000000e+00 6.750000e+00
      vertex -3.650000e+01 -2.000000e+00 6.750000e+00
    endloop
  endfacet
  facet normal -2.836986e-14 -3.826834e-01 -9.238795e-01
    outer loop
      vertex -3.450000e+01 -1.547058e+00 6.690371e+00
      vertex -3.650000e+01 -1.125000e+00 6.515545e+00
      vertex -3.450000e+01 -1.125000e+00 6.515545e+00
    endloop
  endfacet
  facet normal -2.836986e-14 -3.826834e-01 -9.238795e-01
    outer loop
      vertex -3.650000e+01 -1.125000e+00 6.515545e+00
      vertex -3.450000e+01 -1.547058e+00 6.690371e+00
      vertex -3.650000e+01 -1.547058e+00 6.690371e+00
    endloop
  endfacet
  facet normal -2.542929e-14 -6.087614e-01 -7.933533e-01
    outer loop
      vertex -3.450000e+01 -1.125000e+00 6.515545e+00
      vertex -3.650000e+01 -7.625732e-01 6.237437e+00
      vertex -3.450000e+01 -7.625732e-01 6.237437e+00
    endloop
  endfacet
  facet normal -2.542929e-14 -6.087614e-01 -7.933533e-01
    outer loop
      vertex -3.650000e+01 -7.625732e-01 6.237437e+00
      vertex -3.450000e+01 -1.125000e+00 6.515545e+00
      vertex -3.650000e+01 -1.125000e+00 6.515545e+00
    endloop
  endfacet
  facet normal -2.075576e-14 -7.933533e-01 -6.087614e-01
    outer loop
      vertex -3.450000e+01 -4.844971e-01 5.875000e+00
      vertex -3.650000e+01 -7.625732e-01 6.237437e+00
      vertex -3.650000e+01 -4.844971e-01 5.875000e+00
    endloop
  endfacet
  facet normal -2.075576e-14 -7.933533e-01 -6.087614e-01
    outer loop
      vertex -3.650000e+01 -7.625732e-01 6.237437e+00
      vertex -3.450000e+01 -4.844971e-01 5.875000e+00
      vertex -3.450000e+01 -7.625732e-01 6.237437e+00
    endloop
  endfacet
  facet normal -1.466777e-14 -9.238795e-01 -3.826834e-01
    outer loop
      vertex -3.450000e+01 -3.096313e-01 5.452933e+00
      vertex -3.650000e+01 -4.844971e-01 5.875000e+00
      vertex -3.650000e+01 -3.096313e-01 5.452933e+00
    endloop
  endfacet
  facet normal -1.466777e-14 -9.238795e-01 -3.826834e-01
    outer loop
      vertex -3.650000e+01 -4.844971e-01 5.875000e+00
      vertex -3.450000e+01 -3.096313e-01 5.452933e+00
      vertex -3.450000e+01 -4.844971e-01 5.875000e+00
    endloop
  endfacet
  facet normal -7.580183e-15 -9.914449e-01 -1.305262e-01
    outer loop
      vertex -3.450000e+01 -2.500000e-01 5.000000e+00
      vertex -3.650000e+01 -3.096313e-01 5.452933e+00
      vertex -3.650000e+01 -2.500000e-01 5.000000e+00
    endloop
  endfacet
  facet normal -7.580183e-15 -9.914449e-01 -1.305262e-01
    outer loop
      vertex -3.650000e+01 -3.096313e-01 5.452933e+00
      vertex -3.450000e+01 -2.500000e-01 5.000000e+00
      vertex -3.450000e+01 -3.096313e-01 5.452933e+00
    endloop
  endfacet
  facet normal 2.397727e-17 -9.914449e-01 1.305262e-01
    outer loop
      vertex -3.450000e+01 -3.096313e-01 4.547067e+00
      vertex -3.650000e+01 -2.500000e-01 5.000000e+00
      vertex -3.650000e+01 -3.096313e-01 4.547067e+00
    endloop
  endfacet
  facet normal 2.397727e-17 -9.914449e-01 1.305262e-01
    outer loop
      vertex -3.650000e+01 -2.500000e-01 5.000000e+00
      vertex -3.450000e+01 -3.096313e-01 4.547067e+00
      vertex -3.450000e+01 -2.500000e-01 5.000000e+00
    endloop
  endfacet
  facet normal 7.626503e-15 -9.238795e-01 3.826834e-01
    outer loop
      vertex -3.450000e+01 -4.844971e-01 4.125000e+00
      vertex -3.650000e+01 -3.096313e-01 4.547067e+00
      vertex -3.650000e+01 -4.844971e-01 4.125000e+00
    endloop
  endfacet
  facet normal 7.626503e-15 -9.238795e-01 3.826834e-01
    outer loop
      vertex -3.650000e+01 -3.096313e-01 4.547067e+00
      vertex -3.450000e+01 -4.844971e-01 4.125000e+00
      vertex -3.450000e+01 -3.096313e-01 4.547067e+00
    endloop
  endfacet
  facet normal 1.470930e-14 -7.933533e-01 6.087614e-01
    outer loop
      vertex -3.450000e+01 -7.625732e-01 3.762564e+00
      vertex -3.650000e+01 -4.844971e-01 4.125000e+00
      vertex -3.650000e+01 -7.625732e-01 3.762564e+00
    endloop
  endfacet
  facet normal 1.470930e-14 -7.933533e-01 6.087614e-01
    outer loop
      vertex -3.650000e+01 -4.844971e-01 4.125000e+00
      vertex -3.450000e+01 -7.625732e-01 3.762564e+00
      vertex -3.450000e+01 -4.844971e-01 4.125000e+00
    endloop
  endfacet
  facet normal 2.078967e-14 -6.087614e-01 7.933533e-01
    outer loop
      vertex -3.650000e+01 -1.125000e+00 3.484456e+00
      vertex -3.450000e+01 -7.625732e-01 3.762564e+00
      vertex -3.650000e+01 -7.625732e-01 3.762564e+00
    endloop
  endfacet
  facet normal 2.078967e-14 -6.087614e-01 7.933533e-01
    outer loop
      vertex -3.450000e+01 -7.625732e-01 3.762564e+00
      vertex -3.650000e+01 -1.125000e+00 3.484456e+00
      vertex -3.450000e+01 -1.125000e+00 3.484456e+00
    endloop
  endfacet
  facet normal 2.545327e-14 -3.826834e-01 9.238795e-01
    outer loop
      vertex -3.650000e+01 -1.547058e+00 3.309630e+00
      vertex -3.450000e+01 -1.125000e+00 3.484456e+00
      vertex -3.650000e+01 -1.125000e+00 3.484456e+00
    endloop
  endfacet
  facet normal 2.545327e-14 -3.826834e-01 9.238795e-01
    outer loop
      vertex -3.450000e+01 -1.125000e+00 3.484456e+00
      vertex -3.650000e+01 -1.547058e+00 3.309630e+00
      vertex -3.450000e+01 -1.547058e+00 3.309630e+00
    endloop
  endfacet
endsolid Default
