solid Default
  facet normal 1.224647e-16 -1.000000e+00 0.000000e+00
    outer loop
      vertex 3.050000e+01 -1.000000e+01 3.552714e-15
      vertex 2.450000e+01 -1.000000e+01 6.000001e+00
      vertex 2.450000e+01 -1.000000e+01 3.552714e-15
    endloop
  endfacet
  facet normal 1.224647e-16 -1.000000e+00 0.000000e+00
    outer loop
      vertex 2.450000e+01 -1.000000e+01 6.000001e+00
      vertex 3.050000e+01 -1.000000e+01 3.552714e-15
      vertex 3.050000e+01 -1.000000e+01 6.000001e+00
    endloop
  endfacet
  facet normal -1.224647e-16 1.000000e+00 0.000000e+00
    outer loop
      vertex 1.550000e+01 1.000000e+01 6.000001e+00
      vertex -3.050000e+01 1.000000e+01 0.000000e+00
      vertex -3.050000e+01 1.000000e+01 6.000001e+00
    endloop
  endfacet
  facet normal -1.224647e-16 1.000000e+00 0.000000e+00
    outer loop
      vertex -3.050000e+01 1.000000e+01 0.000000e+00
      vertex 1.550000e+01 1.000000e+01 6.000001e+00
      vertex 1.550000e+01 1.000000e+01 0.000000e+00
    endloop
  endfacet
  facet normal -1.000000e+00 -1.224647e-16 -6.123234e-17
    outer loop
      vertex -3.050000e+01 7.000000e+00 6.000001e+00
      vertex -3.050000e+01 1.000000e+01 0.000000e+00
      vertex -3.050000e+01 7.000000e+00 0.000000e+00
    endloop
  endfacet
  facet normal -1.000000e+00 -1.224647e-16 -6.123234e-17
    outer loop
      vertex -3.050000e+01 1.000000e+01 0.000000e+00
      vertex -3.050000e+01 7.000000e+00 6.000001e+00
      vertex -3.050000e+01 1.000000e+01 6.000001e+00
    endloop
  endfacet
  facet normal 1.224647e-16 -1.000000e+00 0.000000e+00
    outer loop
      vertex 9.500000e+00 7.000000e+00 0.000000e+00
      vertex -3.050000e+01 7.000000e+00 6.000001e+00
      vertex -3.050000e+01 7.000000e+00 0.000000e+00
    endloop
  endfacet
  facet normal 1.224647e-16 -1.000000e+00 0.000000e+00
    outer loop
      vertex -3.050000e+01 7.000000e+00 6.000001e+00
      vertex 9.500000e+00 7.000000e+00 0.000000e+00
      vertex 9.500000e+00 7.000000e+00 6.000001e+00
    endloop
  endfacet
  facet normal -1.224647e-16 1.000000e+00 0.000000e+00
    outer loop
      vertex 2.904999e+01 -6.699951e+00 6.000001e+00
      vertex 2.694998e+01 -6.699951e+00 3.552714e-15
      vertex 2.694998e+01 -6.699951e+00 6.000001e+00
    endloop
  endfacet
  facet normal -1.224647e-16 1.000000e+00 0.000000e+00
    outer loop
      vertex 2.694998e+01 -6.699951e+00 3.552714e-15
      vertex 2.904999e+01 -6.699951e+00 6.000001e+00
      vertex 2.904999e+01 -6.699951e+00 3.552714e-15
    endloop
  endfacet
  facet normal 1.000000e+00 1.224647e-16 6.123234e-17
    outer loop
      vertex 2.694998e+01 -1.299927e+00 3.552714e-15
      vertex 2.694998e+01 -3.250000e+00 1.700962e+00
      vertex 2.694998e+01 -6.699951e+00 3.552714e-15
    endloop
  endfacet
  facet normal 1.000000e+00 1.224647e-16 6.123234e-17
    outer loop
      vertex 2.694998e+01 -3.250000e+00 1.700962e+00
      vertex 2.694998e+01 -1.299927e+00 3.552714e-15
      vertex 2.694998e+01 -2.939331e+00 1.939341e+00
    endloop
  endfacet
  facet normal 1.000000e+00 1.224647e-16 6.123234e-17
    outer loop
      vertex 2.694998e+01 -2.939331e+00 1.939341e+00
      vertex 2.694998e+01 -1.299927e+00 3.552714e-15
      vertex 2.694998e+01 -2.700928e+00 2.250000e+00
    endloop
  endfacet
  facet normal 1.000000e+00 1.224647e-16 6.123234e-17
    outer loop
      vertex 2.694998e+01 -2.700928e+00 2.250000e+00
      vertex 2.694998e+01 -1.299927e+00 3.552714e-15
      vertex 2.694998e+01 -2.551025e+00 2.611773e+00
    endloop
  endfacet
  facet normal 1.000000e+00 1.224647e-16 6.123234e-17
    outer loop
      vertex 2.694998e+01 -2.551025e+00 2.611773e+00
      vertex 2.694998e+01 -1.299927e+00 3.552714e-15
      vertex 2.694998e+01 -1.299927e+00 6.000001e+00
    endloop
  endfacet
  facet normal 1.000000e+00 1.224647e-16 6.123234e-17
    outer loop
      vertex 2.694998e+01 -6.699951e+00 3.552714e-15
      vertex 2.694998e+01 -3.250000e+00 1.700962e+00
      vertex 2.694998e+01 -3.611694e+00 1.551111e+00
    endloop
  endfacet
  facet normal 1.000000e+00 1.224647e-16 6.123234e-17
    outer loop
      vertex 2.694998e+01 -6.699951e+00 3.552714e-15
      vertex 2.694998e+01 -3.611694e+00 1.551111e+00
      vertex 2.694998e+01 -4.000000e+00 1.500000e+00
    endloop
  endfacet
  facet normal 1.000000e+00 1.224647e-16 6.123234e-17
    outer loop
      vertex 2.694998e+01 -2.551025e+00 2.611773e+00
      vertex 2.694998e+01 -1.299927e+00 6.000001e+00
      vertex 2.694998e+01 -2.500000e+00 3.000000e+00
    endloop
  endfacet
  facet normal 1.000000e+00 1.224647e-16 6.123234e-17
    outer loop
      vertex 2.694998e+01 -2.500000e+00 3.000000e+00
      vertex 2.694998e+01 -1.299927e+00 6.000001e+00
      vertex 2.694998e+01 -2.551025e+00 3.388229e+00
    endloop
  endfacet
  facet normal 1.000000e+00 1.224647e-16 6.123234e-17
    outer loop
      vertex 2.694998e+01 -2.551025e+00 3.388229e+00
      vertex 2.694998e+01 -1.299927e+00 6.000001e+00
      vertex 2.694998e+01 -2.700928e+00 3.750000e+00
    endloop
  endfacet
  facet normal 1.000000e+00 1.224647e-16 6.123234e-17
    outer loop
      vertex 2.694998e+01 -2.700928e+00 3.750000e+00
      vertex 2.694998e+01 -1.299927e+00 6.000001e+00
      vertex 2.694998e+01 -2.939331e+00 4.060661e+00
    endloop
  endfacet
  facet normal 1.000000e+00 1.224647e-16 6.123234e-17
    outer loop
      vertex 2.694998e+01 -2.939331e+00 4.060661e+00
      vertex 2.694998e+01 -1.299927e+00 6.000001e+00
      vertex 2.694998e+01 -3.250000e+00 4.299038e+00
    endloop
  endfacet
  facet normal 1.000000e+00 1.224647e-16 6.123234e-17
    outer loop
      vertex 2.694998e+01 -3.250000e+00 4.299038e+00
      vertex 2.694998e+01 -1.299927e+00 6.000001e+00
      vertex 2.694998e+01 -3.611694e+00 4.448889e+00
    endloop
  endfacet
  facet normal 1.000000e+00 1.224647e-16 6.123234e-17
    outer loop
      vertex 2.694998e+01 -3.611694e+00 4.448889e+00
      vertex 2.694998e+01 -1.299927e+00 6.000001e+00
      vertex 2.694998e+01 -4.000000e+00 4.500000e+00
    endloop
  endfacet
  facet normal 1.000000e+00 1.224647e-16 6.123234e-17
    outer loop
      vertex 2.694998e+01 -6.699951e+00 3.552714e-15
      vertex 2.694998e+01 -5.448853e+00 2.611773e+00
      vertex 2.694998e+01 -6.699951e+00 6.000001e+00
    endloop
  endfacet
  facet normal 1.000000e+00 1.224647e-16 6.123234e-17
    outer loop
      vertex 2.694998e+01 -5.448853e+00 2.611773e+00
      vertex 2.694998e+01 -6.699951e+00 3.552714e-15
      vertex 2.694998e+01 -5.298950e+00 2.250000e+00
    endloop
  endfacet
  facet normal 1.000000e+00 1.224647e-16 6.123234e-17
    outer loop
      vertex 2.694998e+01 -5.298950e+00 2.250000e+00
      vertex 2.694998e+01 -6.699951e+00 3.552714e-15
      vertex 2.694998e+01 -5.060669e+00 1.939341e+00
    endloop
  endfacet
  facet normal 1.000000e+00 1.224647e-16 6.123234e-17
    outer loop
      vertex 2.694998e+01 -5.060669e+00 1.939341e+00
      vertex 2.694998e+01 -6.699951e+00 3.552714e-15
      vertex 2.694998e+01 -4.750000e+00 1.700962e+00
    endloop
  endfacet
  facet normal 1.000000e+00 1.224647e-16 6.123234e-17
    outer loop
      vertex 2.694998e+01 -4.750000e+00 1.700962e+00
      vertex 2.694998e+01 -6.699951e+00 3.552714e-15
      vertex 2.694998e+01 -4.388184e+00 1.551111e+00
    endloop
  endfacet
  facet normal 1.000000e+00 1.224647e-16 6.123234e-17
    outer loop
      vertex 2.694998e+01 -4.388184e+00 1.551111e+00
      vertex 2.694998e+01 -6.699951e+00 3.552714e-15
      vertex 2.694998e+01 -4.000000e+00 1.500000e+00
    endloop
  endfacet
  facet normal 1.000000e+00 1.224647e-16 6.123234e-17
    outer loop
      vertex 2.694998e+01 -6.699951e+00 6.000001e+00
      vertex 2.694998e+01 -5.448853e+00 2.611773e+00
      vertex 2.694998e+01 -5.500000e+00 3.000000e+00
    endloop
  endfacet
  facet normal 1.000000e+00 1.224647e-16 6.123234e-17
    outer loop
      vertex 2.694998e+01 -6.699951e+00 6.000001e+00
      vertex 2.694998e+01 -5.500000e+00 3.000000e+00
      vertex 2.694998e+01 -5.448853e+00 3.388229e+00
    endloop
  endfacet
  facet normal 1.000000e+00 1.224647e-16 6.123234e-17
    outer loop
      vertex 2.694998e+01 -6.699951e+00 6.000001e+00
      vertex 2.694998e+01 -5.448853e+00 3.388229e+00
      vertex 2.694998e+01 -5.298950e+00 3.750000e+00
    endloop
  endfacet
  facet normal 1.000000e+00 1.224647e-16 6.123234e-17
    outer loop
      vertex 2.694998e+01 -6.699951e+00 6.000001e+00
      vertex 2.694998e+01 -5.298950e+00 3.750000e+00
      vertex 2.694998e+01 -5.060669e+00 4.060661e+00
    endloop
  endfacet
  facet normal 1.000000e+00 1.224647e-16 6.123234e-17
    outer loop
      vertex 2.694998e+01 -6.699951e+00 6.000001e+00
      vertex 2.694998e+01 -5.060669e+00 4.060661e+00
      vertex 2.694998e+01 -4.750000e+00 4.299038e+00
    endloop
  endfacet
  facet normal 1.000000e+00 1.224647e-16 6.123234e-17
    outer loop
      vertex 2.694998e+01 -6.699951e+00 6.000001e+00
      vertex 2.694998e+01 -4.750000e+00 4.299038e+00
      vertex 2.694998e+01 -4.388184e+00 4.448889e+00
    endloop
  endfacet
  facet normal 1.000000e+00 1.224647e-16 6.123234e-17
    outer loop
      vertex 2.694998e+01 -6.699951e+00 6.000001e+00
      vertex 2.694998e+01 -4.388184e+00 4.448889e+00
      vertex 2.694998e+01 -4.000000e+00 4.500000e+00
    endloop
  endfacet
  facet normal 1.000000e+00 1.224647e-16 6.123234e-17
    outer loop
      vertex 2.694998e+01 -6.699951e+00 6.000001e+00
      vertex 2.694998e+01 -4.000000e+00 4.500000e+00
      vertex 2.694998e+01 -1.299927e+00 6.000001e+00
    endloop
  endfacet
  facet normal 1.224647e-16 -1.000000e+00 0.000000e+00
    outer loop
      vertex 2.904999e+01 -1.299927e+00 3.552714e-15
      vertex 2.694998e+01 -1.299927e+00 6.000001e+00
      vertex 2.694998e+01 -1.299927e+00 3.552714e-15
    endloop
  endfacet
  facet normal 1.224647e-16 -1.000000e+00 0.000000e+00
    outer loop
      vertex 2.694998e+01 -1.299927e+00 6.000001e+00
      vertex 2.904999e+01 -1.299927e+00 3.552714e-15
      vertex 2.904999e+01 -1.299927e+00 6.000001e+00
    endloop
  endfacet
  facet normal -1.000000e+00 -1.224647e-16 -6.123234e-17
    outer loop
      vertex 2.904999e+01 -6.699951e+00 3.552714e-15
      vertex 2.904999e+01 -4.750000e+00 1.700962e+00
      vertex 2.904999e+01 -1.299927e+00 3.552714e-15
    endloop
  endfacet
  facet normal -1.000000e+00 -1.224647e-16 -6.123234e-17
    outer loop
      vertex 2.904999e+01 -4.750000e+00 1.700962e+00
      vertex 2.904999e+01 -6.699951e+00 3.552714e-15
      vertex 2.904999e+01 -5.060669e+00 1.939341e+00
    endloop
  endfacet
  facet normal -1.000000e+00 -1.224647e-16 -6.123234e-17
    outer loop
      vertex 2.904999e+01 -5.060669e+00 1.939341e+00
      vertex 2.904999e+01 -6.699951e+00 3.552714e-15
      vertex 2.904999e+01 -5.298950e+00 2.250000e+00
    endloop
  endfacet
  facet normal -1.000000e+00 -1.224647e-16 -6.123234e-17
    outer loop
      vertex 2.904999e+01 -5.298950e+00 2.250000e+00
      vertex 2.904999e+01 -6.699951e+00 3.552714e-15
      vertex 2.904999e+01 -5.448853e+00 2.611773e+00
    endloop
  endfacet
  facet normal -1.000000e+00 -1.224647e-16 -6.123234e-17
    outer loop
      vertex 2.904999e+01 -5.448853e+00 2.611773e+00
      vertex 2.904999e+01 -6.699951e+00 3.552714e-15
      vertex 2.904999e+01 -6.699951e+00 6.000001e+00
    endloop
  endfacet
  facet normal -1.000000e+00 -1.224647e-16 -6.123234e-17
    outer loop
      vertex 2.904999e+01 -1.299927e+00 3.552714e-15
      vertex 2.904999e+01 -4.750000e+00 1.700962e+00
      vertex 2.904999e+01 -4.388184e+00 1.551111e+00
    endloop
  endfacet
  facet normal -1.000000e+00 -1.224647e-16 -6.123234e-17
    outer loop
      vertex 2.904999e+01 -1.299927e+00 3.552714e-15
      vertex 2.904999e+01 -4.388184e+00 1.551111e+00
      vertex 2.904999e+01 -4.000000e+00 1.500000e+00
    endloop
  endfacet
  facet normal -1.000000e+00 -1.224647e-16 -6.123234e-17
    outer loop
      vertex 2.904999e+01 -5.448853e+00 2.611773e+00
      vertex 2.904999e+01 -6.699951e+00 6.000001e+00
      vertex 2.904999e+01 -5.500000e+00 3.000000e+00
    endloop
  endfacet
  facet normal -1.000000e+00 -1.224647e-16 -6.123234e-17
    outer loop
      vertex 2.904999e+01 -5.500000e+00 3.000000e+00
      vertex 2.904999e+01 -6.699951e+00 6.000001e+00
      vertex 2.904999e+01 -5.448853e+00 3.388229e+00
    endloop
  endfacet
  facet normal -1.000000e+00 -1.224647e-16 -6.123234e-17
    outer loop
      vertex 2.904999e+01 -5.448853e+00 3.388229e+00
      vertex 2.904999e+01 -6.699951e+00 6.000001e+00
      vertex 2.904999e+01 -5.298950e+00 3.750000e+00
    endloop
  endfacet
  facet normal -1.000000e+00 -1.224647e-16 -6.123234e-17
    outer loop
      vertex 2.904999e+01 -5.298950e+00 3.750000e+00
      vertex 2.904999e+01 -6.699951e+00 6.000001e+00
      vertex 2.904999e+01 -5.060669e+00 4.060661e+00
    endloop
  endfacet
  facet normal -1.000000e+00 -1.224647e-16 -6.123234e-17
    outer loop
      vertex 2.904999e+01 -5.060669e+00 4.060661e+00
      vertex 2.904999e+01 -6.699951e+00 6.000001e+00
      vertex 2.904999e+01 -4.750000e+00 4.299038e+00
    endloop
  endfacet
  facet normal -1.000000e+00 -1.224647e-16 -6.123234e-17
    outer loop
      vertex 2.904999e+01 -4.750000e+00 4.299038e+00
      vertex 2.904999e+01 -6.699951e+00 6.000001e+00
      vertex 2.904999e+01 -4.388184e+00 4.448889e+00
    endloop
  endfacet
  facet normal -1.000000e+00 -1.224647e-16 -6.123234e-17
    outer loop
      vertex 2.904999e+01 -4.388184e+00 4.448889e+00
      vertex 2.904999e+01 -6.699951e+00 6.000001e+00
      vertex 2.904999e+01 -4.000000e+00 4.500000e+00
    endloop
  endfacet
  facet normal -1.000000e+00 -1.224647e-16 -6.123234e-17
    outer loop
      vertex 2.904999e+01 -1.299927e+00 3.552714e-15
      vertex 2.904999e+01 -2.551025e+00 2.611773e+00
      vertex 2.904999e+01 -1.299927e+00 6.000001e+00
    endloop
  endfacet
  facet normal -1.000000e+00 -1.224647e-16 -6.123234e-17
    outer loop
      vertex 2.904999e+01 -2.551025e+00 2.611773e+00
      vertex 2.904999e+01 -1.299927e+00 3.552714e-15
      vertex 2.904999e+01 -2.700928e+00 2.250000e+00
    endloop
  endfacet
  facet normal -1.000000e+00 -1.224647e-16 -6.123234e-17
    outer loop
      vertex 2.904999e+01 -2.700928e+00 2.250000e+00
      vertex 2.904999e+01 -1.299927e+00 3.552714e-15
      vertex 2.904999e+01 -2.939331e+00 1.939341e+00
    endloop
  endfacet
  facet normal -1.000000e+00 -1.224647e-16 -6.123234e-17
    outer loop
      vertex 2.904999e+01 -2.939331e+00 1.939341e+00
      vertex 2.904999e+01 -1.299927e+00 3.552714e-15
      vertex 2.904999e+01 -3.250000e+00 1.700962e+00
    endloop
  endfacet
  facet normal -1.000000e+00 -1.224647e-16 -6.123234e-17
    outer loop
      vertex 2.904999e+01 -3.250000e+00 1.700962e+00
      vertex 2.904999e+01 -1.299927e+00 3.552714e-15
      vertex 2.904999e+01 -3.611694e+00 1.551111e+00
    endloop
  endfacet
  facet normal -1.000000e+00 -1.224647e-16 -6.123234e-17
    outer loop
      vertex 2.904999e+01 -3.611694e+00 1.551111e+00
      vertex 2.904999e+01 -1.299927e+00 3.552714e-15
      vertex 2.904999e+01 -4.000000e+00 1.500000e+00
    endloop
  endfacet
  facet normal -1.000000e+00 -1.224647e-16 -6.123234e-17
    outer loop
      vertex 2.904999e+01 -1.299927e+00 6.000001e+00
      vertex 2.904999e+01 -2.551025e+00 2.611773e+00
      vertex 2.904999e+01 -2.500000e+00 3.000000e+00
    endloop
  endfacet
  facet normal -1.000000e+00 -1.224647e-16 -6.123234e-17
    outer loop
      vertex 2.904999e+01 -1.299927e+00 6.000001e+00
      vertex 2.904999e+01 -2.500000e+00 3.000000e+00
      vertex 2.904999e+01 -2.551025e+00 3.388229e+00
    endloop
  endfacet
  facet normal -1.000000e+00 -1.224647e-16 -6.123234e-17
    outer loop
      vertex 2.904999e+01 -1.299927e+00 6.000001e+00
      vertex 2.904999e+01 -2.551025e+00 3.388229e+00
      vertex 2.904999e+01 -2.700928e+00 3.750000e+00
    endloop
  endfacet
  facet normal -1.000000e+00 -1.224647e-16 -6.123234e-17
    outer loop
      vertex 2.904999e+01 -1.299927e+00 6.000001e+00
      vertex 2.904999e+01 -2.700928e+00 3.750000e+00
      vertex 2.904999e+01 -2.939331e+00 4.060661e+00
    endloop
  endfacet
  facet normal -1.000000e+00 -1.224647e-16 -6.123234e-17
    outer loop
      vertex 2.904999e+01 -1.299927e+00 6.000001e+00
      vertex 2.904999e+01 -2.939331e+00 4.060661e+00
      vertex 2.904999e+01 -3.250000e+00 4.299038e+00
    endloop
  endfacet
  facet normal -1.000000e+00 -1.224647e-16 -6.123234e-17
    outer loop
      vertex 2.904999e+01 -1.299927e+00 6.000001e+00
      vertex 2.904999e+01 -3.250000e+00 4.299038e+00
      vertex 2.904999e+01 -3.611694e+00 4.448889e+00
    endloop
  endfacet
  facet normal -1.000000e+00 -1.224647e-16 -6.123234e-17
    outer loop
      vertex 2.904999e+01 -1.299927e+00 6.000001e+00
      vertex 2.904999e+01 -3.611694e+00 4.448889e+00
      vertex 2.904999e+01 -4.000000e+00 4.500000e+00
    endloop
  endfacet
  facet normal -1.000000e+00 -1.224647e-16 -6.123234e-17
    outer loop
      vertex 2.904999e+01 -1.299927e+00 6.000001e+00
      vertex 2.904999e+01 -4.000000e+00 4.500000e+00
      vertex 2.904999e+01 -6.699951e+00 6.000001e+00
    endloop
  endfacet
  facet normal 8.568129e-17 -9.238795e-01 3.826834e-01
    outer loop
      vertex 3.050000e+01 -2.700928e+00 2.250000e+00
      vertex 2.904999e+01 -2.551025e+00 2.611773e+00
      vertex 2.904999e+01 -2.700928e+00 2.250000e+00
    endloop
  endfacet
  facet normal 8.568129e-17 -9.238795e-01 3.826834e-01
    outer loop
      vertex 2.904999e+01 -2.551025e+00 2.611773e+00
      vertex 3.050000e+01 -2.700928e+00 2.250000e+00
      vertex 3.050000e+01 -2.551025e+00 2.611773e+00
    endloop
  endfacet
  facet normal 1.134246e-16 -9.914449e-01 1.305262e-01
    outer loop
      vertex 3.050000e+01 -2.551025e+00 2.611773e+00
      vertex 2.904999e+01 -2.500000e+00 3.000000e+00
      vertex 2.904999e+01 -2.551025e+00 2.611773e+00
    endloop
  endfacet
  facet normal 1.134246e-16 -9.914449e-01 1.305262e-01
    outer loop
      vertex 2.904999e+01 -2.500000e+00 3.000000e+00
      vertex 3.050000e+01 -2.551025e+00 2.611773e+00
      vertex 3.050000e+01 -2.500000e+00 3.000000e+00
    endloop
  endfacet
  facet normal 1.294094e-16 -9.914449e-01 -1.305262e-01
    outer loop
      vertex 3.050000e+01 -2.500000e+00 3.000000e+00
      vertex 2.904999e+01 -2.551025e+00 3.388229e+00
      vertex 2.904999e+01 -2.500000e+00 3.000000e+00
    endloop
  endfacet
  facet normal 1.294094e-16 -9.914449e-01 -1.305262e-01
    outer loop
      vertex 2.904999e+01 -2.551025e+00 3.388229e+00
      vertex 3.050000e+01 -2.500000e+00 3.000000e+00
      vertex 3.050000e+01 -2.551025e+00 3.388229e+00
    endloop
  endfacet
  facet normal 1.365752e-16 -9.238795e-01 -3.826834e-01
    outer loop
      vertex 3.050000e+01 -2.551025e+00 3.388229e+00
      vertex 2.904999e+01 -2.700928e+00 3.750000e+00
      vertex 2.904999e+01 -2.551025e+00 3.388229e+00
    endloop
  endfacet
  facet normal 1.365752e-16 -9.238795e-01 -3.826834e-01
    outer loop
      vertex 2.904999e+01 -2.700928e+00 3.750000e+00
      vertex 3.050000e+01 -2.551025e+00 3.388229e+00
      vertex 3.050000e+01 -2.700928e+00 3.750000e+00
    endloop
  endfacet
  facet normal 1.344336e-16 -7.933533e-01 -6.087614e-01
    outer loop
      vertex 3.050000e+01 -2.700928e+00 3.750000e+00
      vertex 2.904999e+01 -2.939331e+00 4.060661e+00
      vertex 2.904999e+01 -2.700928e+00 3.750000e+00
    endloop
  endfacet
  facet normal 1.344336e-16 -7.933533e-01 -6.087614e-01
    outer loop
      vertex 2.904999e+01 -2.939331e+00 4.060661e+00
      vertex 3.050000e+01 -2.700928e+00 3.750000e+00
      vertex 3.050000e+01 -2.939331e+00 4.060661e+00
    endloop
  endfacet
  facet normal 1.231307e-16 -6.087614e-01 -7.933533e-01
    outer loop
      vertex 3.050000e+01 -3.250000e+00 4.299038e+00
      vertex 2.904999e+01 -2.939331e+00 4.060661e+00
      vertex 3.050000e+01 -2.939331e+00 4.060661e+00
    endloop
  endfacet
  facet normal 1.231307e-16 -6.087614e-01 -7.933533e-01
    outer loop
      vertex 2.904999e+01 -2.939331e+00 4.060661e+00
      vertex 3.050000e+01 -3.250000e+00 4.299038e+00
      vertex 2.904999e+01 -3.250000e+00 4.299038e+00
    endloop
  endfacet
  facet normal 1.034365e-16 -3.826834e-01 -9.238795e-01
    outer loop
      vertex 3.050000e+01 -3.611694e+00 4.448889e+00
      vertex 2.904999e+01 -3.250000e+00 4.299038e+00
      vertex 3.050000e+01 -3.250000e+00 4.299038e+00
    endloop
  endfacet
  facet normal 1.034365e-16 -3.826834e-01 -9.238795e-01
    outer loop
      vertex 2.904999e+01 -3.250000e+00 4.299038e+00
      vertex 3.050000e+01 -3.611694e+00 4.448889e+00
      vertex 2.904999e+01 -3.611694e+00 4.448889e+00
    endloop
  endfacet
  facet normal 7.669334e-17 -1.305262e-01 -9.914449e-01
    outer loop
      vertex 3.050000e+01 -4.000000e+00 4.500000e+00
      vertex 2.904999e+01 -3.611694e+00 4.448889e+00
      vertex 3.050000e+01 -3.611694e+00 4.448889e+00
    endloop
  endfacet
  facet normal 7.669334e-17 -1.305262e-01 -9.914449e-01
    outer loop
      vertex 2.904999e+01 -3.611694e+00 4.448889e+00
      vertex 3.050000e+01 -4.000000e+00 4.500000e+00
      vertex 2.904999e+01 -4.000000e+00 4.500000e+00
    endloop
  endfacet
  facet normal 4.472364e-17 1.305262e-01 -9.914449e-01
    outer loop
      vertex 3.050000e+01 -4.388184e+00 4.448889e+00
      vertex 2.904999e+01 -4.000000e+00 4.500000e+00
      vertex 3.050000e+01 -4.000000e+00 4.500000e+00
    endloop
  endfacet
  facet normal 4.472364e-17 1.305262e-01 -9.914449e-01
    outer loop
      vertex 2.904999e+01 -4.000000e+00 4.500000e+00
      vertex 3.050000e+01 -4.388184e+00 4.448889e+00
      vertex 2.904999e+01 -4.388184e+00 4.448889e+00
    endloop
  endfacet
  facet normal 9.706101e-18 3.826834e-01 -9.238795e-01
    outer loop
      vertex 3.050000e+01 -4.750000e+00 4.299038e+00
      vertex 2.904999e+01 -4.388184e+00 4.448889e+00
      vertex 3.050000e+01 -4.388184e+00 4.448889e+00
    endloop
  endfacet
  facet normal 9.706101e-18 3.826834e-01 -9.238795e-01
    outer loop
      vertex 2.904999e+01 -4.388184e+00 4.448889e+00
      vertex 3.050000e+01 -4.750000e+00 4.299038e+00
      vertex 2.904999e+01 -4.750000e+00 4.299038e+00
    endloop
  endfacet
  facet normal -2.597289e-17 6.087614e-01 -7.933533e-01
    outer loop
      vertex 3.050000e+01 -5.060669e+00 4.060661e+00
      vertex 2.904999e+01 -4.750000e+00 4.299038e+00
      vertex 3.050000e+01 -4.750000e+00 4.299038e+00
    endloop
  endfacet
  facet normal -2.597289e-17 6.087614e-01 -7.933533e-01
    outer loop
      vertex 2.904999e+01 -4.750000e+00 4.299038e+00
      vertex 3.050000e+01 -5.060669e+00 4.060661e+00
      vertex 2.904999e+01 -5.060669e+00 4.060661e+00
    endloop
  endfacet
  facet normal -5.988187e-17 7.933533e-01 -6.087614e-01
    outer loop
      vertex 3.050000e+01 -5.060669e+00 4.060661e+00
      vertex 2.904999e+01 -5.298950e+00 3.750000e+00
      vertex 2.904999e+01 -5.060669e+00 4.060661e+00
    endloop
  endfacet
  facet normal -5.988187e-17 7.933533e-01 -6.087614e-01
    outer loop
      vertex 2.904999e+01 -5.298950e+00 3.750000e+00
      vertex 3.050000e+01 -5.060669e+00 4.060661e+00
      vertex 3.050000e+01 -5.298950e+00 3.750000e+00
    endloop
  endfacet
  facet normal -8.971001e-17 9.238795e-01 -3.826834e-01
    outer loop
      vertex 3.050000e+01 -5.298950e+00 3.750000e+00
      vertex 2.904999e+01 -5.448853e+00 3.388229e+00
      vertex 2.904999e+01 -5.298950e+00 3.750000e+00
    endloop
  endfacet
  facet normal -8.971001e-17 9.238795e-01 -3.826834e-01
    outer loop
      vertex 2.904999e+01 -5.448853e+00 3.388229e+00
      vertex 3.050000e+01 -5.298950e+00 3.750000e+00
      vertex 3.050000e+01 -5.448853e+00 3.388229e+00
    endloop
  endfacet
  facet normal -1.134246e-16 9.914449e-01 -1.305262e-01
    outer loop
      vertex 3.050000e+01 -5.448853e+00 3.388229e+00
      vertex 2.904999e+01 -5.500000e+00 3.000000e+00
      vertex 2.904999e+01 -5.448853e+00 3.388229e+00
    endloop
  endfacet
  facet normal -1.134246e-16 9.914449e-01 -1.305262e-01
    outer loop
      vertex 2.904999e+01 -5.500000e+00 3.000000e+00
      vertex 3.050000e+01 -5.448853e+00 3.388229e+00
      vertex 3.050000e+01 -5.500000e+00 3.000000e+00
    endloop
  endfacet
  facet normal -1.294094e-16 9.914449e-01 1.305262e-01
    outer loop
      vertex 3.050000e+01 -5.500000e+00 3.000000e+00
      vertex 2.904999e+01 -5.448853e+00 2.611773e+00
      vertex 2.904999e+01 -5.500000e+00 3.000000e+00
    endloop
  endfacet
  facet normal -1.294094e-16 9.914449e-01 1.305262e-01
    outer loop
      vertex 2.904999e+01 -5.448853e+00 2.611773e+00
      vertex 3.050000e+01 -5.500000e+00 3.000000e+00
      vertex 3.050000e+01 -5.448853e+00 2.611773e+00
    endloop
  endfacet
  facet normal -1.365752e-16 9.238795e-01 3.826834e-01
    outer loop
      vertex 3.050000e+01 -5.448853e+00 2.611773e+00
      vertex 2.904999e+01 -5.298950e+00 2.250000e+00
      vertex 2.904999e+01 -5.448853e+00 2.611773e+00
    endloop
  endfacet
  facet normal -1.365752e-16 9.238795e-01 3.826834e-01
    outer loop
      vertex 2.904999e+01 -5.298950e+00 2.250000e+00
      vertex 3.050000e+01 -5.448853e+00 2.611773e+00
      vertex 3.050000e+01 -5.298950e+00 2.250000e+00
    endloop
  endfacet
  facet normal -1.344336e-16 7.933533e-01 6.087614e-01
    outer loop
      vertex 3.050000e+01 -5.298950e+00 2.250000e+00
      vertex 2.904999e+01 -5.060669e+00 1.939341e+00
      vertex 2.904999e+01 -5.298950e+00 2.250000e+00
    endloop
  endfacet
  facet normal -1.344336e-16 7.933533e-01 6.087614e-01
    outer loop
      vertex 2.904999e+01 -5.060669e+00 1.939341e+00
      vertex 3.050000e+01 -5.298950e+00 2.250000e+00
      vertex 3.050000e+01 -5.060669e+00 1.939341e+00
    endloop
  endfacet
  facet normal -1.231307e-16 6.087614e-01 7.933533e-01
    outer loop
      vertex 2.904999e+01 -5.060669e+00 1.939341e+00
      vertex 3.050000e+01 -4.750000e+00 1.700962e+00
      vertex 2.904999e+01 -4.750000e+00 1.700962e+00
    endloop
  endfacet
  facet normal -1.231307e-16 6.087614e-01 7.933533e-01
    outer loop
      vertex 3.050000e+01 -4.750000e+00 1.700962e+00
      vertex 2.904999e+01 -5.060669e+00 1.939341e+00
      vertex 3.050000e+01 -5.060669e+00 1.939341e+00
    endloop
  endfacet
  facet normal -1.034365e-16 3.826834e-01 9.238795e-01
    outer loop
      vertex 2.904999e+01 -4.750000e+00 1.700962e+00
      vertex 3.050000e+01 -4.388184e+00 1.551111e+00
      vertex 2.904999e+01 -4.388184e+00 1.551111e+00
    endloop
  endfacet
  facet normal -1.034365e-16 3.826834e-01 9.238795e-01
    outer loop
      vertex 3.050000e+01 -4.388184e+00 1.551111e+00
      vertex 2.904999e+01 -4.750000e+00 1.700962e+00
      vertex 3.050000e+01 -4.750000e+00 1.700962e+00
    endloop
  endfacet
  facet normal -7.669334e-17 1.305262e-01 9.914449e-01
    outer loop
      vertex 2.904999e+01 -4.388184e+00 1.551111e+00
      vertex 3.050000e+01 -4.000000e+00 1.500000e+00
      vertex 2.904999e+01 -4.000000e+00 1.500000e+00
    endloop
  endfacet
  facet normal -7.669334e-17 1.305262e-01 9.914449e-01
    outer loop
      vertex 3.050000e+01 -4.000000e+00 1.500000e+00
      vertex 2.904999e+01 -4.388184e+00 1.551111e+00
      vertex 3.050000e+01 -4.388184e+00 1.551111e+00
    endloop
  endfacet
  facet normal -4.472364e-17 -1.305262e-01 9.914449e-01
    outer loop
      vertex 2.904999e+01 -4.000000e+00 1.500000e+00
      vertex 3.050000e+01 -3.611694e+00 1.551111e+00
      vertex 2.904999e+01 -3.611694e+00 1.551111e+00
    endloop
  endfacet
  facet normal -4.472364e-17 -1.305262e-01 9.914449e-01
    outer loop
      vertex 3.050000e+01 -3.611694e+00 1.551111e+00
      vertex 2.904999e+01 -4.000000e+00 1.500000e+00
      vertex 3.050000e+01 -4.000000e+00 1.500000e+00
    endloop
  endfacet
  facet normal -9.706101e-18 -3.826834e-01 9.238795e-01
    outer loop
      vertex 2.904999e+01 -3.611694e+00 1.551111e+00
      vertex 3.050000e+01 -3.250000e+00 1.700962e+00
      vertex 2.904999e+01 -3.250000e+00 1.700962e+00
    endloop
  endfacet
  facet normal -9.706101e-18 -3.826834e-01 9.238795e-01
    outer loop
      vertex 3.050000e+01 -3.250000e+00 1.700962e+00
      vertex 2.904999e+01 -3.611694e+00 1.551111e+00
      vertex 3.050000e+01 -3.611694e+00 1.551111e+00
    endloop
  endfacet
  facet normal 2.597289e-17 -6.087614e-01 7.933533e-01
    outer loop
      vertex 2.904999e+01 -3.250000e+00 1.700962e+00
      vertex 3.050000e+01 -2.939331e+00 1.939341e+00
      vertex 2.904999e+01 -2.939331e+00 1.939341e+00
    endloop
  endfacet
  facet normal 2.597289e-17 -6.087614e-01 7.933533e-01
    outer loop
      vertex 3.050000e+01 -2.939331e+00 1.939341e+00
      vertex 2.904999e+01 -3.250000e+00 1.700962e+00
      vertex 3.050000e+01 -3.250000e+00 1.700962e+00
    endloop
  endfacet
  facet normal 5.988187e-17 -7.933533e-01 6.087614e-01
    outer loop
      vertex 3.050000e+01 -2.939331e+00 1.939341e+00
      vertex 2.904999e+01 -2.700928e+00 2.250000e+00
      vertex 2.904999e+01 -2.939331e+00 1.939341e+00
    endloop
  endfacet
  facet normal 5.988187e-17 -7.933533e-01 6.087614e-01
    outer loop
      vertex 2.904999e+01 -2.700928e+00 2.250000e+00
      vertex 3.050000e+01 -2.939331e+00 1.939341e+00
      vertex 3.050000e+01 -2.700928e+00 2.250000e+00
    endloop
  endfacet
  facet normal -1.000000e+00 -1.224647e-16 -6.123234e-17
    outer loop
      vertex 9.500000e+00 -1.000000e+00 0.000000e+00
      vertex 9.500000e+00 7.000000e+00 6.000001e+00
      vertex 9.500000e+00 7.000000e+00 0.000000e+00
    endloop
  endfacet
  facet normal -1.000000e+00 -1.224647e-16 -6.123234e-17
    outer loop
      vertex 9.500000e+00 7.000000e+00 6.000001e+00
      vertex 9.500000e+00 -1.000000e+00 0.000000e+00
      vertex 9.500000e+00 -1.000000e+00 6.000001e+00
    endloop
  endfacet
  facet normal 1.000000e+00 -5.092078e-16 6.123234e-17
    outer loop
      vertex 1.550000e+01 1.000000e+01 6.000001e+00
      vertex 1.550000e+01 5.000000e+00 0.000000e+00
      vertex 1.550000e+01 1.000000e+01 0.000000e+00
    endloop
  endfacet
  facet normal 1.000000e+00 -5.092078e-16 6.123234e-17
    outer loop
      vertex 1.550000e+01 5.000000e+00 0.000000e+00
      vertex 1.550000e+01 1.000000e+01 6.000001e+00
      vertex 1.550000e+01 5.000000e+00 6.000001e+00
    endloop
  endfacet
  facet normal 5.092078e-16 1.000000e+00 3.867878e-32
    outer loop
      vertex 3.050000e+01 5.000000e+00 6.000001e+00
      vertex 1.550000e+01 5.000000e+00 0.000000e+00
      vertex 1.550000e+01 5.000000e+00 6.000001e+00
    endloop
  endfacet
  facet normal 5.092078e-16 1.000000e+00 3.867878e-32
    outer loop
      vertex 1.550000e+01 5.000000e+00 0.000000e+00
      vertex 3.050000e+01 5.000000e+00 6.000001e+00
      vertex 3.050000e+01 5.000000e+00 3.552714e-15
    endloop
  endfacet
  facet normal -1.231307e-16 6.087614e-01 7.933533e-01
    outer loop
      vertex 2.450000e+01 -5.060669e+00 1.939341e+00
      vertex 2.694998e+01 -4.750000e+00 1.700962e+00
      vertex 2.450000e+01 -4.750000e+00 1.700962e+00
    endloop
  endfacet
  facet normal -1.231307e-16 6.087614e-01 7.933533e-01
    outer loop
      vertex 2.694998e+01 -4.750000e+00 1.700962e+00
      vertex 2.450000e+01 -5.060669e+00 1.939341e+00
      vertex 2.694998e+01 -5.060669e+00 1.939341e+00
    endloop
  endfacet
  facet normal -8.971001e-17 9.238795e-01 -3.826834e-01
    outer loop
      vertex 2.694998e+01 -5.298950e+00 3.750000e+00
      vertex 2.450000e+01 -5.448853e+00 3.388229e+00
      vertex 2.450000e+01 -5.298950e+00 3.750000e+00
    endloop
  endfacet
  facet normal -8.971001e-17 9.238795e-01 -3.826834e-01
    outer loop
      vertex 2.450000e+01 -5.448853e+00 3.388229e+00
      vertex 2.694998e+01 -5.298950e+00 3.750000e+00
      vertex 2.694998e+01 -5.448853e+00 3.388229e+00
    endloop
  endfacet
  facet normal -2.597289e-17 6.087614e-01 -7.933533e-01
    outer loop
      vertex 2.694998e+01 -5.060669e+00 4.060661e+00
      vertex 2.450000e+01 -4.750000e+00 4.299038e+00
      vertex 2.694998e+01 -4.750000e+00 4.299038e+00
    endloop
  endfacet
  facet normal -2.597289e-17 6.087614e-01 -7.933533e-01
    outer loop
      vertex 2.450000e+01 -4.750000e+00 4.299038e+00
      vertex 2.694998e+01 -5.060669e+00 4.060661e+00
      vertex 2.450000e+01 -5.060669e+00 4.060661e+00
    endloop
  endfacet
  facet normal 2.845801e-16 -2.969257e-15 -1.000000e+00
    outer loop
      vertex 3.050000e+01 5.000000e+00 3.552714e-15
      vertex 2.904999e+01 -1.299927e+00 3.552714e-15
      vertex 1.550000e+01 5.000000e+00 0.000000e+00
    endloop
  endfacet
  facet normal 2.845801e-16 -2.969257e-15 -1.000000e+00
    outer loop
      vertex 2.904999e+01 -1.299927e+00 3.552714e-15
      vertex 3.050000e+01 5.000000e+00 3.552714e-15
      vertex 3.050000e+01 -1.000000e+01 3.552714e-15
    endloop
  endfacet
  facet normal 2.845801e-16 -2.969257e-15 -1.000000e+00
    outer loop
      vertex 1.550000e+01 5.000000e+00 0.000000e+00
      vertex 2.904999e+01 -1.299927e+00 3.552714e-15
      vertex 2.450000e+01 -1.000000e+00 3.552714e-15
    endloop
  endfacet
  facet normal 2.845801e-16 -2.969257e-15 -1.000000e+00
    outer loop
      vertex 2.904999e+01 -1.299927e+00 3.552714e-15
      vertex 3.050000e+01 -1.000000e+01 3.552714e-15
      vertex 2.904999e+01 -6.699951e+00 3.552714e-15
    endloop
  endfacet
  facet normal 2.845801e-16 -2.969257e-15 -1.000000e+00
    outer loop
      vertex 2.904999e+01 -6.699951e+00 3.552714e-15
      vertex 3.050000e+01 -1.000000e+01 3.552714e-15
      vertex 2.694998e+01 -6.699951e+00 3.552714e-15
    endloop
  endfacet
  facet normal 2.845801e-16 -2.969257e-15 -1.000000e+00
    outer loop
      vertex 2.450000e+01 -1.000000e+00 3.552714e-15
      vertex 2.694998e+01 -1.299927e+00 3.552714e-15
      vertex 2.450000e+01 -1.000000e+01 3.552714e-15
    endloop
  endfacet
  facet normal 2.845801e-16 -2.969257e-15 -1.000000e+00
    outer loop
      vertex 2.694998e+01 -1.299927e+00 3.552714e-15
      vertex 2.450000e+01 -1.000000e+00 3.552714e-15
      vertex 2.904999e+01 -1.299927e+00 3.552714e-15
    endloop
  endfacet
  facet normal 2.845801e-16 -2.969257e-15 -1.000000e+00
    outer loop
      vertex 2.450000e+01 -1.000000e+01 3.552714e-15
      vertex 2.694998e+01 -1.299927e+00 3.552714e-15
      vertex 2.694998e+01 -6.699951e+00 3.552714e-15
    endloop
  endfacet
  facet normal 2.845801e-16 -2.969257e-15 -1.000000e+00
    outer loop
      vertex 2.450000e+01 -1.000000e+01 3.552714e-15
      vertex 2.694998e+01 -6.699951e+00 3.552714e-15
      vertex 3.050000e+01 -1.000000e+01 3.552714e-15
    endloop
  endfacet
  facet normal 2.845801e-16 -2.969257e-15 -1.000000e+00
    outer loop
      vertex 1.550000e+01 1.000000e+01 0.000000e+00
      vertex 9.500000e+00 7.000000e+00 0.000000e+00
      vertex -3.050000e+01 1.000000e+01 0.000000e+00
    endloop
  endfacet
  facet normal 2.845801e-16 -2.969257e-15 -1.000000e+00
    outer loop
      vertex 9.500000e+00 7.000000e+00 0.000000e+00
      vertex 1.550000e+01 1.000000e+01 0.000000e+00
      vertex 1.550000e+01 5.000000e+00 0.000000e+00
    endloop
  endfacet
  facet normal 2.845801e-16 -2.969257e-15 -1.000000e+00
    outer loop
      vertex 9.500000e+00 7.000000e+00 0.000000e+00
      vertex 1.550000e+01 5.000000e+00 0.000000e+00
      vertex 9.500000e+00 -1.000000e+00 0.000000e+00
    endloop
  endfacet
  facet normal 2.845801e-16 -2.969257e-15 -1.000000e+00
    outer loop
      vertex 9.500000e+00 -1.000000e+00 0.000000e+00
      vertex 1.550000e+01 5.000000e+00 0.000000e+00
      vertex 2.450000e+01 -1.000000e+00 3.552714e-15
    endloop
  endfacet
  facet normal 2.845801e-16 -2.969257e-15 -1.000000e+00
    outer loop
      vertex -3.050000e+01 7.000000e+00 0.000000e+00
      vertex -3.050000e+01 1.000000e+01 0.000000e+00
      vertex 9.500000e+00 7.000000e+00 0.000000e+00
    endloop
  endfacet
  facet normal 5.988187e-17 -7.933533e-01 6.087614e-01
    outer loop
      vertex 2.694998e+01 -2.939331e+00 1.939341e+00
      vertex 2.450000e+01 -2.700928e+00 2.250000e+00
      vertex 2.450000e+01 -2.939331e+00 1.939341e+00
    endloop
  endfacet
  facet normal 5.988187e-17 -7.933533e-01 6.087614e-01
    outer loop
      vertex 2.450000e+01 -2.700928e+00 2.250000e+00
      vertex 2.694998e+01 -2.939331e+00 1.939341e+00
      vertex 2.694998e+01 -2.700928e+00 2.250000e+00
    endloop
  endfacet
  facet normal 2.597289e-17 -6.087614e-01 7.933533e-01
    outer loop
      vertex 2.450000e+01 -3.250000e+00 1.700962e+00
      vertex 2.694998e+01 -2.939331e+00 1.939341e+00
      vertex 2.450000e+01 -2.939331e+00 1.939341e+00
    endloop
  endfacet
  facet normal 2.597289e-17 -6.087614e-01 7.933533e-01
    outer loop
      vertex 2.694998e+01 -2.939331e+00 1.939341e+00
      vertex 2.450000e+01 -3.250000e+00 1.700962e+00
      vertex 2.694998e+01 -3.250000e+00 1.700962e+00
    endloop
  endfacet
  facet normal -9.706101e-18 -3.826834e-01 9.238795e-01
    outer loop
      vertex 2.450000e+01 -3.611694e+00 1.551111e+00
      vertex 2.694998e+01 -3.250000e+00 1.700962e+00
      vertex 2.450000e+01 -3.250000e+00 1.700962e+00
    endloop
  endfacet
  facet normal -9.706101e-18 -3.826834e-01 9.238795e-01
    outer loop
      vertex 2.694998e+01 -3.250000e+00 1.700962e+00
      vertex 2.450000e+01 -3.611694e+00 1.551111e+00
      vertex 2.694998e+01 -3.611694e+00 1.551111e+00
    endloop
  endfacet
  facet normal -4.472364e-17 -1.305262e-01 9.914449e-01
    outer loop
      vertex 2.450000e+01 -4.000000e+00 1.500000e+00
      vertex 2.694998e+01 -3.611694e+00 1.551111e+00
      vertex 2.450000e+01 -3.611694e+00 1.551111e+00
    endloop
  endfacet
  facet normal -4.472364e-17 -1.305262e-01 9.914449e-01
    outer loop
      vertex 2.694998e+01 -3.611694e+00 1.551111e+00
      vertex 2.450000e+01 -4.000000e+00 1.500000e+00
      vertex 2.694998e+01 -4.000000e+00 1.500000e+00
    endloop
  endfacet
  facet normal -1.034365e-16 3.826834e-01 9.238795e-01
    outer loop
      vertex 2.450000e+01 -4.750000e+00 1.700962e+00
      vertex 2.694998e+01 -4.388184e+00 1.551111e+00
      vertex 2.450000e+01 -4.388184e+00 1.551111e+00
    endloop
  endfacet
  facet normal -1.034365e-16 3.826834e-01 9.238795e-01
    outer loop
      vertex 2.694998e+01 -4.388184e+00 1.551111e+00
      vertex 2.450000e+01 -4.750000e+00 1.700962e+00
      vertex 2.694998e+01 -4.750000e+00 1.700962e+00
    endloop
  endfacet
  facet normal -1.344336e-16 7.933533e-01 6.087614e-01
    outer loop
      vertex 2.694998e+01 -5.298950e+00 2.250000e+00
      vertex 2.450000e+01 -5.060669e+00 1.939341e+00
      vertex 2.450000e+01 -5.298950e+00 2.250000e+00
    endloop
  endfacet
  facet normal -1.344336e-16 7.933533e-01 6.087614e-01
    outer loop
      vertex 2.450000e+01 -5.060669e+00 1.939341e+00
      vertex 2.694998e+01 -5.298950e+00 2.250000e+00
      vertex 2.694998e+01 -5.060669e+00 1.939341e+00
    endloop
  endfacet
  facet normal -1.294094e-16 9.914449e-01 1.305262e-01
    outer loop
      vertex 2.694998e+01 -5.500000e+00 3.000000e+00
      vertex 2.450000e+01 -5.448853e+00 2.611773e+00
      vertex 2.450000e+01 -5.500000e+00 3.000000e+00
    endloop
  endfacet
  facet normal -1.294094e-16 9.914449e-01 1.305262e-01
    outer loop
      vertex 2.450000e+01 -5.448853e+00 2.611773e+00
      vertex 2.694998e+01 -5.500000e+00 3.000000e+00
      vertex 2.694998e+01 -5.448853e+00 2.611773e+00
    endloop
  endfacet
  facet normal -1.134246e-16 9.914449e-01 -1.305262e-01
    outer loop
      vertex 2.694998e+01 -5.448853e+00 3.388229e+00
      vertex 2.450000e+01 -5.500000e+00 3.000000e+00
      vertex 2.450000e+01 -5.448853e+00 3.388229e+00
    endloop
  endfacet
  facet normal -1.134246e-16 9.914449e-01 -1.305262e-01
    outer loop
      vertex 2.450000e+01 -5.500000e+00 3.000000e+00
      vertex 2.694998e+01 -5.448853e+00 3.388229e+00
      vertex 2.694998e+01 -5.500000e+00 3.000000e+00
    endloop
  endfacet
  facet normal -5.988187e-17 7.933533e-01 -6.087614e-01
    outer loop
      vertex 2.694998e+01 -5.060669e+00 4.060661e+00
      vertex 2.450000e+01 -5.298950e+00 3.750000e+00
      vertex 2.450000e+01 -5.060669e+00 4.060661e+00
    endloop
  endfacet
  facet normal -5.988187e-17 7.933533e-01 -6.087614e-01
    outer loop
      vertex 2.450000e+01 -5.298950e+00 3.750000e+00
      vertex 2.694998e+01 -5.060669e+00 4.060661e+00
      vertex 2.694998e+01 -5.298950e+00 3.750000e+00
    endloop
  endfacet
  facet normal 1.000000e+00 1.224647e-16 6.123234e-17
    outer loop
      vertex 3.050000e+01 5.000000e+00 3.552714e-15
      vertex 3.050000e+01 -3.611694e+00 1.551111e+00
      vertex 3.050000e+01 -1.000000e+01 3.552714e-15
    endloop
  endfacet
  facet normal 1.000000e+00 1.224647e-16 6.123234e-17
    outer loop
      vertex 3.050000e+01 -3.611694e+00 1.551111e+00
      vertex 3.050000e+01 5.000000e+00 3.552714e-15
      vertex 3.050000e+01 -3.250000e+00 1.700962e+00
    endloop
  endfacet
  facet normal 1.000000e+00 1.224647e-16 6.123234e-17
    outer loop
      vertex 3.050000e+01 -3.250000e+00 1.700962e+00
      vertex 3.050000e+01 5.000000e+00 3.552714e-15
      vertex 3.050000e+01 5.000000e+00 6.000001e+00
    endloop
  endfacet
  facet normal 1.000000e+00 1.224647e-16 6.123234e-17
    outer loop
      vertex 3.050000e+01 -1.000000e+01 3.552714e-15
      vertex 3.050000e+01 -3.611694e+00 1.551111e+00
      vertex 3.050000e+01 -4.000000e+00 1.500000e+00
    endloop
  endfacet
  facet normal 1.000000e+00 1.224647e-16 6.123234e-17
    outer loop
      vertex 3.050000e+01 -3.250000e+00 1.700962e+00
      vertex 3.050000e+01 5.000000e+00 6.000001e+00
      vertex 3.050000e+01 -2.939331e+00 1.939341e+00
    endloop
  endfacet
  facet normal 1.000000e+00 1.224647e-16 6.123234e-17
    outer loop
      vertex 3.050000e+01 -2.939331e+00 1.939341e+00
      vertex 3.050000e+01 5.000000e+00 6.000001e+00
      vertex 3.050000e+01 -2.700928e+00 2.250000e+00
    endloop
  endfacet
  facet normal 1.000000e+00 1.224647e-16 6.123234e-17
    outer loop
      vertex 3.050000e+01 -2.700928e+00 2.250000e+00
      vertex 3.050000e+01 5.000000e+00 6.000001e+00
      vertex 3.050000e+01 -2.551025e+00 2.611773e+00
    endloop
  endfacet
  facet normal 1.000000e+00 1.224647e-16 6.123234e-17
    outer loop
      vertex 3.050000e+01 -2.551025e+00 2.611773e+00
      vertex 3.050000e+01 5.000000e+00 6.000001e+00
      vertex 3.050000e+01 -2.500000e+00 3.000000e+00
    endloop
  endfacet
  facet normal 1.000000e+00 1.224647e-16 6.123234e-17
    outer loop
      vertex 3.050000e+01 -2.500000e+00 3.000000e+00
      vertex 3.050000e+01 5.000000e+00 6.000001e+00
      vertex 3.050000e+01 -2.551025e+00 3.388229e+00
    endloop
  endfacet
  facet normal 1.000000e+00 1.224647e-16 6.123234e-17
    outer loop
      vertex 3.050000e+01 -2.551025e+00 3.388229e+00
      vertex 3.050000e+01 5.000000e+00 6.000001e+00
      vertex 3.050000e+01 -2.700928e+00 3.750000e+00
    endloop
  endfacet
  facet normal 1.000000e+00 1.224647e-16 6.123234e-17
    outer loop
      vertex 3.050000e+01 -2.700928e+00 3.750000e+00
      vertex 3.050000e+01 5.000000e+00 6.000001e+00
      vertex 3.050000e+01 -2.939331e+00 4.060661e+00
    endloop
  endfacet
  facet normal 1.000000e+00 1.224647e-16 6.123234e-17
    outer loop
      vertex 3.050000e+01 -2.939331e+00 4.060661e+00
      vertex 3.050000e+01 5.000000e+00 6.000001e+00
      vertex 3.050000e+01 -3.250000e+00 4.299038e+00
    endloop
  endfacet
  facet normal 1.000000e+00 1.224647e-16 6.123234e-17
    outer loop
      vertex 3.050000e+01 -3.250000e+00 4.299038e+00
      vertex 3.050000e+01 5.000000e+00 6.000001e+00
      vertex 3.050000e+01 -3.611694e+00 4.448889e+00
    endloop
  endfacet
  facet normal 1.000000e+00 1.224647e-16 6.123234e-17
    outer loop
      vertex 3.050000e+01 -3.611694e+00 4.448889e+00
      vertex 3.050000e+01 5.000000e+00 6.000001e+00
      vertex 3.050000e+01 -4.000000e+00 4.500000e+00
    endloop
  endfacet
  facet normal 1.000000e+00 1.224647e-16 6.123234e-17
    outer loop
      vertex 3.050000e+01 -1.000000e+01 3.552714e-15
      vertex 3.050000e+01 -5.060669e+00 1.939341e+00
      vertex 3.050000e+01 -1.000000e+01 6.000001e+00
    endloop
  endfacet
  facet normal 1.000000e+00 1.224647e-16 6.123234e-17
    outer loop
      vertex 3.050000e+01 -5.060669e+00 1.939341e+00
      vertex 3.050000e+01 -1.000000e+01 3.552714e-15
      vertex 3.050000e+01 -4.750000e+00 1.700962e+00
    endloop
  endfacet
  facet normal 1.000000e+00 1.224647e-16 6.123234e-17
    outer loop
      vertex 3.050000e+01 -4.750000e+00 1.700962e+00
      vertex 3.050000e+01 -1.000000e+01 3.552714e-15
      vertex 3.050000e+01 -4.388184e+00 1.551111e+00
    endloop
  endfacet
  facet normal 1.000000e+00 1.224647e-16 6.123234e-17
    outer loop
      vertex 3.050000e+01 -4.388184e+00 1.551111e+00
      vertex 3.050000e+01 -1.000000e+01 3.552714e-15
      vertex 3.050000e+01 -4.000000e+00 1.500000e+00
    endloop
  endfacet
  facet normal 1.000000e+00 1.224647e-16 6.123234e-17
    outer loop
      vertex 3.050000e+01 -1.000000e+01 6.000001e+00
      vertex 3.050000e+01 -5.060669e+00 1.939341e+00
      vertex 3.050000e+01 -5.298950e+00 2.250000e+00
    endloop
  endfacet
  facet normal 1.000000e+00 1.224647e-16 6.123234e-17
    outer loop
      vertex 3.050000e+01 -1.000000e+01 6.000001e+00
      vertex 3.050000e+01 -5.298950e+00 2.250000e+00
      vertex 3.050000e+01 -5.448853e+00 2.611773e+00
    endloop
  endfacet
  facet normal 1.000000e+00 1.224647e-16 6.123234e-17
    outer loop
      vertex 3.050000e+01 -1.000000e+01 6.000001e+00
      vertex 3.050000e+01 -5.448853e+00 2.611773e+00
      vertex 3.050000e+01 -5.500000e+00 3.000000e+00
    endloop
  endfacet
  facet normal 1.000000e+00 1.224647e-16 6.123234e-17
    outer loop
      vertex 3.050000e+01 -1.000000e+01 6.000001e+00
      vertex 3.050000e+01 -5.500000e+00 3.000000e+00
      vertex 3.050000e+01 -5.448853e+00 3.388229e+00
    endloop
  endfacet
  facet normal 1.000000e+00 1.224647e-16 6.123234e-17
    outer loop
      vertex 3.050000e+01 -1.000000e+01 6.000001e+00
      vertex 3.050000e+01 -5.448853e+00 3.388229e+00
      vertex 3.050000e+01 -5.298950e+00 3.750000e+00
    endloop
  endfacet
  facet normal 1.000000e+00 1.224647e-16 6.123234e-17
    outer loop
      vertex 3.050000e+01 -1.000000e+01 6.000001e+00
      vertex 3.050000e+01 -5.298950e+00 3.750000e+00
      vertex 3.050000e+01 -5.060669e+00 4.060661e+00
    endloop
  endfacet
  facet normal 1.000000e+00 1.224647e-16 6.123234e-17
    outer loop
      vertex 3.050000e+01 -1.000000e+01 6.000001e+00
      vertex 3.050000e+01 -5.060669e+00 4.060661e+00
      vertex 3.050000e+01 -4.750000e+00 4.299038e+00
    endloop
  endfacet
  facet normal 1.000000e+00 1.224647e-16 6.123234e-17
    outer loop
      vertex 3.050000e+01 -1.000000e+01 6.000001e+00
      vertex 3.050000e+01 -4.750000e+00 4.299038e+00
      vertex 3.050000e+01 -4.388184e+00 4.448889e+00
    endloop
  endfacet
  facet normal 1.000000e+00 1.224647e-16 6.123234e-17
    outer loop
      vertex 3.050000e+01 -1.000000e+01 6.000001e+00
      vertex 3.050000e+01 -4.388184e+00 4.448889e+00
      vertex 3.050000e+01 -4.000000e+00 4.500000e+00
    endloop
  endfacet
  facet normal 1.000000e+00 1.224647e-16 6.123234e-17
    outer loop
      vertex 3.050000e+01 -1.000000e+01 6.000001e+00
      vertex 3.050000e+01 -4.000000e+00 4.500000e+00
      vertex 3.050000e+01 5.000000e+00 6.000001e+00
    endloop
  endfacet
  facet normal -1.365752e-16 9.238795e-01 3.826834e-01
    outer loop
      vertex 2.694998e+01 -5.448853e+00 2.611773e+00
      vertex 2.450000e+01 -5.298950e+00 2.250000e+00
      vertex 2.450000e+01 -5.448853e+00 2.611773e+00
    endloop
  endfacet
  facet normal -1.365752e-16 9.238795e-01 3.826834e-01
    outer loop
      vertex 2.450000e+01 -5.298950e+00 2.250000e+00
      vertex 2.694998e+01 -5.448853e+00 2.611773e+00
      vertex 2.694998e+01 -5.298950e+00 2.250000e+00
    endloop
  endfacet
  facet normal 9.706101e-18 3.826834e-01 -9.238795e-01
    outer loop
      vertex 2.694998e+01 -4.750000e+00 4.299038e+00
      vertex 2.450000e+01 -4.388184e+00 4.448889e+00
      vertex 2.694998e+01 -4.388184e+00 4.448889e+00
    endloop
  endfacet
  facet normal 9.706101e-18 3.826834e-01 -9.238795e-01
    outer loop
      vertex 2.450000e+01 -4.388184e+00 4.448889e+00
      vertex 2.694998e+01 -4.750000e+00 4.299038e+00
      vertex 2.450000e+01 -4.750000e+00 4.299038e+00
    endloop
  endfacet
  facet normal 4.472364e-17 1.305262e-01 -9.914449e-01
    outer loop
      vertex 2.694998e+01 -4.388184e+00 4.448889e+00
      vertex 2.450000e+01 -4.000000e+00 4.500000e+00
      vertex 2.694998e+01 -4.000000e+00 4.500000e+00
    endloop
  endfacet
  facet normal 4.472364e-17 1.305262e-01 -9.914449e-01
    outer loop
      vertex 2.450000e+01 -4.000000e+00 4.500000e+00
      vertex 2.694998e+01 -4.388184e+00 4.448889e+00
      vertex 2.450000e+01 -4.388184e+00 4.448889e+00
    endloop
  endfacet
  facet normal 7.669334e-17 -1.305262e-01 -9.914449e-01
    outer loop
      vertex 2.694998e+01 -4.000000e+00 4.500000e+00
      vertex 2.450000e+01 -3.611694e+00 4.448889e+00
      vertex 2.694998e+01 -3.611694e+00 4.448889e+00
    endloop
  endfacet
  facet normal 7.669334e-17 -1.305262e-01 -9.914449e-01
    outer loop
      vertex 2.450000e+01 -3.611694e+00 4.448889e+00
      vertex 2.694998e+01 -4.000000e+00 4.500000e+00
      vertex 2.450000e+01 -4.000000e+00 4.500000e+00
    endloop
  endfacet
  facet normal 8.971001e-17 -9.238795e-01 3.826834e-01
    outer loop
      vertex 2.694998e+01 -2.700928e+00 2.250000e+00
      vertex 2.450000e+01 -2.551025e+00 2.611773e+00
      vertex 2.450000e+01 -2.700928e+00 2.250000e+00
    endloop
  endfacet
  facet normal 8.971001e-17 -9.238795e-01 3.826834e-01
    outer loop
      vertex 2.450000e+01 -2.551025e+00 2.611773e+00
      vertex 2.694998e+01 -2.700928e+00 2.250000e+00
      vertex 2.694998e+01 -2.551025e+00 2.611773e+00
    endloop
  endfacet
  facet normal -7.669334e-17 1.305262e-01 9.914449e-01
    outer loop
      vertex 2.450000e+01 -4.388184e+00 1.551111e+00
      vertex 2.694998e+01 -4.000000e+00 1.500000e+00
      vertex 2.450000e+01 -4.000000e+00 1.500000e+00
    endloop
  endfacet
  facet normal -7.669334e-17 1.305262e-01 9.914449e-01
    outer loop
      vertex 2.694998e+01 -4.000000e+00 1.500000e+00
      vertex 2.450000e+01 -4.388184e+00 1.551111e+00
      vertex 2.694998e+01 -4.388184e+00 1.551111e+00
    endloop
  endfacet
  facet normal -2.845801e-16 2.969257e-15 1.000000e+00
    outer loop
      vertex 2.450000e+01 -1.000000e+01 6.000001e+00
      vertex 2.694998e+01 -1.299927e+00 6.000001e+00
      vertex 2.450000e+01 -1.000000e+00 6.000001e+00
    endloop
  endfacet
  facet normal -2.845801e-16 2.969257e-15 1.000000e+00
    outer loop
      vertex 2.694998e+01 -1.299927e+00 6.000001e+00
      vertex 2.450000e+01 -1.000000e+01 6.000001e+00
      vertex 2.694998e+01 -6.699951e+00 6.000001e+00
    endloop
  endfacet
  facet normal -2.845801e-16 2.969257e-15 1.000000e+00
    outer loop
      vertex 2.694998e+01 -6.699951e+00 6.000001e+00
      vertex 2.450000e+01 -1.000000e+01 6.000001e+00
      vertex 2.904999e+01 -6.699951e+00 6.000001e+00
    endloop
  endfacet
  facet normal -2.845801e-16 2.969257e-15 1.000000e+00
    outer loop
      vertex -3.050000e+01 7.000000e+00 6.000001e+00
      vertex 1.550000e+01 1.000000e+01 6.000001e+00
      vertex -3.050000e+01 1.000000e+01 6.000001e+00
    endloop
  endfacet
  facet normal -2.845801e-16 2.969257e-15 1.000000e+00
    outer loop
      vertex 1.550000e+01 1.000000e+01 6.000001e+00
      vertex -3.050000e+01 7.000000e+00 6.000001e+00
      vertex 9.500000e+00 7.000000e+00 6.000001e+00
    endloop
  endfacet
  facet normal -2.845801e-16 2.969257e-15 1.000000e+00
    outer loop
      vertex 1.550000e+01 1.000000e+01 6.000001e+00
      vertex 9.500000e+00 7.000000e+00 6.000001e+00
      vertex 1.550000e+01 5.000000e+00 6.000001e+00
    endloop
  endfacet
  facet normal -2.845801e-16 2.969257e-15 1.000000e+00
    outer loop
      vertex 1.550000e+01 5.000000e+00 6.000001e+00
      vertex 9.500000e+00 7.000000e+00 6.000001e+00
      vertex 9.500000e+00 -1.000000e+00 6.000001e+00
    endloop
  endfacet
  facet normal -2.845801e-16 2.969257e-15 1.000000e+00
    outer loop
      vertex 1.550000e+01 5.000000e+00 6.000001e+00
      vertex 9.500000e+00 -1.000000e+00 6.000001e+00
      vertex 3.050000e+01 5.000000e+00 6.000001e+00
    endloop
  endfacet
  facet normal -2.845801e-16 2.969257e-15 1.000000e+00
    outer loop
      vertex 3.050000e+01 5.000000e+00 6.000001e+00
      vertex 9.500000e+00 -1.000000e+00 6.000001e+00
      vertex 2.450000e+01 -1.000000e+00 6.000001e+00
    endloop
  endfacet
  facet normal -2.845801e-16 2.969257e-15 1.000000e+00
    outer loop
      vertex 3.050000e+01 5.000000e+00 6.000001e+00
      vertex 2.450000e+01 -1.000000e+00 6.000001e+00
      vertex 2.904999e+01 -1.299927e+00 6.000001e+00
    endloop
  endfacet
  facet normal -2.845801e-16 2.969257e-15 1.000000e+00
    outer loop
      vertex 3.050000e+01 5.000000e+00 6.000001e+00
      vertex 2.904999e+01 -1.299927e+00 6.000001e+00
      vertex 3.050000e+01 -1.000000e+01 6.000001e+00
    endloop
  endfacet
  facet normal -2.845801e-16 2.969257e-15 1.000000e+00
    outer loop
      vertex 2.904999e+01 -1.299927e+00 6.000001e+00
      vertex 2.450000e+01 -1.000000e+00 6.000001e+00
      vertex 2.694998e+01 -1.299927e+00 6.000001e+00
    endloop
  endfacet
  facet normal -2.845801e-16 2.969257e-15 1.000000e+00
    outer loop
      vertex 3.050000e+01 -1.000000e+01 6.000001e+00
      vertex 2.904999e+01 -1.299927e+00 6.000001e+00
      vertex 2.904999e+01 -6.699951e+00 6.000001e+00
    endloop
  endfacet
  facet normal -2.845801e-16 2.969257e-15 1.000000e+00
    outer loop
      vertex 3.050000e+01 -1.000000e+01 6.000001e+00
      vertex 2.904999e+01 -6.699951e+00 6.000001e+00
      vertex 2.450000e+01 -1.000000e+01 6.000001e+00
    endloop
  endfacet
  facet normal 1.294094e-16 -9.914449e-01 -1.305262e-01
    outer loop
      vertex 2.694998e+01 -2.500000e+00 3.000000e+00
      vertex 2.450000e+01 -2.551025e+00 3.388229e+00
      vertex 2.450000e+01 -2.500000e+00 3.000000e+00
    endloop
  endfacet
  facet normal 1.294094e-16 -9.914449e-01 -1.305262e-01
    outer loop
      vertex 2.450000e+01 -2.551025e+00 3.388229e+00
      vertex 2.694998e+01 -2.500000e+00 3.000000e+00
      vertex 2.694998e+01 -2.551025e+00 3.388229e+00
    endloop
  endfacet
  facet normal -1.000000e+00 -1.224647e-16 -6.123234e-17
    outer loop
      vertex 2.450000e+01 -1.000000e+01 3.552714e-15
      vertex 2.450000e+01 -4.388184e+00 1.551111e+00
      vertex 2.450000e+01 -4.000000e+00 1.500000e+00
    endloop
  endfacet
  facet normal -1.000000e+00 -1.224647e-16 -6.123234e-17
    outer loop
      vertex 2.450000e+01 -4.388184e+00 1.551111e+00
      vertex 2.450000e+01 -1.000000e+01 3.552714e-15
      vertex 2.450000e+01 -4.750000e+00 1.700962e+00
    endloop
  endfacet
  facet normal -1.000000e+00 -1.224647e-16 -6.123234e-17
    outer loop
      vertex 2.450000e+01 -4.750000e+00 1.700962e+00
      vertex 2.450000e+01 -1.000000e+01 3.552714e-15
      vertex 2.450000e+01 -5.060669e+00 1.939341e+00
    endloop
  endfacet
  facet normal -1.000000e+00 -1.224647e-16 -6.123234e-17
    outer loop
      vertex 2.450000e+01 -5.060669e+00 1.939341e+00
      vertex 2.450000e+01 -1.000000e+01 3.552714e-15
      vertex 2.450000e+01 -1.000000e+01 6.000001e+00
    endloop
  endfacet
  facet normal -1.000000e+00 -1.224647e-16 -6.123234e-17
    outer loop
      vertex 2.450000e+01 -5.060669e+00 1.939341e+00
      vertex 2.450000e+01 -1.000000e+01 6.000001e+00
      vertex 2.450000e+01 -5.298950e+00 2.250000e+00
    endloop
  endfacet
  facet normal -1.000000e+00 -1.224647e-16 -6.123234e-17
    outer loop
      vertex 2.450000e+01 -5.298950e+00 2.250000e+00
      vertex 2.450000e+01 -1.000000e+01 6.000001e+00
      vertex 2.450000e+01 -5.448853e+00 2.611773e+00
    endloop
  endfacet
  facet normal -1.000000e+00 -1.224647e-16 -6.123234e-17
    outer loop
      vertex 2.450000e+01 -5.448853e+00 2.611773e+00
      vertex 2.450000e+01 -1.000000e+01 6.000001e+00
      vertex 2.450000e+01 -5.500000e+00 3.000000e+00
    endloop
  endfacet
  facet normal -1.000000e+00 -1.224647e-16 -6.123234e-17
    outer loop
      vertex 2.450000e+01 -5.500000e+00 3.000000e+00
      vertex 2.450000e+01 -1.000000e+01 6.000001e+00
      vertex 2.450000e+01 -5.448853e+00 3.388229e+00
    endloop
  endfacet
  facet normal -1.000000e+00 -1.224647e-16 -6.123234e-17
    outer loop
      vertex 2.450000e+01 -5.448853e+00 3.388229e+00
      vertex 2.450000e+01 -1.000000e+01 6.000001e+00
      vertex 2.450000e+01 -5.298950e+00 3.750000e+00
    endloop
  endfacet
  facet normal -1.000000e+00 -1.224647e-16 -6.123234e-17
    outer loop
      vertex 2.450000e+01 -5.298950e+00 3.750000e+00
      vertex 2.450000e+01 -1.000000e+01 6.000001e+00
      vertex 2.450000e+01 -5.060669e+00 4.060661e+00
    endloop
  endfacet
  facet normal -1.000000e+00 -1.224647e-16 -6.123234e-17
    outer loop
      vertex 2.450000e+01 -5.060669e+00 4.060661e+00
      vertex 2.450000e+01 -1.000000e+01 6.000001e+00
      vertex 2.450000e+01 -4.750000e+00 4.299038e+00
    endloop
  endfacet
  facet normal -1.000000e+00 -1.224647e-16 -6.123234e-17
    outer loop
      vertex 2.450000e+01 -4.750000e+00 4.299038e+00
      vertex 2.450000e+01 -1.000000e+01 6.000001e+00
      vertex 2.450000e+01 -4.388184e+00 4.448889e+00
    endloop
  endfacet
  facet normal -1.000000e+00 -1.224647e-16 -6.123234e-17
    outer loop
      vertex 2.450000e+01 -4.388184e+00 4.448889e+00
      vertex 2.450000e+01 -1.000000e+01 6.000001e+00
      vertex 2.450000e+01 -4.000000e+00 4.500000e+00
    endloop
  endfacet
  facet normal -1.000000e+00 -1.224647e-16 -6.123234e-17
    outer loop
      vertex 2.450000e+01 -4.000000e+00 4.500000e+00
      vertex 2.450000e+01 -1.000000e+01 6.000001e+00
      vertex 2.450000e+01 -1.000000e+00 6.000001e+00
    endloop
  endfacet
  facet normal -1.000000e+00 -1.224647e-16 -6.123234e-17
    outer loop
      vertex 2.450000e+01 -1.000000e+00 3.552714e-15
      vertex 2.450000e+01 -2.700928e+00 2.250000e+00
      vertex 2.450000e+01 -1.000000e+00 6.000001e+00
    endloop
  endfacet
  facet normal -1.000000e+00 -1.224647e-16 -6.123234e-17
    outer loop
      vertex 2.450000e+01 -2.700928e+00 2.250000e+00
      vertex 2.450000e+01 -1.000000e+00 3.552714e-15
      vertex 2.450000e+01 -2.939331e+00 1.939341e+00
    endloop
  endfacet
  facet normal -1.000000e+00 -1.224647e-16 -6.123234e-17
    outer loop
      vertex 2.450000e+01 -2.939331e+00 1.939341e+00
      vertex 2.450000e+01 -1.000000e+00 3.552714e-15
      vertex 2.450000e+01 -3.250000e+00 1.700962e+00
    endloop
  endfacet
  facet normal -1.000000e+00 -1.224647e-16 -6.123234e-17
    outer loop
      vertex 2.450000e+01 -3.250000e+00 1.700962e+00
      vertex 2.450000e+01 -1.000000e+00 3.552714e-15
      vertex 2.450000e+01 -3.611694e+00 1.551111e+00
    endloop
  endfacet
  facet normal -1.000000e+00 -1.224647e-16 -6.123234e-17
    outer loop
      vertex 2.450000e+01 -3.611694e+00 1.551111e+00
      vertex 2.450000e+01 -1.000000e+00 3.552714e-15
      vertex 2.450000e+01 -1.000000e+01 3.552714e-15
    endloop
  endfacet
  facet normal -1.000000e+00 -1.224647e-16 -6.123234e-17
    outer loop
      vertex 2.450000e+01 -3.611694e+00 1.551111e+00
      vertex 2.450000e+01 -1.000000e+01 3.552714e-15
      vertex 2.450000e+01 -4.000000e+00 1.500000e+00
    endloop
  endfacet
  facet normal -1.000000e+00 -1.224647e-16 -6.123234e-17
    outer loop
      vertex 2.450000e+01 -1.000000e+00 6.000001e+00
      vertex 2.450000e+01 -2.700928e+00 2.250000e+00
      vertex 2.450000e+01 -2.551025e+00 2.611773e+00
    endloop
  endfacet
  facet normal -1.000000e+00 -1.224647e-16 -6.123234e-17
    outer loop
      vertex 2.450000e+01 -1.000000e+00 6.000001e+00
      vertex 2.450000e+01 -2.551025e+00 2.611773e+00
      vertex 2.450000e+01 -2.500000e+00 3.000000e+00
    endloop
  endfacet
  facet normal -1.000000e+00 -1.224647e-16 -6.123234e-17
    outer loop
      vertex 2.450000e+01 -1.000000e+00 6.000001e+00
      vertex 2.450000e+01 -2.500000e+00 3.000000e+00
      vertex 2.450000e+01 -2.551025e+00 3.388229e+00
    endloop
  endfacet
  facet normal -1.000000e+00 -1.224647e-16 -6.123234e-17
    outer loop
      vertex 2.450000e+01 -1.000000e+00 6.000001e+00
      vertex 2.450000e+01 -2.551025e+00 3.388229e+00
      vertex 2.450000e+01 -2.700928e+00 3.750000e+00
    endloop
  endfacet
  facet normal -1.000000e+00 -1.224647e-16 -6.123234e-17
    outer loop
      vertex 2.450000e+01 -1.000000e+00 6.000001e+00
      vertex 2.450000e+01 -2.700928e+00 3.750000e+00
      vertex 2.450000e+01 -2.939331e+00 4.060661e+00
    endloop
  endfacet
  facet normal -1.000000e+00 -1.224647e-16 -6.123234e-17
    outer loop
      vertex 2.450000e+01 -1.000000e+00 6.000001e+00
      vertex 2.450000e+01 -2.939331e+00 4.060661e+00
      vertex 2.450000e+01 -3.250000e+00 4.299038e+00
    endloop
  endfacet
  facet normal -1.000000e+00 -1.224647e-16 -6.123234e-17
    outer loop
      vertex 2.450000e+01 -1.000000e+00 6.000001e+00
      vertex 2.450000e+01 -3.250000e+00 4.299038e+00
      vertex 2.450000e+01 -3.611694e+00 4.448889e+00
    endloop
  endfacet
  facet normal -1.000000e+00 -1.224647e-16 -6.123234e-17
    outer loop
      vertex 2.450000e+01 -1.000000e+00 6.000001e+00
      vertex 2.450000e+01 -3.611694e+00 4.448889e+00
      vertex 2.450000e+01 -4.000000e+00 4.500000e+00
    endloop
  endfacet
  facet normal 1.034365e-16 -3.826834e-01 -9.238795e-01
    outer loop
      vertex 2.694998e+01 -3.611694e+00 4.448889e+00
      vertex 2.450000e+01 -3.250000e+00 4.299038e+00
      vertex 2.694998e+01 -3.250000e+00 4.299038e+00
    endloop
  endfacet
  facet normal 1.034365e-16 -3.826834e-01 -9.238795e-01
    outer loop
      vertex 2.450000e+01 -3.250000e+00 4.299038e+00
      vertex 2.694998e+01 -3.611694e+00 4.448889e+00
      vertex 2.450000e+01 -3.611694e+00 4.448889e+00
    endloop
  endfacet
  facet normal 1.365752e-16 -9.238795e-01 -3.826834e-01
    outer loop
      vertex 2.694998e+01 -2.551025e+00 3.388229e+00
      vertex 2.450000e+01 -2.700928e+00 3.750000e+00
      vertex 2.450000e+01 -2.551025e+00 3.388229e+00
    endloop
  endfacet
  facet normal 1.365752e-16 -9.238795e-01 -3.826834e-01
    outer loop
      vertex 2.450000e+01 -2.700928e+00 3.750000e+00
      vertex 2.694998e+01 -2.551025e+00 3.388229e+00
      vertex 2.694998e+01 -2.700928e+00 3.750000e+00
    endloop
  endfacet
  facet normal 1.344336e-16 -7.933533e-01 -6.087614e-01
    outer loop
      vertex 2.694998e+01 -2.700928e+00 3.750000e+00
      vertex 2.450000e+01 -2.939331e+00 4.060661e+00
      vertex 2.450000e+01 -2.700928e+00 3.750000e+00
    endloop
  endfacet
  facet normal 1.344336e-16 -7.933533e-01 -6.087614e-01
    outer loop
      vertex 2.450000e+01 -2.939331e+00 4.060661e+00
      vertex 2.694998e+01 -2.700928e+00 3.750000e+00
      vertex 2.694998e+01 -2.939331e+00 4.060661e+00
    endloop
  endfacet
  facet normal 1.231307e-16 -6.087614e-01 -7.933533e-01
    outer loop
      vertex 2.694998e+01 -3.250000e+00 4.299038e+00
      vertex 2.450000e+01 -2.939331e+00 4.060661e+00
      vertex 2.694998e+01 -2.939331e+00 4.060661e+00
    endloop
  endfacet
  facet normal 1.231307e-16 -6.087614e-01 -7.933533e-01
    outer loop
      vertex 2.450000e+01 -2.939331e+00 4.060661e+00
      vertex 2.694998e+01 -3.250000e+00 4.299038e+00
      vertex 2.450000e+01 -3.250000e+00 4.299038e+00
    endloop
  endfacet
  facet normal 1.134246e-16 -9.914449e-01 1.305262e-01
    outer loop
      vertex 2.694998e+01 -2.551025e+00 2.611773e+00
      vertex 2.450000e+01 -2.500000e+00 3.000000e+00
      vertex 2.450000e+01 -2.551025e+00 2.611773e+00
    endloop
  endfacet
  facet normal 1.134246e-16 -9.914449e-01 1.305262e-01
    outer loop
      vertex 2.450000e+01 -2.500000e+00 3.000000e+00
      vertex 2.694998e+01 -2.551025e+00 2.611773e+00
      vertex 2.694998e+01 -2.500000e+00 3.000000e+00
    endloop
  endfacet
  facet normal 1.224647e-16 -1.000000e+00 0.000000e+00
    outer loop
      vertex 2.450000e+01 -1.000000e+00 3.552714e-15
      vertex 9.500000e+00 -1.000000e+00 6.000001e+00
      vertex 9.500000e+00 -1.000000e+00 0.000000e+00
    endloop
  endfacet
  facet normal 1.224647e-16 -1.000000e+00 0.000000e+00
    outer loop
      vertex 9.500000e+00 -1.000000e+00 6.000001e+00
      vertex 2.450000e+01 -1.000000e+00 3.552714e-15
      vertex 2.450000e+01 -1.000000e+00 6.000001e+00
    endloop
  endfacet
endsolid Default
