solid Default
  facet normal -6.123234e-17 -1.000000e+00 -6.123234e-17
    outer loop
      vertex 1.350000e+01 2.450000e+01 6.000001e+00
      vertex 1.961182e+01 2.450000e+01 4.448890e+00
      vertex 2.500000e+01 2.450000e+01 6.000001e+00
    endloop
  endfacet
  facet normal -6.123234e-17 -1.000000e+00 -6.123234e-17
    outer loop
      vertex 1.961182e+01 2.450000e+01 4.448890e+00
      vertex 1.350000e+01 2.450000e+01 6.000001e+00
      vertex 1.925000e+01 2.450000e+01 4.299039e+00
    endloop
  endfacet
  facet normal -6.123234e-17 -1.000000e+00 -6.123234e-17
    outer loop
      vertex 1.925000e+01 2.450000e+01 4.299039e+00
      vertex 1.350000e+01 2.450000e+01 6.000001e+00
      vertex 1.350000e+01 2.450000e+01 3.552714e-15
    endloop
  endfacet
  facet normal -6.123234e-17 -1.000000e+00 -6.123234e-17
    outer loop
      vertex 2.500000e+01 2.450000e+01 6.000001e+00
      vertex 1.961182e+01 2.450000e+01 4.448890e+00
      vertex 2.000000e+01 2.450000e+01 4.500001e+00
    endloop
  endfacet
  facet normal -6.123234e-17 -1.000000e+00 -6.123234e-17
    outer loop
      vertex 1.925000e+01 2.450000e+01 4.299039e+00
      vertex 1.350000e+01 2.450000e+01 3.552714e-15
      vertex 1.893933e+01 2.450000e+01 4.060660e+00
    endloop
  endfacet
  facet normal -6.123234e-17 -1.000000e+00 -6.123234e-17
    outer loop
      vertex 1.893933e+01 2.450000e+01 4.060660e+00
      vertex 1.350000e+01 2.450000e+01 3.552714e-15
      vertex 1.870099e+01 2.450000e+01 3.750001e+00
    endloop
  endfacet
  facet normal -6.123234e-17 -1.000000e+00 -6.123234e-17
    outer loop
      vertex 1.870099e+01 2.450000e+01 3.750001e+00
      vertex 1.350000e+01 2.450000e+01 3.552714e-15
      vertex 1.855115e+01 2.450000e+01 3.388228e+00
    endloop
  endfacet
  facet normal -6.123234e-17 -1.000000e+00 -6.123234e-17
    outer loop
      vertex 1.855115e+01 2.450000e+01 3.388228e+00
      vertex 1.350000e+01 2.450000e+01 3.552714e-15
      vertex 1.850000e+01 2.450000e+01 3.000001e+00
    endloop
  endfacet
  facet normal -6.123234e-17 -1.000000e+00 -6.123234e-17
    outer loop
      vertex 1.850000e+01 2.450000e+01 3.000001e+00
      vertex 1.350000e+01 2.450000e+01 3.552714e-15
      vertex 1.855115e+01 2.450000e+01 2.611772e+00
    endloop
  endfacet
  facet normal -6.123234e-17 -1.000000e+00 -6.123234e-17
    outer loop
      vertex 1.855115e+01 2.450000e+01 2.611772e+00
      vertex 1.350000e+01 2.450000e+01 3.552714e-15
      vertex 1.870099e+01 2.450000e+01 2.250001e+00
    endloop
  endfacet
  facet normal -6.123234e-17 -1.000000e+00 -6.123234e-17
    outer loop
      vertex 1.870099e+01 2.450000e+01 2.250001e+00
      vertex 1.350000e+01 2.450000e+01 3.552714e-15
      vertex 1.893933e+01 2.450000e+01 1.939340e+00
    endloop
  endfacet
  facet normal -6.123234e-17 -1.000000e+00 -6.123234e-17
    outer loop
      vertex 1.893933e+01 2.450000e+01 1.939340e+00
      vertex 1.350000e+01 2.450000e+01 3.552714e-15
      vertex 1.925000e+01 2.450000e+01 1.700962e+00
    endloop
  endfacet
  facet normal -6.123234e-17 -1.000000e+00 -6.123234e-17
    outer loop
      vertex 1.925000e+01 2.450000e+01 1.700962e+00
      vertex 1.350000e+01 2.450000e+01 3.552714e-15
      vertex 1.961182e+01 2.450000e+01 1.551111e+00
    endloop
  endfacet
  facet normal -6.123234e-17 -1.000000e+00 -6.123234e-17
    outer loop
      vertex 1.961182e+01 2.450000e+01 1.551111e+00
      vertex 1.350000e+01 2.450000e+01 3.552714e-15
      vertex 2.000000e+01 2.450000e+01 1.500000e+00
    endloop
  endfacet
  facet normal -6.123234e-17 -1.000000e+00 -6.123234e-17
    outer loop
      vertex 2.500000e+01 2.450000e+01 6.000001e+00
      vertex 2.106067e+01 2.450000e+01 4.060660e+00
      vertex 2.500000e+01 2.450000e+01 3.552714e-15
    endloop
  endfacet
  facet normal -6.123234e-17 -1.000000e+00 -6.123234e-17
    outer loop
      vertex 2.106067e+01 2.450000e+01 4.060660e+00
      vertex 2.500000e+01 2.450000e+01 6.000001e+00
      vertex 2.075000e+01 2.450000e+01 4.299039e+00
    endloop
  endfacet
  facet normal -6.123234e-17 -1.000000e+00 -6.123234e-17
    outer loop
      vertex 2.075000e+01 2.450000e+01 4.299039e+00
      vertex 2.500000e+01 2.450000e+01 6.000001e+00
      vertex 2.038824e+01 2.450000e+01 4.448890e+00
    endloop
  endfacet
  facet normal -6.123234e-17 -1.000000e+00 -6.123234e-17
    outer loop
      vertex 2.038824e+01 2.450000e+01 4.448890e+00
      vertex 2.500000e+01 2.450000e+01 6.000001e+00
      vertex 2.000000e+01 2.450000e+01 4.500001e+00
    endloop
  endfacet
  facet normal -6.123234e-17 -1.000000e+00 -6.123234e-17
    outer loop
      vertex 2.500000e+01 2.450000e+01 3.552714e-15
      vertex 2.106067e+01 2.450000e+01 4.060660e+00
      vertex 2.129907e+01 2.450000e+01 3.750001e+00
    endloop
  endfacet
  facet normal -6.123234e-17 -1.000000e+00 -6.123234e-17
    outer loop
      vertex 2.500000e+01 2.450000e+01 3.552714e-15
      vertex 2.129907e+01 2.450000e+01 3.750001e+00
      vertex 2.144891e+01 2.450000e+01 3.388228e+00
    endloop
  endfacet
  facet normal -6.123234e-17 -1.000000e+00 -6.123234e-17
    outer loop
      vertex 2.500000e+01 2.450000e+01 3.552714e-15
      vertex 2.144891e+01 2.450000e+01 3.388228e+00
      vertex 2.150000e+01 2.450000e+01 3.000001e+00
    endloop
  endfacet
  facet normal -6.123234e-17 -1.000000e+00 -6.123234e-17
    outer loop
      vertex 2.500000e+01 2.450000e+01 3.552714e-15
      vertex 2.150000e+01 2.450000e+01 3.000001e+00
      vertex 2.144891e+01 2.450000e+01 2.611772e+00
    endloop
  endfacet
  facet normal -6.123234e-17 -1.000000e+00 -6.123234e-17
    outer loop
      vertex 2.500000e+01 2.450000e+01 3.552714e-15
      vertex 2.144891e+01 2.450000e+01 2.611772e+00
      vertex 2.129907e+01 2.450000e+01 2.250001e+00
    endloop
  endfacet
  facet normal -6.123234e-17 -1.000000e+00 -6.123234e-17
    outer loop
      vertex 2.500000e+01 2.450000e+01 3.552714e-15
      vertex 2.129907e+01 2.450000e+01 2.250001e+00
      vertex 2.106067e+01 2.450000e+01 1.939340e+00
    endloop
  endfacet
  facet normal -6.123234e-17 -1.000000e+00 -6.123234e-17
    outer loop
      vertex 2.500000e+01 2.450000e+01 3.552714e-15
      vertex 2.106067e+01 2.450000e+01 1.939340e+00
      vertex 2.075000e+01 2.450000e+01 1.700962e+00
    endloop
  endfacet
  facet normal -6.123234e-17 -1.000000e+00 -6.123234e-17
    outer loop
      vertex 2.500000e+01 2.450000e+01 3.552714e-15
      vertex 2.075000e+01 2.450000e+01 1.700962e+00
      vertex 2.038824e+01 2.450000e+01 1.551111e+00
    endloop
  endfacet
  facet normal -6.123234e-17 -1.000000e+00 -6.123234e-17
    outer loop
      vertex 2.500000e+01 2.450000e+01 3.552714e-15
      vertex 2.038824e+01 2.450000e+01 1.551111e+00
      vertex 2.000000e+01 2.450000e+01 1.500000e+00
    endloop
  endfacet
  facet normal -6.123234e-17 -1.000000e+00 -6.123234e-17
    outer loop
      vertex 2.500000e+01 2.450000e+01 3.552714e-15
      vertex 2.000000e+01 2.450000e+01 1.500000e+00
      vertex 1.350000e+01 2.450000e+01 3.552714e-15
    endloop
  endfacet
  facet normal -7.590972e-17 -1.211936e-16 1.000000e+00
    outer loop
      vertex 2.500000e+01 3.050000e+01 6.000001e+00
      vertex 2.270001e+01 2.904999e+01 6.000001e+00
      vertex 2.500000e+01 2.450000e+01 6.000001e+00
    endloop
  endfacet
  facet normal -7.590972e-17 -1.211936e-16 1.000000e+00
    outer loop
      vertex 2.270001e+01 2.904999e+01 6.000001e+00
      vertex 2.500000e+01 3.050000e+01 6.000001e+00
      vertex 8.500000e+00 3.050000e+01 6.000001e+00
    endloop
  endfacet
  facet normal -7.590972e-17 -1.211936e-16 1.000000e+00
    outer loop
      vertex 2.270001e+01 2.904999e+01 6.000001e+00
      vertex 8.500000e+00 3.050000e+01 6.000001e+00
      vertex 1.729999e+01 2.904999e+01 6.000001e+00
    endloop
  endfacet
  facet normal -7.590972e-17 -1.211936e-16 1.000000e+00
    outer loop
      vertex 1.729999e+01 2.904999e+01 6.000001e+00
      vertex 8.500000e+00 3.050000e+01 6.000001e+00
      vertex 1.729999e+01 2.694998e+01 6.000001e+00
    endloop
  endfacet
  facet normal -7.590972e-17 -1.211936e-16 1.000000e+00
    outer loop
      vertex 1.729999e+01 2.694998e+01 6.000001e+00
      vertex 8.500000e+00 3.050000e+01 6.000001e+00
      vertex 1.350000e+01 2.450000e+01 6.000001e+00
    endloop
  endfacet
  facet normal -7.590972e-17 -1.211936e-16 1.000000e+00
    outer loop
      vertex 1.350000e+01 2.450000e+01 6.000001e+00
      vertex 8.500000e+00 3.050000e+01 6.000001e+00
      vertex 1.350000e+01 9.500000e+00 6.000001e+00
    endloop
  endfacet
  facet normal -7.590972e-17 -1.211936e-16 1.000000e+00
    outer loop
      vertex 1.350000e+01 9.500000e+00 6.000001e+00
      vertex 8.500000e+00 3.050000e+01 6.000001e+00
      vertex 8.500000e+00 1.550000e+01 6.000001e+00
    endloop
  endfacet
  facet normal -7.590972e-17 -1.211936e-16 1.000000e+00
    outer loop
      vertex 1.350000e+01 9.500000e+00 6.000001e+00
      vertex 8.500000e+00 1.550000e+01 6.000001e+00
      vertex -1.700000e+01 9.500000e+00 6.000001e+00
    endloop
  endfacet
  facet normal -7.590972e-17 -1.211936e-16 1.000000e+00
    outer loop
      vertex -1.700000e+01 9.500000e+00 6.000001e+00
      vertex 8.500000e+00 1.550000e+01 6.000001e+00
      vertex -2.500000e+01 1.550000e+01 6.000001e+00
    endloop
  endfacet
  facet normal -7.590972e-17 -1.211936e-16 1.000000e+00
    outer loop
      vertex -1.700000e+01 9.500000e+00 6.000001e+00
      vertex -2.500000e+01 1.550000e+01 6.000001e+00
      vertex -2.200000e+01 4.500000e+00 6.000001e+00
    endloop
  endfacet
  facet normal -7.590972e-17 -1.211936e-16 1.000000e+00
    outer loop
      vertex -2.200000e+01 4.500000e+00 6.000001e+00
      vertex -2.500000e+01 1.550000e+01 6.000001e+00
      vertex -2.200000e+01 -3.050000e+01 6.000001e+00
    endloop
  endfacet
  facet normal -7.590972e-17 -1.211936e-16 1.000000e+00
    outer loop
      vertex -2.200000e+01 -3.050000e+01 6.000001e+00
      vertex -2.500000e+01 1.550000e+01 6.000001e+00
      vertex -2.500000e+01 -3.050000e+01 6.000001e+00
    endloop
  endfacet
  facet normal -7.590972e-17 -1.211936e-16 1.000000e+00
    outer loop
      vertex 2.500000e+01 2.450000e+01 6.000001e+00
      vertex 2.270001e+01 2.694998e+01 6.000001e+00
      vertex 1.350000e+01 2.450000e+01 6.000001e+00
    endloop
  endfacet
  facet normal -7.590972e-17 -1.211936e-16 1.000000e+00
    outer loop
      vertex 2.270001e+01 2.694998e+01 6.000001e+00
      vertex 2.500000e+01 2.450000e+01 6.000001e+00
      vertex 2.270001e+01 2.904999e+01 6.000001e+00
    endloop
  endfacet
  facet normal -7.590972e-17 -1.211936e-16 1.000000e+00
    outer loop
      vertex 1.350000e+01 2.450000e+01 6.000001e+00
      vertex 2.270001e+01 2.694998e+01 6.000001e+00
      vertex 1.729999e+01 2.694998e+01 6.000001e+00
    endloop
  endfacet
  facet normal -1.000000e+00 6.123234e-17 0.000000e+00
    outer loop
      vertex -2.500000e+01 1.550000e+01 6.000001e+00
      vertex -2.500000e+01 -3.050000e+01 0.000000e+00
      vertex -2.500000e+01 -3.050000e+01 6.000001e+00
    endloop
  endfacet
  facet normal -1.000000e+00 6.123234e-17 0.000000e+00
    outer loop
      vertex -2.500000e+01 -3.050000e+01 0.000000e+00
      vertex -2.500000e+01 1.550000e+01 6.000001e+00
      vertex -2.500000e+01 1.550000e+01 3.552714e-15
    endloop
  endfacet
  facet normal -6.123234e-17 -1.000000e+00 -6.123234e-17
    outer loop
      vertex -2.500000e+01 -3.050000e+01 0.000000e+00
      vertex -2.200000e+01 -3.050000e+01 6.000001e+00
      vertex -2.500000e+01 -3.050000e+01 6.000001e+00
    endloop
  endfacet
  facet normal -6.123234e-17 -1.000000e+00 -6.123234e-17
    outer loop
      vertex -2.200000e+01 -3.050000e+01 6.000001e+00
      vertex -2.500000e+01 -3.050000e+01 0.000000e+00
      vertex -2.200000e+01 -3.050000e+01 0.000000e+00
    endloop
  endfacet
  facet normal 1.000000e+00 -7.612676e-16 -3.850194e-15
    outer loop
      vertex -2.200000e+01 4.500000e+00 3.552714e-15
      vertex -2.200000e+01 -3.050000e+01 6.000001e+00
      vertex -2.200000e+01 -3.050000e+01 0.000000e+00
    endloop
  endfacet
  facet normal 1.000000e+00 -7.612676e-16 -3.850194e-15
    outer loop
      vertex -2.200000e+01 -3.050000e+01 6.000001e+00
      vertex -2.200000e+01 4.500000e+00 3.552714e-15
      vertex -2.200000e+01 4.500000e+00 6.000001e+00
    endloop
  endfacet
  facet normal 1.305262e-01 -6.870092e-17 9.914449e-01
    outer loop
      vertex 1.961182e+01 2.694998e+01 1.551111e+00
      vertex 2.000000e+01 2.450000e+01 1.500000e+00
      vertex 2.000000e+01 2.694998e+01 1.500000e+00
    endloop
  endfacet
  facet normal 1.305262e-01 -6.870092e-17 9.914449e-01
    outer loop
      vertex 2.000000e+01 2.450000e+01 1.500000e+00
      vertex 1.961182e+01 2.694998e+01 1.551111e+00
      vertex 1.961182e+01 2.450000e+01 1.551111e+00
    endloop
  endfacet
  facet normal 3.826834e-01 -8.000390e-17 9.238795e-01
    outer loop
      vertex 1.925000e+01 2.694998e+01 1.700962e+00
      vertex 1.961182e+01 2.450000e+01 1.551111e+00
      vertex 1.961182e+01 2.694998e+01 1.551111e+00
    endloop
  endfacet
  facet normal 3.826834e-01 -8.000390e-17 9.238795e-01
    outer loop
      vertex 1.961182e+01 2.450000e+01 1.551111e+00
      vertex 1.925000e+01 2.694998e+01 1.700962e+00
      vertex 1.925000e+01 2.450000e+01 1.700962e+00
    endloop
  endfacet
  facet normal -7.933533e-01 8.585477e-17 -6.087614e-01
    outer loop
      vertex 2.106067e+01 2.694998e+01 4.060660e+00
      vertex 2.129907e+01 2.450000e+01 3.750001e+00
      vertex 2.106067e+01 2.450000e+01 4.060660e+00
    endloop
  endfacet
  facet normal -7.933533e-01 8.585477e-17 -6.087614e-01
    outer loop
      vertex 2.129907e+01 2.450000e+01 3.750001e+00
      vertex 2.106067e+01 2.694998e+01 4.060660e+00
      vertex 2.129907e+01 2.694998e+01 3.750001e+00
    endloop
  endfacet
  facet normal -9.914449e-01 5.271606e-17 1.305262e-01
    outer loop
      vertex 2.150000e+01 2.694998e+01 3.000001e+00
      vertex 2.144891e+01 2.450000e+01 2.611772e+00
      vertex 2.150000e+01 2.450000e+01 3.000001e+00
    endloop
  endfacet
  facet normal -9.914449e-01 5.271606e-17 1.305262e-01
    outer loop
      vertex 2.144891e+01 2.450000e+01 2.611772e+00
      vertex 2.150000e+01 2.694998e+01 3.000001e+00
      vertex 2.144891e+01 2.694998e+01 2.611772e+00
    endloop
  endfacet
  facet normal -9.238795e-01 3.313870e-17 3.826834e-01
    outer loop
      vertex 2.144891e+01 2.694998e+01 2.611772e+00
      vertex 2.129907e+01 2.450000e+01 2.250001e+00
      vertex 2.144891e+01 2.450000e+01 2.611772e+00
    endloop
  endfacet
  facet normal -9.238795e-01 3.313870e-17 3.826834e-01
    outer loop
      vertex 2.129907e+01 2.450000e+01 2.250001e+00
      vertex 2.144891e+01 2.694998e+01 2.611772e+00
      vertex 2.129907e+01 2.694998e+01 2.250001e+00
    endloop
  endfacet
  facet normal 1.305262e-01 5.271606e-17 -9.914449e-01
    outer loop
      vertex 1.961182e+01 2.450000e+01 4.448890e+00
      vertex 2.000000e+01 2.694998e+01 4.500001e+00
      vertex 2.000000e+01 2.450000e+01 4.500001e+00
    endloop
  endfacet
  facet normal 1.305262e-01 5.271606e-17 -9.914449e-01
    outer loop
      vertex 2.000000e+01 2.694998e+01 4.500001e+00
      vertex 1.961182e+01 2.450000e+01 4.448890e+00
      vertex 1.961182e+01 2.694998e+01 4.448890e+00
    endloop
  endfacet
  facet normal 3.826834e-01 3.313870e-17 -9.238795e-01
    outer loop
      vertex 1.925000e+01 2.450000e+01 4.299039e+00
      vertex 1.961182e+01 2.694998e+01 4.448890e+00
      vertex 1.961182e+01 2.450000e+01 4.448890e+00
    endloop
  endfacet
  facet normal 3.826834e-01 3.313870e-17 -9.238795e-01
    outer loop
      vertex 1.961182e+01 2.694998e+01 4.448890e+00
      vertex 1.925000e+01 2.450000e+01 4.299039e+00
      vertex 1.925000e+01 2.694998e+01 4.299039e+00
    endloop
  endfacet
  facet normal 7.933533e-01 -8.585477e-17 6.087614e-01
    outer loop
      vertex 1.893933e+01 2.694998e+01 1.939340e+00
      vertex 1.870099e+01 2.450000e+01 2.250001e+00
      vertex 1.893933e+01 2.450000e+01 1.939340e+00
    endloop
  endfacet
  facet normal 7.933533e-01 -8.585477e-17 6.087614e-01
    outer loop
      vertex 1.870099e+01 2.450000e+01 2.250001e+00
      vertex 1.893933e+01 2.694998e+01 1.939340e+00
      vertex 1.870099e+01 2.694998e+01 2.250001e+00
    endloop
  endfacet
  facet normal -1.305262e-01 -5.271606e-17 9.914449e-01
    outer loop
      vertex 2.000000e+01 2.694998e+01 1.500000e+00
      vertex 2.038824e+01 2.450000e+01 1.551111e+00
      vertex 2.038824e+01 2.694998e+01 1.551111e+00
    endloop
  endfacet
  facet normal -1.305262e-01 -5.271606e-17 9.914449e-01
    outer loop
      vertex 2.038824e+01 2.450000e+01 1.551111e+00
      vertex 2.000000e+01 2.694998e+01 1.500000e+00
      vertex 2.000000e+01 2.450000e+01 1.500000e+00
    endloop
  endfacet
  facet normal -9.914449e-01 6.870092e-17 -1.305262e-01
    outer loop
      vertex 2.144891e+01 2.694998e+01 3.388228e+00
      vertex 2.150000e+01 2.450000e+01 3.000001e+00
      vertex 2.144891e+01 2.450000e+01 3.388228e+00
    endloop
  endfacet
  facet normal -9.914449e-01 6.870092e-17 -1.305262e-01
    outer loop
      vertex 2.150000e+01 2.450000e+01 3.000001e+00
      vertex 2.144891e+01 2.694998e+01 3.388228e+00
      vertex 2.150000e+01 2.694998e+01 3.000001e+00
    endloop
  endfacet
  facet normal 6.087614e-01 -8.585477e-17 7.933533e-01
    outer loop
      vertex 1.893933e+01 2.694998e+01 1.939340e+00
      vertex 1.925000e+01 2.450000e+01 1.700962e+00
      vertex 1.925000e+01 2.694998e+01 1.700962e+00
    endloop
  endfacet
  facet normal 6.087614e-01 -8.585477e-17 7.933533e-01
    outer loop
      vertex 1.925000e+01 2.450000e+01 1.700962e+00
      vertex 1.893933e+01 2.694998e+01 1.939340e+00
      vertex 1.893933e+01 2.450000e+01 1.939340e+00
    endloop
  endfacet
  facet normal -9.238795e-01 8.000390e-17 -3.826834e-01
    outer loop
      vertex 2.129907e+01 2.694998e+01 3.750001e+00
      vertex 2.144891e+01 2.450000e+01 3.388228e+00
      vertex 2.129907e+01 2.450000e+01 3.750001e+00
    endloop
  endfacet
  facet normal -9.238795e-01 8.000390e-17 -3.826834e-01
    outer loop
      vertex 2.144891e+01 2.450000e+01 3.388228e+00
      vertex 2.129907e+01 2.694998e+01 3.750001e+00
      vertex 2.144891e+01 2.694998e+01 3.388228e+00
    endloop
  endfacet
  facet normal -3.826834e-01 -3.313870e-17 9.238795e-01
    outer loop
      vertex 2.038824e+01 2.694998e+01 1.551111e+00
      vertex 2.075000e+01 2.450000e+01 1.700962e+00
      vertex 2.075000e+01 2.694998e+01 1.700962e+00
    endloop
  endfacet
  facet normal -3.826834e-01 -3.313870e-17 9.238795e-01
    outer loop
      vertex 2.075000e+01 2.450000e+01 1.700962e+00
      vertex 2.038824e+01 2.694998e+01 1.551111e+00
      vertex 2.038824e+01 2.450000e+01 1.551111e+00
    endloop
  endfacet
  facet normal -1.305262e-01 6.870092e-17 -9.914449e-01
    outer loop
      vertex 2.000000e+01 2.450000e+01 4.500001e+00
      vertex 2.038824e+01 2.694998e+01 4.448890e+00
      vertex 2.038824e+01 2.450000e+01 4.448890e+00
    endloop
  endfacet
  facet normal -1.305262e-01 6.870092e-17 -9.914449e-01
    outer loop
      vertex 2.038824e+01 2.694998e+01 4.448890e+00
      vertex 2.000000e+01 2.450000e+01 4.500001e+00
      vertex 2.000000e+01 2.694998e+01 4.500001e+00
    endloop
  endfacet
  facet normal 9.238795e-01 -3.313870e-17 -3.826834e-01
    outer loop
      vertex 1.855115e+01 2.694998e+01 3.388228e+00
      vertex 1.870099e+01 2.450000e+01 3.750001e+00
      vertex 1.855115e+01 2.450000e+01 3.388228e+00
    endloop
  endfacet
  facet normal 9.238795e-01 -3.313870e-17 -3.826834e-01
    outer loop
      vertex 1.870099e+01 2.450000e+01 3.750001e+00
      vertex 1.855115e+01 2.694998e+01 3.388228e+00
      vertex 1.870099e+01 2.694998e+01 3.750001e+00
    endloop
  endfacet
  facet normal -3.826834e-01 8.000390e-17 -9.238795e-01
    outer loop
      vertex 2.038824e+01 2.450000e+01 4.448890e+00
      vertex 2.075000e+01 2.694998e+01 4.299039e+00
      vertex 2.075000e+01 2.450000e+01 4.299039e+00
    endloop
  endfacet
  facet normal -3.826834e-01 8.000390e-17 -9.238795e-01
    outer loop
      vertex 2.075000e+01 2.694998e+01 4.299039e+00
      vertex 2.038824e+01 2.450000e+01 4.448890e+00
      vertex 2.038824e+01 2.694998e+01 4.448890e+00
    endloop
  endfacet
  facet normal -7.933533e-01 1.130299e-17 6.087614e-01
    outer loop
      vertex 2.129907e+01 2.694998e+01 2.250001e+00
      vertex 2.106067e+01 2.450000e+01 1.939340e+00
      vertex 2.129907e+01 2.450000e+01 2.250001e+00
    endloop
  endfacet
  facet normal -7.933533e-01 1.130299e-17 6.087614e-01
    outer loop
      vertex 2.106067e+01 2.450000e+01 1.939340e+00
      vertex 2.129907e+01 2.694998e+01 2.250001e+00
      vertex 2.106067e+01 2.694998e+01 1.939340e+00
    endloop
  endfacet
  facet normal 9.238795e-01 -8.000390e-17 3.826834e-01
    outer loop
      vertex 1.870099e+01 2.694998e+01 2.250001e+00
      vertex 1.855115e+01 2.450000e+01 2.611772e+00
      vertex 1.870099e+01 2.450000e+01 2.250001e+00
    endloop
  endfacet
  facet normal 9.238795e-01 -8.000390e-17 3.826834e-01
    outer loop
      vertex 1.855115e+01 2.450000e+01 2.611772e+00
      vertex 1.870099e+01 2.694998e+01 2.250001e+00
      vertex 1.855115e+01 2.694998e+01 2.611772e+00
    endloop
  endfacet
  facet normal -6.087614e-01 8.585477e-17 -7.933533e-01
    outer loop
      vertex 2.075000e+01 2.450000e+01 4.299039e+00
      vertex 2.106067e+01 2.694998e+01 4.060660e+00
      vertex 2.106067e+01 2.450000e+01 4.060660e+00
    endloop
  endfacet
  facet normal -6.087614e-01 8.585477e-17 -7.933533e-01
    outer loop
      vertex 2.106067e+01 2.694998e+01 4.060660e+00
      vertex 2.075000e+01 2.450000e+01 4.299039e+00
      vertex 2.075000e+01 2.694998e+01 4.299039e+00
    endloop
  endfacet
  facet normal 9.914449e-01 -6.870092e-17 1.305262e-01
    outer loop
      vertex 1.855115e+01 2.694998e+01 2.611772e+00
      vertex 1.850000e+01 2.450000e+01 3.000001e+00
      vertex 1.855115e+01 2.450000e+01 2.611772e+00
    endloop
  endfacet
  facet normal 9.914449e-01 -6.870092e-17 1.305262e-01
    outer loop
      vertex 1.850000e+01 2.450000e+01 3.000001e+00
      vertex 1.855115e+01 2.694998e+01 2.611772e+00
      vertex 1.850000e+01 2.694998e+01 3.000001e+00
    endloop
  endfacet
  facet normal -6.087614e-01 -1.130299e-17 7.933533e-01
    outer loop
      vertex 2.075000e+01 2.694998e+01 1.700962e+00
      vertex 2.106067e+01 2.450000e+01 1.939340e+00
      vertex 2.106067e+01 2.694998e+01 1.939340e+00
    endloop
  endfacet
  facet normal -6.087614e-01 -1.130299e-17 7.933533e-01
    outer loop
      vertex 2.106067e+01 2.450000e+01 1.939340e+00
      vertex 2.075000e+01 2.694998e+01 1.700962e+00
      vertex 2.075000e+01 2.450000e+01 1.700962e+00
    endloop
  endfacet
  facet normal 6.087614e-01 1.130299e-17 -7.933533e-01
    outer loop
      vertex 1.893933e+01 2.450000e+01 4.060660e+00
      vertex 1.925000e+01 2.694998e+01 4.299039e+00
      vertex 1.925000e+01 2.450000e+01 4.299039e+00
    endloop
  endfacet
  facet normal 6.087614e-01 1.130299e-17 -7.933533e-01
    outer loop
      vertex 1.925000e+01 2.694998e+01 4.299039e+00
      vertex 1.893933e+01 2.450000e+01 4.060660e+00
      vertex 1.893933e+01 2.694998e+01 4.060660e+00
    endloop
  endfacet
  facet normal 7.933533e-01 -1.130299e-17 -6.087614e-01
    outer loop
      vertex 1.870099e+01 2.694998e+01 3.750001e+00
      vertex 1.893933e+01 2.450000e+01 4.060660e+00
      vertex 1.870099e+01 2.450000e+01 3.750001e+00
    endloop
  endfacet
  facet normal 7.933533e-01 -1.130299e-17 -6.087614e-01
    outer loop
      vertex 1.893933e+01 2.450000e+01 4.060660e+00
      vertex 1.870099e+01 2.694998e+01 3.750001e+00
      vertex 1.893933e+01 2.694998e+01 4.060660e+00
    endloop
  endfacet
  facet normal -3.826834e-01 -7.120690e-14 -9.238795e-01
    outer loop
      vertex 2.075000e+01 2.904999e+01 4.299039e+00
      vertex 2.038824e+01 3.050000e+01 4.448890e+00
      vertex 2.075000e+01 3.050000e+01 4.299039e+00
    endloop
  endfacet
  facet normal -3.826834e-01 -7.120690e-14 -9.238795e-01
    outer loop
      vertex 2.038824e+01 3.050000e+01 4.448890e+00
      vertex 2.075000e+01 2.904999e+01 4.299039e+00
      vertex 2.038824e+01 2.904999e+01 4.448890e+00
    endloop
  endfacet
  facet normal -9.914449e-01 1.252913e-14 1.305262e-01
    outer loop
      vertex 2.150000e+01 3.050000e+01 3.000001e+00
      vertex 2.144891e+01 2.904999e+01 2.611772e+00
      vertex 2.150000e+01 2.904999e+01 3.000001e+00
    endloop
  endfacet
  facet normal -9.914449e-01 1.252913e-14 1.305262e-01
    outer loop
      vertex 2.144891e+01 2.904999e+01 2.611772e+00
      vertex 2.150000e+01 3.050000e+01 3.000001e+00
      vertex 2.144891e+01 3.050000e+01 2.611772e+00
    endloop
  endfacet
  facet normal -7.933533e-01 -6.295553e-14 -6.087614e-01
    outer loop
      vertex 2.106067e+01 3.050000e+01 4.060660e+00
      vertex 2.129907e+01 2.904999e+01 3.750001e+00
      vertex 2.106067e+01 2.904999e+01 4.060660e+00
    endloop
  endfacet
  facet normal -7.933533e-01 -6.295553e-14 -6.087614e-01
    outer loop
      vertex 2.129907e+01 2.904999e+01 3.750001e+00
      vertex 2.106067e+01 3.050000e+01 4.060660e+00
      vertex 2.129907e+01 3.050000e+01 3.750001e+00
    endloop
  endfacet
  facet normal -9.914449e-01 -7.351156e-14 -1.305262e-01
    outer loop
      vertex 2.144891e+01 3.050000e+01 3.388228e+00
      vertex 2.150000e+01 2.904999e+01 3.000001e+00
      vertex 2.144891e+01 2.904999e+01 3.388228e+00
    endloop
  endfacet
  facet normal -9.914449e-01 -7.351156e-14 -1.305262e-01
    outer loop
      vertex 2.150000e+01 2.904999e+01 3.000001e+00
      vertex 2.144891e+01 3.050000e+01 3.388228e+00
      vertex 2.150000e+01 3.050000e+01 3.000001e+00
    endloop
  endfacet
  facet normal -9.238795e-01 1.222503e-14 3.826834e-01
    outer loop
      vertex 2.144891e+01 3.050000e+01 2.611772e+00
      vertex 2.129907e+01 2.904999e+01 2.250001e+00
      vertex 2.144891e+01 2.904999e+01 2.611772e+00
    endloop
  endfacet
  facet normal -9.238795e-01 1.222503e-14 3.826834e-01
    outer loop
      vertex 2.129907e+01 2.904999e+01 2.250001e+00
      vertex 2.144891e+01 3.050000e+01 2.611772e+00
      vertex 2.129907e+01 3.050000e+01 2.250001e+00
    endloop
  endfacet
  facet normal 9.914449e-01 -5.271606e-17 -1.305262e-01
    outer loop
      vertex 1.850000e+01 2.694998e+01 3.000001e+00
      vertex 1.855115e+01 2.450000e+01 3.388228e+00
      vertex 1.850000e+01 2.450000e+01 3.000001e+00
    endloop
  endfacet
  facet normal 9.914449e-01 -5.271606e-17 -1.305262e-01
    outer loop
      vertex 1.855115e+01 2.450000e+01 3.388228e+00
      vertex 1.850000e+01 2.694998e+01 3.000001e+00
      vertex 1.855115e+01 2.694998e+01 3.388228e+00
    endloop
  endfacet
  facet normal 9.914449e-01 1.656728e-14 1.305262e-01
    outer loop
      vertex 1.855115e+01 3.050000e+01 2.611772e+00
      vertex 1.850000e+01 2.904999e+01 3.000001e+00
      vertex 1.855115e+01 2.904999e+01 2.611772e+00
    endloop
  endfacet
  facet normal 9.914449e-01 1.656728e-14 1.305262e-01
    outer loop
      vertex 1.850000e+01 2.904999e+01 3.000001e+00
      vertex 1.855115e+01 3.050000e+01 2.611772e+00
      vertex 1.850000e+01 3.050000e+01 3.000001e+00
    endloop
  endfacet
  facet normal -9.238795e-01 -9.537804e-14 -3.826834e-01
    outer loop
      vertex 2.129907e+01 3.050000e+01 3.750001e+00
      vertex 2.144891e+01 2.904999e+01 3.388228e+00
      vertex 2.129907e+01 2.904999e+01 3.750001e+00
    endloop
  endfacet
  facet normal -9.238795e-01 -9.537804e-14 -3.826834e-01
    outer loop
      vertex 2.144891e+01 2.904999e+01 3.388228e+00
      vertex 2.129907e+01 3.050000e+01 3.750001e+00
      vertex 2.144891e+01 3.050000e+01 3.388228e+00
    endloop
  endfacet
  facet normal -3.826834e-01 5.884659e-14 9.238795e-01
    outer loop
      vertex 2.038824e+01 3.050000e+01 1.551111e+00
      vertex 2.075000e+01 2.904999e+01 1.700962e+00
      vertex 2.075000e+01 3.050000e+01 1.700962e+00
    endloop
  endfacet
  facet normal -3.826834e-01 5.884659e-14 9.238795e-01
    outer loop
      vertex 2.075000e+01 2.904999e+01 1.700962e+00
      vertex 2.038824e+01 3.050000e+01 1.551111e+00
      vertex 2.038824e+01 2.904999e+01 1.551111e+00
    endloop
  endfacet
  facet normal 7.933533e-01 -2.910570e-14 -6.087614e-01
    outer loop
      vertex 1.870099e+01 3.050000e+01 3.750001e+00
      vertex 1.893933e+01 2.904999e+01 4.060660e+00
      vertex 1.870099e+01 2.904999e+01 3.750001e+00
    endloop
  endfacet
  facet normal 7.933533e-01 -2.910570e-14 -6.087614e-01
    outer loop
      vertex 1.893933e+01 2.904999e+01 4.060660e+00
      vertex 1.870099e+01 3.050000e+01 3.750001e+00
      vertex 1.893933e+01 3.050000e+01 4.060660e+00
    endloop
  endfacet
  facet normal 1.305262e-01 -1.105158e-13 -9.914449e-01
    outer loop
      vertex 1.961182e+01 2.904999e+01 4.448890e+00
      vertex 2.000000e+01 3.050000e+01 4.500001e+00
      vertex 2.000000e+01 2.904999e+01 4.500001e+00
    endloop
  endfacet
  facet normal 1.305262e-01 -1.105158e-13 -9.914449e-01
    outer loop
      vertex 2.000000e+01 3.050000e+01 4.500001e+00
      vertex 1.961182e+01 2.904999e+01 4.448890e+00
      vertex 1.961182e+01 3.050000e+01 4.448890e+00
    endloop
  endfacet
  facet normal -6.087614e-01 6.950468e-14 7.933533e-01
    outer loop
      vertex 2.075000e+01 3.050000e+01 1.700962e+00
      vertex 2.106067e+01 2.904999e+01 1.939340e+00
      vertex 2.106067e+01 3.050000e+01 1.939340e+00
    endloop
  endfacet
  facet normal -6.087614e-01 6.950468e-14 7.933533e-01
    outer loop
      vertex 2.106067e+01 2.904999e+01 1.939340e+00
      vertex 2.075000e+01 3.050000e+01 1.700962e+00
      vertex 2.075000e+01 2.904999e+01 1.700962e+00
    endloop
  endfacet
  facet normal -7.933533e-01 4.365289e-14 6.087614e-01
    outer loop
      vertex 2.129907e+01 3.050000e+01 2.250001e+00
      vertex 2.106067e+01 2.904999e+01 1.939340e+00
      vertex 2.129907e+01 2.904999e+01 2.250001e+00
    endloop
  endfacet
  facet normal -7.933533e-01 4.365289e-14 6.087614e-01
    outer loop
      vertex 2.106067e+01 2.904999e+01 1.939340e+00
      vertex 2.129907e+01 3.050000e+01 2.250001e+00
      vertex 2.106067e+01 3.050000e+01 1.939340e+00
    endloop
  endfacet
  facet normal 7.933533e-01 -1.184927e-14 6.087614e-01
    outer loop
      vertex 1.893933e+01 3.050000e+01 1.939340e+00
      vertex 1.870099e+01 2.904999e+01 2.250001e+00
      vertex 1.893933e+01 2.904999e+01 1.939340e+00
    endloop
  endfacet
  facet normal 7.933533e-01 -1.184927e-14 6.087614e-01
    outer loop
      vertex 1.870099e+01 2.904999e+01 2.250001e+00
      vertex 1.893933e+01 3.050000e+01 1.939340e+00
      vertex 1.870099e+01 3.050000e+01 2.250001e+00
    endloop
  endfacet
  facet normal -1.305262e-01 5.523210e-14 9.914449e-01
    outer loop
      vertex 2.000000e+01 3.050000e+01 1.500000e+00
      vertex 2.038824e+01 2.904999e+01 1.551111e+00
      vertex 2.038824e+01 3.050000e+01 1.551111e+00
    endloop
  endfacet
  facet normal -1.305262e-01 5.523210e-14 9.914449e-01
    outer loop
      vertex 2.038824e+01 2.904999e+01 1.551111e+00
      vertex 2.000000e+01 3.050000e+01 1.500000e+00
      vertex 2.000000e+01 2.904999e+01 1.500000e+00
    endloop
  endfacet
  facet normal -6.123234e-17 -1.000000e+00 -6.123234e-17
    outer loop
      vertex 1.729999e+01 2.904999e+01 6.000001e+00
      vertex 1.925000e+01 2.904999e+01 4.299039e+00
      vertex 2.270001e+01 2.904999e+01 6.000001e+00
    endloop
  endfacet
  facet normal -6.123234e-17 -1.000000e+00 -6.123234e-17
    outer loop
      vertex 1.925000e+01 2.904999e+01 4.299039e+00
      vertex 1.729999e+01 2.904999e+01 6.000001e+00
      vertex 1.893933e+01 2.904999e+01 4.060660e+00
    endloop
  endfacet
  facet normal -6.123234e-17 -1.000000e+00 -6.123234e-17
    outer loop
      vertex 1.893933e+01 2.904999e+01 4.060660e+00
      vertex 1.729999e+01 2.904999e+01 6.000001e+00
      vertex 1.870099e+01 2.904999e+01 3.750001e+00
    endloop
  endfacet
  facet normal -6.123234e-17 -1.000000e+00 -6.123234e-17
    outer loop
      vertex 1.870099e+01 2.904999e+01 3.750001e+00
      vertex 1.729999e+01 2.904999e+01 6.000001e+00
      vertex 1.855115e+01 2.904999e+01 3.388228e+00
    endloop
  endfacet
  facet normal -6.123234e-17 -1.000000e+00 -6.123234e-17
    outer loop
      vertex 1.855115e+01 2.904999e+01 3.388228e+00
      vertex 1.729999e+01 2.904999e+01 6.000001e+00
      vertex 1.729999e+01 2.904999e+01 3.552714e-15
    endloop
  endfacet
  facet normal -6.123234e-17 -1.000000e+00 -6.123234e-17
    outer loop
      vertex 2.270001e+01 2.904999e+01 6.000001e+00
      vertex 1.925000e+01 2.904999e+01 4.299039e+00
      vertex 1.961182e+01 2.904999e+01 4.448890e+00
    endloop
  endfacet
  facet normal -6.123234e-17 -1.000000e+00 -6.123234e-17
    outer loop
      vertex 2.270001e+01 2.904999e+01 6.000001e+00
      vertex 1.961182e+01 2.904999e+01 4.448890e+00
      vertex 2.000000e+01 2.904999e+01 4.500001e+00
    endloop
  endfacet
  facet normal -6.123234e-17 -1.000000e+00 -6.123234e-17
    outer loop
      vertex 1.855115e+01 2.904999e+01 3.388228e+00
      vertex 1.729999e+01 2.904999e+01 3.552714e-15
      vertex 1.850000e+01 2.904999e+01 3.000001e+00
    endloop
  endfacet
  facet normal -6.123234e-17 -1.000000e+00 -6.123234e-17
    outer loop
      vertex 1.850000e+01 2.904999e+01 3.000001e+00
      vertex 1.729999e+01 2.904999e+01 3.552714e-15
      vertex 1.855115e+01 2.904999e+01 2.611772e+00
    endloop
  endfacet
  facet normal -6.123234e-17 -1.000000e+00 -6.123234e-17
    outer loop
      vertex 1.855115e+01 2.904999e+01 2.611772e+00
      vertex 1.729999e+01 2.904999e+01 3.552714e-15
      vertex 1.870099e+01 2.904999e+01 2.250001e+00
    endloop
  endfacet
  facet normal -6.123234e-17 -1.000000e+00 -6.123234e-17
    outer loop
      vertex 1.870099e+01 2.904999e+01 2.250001e+00
      vertex 1.729999e+01 2.904999e+01 3.552714e-15
      vertex 1.893933e+01 2.904999e+01 1.939340e+00
    endloop
  endfacet
  facet normal -6.123234e-17 -1.000000e+00 -6.123234e-17
    outer loop
      vertex 1.893933e+01 2.904999e+01 1.939340e+00
      vertex 1.729999e+01 2.904999e+01 3.552714e-15
      vertex 1.925000e+01 2.904999e+01 1.700962e+00
    endloop
  endfacet
  facet normal -6.123234e-17 -1.000000e+00 -6.123234e-17
    outer loop
      vertex 1.925000e+01 2.904999e+01 1.700962e+00
      vertex 1.729999e+01 2.904999e+01 3.552714e-15
      vertex 1.961182e+01 2.904999e+01 1.551111e+00
    endloop
  endfacet
  facet normal -6.123234e-17 -1.000000e+00 -6.123234e-17
    outer loop
      vertex 1.961182e+01 2.904999e+01 1.551111e+00
      vertex 1.729999e+01 2.904999e+01 3.552714e-15
      vertex 2.000000e+01 2.904999e+01 1.500000e+00
    endloop
  endfacet
  facet normal -6.123234e-17 -1.000000e+00 -6.123234e-17
    outer loop
      vertex 2.000000e+01 2.904999e+01 1.500000e+00
      vertex 1.729999e+01 2.904999e+01 3.552714e-15
      vertex 2.270001e+01 2.904999e+01 3.552714e-15
    endloop
  endfacet
  facet normal -6.123234e-17 -1.000000e+00 -6.123234e-17
    outer loop
      vertex 2.270001e+01 2.904999e+01 6.000001e+00
      vertex 2.144891e+01 2.904999e+01 3.388228e+00
      vertex 2.270001e+01 2.904999e+01 3.552714e-15
    endloop
  endfacet
  facet normal -6.123234e-17 -1.000000e+00 -6.123234e-17
    outer loop
      vertex 2.144891e+01 2.904999e+01 3.388228e+00
      vertex 2.270001e+01 2.904999e+01 6.000001e+00
      vertex 2.129907e+01 2.904999e+01 3.750001e+00
    endloop
  endfacet
  facet normal -6.123234e-17 -1.000000e+00 -6.123234e-17
    outer loop
      vertex 2.129907e+01 2.904999e+01 3.750001e+00
      vertex 2.270001e+01 2.904999e+01 6.000001e+00
      vertex 2.106067e+01 2.904999e+01 4.060660e+00
    endloop
  endfacet
  facet normal -6.123234e-17 -1.000000e+00 -6.123234e-17
    outer loop
      vertex 2.106067e+01 2.904999e+01 4.060660e+00
      vertex 2.270001e+01 2.904999e+01 6.000001e+00
      vertex 2.075000e+01 2.904999e+01 4.299039e+00
    endloop
  endfacet
  facet normal -6.123234e-17 -1.000000e+00 -6.123234e-17
    outer loop
      vertex 2.075000e+01 2.904999e+01 4.299039e+00
      vertex 2.270001e+01 2.904999e+01 6.000001e+00
      vertex 2.038824e+01 2.904999e+01 4.448890e+00
    endloop
  endfacet
  facet normal -6.123234e-17 -1.000000e+00 -6.123234e-17
    outer loop
      vertex 2.038824e+01 2.904999e+01 4.448890e+00
      vertex 2.270001e+01 2.904999e+01 6.000001e+00
      vertex 2.000000e+01 2.904999e+01 4.500001e+00
    endloop
  endfacet
  facet normal -6.123234e-17 -1.000000e+00 -6.123234e-17
    outer loop
      vertex 2.270001e+01 2.904999e+01 3.552714e-15
      vertex 2.144891e+01 2.904999e+01 3.388228e+00
      vertex 2.150000e+01 2.904999e+01 3.000001e+00
    endloop
  endfacet
  facet normal -6.123234e-17 -1.000000e+00 -6.123234e-17
    outer loop
      vertex 2.270001e+01 2.904999e+01 3.552714e-15
      vertex 2.150000e+01 2.904999e+01 3.000001e+00
      vertex 2.144891e+01 2.904999e+01 2.611772e+00
    endloop
  endfacet
  facet normal -6.123234e-17 -1.000000e+00 -6.123234e-17
    outer loop
      vertex 2.270001e+01 2.904999e+01 3.552714e-15
      vertex 2.144891e+01 2.904999e+01 2.611772e+00
      vertex 2.129907e+01 2.904999e+01 2.250001e+00
    endloop
  endfacet
  facet normal -6.123234e-17 -1.000000e+00 -6.123234e-17
    outer loop
      vertex 2.270001e+01 2.904999e+01 3.552714e-15
      vertex 2.129907e+01 2.904999e+01 2.250001e+00
      vertex 2.106067e+01 2.904999e+01 1.939340e+00
    endloop
  endfacet
  facet normal -6.123234e-17 -1.000000e+00 -6.123234e-17
    outer loop
      vertex 2.270001e+01 2.904999e+01 3.552714e-15
      vertex 2.106067e+01 2.904999e+01 1.939340e+00
      vertex 2.075000e+01 2.904999e+01 1.700962e+00
    endloop
  endfacet
  facet normal -6.123234e-17 -1.000000e+00 -6.123234e-17
    outer loop
      vertex 2.270001e+01 2.904999e+01 3.552714e-15
      vertex 2.075000e+01 2.904999e+01 1.700962e+00
      vertex 2.038824e+01 2.904999e+01 1.551111e+00
    endloop
  endfacet
  facet normal -6.123234e-17 -1.000000e+00 -6.123234e-17
    outer loop
      vertex 2.270001e+01 2.904999e+01 3.552714e-15
      vertex 2.038824e+01 2.904999e+01 1.551111e+00
      vertex 2.000000e+01 2.904999e+01 1.500000e+00
    endloop
  endfacet
  facet normal 3.826834e-01 -1.103618e-13 -9.238795e-01
    outer loop
      vertex 1.961182e+01 2.904999e+01 4.448890e+00
      vertex 1.925000e+01 3.050000e+01 4.299039e+00
      vertex 1.961182e+01 3.050000e+01 4.448890e+00
    endloop
  endfacet
  facet normal 3.826834e-01 -1.103618e-13 -9.238795e-01
    outer loop
      vertex 1.925000e+01 3.050000e+01 4.299039e+00
      vertex 1.961182e+01 2.904999e+01 4.448890e+00
      vertex 1.925000e+01 2.904999e+01 4.299039e+00
    endloop
  endfacet
  facet normal 1.000000e+00 -6.123234e-17 0.000000e+00
    outer loop
      vertex 1.729999e+01 2.904999e+01 3.552714e-15
      vertex 1.729999e+01 2.694998e+01 6.000001e+00
      vertex 1.729999e+01 2.694998e+01 3.552714e-15
    endloop
  endfacet
  facet normal 1.000000e+00 -6.123234e-17 0.000000e+00
    outer loop
      vertex 1.729999e+01 2.694998e+01 6.000001e+00
      vertex 1.729999e+01 2.904999e+01 3.552714e-15
      vertex 1.729999e+01 2.904999e+01 6.000001e+00
    endloop
  endfacet
  facet normal 9.238795e-01 -2.136978e-14 -3.826834e-01
    outer loop
      vertex 1.855115e+01 3.050000e+01 3.388228e+00
      vertex 1.870099e+01 2.904999e+01 3.750001e+00
      vertex 1.855115e+01 2.904999e+01 3.388228e+00
    endloop
  endfacet
  facet normal 9.238795e-01 -2.136978e-14 -3.826834e-01
    outer loop
      vertex 1.870099e+01 2.904999e+01 3.750001e+00
      vertex 1.855115e+01 3.050000e+01 3.388228e+00
      vertex 1.870099e+01 3.050000e+01 3.750001e+00
    endloop
  endfacet
  facet normal -1.000000e+00 6.123234e-17 0.000000e+00
    outer loop
      vertex 2.270001e+01 2.904999e+01 6.000001e+00
      vertex 2.270001e+01 2.694998e+01 3.552714e-15
      vertex 2.270001e+01 2.694998e+01 6.000001e+00
    endloop
  endfacet
  facet normal -1.000000e+00 6.123234e-17 0.000000e+00
    outer loop
      vertex 2.270001e+01 2.694998e+01 3.552714e-15
      vertex 2.270001e+01 2.904999e+01 6.000001e+00
      vertex 2.270001e+01 2.904999e+01 3.552714e-15
    endloop
  endfacet
  facet normal 9.238795e-01 -1.018148e-14 3.826834e-01
    outer loop
      vertex 1.870099e+01 3.050000e+01 2.250001e+00
      vertex 1.855115e+01 2.904999e+01 2.611772e+00
      vertex 1.870099e+01 2.904999e+01 2.250001e+00
    endloop
  endfacet
  facet normal 9.238795e-01 -1.018148e-14 3.826834e-01
    outer loop
      vertex 1.855115e+01 2.904999e+01 2.611772e+00
      vertex 1.870099e+01 3.050000e+01 2.250001e+00
      vertex 1.855115e+01 3.050000e+01 2.611772e+00
    endloop
  endfacet
  facet normal 1.305262e-01 3.899937e-14 9.914449e-01
    outer loop
      vertex 1.961182e+01 3.050000e+01 1.551111e+00
      vertex 2.000000e+01 2.904999e+01 1.500000e+00
      vertex 2.000000e+01 3.050000e+01 1.500000e+00
    endloop
  endfacet
  facet normal 1.305262e-01 3.899937e-14 9.914449e-01
    outer loop
      vertex 2.000000e+01 2.904999e+01 1.500000e+00
      vertex 1.961182e+01 3.050000e+01 1.551111e+00
      vertex 1.961182e+01 2.904999e+01 1.551111e+00
    endloop
  endfacet
  facet normal -6.087614e-01 9.566783e-16 -7.933533e-01
    outer loop
      vertex 2.075000e+01 2.904999e+01 4.299039e+00
      vertex 2.106067e+01 3.050000e+01 4.060660e+00
      vertex 2.106067e+01 2.904999e+01 4.060660e+00
    endloop
  endfacet
  facet normal -6.087614e-01 9.566783e-16 -7.933533e-01
    outer loop
      vertex 2.106067e+01 3.050000e+01 4.060660e+00
      vertex 2.075000e+01 2.904999e+01 4.299039e+00
      vertex 2.075000e+01 3.050000e+01 4.299039e+00
    endloop
  endfacet
  facet normal 6.123234e-17 1.000000e+00 6.123234e-17
    outer loop
      vertex 2.270001e+01 2.694998e+01 6.000001e+00
      vertex 2.075000e+01 2.694998e+01 4.299039e+00
      vertex 1.729999e+01 2.694998e+01 6.000001e+00
    endloop
  endfacet
  facet normal 6.123234e-17 1.000000e+00 6.123234e-17
    outer loop
      vertex 2.075000e+01 2.694998e+01 4.299039e+00
      vertex 2.270001e+01 2.694998e+01 6.000001e+00
      vertex 2.106067e+01 2.694998e+01 4.060660e+00
    endloop
  endfacet
  facet normal 6.123234e-17 1.000000e+00 6.123234e-17
    outer loop
      vertex 2.106067e+01 2.694998e+01 4.060660e+00
      vertex 2.270001e+01 2.694998e+01 6.000001e+00
      vertex 2.129907e+01 2.694998e+01 3.750001e+00
    endloop
  endfacet
  facet normal 6.123234e-17 1.000000e+00 6.123234e-17
    outer loop
      vertex 2.129907e+01 2.694998e+01 3.750001e+00
      vertex 2.270001e+01 2.694998e+01 6.000001e+00
      vertex 2.144891e+01 2.694998e+01 3.388228e+00
    endloop
  endfacet
  facet normal 6.123234e-17 1.000000e+00 6.123234e-17
    outer loop
      vertex 2.144891e+01 2.694998e+01 3.388228e+00
      vertex 2.270001e+01 2.694998e+01 6.000001e+00
      vertex 2.270001e+01 2.694998e+01 3.552714e-15
    endloop
  endfacet
  facet normal 6.123234e-17 1.000000e+00 6.123234e-17
    outer loop
      vertex 1.729999e+01 2.694998e+01 6.000001e+00
      vertex 2.075000e+01 2.694998e+01 4.299039e+00
      vertex 2.038824e+01 2.694998e+01 4.448890e+00
    endloop
  endfacet
  facet normal 6.123234e-17 1.000000e+00 6.123234e-17
    outer loop
      vertex 1.729999e+01 2.694998e+01 6.000001e+00
      vertex 2.038824e+01 2.694998e+01 4.448890e+00
      vertex 2.000000e+01 2.694998e+01 4.500001e+00
    endloop
  endfacet
  facet normal 6.123234e-17 1.000000e+00 6.123234e-17
    outer loop
      vertex 2.144891e+01 2.694998e+01 3.388228e+00
      vertex 2.270001e+01 2.694998e+01 3.552714e-15
      vertex 2.150000e+01 2.694998e+01 3.000001e+00
    endloop
  endfacet
  facet normal 6.123234e-17 1.000000e+00 6.123234e-17
    outer loop
      vertex 2.150000e+01 2.694998e+01 3.000001e+00
      vertex 2.270001e+01 2.694998e+01 3.552714e-15
      vertex 2.144891e+01 2.694998e+01 2.611772e+00
    endloop
  endfacet
  facet normal 6.123234e-17 1.000000e+00 6.123234e-17
    outer loop
      vertex 2.144891e+01 2.694998e+01 2.611772e+00
      vertex 2.270001e+01 2.694998e+01 3.552714e-15
      vertex 2.129907e+01 2.694998e+01 2.250001e+00
    endloop
  endfacet
  facet normal 6.123234e-17 1.000000e+00 6.123234e-17
    outer loop
      vertex 2.129907e+01 2.694998e+01 2.250001e+00
      vertex 2.270001e+01 2.694998e+01 3.552714e-15
      vertex 2.106067e+01 2.694998e+01 1.939340e+00
    endloop
  endfacet
  facet normal 6.123234e-17 1.000000e+00 6.123234e-17
    outer loop
      vertex 2.106067e+01 2.694998e+01 1.939340e+00
      vertex 2.270001e+01 2.694998e+01 3.552714e-15
      vertex 2.075000e+01 2.694998e+01 1.700962e+00
    endloop
  endfacet
  facet normal 6.123234e-17 1.000000e+00 6.123234e-17
    outer loop
      vertex 2.075000e+01 2.694998e+01 1.700962e+00
      vertex 2.270001e+01 2.694998e+01 3.552714e-15
      vertex 2.038824e+01 2.694998e+01 1.551111e+00
    endloop
  endfacet
  facet normal 6.123234e-17 1.000000e+00 6.123234e-17
    outer loop
      vertex 2.038824e+01 2.694998e+01 1.551111e+00
      vertex 2.270001e+01 2.694998e+01 3.552714e-15
      vertex 2.000000e+01 2.694998e+01 1.500000e+00
    endloop
  endfacet
  facet normal 6.123234e-17 1.000000e+00 6.123234e-17
    outer loop
      vertex 1.729999e+01 2.694998e+01 6.000001e+00
      vertex 1.855115e+01 2.694998e+01 3.388228e+00
      vertex 1.729999e+01 2.694998e+01 3.552714e-15
    endloop
  endfacet
  facet normal 6.123234e-17 1.000000e+00 6.123234e-17
    outer loop
      vertex 1.855115e+01 2.694998e+01 3.388228e+00
      vertex 1.729999e+01 2.694998e+01 6.000001e+00
      vertex 1.870099e+01 2.694998e+01 3.750001e+00
    endloop
  endfacet
  facet normal 6.123234e-17 1.000000e+00 6.123234e-17
    outer loop
      vertex 1.870099e+01 2.694998e+01 3.750001e+00
      vertex 1.729999e+01 2.694998e+01 6.000001e+00
      vertex 1.893933e+01 2.694998e+01 4.060660e+00
    endloop
  endfacet
  facet normal 6.123234e-17 1.000000e+00 6.123234e-17
    outer loop
      vertex 1.893933e+01 2.694998e+01 4.060660e+00
      vertex 1.729999e+01 2.694998e+01 6.000001e+00
      vertex 1.925000e+01 2.694998e+01 4.299039e+00
    endloop
  endfacet
  facet normal 6.123234e-17 1.000000e+00 6.123234e-17
    outer loop
      vertex 1.925000e+01 2.694998e+01 4.299039e+00
      vertex 1.729999e+01 2.694998e+01 6.000001e+00
      vertex 1.961182e+01 2.694998e+01 4.448890e+00
    endloop
  endfacet
  facet normal 6.123234e-17 1.000000e+00 6.123234e-17
    outer loop
      vertex 1.961182e+01 2.694998e+01 4.448890e+00
      vertex 1.729999e+01 2.694998e+01 6.000001e+00
      vertex 2.000000e+01 2.694998e+01 4.500001e+00
    endloop
  endfacet
  facet normal 6.123234e-17 1.000000e+00 6.123234e-17
    outer loop
      vertex 1.729999e+01 2.694998e+01 3.552714e-15
      vertex 1.855115e+01 2.694998e+01 3.388228e+00
      vertex 1.850000e+01 2.694998e+01 3.000001e+00
    endloop
  endfacet
  facet normal 6.123234e-17 1.000000e+00 6.123234e-17
    outer loop
      vertex 1.729999e+01 2.694998e+01 3.552714e-15
      vertex 1.850000e+01 2.694998e+01 3.000001e+00
      vertex 1.855115e+01 2.694998e+01 2.611772e+00
    endloop
  endfacet
  facet normal 6.123234e-17 1.000000e+00 6.123234e-17
    outer loop
      vertex 1.729999e+01 2.694998e+01 3.552714e-15
      vertex 1.855115e+01 2.694998e+01 2.611772e+00
      vertex 1.870099e+01 2.694998e+01 2.250001e+00
    endloop
  endfacet
  facet normal 6.123234e-17 1.000000e+00 6.123234e-17
    outer loop
      vertex 1.729999e+01 2.694998e+01 3.552714e-15
      vertex 1.870099e+01 2.694998e+01 2.250001e+00
      vertex 1.893933e+01 2.694998e+01 1.939340e+00
    endloop
  endfacet
  facet normal 6.123234e-17 1.000000e+00 6.123234e-17
    outer loop
      vertex 1.729999e+01 2.694998e+01 3.552714e-15
      vertex 1.893933e+01 2.694998e+01 1.939340e+00
      vertex 1.925000e+01 2.694998e+01 1.700962e+00
    endloop
  endfacet
  facet normal 6.123234e-17 1.000000e+00 6.123234e-17
    outer loop
      vertex 1.729999e+01 2.694998e+01 3.552714e-15
      vertex 1.925000e+01 2.694998e+01 1.700962e+00
      vertex 1.961182e+01 2.694998e+01 1.551111e+00
    endloop
  endfacet
  facet normal 6.123234e-17 1.000000e+00 6.123234e-17
    outer loop
      vertex 1.729999e+01 2.694998e+01 3.552714e-15
      vertex 1.961182e+01 2.694998e+01 1.551111e+00
      vertex 2.000000e+01 2.694998e+01 1.500000e+00
    endloop
  endfacet
  facet normal 6.123234e-17 1.000000e+00 6.123234e-17
    outer loop
      vertex 1.729999e+01 2.694998e+01 3.552714e-15
      vertex 2.000000e+01 2.694998e+01 1.500000e+00
      vertex 2.270001e+01 2.694998e+01 3.552714e-15
    endloop
  endfacet
  facet normal -1.305262e-01 -1.188178e-13 -9.914449e-01
    outer loop
      vertex 2.000000e+01 2.904999e+01 4.500001e+00
      vertex 2.038824e+01 3.050000e+01 4.448890e+00
      vertex 2.038824e+01 2.904999e+01 4.448890e+00
    endloop
  endfacet
  facet normal -1.305262e-01 -1.188178e-13 -9.914449e-01
    outer loop
      vertex 2.038824e+01 3.050000e+01 4.448890e+00
      vertex 2.000000e+01 2.904999e+01 4.500001e+00
      vertex 2.000000e+01 3.050000e+01 4.500001e+00
    endloop
  endfacet
  facet normal 3.826834e-01 1.153617e-13 9.238795e-01
    outer loop
      vertex 1.925000e+01 3.050000e+01 1.700962e+00
      vertex 1.961182e+01 2.904999e+01 1.551111e+00
      vertex 1.961182e+01 3.050000e+01 1.551111e+00
    endloop
  endfacet
  facet normal 3.826834e-01 1.153617e-13 9.238795e-01
    outer loop
      vertex 1.961182e+01 2.904999e+01 1.551111e+00
      vertex 1.925000e+01 3.050000e+01 1.700962e+00
      vertex 1.925000e+01 2.904999e+01 1.700962e+00
    endloop
  endfacet
  facet normal 6.087614e-01 8.838148e-14 7.933533e-01
    outer loop
      vertex 1.893933e+01 3.050000e+01 1.939340e+00
      vertex 1.925000e+01 2.904999e+01 1.700962e+00
      vertex 1.925000e+01 3.050000e+01 1.700962e+00
    endloop
  endfacet
  facet normal 6.087614e-01 8.838148e-14 7.933533e-01
    outer loop
      vertex 1.925000e+01 2.904999e+01 1.700962e+00
      vertex 1.893933e+01 3.050000e+01 1.939340e+00
      vertex 1.893933e+01 2.904999e+01 1.939340e+00
    endloop
  endfacet
  facet normal 6.087614e-01 -5.434993e-15 -7.933533e-01
    outer loop
      vertex 1.893933e+01 2.904999e+01 4.060660e+00
      vertex 1.925000e+01 3.050000e+01 4.299039e+00
      vertex 1.925000e+01 2.904999e+01 4.299039e+00
    endloop
  endfacet
  facet normal 6.087614e-01 -5.434993e-15 -7.933533e-01
    outer loop
      vertex 1.925000e+01 3.050000e+01 4.299039e+00
      vertex 1.893933e+01 2.904999e+01 4.060660e+00
      vertex 1.893933e+01 3.050000e+01 4.060660e+00
    endloop
  endfacet
  facet normal 9.914449e-01 -1.148981e-14 -1.305262e-01
    outer loop
      vertex 1.850000e+01 3.050000e+01 3.000001e+00
      vertex 1.855115e+01 2.904999e+01 3.388228e+00
      vertex 1.850000e+01 2.904999e+01 3.000001e+00
    endloop
  endfacet
  facet normal 9.914449e-01 -1.148981e-14 -1.305262e-01
    outer loop
      vertex 1.855115e+01 2.904999e+01 3.388228e+00
      vertex 1.850000e+01 3.050000e+01 3.000001e+00
      vertex 1.855115e+01 3.050000e+01 3.388228e+00
    endloop
  endfacet
  facet normal 1.000000e+00 -6.123234e-17 0.000000e+00
    outer loop
      vertex 2.500000e+01 3.050000e+01 3.552714e-15
      vertex 2.500000e+01 2.450000e+01 6.000001e+00
      vertex 2.500000e+01 2.450000e+01 3.552714e-15
    endloop
  endfacet
  facet normal 1.000000e+00 -6.123234e-17 0.000000e+00
    outer loop
      vertex 2.500000e+01 2.450000e+01 6.000001e+00
      vertex 2.500000e+01 3.050000e+01 3.552714e-15
      vertex 2.500000e+01 3.050000e+01 6.000001e+00
    endloop
  endfacet
  facet normal 1.625686e-16 6.161195e-17 -1.000000e+00
    outer loop
      vertex 2.500000e+01 2.450000e+01 3.552714e-15
      vertex 2.270001e+01 2.694998e+01 3.552714e-15
      vertex 2.500000e+01 3.050000e+01 3.552714e-15
    endloop
  endfacet
  facet normal 1.625686e-16 6.161195e-17 -1.000000e+00
    outer loop
      vertex 2.270001e+01 2.694998e+01 3.552714e-15
      vertex 2.500000e+01 2.450000e+01 3.552714e-15
      vertex 1.350000e+01 2.450000e+01 3.552714e-15
    endloop
  endfacet
  facet normal 1.625686e-16 6.161195e-17 -1.000000e+00
    outer loop
      vertex 2.270001e+01 2.694998e+01 3.552714e-15
      vertex 1.350000e+01 2.450000e+01 3.552714e-15
      vertex 1.729999e+01 2.694998e+01 3.552714e-15
    endloop
  endfacet
  facet normal 1.625686e-16 6.161195e-17 -1.000000e+00
    outer loop
      vertex 1.729999e+01 2.694998e+01 3.552714e-15
      vertex 1.350000e+01 2.450000e+01 3.552714e-15
      vertex 1.729999e+01 2.904999e+01 3.552714e-15
    endloop
  endfacet
  facet normal 1.625686e-16 6.161195e-17 -1.000000e+00
    outer loop
      vertex -2.500000e+01 -3.050000e+01 0.000000e+00
      vertex -2.200000e+01 4.500000e+00 3.552714e-15
      vertex -2.200000e+01 -3.050000e+01 0.000000e+00
    endloop
  endfacet
  facet normal 1.625686e-16 6.161195e-17 -1.000000e+00
    outer loop
      vertex 1.350000e+01 9.500000e+00 3.552714e-15
      vertex 8.500000e+00 1.550000e+01 3.552714e-15
      vertex 1.350000e+01 2.450000e+01 3.552714e-15
    endloop
  endfacet
  facet normal 1.625686e-16 6.161195e-17 -1.000000e+00
    outer loop
      vertex 8.500000e+00 1.550000e+01 3.552714e-15
      vertex 1.350000e+01 9.500000e+00 3.552714e-15
      vertex -1.700000e+01 9.500000e+00 3.552714e-15
    endloop
  endfacet
  facet normal 1.625686e-16 6.161195e-17 -1.000000e+00
    outer loop
      vertex 8.500000e+00 1.550000e+01 3.552714e-15
      vertex -1.700000e+01 9.500000e+00 3.552714e-15
      vertex -2.500000e+01 1.550000e+01 3.552714e-15
    endloop
  endfacet
  facet normal 1.625686e-16 6.161195e-17 -1.000000e+00
    outer loop
      vertex -2.500000e+01 1.550000e+01 3.552714e-15
      vertex -1.700000e+01 9.500000e+00 3.552714e-15
      vertex -2.200000e+01 4.500000e+00 3.552714e-15
    endloop
  endfacet
  facet normal 1.625686e-16 6.161195e-17 -1.000000e+00
    outer loop
      vertex -2.500000e+01 1.550000e+01 3.552714e-15
      vertex -2.200000e+01 4.500000e+00 3.552714e-15
      vertex -2.500000e+01 -3.050000e+01 0.000000e+00
    endloop
  endfacet
  facet normal 1.625686e-16 6.161195e-17 -1.000000e+00
    outer loop
      vertex 2.500000e+01 3.050000e+01 3.552714e-15
      vertex 2.270001e+01 2.904999e+01 3.552714e-15
      vertex 8.500000e+00 3.050000e+01 3.552714e-15
    endloop
  endfacet
  facet normal 1.625686e-16 6.161195e-17 -1.000000e+00
    outer loop
      vertex 2.270001e+01 2.904999e+01 3.552714e-15
      vertex 2.500000e+01 3.050000e+01 3.552714e-15
      vertex 2.270001e+01 2.694998e+01 3.552714e-15
    endloop
  endfacet
  facet normal 1.625686e-16 6.161195e-17 -1.000000e+00
    outer loop
      vertex 8.500000e+00 3.050000e+01 3.552714e-15
      vertex 2.270001e+01 2.904999e+01 3.552714e-15
      vertex 1.729999e+01 2.904999e+01 3.552714e-15
    endloop
  endfacet
  facet normal 1.625686e-16 6.161195e-17 -1.000000e+00
    outer loop
      vertex 8.500000e+00 3.050000e+01 3.552714e-15
      vertex 1.729999e+01 2.904999e+01 3.552714e-15
      vertex 1.350000e+01 2.450000e+01 3.552714e-15
    endloop
  endfacet
  facet normal 1.625686e-16 6.161195e-17 -1.000000e+00
    outer loop
      vertex 8.500000e+00 3.050000e+01 3.552714e-15
      vertex 1.350000e+01 2.450000e+01 3.552714e-15
      vertex 8.500000e+00 1.550000e+01 3.552714e-15
    endloop
  endfacet
  facet normal 7.071068e-01 -7.071068e-01 -4.329780e-17
    outer loop
      vertex -2.200000e+01 4.500000e+00 6.000001e+00
      vertex -1.700000e+01 9.500000e+00 3.552714e-15
      vertex -1.700000e+01 9.500000e+00 6.000001e+00
    endloop
  endfacet
  facet normal 7.071068e-01 -7.071068e-01 -4.329780e-17
    outer loop
      vertex -1.700000e+01 9.500000e+00 3.552714e-15
      vertex -2.200000e+01 4.500000e+00 6.000001e+00
      vertex -2.200000e+01 4.500000e+00 3.552714e-15
    endloop
  endfacet
  facet normal 6.123234e-17 1.000000e+00 6.123234e-17
    outer loop
      vertex 2.500000e+01 3.050000e+01 6.000001e+00
      vertex 2.000000e+01 3.050000e+01 4.500001e+00
      vertex 8.500000e+00 3.050000e+01 6.000001e+00
    endloop
  endfacet
  facet normal 6.123234e-17 1.000000e+00 6.123234e-17
    outer loop
      vertex 2.000000e+01 3.050000e+01 4.500001e+00
      vertex 2.500000e+01 3.050000e+01 6.000001e+00
      vertex 2.038824e+01 3.050000e+01 4.448890e+00
    endloop
  endfacet
  facet normal 6.123234e-17 1.000000e+00 6.123234e-17
    outer loop
      vertex 2.038824e+01 3.050000e+01 4.448890e+00
      vertex 2.500000e+01 3.050000e+01 6.000001e+00
      vertex 2.075000e+01 3.050000e+01 4.299039e+00
    endloop
  endfacet
  facet normal 6.123234e-17 1.000000e+00 6.123234e-17
    outer loop
      vertex 2.075000e+01 3.050000e+01 4.299039e+00
      vertex 2.500000e+01 3.050000e+01 6.000001e+00
      vertex 2.106067e+01 3.050000e+01 4.060660e+00
    endloop
  endfacet
  facet normal 6.123234e-17 1.000000e+00 6.123234e-17
    outer loop
      vertex 2.106067e+01 3.050000e+01 4.060660e+00
      vertex 2.500000e+01 3.050000e+01 6.000001e+00
      vertex 2.500000e+01 3.050000e+01 3.552714e-15
    endloop
  endfacet
  facet normal 6.123234e-17 1.000000e+00 6.123234e-17
    outer loop
      vertex 2.106067e+01 3.050000e+01 4.060660e+00
      vertex 2.500000e+01 3.050000e+01 3.552714e-15
      vertex 2.129907e+01 3.050000e+01 3.750001e+00
    endloop
  endfacet
  facet normal 6.123234e-17 1.000000e+00 6.123234e-17
    outer loop
      vertex 2.129907e+01 3.050000e+01 3.750001e+00
      vertex 2.500000e+01 3.050000e+01 3.552714e-15
      vertex 2.144891e+01 3.050000e+01 3.388228e+00
    endloop
  endfacet
  facet normal 6.123234e-17 1.000000e+00 6.123234e-17
    outer loop
      vertex 2.144891e+01 3.050000e+01 3.388228e+00
      vertex 2.500000e+01 3.050000e+01 3.552714e-15
      vertex 2.150000e+01 3.050000e+01 3.000001e+00
    endloop
  endfacet
  facet normal 6.123234e-17 1.000000e+00 6.123234e-17
    outer loop
      vertex 2.150000e+01 3.050000e+01 3.000001e+00
      vertex 2.500000e+01 3.050000e+01 3.552714e-15
      vertex 2.144891e+01 3.050000e+01 2.611772e+00
    endloop
  endfacet
  facet normal 6.123234e-17 1.000000e+00 6.123234e-17
    outer loop
      vertex 2.144891e+01 3.050000e+01 2.611772e+00
      vertex 2.500000e+01 3.050000e+01 3.552714e-15
      vertex 2.129907e+01 3.050000e+01 2.250001e+00
    endloop
  endfacet
  facet normal 6.123234e-17 1.000000e+00 6.123234e-17
    outer loop
      vertex 2.129907e+01 3.050000e+01 2.250001e+00
      vertex 2.500000e+01 3.050000e+01 3.552714e-15
      vertex 2.106067e+01 3.050000e+01 1.939340e+00
    endloop
  endfacet
  facet normal 6.123234e-17 1.000000e+00 6.123234e-17
    outer loop
      vertex 2.106067e+01 3.050000e+01 1.939340e+00
      vertex 2.500000e+01 3.050000e+01 3.552714e-15
      vertex 2.075000e+01 3.050000e+01 1.700962e+00
    endloop
  endfacet
  facet normal 6.123234e-17 1.000000e+00 6.123234e-17
    outer loop
      vertex 2.075000e+01 3.050000e+01 1.700962e+00
      vertex 2.500000e+01 3.050000e+01 3.552714e-15
      vertex 2.038824e+01 3.050000e+01 1.551111e+00
    endloop
  endfacet
  facet normal 6.123234e-17 1.000000e+00 6.123234e-17
    outer loop
      vertex 2.038824e+01 3.050000e+01 1.551111e+00
      vertex 2.500000e+01 3.050000e+01 3.552714e-15
      vertex 2.000000e+01 3.050000e+01 1.500000e+00
    endloop
  endfacet
  facet normal 6.123234e-17 1.000000e+00 6.123234e-17
    outer loop
      vertex 8.500000e+00 3.050000e+01 6.000001e+00
      vertex 1.961182e+01 3.050000e+01 4.448890e+00
      vertex 8.500000e+00 3.050000e+01 3.552714e-15
    endloop
  endfacet
  facet normal 6.123234e-17 1.000000e+00 6.123234e-17
    outer loop
      vertex 1.961182e+01 3.050000e+01 4.448890e+00
      vertex 8.500000e+00 3.050000e+01 6.000001e+00
      vertex 2.000000e+01 3.050000e+01 4.500001e+00
    endloop
  endfacet
  facet normal 6.123234e-17 1.000000e+00 6.123234e-17
    outer loop
      vertex 8.500000e+00 3.050000e+01 3.552714e-15
      vertex 1.961182e+01 3.050000e+01 4.448890e+00
      vertex 1.925000e+01 3.050000e+01 4.299039e+00
    endloop
  endfacet
  facet normal 6.123234e-17 1.000000e+00 6.123234e-17
    outer loop
      vertex 8.500000e+00 3.050000e+01 3.552714e-15
      vertex 1.925000e+01 3.050000e+01 4.299039e+00
      vertex 1.893933e+01 3.050000e+01 4.060660e+00
    endloop
  endfacet
  facet normal 6.123234e-17 1.000000e+00 6.123234e-17
    outer loop
      vertex 8.500000e+00 3.050000e+01 3.552714e-15
      vertex 1.893933e+01 3.050000e+01 4.060660e+00
      vertex 1.870099e+01 3.050000e+01 3.750001e+00
    endloop
  endfacet
  facet normal 6.123234e-17 1.000000e+00 6.123234e-17
    outer loop
      vertex 8.500000e+00 3.050000e+01 3.552714e-15
      vertex 1.870099e+01 3.050000e+01 3.750001e+00
      vertex 1.855115e+01 3.050000e+01 3.388228e+00
    endloop
  endfacet
  facet normal 6.123234e-17 1.000000e+00 6.123234e-17
    outer loop
      vertex 8.500000e+00 3.050000e+01 3.552714e-15
      vertex 1.855115e+01 3.050000e+01 3.388228e+00
      vertex 1.850000e+01 3.050000e+01 3.000001e+00
    endloop
  endfacet
  facet normal 6.123234e-17 1.000000e+00 6.123234e-17
    outer loop
      vertex 8.500000e+00 3.050000e+01 3.552714e-15
      vertex 1.850000e+01 3.050000e+01 3.000001e+00
      vertex 1.855115e+01 3.050000e+01 2.611772e+00
    endloop
  endfacet
  facet normal 6.123234e-17 1.000000e+00 6.123234e-17
    outer loop
      vertex 8.500000e+00 3.050000e+01 3.552714e-15
      vertex 1.855115e+01 3.050000e+01 2.611772e+00
      vertex 1.870099e+01 3.050000e+01 2.250001e+00
    endloop
  endfacet
  facet normal 6.123234e-17 1.000000e+00 6.123234e-17
    outer loop
      vertex 8.500000e+00 3.050000e+01 3.552714e-15
      vertex 1.870099e+01 3.050000e+01 2.250001e+00
      vertex 1.893933e+01 3.050000e+01 1.939340e+00
    endloop
  endfacet
  facet normal 6.123234e-17 1.000000e+00 6.123234e-17
    outer loop
      vertex 8.500000e+00 3.050000e+01 3.552714e-15
      vertex 1.893933e+01 3.050000e+01 1.939340e+00
      vertex 1.925000e+01 3.050000e+01 1.700962e+00
    endloop
  endfacet
  facet normal 6.123234e-17 1.000000e+00 6.123234e-17
    outer loop
      vertex 8.500000e+00 3.050000e+01 3.552714e-15
      vertex 1.925000e+01 3.050000e+01 1.700962e+00
      vertex 1.961182e+01 3.050000e+01 1.551111e+00
    endloop
  endfacet
  facet normal 6.123234e-17 1.000000e+00 6.123234e-17
    outer loop
      vertex 8.500000e+00 3.050000e+01 3.552714e-15
      vertex 1.961182e+01 3.050000e+01 1.551111e+00
      vertex 2.000000e+01 3.050000e+01 1.500000e+00
    endloop
  endfacet
  facet normal 6.123234e-17 1.000000e+00 6.123234e-17
    outer loop
      vertex 8.500000e+00 3.050000e+01 3.552714e-15
      vertex 2.000000e+01 3.050000e+01 1.500000e+00
      vertex 2.500000e+01 3.050000e+01 3.552714e-15
    endloop
  endfacet
  facet normal 1.000000e+00 -6.123234e-17 1.054712e-15
    outer loop
      vertex 1.350000e+01 2.450000e+01 3.552714e-15
      vertex 1.350000e+01 9.500000e+00 6.000001e+00
      vertex 1.350000e+01 9.500000e+00 3.552714e-15
    endloop
  endfacet
  facet normal 1.000000e+00 -6.123234e-17 1.054712e-15
    outer loop
      vertex 1.350000e+01 9.500000e+00 6.000001e+00
      vertex 1.350000e+01 2.450000e+01 3.552714e-15
      vertex 1.350000e+01 2.450000e+01 6.000001e+00
    endloop
  endfacet
  facet normal 6.123234e-17 1.000000e+00 6.123234e-17
    outer loop
      vertex 8.500000e+00 1.550000e+01 3.552714e-15
      vertex -2.500000e+01 1.550000e+01 6.000001e+00
      vertex 8.500000e+00 1.550000e+01 6.000001e+00
    endloop
  endfacet
  facet normal 6.123234e-17 1.000000e+00 6.123234e-17
    outer loop
      vertex -2.500000e+01 1.550000e+01 6.000001e+00
      vertex 8.500000e+00 1.550000e+01 3.552714e-15
      vertex -2.500000e+01 1.550000e+01 3.552714e-15
    endloop
  endfacet
  facet normal -1.000000e+00 6.123234e-17 -1.054712e-15
    outer loop
      vertex 8.500000e+00 3.050000e+01 6.000001e+00
      vertex 8.500000e+00 1.550000e+01 3.552714e-15
      vertex 8.500000e+00 1.550000e+01 6.000001e+00
    endloop
  endfacet
  facet normal -1.000000e+00 6.123234e-17 -1.054712e-15
    outer loop
      vertex 8.500000e+00 1.550000e+01 3.552714e-15
      vertex 8.500000e+00 3.050000e+01 6.000001e+00
      vertex 8.500000e+00 3.050000e+01 3.552714e-15
    endloop
  endfacet
  facet normal -6.123234e-17 -1.000000e+00 -6.123234e-17
    outer loop
      vertex -1.700000e+01 9.500000e+00 3.552714e-15
      vertex 1.350000e+01 9.500000e+00 6.000001e+00
      vertex -1.700000e+01 9.500000e+00 6.000001e+00
    endloop
  endfacet
  facet normal -6.123234e-17 -1.000000e+00 -6.123234e-17
    outer loop
      vertex 1.350000e+01 9.500000e+00 6.000001e+00
      vertex -1.700000e+01 9.500000e+00 3.552714e-15
      vertex 1.350000e+01 9.500000e+00 3.552714e-15
    endloop
  endfacet
endsolid Default
