solid MIDIViolina
facet normal -1.0 -6.73072701605427e-016 -1.18534642872616e-012
  outer loop
    vertex 172.92048908328 657.72806841633 148.211830748073
    vertex 172.920489083277 663.257942714014 150.37410900041
    vertex 172.92048908328 671.25306841633 148.211830748168
  endloop
endfacet
facet normal -1.0 -6.73072701605427e-016 -1.18534642872616e-012
  outer loop
    vertex 172.920489083277 663.257942714014 150.37410900041
    vertex 172.92048908328 657.72806841633 148.211830748073
    vertex 172.920489083277 662.109318416311 150.84988476258
  endloop
endfacet
facet normal -1.0 -6.73072701605427e-016 -1.18534642872616e-012
  outer loop
    vertex 172.920489083277 662.109318416311 150.84988476258
    vertex 172.92048908328 657.72806841633 148.211830748073
    vertex 172.920489083276 661.122972370905 151.606734702696
  endloop
endfacet
facet normal -1.0 -6.73072701605427e-016 -1.18534642872616e-012
  outer loop
    vertex 172.920489083276 661.122972370905 151.606734702696
    vertex 172.92048908328 657.72806841633 148.211830748073
    vertex 172.920489083272 657.728068416282 154.974330748073
  endloop
endfacet
facet normal -1.0 -6.73072701605427e-016 -1.18534642872616e-012
  outer loop
    vertex 172.92048908328 671.25306841633 148.211830748168
    vertex 172.920489083277 663.257942714014 150.37410900041
    vertex 172.920489083278 664.490568416316 150.21183074812
  endloop
endfacet
facet normal -1.0 -6.73072701605427e-016 -1.18534642872616e-012
  outer loop
    vertex 172.920489083276 661.122972370905 151.606734702696
    vertex 172.920489083272 657.728068416282 154.974330748073
    vertex 172.920489083275 660.366122430776 152.593080748091
  endloop
endfacet
facet normal -1.0 -6.73072701605427e-016 -1.18534642872616e-012
  outer loop
    vertex 172.920489083275 660.366122430776 152.593080748091
    vertex 172.920489083272 657.728068416282 154.974330748073
    vertex 172.920489083273 659.890346668589 153.741705045787
  endloop
endfacet
facet normal -1.0 -6.73072701605427e-016 -1.18534642872616e-012
  outer loop
    vertex 172.920489083273 659.890346668589 153.741705045787
    vertex 172.920489083272 657.728068416282 154.974330748073
    vertex 172.920489083272 659.728068416282 154.974330748087
  endloop
endfacet
facet normal -1.0 -6.73072701605427e-016 -1.18534642872616e-012
  outer loop
    vertex 172.920489083272 659.728068416282 154.974330748087
    vertex 172.920489083272 657.728068416282 154.974330748073
    vertex 172.92048908327 657.95849501599 156.72459454058
  endloop
endfacet
facet normal -1.0 -6.73072701605427e-016 -1.18534642872616e-012
  outer loop
    vertex 172.920489083272 659.728068416282 154.974330748087
    vertex 172.92048908327 657.95849501599 156.72459454058
    vertex 172.92048908327 659.890346668572 156.206956450389
  endloop
endfacet
facet normal -1.0 -6.73072701605427e-016 -1.18534642872616e-012
  outer loop
    vertex 172.92048908327 659.890346668572 156.206956450389
    vertex 172.92048908327 657.95849501599 156.72459454058
    vertex 172.920489083269 660.366122430742 157.355580748091
  endloop
endfacet
facet normal -1.0 -6.73072701605427e-016 -1.18534642872616e-012
  outer loop
    vertex 172.920489083269 660.366122430742 157.355580748091
    vertex 172.92048908327 657.95849501599 156.72459454058
    vertex 172.920489083268 658.634071623166 158.355580748079
  endloop
endfacet
facet normal -1.0 -6.73072701605427e-016 -1.18534642872616e-012
  outer loop
    vertex 172.920489083269 660.366122430742 157.355580748091
    vertex 172.920489083268 658.634071623166 158.355580748079
    vertex 172.920489083268 661.122972370858 158.341926793498
  endloop
endfacet
facet normal -1.0 -6.73072701605427e-016 -1.18534642872616e-012
  outer loop
    vertex 172.920489083268 661.122972370858 158.341926793498
    vertex 172.920489083268 658.634071623166 158.355580748079
    vertex 172.920489083267 662.109318416253 159.098776733627
  endloop
endfacet
facet normal -1.0 -6.73072701605427e-016 -1.18534642872616e-012
  outer loop
    vertex 172.920489083267 662.109318416253 159.098776733627
    vertex 172.920489083268 658.634071623166 158.355580748079
    vertex 172.920489083266 659.708758808475 159.756140355861
  endloop
endfacet
facet normal -1.0 -6.73072701605427e-016 -1.18534642872616e-012
  outer loop
    vertex 172.920489083267 662.109318416253 159.098776733627
    vertex 172.920489083266 659.708758808475 159.756140355861
    vertex 172.920489083266 663.257942713949 159.574552495813
  endloop
endfacet
facet normal -1.0 -6.73072701605427e-016 -1.18534642872616e-012
  outer loop
    vertex 172.920489083266 663.257942713949 159.574552495813
    vertex 172.920489083266 659.708758808475 159.756140355861
    vertex 172.920489083266 664.490568416249 159.73683074812
  endloop
endfacet
facet normal -1.0 -6.73072701605427e-016 -1.18534642872616e-012
  outer loop
    vertex 172.92048908328 671.25306841633 148.211830748168
    vertex 172.920489083276 667.858164461707 151.606734702743
    vertex 172.920489083272 671.253068416282 154.974330748168
  endloop
endfacet
facet normal -1.0 -6.73072701605427e-016 -1.18534642872616e-012
  outer loop
    vertex 172.920489083276 667.858164461707 151.606734702743
    vertex 172.92048908328 671.25306841633 148.211830748168
    vertex 172.920489083277 666.871818416312 150.849884762614
  endloop
endfacet
facet normal -1.0 -6.73072701605427e-016 -1.18534642872616e-012
  outer loop
    vertex 172.920489083277 666.871818416312 150.849884762614
    vertex 172.92048908328 671.25306841633 148.211830748168
    vertex 172.920489083277 665.723194118616 150.374109000427
  endloop
endfacet
facet normal -1.0 -6.73072701605427e-016 -1.18534642872616e-012
  outer loop
    vertex 172.920489083277 665.723194118616 150.374109000427
    vertex 172.92048908328 671.25306841633 148.211830748168
    vertex 172.920489083278 664.490568416316 150.21183074812
  endloop
endfacet
facet normal -1.0 -6.73072701605427e-016 -1.18534642872616e-012
  outer loop
    vertex 172.920489083272 671.253068416282 154.974330748168
    vertex 172.920489083276 667.858164461707 151.606734702743
    vertex 172.920489083275 668.615014401823 152.59308074815
  endloop
endfacet
facet normal -1.0 -6.73072701605427e-016 -1.18534642872616e-012
  outer loop
    vertex 172.920489083272 671.253068416282 154.974330748168
    vertex 172.920489083275 668.615014401823 152.59308074815
    vertex 172.920489083273 669.090790163993 153.741705045852
  endloop
endfacet
facet normal -1.0 -6.73072701605427e-016 -1.18534642872616e-012
  outer loop
    vertex 172.920489083272 671.253068416282 154.974330748168
    vertex 172.920489083273 669.090790163993 153.741705045852
    vertex 172.920489083272 669.253068416282 154.974330748154
  endloop
endfacet
facet normal -1.0 -6.73072701605427e-016 -1.18534642872616e-012
  outer loop
    vertex 172.920489083272 671.253068416282 154.974330748168
    vertex 172.920489083272 669.253068416282 154.974330748154
    vertex 172.92048908327 669.090790163976 156.206956450453
  endloop
endfacet
facet normal -1.0 -6.73072701605427e-016 -1.18534642872616e-012
  outer loop
    vertex 172.920489083272 671.253068416282 154.974330748168
    vertex 172.92048908327 669.090790163976 156.206956450453
    vertex 172.92048908327 671.02264181655 156.724594540672
  endloop
endfacet
facet normal -1.0 -6.73072701605427e-016 -1.18534642872616e-012
  outer loop
    vertex 172.92048908327 671.02264181655 156.724594540672
    vertex 172.92048908327 669.090790163976 156.206956450453
    vertex 172.920489083269 668.615014401789 157.35558074815
  endloop
endfacet
facet normal -1.0 -6.73072701605427e-016 -1.18534642872616e-012
  outer loop
    vertex 172.92048908327 671.02264181655 156.724594540672
    vertex 172.920489083269 668.615014401789 157.35558074815
    vertex 172.920489083268 670.347065209351 158.355580748162
  endloop
endfacet
facet normal -1.0 -6.73072701605427e-016 -1.18534642872616e-012
  outer loop
    vertex 172.920489083268 670.347065209351 158.355580748162
    vertex 172.920489083269 668.615014401789 157.35558074815
    vertex 172.920489083268 667.85816446166 158.341926793545
  endloop
endfacet
facet normal -1.0 -6.73072701605427e-016 -1.18534642872616e-012
  outer loop
    vertex 172.920489083268 670.347065209351 158.355580748162
    vertex 172.920489083268 667.85816446166 158.341926793545
    vertex 172.920489083267 666.871818416253 159.098776733661
  endloop
endfacet
facet normal -1.0 -6.73072701605427e-016 -1.18534642872616e-012
  outer loop
    vertex 172.920489083268 670.347065209351 158.355580748162
    vertex 172.920489083267 666.871818416253 159.098776733661
    vertex 172.920489083266 669.272378024023 159.756140355928
  endloop
endfacet
facet normal -1.0 -6.73072701605427e-016 -1.18534642872616e-012
  outer loop
    vertex 172.920489083266 669.272378024023 159.756140355928
    vertex 172.920489083267 666.871818416253 159.098776733661
    vertex 172.920489083266 665.723194118551 159.574552495831
  endloop
endfacet
facet normal -1.0 -6.73072701605427e-016 -1.18534642872616e-012
  outer loop
    vertex 172.920489083266 669.272378024023 159.756140355928
    vertex 172.920489083266 665.723194118551 159.574552495831
    vertex 172.920489083266 664.490568416249 159.73683074812
  endloop
endfacet
facet normal -1.0 -6.73072701605427e-016 -1.18534642872616e-012
  outer loop
    vertex 172.920489083266 669.272378024023 159.756140355928
    vertex 172.920489083266 664.490568416249 159.73683074812
    vertex 172.920489083266 659.708758808475 159.756140355861
  endloop
endfacet
facet normal -1.0 -6.73072701605427e-016 -1.18534642872616e-012
  outer loop
    vertex 172.920489083266 669.272378024023 159.756140355928
    vertex 172.920489083266 659.708758808475 159.756140355861
    vertex 172.920489083265 661.109318416241 160.830827541189
  endloop
endfacet
facet normal -1.0 -6.73072701605427e-016 -1.18534642872616e-012
  outer loop
    vertex 172.920489083266 669.272378024023 159.756140355928
    vertex 172.920489083265 661.109318416241 160.830827541189
    vertex 172.920489083265 667.871818416241 160.830827541236
  endloop
endfacet
facet normal -1.0 -6.73072701605427e-016 -1.18534642872616e-012
  outer loop
    vertex 172.920489083265 667.871818416241 160.830827541236
    vertex 172.920489083265 661.109318416241 160.830827541189
    vertex 172.920489083264 666.240832208742 161.506404148413
  endloop
endfacet
facet normal -1.0 -6.73072701605427e-016 -1.18534642872616e-012
  outer loop
    vertex 172.920489083264 666.240832208742 161.506404148413
    vertex 172.920489083265 661.109318416241 160.830827541189
    vertex 172.920489083264 662.740304623731 161.506404148388
  endloop
endfacet
facet normal -1.0 -6.73072701605427e-016 -1.18534642872616e-012
  outer loop
    vertex 172.920489083264 666.240832208742 161.506404148413
    vertex 172.920489083264 662.740304623731 161.506404148388
    vertex 172.920489083264 664.490568416235 161.73683074812
  endloop
endfacet
facet normal 0.130526192220002 -0.991444861373817 -6.82029420950057e-012
  outer loop
    vertex 186.687863380943 682.615790163821 178.211830748264
    vertex 187.92048908328 682.77806841633 148.211830748267
    vertex 187.920489083244 682.778068416119 178.211830748267
  endloop
endfacet
facet normal 0.130526192220002 -0.991444861373817 -6.82029420950057e-012
  outer loop
    vertex 187.92048908328 682.77806841633 148.211830748267
    vertex 186.687863380943 682.615790163821 178.211830748264
    vertex 186.687863380979 682.615790164032 148.211830748264
  endloop
endfacet
facet normal 0.608761429008677 -0.793353340291269 -4.85980629506407e-012
  outer loop
    vertex 184.552893037843 681.38316446152 178.211830748253
    vertex 185.53923908328 682.140014401853 148.21183074826
    vertex 185.539239083244 682.140014401642 178.211830748259
  endloop
endfacet
facet normal 0.608761429008677 -0.793353340291269 -4.85980629506407e-012
  outer loop
    vertex 185.53923908328 682.140014401853 148.21183074826
    vertex 184.552893037843 681.38316446152 178.211830748253
    vertex 184.552893037879 681.383164461731 148.211830748253
  endloop
endfacet
facet normal 0.923879532511306 0.382683432365044 3.78737181736366e-012
  outer loop
    vertex 193.776985876337 681.396818416119 178.211830748264
    vertex 194.45256248356 679.765832208836 148.211830748254
    vertex 193.776985876372 681.39681841633 148.211830748264
  endloop
endfacet
facet normal 0.923879532511306 0.382683432365044 3.78737181736366e-012
  outer loop
    vertex 194.45256248356 679.765832208836 148.211830748254
    vertex 193.776985876337 681.396818416119 178.211830748264
    vertex 194.452562483524 679.765832208625 178.211830748253
  endloop
endfacet
facet normal -0.130526192219993 0.991444861373818 6.82029420950059e-012
  outer loop
    vertex 186.170225290774 684.54764181661 148.211830748277
    vertex 187.920489083244 684.778068416119 178.211830748281
    vertex 187.92048908328 684.77806841633 148.211830748281
  endloop
endfacet
facet normal -0.130526192219993 0.991444861373818 6.82029420950059e-012
  outer loop
    vertex 187.920489083244 684.778068416119 178.211830748281
    vertex 186.170225290774 684.54764181661 148.211830748277
    vertex 186.170225290739 684.547641816399 178.211830748277
  endloop
endfacet
facet normal 0.991444861373814 0.13052619222002 2.09348350329483e-012
  outer loop
    vertex 194.45256248356 679.765832208836 148.211830748254
    vertex 194.682989083244 678.015568416119 178.211830748241
    vertex 194.68298908328 678.01556841633 148.211830748241
  endloop
endfacet
facet normal 0.991444861373814 0.13052619222002 2.09348350329483e-012
  outer loop
    vertex 194.682989083244 678.015568416119 178.211830748241
    vertex 194.45256248356 679.765832208836 148.211830748254
    vertex 194.452562483524 679.765832208625 178.211830748253
  endloop
endfacet
facet normal -9.57513376326229e-015 -1.0 -7.03980423861923e-012
  outer loop
    vertex 194.682989083244 671.253068416119 178.211830748194
    vertex 181.157989083264 671.253068416235 161.736830748178
    vertex 194.682989083264 671.253068416235 161.736830748194
  endloop
endfacet
facet normal -9.57513376326229e-015 -1.0 -7.03980423861923e-012
  outer loop
    vertex 181.157989083264 671.253068416235 161.736830748178
    vertex 194.682989083244 671.253068416119 178.211830748194
    vertex 181.157989083244 671.253068416119 178.211830748178
  endloop
endfacet
facet normal 0.923879532511304 -0.382683432365049 -1.59713720849276e-012
  outer loop
    vertex 183.796043097756 680.39681841633 148.211830748245
    vertex 183.320267335543 679.24819411842 178.211830748236
    vertex 183.320267335578 679.248194118631 148.211830748236
  endloop
endfacet
facet normal 0.923879532511304 -0.382683432365049 -1.59713720849276e-012
  outer loop
    vertex 183.320267335543 679.24819411842 178.211830748236
    vertex 183.796043097756 680.39681841633 148.211830748245
    vertex 183.796043097721 680.396818416119 178.211830748245
  endloop
endfacet
facet normal -0.923879532511293 0.382683432365075 1.59713720849296e-012
  outer loop
    vertex 181.388415682965 679.765832208625 178.211830748238
    vertex 182.063992290188 681.39681841633 148.21183074825
    vertex 181.388415683 679.765832208836 148.211830748238
  endloop
endfacet
facet normal -0.923879532511293 0.382683432365075 1.59713720849296e-012
  outer loop
    vertex 182.063992290188 681.39681841633 148.21183074825
    vertex 181.388415682965 679.765832208625 178.211830748238
    vertex 182.063992290152 681.396818416119 178.21183074825
  endloop
endfacet
facet normal -1.18534642872616e-012 -7.03520007722739e-012 1.0
  outer loop
    vertex 194.682989083244 671.253068416119 178.211830748194
    vertex 189.153114785545 673.415346668417 178.211830748202
    vertex 181.157989083244 671.253068416119 178.211830748178
  endloop
endfacet
facet normal -1.18534642872616e-012 -7.03520007722739e-012 1.0
  outer loop
    vertex 189.153114785545 673.415346668417 178.211830748202
    vertex 194.682989083244 671.253068416119 178.211830748194
    vertex 190.301739083244 673.891122430596 178.211830748207
  endloop
endfacet
facet normal -1.18534642872616e-012 -7.03520007722739e-012 1.0
  outer loop
    vertex 190.301739083244 673.891122430596 178.211830748207
    vertex 194.682989083244 671.253068416119 178.211830748194
    vertex 191.288085128645 674.647972370718 178.211830748214
  endloop
endfacet
facet normal -1.18534642872616e-012 -7.03520007722739e-012 1.0
  outer loop
    vertex 191.288085128645 674.647972370718 178.211830748214
    vertex 194.682989083244 671.253068416119 178.211830748194
    vertex 194.682989083244 678.015568416119 178.211830748241
  endloop
endfacet
facet normal -1.18534642872616e-012 -7.03520007722739e-012 1.0
  outer loop
    vertex 181.157989083244 671.253068416119 178.211830748178
    vertex 189.153114785545 673.415346668417 178.211830748202
    vertex 187.920489083244 673.253068416119 178.2118307482
  endloop
endfacet
facet normal -1.18534642872616e-012 -7.03520007722739e-012 1.0
  outer loop
    vertex 191.288085128645 674.647972370718 178.211830748214
    vertex 194.682989083244 678.015568416119 178.211830748241
    vertex 192.044935068768 675.634318416119 178.211830748222
  endloop
endfacet
facet normal -1.18534642872616e-012 -7.03520007722739e-012 1.0
  outer loop
    vertex 192.044935068768 675.634318416119 178.211830748222
    vertex 194.682989083244 678.015568416119 178.211830748241
    vertex 192.520710830946 676.782942713818 178.21183074823
  endloop
endfacet
facet normal -1.18534642872616e-012 -7.03520007722739e-012 1.0
  outer loop
    vertex 192.520710830946 676.782942713818 178.21183074823
    vertex 194.682989083244 678.015568416119 178.211830748241
    vertex 192.682989083245 678.015568416119 178.211830748239
  endloop
endfacet
facet normal -1.18534642872616e-012 -7.03520007722739e-012 1.0
  outer loop
    vertex 192.682989083245 678.015568416119 178.211830748239
    vertex 194.682989083244 678.015568416119 178.211830748241
    vertex 194.452562483524 679.765832208625 178.211830748253
  endloop
endfacet
facet normal -1.18534642872616e-012 -7.03520007722739e-012 1.0
  outer loop
    vertex 192.682989083245 678.015568416119 178.211830748239
    vertex 194.452562483524 679.765832208625 178.211830748253
    vertex 192.520710830946 679.24819411842 178.211830748247
  endloop
endfacet
facet normal -1.18534642872616e-012 -7.03520007722739e-012 1.0
  outer loop
    vertex 192.520710830946 679.24819411842 178.211830748247
    vertex 194.452562483524 679.765832208625 178.211830748253
    vertex 192.044935068768 680.396818416119 178.211830748255
  endloop
endfacet
facet normal -1.18534642872616e-012 -7.03520007722739e-012 1.0
  outer loop
    vertex 192.044935068768 680.396818416119 178.211830748255
    vertex 194.452562483524 679.765832208625 178.211830748253
    vertex 193.776985876337 681.396818416119 178.211830748264
  endloop
endfacet
facet normal -1.18534642872616e-012 -7.03520007722739e-012 1.0
  outer loop
    vertex 192.044935068768 680.396818416119 178.211830748255
    vertex 193.776985876337 681.396818416119 178.211830748264
    vertex 191.288085128645 681.38316446152 178.211830748261
  endloop
endfacet
facet normal -1.18534642872616e-012 -7.03520007722739e-012 1.0
  outer loop
    vertex 191.288085128645 681.38316446152 178.211830748261
    vertex 193.776985876337 681.396818416119 178.211830748264
    vertex 190.301739083244 682.140014401642 178.211830748265
  endloop
endfacet
facet normal -1.18534642872616e-012 -7.03520007722739e-012 1.0
  outer loop
    vertex 190.301739083244 682.140014401642 178.211830748265
    vertex 193.776985876337 681.396818416119 178.211830748264
    vertex 192.702298691018 682.797378023893 178.211830748273
  endloop
endfacet
facet normal -1.18534642872616e-012 -7.03520007722739e-012 1.0
  outer loop
    vertex 190.301739083244 682.140014401642 178.211830748265
    vertex 192.702298691018 682.797378023893 178.211830748273
    vertex 189.153114785545 682.615790163821 178.211830748267
  endloop
endfacet
facet normal -1.18534642872616e-012 -7.03520007722739e-012 1.0
  outer loop
    vertex 189.153114785545 682.615790163821 178.211830748267
    vertex 192.702298691018 682.797378023893 178.211830748273
    vertex 187.920489083244 682.778068416119 178.211830748267
  endloop
endfacet
facet normal -1.18534642872616e-012 -7.03520007722739e-012 1.0
  outer loop
    vertex 181.157989083244 671.253068416119 178.211830748178
    vertex 184.552893037843 674.647972370718 178.211830748206
    vertex 181.157989083244 678.015568416119 178.211830748225
  endloop
endfacet
facet normal -1.18534642872616e-012 -7.03520007722739e-012 1.0
  outer loop
    vertex 184.552893037843 674.647972370718 178.211830748206
    vertex 181.157989083244 671.253068416119 178.211830748178
    vertex 185.539239083244 673.891122430595 178.211830748201
  endloop
endfacet
facet normal -1.18534642872616e-012 -7.03520007722739e-012 1.0
  outer loop
    vertex 185.539239083244 673.891122430595 178.211830748201
    vertex 181.157989083244 671.253068416119 178.211830748178
    vertex 186.687863380944 673.415346668417 178.211830748199
  endloop
endfacet
facet normal -1.18534642872616e-012 -7.03520007722739e-012 1.0
  outer loop
    vertex 186.687863380944 673.415346668417 178.211830748199
    vertex 181.157989083244 671.253068416119 178.211830748178
    vertex 187.920489083244 673.253068416119 178.2118307482
  endloop
endfacet
facet normal -1.18534642872616e-012 -7.03520007722739e-012 1.0
  outer loop
    vertex 181.157989083244 678.015568416119 178.211830748225
    vertex 184.552893037843 674.647972370718 178.211830748206
    vertex 183.796043097721 675.634318416119 178.211830748212
  endloop
endfacet
facet normal -1.18534642872616e-012 -7.03520007722739e-012 1.0
  outer loop
    vertex 181.157989083244 678.015568416119 178.211830748225
    vertex 183.796043097721 675.634318416119 178.211830748212
    vertex 183.320267335543 676.782942713818 178.211830748219
  endloop
endfacet
facet normal -1.18534642872616e-012 -7.03520007722739e-012 1.0
  outer loop
    vertex 181.157989083244 678.015568416119 178.211830748225
    vertex 183.320267335543 676.782942713818 178.211830748219
    vertex 183.157989083244 678.015568416119 178.211830748228
  endloop
endfacet
facet normal -1.18534642872616e-012 -7.03520007722739e-012 1.0
  outer loop
    vertex 181.157989083244 678.015568416119 178.211830748225
    vertex 183.157989083244 678.015568416119 178.211830748228
    vertex 183.320267335543 679.24819411842 178.211830748236
  endloop
endfacet
facet normal -1.18534642872616e-012 -7.03520007722739e-012 1.0
  outer loop
    vertex 181.157989083244 678.015568416119 178.211830748225
    vertex 183.320267335543 679.24819411842 178.211830748236
    vertex 181.388415682965 679.765832208625 178.211830748238
  endloop
endfacet
facet normal -1.18534642872616e-012 -7.03520007722739e-012 1.0
  outer loop
    vertex 181.388415682965 679.765832208625 178.211830748238
    vertex 183.320267335543 679.24819411842 178.211830748236
    vertex 183.796043097721 680.396818416119 178.211830748245
  endloop
endfacet
facet normal -1.18534642872616e-012 -7.03520007722739e-012 1.0
  outer loop
    vertex 181.388415682965 679.765832208625 178.211830748238
    vertex 183.796043097721 680.396818416119 178.211830748245
    vertex 182.063992290152 681.396818416119 178.21183074825
  endloop
endfacet
facet normal -1.18534642872616e-012 -7.03520007722739e-012 1.0
  outer loop
    vertex 182.063992290152 681.396818416119 178.21183074825
    vertex 183.796043097721 680.396818416119 178.211830748245
    vertex 184.552893037843 681.38316446152 178.211830748253
  endloop
endfacet
facet normal -1.18534642872616e-012 -7.03520007722739e-012 1.0
  outer loop
    vertex 182.063992290152 681.396818416119 178.21183074825
    vertex 184.552893037843 681.38316446152 178.211830748253
    vertex 185.539239083244 682.140014401642 178.211830748259
  endloop
endfacet
facet normal -1.18534642872616e-012 -7.03520007722739e-012 1.0
  outer loop
    vertex 182.063992290152 681.396818416119 178.21183074825
    vertex 185.539239083244 682.140014401642 178.211830748259
    vertex 183.13867947547 682.797378023893 178.211830748261
  endloop
endfacet
facet normal -1.18534642872616e-012 -7.03520007722739e-012 1.0
  outer loop
    vertex 183.13867947547 682.797378023893 178.211830748261
    vertex 185.539239083244 682.140014401642 178.211830748259
    vertex 186.687863380943 682.615790163821 178.211830748264
  endloop
endfacet
facet normal -1.18534642872616e-012 -7.03520007722739e-012 1.0
  outer loop
    vertex 183.13867947547 682.797378023893 178.211830748261
    vertex 186.687863380943 682.615790163821 178.211830748264
    vertex 187.920489083244 682.778068416119 178.211830748267
  endloop
endfacet
facet normal -1.18534642872616e-012 -7.03520007722739e-012 1.0
  outer loop
    vertex 183.13867947547 682.797378023893 178.211830748261
    vertex 187.920489083244 682.778068416119 178.211830748267
    vertex 192.702298691018 682.797378023893 178.211830748273
  endloop
endfacet
facet normal -1.18534642872616e-012 -7.03520007722739e-012 1.0
  outer loop
    vertex 183.13867947547 682.797378023893 178.211830748261
    vertex 192.702298691018 682.797378023893 178.211830748273
    vertex 191.301739083244 683.872065209211 178.211830748279
  endloop
endfacet
facet normal -1.18534642872616e-012 -7.03520007722739e-012 1.0
  outer loop
    vertex 183.13867947547 682.797378023893 178.211830748261
    vertex 191.301739083244 683.872065209211 178.211830748279
    vertex 184.539239083244 683.872065209211 178.21183074827
  endloop
endfacet
facet normal -1.18534642872616e-012 -7.03520007722739e-012 1.0
  outer loop
    vertex 184.539239083244 683.872065209211 178.21183074827
    vertex 191.301739083244 683.872065209211 178.211830748279
    vertex 189.67075287575 684.547641816399 178.211830748282
  endloop
endfacet
facet normal -1.18534642872616e-012 -7.03520007722739e-012 1.0
  outer loop
    vertex 184.539239083244 683.872065209211 178.21183074827
    vertex 189.67075287575 684.547641816399 178.211830748282
    vertex 186.170225290739 684.547641816399 178.211830748277
  endloop
endfacet
facet normal -1.18534642872616e-012 -7.03520007722739e-012 1.0
  outer loop
    vertex 186.170225290739 684.547641816399 178.211830748277
    vertex 189.67075287575 684.547641816399 178.211830748282
    vertex 187.920489083244 684.778068416119 178.211830748281
  endloop
endfacet
facet normal -0.382683432365005 0.923879532511322 6.04606491858593e-012
  outer loop
    vertex 184.53923908328 683.872065209422 148.21183074827
    vertex 186.170225290739 684.547641816399 178.211830748277
    vertex 186.170225290774 684.54764181661 148.211830748277
  endloop
endfacet
facet normal -0.382683432365005 0.923879532511322 6.04606491858593e-012
  outer loop
    vertex 186.170225290739 684.547641816399 178.211830748277
    vertex 184.53923908328 683.872065209422 148.21183074827
    vertex 184.539239083244 683.872065209211 178.21183074827
  endloop
endfacet
facet normal 0.991444861373799 0.130526192220139 2.09348350329565e-012
  outer loop
    vertex 183.157989083244 678.015568416119 178.211830748228
    vertex 183.320267335578 676.782942714029 148.211830748219
    vertex 183.15798908328 678.01556841633 148.211830748228
  endloop
endfacet
facet normal 0.991444861373799 0.130526192220139 2.09348350329565e-012
  outer loop
    vertex 183.320267335578 676.782942714029 148.211830748219
    vertex 183.157989083244 678.015568416119 178.211830748228
    vertex 183.320267335543 676.782942713818 178.211830748219
  endloop
endfacet
facet normal 0.793353340291225 0.608761429008734 5.22315700100747e-012
  outer loop
    vertex 183.796043097757 675.63431841633 148.211830748212
    vertex 184.552893037843 674.647972370718 178.211830748206
    vertex 184.552893037879 674.647972370929 148.211830748206
  endloop
endfacet
facet normal 0.793353340291225 0.608761429008734 5.22315700100747e-012
  outer loop
    vertex 184.552893037843 674.647972370718 178.211830748206
    vertex 183.796043097757 675.63431841633 148.211830748212
    vertex 183.796043097721 675.634318416119 178.211830748212
  endloop
endfacet
facet normal 0.3826834323651 0.923879532511283 6.95328979835882e-012
  outer loop
    vertex 189.670752875786 684.54764181661 148.211830748281
    vertex 191.301739083244 683.872065209211 178.211830748279
    vertex 191.30173908328 683.872065209422 148.211830748279
  endloop
endfacet
facet normal 0.3826834323651 0.923879532511283 6.95328979835882e-012
  outer loop
    vertex 191.301739083244 683.872065209211 178.211830748279
    vertex 189.670752875786 684.54764181661 148.211830748281
    vertex 189.67075287575 684.547641816399 178.211830748282
  endloop
endfacet
facet normal 0.608761429008866 0.793353340291123 6.30299266670661e-012
  outer loop
    vertex 185.53923908328 673.891122430806 148.211830748201
    vertex 184.552893037843 674.647972370718 178.211830748206
    vertex 185.539239083244 673.891122430595 178.211830748201
  endloop
endfacet
facet normal 0.608761429008866 0.793353340291123 6.30299266670661e-012
  outer loop
    vertex 184.552893037843 674.647972370718 178.211830748206
    vertex 185.53923908328 673.891122430806 148.211830748201
    vertex 184.552893037879 674.647972370929 148.211830748206
  endloop
endfacet
facet normal 0.923879532511304 0.382683432365048 3.78737181736369e-012
  outer loop
    vertex 183.320267335543 676.782942713818 178.211830748219
    vertex 183.796043097757 675.63431841633 148.211830748212
    vertex 183.320267335578 676.782942714029 148.211830748219
  endloop
endfacet
facet normal 0.923879532511304 0.382683432365048 3.78737181736369e-012
  outer loop
    vertex 183.796043097757 675.63431841633 148.211830748212
    vertex 183.320267335543 676.782942713818 178.211830748219
    vertex 183.796043097721 675.634318416119 178.211830748212
  endloop
endfacet
facet normal -0.793353340291237 0.608761429008719 3.34235990374301e-012
  outer loop
    vertex 182.063992290152 681.396818416119 178.21183074825
    vertex 183.138679475506 682.797378024104 148.211830748261
    vertex 182.063992290188 681.39681841633 148.21183074825
  endloop
endfacet
facet normal -0.793353340291237 0.608761429008719 3.34235990374301e-012
  outer loop
    vertex 183.138679475506 682.797378024104 148.211830748261
    vertex 182.063992290152 681.396818416119 178.21183074825
    vertex 183.13867947547 682.797378023893 178.211830748261
  endloop
endfacet
facet normal 0.793353340291139 0.608761429008846 5.22315700100816e-012
  outer loop
    vertex 192.702298691018 682.797378023893 178.211830748273
    vertex 193.776985876372 681.39681841633 148.211830748264
    vertex 192.702298691054 682.797378024104 148.211830748273
  endloop
endfacet
facet normal 0.793353340291139 0.608761429008846 5.22315700100816e-012
  outer loop
    vertex 193.776985876372 681.39681841633 148.211830748264
    vertex 192.702298691018 682.797378023893 178.211830748273
    vertex 193.776985876337 681.396818416119 178.211830748264
  endloop
endfacet
facet normal 0.991444861373805 -0.130526192220091 2.56927748121359e-013
  outer loop
    vertex 183.320267335543 679.24819411842 178.211830748236
    vertex 183.15798908328 678.01556841633 148.211830748228
    vertex 183.320267335578 679.248194118631 148.211830748236
  endloop
endfacet
facet normal 0.991444861373805 -0.130526192220091 2.56927748121359e-013
  outer loop
    vertex 183.15798908328 678.01556841633 148.211830748228
    vertex 183.320267335543 679.24819411842 178.211830748236
    vertex 183.157989083244 678.015568416119 178.211830748228
  endloop
endfacet
facet normal -1.0 -1.55673988738972e-014 -1.18587336400745e-012
  outer loop
    vertex 181.157989083272 671.253068416283 154.974330748178
    vertex 181.15798908328 678.01556841633 148.211830748225
    vertex 181.15798908328 671.25306841633 148.211830748178
  endloop
endfacet
facet normal -1.0 -1.55673988738972e-014 -1.18587336400745e-012
  outer loop
    vertex 181.15798908328 678.01556841633 148.211830748225
    vertex 181.157989083272 671.253068416283 154.974330748178
    vertex 181.157989083244 678.015568416119 178.211830748225
  endloop
endfacet
facet normal -1.0 -1.55673988738972e-014 -1.18587336400745e-012
  outer loop
    vertex 181.157989083244 678.015568416119 178.211830748225
    vertex 181.157989083272 671.253068416283 154.974330748178
    vertex 181.15798908327 671.02264181655 156.724594540682
  endloop
endfacet
facet normal -1.0 -1.55673988738972e-014 -1.18587336400745e-012
  outer loop
    vertex 181.157989083244 678.015568416119 178.211830748225
    vertex 181.15798908327 671.02264181655 156.724594540682
    vertex 181.157989083268 670.347065209351 158.355580748171
  endloop
endfacet
facet normal -1.0 -1.55673988738972e-014 -1.18587336400745e-012
  outer loop
    vertex 181.157989083244 678.015568416119 178.211830748225
    vertex 181.157989083268 670.347065209351 158.355580748171
    vertex 181.157989083264 671.253068416235 161.736830748178
  endloop
endfacet
facet normal -1.0 -1.55673988738972e-014 -1.18587336400745e-012
  outer loop
    vertex 181.157989083264 671.253068416235 161.736830748178
    vertex 181.157989083268 670.347065209351 158.355580748171
    vertex 181.157989083266 669.272378024023 159.756140355938
  endloop
endfacet
facet normal -1.0 -1.55673988738972e-014 -1.18587336400745e-012
  outer loop
    vertex 181.157989083264 671.253068416235 161.736830748178
    vertex 181.157989083266 669.272378024023 159.756140355938
    vertex 181.157989083265 667.871818416241 160.830827541246
  endloop
endfacet
facet normal -1.0 -1.55673988738972e-014 -1.18587336400745e-012
  outer loop
    vertex 181.157989083264 671.253068416235 161.736830748178
    vertex 181.157989083265 667.871818416241 160.830827541246
    vertex 181.157989083264 666.240832208742 161.506404148422
  endloop
endfacet
facet normal -1.0 -1.55673988738972e-014 -1.18587336400745e-012
  outer loop
    vertex 181.157989083264 671.253068416235 161.736830748178
    vertex 181.157989083264 666.240832208742 161.506404148422
    vertex 181.157989083264 664.490568416235 161.73683074813
  endloop
endfacet
facet normal -1.0 -1.55673988738972e-014 -1.18587336400745e-012
  outer loop
    vertex 181.157989083244 678.015568416119 178.211830748225
    vertex 181.157989083264 671.253068416235 161.736830748178
    vertex 181.157989083244 671.253068416119 178.211830748178
  endloop
endfacet
facet normal 0.608761429008759 0.793353340291206 6.30299266670706e-012
  outer loop
    vertex 191.30173908328 683.872065209422 148.211830748279
    vertex 192.702298691018 682.797378023893 178.211830748273
    vertex 192.702298691054 682.797378024104 148.211830748273
  endloop
endfacet
facet normal 0.608761429008759 0.793353340291206 6.30299266670706e-012
  outer loop
    vertex 192.702298691018 682.797378023893 178.211830748273
    vertex 191.30173908328 683.872065209422 148.211830748279
    vertex 191.301739083244 683.872065209211 178.211830748279
  endloop
endfacet
facet normal 1.0 -3.96094865548636e-016 1.18517394935557e-012
  outer loop
    vertex 194.682989083244 678.015568416119 178.211830748241
    vertex 194.68298908328 671.25306841633 148.211830748194
    vertex 194.68298908328 678.01556841633 148.211830748241
  endloop
endfacet
facet normal 1.0 -3.96094865548636e-016 1.18517394935557e-012
  outer loop
    vertex 194.68298908328 671.25306841633 148.211830748194
    vertex 194.682989083244 678.015568416119 178.211830748241
    vertex 194.682989083272 671.253068416282 154.974330748194
  endloop
endfacet
facet normal 1.0 -3.96094865548636e-016 1.18517394935557e-012
  outer loop
    vertex 194.682989083272 671.253068416282 154.974330748194
    vertex 194.682989083244 678.015568416119 178.211830748241
    vertex 194.68298908327 671.02264181655 156.724594540698
  endloop
endfacet
facet normal 1.0 -3.96094865548636e-016 1.18517394935557e-012
  outer loop
    vertex 194.68298908327 671.02264181655 156.724594540698
    vertex 194.682989083244 678.015568416119 178.211830748241
    vertex 194.682989083268 670.347065209351 158.355580748187
  endloop
endfacet
facet normal 1.0 -3.96094865548636e-016 1.18517394935557e-012
  outer loop
    vertex 194.682989083268 670.347065209351 158.355580748187
    vertex 194.682989083244 678.015568416119 178.211830748241
    vertex 194.682989083264 671.253068416235 161.736830748194
  endloop
endfacet
facet normal 1.0 -3.96094865548636e-016 1.18517394935557e-012
  outer loop
    vertex 194.682989083268 670.347065209351 158.355580748187
    vertex 194.682989083264 671.253068416235 161.736830748194
    vertex 194.682989083266 669.272378024023 159.756140355954
  endloop
endfacet
facet normal 1.0 -3.96094865548636e-016 1.18517394935557e-012
  outer loop
    vertex 194.682989083266 669.272378024023 159.756140355954
    vertex 194.682989083264 671.253068416235 161.736830748194
    vertex 194.682989083265 667.871818416241 160.830827541262
  endloop
endfacet
facet normal 1.0 -3.96094865548636e-016 1.18517394935557e-012
  outer loop
    vertex 194.682989083265 667.871818416241 160.830827541262
    vertex 194.682989083264 671.253068416235 161.736830748194
    vertex 194.682989083264 666.240832208742 161.506404148438
  endloop
endfacet
facet normal 1.0 -3.96094865548636e-016 1.18517394935557e-012
  outer loop
    vertex 194.682989083264 666.240832208742 161.506404148438
    vertex 194.682989083264 671.253068416235 161.736830748194
    vertex 194.682989083264 664.490568416235 161.736830748146
  endloop
endfacet
facet normal 1.0 -3.96094865548636e-016 1.18517394935557e-012
  outer loop
    vertex 194.682989083264 671.253068416235 161.736830748194
    vertex 194.682989083244 678.015568416119 178.211830748241
    vertex 194.682989083244 671.253068416119 178.211830748194
  endloop
endfacet
facet normal -0.991444861373805 0.130526192220091 -2.56927748121356e-013
  outer loop
    vertex 181.15798908328 678.01556841633 148.211830748225
    vertex 181.388415682965 679.765832208625 178.211830748238
    vertex 181.388415683 679.765832208836 148.211830748238
  endloop
endfacet
facet normal -0.991444861373805 0.130526192220091 -2.56927748121356e-013
  outer loop
    vertex 181.388415682965 679.765832208625 178.211830748238
    vertex 181.15798908328 678.01556841633 148.211830748225
    vertex 181.157989083244 678.015568416119 178.211830748225
  endloop
endfacet
facet normal 0.793353340291259 -0.60876142900869 -3.34235990374278e-012
  outer loop
    vertex 184.552893037843 681.38316446152 178.211830748253
    vertex 183.796043097756 680.39681841633 148.211830748245
    vertex 184.552893037879 681.383164461731 148.211830748253
  endloop
endfacet
facet normal 0.793353340291259 -0.60876142900869 -3.34235990374278e-012
  outer loop
    vertex 183.796043097756 680.39681841633 148.211830748245
    vertex 184.552893037843 681.38316446152 178.211830748253
    vertex 183.796043097721 680.396818416119 178.211830748245
  endloop
endfacet
facet normal -0.608761429008731 0.793353340291227 4.85980629506371e-012
  outer loop
    vertex 183.138679475506 682.797378024104 148.211830748261
    vertex 184.539239083244 683.872065209211 178.21183074827
    vertex 184.53923908328 683.872065209422 148.21183074827
  endloop
endfacet
facet normal -0.608761429008731 0.793353340291227 4.85980629506371e-012
  outer loop
    vertex 184.539239083244 683.872065209211 178.21183074827
    vertex 183.138679475506 682.797378024104 148.211830748261
    vertex 183.13867947547 682.797378023893 178.211830748261
  endloop
endfacet
facet normal 0.130526192220032 0.991444861373813 7.12973172110698e-012
  outer loop
    vertex 187.92048908328 684.77806841633 148.211830748281
    vertex 189.67075287575 684.547641816399 178.211830748282
    vertex 189.670752875786 684.54764181661 148.211830748281
  endloop
endfacet
facet normal 0.130526192220032 0.991444861373813 7.12973172110698e-012
  outer loop
    vertex 189.67075287575 684.547641816399 178.211830748282
    vertex 187.92048908328 684.77806841633 148.211830748281
    vertex 187.920489083244 684.778068416119 178.211830748281
  endloop
endfacet
facet normal 0.382683432365133 -0.923879532511269 -6.0460649185854e-012
  outer loop
    vertex 185.539239083244 682.140014401642 178.211830748259
    vertex 186.687863380979 682.615790164032 148.211830748264
    vertex 186.687863380943 682.615790163821 178.211830748264
  endloop
endfacet
facet normal 0.382683432365133 -0.923879532511269 -6.0460649185854e-012
  outer loop
    vertex 186.687863380979 682.615790164032 148.211830748264
    vertex 185.539239083244 682.140014401642 178.211830748259
    vertex 185.53923908328 682.140014401853 148.21183074826
  endloop
endfacet
facet normal -0.130526192220057 0.99144486137381 6.82029420950045e-012
  outer loop
    vertex 189.153114785581 673.415346668628 148.211830748202
    vertex 187.920489083244 673.253068416119 178.2118307482
    vertex 189.153114785545 673.415346668417 178.211830748202
  endloop
endfacet
facet normal -0.130526192220057 0.99144486137381 6.82029420950045e-012
  outer loop
    vertex 187.920489083244 673.253068416119 178.2118307482
    vertex 189.153114785581 673.415346668628 148.211830748202
    vertex 187.92048908328 673.25306841633 148.2118307482
  endloop
endfacet
facet normal -0.793353340291262 0.608761429008686 3.34235990374274e-012
  outer loop
    vertex 191.288085128645 674.647972370718 178.211830748214
    vertex 192.044935068803 675.63431841633 148.211830748221
    vertex 191.288085128681 674.647972370929 148.211830748214
  endloop
endfacet
facet normal -0.793353340291262 0.608761429008686 3.34235990374274e-012
  outer loop
    vertex 192.044935068803 675.63431841633 148.211830748221
    vertex 191.288085128645 674.647972370718 178.211830748214
    vertex 192.044935068768 675.634318416119 178.211830748222
  endloop
endfacet
facet normal -0.991444861373795 0.13052619222017 -2.5692774812079e-013
  outer loop
    vertex 192.520710830946 676.782942713818 178.21183074823
    vertex 192.68298908328 678.01556841633 148.211830748239
    vertex 192.520710830982 676.782942714029 148.21183074823
  endloop
endfacet
facet normal -0.991444861373795 0.13052619222017 -2.5692774812079e-013
  outer loop
    vertex 192.68298908328 678.01556841633 148.211830748239
    vertex 192.520710830946 676.782942713818 178.21183074823
    vertex 192.682989083245 678.015568416119 178.211830748239
  endloop
endfacet
facet normal -0.991444861373761 -0.130526192220424 -2.09348350329761e-012
  outer loop
    vertex 192.68298908328 678.01556841633 148.211830748239
    vertex 192.520710830946 679.24819411842 178.211830748247
    vertex 192.520710830981 679.248194118631 148.211830748247
  endloop
endfacet
facet normal -0.991444861373761 -0.130526192220424 -2.09348350329761e-012
  outer loop
    vertex 192.520710830946 679.24819411842 178.211830748247
    vertex 192.68298908328 678.01556841633 148.211830748239
    vertex 192.682989083245 678.015568416119 178.211830748239
  endloop
endfacet
facet normal -0.382683432365076 0.923879532511293 6.04606491858563e-012
  outer loop
    vertex 190.30173908328 673.891122430807 148.211830748207
    vertex 189.153114785545 673.415346668417 178.211830748202
    vertex 190.301739083244 673.891122430596 178.211830748207
  endloop
endfacet
facet normal -0.382683432365076 0.923879532511293 6.04606491858563e-012
  outer loop
    vertex 189.153114785545 673.415346668417 178.211830748202
    vertex 190.30173908328 673.891122430807 148.211830748207
    vertex 189.153114785581 673.415346668628 148.211830748202
  endloop
endfacet
facet normal -0.60876142900872 -0.793353340291236 -6.30299266670723e-012
  outer loop
    vertex 190.301739083244 682.140014401642 178.211830748265
    vertex 191.288085128681 681.383164461731 148.211830748261
    vertex 191.288085128645 681.38316446152 178.211830748261
  endloop
endfacet
facet normal -0.60876142900872 -0.793353340291236 -6.30299266670723e-012
  outer loop
    vertex 191.288085128681 681.383164461731 148.211830748261
    vertex 190.301739083244 682.140014401642 178.211830748265
    vertex 190.30173908328 682.140014401853 148.211830748265
  endloop
endfacet
facet normal 0.382683432364965 0.923879532511338 6.95328979835905e-012
  outer loop
    vertex 186.687863380979 673.415346668628 148.211830748199
    vertex 185.539239083244 673.891122430595 178.211830748201
    vertex 186.687863380944 673.415346668417 178.211830748199
  endloop
endfacet
facet normal 0.382683432364965 0.923879532511338 6.95328979835905e-012
  outer loop
    vertex 185.539239083244 673.891122430595 178.211830748201
    vertex 186.687863380979 673.415346668628 148.211830748199
    vertex 185.53923908328 673.891122430806 148.211830748201
  endloop
endfacet
facet normal -0.923879532511287 0.38268343236509 1.59713720849308e-012
  outer loop
    vertex 192.044935068768 675.634318416119 178.211830748222
    vertex 192.520710830982 676.782942714029 148.21183074823
    vertex 192.044935068803 675.63431841633 148.211830748221
  endloop
endfacet
facet normal -0.923879532511287 0.38268343236509 1.59713720849308e-012
  outer loop
    vertex 192.520710830982 676.782942714029 148.21183074823
    vertex 192.044935068768 675.634318416119 178.211830748222
    vertex 192.520710830946 676.782942713818 178.21183074823
  endloop
endfacet
facet normal -0.793353340291185 -0.608761429008786 -5.22315700100779e-012
  outer loop
    vertex 192.044935068768 680.396818416119 178.211830748255
    vertex 191.288085128681 681.383164461731 148.211830748261
    vertex 192.044935068803 680.39681841633 148.211830748255
  endloop
endfacet
facet normal -0.793353340291185 -0.608761429008786 -5.22315700100779e-012
  outer loop
    vertex 191.288085128681 681.383164461731 148.211830748261
    vertex 192.044935068768 680.396818416119 178.211830748255
    vertex 191.288085128645 681.38316446152 178.211830748261
  endloop
endfacet
facet normal -0.382683432365341 -0.923879532511183 -6.9532897983584e-012
  outer loop
    vertex 189.153114785545 682.615790163821 178.211830748267
    vertex 190.30173908328 682.140014401853 148.211830748265
    vertex 190.301739083244 682.140014401642 178.211830748265
  endloop
endfacet
facet normal -0.382683432365341 -0.923879532511183 -6.9532897983584e-012
  outer loop
    vertex 190.30173908328 682.140014401853 148.211830748265
    vertex 189.153114785545 682.615790163821 178.211830748267
    vertex 189.153114785581 682.615790164032 148.211830748267
  endloop
endfacet
facet normal -0.608761429008696 0.793353340291254 4.85980629506395e-012
  outer loop
    vertex 191.288085128681 674.647972370929 148.211830748214
    vertex 190.301739083244 673.891122430596 178.211830748207
    vertex 191.288085128645 674.647972370718 178.211830748214
  endloop
endfacet
facet normal -0.608761429008696 0.793353340291254 4.85980629506395e-012
  outer loop
    vertex 190.301739083244 673.891122430596 178.211830748207
    vertex 191.288085128681 674.647972370929 148.211830748214
    vertex 190.30173908328 673.891122430807 148.211830748207
  endloop
endfacet
facet normal -0.130526192219785 -0.991444861373846 -7.12973172110692e-012
  outer loop
    vertex 187.920489083244 682.778068416119 178.211830748267
    vertex 189.153114785581 682.615790164032 148.211830748267
    vertex 189.153114785545 682.615790163821 178.211830748267
  endloop
endfacet
facet normal -0.130526192219785 -0.991444861373846 -7.12973172110692e-012
  outer loop
    vertex 189.153114785581 682.615790164032 148.211830748267
    vertex 187.920489083244 682.778068416119 178.211830748267
    vertex 187.92048908328 682.77806841633 148.211830748267
  endloop
endfacet
facet normal 0.130526192220066 0.991444861373809 7.12973172110699e-012
  outer loop
    vertex 187.92048908328 673.25306841633 148.2118307482
    vertex 186.687863380944 673.415346668417 178.211830748199
    vertex 187.920489083244 673.253068416119 178.2118307482
  endloop
endfacet
facet normal 0.130526192220066 0.991444861373809 7.12973172110699e-012
  outer loop
    vertex 186.687863380944 673.415346668417 178.211830748199
    vertex 187.92048908328 673.25306841633 148.2118307482
    vertex 186.687863380979 673.415346668628 148.211830748199
  endloop
endfacet
facet normal -0.923879532511403 -0.382683432364808 -3.78737181736212e-012
  outer loop
    vertex 192.520710830946 679.24819411842 178.211830748247
    vertex 192.044935068803 680.39681841633 148.211830748255
    vertex 192.520710830981 679.248194118631 148.211830748247
  endloop
endfacet
facet normal -0.923879532511403 -0.382683432364808 -3.78737181736212e-012
  outer loop
    vertex 192.044935068803 680.39681841633 148.211830748255
    vertex 192.520710830946 679.24819411842 178.211830748247
    vertex 192.044935068768 680.396818416119 178.211830748255
  endloop
endfacet
facet normal -1.45197500132755e-014 1.0 7.04478659962224e-012
  outer loop
    vertex 181.15798908328 671.25306841633 148.211830748178
    vertex 172.920489083272 671.253068416282 154.974330748168
    vertex 181.157989083272 671.253068416283 154.974330748178
  endloop
endfacet
facet normal -1.45197500132755e-014 1.0 7.04478659962224e-012
  outer loop
    vertex 172.920489083272 671.253068416282 154.974330748168
    vertex 181.15798908328 671.25306841633 148.211830748178
    vertex 172.92048908328 671.25306841633 148.211830748168
  endloop
endfacet
facet normal 1.17511777209043e-012 0.130526192227023 -0.991444861372893
  outer loop
    vertex 172.920489083266 663.257942713949 159.574552495813
    vertex 202.920489083266 664.490568416249 159.736830748156
    vertex 202.920489083266 663.257942713949 159.574552495849
  endloop
endfacet
facet normal 1.17511777209043e-012 0.130526192227023 -0.991444861372893
  outer loop
    vertex 202.920489083266 664.490568416249 159.736830748156
    vertex 172.920489083266 663.257942713949 159.574552495813
    vertex 172.920489083266 664.490568416249 159.73683074812
  endloop
endfacet
facet normal 1.17529347932627e-012 -0.130526192213062 -0.991444861374731
  outer loop
    vertex 172.920489083266 665.723194118551 159.574552495831
    vertex 202.920489083266 664.490568416249 159.736830748156
    vertex 172.920489083266 664.490568416249 159.73683074812
  endloop
endfacet
facet normal 1.17529347932627e-012 -0.130526192213062 -0.991444861374731
  outer loop
    vertex 202.920489083266 664.490568416249 159.736830748156
    vertex 172.920489083266 665.723194118551 159.574552495831
    vertex 202.920489083266 665.723194118551 159.574552495866
  endloop
endfacet
facet normal 9.40808289336905e-013 -0.608761429003152 -0.793353340295508
  outer loop
    vertex 172.920489083268 667.85816446166 158.341926793545
    vertex 202.920489083267 666.871818416253 159.098776733696
    vertex 172.920489083267 666.871818416253 159.098776733661
  endloop
endfacet
facet normal 9.40808289336905e-013 -0.608761429003152 -0.793353340295508
  outer loop
    vertex 202.920489083267 666.871818416253 159.098776733696
    vertex 172.920489083268 667.85816446166 158.341926793545
    vertex 202.920489083268 667.85816446166 158.34192679358
  endloop
endfacet
facet normal -7.21059201339062e-013 -0.793353340295495 0.60876142900317
  outer loop
    vertex 202.920489083275 668.615014401823 152.593080748185
    vertex 172.920489083276 667.858164461707 151.606734702743
    vertex 202.920489083276 667.858164461707 151.606734702779
  endloop
endfacet
facet normal -7.21059201339062e-013 -0.793353340295495 0.60876142900317
  outer loop
    vertex 172.920489083276 667.858164461707 151.606734702743
    vertex 202.920489083275 668.615014401823 152.593080748185
    vertex 172.920489083275 668.615014401823 152.59308074815
  endloop
endfacet
facet normal -1.09537487821031e-012 0.382683432358615 0.923879532513969
  outer loop
    vertex 202.920489083277 663.257942714014 150.374109000445
    vertex 172.920489083277 662.109318416311 150.84988476258
    vertex 202.920489083277 662.109318416311 150.849884762616
  endloop
endfacet
facet normal -1.09537487821031e-012 0.382683432358615 0.923879532513969
  outer loop
    vertex 172.920489083277 662.109318416311 150.84988476258
    vertex 202.920489083277 663.257942714014 150.374109000445
    vertex 172.920489083277 663.257942714014 150.37410900041
  endloop
endfacet
facet normal 2.39351137057602e-016 -1.0 -7.03656892167015e-012
  outer loop
    vertex 172.920489083272 657.728068416282 154.974330748073
    vertex 202.92048908328 657.72806841633 148.211830748108
    vertex 202.920489083272 657.728068416282 154.974330748108
  endloop
endfacet
facet normal 2.39351137057602e-016 -1.0 -7.03656892167015e-012
  outer loop
    vertex 202.92048908328 657.72806841633 148.211830748108
    vertex 172.920489083272 657.728068416282 154.974330748073
    vertex 172.92048908328 657.72806841633 148.211830748073
  endloop
endfacet
facet normal 1.09537487821031e-012 -0.382683432358615 -0.923879532513969
  outer loop
    vertex 172.920489083266 665.723194118551 159.574552495831
    vertex 202.920489083267 666.871818416253 159.098776733696
    vertex 202.920489083266 665.723194118551 159.574552495866
  endloop
endfacet
facet normal 1.09537487821031e-012 -0.382683432358615 -0.923879532513969
  outer loop
    vertex 202.920489083267 666.871818416253 159.098776733696
    vertex 172.920489083266 665.723194118551 159.574552495831
    vertex 172.920489083267 666.871818416253 159.098776733661
  endloop
endfacet
facet normal -7.2172479443781e-013 -0.793353340295525 0.60876142900313
  outer loop
    vertex 172.920489083266 659.708758808475 159.756140355861
    vertex 202.920489083268 658.634071623166 158.355580748115
    vertex 202.920489083266 659.708758808475 159.756140355896
  endloop
endfacet
facet normal -7.2172479443781e-013 -0.793353340295525 0.60876142900313
  outer loop
    vertex 202.920489083268 658.634071623166 158.355580748115
    vertex 172.920489083266 659.708758808475 159.756140355861
    vertex 172.920489083268 658.634071623166 158.355580748079
  endloop
endfacet
facet normal -9.40808289336905e-013 0.608761429003152 0.793353340295508
  outer loop
    vertex 202.920489083277 662.109318416311 150.849884762616
    vertex 172.920489083276 661.122972370905 151.606734702696
    vertex 202.920489083276 661.122972370905 151.606734702731
  endloop
endfacet
facet normal -9.40808289336905e-013 0.608761429003152 0.793353340295508
  outer loop
    vertex 172.920489083276 661.122972370905 151.606734702696
    vertex 202.920489083277 662.109318416311 150.849884762616
    vertex 172.920489083277 662.109318416311 150.84988476258
  endloop
endfacet
facet normal 1.0 6.73072701605427e-016 1.18534642872616e-012
  outer loop
    vertex 202.92048908328 671.25306841633 148.211830748204
    vertex 202.920489083277 665.723194118616 150.374109000463
    vertex 202.92048908328 657.72806841633 148.211830748108
  endloop
endfacet
facet normal 1.0 6.73072701605427e-016 1.18534642872616e-012
  outer loop
    vertex 202.920489083277 665.723194118616 150.374109000463
    vertex 202.92048908328 671.25306841633 148.211830748204
    vertex 202.920489083277 666.871818416312 150.84988476265
  endloop
endfacet
facet normal 1.0 6.73072701605427e-016 1.18534642872616e-012
  outer loop
    vertex 202.920489083277 666.871818416312 150.84988476265
    vertex 202.92048908328 671.25306841633 148.211830748204
    vertex 202.920489083276 667.858164461707 151.606734702779
  endloop
endfacet
facet normal 1.0 6.73072701605427e-016 1.18534642872616e-012
  outer loop
    vertex 202.920489083276 667.858164461707 151.606734702779
    vertex 202.92048908328 671.25306841633 148.211830748204
    vertex 202.920489083272 671.253068416282 154.974330748204
  endloop
endfacet
facet normal 1.0 6.73072701605427e-016 1.18534642872616e-012
  outer loop
    vertex 202.92048908328 657.72806841633 148.211830748108
    vertex 202.920489083277 665.723194118616 150.374109000463
    vertex 202.920489083277 664.490568416316 150.211830748156
  endloop
endfacet
facet normal 1.0 6.73072701605427e-016 1.18534642872616e-012
  outer loop
    vertex 202.920489083276 667.858164461707 151.606734702779
    vertex 202.920489083272 671.253068416282 154.974330748204
    vertex 202.920489083275 668.615014401823 152.593080748185
  endloop
endfacet
facet normal 1.0 6.73072701605427e-016 1.18534642872616e-012
  outer loop
    vertex 202.920489083275 668.615014401823 152.593080748185
    vertex 202.920489083272 671.253068416282 154.974330748204
    vertex 202.920489083273 669.090790163993 153.741705045887
  endloop
endfacet
facet normal 1.0 6.73072701605427e-016 1.18534642872616e-012
  outer loop
    vertex 202.920489083273 669.090790163993 153.741705045887
    vertex 202.920489083272 671.253068416282 154.974330748204
    vertex 202.920489083272 669.253068416282 154.974330748189
  endloop
endfacet
facet normal 1.0 6.73072701605427e-016 1.18534642872616e-012
  outer loop
    vertex 202.920489083272 669.253068416282 154.974330748189
    vertex 202.920489083272 671.253068416282 154.974330748204
    vertex 202.92048908327 669.090790163976 156.206956450489
  endloop
endfacet
facet normal 1.0 6.73072701605427e-016 1.18534642872616e-012
  outer loop
    vertex 202.92048908327 669.090790163976 156.206956450489
    vertex 202.920489083272 671.253068416282 154.974330748204
    vertex 202.92048908327 671.02264181655 156.724594540708
  endloop
endfacet
facet normal 1.0 6.73072701605427e-016 1.18534642872616e-012
  outer loop
    vertex 202.92048908327 669.090790163976 156.206956450489
    vertex 202.92048908327 671.02264181655 156.724594540708
    vertex 202.920489083269 668.615014401789 157.355580748185
  endloop
endfacet
facet normal 1.0 6.73072701605427e-016 1.18534642872616e-012
  outer loop
    vertex 202.920489083269 668.615014401789 157.355580748185
    vertex 202.92048908327 671.02264181655 156.724594540708
    vertex 202.920489083268 670.347065209351 158.355580748197
  endloop
endfacet
facet normal 1.0 6.73072701605427e-016 1.18534642872616e-012
  outer loop
    vertex 202.920489083269 668.615014401789 157.355580748185
    vertex 202.920489083268 670.347065209351 158.355580748197
    vertex 202.920489083268 667.85816446166 158.34192679358
  endloop
endfacet
facet normal 1.0 6.73072701605427e-016 1.18534642872616e-012
  outer loop
    vertex 202.920489083268 667.85816446166 158.34192679358
    vertex 202.920489083268 670.347065209351 158.355580748197
    vertex 202.920489083267 666.871818416253 159.098776733696
  endloop
endfacet
facet normal 1.0 6.73072701605427e-016 1.18534642872616e-012
  outer loop
    vertex 202.920489083267 666.871818416253 159.098776733696
    vertex 202.920489083268 670.347065209351 158.355580748197
    vertex 202.920489083266 669.272378024023 159.756140355964
  endloop
endfacet
facet normal 1.0 6.73072701605427e-016 1.18534642872616e-012
  outer loop
    vertex 202.920489083267 666.871818416253 159.098776733696
    vertex 202.920489083266 669.272378024023 159.756140355964
    vertex 202.920489083266 665.723194118551 159.574552495866
  endloop
endfacet
facet normal 1.0 6.73072701605427e-016 1.18534642872616e-012
  outer loop
    vertex 202.920489083266 665.723194118551 159.574552495866
    vertex 202.920489083266 669.272378024023 159.756140355964
    vertex 202.920489083266 664.490568416249 159.736830748156
  endloop
endfacet
facet normal 1.0 6.73072701605427e-016 1.18534642872616e-012
  outer loop
    vertex 202.920489083266 664.490568416249 159.736830748156
    vertex 202.920489083266 669.272378024023 159.756140355964
    vertex 202.920489083266 659.708758808475 159.756140355896
  endloop
endfacet
facet normal 1.0 6.73072701605427e-016 1.18534642872616e-012
  outer loop
    vertex 202.920489083266 659.708758808475 159.756140355896
    vertex 202.920489083266 669.272378024023 159.756140355964
    vertex 202.920489083265 661.109318416241 160.830827541224
  endloop
endfacet
facet normal 1.0 6.73072701605427e-016 1.18534642872616e-012
  outer loop
    vertex 202.920489083265 661.109318416241 160.830827541224
    vertex 202.920489083266 669.272378024023 159.756140355964
    vertex 202.920489083265 667.871818416241 160.830827541272
  endloop
endfacet
facet normal 1.0 6.73072701605427e-016 1.18534642872616e-012
  outer loop
    vertex 202.920489083265 661.109318416241 160.830827541224
    vertex 202.920489083265 667.871818416241 160.830827541272
    vertex 202.920489083264 662.740304623731 161.506404148423
  endloop
endfacet
facet normal 1.0 6.73072701605427e-016 1.18534642872616e-012
  outer loop
    vertex 202.920489083264 662.740304623731 161.506404148423
    vertex 202.920489083265 667.871818416241 160.830827541272
    vertex 202.920489083264 666.240832208742 161.506404148448
  endloop
endfacet
facet normal 1.0 6.73072701605427e-016 1.18534642872616e-012
  outer loop
    vertex 202.920489083264 662.740304623731 161.506404148423
    vertex 202.920489083264 666.240832208742 161.506404148448
    vertex 202.920489083264 664.490568416235 161.736830748156
  endloop
endfacet
facet normal 1.0 6.73072701605427e-016 1.18534642872616e-012
  outer loop
    vertex 202.92048908328 657.72806841633 148.211830748108
    vertex 202.920489083276 661.122972370905 151.606734702731
    vertex 202.920489083272 657.728068416282 154.974330748108
  endloop
endfacet
facet normal 1.0 6.73072701605427e-016 1.18534642872616e-012
  outer loop
    vertex 202.920489083276 661.122972370905 151.606734702731
    vertex 202.92048908328 657.72806841633 148.211830748108
    vertex 202.920489083277 662.109318416311 150.849884762616
  endloop
endfacet
facet normal 1.0 6.73072701605427e-016 1.18534642872616e-012
  outer loop
    vertex 202.920489083277 662.109318416311 150.849884762616
    vertex 202.92048908328 657.72806841633 148.211830748108
    vertex 202.920489083277 663.257942714014 150.374109000445
  endloop
endfacet
facet normal 1.0 6.73072701605427e-016 1.18534642872616e-012
  outer loop
    vertex 202.920489083277 663.257942714014 150.374109000445
    vertex 202.92048908328 657.72806841633 148.211830748108
    vertex 202.920489083277 664.490568416316 150.211830748156
  endloop
endfacet
facet normal 1.0 6.73072701605427e-016 1.18534642872616e-012
  outer loop
    vertex 202.920489083272 657.728068416282 154.974330748108
    vertex 202.920489083276 661.122972370905 151.606734702731
    vertex 202.920489083275 660.366122430776 152.593080748127
  endloop
endfacet
facet normal 1.0 6.73072701605427e-016 1.18534642872616e-012
  outer loop
    vertex 202.920489083272 657.728068416282 154.974330748108
    vertex 202.920489083275 660.366122430776 152.593080748127
    vertex 202.920489083273 659.890346668589 153.741705045823
  endloop
endfacet
facet normal 1.0 6.73072701605427e-016 1.18534642872616e-012
  outer loop
    vertex 202.920489083272 657.728068416282 154.974330748108
    vertex 202.920489083273 659.890346668589 153.741705045823
    vertex 202.920489083272 659.728068416282 154.974330748122
  endloop
endfacet
facet normal 1.0 6.73072701605427e-016 1.18534642872616e-012
  outer loop
    vertex 202.920489083272 657.728068416282 154.974330748108
    vertex 202.920489083272 659.728068416282 154.974330748122
    vertex 202.92048908327 659.890346668572 156.206956450424
  endloop
endfacet
facet normal 1.0 6.73072701605427e-016 1.18534642872616e-012
  outer loop
    vertex 202.920489083272 657.728068416282 154.974330748108
    vertex 202.92048908327 659.890346668572 156.206956450424
    vertex 202.92048908327 657.95849501599 156.724594540616
  endloop
endfacet
facet normal 1.0 6.73072701605427e-016 1.18534642872616e-012
  outer loop
    vertex 202.92048908327 657.95849501599 156.724594540616
    vertex 202.92048908327 659.890346668572 156.206956450424
    vertex 202.920489083269 660.366122430742 157.355580748127
  endloop
endfacet
facet normal 1.0 6.73072701605427e-016 1.18534642872616e-012
  outer loop
    vertex 202.92048908327 657.95849501599 156.724594540616
    vertex 202.920489083269 660.366122430742 157.355580748127
    vertex 202.920489083268 658.634071623166 158.355580748115
  endloop
endfacet
facet normal 1.0 6.73072701605427e-016 1.18534642872616e-012
  outer loop
    vertex 202.920489083268 658.634071623166 158.355580748115
    vertex 202.920489083269 660.366122430742 157.355580748127
    vertex 202.920489083268 661.122972370858 158.341926793533
  endloop
endfacet
facet normal 1.0 6.73072701605427e-016 1.18534642872616e-012
  outer loop
    vertex 202.920489083268 658.634071623166 158.355580748115
    vertex 202.920489083268 661.122972370858 158.341926793533
    vertex 202.920489083267 662.109318416253 159.098776733662
  endloop
endfacet
facet normal 1.0 6.73072701605427e-016 1.18534642872616e-012
  outer loop
    vertex 202.920489083268 658.634071623166 158.355580748115
    vertex 202.920489083267 662.109318416253 159.098776733662
    vertex 202.920489083266 659.708758808475 159.756140355896
  endloop
endfacet
facet normal 1.0 6.73072701605427e-016 1.18534642872616e-012
  outer loop
    vertex 202.920489083266 659.708758808475 159.756140355896
    vertex 202.920489083267 662.109318416253 159.098776733662
    vertex 202.920489083266 663.257942713949 159.574552495849
  endloop
endfacet
facet normal 1.0 6.73072701605427e-016 1.18534642872616e-012
  outer loop
    vertex 202.920489083266 659.708758808475 159.756140355896
    vertex 202.920489083266 663.257942713949 159.574552495849
    vertex 202.920489083266 664.490568416249 159.736830748156
  endloop
endfacet
facet normal 1.18534642872616e-012 7.03860823721755e-012 -1.0
  outer loop
    vertex 181.15798908328 671.25306841633 148.211830748178
    vertex 186.687863380979 673.415346668628 148.211830748199
    vertex 187.92048908328 673.25306841633 148.2118307482
  endloop
endfacet
facet normal 1.18534642872616e-012 7.03860823721755e-012 -1.0
  outer loop
    vertex 186.687863380979 673.415346668628 148.211830748199
    vertex 181.15798908328 671.25306841633 148.211830748178
    vertex 185.53923908328 673.891122430806 148.211830748201
  endloop
endfacet
facet normal 1.18534642872616e-012 7.03860823721755e-012 -1.0
  outer loop
    vertex 185.53923908328 673.891122430806 148.211830748201
    vertex 181.15798908328 671.25306841633 148.211830748178
    vertex 184.552893037879 674.647972370929 148.211830748206
  endloop
endfacet
facet normal 1.18534642872616e-012 7.03860823721755e-012 -1.0
  outer loop
    vertex 184.552893037879 674.647972370929 148.211830748206
    vertex 181.15798908328 671.25306841633 148.211830748178
    vertex 181.15798908328 678.01556841633 148.211830748225
  endloop
endfacet
facet normal 1.18534642872616e-012 7.03860823721755e-012 -1.0
  outer loop
    vertex 184.552893037879 674.647972370929 148.211830748206
    vertex 181.15798908328 678.01556841633 148.211830748225
    vertex 183.796043097757 675.63431841633 148.211830748212
  endloop
endfacet
facet normal 1.18534642872616e-012 7.03860823721755e-012 -1.0
  outer loop
    vertex 183.796043097757 675.63431841633 148.211830748212
    vertex 181.15798908328 678.01556841633 148.211830748225
    vertex 183.320267335578 676.782942714029 148.211830748219
  endloop
endfacet
facet normal 1.18534642872616e-012 7.03860823721755e-012 -1.0
  outer loop
    vertex 183.320267335578 676.782942714029 148.211830748219
    vertex 181.15798908328 678.01556841633 148.211830748225
    vertex 183.15798908328 678.01556841633 148.211830748228
  endloop
endfacet
facet normal 1.18534642872616e-012 7.03860823721755e-012 -1.0
  outer loop
    vertex 183.15798908328 678.01556841633 148.211830748228
    vertex 181.15798908328 678.01556841633 148.211830748225
    vertex 183.320267335578 679.248194118631 148.211830748236
  endloop
endfacet
facet normal 1.18534642872616e-012 7.03860823721755e-012 -1.0
  outer loop
    vertex 183.320267335578 679.248194118631 148.211830748236
    vertex 181.15798908328 678.01556841633 148.211830748225
    vertex 181.388415683 679.765832208836 148.211830748238
  endloop
endfacet
facet normal 1.18534642872616e-012 7.03860823721755e-012 -1.0
  outer loop
    vertex 183.320267335578 679.248194118631 148.211830748236
    vertex 181.388415683 679.765832208836 148.211830748238
    vertex 183.796043097756 680.39681841633 148.211830748245
  endloop
endfacet
facet normal 1.18534642872616e-012 7.03860823721755e-012 -1.0
  outer loop
    vertex 183.796043097756 680.39681841633 148.211830748245
    vertex 181.388415683 679.765832208836 148.211830748238
    vertex 182.063992290188 681.39681841633 148.21183074825
  endloop
endfacet
facet normal 1.18534642872616e-012 7.03860823721755e-012 -1.0
  outer loop
    vertex 183.796043097756 680.39681841633 148.211830748245
    vertex 182.063992290188 681.39681841633 148.21183074825
    vertex 184.552893037879 681.383164461731 148.211830748253
  endloop
endfacet
facet normal 1.18534642872616e-012 7.03860823721755e-012 -1.0
  outer loop
    vertex 184.552893037879 681.383164461731 148.211830748253
    vertex 182.063992290188 681.39681841633 148.21183074825
    vertex 185.53923908328 682.140014401853 148.21183074826
  endloop
endfacet
facet normal 1.18534642872616e-012 7.03860823721755e-012 -1.0
  outer loop
    vertex 185.53923908328 682.140014401853 148.21183074826
    vertex 182.063992290188 681.39681841633 148.21183074825
    vertex 183.138679475506 682.797378024104 148.211830748261
  endloop
endfacet
facet normal 1.18534642872616e-012 7.03860823721755e-012 -1.0
  outer loop
    vertex 185.53923908328 682.140014401853 148.21183074826
    vertex 183.138679475506 682.797378024104 148.211830748261
    vertex 186.687863380979 682.615790164032 148.211830748264
  endloop
endfacet
facet normal 1.18534642872616e-012 7.03860823721755e-012 -1.0
  outer loop
    vertex 186.687863380979 682.615790164032 148.211830748264
    vertex 183.138679475506 682.797378024104 148.211830748261
    vertex 187.92048908328 682.77806841633 148.211830748267
  endloop
endfacet
facet normal 1.18534642872616e-012 7.03860823721755e-012 -1.0
  outer loop
    vertex 187.92048908328 682.77806841633 148.211830748267
    vertex 183.138679475506 682.797378024104 148.211830748261
    vertex 192.702298691054 682.797378024104 148.211830748273
  endloop
endfacet
facet normal 1.18534642872616e-012 7.03860823721755e-012 -1.0
  outer loop
    vertex 192.702298691054 682.797378024104 148.211830748273
    vertex 183.138679475506 682.797378024104 148.211830748261
    vertex 191.30173908328 683.872065209422 148.211830748279
  endloop
endfacet
facet normal 1.18534642872616e-012 7.03860823721755e-012 -1.0
  outer loop
    vertex 191.30173908328 683.872065209422 148.211830748279
    vertex 183.138679475506 682.797378024104 148.211830748261
    vertex 184.53923908328 683.872065209422 148.21183074827
  endloop
endfacet
facet normal 1.18534642872616e-012 7.03860823721755e-012 -1.0
  outer loop
    vertex 191.30173908328 683.872065209422 148.211830748279
    vertex 184.53923908328 683.872065209422 148.21183074827
    vertex 189.670752875786 684.54764181661 148.211830748281
  endloop
endfacet
facet normal 1.18534642872616e-012 7.03860823721755e-012 -1.0
  outer loop
    vertex 189.670752875786 684.54764181661 148.211830748281
    vertex 184.53923908328 683.872065209422 148.21183074827
    vertex 186.170225290774 684.54764181661 148.211830748277
  endloop
endfacet
facet normal 1.18534642872616e-012 7.03860823721755e-012 -1.0
  outer loop
    vertex 189.670752875786 684.54764181661 148.211830748281
    vertex 186.170225290774 684.54764181661 148.211830748277
    vertex 187.92048908328 684.77806841633 148.211830748281
  endloop
endfacet
facet normal 1.18534642872616e-012 7.03860823721755e-012 -1.0
  outer loop
    vertex 172.92048908328 671.25306841633 148.211830748168
    vertex 202.92048908328 657.72806841633 148.211830748108
    vertex 172.92048908328 657.72806841633 148.211830748073
  endloop
endfacet
facet normal 1.18534642872616e-012 7.03860823721755e-012 -1.0
  outer loop
    vertex 202.92048908328 657.72806841633 148.211830748108
    vertex 172.92048908328 671.25306841633 148.211830748168
    vertex 194.68298908328 671.25306841633 148.211830748194
  endloop
endfacet
facet normal 1.18534642872616e-012 7.03860823721755e-012 -1.0
  outer loop
    vertex 194.68298908328 671.25306841633 148.211830748194
    vertex 172.92048908328 671.25306841633 148.211830748168
    vertex 181.15798908328 671.25306841633 148.211830748178
  endloop
endfacet
facet normal 1.18534642872616e-012 7.03860823721755e-012 -1.0
  outer loop
    vertex 194.68298908328 671.25306841633 148.211830748194
    vertex 181.15798908328 671.25306841633 148.211830748178
    vertex 189.153114785581 673.415346668628 148.211830748202
  endloop
endfacet
facet normal 1.18534642872616e-012 7.03860823721755e-012 -1.0
  outer loop
    vertex 194.68298908328 671.25306841633 148.211830748194
    vertex 189.153114785581 673.415346668628 148.211830748202
    vertex 190.30173908328 673.891122430807 148.211830748207
  endloop
endfacet
facet normal 1.18534642872616e-012 7.03860823721755e-012 -1.0
  outer loop
    vertex 194.68298908328 671.25306841633 148.211830748194
    vertex 190.30173908328 673.891122430807 148.211830748207
    vertex 191.288085128681 674.647972370929 148.211830748214
  endloop
endfacet
facet normal 1.18534642872616e-012 7.03860823721755e-012 -1.0
  outer loop
    vertex 194.68298908328 671.25306841633 148.211830748194
    vertex 191.288085128681 674.647972370929 148.211830748214
    vertex 194.68298908328 678.01556841633 148.211830748241
  endloop
endfacet
facet normal 1.18534642872616e-012 7.03860823721755e-012 -1.0
  outer loop
    vertex 189.153114785581 673.415346668628 148.211830748202
    vertex 181.15798908328 671.25306841633 148.211830748178
    vertex 187.92048908328 673.25306841633 148.2118307482
  endloop
endfacet
facet normal 1.18534642872616e-012 7.03860823721755e-012 -1.0
  outer loop
    vertex 194.68298908328 678.01556841633 148.211830748241
    vertex 191.288085128681 674.647972370929 148.211830748214
    vertex 192.044935068803 675.63431841633 148.211830748221
  endloop
endfacet
facet normal 1.18534642872616e-012 7.03860823721755e-012 -1.0
  outer loop
    vertex 194.68298908328 678.01556841633 148.211830748241
    vertex 192.044935068803 675.63431841633 148.211830748221
    vertex 192.520710830982 676.782942714029 148.21183074823
  endloop
endfacet
facet normal 1.18534642872616e-012 7.03860823721755e-012 -1.0
  outer loop
    vertex 194.68298908328 678.01556841633 148.211830748241
    vertex 192.520710830982 676.782942714029 148.21183074823
    vertex 192.68298908328 678.01556841633 148.211830748239
  endloop
endfacet
facet normal 1.18534642872616e-012 7.03860823721755e-012 -1.0
  outer loop
    vertex 194.68298908328 678.01556841633 148.211830748241
    vertex 192.68298908328 678.01556841633 148.211830748239
    vertex 194.45256248356 679.765832208836 148.211830748254
  endloop
endfacet
facet normal 1.18534642872616e-012 7.03860823721755e-012 -1.0
  outer loop
    vertex 194.45256248356 679.765832208836 148.211830748254
    vertex 192.68298908328 678.01556841633 148.211830748239
    vertex 192.520710830981 679.248194118631 148.211830748247
  endloop
endfacet
facet normal 1.18534642872616e-012 7.03860823721755e-012 -1.0
  outer loop
    vertex 194.45256248356 679.765832208836 148.211830748254
    vertex 192.520710830981 679.248194118631 148.211830748247
    vertex 192.044935068803 680.39681841633 148.211830748255
  endloop
endfacet
facet normal 1.18534642872616e-012 7.03860823721755e-012 -1.0
  outer loop
    vertex 194.45256248356 679.765832208836 148.211830748254
    vertex 192.044935068803 680.39681841633 148.211830748255
    vertex 193.776985876372 681.39681841633 148.211830748264
  endloop
endfacet
facet normal 1.18534642872616e-012 7.03860823721755e-012 -1.0
  outer loop
    vertex 193.776985876372 681.39681841633 148.211830748264
    vertex 192.044935068803 680.39681841633 148.211830748255
    vertex 191.288085128681 681.383164461731 148.211830748261
  endloop
endfacet
facet normal 1.18534642872616e-012 7.03860823721755e-012 -1.0
  outer loop
    vertex 193.776985876372 681.39681841633 148.211830748264
    vertex 191.288085128681 681.383164461731 148.211830748261
    vertex 190.30173908328 682.140014401853 148.211830748265
  endloop
endfacet
facet normal 1.18534642872616e-012 7.03860823721755e-012 -1.0
  outer loop
    vertex 193.776985876372 681.39681841633 148.211830748264
    vertex 190.30173908328 682.140014401853 148.211830748265
    vertex 192.702298691054 682.797378024104 148.211830748273
  endloop
endfacet
facet normal 1.18534642872616e-012 7.03860823721755e-012 -1.0
  outer loop
    vertex 192.702298691054 682.797378024104 148.211830748273
    vertex 190.30173908328 682.140014401853 148.211830748265
    vertex 189.153114785581 682.615790164032 148.211830748267
  endloop
endfacet
facet normal 1.18534642872616e-012 7.03860823721755e-012 -1.0
  outer loop
    vertex 192.702298691054 682.797378024104 148.211830748273
    vertex 189.153114785581 682.615790164032 148.211830748267
    vertex 187.92048908328 682.77806841633 148.211830748267
  endloop
endfacet
facet normal 1.18534642872616e-012 7.03860823721755e-012 -1.0
  outer loop
    vertex 202.92048908328 671.25306841633 148.211830748204
    vertex 202.92048908328 657.72806841633 148.211830748108
    vertex 194.68298908328 671.25306841633 148.211830748194
  endloop
endfacet
facet normal -4.50403199083184e-013 0.923879532508593 0.382683432371592
  outer loop
    vertex 194.68298908327 671.02264181655 156.724594540698
    vertex 202.920489083268 670.347065209351 158.355580748197
    vertex 202.92048908327 671.02264181655 156.724594540708
  endloop
endfacet
facet normal -4.50403199083184e-013 0.923879532508593 0.382683432371592
  outer loop
    vertex 202.920489083268 670.347065209351 158.355580748197
    vertex 194.68298908327 671.02264181655 156.724594540698
    vertex 194.682989083268 670.347065209351 158.355580748187
  endloop
endfacet
facet normal -1.54051441323645e-013 -0.99144486137473 0.130526192213067
  outer loop
    vertex 172.920489083272 669.253068416282 154.974330748154
    vertex 202.920489083273 669.090790163993 153.741705045887
    vertex 202.920489083272 669.253068416282 154.974330748189
  endloop
endfacet
facet normal -1.54051441323645e-013 -0.99144486137473 0.130526192213067
  outer loop
    vertex 202.920489083273 669.090790163993 153.741705045887
    vertex 172.920489083272 669.253068416282 154.974330748154
    vertex 172.920489083273 669.090790163993 153.741705045852
  endloop
endfacet
facet normal -1.17511777209043e-012 -0.130526192227023 0.991444861372893
  outer loop
    vertex 202.920489083277 665.723194118616 150.374109000463
    vertex 172.920489083278 664.490568416316 150.21183074812
    vertex 202.920489083277 664.490568416316 150.211830748156
  endloop
endfacet
facet normal -1.17511777209043e-012 -0.130526192227023 0.991444861372893
  outer loop
    vertex 172.920489083278 664.490568416316 150.21183074812
    vertex 202.920489083277 665.723194118616 150.374109000463
    vertex 172.920489083277 665.723194118616 150.374109000427
  endloop
endfacet
facet normal -1.17529347932627e-012 0.130526192213062 0.991444861374731
  outer loop
    vertex 202.920489083277 664.490568416316 150.211830748156
    vertex 172.920489083277 663.257942714014 150.37410900041
    vertex 202.920489083277 663.257942714014 150.374109000445
  endloop
endfacet
facet normal -1.17529347932627e-012 0.130526192213062 0.991444861374731
  outer loop
    vertex 172.920489083277 663.257942714014 150.37410900041
    vertex 202.920489083277 664.490568416316 150.211830748156
    vertex 172.920489083278 664.490568416316 150.21183074812
  endloop
endfacet
facet normal -1.54884436378276e-013 -0.99144486137473 0.130526192213072
  outer loop
    vertex 172.92048908327 657.95849501599 156.72459454058
    vertex 202.920489083272 657.728068416282 154.974330748108
    vertex 202.92048908327 657.95849501599 156.724594540616
  endloop
endfacet
facet normal -1.54884436378276e-013 -0.99144486137473 0.130526192213072
  outer loop
    vertex 202.920489083272 657.728068416282 154.974330748108
    vertex 172.92048908327 657.95849501599 156.72459454058
    vertex 172.920489083272 657.728068416282 154.974330748073
  endloop
endfacet
facet normal -1.5295250475444e-013 0.991444861372896 0.130526192226994
  outer loop
    vertex 194.682989083272 671.253068416282 154.974330748194
    vertex 202.92048908327 671.02264181655 156.724594540708
    vertex 202.920489083272 671.253068416282 154.974330748204
  endloop
endfacet
facet normal -1.5295250475444e-013 0.991444861372896 0.130526192226994
  outer loop
    vertex 202.92048908327 671.02264181655 156.724594540708
    vertex 194.682989083272 671.253068416282 154.974330748194
    vertex 194.68298908327 671.02264181655 156.724594540698
  endloop
endfacet
facet normal -1.17511751899214e-012 -0.130526192227029 0.991444861372892
  outer loop
    vertex 202.920489083264 664.490568416235 161.736830748156
    vertex 172.920489083264 662.740304623731 161.506404148388
    vertex 202.920489083264 662.740304623731 161.506404148423
  endloop
endfacet
facet normal -1.17511751899214e-012 -0.130526192227029 0.991444861372892
  outer loop
    vertex 172.920489083264 662.740304623731 161.506404148388
    vertex 202.920489083264 664.490568416235 161.736830748156
    vertex 172.920489083264 664.490568416235 161.73683074812
  endloop
endfacet
facet normal -1.17511751899214e-012 -0.130526192227029 0.991444861372892
  outer loop
    vertex 172.920489083264 664.490568416235 161.73683074812
    vertex 202.920489083264 664.490568416235 161.736830748156
    vertex 194.682989083264 664.490568416235 161.736830748146
  endloop
endfacet
facet normal -1.17511751899214e-012 -0.130526192227029 0.991444861372892
  outer loop
    vertex 172.920489083264 664.490568416235 161.73683074812
    vertex 194.682989083264 664.490568416235 161.736830748146
    vertex 181.157989083264 664.490568416235 161.73683074813
  endloop
endfacet
facet normal -1.20659084658397e-014 1.0 7.03453839314903e-012
  outer loop
    vertex 202.92048908328 671.25306841633 148.211830748204
    vertex 194.682989083272 671.253068416282 154.974330748194
    vertex 202.920489083272 671.253068416282 154.974330748204
  endloop
endfacet
facet normal -1.20659084658397e-014 1.0 7.03453839314903e-012
  outer loop
    vertex 194.682989083272 671.253068416282 154.974330748194
    vertex 202.92048908328 671.25306841633 148.211830748204
    vertex 194.68298908328 671.25306841633 148.211830748194
  endloop
endfacet
facet normal -1.17502956202502e-012 0.130526192213064 0.99144486137473
  outer loop
    vertex 202.920489083264 666.240832208742 161.506404148448
    vertex 194.682989083264 664.490568416235 161.736830748146
    vertex 202.920489083264 664.490568416235 161.736830748156
  endloop
endfacet
facet normal -1.17502956202502e-012 0.130526192213064 0.99144486137473
  outer loop
    vertex 194.682989083264 664.490568416235 161.736830748146
    vertex 202.920489083264 666.240832208742 161.506404148448
    vertex 194.682989083264 666.240832208742 161.506404148438
  endloop
endfacet
facet normal -1.09517919184922e-012 -0.382683432371594 0.923879532508593
  outer loop
    vertex 202.920489083264 662.740304623731 161.506404148423
    vertex 172.920489083265 661.109318416241 160.830827541189
    vertex 202.920489083265 661.109318416241 160.830827541224
  endloop
endfacet
facet normal -1.09517919184922e-012 -0.382683432371594 0.923879532508593
  outer loop
    vertex 172.920489083265 661.109318416241 160.830827541189
    vertex 202.920489083264 662.740304623731 161.506404148423
    vertex 172.920489083264 662.740304623731 161.506404148388
  endloop
endfacet
facet normal -9.40499760898093e-013 -0.608761429014305 0.79335334028695
  outer loop
    vertex 202.920489083265 661.109318416241 160.830827541224
    vertex 172.920489083266 659.708758808475 159.756140355861
    vertex 202.920489083266 659.708758808475 159.756140355896
  endloop
endfacet
facet normal -9.40499760898093e-013 -0.608761429014305 0.79335334028695
  outer loop
    vertex 172.920489083266 659.708758808475 159.756140355861
    vertex 202.920489083265 661.109318416241 160.830827541224
    vertex 172.920489083265 661.109318416241 160.830827541189
  endloop
endfacet
facet normal 4.54234277987226e-013 -0.923879532508598 -0.38268343237158
  outer loop
    vertex 202.920489083269 668.615014401789 157.355580748185
    vertex 172.92048908327 669.090790163976 156.206956450453
    vertex 202.92048908327 669.090790163976 156.206956450489
  endloop
endfacet
facet normal 4.54234277987226e-013 -0.923879532508598 -0.38268343237158
  outer loop
    vertex 172.92048908327 669.090790163976 156.206956450453
    vertex 202.920489083269 668.615014401789 157.355580748185
    vertex 172.920489083269 668.615014401789 157.35558074815
  endloop
endfacet
facet normal -9.38304284001211e-013 0.608761429003134 0.793353340295522
  outer loop
    vertex 202.920489083266 669.272378024023 159.756140355964
    vertex 194.682989083265 667.871818416241 160.830827541262
    vertex 202.920489083265 667.871818416241 160.830827541272
  endloop
endfacet
facet normal -9.38304284001211e-013 0.608761429003134 0.793353340295522
  outer loop
    vertex 194.682989083265 667.871818416241 160.830827541262
    vertex 202.920489083266 669.272378024023 159.756140355964
    vertex 194.682989083266 669.272378024023 159.756140355954
  endloop
endfacet
facet normal -4.52990601785994e-013 -0.923879532513987 0.38268343235857
  outer loop
    vertex 172.920489083273 669.090790163993 153.741705045852
    vertex 202.920489083275 668.615014401823 152.593080748185
    vertex 202.920489083273 669.090790163993 153.741705045887
  endloop
endfacet
facet normal -4.52990601785994e-013 -0.923879532513987 0.38268343235857
  outer loop
    vertex 202.920489083275 668.615014401823 152.593080748185
    vertex 172.920489083273 669.090790163993 153.741705045852
    vertex 172.920489083275 668.615014401823 152.59308074815
  endloop
endfacet
facet normal -1.09485973066056e-012 -0.382683432371625 0.92387953250858
  outer loop
    vertex 202.920489083277 666.871818416312 150.84988476265
    vertex 172.920489083277 665.723194118616 150.374109000427
    vertex 202.920489083277 665.723194118616 150.374109000463
  endloop
endfacet
facet normal -1.09485973066056e-012 -0.382683432371625 0.92387953250858
  outer loop
    vertex 172.920489083277 665.723194118616 150.374109000427
    vertex 202.920489083277 666.871818416312 150.84988476265
    vertex 172.920489083277 666.871818416312 150.849884762614
  endloop
endfacet
facet normal 7.2212717030446e-013 -0.793353340286922 -0.608761429014342
  outer loop
    vertex 172.920489083268 667.85816446166 158.341926793545
    vertex 202.920489083269 668.615014401789 157.355580748185
    vertex 202.920489083268 667.85816446166 158.34192679358
  endloop
endfacet
facet normal 7.2212717030446e-013 -0.793353340286922 -0.608761429014342
  outer loop
    vertex 202.920489083269 668.615014401789 157.355580748185
    vertex 172.920489083268 667.85816446166 158.341926793545
    vertex 172.920489083269 668.615014401789 157.35558074815
  endloop
endfacet
facet normal 1.5538607028287e-013 -0.991444861372892 -0.130526192227028
  outer loop
    vertex 202.92048908327 669.090790163976 156.206956450489
    vertex 172.920489083272 669.253068416282 154.974330748154
    vertex 202.920489083272 669.253068416282 154.974330748189
  endloop
endfacet
facet normal 1.5538607028287e-013 -0.991444861372892 -0.130526192227028
  outer loop
    vertex 172.920489083272 669.253068416282 154.974330748154
    vertex 202.92048908327 669.090790163976 156.206956450489
    vertex 172.92048908327 669.090790163976 156.206956450453
  endloop
endfacet
facet normal -7.18863887017187e-013 0.793353340286951 0.608761429014303
  outer loop
    vertex 194.682989083268 670.347065209351 158.355580748187
    vertex 202.920489083266 669.272378024023 159.756140355964
    vertex 202.920489083268 670.347065209351 158.355580748197
  endloop
endfacet
facet normal -7.18863887017187e-013 0.793353340286951 0.608761429014303
  outer loop
    vertex 202.920489083266 669.272378024023 159.756140355964
    vertex 194.682989083268 670.347065209351 158.355580748187
    vertex 194.682989083266 669.272378024023 159.756140355954
  endloop
endfacet
facet normal -9.39988807927431e-013 -0.608761429014324 0.793353340286936
  outer loop
    vertex 202.920489083276 667.858164461707 151.606734702779
    vertex 172.920489083277 666.871818416312 150.849884762614
    vertex 202.920489083277 666.871818416312 150.84988476265
  endloop
endfacet
facet normal -9.39988807927431e-013 -0.608761429014324 0.793353340286936
  outer loop
    vertex 172.920489083277 666.871818416312 150.849884762614
    vertex 202.920489083276 667.858164461707 151.606734702779
    vertex 172.920489083276 667.858164461707 151.606734702743
  endloop
endfacet
facet normal -1.09379965002101e-012 0.382683432358584 0.923879532513982
  outer loop
    vertex 202.920489083265 667.871818416241 160.830827541272
    vertex 194.682989083264 666.240832208742 161.506404148438
    vertex 202.920489083264 666.240832208742 161.506404148448
  endloop
endfacet
facet normal -1.09379965002101e-012 0.382683432358584 0.923879532513982
  outer loop
    vertex 194.682989083264 666.240832208742 161.506404148438
    vertex 202.920489083265 667.871818416241 160.830827541272
    vertex 194.682989083265 667.871818416241 160.830827541262
  endloop
endfacet
facet normal -4.53767957842359e-013 -0.923879532513982 0.382683432358584
  outer loop
    vertex 202.920489083268 658.634071623166 158.355580748115
    vertex 172.92048908327 657.95849501599 156.72459454058
    vertex 202.92048908327 657.95849501599 156.724594540616
  endloop
endfacet
facet normal -4.53767957842359e-013 -0.923879532513982 0.382683432358584
  outer loop
    vertex 172.92048908327 657.95849501599 156.72459454058
    vertex 202.920489083268 658.634071623166 158.355580748115
    vertex 172.920489083268 658.634071623166 158.355580748079
  endloop
endfacet
facet normal -7.2212717030446e-013 0.793353340286922 0.608761429014342
  outer loop
    vertex 172.920489083276 661.122972370905 151.606734702696
    vertex 202.920489083275 660.366122430776 152.593080748127
    vertex 202.920489083276 661.122972370905 151.606734702731
  endloop
endfacet
facet normal -7.2212717030446e-013 0.793353340286922 0.608761429014342
  outer loop
    vertex 202.920489083275 660.366122430776 152.593080748127
    vertex 172.920489083276 661.122972370905 151.606734702696
    vertex 172.920489083275 660.366122430776 152.593080748091
  endloop
endfacet
facet normal 7.21059201339062e-013 0.793353340295495 -0.60876142900317
  outer loop
    vertex 172.920489083269 660.366122430742 157.355580748091
    vertex 202.920489083268 661.122972370858 158.341926793533
    vertex 202.920489083269 660.366122430742 157.355580748127
  endloop
endfacet
facet normal 7.21059201339062e-013 0.793353340295495 -0.60876142900317
  outer loop
    vertex 202.920489083268 661.122972370858 158.341926793533
    vertex 172.920489083269 660.366122430742 157.355580748091
    vertex 172.920489083268 661.122972370858 158.341926793498
  endloop
endfacet
facet normal 4.52990601785994e-013 0.923879532513987 -0.38268343235857
  outer loop
    vertex 172.92048908327 659.890346668572 156.206956450389
    vertex 202.920489083269 660.366122430742 157.355580748127
    vertex 202.92048908327 659.890346668572 156.206956450424
  endloop
endfacet
facet normal 4.52990601785994e-013 0.923879532513987 -0.38268343235857
  outer loop
    vertex 202.920489083269 660.366122430742 157.355580748127
    vertex 172.92048908327 659.890346668572 156.206956450389
    vertex 172.920489083269 660.366122430742 157.355580748091
  endloop
endfacet
facet normal -4.54234277987226e-013 0.923879532508598 0.38268343237158
  outer loop
    vertex 172.920489083275 660.366122430776 152.593080748091
    vertex 202.920489083273 659.890346668589 153.741705045823
    vertex 202.920489083275 660.366122430776 152.593080748127
  endloop
endfacet
facet normal -4.54234277987226e-013 0.923879532508598 0.38268343237158
  outer loop
    vertex 202.920489083273 659.890346668589 153.741705045823
    vertex 172.920489083275 660.366122430776 152.593080748091
    vertex 172.920489083273 659.890346668589 153.741705045787
  endloop
endfacet
facet normal 1.09485973066056e-012 0.382683432371625 -0.92387953250858
  outer loop
    vertex 172.920489083266 663.257942713949 159.574552495813
    vertex 202.920489083267 662.109318416253 159.098776733662
    vertex 172.920489083267 662.109318416253 159.098776733627
  endloop
endfacet
facet normal 1.09485973066056e-012 0.382683432371625 -0.92387953250858
  outer loop
    vertex 202.920489083267 662.109318416253 159.098776733662
    vertex 172.920489083266 663.257942713949 159.574552495813
    vertex 202.920489083266 663.257942713949 159.574552495849
  endloop
endfacet
facet normal 9.39988807927431e-013 0.608761429014324 -0.793353340286936
  outer loop
    vertex 172.920489083267 662.109318416253 159.098776733627
    vertex 202.920489083268 661.122972370858 158.341926793533
    vertex 172.920489083268 661.122972370858 158.341926793498
  endloop
endfacet
facet normal 9.39988807927431e-013 0.608761429014324 -0.793353340286936
  outer loop
    vertex 202.920489083268 661.122972370858 158.341926793533
    vertex 172.920489083267 662.109318416253 159.098776733627
    vertex 202.920489083267 662.109318416253 159.098776733662
  endloop
endfacet
facet normal -1.5538607028287e-013 0.991444861372892 0.130526192227028
  outer loop
    vertex 172.920489083273 659.890346668589 153.741705045787
    vertex 202.920489083272 659.728068416282 154.974330748122
    vertex 202.920489083273 659.890346668589 153.741705045823
  endloop
endfacet
facet normal -1.5538607028287e-013 0.991444861372892 0.130526192227028
  outer loop
    vertex 202.920489083272 659.728068416282 154.974330748122
    vertex 172.920489083273 659.890346668589 153.741705045787
    vertex 172.920489083272 659.728068416282 154.974330748087
  endloop
endfacet
facet normal 1.54051441323645e-013 0.99144486137473 -0.130526192213067
  outer loop
    vertex 202.920489083272 659.728068416282 154.974330748122
    vertex 172.92048908327 659.890346668572 156.206956450389
    vertex 202.92048908327 659.890346668572 156.206956450424
  endloop
endfacet
facet normal 1.54051441323645e-013 0.99144486137473 -0.130526192213067
  outer loop
    vertex 172.92048908327 659.890346668572 156.206956450389
    vertex 202.920489083272 659.728068416282 154.974330748122
    vertex 172.920489083272 659.728068416282 154.974330748087
  endloop
endfacet
facet normal -1.18534642872616e-012 -7.04094352219481e-012 1.0
  outer loop
    vertex 194.682989083264 671.253068416235 161.736830748194
    vertex 181.157989083264 664.490568416235 161.73683074813
    vertex 194.682989083264 664.490568416235 161.736830748146
  endloop
endfacet
facet normal -1.18534642872616e-012 -7.04094352219481e-012 1.0
  outer loop
    vertex 181.157989083264 664.490568416235 161.73683074813
    vertex 194.682989083264 671.253068416235 161.736830748194
    vertex 181.157989083264 671.253068416235 161.736830748178
  endloop
endfacet
facet normal -1.66073693868585e-013 0.991444861372891 0.130526192227033
  outer loop
    vertex 172.920489083272 671.253068416282 154.974330748168
    vertex 181.15798908327 671.02264181655 156.724594540682
    vertex 181.157989083272 671.253068416283 154.974330748178
  endloop
endfacet
facet normal -1.66073693868585e-013 0.991444861372891 0.130526192227033
  outer loop
    vertex 181.15798908327 671.02264181655 156.724594540682
    vertex 172.920489083272 671.253068416282 154.974330748168
    vertex 172.92048908327 671.02264181655 156.724594540672
  endloop
endfacet
facet normal -9.47314713169116e-013 0.608761429003134 0.793353340295522
  outer loop
    vertex 181.157989083265 667.871818416241 160.830827541246
    vertex 172.920489083266 669.272378024023 159.756140355928
    vertex 172.920489083265 667.871818416241 160.830827541236
  endloop
endfacet
facet normal -9.47314713169116e-013 0.608761429003134 0.793353340295522
  outer loop
    vertex 172.920489083266 669.272378024023 159.756140355928
    vertex 181.157989083265 667.871818416241 160.830827541246
    vertex 181.157989083266 669.272378024023 159.756140355938
  endloop
endfacet
facet normal -7.30606506928989e-013 0.793353340286951 0.608761429014303
  outer loop
    vertex 172.920489083268 670.347065209351 158.355580748162
    vertex 181.157989083266 669.272378024023 159.756140355938
    vertex 181.157989083268 670.347065209351 158.355580748171
  endloop
endfacet
facet normal -7.30606506928989e-013 0.793353340286951 0.608761429014303
  outer loop
    vertex 181.157989083266 669.272378024023 159.756140355938
    vertex 172.920489083268 670.347065209351 158.355580748162
    vertex 172.920489083266 669.272378024023 159.756140355928
  endloop
endfacet
facet normal -1.17597972244004e-012 0.130526192213064 0.99144486137473
  outer loop
    vertex 181.157989083264 666.240832208742 161.506404148422
    vertex 172.920489083264 664.490568416235 161.73683074812
    vertex 181.157989083264 664.490568416235 161.73683074813
  endloop
endfacet
facet normal -1.17597972244004e-012 0.130526192213064 0.99144486137473
  outer loop
    vertex 172.920489083264 664.490568416235 161.73683074812
    vertex 181.157989083264 666.240832208742 161.506404148422
    vertex 172.920489083264 666.240832208742 161.506404148413
  endloop
endfacet
facet normal -1.09946829636803e-012 0.382683432358584 0.923879532513982
  outer loop
    vertex 181.157989083264 666.240832208742 161.506404148422
    vertex 172.920489083265 667.871818416241 160.830827541236
    vertex 172.920489083264 666.240832208742 161.506404148413
  endloop
endfacet
facet normal -1.09946829636803e-012 0.382683432358584 0.923879532513982
  outer loop
    vertex 172.920489083265 667.871818416241 160.830827541236
    vertex 181.157989083264 666.240832208742 161.506404148422
    vertex 181.157989083265 667.871818416241 160.830827541246
  endloop
endfacet
facet normal -4.64192559063462e-013 0.923879532508593 0.382683432371592
  outer loop
    vertex 172.92048908327 671.02264181655 156.724594540672
    vertex 181.157989083268 670.347065209351 158.355580748171
    vertex 181.15798908327 671.02264181655 156.724594540682
  endloop
endfacet
facet normal -4.64192559063462e-013 0.923879532508593 0.382683432371592
  outer loop
    vertex 181.157989083268 670.347065209351 158.355580748171
    vertex 172.92048908327 671.02264181655 156.724594540672
    vertex 172.920489083268 670.347065209351 158.355580748162
  endloop
endfacet
endsolid MIDIViolina
