solid Default
  facet normal 2.449294e-16 -1.000000e+00 -6.123234e-17
    outer loop
      vertex 1.250000e+01 5.000000e-01 8.500000e+00
      vertex -1.210004e+01 5.000000e-01 5.000000e-01
      vertex 1.209998e+01 5.000000e-01 5.000000e-01
    endloop
  endfacet
  facet normal 2.449294e-16 -1.000000e+00 -6.123234e-17
    outer loop
      vertex -1.210004e+01 5.000000e-01 5.000000e-01
      vertex 1.250000e+01 5.000000e-01 8.500000e+00
      vertex -1.250000e+01 5.000000e-01 8.500000e+00
    endloop
  endfacet
  facet normal -2.449294e-16 1.000000e+00 6.123234e-17
    outer loop
      vertex -2.050000e+01 4.500000e+00 5.000000e-01
      vertex -1.650000e+01 4.500000e+00 2.750000e+00
      vertex 2.050000e+01 4.500000e+00 5.000000e-01
    endloop
  endfacet
  facet normal -2.449294e-16 1.000000e+00 6.123234e-17
    outer loop
      vertex -1.650000e+01 4.500000e+00 2.750000e+00
      vertex -2.050000e+01 4.500000e+00 5.000000e-01
      vertex -1.695294e+01 4.500000e+00 2.809628e+00
    endloop
  endfacet
  facet normal -2.449294e-16 1.000000e+00 6.123234e-17
    outer loop
      vertex -1.695294e+01 4.500000e+00 2.809628e+00
      vertex -2.050000e+01 4.500000e+00 5.000000e-01
      vertex -1.737500e+01 4.500000e+00 2.984455e+00
    endloop
  endfacet
  facet normal -2.449294e-16 1.000000e+00 6.123234e-17
    outer loop
      vertex -1.737500e+01 4.500000e+00 2.984455e+00
      vertex -2.050000e+01 4.500000e+00 5.000000e-01
      vertex -1.773743e+01 4.500000e+00 3.262562e+00
    endloop
  endfacet
  facet normal -2.449294e-16 1.000000e+00 6.123234e-17
    outer loop
      vertex -1.773743e+01 4.500000e+00 3.262562e+00
      vertex -2.050000e+01 4.500000e+00 5.000000e-01
      vertex -1.801556e+01 4.500000e+00 3.625000e+00
    endloop
  endfacet
  facet normal -2.449294e-16 1.000000e+00 6.123234e-17
    outer loop
      vertex -1.801556e+01 4.500000e+00 3.625000e+00
      vertex -2.050000e+01 4.500000e+00 5.000000e-01
      vertex -2.050000e+01 4.500000e+00 8.500000e+00
    endloop
  endfacet
  facet normal -2.449294e-16 1.000000e+00 6.123234e-17
    outer loop
      vertex -1.801556e+01 4.500000e+00 3.625000e+00
      vertex -2.050000e+01 4.500000e+00 8.500000e+00
      vertex -1.819037e+01 4.500000e+00 4.047066e+00
    endloop
  endfacet
  facet normal -2.449294e-16 1.000000e+00 6.123234e-17
    outer loop
      vertex -1.819037e+01 4.500000e+00 4.047066e+00
      vertex -2.050000e+01 4.500000e+00 8.500000e+00
      vertex -1.825000e+01 4.500000e+00 4.500000e+00
    endloop
  endfacet
  facet normal -2.449294e-16 1.000000e+00 6.123234e-17
    outer loop
      vertex -1.825000e+01 4.500000e+00 4.500000e+00
      vertex -2.050000e+01 4.500000e+00 8.500000e+00
      vertex -1.819037e+01 4.500000e+00 4.952934e+00
    endloop
  endfacet
  facet normal -2.449294e-16 1.000000e+00 6.123234e-17
    outer loop
      vertex -1.819037e+01 4.500000e+00 4.952934e+00
      vertex -2.050000e+01 4.500000e+00 8.500000e+00
      vertex -1.801556e+01 4.500000e+00 5.375000e+00
    endloop
  endfacet
  facet normal -2.449294e-16 1.000000e+00 6.123234e-17
    outer loop
      vertex -1.801556e+01 4.500000e+00 5.375000e+00
      vertex -2.050000e+01 4.500000e+00 8.500000e+00
      vertex -1.773743e+01 4.500000e+00 5.737438e+00
    endloop
  endfacet
  facet normal -2.449294e-16 1.000000e+00 6.123234e-17
    outer loop
      vertex -1.773743e+01 4.500000e+00 5.737438e+00
      vertex -2.050000e+01 4.500000e+00 8.500000e+00
      vertex -1.737500e+01 4.500000e+00 6.015545e+00
    endloop
  endfacet
  facet normal -2.449294e-16 1.000000e+00 6.123234e-17
    outer loop
      vertex -1.737500e+01 4.500000e+00 6.015545e+00
      vertex -2.050000e+01 4.500000e+00 8.500000e+00
      vertex -1.695294e+01 4.500000e+00 6.190369e+00
    endloop
  endfacet
  facet normal -2.449294e-16 1.000000e+00 6.123234e-17
    outer loop
      vertex -1.695294e+01 4.500000e+00 6.190369e+00
      vertex -2.050000e+01 4.500000e+00 8.500000e+00
      vertex -1.650000e+01 4.500000e+00 6.250000e+00
    endloop
  endfacet
  facet normal -2.449294e-16 1.000000e+00 6.123234e-17
    outer loop
      vertex -1.650000e+01 4.500000e+00 6.250000e+00
      vertex -2.050000e+01 4.500000e+00 8.500000e+00
      vertex -1.500000e+01 4.500000e+00 6.250000e+00
    endloop
  endfacet
  facet normal -2.449294e-16 1.000000e+00 6.123234e-17
    outer loop
      vertex -1.500000e+01 4.500000e+00 6.250000e+00
      vertex -2.050000e+01 4.500000e+00 8.500000e+00
      vertex 1.500000e+01 4.500000e+00 6.250000e+00
    endloop
  endfacet
  facet normal -2.449294e-16 1.000000e+00 6.123234e-17
    outer loop
      vertex 1.500000e+01 4.500000e+00 6.250000e+00
      vertex -2.050000e+01 4.500000e+00 8.500000e+00
      vertex 1.650000e+01 4.500000e+00 6.250000e+00
    endloop
  endfacet
  facet normal -2.449294e-16 1.000000e+00 6.123234e-17
    outer loop
      vertex 1.650000e+01 4.500000e+00 6.250000e+00
      vertex -2.050000e+01 4.500000e+00 8.500000e+00
      vertex 2.050000e+01 4.500000e+00 8.500000e+00
    endloop
  endfacet
  facet normal -2.449294e-16 1.000000e+00 6.123234e-17
    outer loop
      vertex 2.050000e+01 4.500000e+00 5.000000e-01
      vertex 1.801550e+01 4.500000e+00 3.625000e+00
      vertex 2.050000e+01 4.500000e+00 8.500000e+00
    endloop
  endfacet
  facet normal -2.449294e-16 1.000000e+00 6.123234e-17
    outer loop
      vertex 1.801550e+01 4.500000e+00 3.625000e+00
      vertex 2.050000e+01 4.500000e+00 5.000000e-01
      vertex 1.773743e+01 4.500000e+00 3.262562e+00
    endloop
  endfacet
  facet normal -2.449294e-16 1.000000e+00 6.123234e-17
    outer loop
      vertex 1.773743e+01 4.500000e+00 3.262562e+00
      vertex 2.050000e+01 4.500000e+00 5.000000e-01
      vertex 1.737500e+01 4.500000e+00 2.984455e+00
    endloop
  endfacet
  facet normal -2.449294e-16 1.000000e+00 6.123234e-17
    outer loop
      vertex 1.737500e+01 4.500000e+00 2.984455e+00
      vertex 2.050000e+01 4.500000e+00 5.000000e-01
      vertex 1.695294e+01 4.500000e+00 2.809628e+00
    endloop
  endfacet
  facet normal -2.449294e-16 1.000000e+00 6.123234e-17
    outer loop
      vertex 1.695294e+01 4.500000e+00 2.809628e+00
      vertex 2.050000e+01 4.500000e+00 5.000000e-01
      vertex 1.650000e+01 4.500000e+00 2.750000e+00
    endloop
  endfacet
  facet normal -2.449294e-16 1.000000e+00 6.123234e-17
    outer loop
      vertex 1.650000e+01 4.500000e+00 2.750000e+00
      vertex 2.050000e+01 4.500000e+00 5.000000e-01
      vertex -1.650000e+01 4.500000e+00 2.750000e+00
    endloop
  endfacet
  facet normal -2.449294e-16 1.000000e+00 6.123234e-17
    outer loop
      vertex 1.650000e+01 4.500000e+00 2.750000e+00
      vertex -1.650000e+01 4.500000e+00 2.750000e+00
      vertex -1.500000e+01 4.500000e+00 2.750000e+00
    endloop
  endfacet
  facet normal -2.449294e-16 1.000000e+00 6.123234e-17
    outer loop
      vertex 1.650000e+01 4.500000e+00 2.750000e+00
      vertex -1.500000e+01 4.500000e+00 2.750000e+00
      vertex 1.500000e+01 4.500000e+00 2.750000e+00
    endloop
  endfacet
  facet normal -2.449294e-16 1.000000e+00 6.123234e-17
    outer loop
      vertex 2.050000e+01 4.500000e+00 8.500000e+00
      vertex 1.801550e+01 4.500000e+00 3.625000e+00
      vertex 1.819037e+01 4.500000e+00 4.047066e+00
    endloop
  endfacet
  facet normal -2.449294e-16 1.000000e+00 6.123234e-17
    outer loop
      vertex 2.050000e+01 4.500000e+00 8.500000e+00
      vertex 1.819037e+01 4.500000e+00 4.047066e+00
      vertex 1.825000e+01 4.500000e+00 4.500000e+00
    endloop
  endfacet
  facet normal -2.449294e-16 1.000000e+00 6.123234e-17
    outer loop
      vertex 2.050000e+01 4.500000e+00 8.500000e+00
      vertex 1.825000e+01 4.500000e+00 4.500000e+00
      vertex 1.819037e+01 4.500000e+00 4.952934e+00
    endloop
  endfacet
  facet normal -2.449294e-16 1.000000e+00 6.123234e-17
    outer loop
      vertex 2.050000e+01 4.500000e+00 8.500000e+00
      vertex 1.819037e+01 4.500000e+00 4.952934e+00
      vertex 1.801550e+01 4.500000e+00 5.375000e+00
    endloop
  endfacet
  facet normal -2.449294e-16 1.000000e+00 6.123234e-17
    outer loop
      vertex 2.050000e+01 4.500000e+00 8.500000e+00
      vertex 1.801550e+01 4.500000e+00 5.375000e+00
      vertex 1.773743e+01 4.500000e+00 5.737438e+00
    endloop
  endfacet
  facet normal -2.449294e-16 1.000000e+00 6.123234e-17
    outer loop
      vertex 2.050000e+01 4.500000e+00 8.500000e+00
      vertex 1.773743e+01 4.500000e+00 5.737438e+00
      vertex 1.737500e+01 4.500000e+00 6.015545e+00
    endloop
  endfacet
  facet normal -2.449294e-16 1.000000e+00 6.123234e-17
    outer loop
      vertex 2.050000e+01 4.500000e+00 8.500000e+00
      vertex 1.737500e+01 4.500000e+00 6.015545e+00
      vertex 1.695294e+01 4.500000e+00 6.190369e+00
    endloop
  endfacet
  facet normal -2.449294e-16 1.000000e+00 6.123234e-17
    outer loop
      vertex 2.050000e+01 4.500000e+00 8.500000e+00
      vertex 1.695294e+01 4.500000e+00 6.190369e+00
      vertex 1.650000e+01 4.500000e+00 6.250000e+00
    endloop
  endfacet
  facet normal -2.449294e-16 1.000000e+00 6.123234e-17
    outer loop
      vertex -1.454706e+01 4.500000e+00 2.809628e+00
      vertex 1.500000e+01 4.500000e+00 2.750000e+00
      vertex -1.500000e+01 4.500000e+00 2.750000e+00
    endloop
  endfacet
  facet normal -2.449294e-16 1.000000e+00 6.123234e-17
    outer loop
      vertex 1.500000e+01 4.500000e+00 2.750000e+00
      vertex -1.454706e+01 4.500000e+00 2.809628e+00
      vertex 1.454706e+01 4.500000e+00 2.809628e+00
    endloop
  endfacet
  facet normal -2.449294e-16 1.000000e+00 6.123234e-17
    outer loop
      vertex 1.454706e+01 4.500000e+00 2.809628e+00
      vertex -1.454706e+01 4.500000e+00 2.809628e+00
      vertex 1.412500e+01 4.500000e+00 2.984455e+00
    endloop
  endfacet
  facet normal -2.449294e-16 1.000000e+00 6.123234e-17
    outer loop
      vertex 1.412500e+01 4.500000e+00 2.984455e+00
      vertex -1.454706e+01 4.500000e+00 2.809628e+00
      vertex -1.412500e+01 4.500000e+00 2.984455e+00
    endloop
  endfacet
  facet normal -2.449294e-16 1.000000e+00 6.123234e-17
    outer loop
      vertex 1.412500e+01 4.500000e+00 2.984455e+00
      vertex -1.412500e+01 4.500000e+00 2.984455e+00
      vertex 1.376257e+01 4.500000e+00 3.262562e+00
    endloop
  endfacet
  facet normal -2.449294e-16 1.000000e+00 6.123234e-17
    outer loop
      vertex 1.376257e+01 4.500000e+00 3.262562e+00
      vertex -1.412500e+01 4.500000e+00 2.984455e+00
      vertex -1.376257e+01 4.500000e+00 3.262562e+00
    endloop
  endfacet
  facet normal -2.449294e-16 1.000000e+00 6.123234e-17
    outer loop
      vertex 1.376257e+01 4.500000e+00 3.262562e+00
      vertex -1.376257e+01 4.500000e+00 3.262562e+00
      vertex -1.348450e+01 4.500000e+00 3.625000e+00
    endloop
  endfacet
  facet normal -2.449294e-16 1.000000e+00 6.123234e-17
    outer loop
      vertex 1.376257e+01 4.500000e+00 3.262562e+00
      vertex -1.348450e+01 4.500000e+00 3.625000e+00
      vertex 1.348444e+01 4.500000e+00 3.625000e+00
    endloop
  endfacet
  facet normal -2.449294e-16 1.000000e+00 6.123234e-17
    outer loop
      vertex 1.348444e+01 4.500000e+00 3.625000e+00
      vertex -1.348450e+01 4.500000e+00 3.625000e+00
      vertex -1.330963e+01 4.500000e+00 4.047066e+00
    endloop
  endfacet
  facet normal -2.449294e-16 1.000000e+00 6.123234e-17
    outer loop
      vertex 1.348444e+01 4.500000e+00 3.625000e+00
      vertex -1.330963e+01 4.500000e+00 4.047066e+00
      vertex 1.330963e+01 4.500000e+00 4.047066e+00
    endloop
  endfacet
  facet normal -2.449294e-16 1.000000e+00 6.123234e-17
    outer loop
      vertex 1.330963e+01 4.500000e+00 4.047066e+00
      vertex -1.330963e+01 4.500000e+00 4.047066e+00
      vertex -1.325000e+01 4.500000e+00 4.500000e+00
    endloop
  endfacet
  facet normal -2.449294e-16 1.000000e+00 6.123234e-17
    outer loop
      vertex 1.330963e+01 4.500000e+00 4.047066e+00
      vertex -1.325000e+01 4.500000e+00 4.500000e+00
      vertex 1.325000e+01 4.500000e+00 4.500000e+00
    endloop
  endfacet
  facet normal -2.449294e-16 1.000000e+00 6.123234e-17
    outer loop
      vertex 1.325000e+01 4.500000e+00 4.500000e+00
      vertex -1.325000e+01 4.500000e+00 4.500000e+00
      vertex -1.330963e+01 4.500000e+00 4.952934e+00
    endloop
  endfacet
  facet normal -2.449294e-16 1.000000e+00 6.123234e-17
    outer loop
      vertex 1.325000e+01 4.500000e+00 4.500000e+00
      vertex -1.330963e+01 4.500000e+00 4.952934e+00
      vertex 1.330963e+01 4.500000e+00 4.952934e+00
    endloop
  endfacet
  facet normal -2.449294e-16 1.000000e+00 6.123234e-17
    outer loop
      vertex 1.330963e+01 4.500000e+00 4.952934e+00
      vertex -1.330963e+01 4.500000e+00 4.952934e+00
      vertex -1.348450e+01 4.500000e+00 5.375000e+00
    endloop
  endfacet
  facet normal -2.449294e-16 1.000000e+00 6.123234e-17
    outer loop
      vertex 1.330963e+01 4.500000e+00 4.952934e+00
      vertex -1.348450e+01 4.500000e+00 5.375000e+00
      vertex 1.348444e+01 4.500000e+00 5.375000e+00
    endloop
  endfacet
  facet normal -2.449294e-16 1.000000e+00 6.123234e-17
    outer loop
      vertex 1.348444e+01 4.500000e+00 5.375000e+00
      vertex -1.348450e+01 4.500000e+00 5.375000e+00
      vertex -1.376257e+01 4.500000e+00 5.737438e+00
    endloop
  endfacet
  facet normal -2.449294e-16 1.000000e+00 6.123234e-17
    outer loop
      vertex 1.348444e+01 4.500000e+00 5.375000e+00
      vertex -1.376257e+01 4.500000e+00 5.737438e+00
      vertex 1.376257e+01 4.500000e+00 5.737438e+00
    endloop
  endfacet
  facet normal -2.449294e-16 1.000000e+00 6.123234e-17
    outer loop
      vertex 1.376257e+01 4.500000e+00 5.737438e+00
      vertex -1.376257e+01 4.500000e+00 5.737438e+00
      vertex -1.412500e+01 4.500000e+00 6.015545e+00
    endloop
  endfacet
  facet normal -2.449294e-16 1.000000e+00 6.123234e-17
    outer loop
      vertex 1.376257e+01 4.500000e+00 5.737438e+00
      vertex -1.412500e+01 4.500000e+00 6.015545e+00
      vertex 1.412500e+01 4.500000e+00 6.015545e+00
    endloop
  endfacet
  facet normal -2.449294e-16 1.000000e+00 6.123234e-17
    outer loop
      vertex 1.412500e+01 4.500000e+00 6.015545e+00
      vertex -1.412500e+01 4.500000e+00 6.015545e+00
      vertex 1.454706e+01 4.500000e+00 6.190369e+00
    endloop
  endfacet
  facet normal -2.449294e-16 1.000000e+00 6.123234e-17
    outer loop
      vertex 1.454706e+01 4.500000e+00 6.190369e+00
      vertex -1.412500e+01 4.500000e+00 6.015545e+00
      vertex -1.454706e+01 4.500000e+00 6.190369e+00
    endloop
  endfacet
  facet normal -2.449294e-16 1.000000e+00 6.123234e-17
    outer loop
      vertex 1.454706e+01 4.500000e+00 6.190369e+00
      vertex -1.454706e+01 4.500000e+00 6.190369e+00
      vertex 1.500000e+01 4.500000e+00 6.250000e+00
    endloop
  endfacet
  facet normal -2.449294e-16 1.000000e+00 6.123234e-17
    outer loop
      vertex 1.500000e+01 4.500000e+00 6.250000e+00
      vertex -1.454706e+01 4.500000e+00 6.190369e+00
      vertex -1.500000e+01 4.500000e+00 6.250000e+00
    endloop
  endfacet
  facet normal -1.000000e+00 -2.449294e-16 -6.123234e-17
    outer loop
      vertex -2.050000e+01 4.500000e+00 8.500000e+00
      vertex -2.050000e+01 -4.500000e+00 5.000000e-01
      vertex -2.050000e+01 -4.500000e+00 8.500000e+00
    endloop
  endfacet
  facet normal -1.000000e+00 -2.449294e-16 -6.123234e-17
    outer loop
      vertex -2.050000e+01 -4.500000e+00 5.000000e-01
      vertex -2.050000e+01 4.500000e+00 8.500000e+00
      vertex -2.050000e+01 4.500000e+00 5.000000e-01
    endloop
  endfacet
  facet normal -6.123234e-17 -6.123234e-17 1.000000e+00
    outer loop
      vertex -1.500000e+01 -4.500000e+00 2.750000e+00
      vertex -1.650000e+01 4.500000e+00 2.750000e+00
      vertex -1.650000e+01 -4.500000e+00 2.750000e+00
    endloop
  endfacet
  facet normal -6.123234e-17 -6.123234e-17 1.000000e+00
    outer loop
      vertex -1.650000e+01 4.500000e+00 2.750000e+00
      vertex -1.500000e+01 -4.500000e+00 2.750000e+00
      vertex -1.500000e+01 4.500000e+00 2.750000e+00
    endloop
  endfacet
  facet normal 9.238795e-01 2.028526e-16 3.826834e-01
    outer loop
      vertex -1.801556e+01 4.500000e+00 3.625000e+00
      vertex -1.819037e+01 -4.500000e+00 4.047066e+00
      vertex -1.801556e+01 -4.500000e+00 3.625000e+00
    endloop
  endfacet
  facet normal 9.238795e-01 2.028526e-16 3.826834e-01
    outer loop
      vertex -1.819037e+01 -4.500000e+00 4.047066e+00
      vertex -1.801556e+01 4.500000e+00 3.625000e+00
      vertex -1.819037e+01 4.500000e+00 4.047066e+00
    endloop
  endfacet
  facet normal 3.826834e-01 3.715910e-17 9.238795e-01
    outer loop
      vertex -1.695294e+01 -4.500000e+00 2.809628e+00
      vertex -1.737500e+01 4.500000e+00 2.984455e+00
      vertex -1.737500e+01 -4.500000e+00 2.984455e+00
    endloop
  endfacet
  facet normal 3.826834e-01 3.715910e-17 9.238795e-01
    outer loop
      vertex -1.737500e+01 4.500000e+00 2.984455e+00
      vertex -1.695294e+01 -4.500000e+00 2.809628e+00
      vertex -1.695294e+01 4.500000e+00 2.809628e+00
    endloop
  endfacet
  facet normal 6.087614e-01 1.005247e-16 7.933533e-01
    outer loop
      vertex -1.737500e+01 -4.500000e+00 2.984455e+00
      vertex -1.773743e+01 4.500000e+00 3.262562e+00
      vertex -1.773743e+01 -4.500000e+00 3.262562e+00
    endloop
  endfacet
  facet normal 6.087614e-01 1.005247e-16 7.933533e-01
    outer loop
      vertex -1.773743e+01 4.500000e+00 3.262562e+00
      vertex -1.737500e+01 -4.500000e+00 2.984455e+00
      vertex -1.737500e+01 4.500000e+00 2.984455e+00
    endloop
  endfacet
  facet normal 9.914449e-01 2.508264e-16 -1.305262e-01
    outer loop
      vertex -1.825000e+01 4.500000e+00 4.500000e+00
      vertex -1.819037e+01 -4.500000e+00 4.952934e+00
      vertex -1.825000e+01 -4.500000e+00 4.500000e+00
    endloop
  endfacet
  facet normal 9.914449e-01 2.508264e-16 -1.305262e-01
    outer loop
      vertex -1.819037e+01 -4.500000e+00 4.952934e+00
      vertex -1.825000e+01 4.500000e+00 4.500000e+00
      vertex -1.819037e+01 4.500000e+00 4.952934e+00
    endloop
  endfacet
  facet normal 9.238795e-01 2.497178e-16 -3.826834e-01
    outer loop
      vertex -1.819037e+01 4.500000e+00 4.952934e+00
      vertex -1.801556e+01 -4.500000e+00 5.375000e+00
      vertex -1.819037e+01 -4.500000e+00 4.952934e+00
    endloop
  endfacet
  facet normal 9.238795e-01 2.497178e-16 -3.826834e-01
    outer loop
      vertex -1.801556e+01 -4.500000e+00 5.375000e+00
      vertex -1.819037e+01 4.500000e+00 4.952934e+00
      vertex -1.801556e+01 4.500000e+00 5.375000e+00
    endloop
  endfacet
  facet normal 7.933533e-01 1.570396e-16 6.087614e-01
    outer loop
      vertex -1.773743e+01 4.500000e+00 3.262562e+00
      vertex -1.801556e+01 -4.500000e+00 3.625000e+00
      vertex -1.773743e+01 -4.500000e+00 3.262562e+00
    endloop
  endfacet
  facet normal 7.933533e-01 1.570396e-16 6.087614e-01
    outer loop
      vertex -1.801556e+01 -4.500000e+00 3.625000e+00
      vertex -1.773743e+01 4.500000e+00 3.262562e+00
      vertex -1.801556e+01 4.500000e+00 3.625000e+00
    endloop
  endfacet
  facet normal 1.305262e-01 -2.873880e-17 9.914449e-01
    outer loop
      vertex -1.650000e+01 -4.500000e+00 2.750000e+00
      vertex -1.695294e+01 4.500000e+00 2.809628e+00
      vertex -1.695294e+01 -4.500000e+00 2.809628e+00
    endloop
  endfacet
  facet normal 1.305262e-01 -2.873880e-17 9.914449e-01
    outer loop
      vertex -1.695294e+01 4.500000e+00 2.809628e+00
      vertex -1.650000e+01 -4.500000e+00 2.750000e+00
      vertex -1.650000e+01 4.500000e+00 2.750000e+00
    endloop
  endfacet
  facet normal 9.914449e-01 2.348415e-16 1.305262e-01
    outer loop
      vertex -1.819037e+01 4.500000e+00 4.047066e+00
      vertex -1.825000e+01 -4.500000e+00 4.500000e+00
      vertex -1.819037e+01 -4.500000e+00 4.047066e+00
    endloop
  endfacet
  facet normal 9.914449e-01 2.348415e-16 1.305262e-01
    outer loop
      vertex -1.825000e+01 -4.500000e+00 4.500000e+00
      vertex -1.819037e+01 4.500000e+00 4.047066e+00
      vertex -1.825000e+01 4.500000e+00 4.500000e+00
    endloop
  endfacet
  facet normal -7.933533e-01 -2.315914e-16 6.087614e-01
    outer loop
      vertex -1.348450e+01 4.500000e+00 3.625000e+00
      vertex -1.376257e+01 -4.500000e+00 3.262562e+00
      vertex -1.348450e+01 -4.500000e+00 3.625000e+00
    endloop
  endfacet
  facet normal -7.933533e-01 -2.315914e-16 6.087614e-01
    outer loop
      vertex -1.376257e+01 -4.500000e+00 3.262562e+00
      vertex -1.348450e+01 4.500000e+00 3.625000e+00
      vertex -1.376257e+01 4.500000e+00 3.262562e+00
    endloop
  endfacet
  facet normal 6.087614e-01 1.976824e-16 -7.933533e-01
    outer loop
      vertex -1.737500e+01 4.500000e+00 6.015545e+00
      vertex -1.773743e+01 -4.500000e+00 5.737438e+00
      vertex -1.773743e+01 4.500000e+00 5.737438e+00
    endloop
  endfacet
  facet normal 6.087614e-01 1.976824e-16 -7.933533e-01
    outer loop
      vertex -1.773743e+01 -4.500000e+00 5.737438e+00
      vertex -1.737500e+01 4.500000e+00 6.015545e+00
      vertex -1.737500e+01 -4.500000e+00 6.015545e+00
    endloop
  endfacet
  facet normal 6.123234e-17 6.123234e-17 -1.000000e+00
    outer loop
      vertex -1.500000e+01 4.500000e+00 6.250000e+00
      vertex -1.650000e+01 -4.500000e+00 6.250000e+00
      vertex -1.650000e+01 4.500000e+00 6.250000e+00
    endloop
  endfacet
  facet normal 6.123234e-17 6.123234e-17 -1.000000e+00
    outer loop
      vertex -1.650000e+01 -4.500000e+00 6.250000e+00
      vertex -1.500000e+01 4.500000e+00 6.250000e+00
      vertex -1.500000e+01 -4.500000e+00 6.250000e+00
    endloop
  endfacet
  facet normal -1.305262e-01 2.873880e-17 -9.914449e-01
    outer loop
      vertex -1.454706e+01 4.500000e+00 6.190369e+00
      vertex -1.500000e+01 -4.500000e+00 6.250000e+00
      vertex -1.500000e+01 4.500000e+00 6.250000e+00
    endloop
  endfacet
  facet normal -1.305262e-01 2.873880e-17 -9.914449e-01
    outer loop
      vertex -1.500000e+01 -4.500000e+00 6.250000e+00
      vertex -1.454706e+01 4.500000e+00 6.190369e+00
      vertex -1.454706e+01 -4.500000e+00 6.190369e+00
    endloop
  endfacet
  facet normal -7.933533e-01 -1.570396e-16 -6.087614e-01
    outer loop
      vertex -1.376257e+01 4.500000e+00 5.737438e+00
      vertex -1.348450e+01 -4.500000e+00 5.375000e+00
      vertex -1.376257e+01 -4.500000e+00 5.737438e+00
    endloop
  endfacet
  facet normal -7.933533e-01 -1.570396e-16 -6.087614e-01
    outer loop
      vertex -1.348450e+01 -4.500000e+00 5.375000e+00
      vertex -1.376257e+01 4.500000e+00 5.737438e+00
      vertex -1.348450e+01 4.500000e+00 5.375000e+00
    endloop
  endfacet
  facet normal -9.914449e-01 -2.508264e-16 1.305262e-01
    outer loop
      vertex -1.325000e+01 4.500000e+00 4.500000e+00
      vertex -1.330963e+01 -4.500000e+00 4.047066e+00
      vertex -1.325000e+01 -4.500000e+00 4.500000e+00
    endloop
  endfacet
  facet normal -9.914449e-01 -2.508264e-16 1.305262e-01
    outer loop
      vertex -1.330963e+01 -4.500000e+00 4.047066e+00
      vertex -1.325000e+01 4.500000e+00 4.500000e+00
      vertex -1.330963e+01 4.500000e+00 4.047066e+00
    endloop
  endfacet
  facet normal -6.087614e-01 -1.976824e-16 7.933533e-01
    outer loop
      vertex -1.376257e+01 -4.500000e+00 3.262562e+00
      vertex -1.412500e+01 4.500000e+00 2.984455e+00
      vertex -1.412500e+01 -4.500000e+00 2.984455e+00
    endloop
  endfacet
  facet normal -6.087614e-01 -1.976824e-16 7.933533e-01
    outer loop
      vertex -1.412500e+01 4.500000e+00 2.984455e+00
      vertex -1.376257e+01 -4.500000e+00 3.262562e+00
      vertex -1.376257e+01 4.500000e+00 3.262562e+00
    endloop
  endfacet
  facet normal 3.826834e-01 1.503017e-16 -9.238795e-01
    outer loop
      vertex -1.695294e+01 4.500000e+00 6.190369e+00
      vertex -1.737500e+01 -4.500000e+00 6.015545e+00
      vertex -1.737500e+01 4.500000e+00 6.015545e+00
    endloop
  endfacet
  facet normal 3.826834e-01 1.503017e-16 -9.238795e-01
    outer loop
      vertex -1.737500e+01 -4.500000e+00 6.015545e+00
      vertex -1.695294e+01 4.500000e+00 6.190369e+00
      vertex -1.695294e+01 -4.500000e+00 6.190369e+00
    endloop
  endfacet
  facet normal -3.826834e-01 -3.715910e-17 -9.238795e-01
    outer loop
      vertex -1.412500e+01 4.500000e+00 6.015545e+00
      vertex -1.454706e+01 -4.500000e+00 6.190369e+00
      vertex -1.454706e+01 4.500000e+00 6.190369e+00
    endloop
  endfacet
  facet normal -3.826834e-01 -3.715910e-17 -9.238795e-01
    outer loop
      vertex -1.454706e+01 -4.500000e+00 6.190369e+00
      vertex -1.412500e+01 4.500000e+00 6.015545e+00
      vertex -1.412500e+01 -4.500000e+00 6.015545e+00
    endloop
  endfacet
  facet normal 1.305262e-01 9.267818e-17 -9.914449e-01
    outer loop
      vertex -1.650000e+01 4.500000e+00 6.250000e+00
      vertex -1.695294e+01 -4.500000e+00 6.190369e+00
      vertex -1.695294e+01 4.500000e+00 6.190369e+00
    endloop
  endfacet
  facet normal 1.305262e-01 9.267818e-17 -9.914449e-01
    outer loop
      vertex -1.695294e+01 -4.500000e+00 6.190369e+00
      vertex -1.650000e+01 4.500000e+00 6.250000e+00
      vertex -1.650000e+01 -4.500000e+00 6.250000e+00
    endloop
  endfacet
  facet normal 7.933533e-01 2.315914e-16 -6.087614e-01
    outer loop
      vertex -1.801556e+01 4.500000e+00 5.375000e+00
      vertex -1.773743e+01 -4.500000e+00 5.737438e+00
      vertex -1.801556e+01 -4.500000e+00 5.375000e+00
    endloop
  endfacet
  facet normal 7.933533e-01 2.315914e-16 -6.087614e-01
    outer loop
      vertex -1.773743e+01 -4.500000e+00 5.737438e+00
      vertex -1.801556e+01 4.500000e+00 5.375000e+00
      vertex -1.773743e+01 4.500000e+00 5.737438e+00
    endloop
  endfacet
  facet normal -6.087614e-01 -1.005247e-16 -7.933533e-01
    outer loop
      vertex -1.376257e+01 4.500000e+00 5.737438e+00
      vertex -1.412500e+01 -4.500000e+00 6.015545e+00
      vertex -1.412500e+01 4.500000e+00 6.015545e+00
    endloop
  endfacet
  facet normal -6.087614e-01 -1.005247e-16 -7.933533e-01
    outer loop
      vertex -1.412500e+01 -4.500000e+00 6.015545e+00
      vertex -1.376257e+01 4.500000e+00 5.737438e+00
      vertex -1.376257e+01 -4.500000e+00 5.737438e+00
    endloop
  endfacet
  facet normal -9.238795e-01 -2.028526e-16 -3.826834e-01
    outer loop
      vertex -1.348450e+01 4.500000e+00 5.375000e+00
      vertex -1.330963e+01 -4.500000e+00 4.952934e+00
      vertex -1.348450e+01 -4.500000e+00 5.375000e+00
    endloop
  endfacet
  facet normal -9.238795e-01 -2.028526e-16 -3.826834e-01
    outer loop
      vertex -1.330963e+01 -4.500000e+00 4.952934e+00
      vertex -1.348450e+01 4.500000e+00 5.375000e+00
      vertex -1.330963e+01 4.500000e+00 4.952934e+00
    endloop
  endfacet
  facet normal -9.238795e-01 -2.497178e-16 3.826834e-01
    outer loop
      vertex -1.330963e+01 4.500000e+00 4.047066e+00
      vertex -1.348450e+01 -4.500000e+00 3.625000e+00
      vertex -1.330963e+01 -4.500000e+00 4.047066e+00
    endloop
  endfacet
  facet normal -9.238795e-01 -2.497178e-16 3.826834e-01
    outer loop
      vertex -1.348450e+01 -4.500000e+00 3.625000e+00
      vertex -1.330963e+01 4.500000e+00 4.047066e+00
      vertex -1.348450e+01 4.500000e+00 3.625000e+00
    endloop
  endfacet
  facet normal -9.914449e-01 -2.348415e-16 -1.305262e-01
    outer loop
      vertex -1.330963e+01 4.500000e+00 4.952934e+00
      vertex -1.325000e+01 -4.500000e+00 4.500000e+00
      vertex -1.330963e+01 -4.500000e+00 4.952934e+00
    endloop
  endfacet
  facet normal -9.914449e-01 -2.348415e-16 -1.305262e-01
    outer loop
      vertex -1.325000e+01 -4.500000e+00 4.500000e+00
      vertex -1.330963e+01 4.500000e+00 4.952934e+00
      vertex -1.325000e+01 4.500000e+00 4.500000e+00
    endloop
  endfacet
  facet normal -1.305262e-01 -9.267818e-17 9.914449e-01
    outer loop
      vertex -1.454706e+01 -4.500000e+00 2.809628e+00
      vertex -1.500000e+01 4.500000e+00 2.750000e+00
      vertex -1.500000e+01 -4.500000e+00 2.750000e+00
    endloop
  endfacet
  facet normal -1.305262e-01 -9.267818e-17 9.914449e-01
    outer loop
      vertex -1.500000e+01 4.500000e+00 2.750000e+00
      vertex -1.454706e+01 -4.500000e+00 2.809628e+00
      vertex -1.454706e+01 4.500000e+00 2.809628e+00
    endloop
  endfacet
  facet normal -3.826834e-01 -1.503017e-16 9.238795e-01
    outer loop
      vertex -1.412500e+01 -4.500000e+00 2.984455e+00
      vertex -1.454706e+01 4.500000e+00 2.809628e+00
      vertex -1.454706e+01 -4.500000e+00 2.809628e+00
    endloop
  endfacet
  facet normal -3.826834e-01 -1.503017e-16 9.238795e-01
    outer loop
      vertex -1.454706e+01 4.500000e+00 2.809628e+00
      vertex -1.412500e+01 -4.500000e+00 2.984455e+00
      vertex -1.412500e+01 4.500000e+00 2.984455e+00
    endloop
  endfacet
  facet normal -3.826834e-01 -3.715910e-17 -9.238795e-01
    outer loop
      vertex 1.737500e+01 4.500000e+00 6.015545e+00
      vertex 1.695294e+01 -4.500000e+00 6.190369e+00
      vertex 1.695294e+01 4.500000e+00 6.190369e+00
    endloop
  endfacet
  facet normal -3.826834e-01 -3.715910e-17 -9.238795e-01
    outer loop
      vertex 1.695294e+01 -4.500000e+00 6.190369e+00
      vertex 1.737500e+01 4.500000e+00 6.015545e+00
      vertex 1.737500e+01 -4.500000e+00 6.015545e+00
    endloop
  endfacet
  facet normal -6.123234e-17 -6.123234e-17 1.000000e+00
    outer loop
      vertex 1.650000e+01 -4.500000e+00 2.750000e+00
      vertex 1.500000e+01 4.500000e+00 2.750000e+00
      vertex 1.500000e+01 -4.500000e+00 2.750000e+00
    endloop
  endfacet
  facet normal -6.123234e-17 -6.123234e-17 1.000000e+00
    outer loop
      vertex 1.500000e+01 4.500000e+00 2.750000e+00
      vertex 1.650000e+01 -4.500000e+00 2.750000e+00
      vertex 1.650000e+01 4.500000e+00 2.750000e+00
    endloop
  endfacet
  facet normal 3.826834e-01 3.715910e-17 9.238795e-01
    outer loop
      vertex 1.454706e+01 -4.500000e+00 2.809628e+00
      vertex 1.412500e+01 4.500000e+00 2.984455e+00
      vertex 1.412500e+01 -4.500000e+00 2.984455e+00
    endloop
  endfacet
  facet normal 3.826834e-01 3.715910e-17 9.238795e-01
    outer loop
      vertex 1.412500e+01 4.500000e+00 2.984455e+00
      vertex 1.454706e+01 -4.500000e+00 2.809628e+00
      vertex 1.454706e+01 4.500000e+00 2.809628e+00
    endloop
  endfacet
  facet normal 9.238795e-01 2.028526e-16 3.826834e-01
    outer loop
      vertex 1.348444e+01 4.500000e+00 3.625000e+00
      vertex 1.330963e+01 -4.500000e+00 4.047066e+00
      vertex 1.348444e+01 -4.500000e+00 3.625000e+00
    endloop
  endfacet
  facet normal 9.238795e-01 2.028526e-16 3.826834e-01
    outer loop
      vertex 1.330963e+01 -4.500000e+00 4.047066e+00
      vertex 1.348444e+01 4.500000e+00 3.625000e+00
      vertex 1.330963e+01 4.500000e+00 4.047066e+00
    endloop
  endfacet
  facet normal 9.914449e-01 2.508264e-16 -1.305262e-01
    outer loop
      vertex 1.325000e+01 4.500000e+00 4.500000e+00
      vertex 1.330963e+01 -4.500000e+00 4.952934e+00
      vertex 1.325000e+01 -4.500000e+00 4.500000e+00
    endloop
  endfacet
  facet normal 9.914449e-01 2.508264e-16 -1.305262e-01
    outer loop
      vertex 1.330963e+01 -4.500000e+00 4.952934e+00
      vertex 1.325000e+01 4.500000e+00 4.500000e+00
      vertex 1.330963e+01 4.500000e+00 4.952934e+00
    endloop
  endfacet
  facet normal 7.933533e-01 2.315914e-16 -6.087614e-01
    outer loop
      vertex 1.348444e+01 4.500000e+00 5.375000e+00
      vertex 1.376257e+01 -4.500000e+00 5.737438e+00
      vertex 1.348444e+01 -4.500000e+00 5.375000e+00
    endloop
  endfacet
  facet normal 7.933533e-01 2.315914e-16 -6.087614e-01
    outer loop
      vertex 1.376257e+01 -4.500000e+00 5.737438e+00
      vertex 1.348444e+01 4.500000e+00 5.375000e+00
      vertex 1.376257e+01 4.500000e+00 5.737438e+00
    endloop
  endfacet
  facet normal 6.087614e-01 1.976824e-16 -7.933533e-01
    outer loop
      vertex 1.412500e+01 4.500000e+00 6.015545e+00
      vertex 1.376257e+01 -4.500000e+00 5.737438e+00
      vertex 1.376257e+01 4.500000e+00 5.737438e+00
    endloop
  endfacet
  facet normal 6.087614e-01 1.976824e-16 -7.933533e-01
    outer loop
      vertex 1.376257e+01 -4.500000e+00 5.737438e+00
      vertex 1.412500e+01 4.500000e+00 6.015545e+00
      vertex 1.412500e+01 -4.500000e+00 6.015545e+00
    endloop
  endfacet
  facet normal 3.826834e-01 1.503017e-16 -9.238795e-01
    outer loop
      vertex 1.454706e+01 4.500000e+00 6.190369e+00
      vertex 1.412500e+01 -4.500000e+00 6.015545e+00
      vertex 1.412500e+01 4.500000e+00 6.015545e+00
    endloop
  endfacet
  facet normal 3.826834e-01 1.503017e-16 -9.238795e-01
    outer loop
      vertex 1.412500e+01 -4.500000e+00 6.015545e+00
      vertex 1.454706e+01 4.500000e+00 6.190369e+00
      vertex 1.454706e+01 -4.500000e+00 6.190369e+00
    endloop
  endfacet
  facet normal 6.123234e-17 6.123234e-17 -1.000000e+00
    outer loop
      vertex 1.650000e+01 4.500000e+00 6.250000e+00
      vertex 1.500000e+01 -4.500000e+00 6.250000e+00
      vertex 1.500000e+01 4.500000e+00 6.250000e+00
    endloop
  endfacet
  facet normal 6.123234e-17 6.123234e-17 -1.000000e+00
    outer loop
      vertex 1.500000e+01 -4.500000e+00 6.250000e+00
      vertex 1.650000e+01 4.500000e+00 6.250000e+00
      vertex 1.650000e+01 -4.500000e+00 6.250000e+00
    endloop
  endfacet
  facet normal 6.087614e-01 1.005247e-16 7.933533e-01
    outer loop
      vertex 1.412500e+01 -4.500000e+00 2.984455e+00
      vertex 1.376257e+01 4.500000e+00 3.262562e+00
      vertex 1.376257e+01 -4.500000e+00 3.262562e+00
    endloop
  endfacet
  facet normal 6.087614e-01 1.005247e-16 7.933533e-01
    outer loop
      vertex 1.376257e+01 4.500000e+00 3.262562e+00
      vertex 1.412500e+01 -4.500000e+00 2.984455e+00
      vertex 1.412500e+01 4.500000e+00 2.984455e+00
    endloop
  endfacet
  facet normal 1.000000e+00 2.449294e-16 6.123234e-17
    outer loop
      vertex 2.050000e+01 4.500000e+00 5.000000e-01
      vertex 2.050000e+01 -4.500000e+00 8.500000e+00
      vertex 2.050000e+01 -4.500000e+00 5.000000e-01
    endloop
  endfacet
  facet normal 1.000000e+00 2.449294e-16 6.123234e-17
    outer loop
      vertex 2.050000e+01 -4.500000e+00 8.500000e+00
      vertex 2.050000e+01 4.500000e+00 5.000000e-01
      vertex 2.050000e+01 4.500000e+00 8.500000e+00
    endloop
  endfacet
  facet normal 1.305262e-01 -2.873880e-17 9.914449e-01
    outer loop
      vertex 1.500000e+01 -4.500000e+00 2.750000e+00
      vertex 1.454706e+01 4.500000e+00 2.809628e+00
      vertex 1.454706e+01 -4.500000e+00 2.809628e+00
    endloop
  endfacet
  facet normal 1.305262e-01 -2.873880e-17 9.914449e-01
    outer loop
      vertex 1.454706e+01 4.500000e+00 2.809628e+00
      vertex 1.500000e+01 -4.500000e+00 2.750000e+00
      vertex 1.500000e+01 4.500000e+00 2.750000e+00
    endloop
  endfacet
  facet normal 7.933533e-01 1.570396e-16 6.087614e-01
    outer loop
      vertex 1.376257e+01 4.500000e+00 3.262562e+00
      vertex 1.348444e+01 -4.500000e+00 3.625000e+00
      vertex 1.376257e+01 -4.500000e+00 3.262562e+00
    endloop
  endfacet
  facet normal 7.933533e-01 1.570396e-16 6.087614e-01
    outer loop
      vertex 1.348444e+01 -4.500000e+00 3.625000e+00
      vertex 1.376257e+01 4.500000e+00 3.262562e+00
      vertex 1.348444e+01 4.500000e+00 3.625000e+00
    endloop
  endfacet
  facet normal 9.914449e-01 2.348415e-16 1.305262e-01
    outer loop
      vertex 1.330963e+01 4.500000e+00 4.047066e+00
      vertex 1.325000e+01 -4.500000e+00 4.500000e+00
      vertex 1.330963e+01 -4.500000e+00 4.047066e+00
    endloop
  endfacet
  facet normal 9.914449e-01 2.348415e-16 1.305262e-01
    outer loop
      vertex 1.325000e+01 -4.500000e+00 4.500000e+00
      vertex 1.330963e+01 4.500000e+00 4.047066e+00
      vertex 1.325000e+01 4.500000e+00 4.500000e+00
    endloop
  endfacet
  facet normal 1.305262e-01 9.267818e-17 -9.914449e-01
    outer loop
      vertex 1.500000e+01 4.500000e+00 6.250000e+00
      vertex 1.454706e+01 -4.500000e+00 6.190369e+00
      vertex 1.454706e+01 4.500000e+00 6.190369e+00
    endloop
  endfacet
  facet normal 1.305262e-01 9.267818e-17 -9.914449e-01
    outer loop
      vertex 1.454706e+01 -4.500000e+00 6.190369e+00
      vertex 1.500000e+01 4.500000e+00 6.250000e+00
      vertex 1.500000e+01 -4.500000e+00 6.250000e+00
    endloop
  endfacet
  facet normal 9.238795e-01 2.497178e-16 -3.826834e-01
    outer loop
      vertex 1.330963e+01 4.500000e+00 4.952934e+00
      vertex 1.348444e+01 -4.500000e+00 5.375000e+00
      vertex 1.330963e+01 -4.500000e+00 4.952934e+00
    endloop
  endfacet
  facet normal 9.238795e-01 2.497178e-16 -3.826834e-01
    outer loop
      vertex 1.348444e+01 -4.500000e+00 5.375000e+00
      vertex 1.330963e+01 4.500000e+00 4.952934e+00
      vertex 1.348444e+01 4.500000e+00 5.375000e+00
    endloop
  endfacet
  facet normal -1.305262e-01 2.873880e-17 -9.914449e-01
    outer loop
      vertex 1.695294e+01 4.500000e+00 6.190369e+00
      vertex 1.650000e+01 -4.500000e+00 6.250000e+00
      vertex 1.650000e+01 4.500000e+00 6.250000e+00
    endloop
  endfacet
  facet normal -1.305262e-01 2.873880e-17 -9.914449e-01
    outer loop
      vertex 1.650000e+01 -4.500000e+00 6.250000e+00
      vertex 1.695294e+01 4.500000e+00 6.190369e+00
      vertex 1.695294e+01 -4.500000e+00 6.190369e+00
    endloop
  endfacet
  facet normal -7.933533e-01 -1.570396e-16 -6.087614e-01
    outer loop
      vertex 1.773743e+01 4.500000e+00 5.737438e+00
      vertex 1.801550e+01 -4.500000e+00 5.375000e+00
      vertex 1.773743e+01 -4.500000e+00 5.737438e+00
    endloop
  endfacet
  facet normal -7.933533e-01 -1.570396e-16 -6.087614e-01
    outer loop
      vertex 1.801550e+01 -4.500000e+00 5.375000e+00
      vertex 1.773743e+01 4.500000e+00 5.737438e+00
      vertex 1.801550e+01 4.500000e+00 5.375000e+00
    endloop
  endfacet
  facet normal -9.238795e-01 -2.028526e-16 -3.826834e-01
    outer loop
      vertex 1.801550e+01 4.500000e+00 5.375000e+00
      vertex 1.819037e+01 -4.500000e+00 4.952934e+00
      vertex 1.801550e+01 -4.500000e+00 5.375000e+00
    endloop
  endfacet
  facet normal -9.238795e-01 -2.028526e-16 -3.826834e-01
    outer loop
      vertex 1.819037e+01 -4.500000e+00 4.952934e+00
      vertex 1.801550e+01 4.500000e+00 5.375000e+00
      vertex 1.819037e+01 4.500000e+00 4.952934e+00
    endloop
  endfacet
  facet normal -9.238795e-01 -2.497178e-16 3.826834e-01
    outer loop
      vertex 1.819037e+01 4.500000e+00 4.047066e+00
      vertex 1.801550e+01 -4.500000e+00 3.625000e+00
      vertex 1.819037e+01 -4.500000e+00 4.047066e+00
    endloop
  endfacet
  facet normal -9.238795e-01 -2.497178e-16 3.826834e-01
    outer loop
      vertex 1.801550e+01 -4.500000e+00 3.625000e+00
      vertex 1.819037e+01 4.500000e+00 4.047066e+00
      vertex 1.801550e+01 4.500000e+00 3.625000e+00
    endloop
  endfacet
  facet normal -6.087614e-01 -1.005247e-16 -7.933533e-01
    outer loop
      vertex 1.773743e+01 4.500000e+00 5.737438e+00
      vertex 1.737500e+01 -4.500000e+00 6.015545e+00
      vertex 1.737500e+01 4.500000e+00 6.015545e+00
    endloop
  endfacet
  facet normal -6.087614e-01 -1.005247e-16 -7.933533e-01
    outer loop
      vertex 1.737500e+01 -4.500000e+00 6.015545e+00
      vertex 1.773743e+01 4.500000e+00 5.737438e+00
      vertex 1.773743e+01 -4.500000e+00 5.737438e+00
    endloop
  endfacet
  facet normal -9.914449e-01 -2.348415e-16 -1.305262e-01
    outer loop
      vertex 1.819037e+01 4.500000e+00 4.952934e+00
      vertex 1.825000e+01 -4.500000e+00 4.500000e+00
      vertex 1.819037e+01 -4.500000e+00 4.952934e+00
    endloop
  endfacet
  facet normal -9.914449e-01 -2.348415e-16 -1.305262e-01
    outer loop
      vertex 1.825000e+01 -4.500000e+00 4.500000e+00
      vertex 1.819037e+01 4.500000e+00 4.952934e+00
      vertex 1.825000e+01 4.500000e+00 4.500000e+00
    endloop
  endfacet
  facet normal -9.914449e-01 -2.508264e-16 1.305262e-01
    outer loop
      vertex 1.825000e+01 4.500000e+00 4.500000e+00
      vertex 1.819037e+01 -4.500000e+00 4.047066e+00
      vertex 1.825000e+01 -4.500000e+00 4.500000e+00
    endloop
  endfacet
  facet normal -9.914449e-01 -2.508264e-16 1.305262e-01
    outer loop
      vertex 1.819037e+01 -4.500000e+00 4.047066e+00
      vertex 1.825000e+01 4.500000e+00 4.500000e+00
      vertex 1.819037e+01 4.500000e+00 4.047066e+00
    endloop
  endfacet
  facet normal -7.933533e-01 -2.315914e-16 6.087614e-01
    outer loop
      vertex 1.801550e+01 4.500000e+00 3.625000e+00
      vertex 1.773743e+01 -4.500000e+00 3.262562e+00
      vertex 1.801550e+01 -4.500000e+00 3.625000e+00
    endloop
  endfacet
  facet normal -7.933533e-01 -2.315914e-16 6.087614e-01
    outer loop
      vertex 1.773743e+01 -4.500000e+00 3.262562e+00
      vertex 1.801550e+01 4.500000e+00 3.625000e+00
      vertex 1.773743e+01 4.500000e+00 3.262562e+00
    endloop
  endfacet
  facet normal -6.087614e-01 -1.976824e-16 7.933533e-01
    outer loop
      vertex 1.773743e+01 -4.500000e+00 3.262562e+00
      vertex 1.737500e+01 4.500000e+00 2.984455e+00
      vertex 1.737500e+01 -4.500000e+00 2.984455e+00
    endloop
  endfacet
  facet normal -6.087614e-01 -1.976824e-16 7.933533e-01
    outer loop
      vertex 1.737500e+01 4.500000e+00 2.984455e+00
      vertex 1.773743e+01 -4.500000e+00 3.262562e+00
      vertex 1.773743e+01 4.500000e+00 3.262562e+00
    endloop
  endfacet
  facet normal -3.826834e-01 -1.503017e-16 9.238795e-01
    outer loop
      vertex 1.737500e+01 -4.500000e+00 2.984455e+00
      vertex 1.695294e+01 4.500000e+00 2.809628e+00
      vertex 1.695294e+01 -4.500000e+00 2.809628e+00
    endloop
  endfacet
  facet normal -3.826834e-01 -1.503017e-16 9.238795e-01
    outer loop
      vertex 1.695294e+01 4.500000e+00 2.809628e+00
      vertex 1.737500e+01 -4.500000e+00 2.984455e+00
      vertex 1.737500e+01 4.500000e+00 2.984455e+00
    endloop
  endfacet
  facet normal -1.305262e-01 -9.267818e-17 9.914449e-01
    outer loop
      vertex 1.695294e+01 -4.500000e+00 2.809628e+00
      vertex 1.650000e+01 4.500000e+00 2.750000e+00
      vertex 1.650000e+01 -4.500000e+00 2.750000e+00
    endloop
  endfacet
  facet normal -1.305262e-01 -9.267818e-17 9.914449e-01
    outer loop
      vertex 1.650000e+01 4.500000e+00 2.750000e+00
      vertex 1.695294e+01 -4.500000e+00 2.809628e+00
      vertex 1.695294e+01 4.500000e+00 2.809628e+00
    endloop
  endfacet
  facet normal 1.441336e-16 1.414095e-16 1.000000e+00
    outer loop
      vertex 2.050000e+01 -4.500000e+00 8.500000e+00
      vertex 1.250000e+01 5.000000e-01 8.500000e+00
      vertex 1.250000e+01 -4.500000e+00 8.500000e+00
    endloop
  endfacet
  facet normal 1.441336e-16 1.414095e-16 1.000000e+00
    outer loop
      vertex -1.250000e+01 -4.500000e+00 8.500000e+00
      vertex -2.050000e+01 4.500000e+00 8.500000e+00
      vertex -2.050000e+01 -4.500000e+00 8.500000e+00
    endloop
  endfacet
  facet normal 1.441336e-16 1.414095e-16 1.000000e+00
    outer loop
      vertex -2.050000e+01 4.500000e+00 8.500000e+00
      vertex -1.250000e+01 -4.500000e+00 8.500000e+00
      vertex -1.250000e+01 5.000000e-01 8.500000e+00
    endloop
  endfacet
  facet normal 1.441336e-16 1.414095e-16 1.000000e+00
    outer loop
      vertex -2.050000e+01 4.500000e+00 8.500000e+00
      vertex -1.250000e+01 5.000000e-01 8.500000e+00
      vertex 2.050000e+01 4.500000e+00 8.500000e+00
    endloop
  endfacet
  facet normal 1.441336e-16 1.414095e-16 1.000000e+00
    outer loop
      vertex 2.050000e+01 4.500000e+00 8.500000e+00
      vertex -1.250000e+01 5.000000e-01 8.500000e+00
      vertex 1.250000e+01 5.000000e-01 8.500000e+00
    endloop
  endfacet
  facet normal 1.441336e-16 1.414095e-16 1.000000e+00
    outer loop
      vertex 2.050000e+01 4.500000e+00 8.500000e+00
      vertex 1.250000e+01 5.000000e-01 8.500000e+00
      vertex 2.050000e+01 -4.500000e+00 8.500000e+00
    endloop
  endfacet
  facet normal 2.449294e-16 -1.000000e+00 -6.123234e-17
    outer loop
      vertex -1.210004e+01 -4.500000e+00 5.000000e-01
      vertex -1.454706e+01 -4.500000e+00 2.809628e+00
      vertex -2.050000e+01 -4.500000e+00 5.000000e-01
    endloop
  endfacet
  facet normal 2.449294e-16 -1.000000e+00 -6.123234e-17
    outer loop
      vertex -1.454706e+01 -4.500000e+00 2.809628e+00
      vertex -1.210004e+01 -4.500000e+00 5.000000e-01
      vertex -1.412500e+01 -4.500000e+00 2.984455e+00
    endloop
  endfacet
  facet normal 2.449294e-16 -1.000000e+00 -6.123234e-17
    outer loop
      vertex -1.412500e+01 -4.500000e+00 2.984455e+00
      vertex -1.210004e+01 -4.500000e+00 5.000000e-01
      vertex -1.376257e+01 -4.500000e+00 3.262562e+00
    endloop
  endfacet
  facet normal 2.449294e-16 -1.000000e+00 -6.123234e-17
    outer loop
      vertex -1.376257e+01 -4.500000e+00 3.262562e+00
      vertex -1.210004e+01 -4.500000e+00 5.000000e-01
      vertex -1.348450e+01 -4.500000e+00 3.625000e+00
    endloop
  endfacet
  facet normal 2.449294e-16 -1.000000e+00 -6.123234e-17
    outer loop
      vertex -1.348450e+01 -4.500000e+00 3.625000e+00
      vertex -1.210004e+01 -4.500000e+00 5.000000e-01
      vertex -1.330963e+01 -4.500000e+00 4.047066e+00
    endloop
  endfacet
  facet normal 2.449294e-16 -1.000000e+00 -6.123234e-17
    outer loop
      vertex -1.330963e+01 -4.500000e+00 4.047066e+00
      vertex -1.210004e+01 -4.500000e+00 5.000000e-01
      vertex -1.250000e+01 -4.500000e+00 8.500000e+00
    endloop
  endfacet
  facet normal 2.449294e-16 -1.000000e+00 -6.123234e-17
    outer loop
      vertex -2.050000e+01 -4.500000e+00 5.000000e-01
      vertex -1.454706e+01 -4.500000e+00 2.809628e+00
      vertex -1.500000e+01 -4.500000e+00 2.750000e+00
    endloop
  endfacet
  facet normal 2.449294e-16 -1.000000e+00 -6.123234e-17
    outer loop
      vertex -1.330963e+01 -4.500000e+00 4.047066e+00
      vertex -1.250000e+01 -4.500000e+00 8.500000e+00
      vertex -1.325000e+01 -4.500000e+00 4.500000e+00
    endloop
  endfacet
  facet normal 2.449294e-16 -1.000000e+00 -6.123234e-17
    outer loop
      vertex -1.325000e+01 -4.500000e+00 4.500000e+00
      vertex -1.250000e+01 -4.500000e+00 8.500000e+00
      vertex -1.330963e+01 -4.500000e+00 4.952934e+00
    endloop
  endfacet
  facet normal 2.449294e-16 -1.000000e+00 -6.123234e-17
    outer loop
      vertex -1.330963e+01 -4.500000e+00 4.952934e+00
      vertex -1.250000e+01 -4.500000e+00 8.500000e+00
      vertex -1.348450e+01 -4.500000e+00 5.375000e+00
    endloop
  endfacet
  facet normal 2.449294e-16 -1.000000e+00 -6.123234e-17
    outer loop
      vertex -1.348450e+01 -4.500000e+00 5.375000e+00
      vertex -1.250000e+01 -4.500000e+00 8.500000e+00
      vertex -1.376257e+01 -4.500000e+00 5.737438e+00
    endloop
  endfacet
  facet normal 2.449294e-16 -1.000000e+00 -6.123234e-17
    outer loop
      vertex -1.376257e+01 -4.500000e+00 5.737438e+00
      vertex -1.250000e+01 -4.500000e+00 8.500000e+00
      vertex -1.412500e+01 -4.500000e+00 6.015545e+00
    endloop
  endfacet
  facet normal 2.449294e-16 -1.000000e+00 -6.123234e-17
    outer loop
      vertex -1.412500e+01 -4.500000e+00 6.015545e+00
      vertex -1.250000e+01 -4.500000e+00 8.500000e+00
      vertex -1.454706e+01 -4.500000e+00 6.190369e+00
    endloop
  endfacet
  facet normal 2.449294e-16 -1.000000e+00 -6.123234e-17
    outer loop
      vertex -1.454706e+01 -4.500000e+00 6.190369e+00
      vertex -1.250000e+01 -4.500000e+00 8.500000e+00
      vertex -1.500000e+01 -4.500000e+00 6.250000e+00
    endloop
  endfacet
  facet normal 2.449294e-16 -1.000000e+00 -6.123234e-17
    outer loop
      vertex -1.500000e+01 -4.500000e+00 6.250000e+00
      vertex -1.250000e+01 -4.500000e+00 8.500000e+00
      vertex -1.650000e+01 -4.500000e+00 6.250000e+00
    endloop
  endfacet
  facet normal 2.449294e-16 -1.000000e+00 -6.123234e-17
    outer loop
      vertex -2.050000e+01 -4.500000e+00 5.000000e-01
      vertex -1.801556e+01 -4.500000e+00 3.625000e+00
      vertex -2.050000e+01 -4.500000e+00 8.500000e+00
    endloop
  endfacet
  facet normal 2.449294e-16 -1.000000e+00 -6.123234e-17
    outer loop
      vertex -1.801556e+01 -4.500000e+00 3.625000e+00
      vertex -2.050000e+01 -4.500000e+00 5.000000e-01
      vertex -1.773743e+01 -4.500000e+00 3.262562e+00
    endloop
  endfacet
  facet normal 2.449294e-16 -1.000000e+00 -6.123234e-17
    outer loop
      vertex -1.773743e+01 -4.500000e+00 3.262562e+00
      vertex -2.050000e+01 -4.500000e+00 5.000000e-01
      vertex -1.737500e+01 -4.500000e+00 2.984455e+00
    endloop
  endfacet
  facet normal 2.449294e-16 -1.000000e+00 -6.123234e-17
    outer loop
      vertex -1.737500e+01 -4.500000e+00 2.984455e+00
      vertex -2.050000e+01 -4.500000e+00 5.000000e-01
      vertex -1.695294e+01 -4.500000e+00 2.809628e+00
    endloop
  endfacet
  facet normal 2.449294e-16 -1.000000e+00 -6.123234e-17
    outer loop
      vertex -1.695294e+01 -4.500000e+00 2.809628e+00
      vertex -2.050000e+01 -4.500000e+00 5.000000e-01
      vertex -1.650000e+01 -4.500000e+00 2.750000e+00
    endloop
  endfacet
  facet normal 2.449294e-16 -1.000000e+00 -6.123234e-17
    outer loop
      vertex -1.650000e+01 -4.500000e+00 2.750000e+00
      vertex -2.050000e+01 -4.500000e+00 5.000000e-01
      vertex -1.500000e+01 -4.500000e+00 2.750000e+00
    endloop
  endfacet
  facet normal 2.449294e-16 -1.000000e+00 -6.123234e-17
    outer loop
      vertex -2.050000e+01 -4.500000e+00 8.500000e+00
      vertex -1.801556e+01 -4.500000e+00 3.625000e+00
      vertex -1.819037e+01 -4.500000e+00 4.047066e+00
    endloop
  endfacet
  facet normal 2.449294e-16 -1.000000e+00 -6.123234e-17
    outer loop
      vertex -2.050000e+01 -4.500000e+00 8.500000e+00
      vertex -1.819037e+01 -4.500000e+00 4.047066e+00
      vertex -1.825000e+01 -4.500000e+00 4.500000e+00
    endloop
  endfacet
  facet normal 2.449294e-16 -1.000000e+00 -6.123234e-17
    outer loop
      vertex -2.050000e+01 -4.500000e+00 8.500000e+00
      vertex -1.825000e+01 -4.500000e+00 4.500000e+00
      vertex -1.819037e+01 -4.500000e+00 4.952934e+00
    endloop
  endfacet
  facet normal 2.449294e-16 -1.000000e+00 -6.123234e-17
    outer loop
      vertex -2.050000e+01 -4.500000e+00 8.500000e+00
      vertex -1.819037e+01 -4.500000e+00 4.952934e+00
      vertex -1.801556e+01 -4.500000e+00 5.375000e+00
    endloop
  endfacet
  facet normal 2.449294e-16 -1.000000e+00 -6.123234e-17
    outer loop
      vertex -2.050000e+01 -4.500000e+00 8.500000e+00
      vertex -1.801556e+01 -4.500000e+00 5.375000e+00
      vertex -1.773743e+01 -4.500000e+00 5.737438e+00
    endloop
  endfacet
  facet normal 2.449294e-16 -1.000000e+00 -6.123234e-17
    outer loop
      vertex -2.050000e+01 -4.500000e+00 8.500000e+00
      vertex -1.773743e+01 -4.500000e+00 5.737438e+00
      vertex -1.737500e+01 -4.500000e+00 6.015545e+00
    endloop
  endfacet
  facet normal 2.449294e-16 -1.000000e+00 -6.123234e-17
    outer loop
      vertex -2.050000e+01 -4.500000e+00 8.500000e+00
      vertex -1.737500e+01 -4.500000e+00 6.015545e+00
      vertex -1.695294e+01 -4.500000e+00 6.190369e+00
    endloop
  endfacet
  facet normal 2.449294e-16 -1.000000e+00 -6.123234e-17
    outer loop
      vertex -2.050000e+01 -4.500000e+00 8.500000e+00
      vertex -1.695294e+01 -4.500000e+00 6.190369e+00
      vertex -1.650000e+01 -4.500000e+00 6.250000e+00
    endloop
  endfacet
  facet normal 2.449294e-16 -1.000000e+00 -6.123234e-17
    outer loop
      vertex -2.050000e+01 -4.500000e+00 8.500000e+00
      vertex -1.650000e+01 -4.500000e+00 6.250000e+00
      vertex -1.250000e+01 -4.500000e+00 8.500000e+00
    endloop
  endfacet
  facet normal 9.987524e-01 2.415660e-16 4.993762e-02
    outer loop
      vertex -1.210004e+01 5.000000e-01 5.000000e-01
      vertex -1.250000e+01 -4.500000e+00 8.500000e+00
      vertex -1.210004e+01 -4.500000e+00 5.000000e-01
    endloop
  endfacet
  facet normal 9.987524e-01 2.415660e-16 4.993762e-02
    outer loop
      vertex -1.250000e+01 -4.500000e+00 8.500000e+00
      vertex -1.210004e+01 5.000000e-01 5.000000e-01
      vertex -1.250000e+01 5.000000e-01 8.500000e+00
    endloop
  endfacet
  facet normal -9.987524e-01 -2.476816e-16 4.993762e-02
    outer loop
      vertex 1.250000e+01 5.000000e-01 8.500000e+00
      vertex 1.209998e+01 -4.500000e+00 5.000000e-01
      vertex 1.250000e+01 -4.500000e+00 8.500000e+00
    endloop
  endfacet
  facet normal -9.987524e-01 -2.476816e-16 4.993762e-02
    outer loop
      vertex 1.209998e+01 -4.500000e+00 5.000000e-01
      vertex 1.250000e+01 5.000000e-01 8.500000e+00
      vertex 1.209998e+01 5.000000e-01 5.000000e-01
    endloop
  endfacet
  facet normal 6.123234e-17 6.123234e-17 -1.000000e+00
    outer loop
      vertex -2.050000e+01 4.500000e+00 5.000000e-01
      vertex -1.210004e+01 5.000000e-01 5.000000e-01
      vertex -2.050000e+01 -4.500000e+00 5.000000e-01
    endloop
  endfacet
  facet normal 6.123234e-17 6.123234e-17 -1.000000e+00
    outer loop
      vertex -1.210004e+01 5.000000e-01 5.000000e-01
      vertex -2.050000e+01 4.500000e+00 5.000000e-01
      vertex 2.050000e+01 4.500000e+00 5.000000e-01
    endloop
  endfacet
  facet normal 6.123234e-17 6.123234e-17 -1.000000e+00
    outer loop
      vertex -1.210004e+01 5.000000e-01 5.000000e-01
      vertex 2.050000e+01 4.500000e+00 5.000000e-01
      vertex 1.209998e+01 5.000000e-01 5.000000e-01
    endloop
  endfacet
  facet normal 6.123234e-17 6.123234e-17 -1.000000e+00
    outer loop
      vertex 1.209998e+01 5.000000e-01 5.000000e-01
      vertex 2.050000e+01 4.500000e+00 5.000000e-01
      vertex 1.209998e+01 -4.500000e+00 5.000000e-01
    endloop
  endfacet
  facet normal 6.123234e-17 6.123234e-17 -1.000000e+00
    outer loop
      vertex 1.209998e+01 -4.500000e+00 5.000000e-01
      vertex 2.050000e+01 4.500000e+00 5.000000e-01
      vertex 2.050000e+01 -4.500000e+00 5.000000e-01
    endloop
  endfacet
  facet normal 6.123234e-17 6.123234e-17 -1.000000e+00
    outer loop
      vertex -1.210004e+01 -4.500000e+00 5.000000e-01
      vertex -2.050000e+01 -4.500000e+00 5.000000e-01
      vertex -1.210004e+01 5.000000e-01 5.000000e-01
    endloop
  endfacet
  facet normal 2.449294e-16 -1.000000e+00 -6.123234e-17
    outer loop
      vertex 2.050000e+01 -4.500000e+00 5.000000e-01
      vertex 1.737500e+01 -4.500000e+00 2.984455e+00
      vertex 1.209998e+01 -4.500000e+00 5.000000e-01
    endloop
  endfacet
  facet normal 2.449294e-16 -1.000000e+00 -6.123234e-17
    outer loop
      vertex 1.737500e+01 -4.500000e+00 2.984455e+00
      vertex 2.050000e+01 -4.500000e+00 5.000000e-01
      vertex 1.773743e+01 -4.500000e+00 3.262562e+00
    endloop
  endfacet
  facet normal 2.449294e-16 -1.000000e+00 -6.123234e-17
    outer loop
      vertex 1.773743e+01 -4.500000e+00 3.262562e+00
      vertex 2.050000e+01 -4.500000e+00 5.000000e-01
      vertex 1.801550e+01 -4.500000e+00 3.625000e+00
    endloop
  endfacet
  facet normal 2.449294e-16 -1.000000e+00 -6.123234e-17
    outer loop
      vertex 1.801550e+01 -4.500000e+00 3.625000e+00
      vertex 2.050000e+01 -4.500000e+00 5.000000e-01
      vertex 2.050000e+01 -4.500000e+00 8.500000e+00
    endloop
  endfacet
  facet normal 2.449294e-16 -1.000000e+00 -6.123234e-17
    outer loop
      vertex 1.209998e+01 -4.500000e+00 5.000000e-01
      vertex 1.737500e+01 -4.500000e+00 2.984455e+00
      vertex 1.695294e+01 -4.500000e+00 2.809628e+00
    endloop
  endfacet
  facet normal 2.449294e-16 -1.000000e+00 -6.123234e-17
    outer loop
      vertex 1.209998e+01 -4.500000e+00 5.000000e-01
      vertex 1.695294e+01 -4.500000e+00 2.809628e+00
      vertex 1.650000e+01 -4.500000e+00 2.750000e+00
    endloop
  endfacet
  facet normal 2.449294e-16 -1.000000e+00 -6.123234e-17
    outer loop
      vertex 1.801550e+01 -4.500000e+00 3.625000e+00
      vertex 2.050000e+01 -4.500000e+00 8.500000e+00
      vertex 1.819037e+01 -4.500000e+00 4.047066e+00
    endloop
  endfacet
  facet normal 2.449294e-16 -1.000000e+00 -6.123234e-17
    outer loop
      vertex 1.819037e+01 -4.500000e+00 4.047066e+00
      vertex 2.050000e+01 -4.500000e+00 8.500000e+00
      vertex 1.825000e+01 -4.500000e+00 4.500000e+00
    endloop
  endfacet
  facet normal 2.449294e-16 -1.000000e+00 -6.123234e-17
    outer loop
      vertex 1.825000e+01 -4.500000e+00 4.500000e+00
      vertex 2.050000e+01 -4.500000e+00 8.500000e+00
      vertex 1.819037e+01 -4.500000e+00 4.952934e+00
    endloop
  endfacet
  facet normal 2.449294e-16 -1.000000e+00 -6.123234e-17
    outer loop
      vertex 1.819037e+01 -4.500000e+00 4.952934e+00
      vertex 2.050000e+01 -4.500000e+00 8.500000e+00
      vertex 1.801550e+01 -4.500000e+00 5.375000e+00
    endloop
  endfacet
  facet normal 2.449294e-16 -1.000000e+00 -6.123234e-17
    outer loop
      vertex 1.801550e+01 -4.500000e+00 5.375000e+00
      vertex 2.050000e+01 -4.500000e+00 8.500000e+00
      vertex 1.773743e+01 -4.500000e+00 5.737438e+00
    endloop
  endfacet
  facet normal 2.449294e-16 -1.000000e+00 -6.123234e-17
    outer loop
      vertex 1.773743e+01 -4.500000e+00 5.737438e+00
      vertex 2.050000e+01 -4.500000e+00 8.500000e+00
      vertex 1.737500e+01 -4.500000e+00 6.015545e+00
    endloop
  endfacet
  facet normal 2.449294e-16 -1.000000e+00 -6.123234e-17
    outer loop
      vertex 1.737500e+01 -4.500000e+00 6.015545e+00
      vertex 2.050000e+01 -4.500000e+00 8.500000e+00
      vertex 1.695294e+01 -4.500000e+00 6.190369e+00
    endloop
  endfacet
  facet normal 2.449294e-16 -1.000000e+00 -6.123234e-17
    outer loop
      vertex 1.695294e+01 -4.500000e+00 6.190369e+00
      vertex 2.050000e+01 -4.500000e+00 8.500000e+00
      vertex 1.650000e+01 -4.500000e+00 6.250000e+00
    endloop
  endfacet
  facet normal 2.449294e-16 -1.000000e+00 -6.123234e-17
    outer loop
      vertex 1.650000e+01 -4.500000e+00 6.250000e+00
      vertex 2.050000e+01 -4.500000e+00 8.500000e+00
      vertex 1.500000e+01 -4.500000e+00 6.250000e+00
    endloop
  endfacet
  facet normal 2.449294e-16 -1.000000e+00 -6.123234e-17
    outer loop
      vertex 1.209998e+01 -4.500000e+00 5.000000e-01
      vertex 1.330963e+01 -4.500000e+00 4.047066e+00
      vertex 1.250000e+01 -4.500000e+00 8.500000e+00
    endloop
  endfacet
  facet normal 2.449294e-16 -1.000000e+00 -6.123234e-17
    outer loop
      vertex 1.330963e+01 -4.500000e+00 4.047066e+00
      vertex 1.209998e+01 -4.500000e+00 5.000000e-01
      vertex 1.348444e+01 -4.500000e+00 3.625000e+00
    endloop
  endfacet
  facet normal 2.449294e-16 -1.000000e+00 -6.123234e-17
    outer loop
      vertex 1.348444e+01 -4.500000e+00 3.625000e+00
      vertex 1.209998e+01 -4.500000e+00 5.000000e-01
      vertex 1.376257e+01 -4.500000e+00 3.262562e+00
    endloop
  endfacet
  facet normal 2.449294e-16 -1.000000e+00 -6.123234e-17
    outer loop
      vertex 1.376257e+01 -4.500000e+00 3.262562e+00
      vertex 1.209998e+01 -4.500000e+00 5.000000e-01
      vertex 1.412500e+01 -4.500000e+00 2.984455e+00
    endloop
  endfacet
  facet normal 2.449294e-16 -1.000000e+00 -6.123234e-17
    outer loop
      vertex 1.412500e+01 -4.500000e+00 2.984455e+00
      vertex 1.209998e+01 -4.500000e+00 5.000000e-01
      vertex 1.454706e+01 -4.500000e+00 2.809628e+00
    endloop
  endfacet
  facet normal 2.449294e-16 -1.000000e+00 -6.123234e-17
    outer loop
      vertex 1.454706e+01 -4.500000e+00 2.809628e+00
      vertex 1.209998e+01 -4.500000e+00 5.000000e-01
      vertex 1.500000e+01 -4.500000e+00 2.750000e+00
    endloop
  endfacet
  facet normal 2.449294e-16 -1.000000e+00 -6.123234e-17
    outer loop
      vertex 1.500000e+01 -4.500000e+00 2.750000e+00
      vertex 1.209998e+01 -4.500000e+00 5.000000e-01
      vertex 1.650000e+01 -4.500000e+00 2.750000e+00
    endloop
  endfacet
  facet normal 2.449294e-16 -1.000000e+00 -6.123234e-17
    outer loop
      vertex 1.250000e+01 -4.500000e+00 8.500000e+00
      vertex 1.330963e+01 -4.500000e+00 4.047066e+00
      vertex 1.325000e+01 -4.500000e+00 4.500000e+00
    endloop
  endfacet
  facet normal 2.449294e-16 -1.000000e+00 -6.123234e-17
    outer loop
      vertex 1.250000e+01 -4.500000e+00 8.500000e+00
      vertex 1.325000e+01 -4.500000e+00 4.500000e+00
      vertex 1.330963e+01 -4.500000e+00 4.952934e+00
    endloop
  endfacet
  facet normal 2.449294e-16 -1.000000e+00 -6.123234e-17
    outer loop
      vertex 1.250000e+01 -4.500000e+00 8.500000e+00
      vertex 1.330963e+01 -4.500000e+00 4.952934e+00
      vertex 1.348444e+01 -4.500000e+00 5.375000e+00
    endloop
  endfacet
  facet normal 2.449294e-16 -1.000000e+00 -6.123234e-17
    outer loop
      vertex 1.250000e+01 -4.500000e+00 8.500000e+00
      vertex 1.348444e+01 -4.500000e+00 5.375000e+00
      vertex 1.376257e+01 -4.500000e+00 5.737438e+00
    endloop
  endfacet
  facet normal 2.449294e-16 -1.000000e+00 -6.123234e-17
    outer loop
      vertex 1.250000e+01 -4.500000e+00 8.500000e+00
      vertex 1.376257e+01 -4.500000e+00 5.737438e+00
      vertex 1.412500e+01 -4.500000e+00 6.015545e+00
    endloop
  endfacet
  facet normal 2.449294e-16 -1.000000e+00 -6.123234e-17
    outer loop
      vertex 1.250000e+01 -4.500000e+00 8.500000e+00
      vertex 1.412500e+01 -4.500000e+00 6.015545e+00
      vertex 1.454706e+01 -4.500000e+00 6.190369e+00
    endloop
  endfacet
  facet normal 2.449294e-16 -1.000000e+00 -6.123234e-17
    outer loop
      vertex 1.250000e+01 -4.500000e+00 8.500000e+00
      vertex 1.454706e+01 -4.500000e+00 6.190369e+00
      vertex 1.500000e+01 -4.500000e+00 6.250000e+00
    endloop
  endfacet
  facet normal 2.449294e-16 -1.000000e+00 -6.123234e-17
    outer loop
      vertex 1.250000e+01 -4.500000e+00 8.500000e+00
      vertex 1.500000e+01 -4.500000e+00 6.250000e+00
      vertex 2.050000e+01 -4.500000e+00 8.500000e+00
    endloop
  endfacet
endsolid Default
