solid Default
  facet normal 5.511689e-16 2.344760e-14 1.000000e+00
    outer loop
      vertex -1.900000e+01 -4.762505e+00 3.000000e+01
      vertex -1.100000e+01 -7.762505e+00 3.000000e+01
      vertex 1.900000e+01 -4.762505e+00 3.000000e+01
    endloop
  endfacet
  facet normal 5.511689e-16 2.344760e-14 1.000000e+00
    outer loop
      vertex -1.100000e+01 -7.762505e+00 3.000000e+01
      vertex -1.900000e+01 -4.762505e+00 3.000000e+01
      vertex -1.900000e+01 -1.376250e+01 3.000000e+01
    endloop
  endfacet
  facet normal 5.511689e-16 2.344760e-14 1.000000e+00
    outer loop
      vertex -1.100000e+01 -7.762505e+00 3.000000e+01
      vertex -1.900000e+01 -1.376250e+01 3.000000e+01
      vertex -1.100000e+01 -1.376250e+01 3.000000e+01
    endloop
  endfacet
  facet normal 5.511689e-16 2.344760e-14 1.000000e+00
    outer loop
      vertex 1.900000e+01 -4.762505e+00 3.000000e+01
      vertex -1.100000e+01 -7.762505e+00 3.000000e+01
      vertex 1.100000e+01 -7.762505e+00 3.000000e+01
    endloop
  endfacet
  facet normal 5.511689e-16 2.344760e-14 1.000000e+00
    outer loop
      vertex 1.900000e+01 -4.762505e+00 3.000000e+01
      vertex 1.100000e+01 -7.762505e+00 3.000000e+01
      vertex 1.100000e+01 -1.376250e+01 3.000000e+01
    endloop
  endfacet
  facet normal 5.511689e-16 2.344760e-14 1.000000e+00
    outer loop
      vertex 1.900000e+01 -4.762505e+00 3.000000e+01
      vertex 1.100000e+01 -1.376250e+01 3.000000e+01
      vertex 1.900000e+01 -1.376250e+01 3.000000e+01
    endloop
  endfacet
  facet normal 9.987524e-01 1.139717e-14 4.993762e-02
    outer loop
      vertex 1.900000e+01 -1.376250e+01 3.000000e+01
      vertex 2.050000e+01 -4.762505e+00 0.000000e+00
      vertex 1.900000e+01 -4.762505e+00 3.000000e+01
    endloop
  endfacet
  facet normal 9.987524e-01 1.139717e-14 4.993762e-02
    outer loop
      vertex 2.050000e+01 -4.762505e+00 0.000000e+00
      vertex 1.900000e+01 -1.376250e+01 3.000000e+01
      vertex 2.050000e+01 -1.376250e+01 0.000000e+00
    endloop
  endfacet
  facet normal 7.860849e-15 1.000000e+00 -2.356450e-14
    outer loop
      vertex 1.900000e+01 -4.762505e+00 3.000000e+01
      vertex 1.561853e+01 -4.762505e+00 2.669840e+01
      vertex 1.516321e+01 -4.762505e+00 2.673534e+01
    endloop
  endfacet
  facet normal 7.860849e-15 1.000000e+00 -2.356450e-14
    outer loop
      vertex 1.561853e+01 -4.762505e+00 2.669840e+01
      vertex 1.900000e+01 -4.762505e+00 3.000000e+01
      vertex 1.604883e+01 -4.762505e+00 2.654488e+01
    endloop
  endfacet
  facet normal 7.860849e-15 1.000000e+00 -2.356450e-14
    outer loop
      vertex 1.604883e+01 -4.762505e+00 2.654488e+01
      vertex 1.900000e+01 -4.762505e+00 3.000000e+01
      vertex 1.642468e+01 -4.762505e+00 2.628521e+01
    endloop
  endfacet
  facet normal 7.860849e-15 1.000000e+00 -2.356450e-14
    outer loop
      vertex 1.642468e+01 -4.762505e+00 2.628521e+01
      vertex 1.900000e+01 -4.762505e+00 3.000000e+01
      vertex 1.672058e+01 -4.762505e+00 2.593712e+01
    endloop
  endfacet
  facet normal 7.860849e-15 1.000000e+00 -2.356450e-14
    outer loop
      vertex 1.672058e+01 -4.762505e+00 2.593712e+01
      vertex 1.900000e+01 -4.762505e+00 3.000000e+01
      vertex 1.691626e+01 -4.762505e+00 2.552431e+01
    endloop
  endfacet
  facet normal 7.860849e-15 1.000000e+00 -2.356450e-14
    outer loop
      vertex 1.691626e+01 -4.762505e+00 2.552431e+01
      vertex 1.900000e+01 -4.762505e+00 3.000000e+01
      vertex 1.699841e+01 -4.762505e+00 2.507491e+01
    endloop
  endfacet
  facet normal 7.860849e-15 1.000000e+00 -2.356450e-14
    outer loop
      vertex 1.699841e+01 -4.762505e+00 2.507491e+01
      vertex 1.900000e+01 -4.762505e+00 3.000000e+01
      vertex 2.050000e+01 -4.762505e+00 0.000000e+00
    endloop
  endfacet
  facet normal 7.860849e-15 1.000000e+00 -2.356450e-14
    outer loop
      vertex 1.699841e+01 -4.762505e+00 2.507491e+01
      vertex 2.050000e+01 -4.762505e+00 0.000000e+00
      vertex 1.799719e+01 -4.762505e+00 5.099869e+00
    endloop
  endfacet
  facet normal 7.860849e-15 1.000000e+00 -2.356450e-14
    outer loop
      vertex 1.799719e+01 -4.762505e+00 5.099869e+00
      vertex 2.050000e+01 -4.762505e+00 0.000000e+00
      vertex 1.796027e+01 -4.762505e+00 4.644524e+00
    endloop
  endfacet
  facet normal 7.860849e-15 1.000000e+00 -2.356450e-14
    outer loop
      vertex 1.796027e+01 -4.762505e+00 4.644524e+00
      vertex 2.050000e+01 -4.762505e+00 0.000000e+00
      vertex 1.780670e+01 -4.762505e+00 4.214252e+00
    endloop
  endfacet
  facet normal 7.860849e-15 1.000000e+00 -2.356450e-14
    outer loop
      vertex 1.780670e+01 -4.762505e+00 4.214252e+00
      vertex 2.050000e+01 -4.762505e+00 0.000000e+00
      vertex 1.754706e+01 -4.762505e+00 3.838379e+00
    endloop
  endfacet
  facet normal 7.860849e-15 1.000000e+00 -2.356450e-14
    outer loop
      vertex 1.754706e+01 -4.762505e+00 3.838379e+00
      vertex 2.050000e+01 -4.762505e+00 0.000000e+00
      vertex 1.719897e+01 -4.762505e+00 3.542519e+00
    endloop
  endfacet
  facet normal 7.860849e-15 1.000000e+00 -2.356450e-14
    outer loop
      vertex 1.719897e+01 -4.762505e+00 3.542519e+00
      vertex 2.050000e+01 -4.762505e+00 0.000000e+00
      vertex 1.678613e+01 -4.762505e+00 3.346836e+00
    endloop
  endfacet
  facet normal 7.860849e-15 1.000000e+00 -2.356450e-14
    outer loop
      vertex 1.678613e+01 -4.762505e+00 3.346836e+00
      vertex 2.050000e+01 -4.762505e+00 0.000000e+00
      vertex 1.633673e+01 -4.762505e+00 3.264660e+00
    endloop
  endfacet
  facet normal 7.860849e-15 1.000000e+00 -2.356450e-14
    outer loop
      vertex 1.471381e+01 -4.762505e+00 2.665317e+01
      vertex -1.516327e+01 -4.762505e+00 2.673534e+01
      vertex 1.516321e+01 -4.762505e+00 2.673534e+01
    endloop
  endfacet
  facet normal 7.860849e-15 1.000000e+00 -2.356450e-14
    outer loop
      vertex -1.516327e+01 -4.762505e+00 2.673534e+01
      vertex 1.471381e+01 -4.762505e+00 2.665317e+01
      vertex -1.471387e+01 -4.762505e+00 2.665317e+01
    endloop
  endfacet
  facet normal 7.860849e-15 1.000000e+00 -2.356450e-14
    outer loop
      vertex -1.471387e+01 -4.762505e+00 2.665317e+01
      vertex 1.471381e+01 -4.762505e+00 2.665317e+01
      vertex 1.430103e+01 -4.762505e+00 2.645748e+01
    endloop
  endfacet
  facet normal 7.860849e-15 1.000000e+00 -2.356450e-14
    outer loop
      vertex -1.471387e+01 -4.762505e+00 2.665317e+01
      vertex 1.430103e+01 -4.762505e+00 2.645748e+01
      vertex -1.430103e+01 -4.762505e+00 2.645748e+01
    endloop
  endfacet
  facet normal 7.860849e-15 1.000000e+00 -2.356450e-14
    outer loop
      vertex -1.430103e+01 -4.762505e+00 2.645748e+01
      vertex 1.430103e+01 -4.762505e+00 2.645748e+01
      vertex 1.395294e+01 -4.762505e+00 2.616162e+01
    endloop
  endfacet
  facet normal 7.860849e-15 1.000000e+00 -2.356450e-14
    outer loop
      vertex -1.430103e+01 -4.762505e+00 2.645748e+01
      vertex 1.395294e+01 -4.762505e+00 2.616162e+01
      vertex -1.395294e+01 -4.762505e+00 2.616162e+01
    endloop
  endfacet
  facet normal 7.860849e-15 1.000000e+00 -2.356450e-14
    outer loop
      vertex -1.395294e+01 -4.762505e+00 2.616162e+01
      vertex 1.395294e+01 -4.762505e+00 2.616162e+01
      vertex 1.369324e+01 -4.762505e+00 2.578575e+01
    endloop
  endfacet
  facet normal 7.860849e-15 1.000000e+00 -2.356450e-14
    outer loop
      vertex -1.395294e+01 -4.762505e+00 2.616162e+01
      vertex 1.369324e+01 -4.762505e+00 2.578575e+01
      vertex -1.369330e+01 -4.762505e+00 2.578575e+01
    endloop
  endfacet
  facet normal 7.860849e-15 1.000000e+00 -2.356450e-14
    outer loop
      vertex -1.369330e+01 -4.762505e+00 2.578575e+01
      vertex 1.369324e+01 -4.762505e+00 2.578575e+01
      vertex 1.353973e+01 -4.762505e+00 2.535548e+01
    endloop
  endfacet
  facet normal 7.860849e-15 1.000000e+00 -2.356450e-14
    outer loop
      vertex -1.369330e+01 -4.762505e+00 2.578575e+01
      vertex 1.353973e+01 -4.762505e+00 2.535548e+01
      vertex -1.353973e+01 -4.762505e+00 2.535548e+01
    endloop
  endfacet
  facet normal 7.860849e-15 1.000000e+00 -2.356450e-14
    outer loop
      vertex -1.353973e+01 -4.762505e+00 2.535548e+01
      vertex 1.353973e+01 -4.762505e+00 2.535548e+01
      vertex 1.350281e+01 -4.762505e+00 2.490013e+01
    endloop
  endfacet
  facet normal 7.860849e-15 1.000000e+00 -2.356450e-14
    outer loop
      vertex -1.353973e+01 -4.762505e+00 2.535548e+01
      vertex 1.350281e+01 -4.762505e+00 2.490013e+01
      vertex -1.350281e+01 -4.762505e+00 2.490013e+01
    endloop
  endfacet
  facet normal 7.860849e-15 1.000000e+00 -2.356450e-14
    outer loop
      vertex -1.350281e+01 -4.762505e+00 2.490013e+01
      vertex 1.350281e+01 -4.762505e+00 2.490013e+01
      vertex 1.000000e+01 -4.762505e+00 1.352500e+01
    endloop
  endfacet
  facet normal 7.860849e-15 1.000000e+00 -2.356450e-14
    outer loop
      vertex 1.000000e+01 -4.762505e+00 1.352500e+01
      vertex 1.350281e+01 -4.762505e+00 2.490013e+01
      vertex 1.450153e+01 -4.762505e+00 4.925087e+00
    endloop
  endfacet
  facet normal 7.860849e-15 1.000000e+00 -2.356450e-14
    outer loop
      vertex -1.350281e+01 -4.762505e+00 2.490013e+01
      vertex 1.000000e+01 -4.762505e+00 1.352500e+01
      vertex -1.000000e+01 -4.762505e+00 1.352500e+01
    endloop
  endfacet
  facet normal 7.860849e-15 1.000000e+00 -2.356450e-14
    outer loop
      vertex 1.000000e+01 -4.762505e+00 1.352500e+01
      vertex 1.450153e+01 -4.762505e+00 4.925087e+00
      vertex 1.000000e+01 -4.762505e+00 0.000000e+00
    endloop
  endfacet
  facet normal 7.860849e-15 1.000000e+00 -2.356450e-14
    outer loop
      vertex 1.000000e+01 -4.762505e+00 0.000000e+00
      vertex 1.450153e+01 -4.762505e+00 4.925087e+00
      vertex 1.458374e+01 -4.762505e+00 4.475697e+00
    endloop
  endfacet
  facet normal 7.860849e-15 1.000000e+00 -2.356450e-14
    outer loop
      vertex 1.000000e+01 -4.762505e+00 0.000000e+00
      vertex 1.458374e+01 -4.762505e+00 4.475697e+00
      vertex 1.477942e+01 -4.762505e+00 4.062885e+00
    endloop
  endfacet
  facet normal 7.860849e-15 1.000000e+00 -2.356450e-14
    outer loop
      vertex 1.000000e+01 -4.762505e+00 0.000000e+00
      vertex 1.477942e+01 -4.762505e+00 4.062885e+00
      vertex 1.507526e+01 -4.762505e+00 3.714790e+00
    endloop
  endfacet
  facet normal 7.860849e-15 1.000000e+00 -2.356450e-14
    outer loop
      vertex 1.000000e+01 -4.762505e+00 0.000000e+00
      vertex 1.507526e+01 -4.762505e+00 3.714790e+00
      vertex 1.545111e+01 -4.762505e+00 3.455128e+00
    endloop
  endfacet
  facet normal 7.860849e-15 1.000000e+00 -2.356450e-14
    outer loop
      vertex 1.000000e+01 -4.762505e+00 0.000000e+00
      vertex 1.545111e+01 -4.762505e+00 3.455128e+00
      vertex 1.588141e+01 -4.762505e+00 3.301598e+00
    endloop
  endfacet
  facet normal 7.860849e-15 1.000000e+00 -2.356450e-14
    outer loop
      vertex 1.000000e+01 -4.762505e+00 0.000000e+00
      vertex 1.588141e+01 -4.762505e+00 3.301598e+00
      vertex 1.633673e+01 -4.762505e+00 3.264660e+00
    endloop
  endfacet
  facet normal 7.860849e-15 1.000000e+00 -2.356450e-14
    outer loop
      vertex 1.000000e+01 -4.762505e+00 0.000000e+00
      vertex 1.633673e+01 -4.762505e+00 3.264660e+00
      vertex 2.050000e+01 -4.762505e+00 0.000000e+00
    endloop
  endfacet
  facet normal 7.860849e-15 1.000000e+00 -2.356450e-14
    outer loop
      vertex -1.000000e+01 -4.762505e+00 1.352500e+01
      vertex -1.450159e+01 -4.762505e+00 4.925087e+00
      vertex -1.350281e+01 -4.762505e+00 2.490013e+01
    endloop
  endfacet
  facet normal 7.860849e-15 1.000000e+00 -2.356450e-14
    outer loop
      vertex -1.450159e+01 -4.762505e+00 4.925087e+00
      vertex -1.000000e+01 -4.762505e+00 1.352500e+01
      vertex -1.000000e+01 -4.762505e+00 0.000000e+00
    endloop
  endfacet
  facet normal 7.860849e-15 1.000000e+00 -2.356450e-14
    outer loop
      vertex -1.450159e+01 -4.762505e+00 4.925087e+00
      vertex -1.000000e+01 -4.762505e+00 0.000000e+00
      vertex -1.458374e+01 -4.762505e+00 4.475697e+00
    endloop
  endfacet
  facet normal 7.860849e-15 1.000000e+00 -2.356450e-14
    outer loop
      vertex -1.458374e+01 -4.762505e+00 4.475697e+00
      vertex -1.000000e+01 -4.762505e+00 0.000000e+00
      vertex -1.477942e+01 -4.762505e+00 4.062885e+00
    endloop
  endfacet
  facet normal 7.860849e-15 1.000000e+00 -2.356450e-14
    outer loop
      vertex -1.477942e+01 -4.762505e+00 4.062885e+00
      vertex -1.000000e+01 -4.762505e+00 0.000000e+00
      vertex -1.507532e+01 -4.762505e+00 3.714790e+00
    endloop
  endfacet
  facet normal 7.860849e-15 1.000000e+00 -2.356450e-14
    outer loop
      vertex -1.507532e+01 -4.762505e+00 3.714790e+00
      vertex -1.000000e+01 -4.762505e+00 0.000000e+00
      vertex -1.545117e+01 -4.762505e+00 3.455128e+00
    endloop
  endfacet
  facet normal 7.860849e-15 1.000000e+00 -2.356450e-14
    outer loop
      vertex -1.545117e+01 -4.762505e+00 3.455128e+00
      vertex -1.000000e+01 -4.762505e+00 0.000000e+00
      vertex -1.588147e+01 -4.762505e+00 3.301598e+00
    endloop
  endfacet
  facet normal 7.860849e-15 1.000000e+00 -2.356450e-14
    outer loop
      vertex -1.588147e+01 -4.762505e+00 3.301598e+00
      vertex -1.000000e+01 -4.762505e+00 0.000000e+00
      vertex -1.633679e+01 -4.762505e+00 3.264660e+00
    endloop
  endfacet
  facet normal 7.860849e-15 1.000000e+00 -2.356450e-14
    outer loop
      vertex -1.900000e+01 -4.762505e+00 3.000000e+01
      vertex -1.699847e+01 -4.762505e+00 2.507491e+01
      vertex -2.050000e+01 -4.762505e+00 0.000000e+00
    endloop
  endfacet
  facet normal 7.860849e-15 1.000000e+00 -2.356450e-14
    outer loop
      vertex -1.699847e+01 -4.762505e+00 2.507491e+01
      vertex -1.900000e+01 -4.762505e+00 3.000000e+01
      vertex -1.691626e+01 -4.762505e+00 2.552431e+01
    endloop
  endfacet
  facet normal 7.860849e-15 1.000000e+00 -2.356450e-14
    outer loop
      vertex -1.691626e+01 -4.762505e+00 2.552431e+01
      vertex -1.900000e+01 -4.762505e+00 3.000000e+01
      vertex -1.672058e+01 -4.762505e+00 2.593712e+01
    endloop
  endfacet
  facet normal 7.860849e-15 1.000000e+00 -2.356450e-14
    outer loop
      vertex -1.672058e+01 -4.762505e+00 2.593712e+01
      vertex -1.900000e+01 -4.762505e+00 3.000000e+01
      vertex -1.642474e+01 -4.762505e+00 2.628521e+01
    endloop
  endfacet
  facet normal 7.860849e-15 1.000000e+00 -2.356450e-14
    outer loop
      vertex -1.642474e+01 -4.762505e+00 2.628521e+01
      vertex -1.900000e+01 -4.762505e+00 3.000000e+01
      vertex -1.604889e+01 -4.762505e+00 2.654488e+01
    endloop
  endfacet
  facet normal 7.860849e-15 1.000000e+00 -2.356450e-14
    outer loop
      vertex -1.604889e+01 -4.762505e+00 2.654488e+01
      vertex -1.900000e+01 -4.762505e+00 3.000000e+01
      vertex -1.561859e+01 -4.762505e+00 2.669840e+01
    endloop
  endfacet
  facet normal 7.860849e-15 1.000000e+00 -2.356450e-14
    outer loop
      vertex -1.561859e+01 -4.762505e+00 2.669840e+01
      vertex -1.900000e+01 -4.762505e+00 3.000000e+01
      vertex 1.900000e+01 -4.762505e+00 3.000000e+01
    endloop
  endfacet
  facet normal 7.860849e-15 1.000000e+00 -2.356450e-14
    outer loop
      vertex -1.561859e+01 -4.762505e+00 2.669840e+01
      vertex 1.900000e+01 -4.762505e+00 3.000000e+01
      vertex -1.516327e+01 -4.762505e+00 2.673534e+01
    endloop
  endfacet
  facet normal 7.860849e-15 1.000000e+00 -2.356450e-14
    outer loop
      vertex -1.516327e+01 -4.762505e+00 2.673534e+01
      vertex 1.900000e+01 -4.762505e+00 3.000000e+01
      vertex 1.516321e+01 -4.762505e+00 2.673534e+01
    endloop
  endfacet
  facet normal 7.860849e-15 1.000000e+00 -2.356450e-14
    outer loop
      vertex -2.050000e+01 -4.762505e+00 0.000000e+00
      vertex -1.699847e+01 -4.762505e+00 2.507491e+01
      vertex -1.799719e+01 -4.762505e+00 5.099869e+00
    endloop
  endfacet
  facet normal 7.860849e-15 1.000000e+00 -2.356450e-14
    outer loop
      vertex -2.050000e+01 -4.762505e+00 0.000000e+00
      vertex -1.799719e+01 -4.762505e+00 5.099869e+00
      vertex -1.796027e+01 -4.762505e+00 4.644524e+00
    endloop
  endfacet
  facet normal 7.860849e-15 1.000000e+00 -2.356450e-14
    outer loop
      vertex -2.050000e+01 -4.762505e+00 0.000000e+00
      vertex -1.796027e+01 -4.762505e+00 4.644524e+00
      vertex -1.780676e+01 -4.762505e+00 4.214252e+00
    endloop
  endfacet
  facet normal 7.860849e-15 1.000000e+00 -2.356450e-14
    outer loop
      vertex -2.050000e+01 -4.762505e+00 0.000000e+00
      vertex -1.780676e+01 -4.762505e+00 4.214252e+00
      vertex -1.754706e+01 -4.762505e+00 3.838379e+00
    endloop
  endfacet
  facet normal 7.860849e-15 1.000000e+00 -2.356450e-14
    outer loop
      vertex -2.050000e+01 -4.762505e+00 0.000000e+00
      vertex -1.754706e+01 -4.762505e+00 3.838379e+00
      vertex -1.719897e+01 -4.762505e+00 3.542519e+00
    endloop
  endfacet
  facet normal 7.860849e-15 1.000000e+00 -2.356450e-14
    outer loop
      vertex -2.050000e+01 -4.762505e+00 0.000000e+00
      vertex -1.719897e+01 -4.762505e+00 3.542519e+00
      vertex -1.678619e+01 -4.762505e+00 3.346836e+00
    endloop
  endfacet
  facet normal 7.860849e-15 1.000000e+00 -2.356450e-14
    outer loop
      vertex -2.050000e+01 -4.762505e+00 0.000000e+00
      vertex -1.678619e+01 -4.762505e+00 3.346836e+00
      vertex -1.633679e+01 -4.762505e+00 3.264660e+00
    endloop
  endfacet
  facet normal 7.860849e-15 1.000000e+00 -2.356450e-14
    outer loop
      vertex -2.050000e+01 -4.762505e+00 0.000000e+00
      vertex -1.633679e+01 -4.762505e+00 3.264660e+00
      vertex -1.000000e+01 -4.762505e+00 0.000000e+00
    endloop
  endfacet
  facet normal 3.471298e-14 -1.000000e+00 2.643506e-14
    outer loop
      vertex 1.100000e+01 -1.376250e+01 3.000000e+01
      vertex 1.430103e+01 -1.376250e+01 2.645748e+01
      vertex 1.900000e+01 -1.376250e+01 3.000000e+01
    endloop
  endfacet
  facet normal 3.471298e-14 -1.000000e+00 2.643506e-14
    outer loop
      vertex 1.430103e+01 -1.376250e+01 2.645748e+01
      vertex 1.100000e+01 -1.376250e+01 3.000000e+01
      vertex 1.395294e+01 -1.376250e+01 2.616162e+01
    endloop
  endfacet
  facet normal 3.471298e-14 -1.000000e+00 2.643506e-14
    outer loop
      vertex 1.395294e+01 -1.376250e+01 2.616162e+01
      vertex 1.100000e+01 -1.376250e+01 3.000000e+01
      vertex 1.369324e+01 -1.376250e+01 2.578575e+01
    endloop
  endfacet
  facet normal 3.471298e-14 -1.000000e+00 2.643506e-14
    outer loop
      vertex 1.369324e+01 -1.376250e+01 2.578575e+01
      vertex 1.100000e+01 -1.376250e+01 3.000000e+01
      vertex 1.353973e+01 -1.376250e+01 2.535548e+01
    endloop
  endfacet
  facet normal 3.471298e-14 -1.000000e+00 2.643506e-14
    outer loop
      vertex 1.353973e+01 -1.376250e+01 2.535548e+01
      vertex 1.100000e+01 -1.376250e+01 3.000000e+01
      vertex 1.350281e+01 -1.376250e+01 2.490013e+01
    endloop
  endfacet
  facet normal 3.471298e-14 -1.000000e+00 2.643506e-14
    outer loop
      vertex 1.350281e+01 -1.376250e+01 2.490013e+01
      vertex 1.100000e+01 -1.376250e+01 3.000000e+01
      vertex 1.250000e+01 -1.376250e+01 0.000000e+00
    endloop
  endfacet
  facet normal 3.471298e-14 -1.000000e+00 2.643506e-14
    outer loop
      vertex 1.900000e+01 -1.376250e+01 3.000000e+01
      vertex 1.430103e+01 -1.376250e+01 2.645748e+01
      vertex 1.471381e+01 -1.376250e+01 2.665317e+01
    endloop
  endfacet
  facet normal 3.471298e-14 -1.000000e+00 2.643506e-14
    outer loop
      vertex 1.900000e+01 -1.376250e+01 3.000000e+01
      vertex 1.471381e+01 -1.376250e+01 2.665317e+01
      vertex 1.516321e+01 -1.376250e+01 2.673534e+01
    endloop
  endfacet
  facet normal 3.471298e-14 -1.000000e+00 2.643506e-14
    outer loop
      vertex 1.350281e+01 -1.376250e+01 2.490013e+01
      vertex 1.250000e+01 -1.376250e+01 0.000000e+00
      vertex 1.450153e+01 -1.376250e+01 4.925087e+00
    endloop
  endfacet
  facet normal 3.471298e-14 -1.000000e+00 2.643506e-14
    outer loop
      vertex 1.450153e+01 -1.376250e+01 4.925087e+00
      vertex 1.250000e+01 -1.376250e+01 0.000000e+00
      vertex 1.458374e+01 -1.376250e+01 4.475697e+00
    endloop
  endfacet
  facet normal 3.471298e-14 -1.000000e+00 2.643506e-14
    outer loop
      vertex 1.458374e+01 -1.376250e+01 4.475697e+00
      vertex 1.250000e+01 -1.376250e+01 0.000000e+00
      vertex 1.477942e+01 -1.376250e+01 4.062885e+00
    endloop
  endfacet
  facet normal 3.471298e-14 -1.000000e+00 2.643506e-14
    outer loop
      vertex 1.477942e+01 -1.376250e+01 4.062885e+00
      vertex 1.250000e+01 -1.376250e+01 0.000000e+00
      vertex 1.507526e+01 -1.376250e+01 3.714790e+00
    endloop
  endfacet
  facet normal 3.471298e-14 -1.000000e+00 2.643506e-14
    outer loop
      vertex 1.507526e+01 -1.376250e+01 3.714790e+00
      vertex 1.250000e+01 -1.376250e+01 0.000000e+00
      vertex 1.545111e+01 -1.376250e+01 3.455128e+00
    endloop
  endfacet
  facet normal 3.471298e-14 -1.000000e+00 2.643506e-14
    outer loop
      vertex 1.545111e+01 -1.376250e+01 3.455128e+00
      vertex 1.250000e+01 -1.376250e+01 0.000000e+00
      vertex 1.588141e+01 -1.376250e+01 3.301598e+00
    endloop
  endfacet
  facet normal 3.471298e-14 -1.000000e+00 2.643506e-14
    outer loop
      vertex 1.588141e+01 -1.376250e+01 3.301598e+00
      vertex 1.250000e+01 -1.376250e+01 0.000000e+00
      vertex 1.633673e+01 -1.376250e+01 3.264660e+00
    endloop
  endfacet
  facet normal 3.471298e-14 -1.000000e+00 2.643506e-14
    outer loop
      vertex 1.900000e+01 -1.376250e+01 3.000000e+01
      vertex 1.699841e+01 -1.376250e+01 2.507491e+01
      vertex 2.050000e+01 -1.376250e+01 0.000000e+00
    endloop
  endfacet
  facet normal 3.471298e-14 -1.000000e+00 2.643506e-14
    outer loop
      vertex 1.699841e+01 -1.376250e+01 2.507491e+01
      vertex 1.900000e+01 -1.376250e+01 3.000000e+01
      vertex 1.691626e+01 -1.376250e+01 2.552431e+01
    endloop
  endfacet
  facet normal 3.471298e-14 -1.000000e+00 2.643506e-14
    outer loop
      vertex 1.691626e+01 -1.376250e+01 2.552431e+01
      vertex 1.900000e+01 -1.376250e+01 3.000000e+01
      vertex 1.672058e+01 -1.376250e+01 2.593712e+01
    endloop
  endfacet
  facet normal 3.471298e-14 -1.000000e+00 2.643506e-14
    outer loop
      vertex 1.672058e+01 -1.376250e+01 2.593712e+01
      vertex 1.900000e+01 -1.376250e+01 3.000000e+01
      vertex 1.642468e+01 -1.376250e+01 2.628521e+01
    endloop
  endfacet
  facet normal 3.471298e-14 -1.000000e+00 2.643506e-14
    outer loop
      vertex 1.642468e+01 -1.376250e+01 2.628521e+01
      vertex 1.900000e+01 -1.376250e+01 3.000000e+01
      vertex 1.604883e+01 -1.376250e+01 2.654488e+01
    endloop
  endfacet
  facet normal 3.471298e-14 -1.000000e+00 2.643506e-14
    outer loop
      vertex 1.604883e+01 -1.376250e+01 2.654488e+01
      vertex 1.900000e+01 -1.376250e+01 3.000000e+01
      vertex 1.561853e+01 -1.376250e+01 2.669840e+01
    endloop
  endfacet
  facet normal 3.471298e-14 -1.000000e+00 2.643506e-14
    outer loop
      vertex 1.561853e+01 -1.376250e+01 2.669840e+01
      vertex 1.900000e+01 -1.376250e+01 3.000000e+01
      vertex 1.516321e+01 -1.376250e+01 2.673534e+01
    endloop
  endfacet
  facet normal 3.471298e-14 -1.000000e+00 2.643506e-14
    outer loop
      vertex 2.050000e+01 -1.376250e+01 0.000000e+00
      vertex 1.699841e+01 -1.376250e+01 2.507491e+01
      vertex 1.799719e+01 -1.376250e+01 5.099869e+00
    endloop
  endfacet
  facet normal 3.471298e-14 -1.000000e+00 2.643506e-14
    outer loop
      vertex 2.050000e+01 -1.376250e+01 0.000000e+00
      vertex 1.799719e+01 -1.376250e+01 5.099869e+00
      vertex 1.796027e+01 -1.376250e+01 4.644524e+00
    endloop
  endfacet
  facet normal 3.471298e-14 -1.000000e+00 2.643506e-14
    outer loop
      vertex 2.050000e+01 -1.376250e+01 0.000000e+00
      vertex 1.796027e+01 -1.376250e+01 4.644524e+00
      vertex 1.780670e+01 -1.376250e+01 4.214252e+00
    endloop
  endfacet
  facet normal 3.471298e-14 -1.000000e+00 2.643506e-14
    outer loop
      vertex 2.050000e+01 -1.376250e+01 0.000000e+00
      vertex 1.780670e+01 -1.376250e+01 4.214252e+00
      vertex 1.754706e+01 -1.376250e+01 3.838379e+00
    endloop
  endfacet
  facet normal 3.471298e-14 -1.000000e+00 2.643506e-14
    outer loop
      vertex 2.050000e+01 -1.376250e+01 0.000000e+00
      vertex 1.754706e+01 -1.376250e+01 3.838379e+00
      vertex 1.719897e+01 -1.376250e+01 3.542519e+00
    endloop
  endfacet
  facet normal 3.471298e-14 -1.000000e+00 2.643506e-14
    outer loop
      vertex 2.050000e+01 -1.376250e+01 0.000000e+00
      vertex 1.719897e+01 -1.376250e+01 3.542519e+00
      vertex 1.678613e+01 -1.376250e+01 3.346836e+00
    endloop
  endfacet
  facet normal 3.471298e-14 -1.000000e+00 2.643506e-14
    outer loop
      vertex 2.050000e+01 -1.376250e+01 0.000000e+00
      vertex 1.678613e+01 -1.376250e+01 3.346836e+00
      vertex 1.633673e+01 -1.376250e+01 3.264660e+00
    endloop
  endfacet
  facet normal 3.471298e-14 -1.000000e+00 2.643506e-14
    outer loop
      vertex 2.050000e+01 -1.376250e+01 0.000000e+00
      vertex 1.633673e+01 -1.376250e+01 3.264660e+00
      vertex 1.250000e+01 -1.376250e+01 0.000000e+00
    endloop
  endfacet
  facet normal -4.283423e-01 -8.155896e-17 -9.036165e-01
    outer loop
      vertex -1.430103e+01 -4.762505e+00 2.645748e+01
      vertex -1.471387e+01 -1.376250e+01 2.665317e+01
      vertex -1.471387e+01 -4.762505e+00 2.665317e+01
    endloop
  endfacet
  facet normal -4.283423e-01 -8.155896e-17 -9.036165e-01
    outer loop
      vertex -1.471387e+01 -1.376250e+01 2.665317e+01
      vertex -1.430103e+01 -4.762505e+00 2.645748e+01
      vertex -1.430103e+01 -1.376250e+01 2.645748e+01
    endloop
  endfacet
  facet normal -5.683838e-01 1.557627e-17 8.227636e-01
    outer loop
      vertex -1.507532e+01 -1.376250e+01 3.714790e+00
      vertex -1.545117e+01 -4.762505e+00 3.455128e+00
      vertex -1.545117e+01 -1.376250e+01 3.455128e+00
    endloop
  endfacet
  facet normal -5.683838e-01 1.557627e-17 8.227636e-01
    outer loop
      vertex -1.545117e+01 -4.762505e+00 3.455128e+00
      vertex -1.507532e+01 -1.376250e+01 3.714790e+00
      vertex -1.507532e+01 -4.762505e+00 3.714790e+00
    endloop
  endfacet
  facet normal 9.987524e-01 5.809815e-17 -4.993762e-02
    outer loop
      vertex -1.699847e+01 -1.376250e+01 2.507491e+01
      vertex -1.799719e+01 -4.762505e+00 5.099869e+00
      vertex -1.699847e+01 -4.762505e+00 2.507491e+01
    endloop
  endfacet
  facet normal 9.987524e-01 5.809815e-17 -4.993762e-02
    outer loop
      vertex -1.799719e+01 -4.762505e+00 5.099869e+00
      vertex -1.699847e+01 -1.376250e+01 2.507491e+01
      vertex -1.799719e+01 -1.376250e+01 5.099869e+00
    endloop
  endfacet
  facet normal -9.987524e-01 -5.809815e-17 4.993762e-02
    outer loop
      vertex -1.450159e+01 -1.376250e+01 4.925087e+00
      vertex -1.350281e+01 -4.762505e+00 2.490013e+01
      vertex -1.450159e+01 -4.762505e+00 4.925087e+00
    endloop
  endfacet
  facet normal -9.987524e-01 -5.809815e-17 4.993762e-02
    outer loop
      vertex -1.350281e+01 -4.762505e+00 2.490013e+01
      vertex -1.450159e+01 -1.376250e+01 4.925087e+00
      vertex -1.350281e+01 -1.376250e+01 2.490013e+01
    endloop
  endfacet
  facet normal -6.476201e-01 -8.631209e-17 -7.619634e-01
    outer loop
      vertex -1.395294e+01 -4.762505e+00 2.616162e+01
      vertex -1.430103e+01 -1.376250e+01 2.645748e+01
      vertex -1.430103e+01 -4.762505e+00 2.645748e+01
    endloop
  endfacet
  facet normal -6.476201e-01 -8.631209e-17 -7.619634e-01
    outer loop
      vertex -1.430103e+01 -1.376250e+01 2.645748e+01
      vertex -1.395294e+01 -4.762505e+00 2.616162e+01
      vertex -1.395294e+01 -1.376250e+01 2.616162e+01
    endloop
  endfacet
  facet normal 8.227636e-01 8.518321e-17 5.683838e-01
    outer loop
      vertex -1.780676e+01 -1.376250e+01 4.214252e+00
      vertex -1.754706e+01 -4.762505e+00 3.838379e+00
      vertex -1.780676e+01 -4.762505e+00 4.214252e+00
    endloop
  endfacet
  facet normal 8.227636e-01 8.518321e-17 5.683838e-01
    outer loop
      vertex -1.754706e+01 -4.762505e+00 3.838379e+00
      vertex -1.780676e+01 -1.376250e+01 4.214252e+00
      vertex -1.754706e+01 -1.376250e+01 3.838379e+00
    endloop
  endfacet
  facet normal -3.360696e-01 3.709256e-17 9.418371e-01
    outer loop
      vertex -1.545117e+01 -1.376250e+01 3.455128e+00
      vertex -1.588147e+01 -4.762505e+00 3.301598e+00
      vertex -1.588147e+01 -1.376250e+01 3.301598e+00
    endloop
  endfacet
  facet normal -3.360696e-01 3.709256e-17 9.418371e-01
    outer loop
      vertex -1.588147e+01 -4.762505e+00 3.301598e+00
      vertex -1.545117e+01 -1.376250e+01 3.455128e+00
      vertex -1.545117e+01 -4.762505e+00 3.455128e+00
    endloop
  endfacet
  facet normal 6.476201e-01 -7.001511e-18 -7.619634e-01
    outer loop
      vertex 1.430103e+01 -4.762505e+00 2.645748e+01
      vertex 1.395294e+01 -1.376250e+01 2.616162e+01
      vertex 1.395294e+01 -4.762505e+00 2.616162e+01
    endloop
  endfacet
  facet normal 6.476201e-01 -7.001511e-18 -7.619634e-01
    outer loop
      vertex 1.395294e+01 -1.376250e+01 2.616162e+01
      vertex 1.430103e+01 -4.762505e+00 2.645748e+01
      vertex 1.430103e+01 -1.376250e+01 2.645748e+01
    endloop
  endfacet
  facet normal 5.683838e-01 8.415385e-17 8.227636e-01
    outer loop
      vertex 1.545111e+01 -1.376250e+01 3.455128e+00
      vertex 1.507526e+01 -4.762505e+00 3.714790e+00
      vertex 1.507526e+01 -1.376250e+01 3.714790e+00
    endloop
  endfacet
  facet normal 5.683838e-01 8.415385e-17 8.227636e-01
    outer loop
      vertex 1.507526e+01 -4.762505e+00 3.714790e+00
      vertex 1.545111e+01 -1.376250e+01 3.455128e+00
      vertex 1.545111e+01 -4.762505e+00 3.455128e+00
    endloop
  endfacet
  facet normal 9.418371e-01 3.794540e-17 -3.360696e-01
    outer loop
      vertex 1.369324e+01 -1.376250e+01 2.578575e+01
      vertex 1.353973e+01 -4.762505e+00 2.535548e+01
      vertex 1.369324e+01 -4.762505e+00 2.578575e+01
    endloop
  endfacet
  facet normal 9.418371e-01 3.794540e-17 -3.360696e-01
    outer loop
      vertex 1.353973e+01 -4.762505e+00 2.535548e+01
      vertex 1.369324e+01 -1.376250e+01 2.578575e+01
      vertex 1.353973e+01 -1.376250e+01 2.535548e+01
    endloop
  endfacet
  facet normal 7.619634e-01 8.769202e-17 6.476201e-01
    outer loop
      vertex 1.477942e+01 -1.376250e+01 4.062885e+00
      vertex 1.507526e+01 -4.762505e+00 3.714790e+00
      vertex 1.477942e+01 -4.762505e+00 4.062885e+00
    endloop
  endfacet
  facet normal 7.619634e-01 8.769202e-17 6.476201e-01
    outer loop
      vertex 1.507526e+01 -4.762505e+00 3.714790e+00
      vertex 1.477942e+01 -1.376250e+01 4.062885e+00
      vertex 1.507526e+01 -1.376250e+01 3.714790e+00
    endloop
  endfacet
  facet normal -1.798737e-01 -7.124771e-17 -9.836897e-01
    outer loop
      vertex -1.471387e+01 -4.762505e+00 2.665317e+01
      vertex -1.516327e+01 -1.376250e+01 2.673534e+01
      vertex -1.516327e+01 -4.762505e+00 2.673534e+01
    endloop
  endfacet
  facet normal -1.798737e-01 -7.124771e-17 -9.836897e-01
    outer loop
      vertex -1.516327e+01 -1.376250e+01 2.673534e+01
      vertex -1.471387e+01 -4.762505e+00 2.665317e+01
      vertex -1.471387e+01 -1.376250e+01 2.665317e+01
    endloop
  endfacet
  facet normal 4.283423e-01 8.155896e-17 9.036165e-01
    outer loop
      vertex -1.678619e+01 -1.376250e+01 3.346836e+00
      vertex -1.719897e+01 -4.762505e+00 3.542519e+00
      vertex -1.719897e+01 -1.376250e+01 3.542519e+00
    endloop
  endfacet
  facet normal 4.283423e-01 8.155896e-17 9.036165e-01
    outer loop
      vertex -1.719897e+01 -4.762505e+00 3.542519e+00
      vertex -1.678619e+01 -1.376250e+01 3.346836e+00
      vertex -1.678619e+01 -4.762505e+00 3.346836e+00
    endloop
  endfacet
  facet normal 4.283423e-01 -2.910215e-17 -9.036165e-01
    outer loop
      vertex 1.471381e+01 -4.762505e+00 2.665317e+01
      vertex 1.430103e+01 -1.376250e+01 2.645748e+01
      vertex 1.430103e+01 -4.762505e+00 2.645748e+01
    endloop
  endfacet
  facet normal 4.283423e-01 -2.910215e-17 -9.036165e-01
    outer loop
      vertex 1.430103e+01 -1.376250e+01 2.645748e+01
      vertex 1.471381e+01 -4.762505e+00 2.665317e+01
      vertex 1.471381e+01 -1.376250e+01 2.665317e+01
    endloop
  endfacet
  facet normal 9.967260e-01 5.608105e-17 -8.085295e-02
    outer loop
      vertex 1.353973e+01 -1.376250e+01 2.535548e+01
      vertex 1.350281e+01 -4.762505e+00 2.490013e+01
      vertex 1.353973e+01 -4.762505e+00 2.535548e+01
    endloop
  endfacet
  facet normal 9.967260e-01 5.608105e-17 -8.085295e-02
    outer loop
      vertex 1.350281e+01 -4.762505e+00 2.490013e+01
      vertex 1.353973e+01 -1.376250e+01 2.535548e+01
      vertex 1.350281e+01 -1.376250e+01 2.490013e+01
    endloop
  endfacet
  facet normal -9.967260e-01 -5.608105e-17 8.085295e-02
    outer loop
      vertex 1.796027e+01 -1.376250e+01 4.644524e+00
      vertex 1.799719e+01 -4.762505e+00 5.099869e+00
      vertex 1.796027e+01 -4.762505e+00 4.644524e+00
    endloop
  endfacet
  facet normal -9.967260e-01 -5.608105e-17 8.085295e-02
    outer loop
      vertex 1.799719e+01 -4.762505e+00 5.099869e+00
      vertex 1.796027e+01 -1.376250e+01 4.644524e+00
      vertex 1.799719e+01 -1.376250e+01 5.099869e+00
    endloop
  endfacet
  facet normal 9.967260e-01 6.598268e-17 8.085295e-02
    outer loop
      vertex -1.799719e+01 -1.376250e+01 5.099869e+00
      vertex -1.796027e+01 -4.762505e+00 4.644524e+00
      vertex -1.799719e+01 -4.762505e+00 5.099869e+00
    endloop
  endfacet
  facet normal 9.967260e-01 6.598268e-17 8.085295e-02
    outer loop
      vertex -1.796027e+01 -4.762505e+00 4.644524e+00
      vertex -1.799719e+01 -1.376250e+01 5.099869e+00
      vertex -1.796027e+01 -1.376250e+01 4.644524e+00
    endloop
  endfacet
  facet normal 9.418371e-01 7.824922e-17 3.360696e-01
    outer loop
      vertex -1.796027e+01 -1.376250e+01 4.644524e+00
      vertex -1.780676e+01 -4.762505e+00 4.214252e+00
      vertex -1.796027e+01 -4.762505e+00 4.644524e+00
    endloop
  endfacet
  facet normal 9.418371e-01 7.824922e-17 3.360696e-01
    outer loop
      vertex -1.780676e+01 -4.762505e+00 4.214252e+00
      vertex -1.796027e+01 -1.376250e+01 4.644524e+00
      vertex -1.780676e+01 -1.376250e+01 4.214252e+00
    endloop
  endfacet
  facet normal -7.619634e-01 -7.001511e-18 6.476201e-01
    outer loop
      vertex -1.507532e+01 -1.376250e+01 3.714790e+00
      vertex -1.477942e+01 -4.762505e+00 4.062885e+00
      vertex -1.507532e+01 -4.762505e+00 3.714790e+00
    endloop
  endfacet
  facet normal -7.619634e-01 -7.001511e-18 6.476201e-01
    outer loop
      vertex -1.477942e+01 -4.762505e+00 4.062885e+00
      vertex -1.507532e+01 -1.376250e+01 3.714790e+00
      vertex -1.477942e+01 -1.376250e+01 4.062885e+00
    endloop
  endfacet
  facet normal 3.360696e-01 -3.709256e-17 -9.418371e-01
    outer loop
      vertex -1.561859e+01 -4.762505e+00 2.669840e+01
      vertex -1.604889e+01 -1.376250e+01 2.654488e+01
      vertex -1.604889e+01 -4.762505e+00 2.654488e+01
    endloop
  endfacet
  facet normal 3.360696e-01 -3.709256e-17 -9.418371e-01
    outer loop
      vertex -1.604889e+01 -1.376250e+01 2.654488e+01
      vertex -1.561859e+01 -4.762505e+00 2.669840e+01
      vertex -1.561859e+01 -1.376250e+01 2.669840e+01
    endloop
  endfacet
  facet normal 9.036165e-01 2.910215e-17 -4.283423e-01
    outer loop
      vertex -1.672058e+01 -1.376250e+01 2.593712e+01
      vertex -1.691626e+01 -4.762505e+00 2.552431e+01
      vertex -1.672058e+01 -4.762505e+00 2.593712e+01
    endloop
  endfacet
  facet normal 9.036165e-01 2.910215e-17 -4.283423e-01
    outer loop
      vertex -1.691626e+01 -4.762505e+00 2.552431e+01
      vertex -1.672058e+01 -1.376250e+01 2.593712e+01
      vertex -1.691626e+01 -1.376250e+01 2.552431e+01
    endloop
  endfacet
  facet normal -9.967260e-01 -6.598268e-17 -8.085295e-02
    outer loop
      vertex -1.350281e+01 -1.376250e+01 2.490013e+01
      vertex -1.353973e+01 -4.762505e+00 2.535548e+01
      vertex -1.350281e+01 -4.762505e+00 2.490013e+01
    endloop
  endfacet
  facet normal -9.967260e-01 -6.598268e-17 -8.085295e-02
    outer loop
      vertex -1.353973e+01 -4.762505e+00 2.535548e+01
      vertex -1.350281e+01 -1.376250e+01 2.490013e+01
      vertex -1.353973e+01 -1.376250e+01 2.535548e+01
    endloop
  endfacet
  facet normal 1.798737e-01 7.124771e-17 9.836897e-01
    outer loop
      vertex -1.633679e+01 -1.376250e+01 3.264660e+00
      vertex -1.678619e+01 -4.762505e+00 3.346836e+00
      vertex -1.678619e+01 -1.376250e+01 3.346836e+00
    endloop
  endfacet
  facet normal 1.798737e-01 7.124771e-17 9.836897e-01
    outer loop
      vertex -1.678619e+01 -4.762505e+00 3.346836e+00
      vertex -1.633679e+01 -1.376250e+01 3.264660e+00
      vertex -1.633679e+01 -4.762505e+00 3.264660e+00
    endloop
  endfacet
  facet normal -8.085295e-02 5.608105e-17 9.967260e-01
    outer loop
      vertex -1.588147e+01 -1.376250e+01 3.301598e+00
      vertex -1.633679e+01 -4.762505e+00 3.264660e+00
      vertex -1.633679e+01 -1.376250e+01 3.264660e+00
    endloop
  endfacet
  facet normal -8.085295e-02 5.608105e-17 9.967260e-01
    outer loop
      vertex -1.633679e+01 -4.762505e+00 3.264660e+00
      vertex -1.588147e+01 -1.376250e+01 3.301598e+00
      vertex -1.588147e+01 -4.762505e+00 3.301598e+00
    endloop
  endfacet
  facet normal -8.085295e-02 -6.583626e-17 -9.967260e-01
    outer loop
      vertex 1.561853e+01 -4.762505e+00 2.669840e+01
      vertex 1.516321e+01 -1.376250e+01 2.673534e+01
      vertex 1.516321e+01 -4.762505e+00 2.673534e+01
    endloop
  endfacet
  facet normal -8.085295e-02 -6.583626e-17 -9.967260e-01
    outer loop
      vertex 1.516321e+01 -1.376250e+01 2.673534e+01
      vertex 1.561853e+01 -4.762505e+00 2.669840e+01
      vertex 1.561853e+01 -1.376250e+01 2.669840e+01
    endloop
  endfacet
  facet normal -9.836897e-01 -4.921953e-17 1.798737e-01
    outer loop
      vertex -1.458374e+01 -1.376250e+01 4.475697e+00
      vertex -1.450159e+01 -4.762505e+00 4.925087e+00
      vertex -1.458374e+01 -4.762505e+00 4.475697e+00
    endloop
  endfacet
  facet normal -9.836897e-01 -4.921953e-17 1.798737e-01
    outer loop
      vertex -1.450159e+01 -4.762505e+00 4.925087e+00
      vertex -1.458374e+01 -1.376250e+01 4.475697e+00
      vertex -1.450159e+01 -1.376250e+01 4.925087e+00
    endloop
  endfacet
  facet normal 8.085295e-02 -5.608105e-17 -9.967260e-01
    outer loop
      vertex -1.516327e+01 -4.762505e+00 2.673534e+01
      vertex -1.561859e+01 -1.376250e+01 2.669840e+01
      vertex -1.561859e+01 -4.762505e+00 2.669840e+01
    endloop
  endfacet
  facet normal 8.085295e-02 -5.608105e-17 -9.967260e-01
    outer loop
      vertex -1.561859e+01 -1.376250e+01 2.669840e+01
      vertex -1.516327e+01 -4.762505e+00 2.673534e+01
      vertex -1.516327e+01 -1.376250e+01 2.673534e+01
    endloop
  endfacet
  facet normal 9.836897e-01 4.921953e-17 -1.798737e-01
    outer loop
      vertex -1.691626e+01 -1.376250e+01 2.552431e+01
      vertex -1.699847e+01 -4.762505e+00 2.507491e+01
      vertex -1.691626e+01 -4.762505e+00 2.552431e+01
    endloop
  endfacet
  facet normal 9.836897e-01 4.921953e-17 -1.798737e-01
    outer loop
      vertex -1.699847e+01 -4.762505e+00 2.507491e+01
      vertex -1.691626e+01 -1.376250e+01 2.552431e+01
      vertex -1.699847e+01 -1.376250e+01 2.507491e+01
    endloop
  endfacet
  facet normal 8.227636e-01 1.557627e-17 -5.683838e-01
    outer loop
      vertex 1.395294e+01 -1.376250e+01 2.616162e+01
      vertex 1.369324e+01 -4.762505e+00 2.578575e+01
      vertex 1.395294e+01 -4.762505e+00 2.616162e+01
    endloop
  endfacet
  facet normal 8.227636e-01 1.557627e-17 -5.683838e-01
    outer loop
      vertex 1.369324e+01 -4.762505e+00 2.578575e+01
      vertex 1.395294e+01 -1.376250e+01 2.616162e+01
      vertex 1.369324e+01 -1.376250e+01 2.578575e+01
    endloop
  endfacet
  facet normal -9.036165e-01 -2.910215e-17 4.283423e-01
    outer loop
      vertex -1.477942e+01 -1.376250e+01 4.062885e+00
      vertex -1.458374e+01 -4.762505e+00 4.475697e+00
      vertex -1.477942e+01 -4.762505e+00 4.062885e+00
    endloop
  endfacet
  facet normal -9.036165e-01 -2.910215e-17 4.283423e-01
    outer loop
      vertex -1.458374e+01 -4.762505e+00 4.475697e+00
      vertex -1.477942e+01 -1.376250e+01 4.062885e+00
      vertex -1.458374e+01 -1.376250e+01 4.475697e+00
    endloop
  endfacet
  facet normal 6.476201e-01 8.631209e-17 7.619634e-01
    outer loop
      vertex -1.719897e+01 -1.376250e+01 3.542519e+00
      vertex -1.754706e+01 -4.762505e+00 3.838379e+00
      vertex -1.754706e+01 -1.376250e+01 3.838379e+00
    endloop
  endfacet
  facet normal 6.476201e-01 8.631209e-17 7.619634e-01
    outer loop
      vertex -1.754706e+01 -4.762505e+00 3.838379e+00
      vertex -1.719897e+01 -1.376250e+01 3.542519e+00
      vertex -1.719897e+01 -4.762505e+00 3.542519e+00
    endloop
  endfacet
  facet normal 7.619634e-01 7.001511e-18 -6.476201e-01
    outer loop
      vertex -1.642474e+01 -1.376250e+01 2.628521e+01
      vertex -1.672058e+01 -4.762505e+00 2.593712e+01
      vertex -1.642474e+01 -4.762505e+00 2.628521e+01
    endloop
  endfacet
  facet normal 7.619634e-01 7.001511e-18 -6.476201e-01
    outer loop
      vertex -1.672058e+01 -4.762505e+00 2.593712e+01
      vertex -1.642474e+01 -1.376250e+01 2.628521e+01
      vertex -1.672058e+01 -1.376250e+01 2.593712e+01
    endloop
  endfacet
  facet normal 5.683838e-01 -1.557627e-17 -8.227636e-01
    outer loop
      vertex -1.604889e+01 -4.762505e+00 2.654488e+01
      vertex -1.642474e+01 -1.376250e+01 2.628521e+01
      vertex -1.642474e+01 -4.762505e+00 2.628521e+01
    endloop
  endfacet
  facet normal 5.683838e-01 -1.557627e-17 -8.227636e-01
    outer loop
      vertex -1.642474e+01 -1.376250e+01 2.628521e+01
      vertex -1.604889e+01 -4.762505e+00 2.654488e+01
      vertex -1.604889e+01 -1.376250e+01 2.654488e+01
    endloop
  endfacet
  facet normal -9.418371e-01 -7.824922e-17 -3.360696e-01
    outer loop
      vertex -1.353973e+01 -1.376250e+01 2.535548e+01
      vertex -1.369330e+01 -4.762505e+00 2.578575e+01
      vertex -1.353973e+01 -4.762505e+00 2.535548e+01
    endloop
  endfacet
  facet normal -9.418371e-01 -7.824922e-17 -3.360696e-01
    outer loop
      vertex -1.369330e+01 -4.762505e+00 2.578575e+01
      vertex -1.353973e+01 -1.376250e+01 2.535548e+01
      vertex -1.369330e+01 -1.376250e+01 2.578575e+01
    endloop
  endfacet
  facet normal -8.227636e-01 -8.518321e-17 -5.683838e-01
    outer loop
      vertex -1.369330e+01 -1.376250e+01 2.578575e+01
      vertex -1.395294e+01 -4.762505e+00 2.616162e+01
      vertex -1.369330e+01 -4.762505e+00 2.578575e+01
    endloop
  endfacet
  facet normal -8.227636e-01 -8.518321e-17 -5.683838e-01
    outer loop
      vertex -1.395294e+01 -4.762505e+00 2.616162e+01
      vertex -1.369330e+01 -1.376250e+01 2.578575e+01
      vertex -1.395294e+01 -1.376250e+01 2.616162e+01
    endloop
  endfacet
  facet normal 9.987524e-01 7.000177e-17 4.993762e-02
    outer loop
      vertex 1.350281e+01 -1.376250e+01 2.490013e+01
      vertex 1.450153e+01 -4.762505e+00 4.925087e+00
      vertex 1.350281e+01 -4.762505e+00 2.490013e+01
    endloop
  endfacet
  facet normal 9.987524e-01 7.000177e-17 4.993762e-02
    outer loop
      vertex 1.450153e+01 -4.762505e+00 4.925087e+00
      vertex 1.350281e+01 -1.376250e+01 2.490013e+01
      vertex 1.450153e+01 -1.376250e+01 4.925087e+00
    endloop
  endfacet
  facet normal 3.360696e-01 7.885785e-17 9.418371e-01
    outer loop
      vertex 1.588141e+01 -1.376250e+01 3.301598e+00
      vertex 1.545111e+01 -4.762505e+00 3.455128e+00
      vertex 1.545111e+01 -1.376250e+01 3.455128e+00
    endloop
  endfacet
  facet normal 3.360696e-01 7.885785e-17 9.418371e-01
    outer loop
      vertex 1.545111e+01 -4.762505e+00 3.455128e+00
      vertex 1.588141e+01 -1.376250e+01 3.301598e+00
      vertex 1.588141e+01 -4.762505e+00 3.301598e+00
    endloop
  endfacet
  facet normal -7.619634e-01 -8.769202e-17 -6.476201e-01
    outer loop
      vertex 1.672058e+01 -1.376250e+01 2.593712e+01
      vertex 1.642468e+01 -4.762505e+00 2.628521e+01
      vertex 1.672058e+01 -4.762505e+00 2.593712e+01
    endloop
  endfacet
  facet normal -7.619634e-01 -8.769202e-17 -6.476201e-01
    outer loop
      vertex 1.642468e+01 -4.762505e+00 2.628521e+01
      vertex 1.672058e+01 -1.376250e+01 2.593712e+01
      vertex 1.642468e+01 -1.376250e+01 2.628521e+01
    endloop
  endfacet
  facet normal -4.283423e-01 2.910215e-17 9.036165e-01
    outer loop
      vertex 1.719897e+01 -1.376250e+01 3.542519e+00
      vertex 1.678613e+01 -4.762505e+00 3.346836e+00
      vertex 1.678613e+01 -1.376250e+01 3.346836e+00
    endloop
  endfacet
  facet normal -4.283423e-01 2.910215e-17 9.036165e-01
    outer loop
      vertex 1.678613e+01 -4.762505e+00 3.346836e+00
      vertex 1.719897e+01 -1.376250e+01 3.542519e+00
      vertex 1.719897e+01 -4.762505e+00 3.542519e+00
    endloop
  endfacet
  facet normal 1.798737e-01 -4.889378e-17 -9.836897e-01
    outer loop
      vertex 1.516321e+01 -4.762505e+00 2.673534e+01
      vertex 1.471381e+01 -1.376250e+01 2.665317e+01
      vertex 1.471381e+01 -4.762505e+00 2.665317e+01
    endloop
  endfacet
  facet normal 1.798737e-01 -4.889378e-17 -9.836897e-01
    outer loop
      vertex 1.471381e+01 -1.376250e+01 2.665317e+01
      vertex 1.516321e+01 -4.762505e+00 2.673534e+01
      vertex 1.516321e+01 -1.376250e+01 2.673534e+01
    endloop
  endfacet
  facet normal 9.836897e-01 7.169308e-17 1.798737e-01
    outer loop
      vertex 1.450153e+01 -1.376250e+01 4.925087e+00
      vertex 1.458374e+01 -4.762505e+00 4.475697e+00
      vertex 1.450153e+01 -4.762505e+00 4.925087e+00
    endloop
  endfacet
  facet normal 9.836897e-01 7.169308e-17 1.798737e-01
    outer loop
      vertex 1.458374e+01 -4.762505e+00 4.475697e+00
      vertex 1.450153e+01 -1.376250e+01 4.925087e+00
      vertex 1.458374e+01 -1.376250e+01 4.475697e+00
    endloop
  endfacet
  facet normal 9.036165e-01 8.155896e-17 4.283423e-01
    outer loop
      vertex 1.458374e+01 -1.376250e+01 4.475697e+00
      vertex 1.477942e+01 -4.762505e+00 4.062885e+00
      vertex 1.458374e+01 -4.762505e+00 4.475697e+00
    endloop
  endfacet
  facet normal 9.036165e-01 8.155896e-17 4.283423e-01
    outer loop
      vertex 1.477942e+01 -4.762505e+00 4.062885e+00
      vertex 1.458374e+01 -1.376250e+01 4.475697e+00
      vertex 1.477942e+01 -1.376250e+01 4.062885e+00
    endloop
  endfacet
  facet normal 8.085295e-02 6.583626e-17 9.967260e-01
    outer loop
      vertex 1.633673e+01 -1.376250e+01 3.264660e+00
      vertex 1.588141e+01 -4.762505e+00 3.301598e+00
      vertex 1.588141e+01 -1.376250e+01 3.301598e+00
    endloop
  endfacet
  facet normal 8.085295e-02 6.583626e-17 9.967260e-01
    outer loop
      vertex 1.588141e+01 -4.762505e+00 3.301598e+00
      vertex 1.633673e+01 -1.376250e+01 3.264660e+00
      vertex 1.633673e+01 -4.762505e+00 3.264660e+00
    endloop
  endfacet
  facet normal -1.798737e-01 4.889378e-17 9.836897e-01
    outer loop
      vertex 1.678613e+01 -1.376250e+01 3.346836e+00
      vertex 1.633673e+01 -4.762505e+00 3.264660e+00
      vertex 1.633673e+01 -1.376250e+01 3.264660e+00
    endloop
  endfacet
  facet normal -1.798737e-01 4.889378e-17 9.836897e-01
    outer loop
      vertex 1.633673e+01 -4.762505e+00 3.264660e+00
      vertex 1.678613e+01 -1.376250e+01 3.346836e+00
      vertex 1.678613e+01 -4.762505e+00 3.346836e+00
    endloop
  endfacet
  facet normal -5.683838e-01 -8.518321e-17 -8.227636e-01
    outer loop
      vertex 1.642468e+01 -4.762505e+00 2.628521e+01
      vertex 1.604883e+01 -1.376250e+01 2.654488e+01
      vertex 1.604883e+01 -4.762505e+00 2.654488e+01
    endloop
  endfacet
  facet normal -5.683838e-01 -8.518321e-17 -8.227636e-01
    outer loop
      vertex 1.604883e+01 -1.376250e+01 2.654488e+01
      vertex 1.642468e+01 -4.762505e+00 2.628521e+01
      vertex 1.642468e+01 -1.376250e+01 2.628521e+01
    endloop
  endfacet
  facet normal -6.476201e-01 5.828660e-18 7.619634e-01
    outer loop
      vertex 1.754706e+01 -1.376250e+01 3.838379e+00
      vertex 1.719897e+01 -4.762505e+00 3.542519e+00
      vertex 1.719897e+01 -1.376250e+01 3.542519e+00
    endloop
  endfacet
  facet normal -6.476201e-01 5.828660e-18 7.619634e-01
    outer loop
      vertex 1.719897e+01 -4.762505e+00 3.542519e+00
      vertex 1.754706e+01 -1.376250e+01 3.838379e+00
      vertex 1.754706e+01 -4.762505e+00 3.838379e+00
    endloop
  endfacet
  facet normal -8.227636e-01 -1.483126e-17 5.683838e-01
    outer loop
      vertex 1.754706e+01 -1.376250e+01 3.838379e+00
      vertex 1.780670e+01 -4.762505e+00 4.214252e+00
      vertex 1.754706e+01 -4.762505e+00 3.838379e+00
    endloop
  endfacet
  facet normal -8.227636e-01 -1.483126e-17 5.683838e-01
    outer loop
      vertex 1.780670e+01 -4.762505e+00 4.214252e+00
      vertex 1.754706e+01 -1.376250e+01 3.838379e+00
      vertex 1.780670e+01 -1.376250e+01 4.214252e+00
    endloop
  endfacet
  facet normal -3.747816e-14 -1.000000e+00 2.734948e-14
    outer loop
      vertex -1.900000e+01 -1.376250e+01 3.000000e+01
      vertex -1.604889e+01 -1.376250e+01 2.654488e+01
      vertex -1.100000e+01 -1.376250e+01 3.000000e+01
    endloop
  endfacet
  facet normal -3.747816e-14 -1.000000e+00 2.734948e-14
    outer loop
      vertex -1.604889e+01 -1.376250e+01 2.654488e+01
      vertex -1.900000e+01 -1.376250e+01 3.000000e+01
      vertex -1.642474e+01 -1.376250e+01 2.628521e+01
    endloop
  endfacet
  facet normal -3.747816e-14 -1.000000e+00 2.734948e-14
    outer loop
      vertex -1.642474e+01 -1.376250e+01 2.628521e+01
      vertex -1.900000e+01 -1.376250e+01 3.000000e+01
      vertex -1.672058e+01 -1.376250e+01 2.593712e+01
    endloop
  endfacet
  facet normal -3.747816e-14 -1.000000e+00 2.734948e-14
    outer loop
      vertex -1.672058e+01 -1.376250e+01 2.593712e+01
      vertex -1.900000e+01 -1.376250e+01 3.000000e+01
      vertex -1.691626e+01 -1.376250e+01 2.552431e+01
    endloop
  endfacet
  facet normal -3.747816e-14 -1.000000e+00 2.734948e-14
    outer loop
      vertex -1.691626e+01 -1.376250e+01 2.552431e+01
      vertex -1.900000e+01 -1.376250e+01 3.000000e+01
      vertex -1.699847e+01 -1.376250e+01 2.507491e+01
    endloop
  endfacet
  facet normal -3.747816e-14 -1.000000e+00 2.734948e-14
    outer loop
      vertex -1.699847e+01 -1.376250e+01 2.507491e+01
      vertex -1.900000e+01 -1.376250e+01 3.000000e+01
      vertex -2.050000e+01 -1.376250e+01 0.000000e+00
    endloop
  endfacet
  facet normal -3.747816e-14 -1.000000e+00 2.734948e-14
    outer loop
      vertex -1.100000e+01 -1.376250e+01 3.000000e+01
      vertex -1.604889e+01 -1.376250e+01 2.654488e+01
      vertex -1.561859e+01 -1.376250e+01 2.669840e+01
    endloop
  endfacet
  facet normal -3.747816e-14 -1.000000e+00 2.734948e-14
    outer loop
      vertex -1.100000e+01 -1.376250e+01 3.000000e+01
      vertex -1.561859e+01 -1.376250e+01 2.669840e+01
      vertex -1.516327e+01 -1.376250e+01 2.673534e+01
    endloop
  endfacet
  facet normal -3.747816e-14 -1.000000e+00 2.734948e-14
    outer loop
      vertex -1.699847e+01 -1.376250e+01 2.507491e+01
      vertex -2.050000e+01 -1.376250e+01 0.000000e+00
      vertex -1.799719e+01 -1.376250e+01 5.099869e+00
    endloop
  endfacet
  facet normal -3.747816e-14 -1.000000e+00 2.734948e-14
    outer loop
      vertex -1.799719e+01 -1.376250e+01 5.099869e+00
      vertex -2.050000e+01 -1.376250e+01 0.000000e+00
      vertex -1.796027e+01 -1.376250e+01 4.644524e+00
    endloop
  endfacet
  facet normal -3.747816e-14 -1.000000e+00 2.734948e-14
    outer loop
      vertex -1.796027e+01 -1.376250e+01 4.644524e+00
      vertex -2.050000e+01 -1.376250e+01 0.000000e+00
      vertex -1.780676e+01 -1.376250e+01 4.214252e+00
    endloop
  endfacet
  facet normal -3.747816e-14 -1.000000e+00 2.734948e-14
    outer loop
      vertex -1.780676e+01 -1.376250e+01 4.214252e+00
      vertex -2.050000e+01 -1.376250e+01 0.000000e+00
      vertex -1.754706e+01 -1.376250e+01 3.838379e+00
    endloop
  endfacet
  facet normal -3.747816e-14 -1.000000e+00 2.734948e-14
    outer loop
      vertex -1.754706e+01 -1.376250e+01 3.838379e+00
      vertex -2.050000e+01 -1.376250e+01 0.000000e+00
      vertex -1.719897e+01 -1.376250e+01 3.542519e+00
    endloop
  endfacet
  facet normal -3.747816e-14 -1.000000e+00 2.734948e-14
    outer loop
      vertex -1.719897e+01 -1.376250e+01 3.542519e+00
      vertex -2.050000e+01 -1.376250e+01 0.000000e+00
      vertex -1.678619e+01 -1.376250e+01 3.346836e+00
    endloop
  endfacet
  facet normal -3.747816e-14 -1.000000e+00 2.734948e-14
    outer loop
      vertex -1.678619e+01 -1.376250e+01 3.346836e+00
      vertex -2.050000e+01 -1.376250e+01 0.000000e+00
      vertex -1.633679e+01 -1.376250e+01 3.264660e+00
    endloop
  endfacet
  facet normal -3.747816e-14 -1.000000e+00 2.734948e-14
    outer loop
      vertex -1.100000e+01 -1.376250e+01 3.000000e+01
      vertex -1.350281e+01 -1.376250e+01 2.490013e+01
      vertex -1.250000e+01 -1.376250e+01 0.000000e+00
    endloop
  endfacet
  facet normal -3.747816e-14 -1.000000e+00 2.734948e-14
    outer loop
      vertex -1.350281e+01 -1.376250e+01 2.490013e+01
      vertex -1.100000e+01 -1.376250e+01 3.000000e+01
      vertex -1.353973e+01 -1.376250e+01 2.535548e+01
    endloop
  endfacet
  facet normal -3.747816e-14 -1.000000e+00 2.734948e-14
    outer loop
      vertex -1.353973e+01 -1.376250e+01 2.535548e+01
      vertex -1.100000e+01 -1.376250e+01 3.000000e+01
      vertex -1.369330e+01 -1.376250e+01 2.578575e+01
    endloop
  endfacet
  facet normal -3.747816e-14 -1.000000e+00 2.734948e-14
    outer loop
      vertex -1.369330e+01 -1.376250e+01 2.578575e+01
      vertex -1.100000e+01 -1.376250e+01 3.000000e+01
      vertex -1.395294e+01 -1.376250e+01 2.616162e+01
    endloop
  endfacet
  facet normal -3.747816e-14 -1.000000e+00 2.734948e-14
    outer loop
      vertex -1.395294e+01 -1.376250e+01 2.616162e+01
      vertex -1.100000e+01 -1.376250e+01 3.000000e+01
      vertex -1.430103e+01 -1.376250e+01 2.645748e+01
    endloop
  endfacet
  facet normal -3.747816e-14 -1.000000e+00 2.734948e-14
    outer loop
      vertex -1.430103e+01 -1.376250e+01 2.645748e+01
      vertex -1.100000e+01 -1.376250e+01 3.000000e+01
      vertex -1.471387e+01 -1.376250e+01 2.665317e+01
    endloop
  endfacet
  facet normal -3.747816e-14 -1.000000e+00 2.734948e-14
    outer loop
      vertex -1.471387e+01 -1.376250e+01 2.665317e+01
      vertex -1.100000e+01 -1.376250e+01 3.000000e+01
      vertex -1.516327e+01 -1.376250e+01 2.673534e+01
    endloop
  endfacet
  facet normal -3.747816e-14 -1.000000e+00 2.734948e-14
    outer loop
      vertex -1.250000e+01 -1.376250e+01 0.000000e+00
      vertex -1.350281e+01 -1.376250e+01 2.490013e+01
      vertex -1.450159e+01 -1.376250e+01 4.925087e+00
    endloop
  endfacet
  facet normal -3.747816e-14 -1.000000e+00 2.734948e-14
    outer loop
      vertex -1.250000e+01 -1.376250e+01 0.000000e+00
      vertex -1.450159e+01 -1.376250e+01 4.925087e+00
      vertex -1.458374e+01 -1.376250e+01 4.475697e+00
    endloop
  endfacet
  facet normal -3.747816e-14 -1.000000e+00 2.734948e-14
    outer loop
      vertex -1.250000e+01 -1.376250e+01 0.000000e+00
      vertex -1.458374e+01 -1.376250e+01 4.475697e+00
      vertex -1.477942e+01 -1.376250e+01 4.062885e+00
    endloop
  endfacet
  facet normal -3.747816e-14 -1.000000e+00 2.734948e-14
    outer loop
      vertex -1.250000e+01 -1.376250e+01 0.000000e+00
      vertex -1.477942e+01 -1.376250e+01 4.062885e+00
      vertex -1.507532e+01 -1.376250e+01 3.714790e+00
    endloop
  endfacet
  facet normal -3.747816e-14 -1.000000e+00 2.734948e-14
    outer loop
      vertex -1.250000e+01 -1.376250e+01 0.000000e+00
      vertex -1.507532e+01 -1.376250e+01 3.714790e+00
      vertex -1.545117e+01 -1.376250e+01 3.455128e+00
    endloop
  endfacet
  facet normal -3.747816e-14 -1.000000e+00 2.734948e-14
    outer loop
      vertex -1.250000e+01 -1.376250e+01 0.000000e+00
      vertex -1.545117e+01 -1.376250e+01 3.455128e+00
      vertex -1.588147e+01 -1.376250e+01 3.301598e+00
    endloop
  endfacet
  facet normal -3.747816e-14 -1.000000e+00 2.734948e-14
    outer loop
      vertex -1.250000e+01 -1.376250e+01 0.000000e+00
      vertex -1.588147e+01 -1.376250e+01 3.301598e+00
      vertex -1.633679e+01 -1.376250e+01 3.264660e+00
    endloop
  endfacet
  facet normal -3.747816e-14 -1.000000e+00 2.734948e-14
    outer loop
      vertex -1.250000e+01 -1.376250e+01 0.000000e+00
      vertex -1.633679e+01 -1.376250e+01 3.264660e+00
      vertex -2.050000e+01 -1.376250e+01 0.000000e+00
    endloop
  endfacet
  facet normal -9.987524e-01 -3.218396e-14 -4.993762e-02
    outer loop
      vertex 1.250000e+01 -7.762505e+00 0.000000e+00
      vertex 1.100000e+01 -1.376250e+01 3.000000e+01
      vertex 1.100000e+01 -7.762505e+00 3.000000e+01
    endloop
  endfacet
  facet normal -9.987524e-01 -3.218396e-14 -4.993762e-02
    outer loop
      vertex 1.100000e+01 -1.376250e+01 3.000000e+01
      vertex 1.250000e+01 -7.762505e+00 0.000000e+00
      vertex 1.250000e+01 -1.376250e+01 0.000000e+00
    endloop
  endfacet
  facet normal -9.987524e-01 -9.180025e-15 4.993762e-02
    outer loop
      vertex -2.050000e+01 -4.762505e+00 0.000000e+00
      vertex -1.900000e+01 -1.376250e+01 3.000000e+01
      vertex -1.900000e+01 -4.762505e+00 3.000000e+01
    endloop
  endfacet
  facet normal -9.987524e-01 -9.180025e-15 4.993762e-02
    outer loop
      vertex -1.900000e+01 -1.376250e+01 3.000000e+01
      vertex -2.050000e+01 -4.762505e+00 0.000000e+00
      vertex -2.050000e+01 -1.376250e+01 0.000000e+00
    endloop
  endfacet
  facet normal 9.987524e-01 -3.224559e-14 -4.993762e-02
    outer loop
      vertex -1.100000e+01 -1.376250e+01 3.000000e+01
      vertex -1.250000e+01 -7.762505e+00 0.000000e+00
      vertex -1.100000e+01 -7.762505e+00 3.000000e+01
    endloop
  endfacet
  facet normal 9.987524e-01 -3.224559e-14 -4.993762e-02
    outer loop
      vertex -1.250000e+01 -7.762505e+00 0.000000e+00
      vertex -1.100000e+01 -1.376250e+01 3.000000e+01
      vertex -1.250000e+01 -1.376250e+01 0.000000e+00
    endloop
  endfacet
  facet normal -9.418371e-01 -3.709256e-17 3.360696e-01
    outer loop
      vertex 1.780670e+01 -1.376250e+01 4.214252e+00
      vertex 1.796027e+01 -4.762505e+00 4.644524e+00
      vertex 1.780670e+01 -4.762505e+00 4.214252e+00
    endloop
  endfacet
  facet normal -9.418371e-01 -3.709256e-17 3.360696e-01
    outer loop
      vertex 1.796027e+01 -4.762505e+00 4.644524e+00
      vertex 1.780670e+01 -1.376250e+01 4.214252e+00
      vertex 1.796027e+01 -1.376250e+01 4.644524e+00
    endloop
  endfacet
  facet normal -9.987524e-01 -7.000177e-17 -4.993762e-02
    outer loop
      vertex 1.799719e+01 -1.376250e+01 5.099869e+00
      vertex 1.699841e+01 -4.762505e+00 2.507491e+01
      vertex 1.799719e+01 -4.762505e+00 5.099869e+00
    endloop
  endfacet
  facet normal -9.987524e-01 -7.000177e-17 -4.993762e-02
    outer loop
      vertex 1.699841e+01 -4.762505e+00 2.507491e+01
      vertex 1.799719e+01 -1.376250e+01 5.099869e+00
      vertex 1.699841e+01 -1.376250e+01 2.507491e+01
    endloop
  endfacet
  facet normal -3.360696e-01 -7.824922e-17 -9.418371e-01
    outer loop
      vertex 1.604883e+01 -4.762505e+00 2.654488e+01
      vertex 1.561853e+01 -1.376250e+01 2.669840e+01
      vertex 1.561853e+01 -4.762505e+00 2.669840e+01
    endloop
  endfacet
  facet normal -3.360696e-01 -7.824922e-17 -9.418371e-01
    outer loop
      vertex 1.561853e+01 -1.376250e+01 2.669840e+01
      vertex 1.604883e+01 -4.762505e+00 2.654488e+01
      vertex 1.604883e+01 -1.376250e+01 2.654488e+01
    endloop
  endfacet
  facet normal -1.425937e-15 -2.058024e-14 -1.000000e+00
    outer loop
      vertex -1.000000e+01 -4.762505e+00 0.000000e+00
      vertex -2.050000e+01 -1.376250e+01 0.000000e+00
      vertex -2.050000e+01 -4.762505e+00 0.000000e+00
    endloop
  endfacet
  facet normal -1.425937e-15 -2.058024e-14 -1.000000e+00
    outer loop
      vertex -2.050000e+01 -1.376250e+01 0.000000e+00
      vertex -1.000000e+01 -4.762505e+00 0.000000e+00
      vertex -1.250000e+01 -7.762505e+00 0.000000e+00
    endloop
  endfacet
  facet normal -1.425937e-15 -2.058024e-14 -1.000000e+00
    outer loop
      vertex -2.050000e+01 -1.376250e+01 0.000000e+00
      vertex -1.250000e+01 -7.762505e+00 0.000000e+00
      vertex -1.250000e+01 -1.376250e+01 0.000000e+00
    endloop
  endfacet
  facet normal -1.425937e-15 -2.058024e-14 -1.000000e+00
    outer loop
      vertex -1.250000e+01 -7.762505e+00 0.000000e+00
      vertex -1.000000e+01 -4.762505e+00 0.000000e+00
      vertex 1.250000e+01 -7.762505e+00 0.000000e+00
    endloop
  endfacet
  facet normal -1.425937e-15 -2.058024e-14 -1.000000e+00
    outer loop
      vertex 1.250000e+01 -7.762505e+00 0.000000e+00
      vertex -1.000000e+01 -4.762505e+00 0.000000e+00
      vertex -1.000000e+01 1.376250e+01 0.000000e+00
    endloop
  endfacet
  facet normal -1.425937e-15 -2.058024e-14 -1.000000e+00
    outer loop
      vertex 1.250000e+01 -7.762505e+00 0.000000e+00
      vertex -1.000000e+01 1.376250e+01 0.000000e+00
      vertex 1.000000e+01 -4.762505e+00 0.000000e+00
    endloop
  endfacet
  facet normal -1.425937e-15 -2.058024e-14 -1.000000e+00
    outer loop
      vertex 1.000000e+01 -4.762505e+00 0.000000e+00
      vertex -1.000000e+01 1.376250e+01 0.000000e+00
      vertex 1.000000e+01 1.376250e+01 0.000000e+00
    endloop
  endfacet
  facet normal -1.425937e-15 -2.058024e-14 -1.000000e+00
    outer loop
      vertex 1.250000e+01 -7.762505e+00 0.000000e+00
      vertex 1.000000e+01 -4.762505e+00 0.000000e+00
      vertex 2.050000e+01 -4.762505e+00 0.000000e+00
    endloop
  endfacet
  facet normal -1.425937e-15 -2.058024e-14 -1.000000e+00
    outer loop
      vertex 1.250000e+01 -7.762505e+00 0.000000e+00
      vertex 2.050000e+01 -4.762505e+00 0.000000e+00
      vertex 1.250000e+01 -1.376250e+01 0.000000e+00
    endloop
  endfacet
  facet normal -1.425937e-15 -2.058024e-14 -1.000000e+00
    outer loop
      vertex 1.250000e+01 -1.376250e+01 0.000000e+00
      vertex 2.050000e+01 -4.762505e+00 0.000000e+00
      vertex 2.050000e+01 -1.376250e+01 0.000000e+00
    endloop
  endfacet
  facet normal 1.102764e-15 -1.000000e+00 2.855267e-14
    outer loop
      vertex -1.100000e+01 -7.762505e+00 3.000000e+01
      vertex 1.250000e+01 -7.762505e+00 0.000000e+00
      vertex 1.100000e+01 -7.762505e+00 3.000000e+01
    endloop
  endfacet
  facet normal 1.102764e-15 -1.000000e+00 2.855267e-14
    outer loop
      vertex 1.250000e+01 -7.762505e+00 0.000000e+00
      vertex -1.100000e+01 -7.762505e+00 3.000000e+01
      vertex -1.250000e+01 -7.762505e+00 0.000000e+00
    endloop
  endfacet
  facet normal -9.836897e-01 -7.124771e-17 -1.798737e-01
    outer loop
      vertex 1.699841e+01 -1.376250e+01 2.507491e+01
      vertex 1.691626e+01 -4.762505e+00 2.552431e+01
      vertex 1.699841e+01 -4.762505e+00 2.507491e+01
    endloop
  endfacet
  facet normal -9.836897e-01 -7.124771e-17 -1.798737e-01
    outer loop
      vertex 1.691626e+01 -4.762505e+00 2.552431e+01
      vertex 1.699841e+01 -1.376250e+01 2.507491e+01
      vertex 1.691626e+01 -1.376250e+01 2.552431e+01
    endloop
  endfacet
  facet normal -9.036165e-01 -8.074072e-17 -4.283423e-01
    outer loop
      vertex 1.691626e+01 -1.376250e+01 2.552431e+01
      vertex 1.672058e+01 -4.762505e+00 2.593712e+01
      vertex 1.691626e+01 -4.762505e+00 2.552431e+01
    endloop
  endfacet
  facet normal -9.036165e-01 -8.074072e-17 -4.283423e-01
    outer loop
      vertex 1.672058e+01 -4.762505e+00 2.593712e+01
      vertex 1.691626e+01 -1.376250e+01 2.552431e+01
      vertex 1.672058e+01 -1.376250e+01 2.593712e+01
    endloop
  endfacet
  facet normal 1.000000e+00 6.003697e-15 -2.816957e-14
    outer loop
      vertex 1.000000e+01 1.178181e+01 1.154431e+01
      vertex 1.000000e+01 1.160023e+01 7.995125e+00
      vertex 1.000000e+01 1.176250e+01 6.762501e+00
    endloop
  endfacet
  facet normal 1.000000e+00 6.003697e-15 -2.816957e-14
    outer loop
      vertex 1.000000e+01 1.160023e+01 7.995125e+00
      vertex 1.000000e+01 1.178181e+01 1.154431e+01
      vertex 1.000000e+01 1.038125e+01 1.261900e+01
    endloop
  endfacet
  facet normal 1.000000e+00 6.003697e-15 -2.816957e-14
    outer loop
      vertex 1.000000e+01 1.160023e+01 7.995125e+00
      vertex 1.000000e+01 1.038125e+01 1.261900e+01
      vertex 1.000000e+01 1.112444e+01 9.143749e+00
    endloop
  endfacet
  facet normal 1.000000e+00 6.003697e-15 -2.816957e-14
    outer loop
      vertex 1.000000e+01 1.112444e+01 9.143749e+00
      vertex 1.000000e+01 1.038125e+01 1.261900e+01
      vertex 1.000000e+01 1.036759e+01 1.013010e+01
    endloop
  endfacet
  facet normal 1.000000e+00 6.003697e-15 -2.816957e-14
    outer loop
      vertex 1.000000e+01 1.036759e+01 1.013010e+01
      vertex 1.000000e+01 1.038125e+01 1.261900e+01
      vertex 1.000000e+01 8.750267e+00 1.329457e+01
    endloop
  endfacet
  facet normal 1.000000e+00 6.003697e-15 -2.816957e-14
    outer loop
      vertex 1.000000e+01 1.036759e+01 1.013010e+01
      vertex 1.000000e+01 8.750267e+00 1.329457e+01
      vertex 1.000000e+01 9.381248e+00 1.088695e+01
    endloop
  endfacet
  facet normal 1.000000e+00 6.003697e-15 -2.816957e-14
    outer loop
      vertex 1.000000e+01 9.381248e+00 1.088695e+01
      vertex 1.000000e+01 8.750267e+00 1.329457e+01
      vertex 1.000000e+01 8.232628e+00 1.136272e+01
    endloop
  endfacet
  facet normal 1.000000e+00 6.003697e-15 -2.816957e-14
    outer loop
      vertex 1.000000e+01 8.232628e+00 1.136272e+01
      vertex 1.000000e+01 8.750267e+00 1.329457e+01
      vertex 1.000000e+01 6.999992e+00 1.352500e+01
    endloop
  endfacet
  facet normal 1.000000e+00 6.003697e-15 -2.816957e-14
    outer loop
      vertex 1.000000e+01 8.232628e+00 1.136272e+01
      vertex 1.000000e+01 6.999992e+00 1.352500e+01
      vertex 1.000000e+01 6.999992e+00 1.152500e+01
    endloop
  endfacet
  facet normal 1.000000e+00 6.003697e-15 -2.816957e-14
    outer loop
      vertex 1.000000e+01 6.999992e+00 1.152500e+01
      vertex 1.000000e+01 6.999992e+00 1.352500e+01
      vertex 1.000000e+01 5.767372e+00 1.136272e+01
    endloop
  endfacet
  facet normal 1.000000e+00 6.003697e-15 -2.816957e-14
    outer loop
      vertex 1.000000e+01 5.767372e+00 1.136272e+01
      vertex 1.000000e+01 6.999992e+00 1.352500e+01
      vertex 1.000000e+01 -4.762505e+00 1.352500e+01
    endloop
  endfacet
  facet normal 1.000000e+00 6.003697e-15 -2.816957e-14
    outer loop
      vertex 1.000000e+01 5.767372e+00 1.136272e+01
      vertex 1.000000e+01 -4.762505e+00 1.352500e+01
      vertex 1.000000e+01 4.618752e+00 1.088695e+01
    endloop
  endfacet
  facet normal 1.000000e+00 6.003697e-15 -2.816957e-14
    outer loop
      vertex 1.000000e+01 4.618752e+00 1.088695e+01
      vertex 1.000000e+01 -4.762505e+00 1.352500e+01
      vertex 1.000000e+01 3.632408e+00 1.013010e+01
    endloop
  endfacet
  facet normal 1.000000e+00 6.003697e-15 -2.816957e-14
    outer loop
      vertex 1.000000e+01 3.632408e+00 1.013010e+01
      vertex 1.000000e+01 -4.762505e+00 1.352500e+01
      vertex 1.000000e+01 2.875557e+00 9.143749e+00
    endloop
  endfacet
  facet normal 1.000000e+00 6.003697e-15 -2.816957e-14
    outer loop
      vertex 1.000000e+01 2.875557e+00 9.143749e+00
      vertex 1.000000e+01 -4.762505e+00 1.352500e+01
      vertex 1.000000e+01 2.399773e+00 7.995125e+00
    endloop
  endfacet
  facet normal 1.000000e+00 6.003697e-15 -2.816957e-14
    outer loop
      vertex 1.000000e+01 2.399773e+00 7.995125e+00
      vertex 1.000000e+01 -4.762505e+00 1.352500e+01
      vertex 1.000000e+01 2.237495e+00 6.762501e+00
    endloop
  endfacet
  facet normal 1.000000e+00 6.003697e-15 -2.816957e-14
    outer loop
      vertex 1.000000e+01 1.376250e+01 0.000000e+00
      vertex 1.000000e+01 8.232628e+00 2.162277e+00
      vertex 1.000000e+01 -4.762505e+00 0.000000e+00
    endloop
  endfacet
  facet normal 1.000000e+00 6.003697e-15 -2.816957e-14
    outer loop
      vertex 1.000000e+01 8.232628e+00 2.162277e+00
      vertex 1.000000e+01 1.376250e+01 0.000000e+00
      vertex 1.000000e+01 9.381248e+00 2.638054e+00
    endloop
  endfacet
  facet normal 1.000000e+00 6.003697e-15 -2.816957e-14
    outer loop
      vertex 1.000000e+01 9.381248e+00 2.638054e+00
      vertex 1.000000e+01 1.376250e+01 0.000000e+00
      vertex 1.000000e+01 1.036759e+01 3.394905e+00
    endloop
  endfacet
  facet normal 1.000000e+00 6.003697e-15 -2.816957e-14
    outer loop
      vertex 1.000000e+01 1.036759e+01 3.394905e+00
      vertex 1.000000e+01 1.376250e+01 0.000000e+00
      vertex 1.000000e+01 1.376250e+01 6.762501e+00
    endloop
  endfacet
  facet normal 1.000000e+00 6.003697e-15 -2.816957e-14
    outer loop
      vertex 1.000000e+01 1.036759e+01 3.394905e+00
      vertex 1.000000e+01 1.376250e+01 6.762501e+00
      vertex 1.000000e+01 1.112444e+01 4.381252e+00
    endloop
  endfacet
  facet normal 1.000000e+00 6.003697e-15 -2.816957e-14
    outer loop
      vertex 1.000000e+01 1.112444e+01 4.381252e+00
      vertex 1.000000e+01 1.376250e+01 6.762501e+00
      vertex 1.000000e+01 1.353207e+01 8.512764e+00
    endloop
  endfacet
  facet normal 1.000000e+00 6.003697e-15 -2.816957e-14
    outer loop
      vertex 1.000000e+01 1.112444e+01 4.381252e+00
      vertex 1.000000e+01 1.353207e+01 8.512764e+00
      vertex 1.000000e+01 1.160023e+01 5.529873e+00
    endloop
  endfacet
  facet normal 1.000000e+00 6.003697e-15 -2.816957e-14
    outer loop
      vertex 1.000000e+01 1.160023e+01 5.529873e+00
      vertex 1.000000e+01 1.353207e+01 8.512764e+00
      vertex 1.000000e+01 1.285650e+01 1.014375e+01
    endloop
  endfacet
  facet normal 1.000000e+00 6.003697e-15 -2.816957e-14
    outer loop
      vertex 1.000000e+01 1.160023e+01 5.529873e+00
      vertex 1.000000e+01 1.285650e+01 1.014375e+01
      vertex 1.000000e+01 1.176250e+01 6.762501e+00
    endloop
  endfacet
  facet normal 1.000000e+00 6.003697e-15 -2.816957e-14
    outer loop
      vertex 1.000000e+01 1.176250e+01 6.762501e+00
      vertex 1.000000e+01 1.285650e+01 1.014375e+01
      vertex 1.000000e+01 1.178181e+01 1.154431e+01
    endloop
  endfacet
  facet normal 1.000000e+00 6.003697e-15 -2.816957e-14
    outer loop
      vertex 1.000000e+01 -4.762505e+00 0.000000e+00
      vertex 1.000000e+01 8.232628e+00 2.162277e+00
      vertex 1.000000e+01 6.999992e+00 2.000000e+00
    endloop
  endfacet
  facet normal 1.000000e+00 6.003697e-15 -2.816957e-14
    outer loop
      vertex 1.000000e+01 -4.762505e+00 0.000000e+00
      vertex 1.000000e+01 6.999992e+00 2.000000e+00
      vertex 1.000000e+01 5.767372e+00 2.162277e+00
    endloop
  endfacet
  facet normal 1.000000e+00 6.003697e-15 -2.816957e-14
    outer loop
      vertex 1.000000e+01 -4.762505e+00 0.000000e+00
      vertex 1.000000e+01 5.767372e+00 2.162277e+00
      vertex 1.000000e+01 4.618752e+00 2.638054e+00
    endloop
  endfacet
  facet normal 1.000000e+00 6.003697e-15 -2.816957e-14
    outer loop
      vertex 1.000000e+01 -4.762505e+00 0.000000e+00
      vertex 1.000000e+01 4.618752e+00 2.638054e+00
      vertex 1.000000e+01 3.632408e+00 3.394905e+00
    endloop
  endfacet
  facet normal 1.000000e+00 6.003697e-15 -2.816957e-14
    outer loop
      vertex 1.000000e+01 -4.762505e+00 0.000000e+00
      vertex 1.000000e+01 3.632408e+00 3.394905e+00
      vertex 1.000000e+01 2.875557e+00 4.381252e+00
    endloop
  endfacet
  facet normal 1.000000e+00 6.003697e-15 -2.816957e-14
    outer loop
      vertex 1.000000e+01 -4.762505e+00 0.000000e+00
      vertex 1.000000e+01 2.875557e+00 4.381252e+00
      vertex 1.000000e+01 2.399773e+00 5.529873e+00
    endloop
  endfacet
  facet normal 1.000000e+00 6.003697e-15 -2.816957e-14
    outer loop
      vertex 1.000000e+01 -4.762505e+00 0.000000e+00
      vertex 1.000000e+01 2.399773e+00 5.529873e+00
      vertex 1.000000e+01 2.237495e+00 6.762501e+00
    endloop
  endfacet
  facet normal 1.000000e+00 6.003697e-15 -2.816957e-14
    outer loop
      vertex 1.000000e+01 -4.762505e+00 0.000000e+00
      vertex 1.000000e+01 2.237495e+00 6.762501e+00
      vertex 1.000000e+01 -4.762505e+00 1.352500e+01
    endloop
  endfacet
  facet normal -1.000000e+00 1.365775e-15 1.354076e-14
    outer loop
      vertex -1.000000e+01 1.376250e+01 0.000000e+00
      vertex -1.000000e+01 1.036759e+01 3.394905e+00
      vertex -1.000000e+01 1.376250e+01 6.762501e+00
    endloop
  endfacet
  facet normal -1.000000e+00 1.365775e-15 1.354076e-14
    outer loop
      vertex -1.000000e+01 1.036759e+01 3.394905e+00
      vertex -1.000000e+01 1.376250e+01 0.000000e+00
      vertex -1.000000e+01 9.381248e+00 2.638054e+00
    endloop
  endfacet
  facet normal -1.000000e+00 1.365775e-15 1.354076e-14
    outer loop
      vertex -1.000000e+01 9.381248e+00 2.638054e+00
      vertex -1.000000e+01 1.376250e+01 0.000000e+00
      vertex -1.000000e+01 8.232628e+00 2.162277e+00
    endloop
  endfacet
  facet normal -1.000000e+00 1.365775e-15 1.354076e-14
    outer loop
      vertex -1.000000e+01 8.232628e+00 2.162277e+00
      vertex -1.000000e+01 1.376250e+01 0.000000e+00
      vertex -1.000000e+01 -4.762505e+00 0.000000e+00
    endloop
  endfacet
  facet normal -1.000000e+00 1.365775e-15 1.354076e-14
    outer loop
      vertex -1.000000e+01 1.376250e+01 6.762501e+00
      vertex -1.000000e+01 1.036759e+01 3.394905e+00
      vertex -1.000000e+01 1.112444e+01 4.381252e+00
    endloop
  endfacet
  facet normal -1.000000e+00 1.365775e-15 1.354076e-14
    outer loop
      vertex -1.000000e+01 1.376250e+01 6.762501e+00
      vertex -1.000000e+01 1.112444e+01 4.381252e+00
      vertex -1.000000e+01 1.353207e+01 8.512764e+00
    endloop
  endfacet
  facet normal -1.000000e+00 1.365775e-15 1.354076e-14
    outer loop
      vertex -1.000000e+01 1.353207e+01 8.512764e+00
      vertex -1.000000e+01 1.112444e+01 4.381252e+00
      vertex -1.000000e+01 1.160023e+01 5.529873e+00
    endloop
  endfacet
  facet normal -1.000000e+00 1.365775e-15 1.354076e-14
    outer loop
      vertex -1.000000e+01 1.353207e+01 8.512764e+00
      vertex -1.000000e+01 1.160023e+01 5.529873e+00
      vertex -1.000000e+01 1.285650e+01 1.014375e+01
    endloop
  endfacet
  facet normal -1.000000e+00 1.365775e-15 1.354076e-14
    outer loop
      vertex -1.000000e+01 1.285650e+01 1.014375e+01
      vertex -1.000000e+01 1.160023e+01 5.529873e+00
      vertex -1.000000e+01 1.176250e+01 6.762501e+00
    endloop
  endfacet
  facet normal -1.000000e+00 1.365775e-15 1.354076e-14
    outer loop
      vertex -1.000000e+01 1.285650e+01 1.014375e+01
      vertex -1.000000e+01 1.176250e+01 6.762501e+00
      vertex -1.000000e+01 1.178181e+01 1.154431e+01
    endloop
  endfacet
  facet normal -1.000000e+00 1.365775e-15 1.354076e-14
    outer loop
      vertex -1.000000e+01 8.232628e+00 2.162277e+00
      vertex -1.000000e+01 -4.762505e+00 0.000000e+00
      vertex -1.000000e+01 6.999992e+00 2.000000e+00
    endloop
  endfacet
  facet normal -1.000000e+00 1.365775e-15 1.354076e-14
    outer loop
      vertex -1.000000e+01 6.999992e+00 2.000000e+00
      vertex -1.000000e+01 -4.762505e+00 0.000000e+00
      vertex -1.000000e+01 5.767372e+00 2.162277e+00
    endloop
  endfacet
  facet normal -1.000000e+00 1.365775e-15 1.354076e-14
    outer loop
      vertex -1.000000e+01 5.767372e+00 2.162277e+00
      vertex -1.000000e+01 -4.762505e+00 0.000000e+00
      vertex -1.000000e+01 4.618752e+00 2.638054e+00
    endloop
  endfacet
  facet normal -1.000000e+00 1.365775e-15 1.354076e-14
    outer loop
      vertex -1.000000e+01 4.618752e+00 2.638054e+00
      vertex -1.000000e+01 -4.762505e+00 0.000000e+00
      vertex -1.000000e+01 3.632408e+00 3.394905e+00
    endloop
  endfacet
  facet normal -1.000000e+00 1.365775e-15 1.354076e-14
    outer loop
      vertex -1.000000e+01 3.632408e+00 3.394905e+00
      vertex -1.000000e+01 -4.762505e+00 0.000000e+00
      vertex -1.000000e+01 2.875557e+00 4.381252e+00
    endloop
  endfacet
  facet normal -1.000000e+00 1.365775e-15 1.354076e-14
    outer loop
      vertex -1.000000e+01 2.875557e+00 4.381252e+00
      vertex -1.000000e+01 -4.762505e+00 0.000000e+00
      vertex -1.000000e+01 2.399773e+00 5.529873e+00
    endloop
  endfacet
  facet normal -1.000000e+00 1.365775e-15 1.354076e-14
    outer loop
      vertex -1.000000e+01 2.399773e+00 5.529873e+00
      vertex -1.000000e+01 -4.762505e+00 0.000000e+00
      vertex -1.000000e+01 2.237495e+00 6.762501e+00
    endloop
  endfacet
  facet normal -1.000000e+00 1.365775e-15 1.354076e-14
    outer loop
      vertex -1.000000e+01 2.237495e+00 6.762501e+00
      vertex -1.000000e+01 -4.762505e+00 0.000000e+00
      vertex -1.000000e+01 -4.762505e+00 1.352500e+01
    endloop
  endfacet
  facet normal -1.000000e+00 1.365775e-15 1.354076e-14
    outer loop
      vertex -1.000000e+01 1.178181e+01 1.154431e+01
      vertex -1.000000e+01 1.160023e+01 7.995125e+00
      vertex -1.000000e+01 1.038125e+01 1.261900e+01
    endloop
  endfacet
  facet normal -1.000000e+00 1.365775e-15 1.354076e-14
    outer loop
      vertex -1.000000e+01 1.160023e+01 7.995125e+00
      vertex -1.000000e+01 1.178181e+01 1.154431e+01
      vertex -1.000000e+01 1.176250e+01 6.762501e+00
    endloop
  endfacet
  facet normal -1.000000e+00 1.365775e-15 1.354076e-14
    outer loop
      vertex -1.000000e+01 1.038125e+01 1.261900e+01
      vertex -1.000000e+01 1.160023e+01 7.995125e+00
      vertex -1.000000e+01 1.112444e+01 9.143749e+00
    endloop
  endfacet
  facet normal -1.000000e+00 1.365775e-15 1.354076e-14
    outer loop
      vertex -1.000000e+01 1.038125e+01 1.261900e+01
      vertex -1.000000e+01 1.112444e+01 9.143749e+00
      vertex -1.000000e+01 1.036759e+01 1.013010e+01
    endloop
  endfacet
  facet normal -1.000000e+00 1.365775e-15 1.354076e-14
    outer loop
      vertex -1.000000e+01 1.038125e+01 1.261900e+01
      vertex -1.000000e+01 1.036759e+01 1.013010e+01
      vertex -1.000000e+01 8.750267e+00 1.329457e+01
    endloop
  endfacet
  facet normal -1.000000e+00 1.365775e-15 1.354076e-14
    outer loop
      vertex -1.000000e+01 8.750267e+00 1.329457e+01
      vertex -1.000000e+01 1.036759e+01 1.013010e+01
      vertex -1.000000e+01 9.381248e+00 1.088695e+01
    endloop
  endfacet
  facet normal -1.000000e+00 1.365775e-15 1.354076e-14
    outer loop
      vertex -1.000000e+01 8.750267e+00 1.329457e+01
      vertex -1.000000e+01 9.381248e+00 1.088695e+01
      vertex -1.000000e+01 8.232628e+00 1.136272e+01
    endloop
  endfacet
  facet normal -1.000000e+00 1.365775e-15 1.354076e-14
    outer loop
      vertex -1.000000e+01 8.750267e+00 1.329457e+01
      vertex -1.000000e+01 8.232628e+00 1.136272e+01
      vertex -1.000000e+01 6.999992e+00 1.352500e+01
    endloop
  endfacet
  facet normal -1.000000e+00 1.365775e-15 1.354076e-14
    outer loop
      vertex -1.000000e+01 6.999992e+00 1.352500e+01
      vertex -1.000000e+01 8.232628e+00 1.136272e+01
      vertex -1.000000e+01 6.999992e+00 1.152500e+01
    endloop
  endfacet
  facet normal -1.000000e+00 1.365775e-15 1.354076e-14
    outer loop
      vertex -1.000000e+01 6.999992e+00 1.352500e+01
      vertex -1.000000e+01 6.999992e+00 1.152500e+01
      vertex -1.000000e+01 5.767372e+00 1.136272e+01
    endloop
  endfacet
  facet normal -1.000000e+00 1.365775e-15 1.354076e-14
    outer loop
      vertex -1.000000e+01 6.999992e+00 1.352500e+01
      vertex -1.000000e+01 5.767372e+00 1.136272e+01
      vertex -1.000000e+01 -4.762505e+00 1.352500e+01
    endloop
  endfacet
  facet normal -1.000000e+00 1.365775e-15 1.354076e-14
    outer loop
      vertex -1.000000e+01 -4.762505e+00 1.352500e+01
      vertex -1.000000e+01 5.767372e+00 1.136272e+01
      vertex -1.000000e+01 4.618752e+00 1.088695e+01
    endloop
  endfacet
  facet normal -1.000000e+00 1.365775e-15 1.354076e-14
    outer loop
      vertex -1.000000e+01 -4.762505e+00 1.352500e+01
      vertex -1.000000e+01 4.618752e+00 1.088695e+01
      vertex -1.000000e+01 3.632408e+00 1.013010e+01
    endloop
  endfacet
  facet normal -1.000000e+00 1.365775e-15 1.354076e-14
    outer loop
      vertex -1.000000e+01 -4.762505e+00 1.352500e+01
      vertex -1.000000e+01 3.632408e+00 1.013010e+01
      vertex -1.000000e+01 2.875557e+00 9.143749e+00
    endloop
  endfacet
  facet normal -1.000000e+00 1.365775e-15 1.354076e-14
    outer loop
      vertex -1.000000e+01 -4.762505e+00 1.352500e+01
      vertex -1.000000e+01 2.875557e+00 9.143749e+00
      vertex -1.000000e+01 2.399773e+00 7.995125e+00
    endloop
  endfacet
  facet normal -1.000000e+00 1.365775e-15 1.354076e-14
    outer loop
      vertex -1.000000e+01 -4.762505e+00 1.352500e+01
      vertex -1.000000e+01 2.399773e+00 7.995125e+00
      vertex -1.000000e+01 2.237495e+00 6.762501e+00
    endloop
  endfacet
  facet normal 6.352820e-15 5.953134e-15 1.000000e+00
    outer loop
      vertex -1.000000e+01 -4.762505e+00 1.352500e+01
      vertex 1.000000e+01 6.999992e+00 1.352500e+01
      vertex -1.000000e+01 6.999992e+00 1.352500e+01
    endloop
  endfacet
  facet normal 6.352820e-15 5.953134e-15 1.000000e+00
    outer loop
      vertex 1.000000e+01 6.999992e+00 1.352500e+01
      vertex -1.000000e+01 -4.762505e+00 1.352500e+01
      vertex 1.000000e+01 -4.762505e+00 1.352500e+01
    endloop
  endfacet
  facet normal 3.555635e-15 9.914449e-01 -1.305262e-01
    outer loop
      vertex 1.000000e+01 2.399773e+00 7.995125e+00
      vertex -1.000000e+01 2.237495e+00 6.762501e+00
      vertex -1.000000e+01 2.399773e+00 7.995125e+00
    endloop
  endfacet
  facet normal 3.555635e-15 9.914449e-01 -1.305262e-01
    outer loop
      vertex -1.000000e+01 2.237495e+00 6.762501e+00
      vertex 1.000000e+01 2.399773e+00 7.995125e+00
      vertex 1.000000e+01 2.237495e+00 6.762501e+00
    endloop
  endfacet
  facet normal 5.274219e-15 9.914449e-01 1.305262e-01
    outer loop
      vertex 1.000000e+01 2.237495e+00 6.762501e+00
      vertex -1.000000e+01 2.399773e+00 5.529873e+00
      vertex -1.000000e+01 2.237495e+00 6.762501e+00
    endloop
  endfacet
  facet normal 5.274219e-15 9.914449e-01 1.305262e-01
    outer loop
      vertex -1.000000e+01 2.399773e+00 5.529873e+00
      vertex 1.000000e+01 2.237495e+00 6.762501e+00
      vertex 1.000000e+01 2.399773e+00 5.529873e+00
    endloop
  endfacet
  facet normal -7.933705e-15 -6.087614e-01 -7.933533e-01
    outer loop
      vertex 1.000000e+01 1.036759e+01 1.013010e+01
      vertex -1.000000e+01 9.381248e+00 1.088695e+01
      vertex -1.000000e+01 1.036759e+01 1.013010e+01
    endloop
  endfacet
  facet normal -7.933705e-15 -6.087614e-01 -7.933533e-01
    outer loop
      vertex -1.000000e+01 9.381248e+00 1.088695e+01
      vertex 1.000000e+01 1.036759e+01 1.013010e+01
      vertex 1.000000e+01 9.381248e+00 1.088695e+01
    endloop
  endfacet
  facet normal 6.633374e-15 9.238795e-01 3.826834e-01
    outer loop
      vertex 1.000000e+01 2.399773e+00 5.529873e+00
      vertex -1.000000e+01 2.875557e+00 4.381252e+00
      vertex -1.000000e+01 2.399773e+00 5.529873e+00
    endloop
  endfacet
  facet normal 6.633374e-15 9.238795e-01 3.826834e-01
    outer loop
      vertex -1.000000e+01 2.875557e+00 4.381252e+00
      vertex 1.000000e+01 2.399773e+00 5.529873e+00
      vertex 1.000000e+01 2.875557e+00 4.381252e+00
    endloop
  endfacet
  facet normal 7.540475e-15 7.933533e-01 6.087614e-01
    outer loop
      vertex 1.000000e+01 2.875557e+00 4.381252e+00
      vertex -1.000000e+01 3.632408e+00 3.394905e+00
      vertex -1.000000e+01 2.875557e+00 4.381252e+00
    endloop
  endfacet
  facet normal 7.540475e-15 7.933533e-01 6.087614e-01
    outer loop
      vertex -1.000000e+01 3.632408e+00 3.394905e+00
      vertex 1.000000e+01 2.875557e+00 4.381252e+00
      vertex 1.000000e+01 3.632408e+00 3.394905e+00
    endloop
  endfacet
  facet normal 7.540475e-15 7.933533e-01 6.087614e-01
    outer loop
      vertex 1.000000e+01 1.178181e+01 1.154431e+01
      vertex -1.000000e+01 1.285650e+01 1.014375e+01
      vertex -1.000000e+01 1.178181e+01 1.154431e+01
    endloop
  endfacet
  facet normal 7.540475e-15 7.933533e-01 6.087614e-01
    outer loop
      vertex -1.000000e+01 1.285650e+01 1.014375e+01
      vertex 1.000000e+01 1.178181e+01 1.154431e+01
      vertex 1.000000e+01 1.285650e+01 1.014375e+01
    endloop
  endfacet
  facet normal 7.639193e-15 9.914449e-01 1.305262e-01
    outer loop
      vertex 1.000000e+01 1.353207e+01 8.512764e+00
      vertex -1.000000e+01 1.376250e+01 6.762501e+00
      vertex -1.000000e+01 1.353207e+01 8.512764e+00
    endloop
  endfacet
  facet normal 7.639193e-15 9.914449e-01 1.305262e-01
    outer loop
      vertex -1.000000e+01 1.376250e+01 6.762501e+00
      vertex 1.000000e+01 1.353207e+01 8.512764e+00
      vertex 1.000000e+01 1.376250e+01 6.762501e+00
    endloop
  endfacet
  facet normal -7.786267e-15 -3.826834e-01 -9.238795e-01
    outer loop
      vertex -1.000000e+01 9.381248e+00 1.088695e+01
      vertex 1.000000e+01 8.232628e+00 1.136272e+01
      vertex -1.000000e+01 8.232628e+00 1.136272e+01
    endloop
  endfacet
  facet normal -7.786267e-15 -3.826834e-01 -9.238795e-01
    outer loop
      vertex 1.000000e+01 8.232628e+00 1.136272e+01
      vertex -1.000000e+01 9.381248e+00 1.088695e+01
      vertex 1.000000e+01 9.381248e+00 1.088695e+01
    endloop
  endfacet
  facet normal -5.945735e-15 1.305262e-01 -9.914449e-01
    outer loop
      vertex 1.000000e+01 6.999992e+00 1.152500e+01
      vertex -1.000000e+01 5.767372e+00 1.136272e+01
      vertex -1.000000e+01 6.999992e+00 1.152500e+01
    endloop
  endfacet
  facet normal -5.945735e-15 1.305262e-01 -9.914449e-01
    outer loop
      vertex -1.000000e+01 5.767372e+00 1.136272e+01
      vertex 1.000000e+01 6.999992e+00 1.152500e+01
      vertex 1.000000e+01 5.767372e+00 1.136272e+01
    endloop
  endfacet
  facet normal -2.512048e-15 6.087614e-01 -7.933533e-01
    outer loop
      vertex -1.000000e+01 4.618752e+00 1.088695e+01
      vertex 1.000000e+01 3.632408e+00 1.013010e+01
      vertex -1.000000e+01 3.632408e+00 1.013010e+01
    endloop
  endfacet
  facet normal -2.512048e-15 6.087614e-01 -7.933533e-01
    outer loop
      vertex 1.000000e+01 3.632408e+00 1.013010e+01
      vertex -1.000000e+01 4.618752e+00 1.088695e+01
      vertex 1.000000e+01 4.618752e+00 1.088695e+01
    endloop
  endfacet
  facet normal -6.633374e-15 -9.238795e-01 -3.826834e-01
    outer loop
      vertex -1.000000e+01 1.160023e+01 7.995125e+00
      vertex 1.000000e+01 1.112444e+01 9.143749e+00
      vertex -1.000000e+01 1.112444e+01 9.143749e+00
    endloop
  endfacet
  facet normal -6.633374e-15 -9.238795e-01 -3.826834e-01
    outer loop
      vertex 1.000000e+01 1.112444e+01 9.143749e+00
      vertex -1.000000e+01 1.160023e+01 7.995125e+00
      vertex 1.000000e+01 1.160023e+01 7.995125e+00
    endloop
  endfacet
  facet normal 7.933705e-15 6.087614e-01 7.933533e-01
    outer loop
      vertex 1.000000e+01 1.038125e+01 1.261900e+01
      vertex -1.000000e+01 1.178181e+01 1.154431e+01
      vertex -1.000000e+01 1.038125e+01 1.261900e+01
    endloop
  endfacet
  facet normal 7.933705e-15 6.087614e-01 7.933533e-01
    outer loop
      vertex -1.000000e+01 1.178181e+01 1.154431e+01
      vertex 1.000000e+01 1.038125e+01 1.261900e+01
      vertex 1.000000e+01 1.178181e+01 1.154431e+01
    endloop
  endfacet
  facet normal -5.274219e-15 -9.914449e-01 -1.305262e-01
    outer loop
      vertex -1.000000e+01 1.176250e+01 6.762501e+00
      vertex 1.000000e+01 1.160023e+01 7.995125e+00
      vertex -1.000000e+01 1.160023e+01 7.995125e+00
    endloop
  endfacet
  facet normal -5.274219e-15 -9.914449e-01 -1.305262e-01
    outer loop
      vertex 1.000000e+01 1.160023e+01 7.995125e+00
      vertex -1.000000e+01 1.176250e+01 6.762501e+00
      vertex 1.000000e+01 1.176250e+01 6.762501e+00
    endloop
  endfacet
  facet normal -7.108207e-15 -1.305262e-01 -9.914449e-01
    outer loop
      vertex 1.000000e+01 8.232628e+00 1.136272e+01
      vertex -1.000000e+01 6.999992e+00 1.152500e+01
      vertex -1.000000e+01 8.232628e+00 1.136272e+01
    endloop
  endfacet
  facet normal -7.108207e-15 -1.305262e-01 -9.914449e-01
    outer loop
      vertex -1.000000e+01 6.999992e+00 1.152500e+01
      vertex 1.000000e+01 8.232628e+00 1.136272e+01
      vertex 1.000000e+01 6.999992e+00 1.152500e+01
    endloop
  endfacet
  facet normal 7.108207e-15 1.305262e-01 9.914449e-01
    outer loop
      vertex -1.000000e+01 6.999992e+00 1.352500e+01
      vertex 1.000000e+01 8.750267e+00 1.329457e+01
      vertex -1.000000e+01 8.750267e+00 1.329457e+01
    endloop
  endfacet
  facet normal 7.108207e-15 1.305262e-01 9.914449e-01
    outer loop
      vertex 1.000000e+01 8.750267e+00 1.329457e+01
      vertex -1.000000e+01 6.999992e+00 1.352500e+01
      vertex 1.000000e+01 6.999992e+00 1.352500e+01
    endloop
  endfacet
  facet normal -4.378071e-15 3.826834e-01 -9.238795e-01
    outer loop
      vertex 1.000000e+01 5.767372e+00 1.136272e+01
      vertex -1.000000e+01 4.618752e+00 1.088695e+01
      vertex -1.000000e+01 5.767372e+00 1.136272e+01
    endloop
  endfacet
  facet normal -4.378071e-15 3.826834e-01 -9.238795e-01
    outer loop
      vertex -1.000000e+01 4.618752e+00 1.088695e+01
      vertex 1.000000e+01 5.767372e+00 1.136272e+01
      vertex 1.000000e+01 4.618752e+00 1.088695e+01
    endloop
  endfacet
  facet normal 7.786267e-15 3.826834e-01 9.238795e-01
    outer loop
      vertex 1.000000e+01 8.750267e+00 1.329457e+01
      vertex -1.000000e+01 1.038125e+01 1.261900e+01
      vertex -1.000000e+01 8.750267e+00 1.329457e+01
    endloop
  endfacet
  facet normal 7.786267e-15 3.826834e-01 9.238795e-01
    outer loop
      vertex -1.000000e+01 1.038125e+01 1.261900e+01
      vertex 1.000000e+01 8.750267e+00 1.329457e+01
      vertex 1.000000e+01 1.038125e+01 1.261900e+01
    endloop
  endfacet
  facet normal -7.540475e-15 -7.933533e-01 -6.087614e-01
    outer loop
      vertex -1.000000e+01 1.112444e+01 9.143749e+00
      vertex 1.000000e+01 1.036759e+01 1.013010e+01
      vertex -1.000000e+01 1.036759e+01 1.013010e+01
    endloop
  endfacet
  facet normal -7.540475e-15 -7.933533e-01 -6.087614e-01
    outer loop
      vertex 1.000000e+01 1.036759e+01 1.013010e+01
      vertex -1.000000e+01 1.112444e+01 9.143749e+00
      vertex 1.000000e+01 1.112444e+01 9.143749e+00
    endloop
  endfacet
  facet normal -4.748337e-16 7.933533e-01 -6.087614e-01
    outer loop
      vertex 1.000000e+01 3.632408e+00 1.013010e+01
      vertex -1.000000e+01 2.875557e+00 9.143749e+00
      vertex -1.000000e+01 3.632408e+00 1.013010e+01
    endloop
  endfacet
  facet normal -4.748337e-16 7.933533e-01 -6.087614e-01
    outer loop
      vertex -1.000000e+01 2.875557e+00 9.143749e+00
      vertex 1.000000e+01 3.632408e+00 1.013010e+01
      vertex 1.000000e+01 2.875557e+00 9.143749e+00
    endloop
  endfacet
  facet normal 1.594740e-15 9.238795e-01 -3.826834e-01
    outer loop
      vertex 1.000000e+01 2.875557e+00 9.143749e+00
      vertex -1.000000e+01 2.399773e+00 7.995125e+00
      vertex -1.000000e+01 2.875557e+00 9.143749e+00
    endloop
  endfacet
  facet normal 1.594740e-15 9.238795e-01 -3.826834e-01
    outer loop
      vertex -1.000000e+01 2.399773e+00 7.995125e+00
      vertex 1.000000e+01 2.875557e+00 9.143749e+00
      vertex 1.000000e+01 2.399773e+00 7.995125e+00
    endloop
  endfacet
  facet normal 6.633374e-15 9.238795e-01 3.826834e-01
    outer loop
      vertex 1.000000e+01 1.285650e+01 1.014375e+01
      vertex -1.000000e+01 1.353207e+01 8.512764e+00
      vertex -1.000000e+01 1.285650e+01 1.014375e+01
    endloop
  endfacet
  facet normal 6.633374e-15 9.238795e-01 3.826834e-01
    outer loop
      vertex -1.000000e+01 1.353207e+01 8.512764e+00
      vertex 1.000000e+01 1.285650e+01 1.014375e+01
      vertex 1.000000e+01 1.353207e+01 8.512764e+00
    endloop
  endfacet
  facet normal 5.945735e-15 -1.305262e-01 9.914449e-01
    outer loop
      vertex 1.000000e+01 6.999992e+00 2.000000e+00
      vertex -1.000000e+01 8.232628e+00 2.162277e+00
      vertex -1.000000e+01 6.999992e+00 2.000000e+00
    endloop
  endfacet
  facet normal 5.945735e-15 -1.305262e-01 9.914449e-01
    outer loop
      vertex -1.000000e+01 8.232628e+00 2.162277e+00
      vertex 1.000000e+01 6.999992e+00 2.000000e+00
      vertex 1.000000e+01 8.232628e+00 2.162277e+00
    endloop
  endfacet
  facet normal 7.786267e-15 3.826834e-01 9.238795e-01
    outer loop
      vertex 1.000000e+01 4.618752e+00 2.638054e+00
      vertex -1.000000e+01 5.767372e+00 2.162277e+00
      vertex -1.000000e+01 4.618752e+00 2.638054e+00
    endloop
  endfacet
  facet normal 7.786267e-15 3.826834e-01 9.238795e-01
    outer loop
      vertex -1.000000e+01 5.767372e+00 2.162277e+00
      vertex 1.000000e+01 4.618752e+00 2.638054e+00
      vertex 1.000000e+01 5.767372e+00 2.162277e+00
    endloop
  endfacet
  facet normal 7.108207e-15 1.305262e-01 9.914449e-01
    outer loop
      vertex -1.000000e+01 5.767372e+00 2.162277e+00
      vertex 1.000000e+01 6.999992e+00 2.000000e+00
      vertex -1.000000e+01 6.999992e+00 2.000000e+00
    endloop
  endfacet
  facet normal 7.108207e-15 1.305262e-01 9.914449e-01
    outer loop
      vertex 1.000000e+01 6.999992e+00 2.000000e+00
      vertex -1.000000e+01 5.767372e+00 2.162277e+00
      vertex 1.000000e+01 5.767372e+00 2.162277e+00
    endloop
  endfacet
  facet normal 4.378071e-15 -3.826834e-01 9.238795e-01
    outer loop
      vertex -1.000000e+01 8.232628e+00 2.162277e+00
      vertex 1.000000e+01 9.381248e+00 2.638054e+00
      vertex -1.000000e+01 9.381248e+00 2.638054e+00
    endloop
  endfacet
  facet normal 4.378071e-15 -3.826834e-01 9.238795e-01
    outer loop
      vertex 1.000000e+01 9.381248e+00 2.638054e+00
      vertex -1.000000e+01 8.232628e+00 2.162277e+00
      vertex 1.000000e+01 8.232628e+00 2.162277e+00
    endloop
  endfacet
  facet normal 4.748337e-16 -7.933533e-01 6.087614e-01
    outer loop
      vertex -1.000000e+01 1.036759e+01 3.394905e+00
      vertex 1.000000e+01 1.112444e+01 4.381252e+00
      vertex -1.000000e+01 1.112444e+01 4.381252e+00
    endloop
  endfacet
  facet normal 4.748337e-16 -7.933533e-01 6.087614e-01
    outer loop
      vertex 1.000000e+01 1.112444e+01 4.381252e+00
      vertex -1.000000e+01 1.036759e+01 3.394905e+00
      vertex 1.000000e+01 1.036759e+01 3.394905e+00
    endloop
  endfacet
  facet normal 7.933705e-15 6.087614e-01 7.933533e-01
    outer loop
      vertex 1.000000e+01 3.632408e+00 3.394905e+00
      vertex -1.000000e+01 4.618752e+00 2.638054e+00
      vertex -1.000000e+01 3.632408e+00 3.394905e+00
    endloop
  endfacet
  facet normal 7.933705e-15 6.087614e-01 7.933533e-01
    outer loop
      vertex -1.000000e+01 4.618752e+00 2.638054e+00
      vertex 1.000000e+01 3.632408e+00 3.394905e+00
      vertex 1.000000e+01 4.618752e+00 2.638054e+00
    endloop
  endfacet
  facet normal 2.512048e-15 -6.087614e-01 7.933533e-01
    outer loop
      vertex 1.000000e+01 9.381248e+00 2.638054e+00
      vertex -1.000000e+01 1.036759e+01 3.394905e+00
      vertex -1.000000e+01 9.381248e+00 2.638054e+00
    endloop
  endfacet
  facet normal 2.512048e-15 -6.087614e-01 7.933533e-01
    outer loop
      vertex -1.000000e+01 1.036759e+01 3.394905e+00
      vertex 1.000000e+01 9.381248e+00 2.638054e+00
      vertex 1.000000e+01 1.036759e+01 3.394905e+00
    endloop
  endfacet
  facet normal -1.594740e-15 -9.238795e-01 3.826834e-01
    outer loop
      vertex -1.000000e+01 1.112444e+01 4.381252e+00
      vertex 1.000000e+01 1.160023e+01 5.529873e+00
      vertex -1.000000e+01 1.160023e+01 5.529873e+00
    endloop
  endfacet
  facet normal -1.594740e-15 -9.238795e-01 3.826834e-01
    outer loop
      vertex 1.000000e+01 1.160023e+01 5.529873e+00
      vertex -1.000000e+01 1.112444e+01 4.381252e+00
      vertex 1.000000e+01 1.112444e+01 4.381252e+00
    endloop
  endfacet
  facet normal -3.555635e-15 -9.914449e-01 1.305262e-01
    outer loop
      vertex -1.000000e+01 1.160023e+01 5.529873e+00
      vertex 1.000000e+01 1.176250e+01 6.762501e+00
      vertex -1.000000e+01 1.176250e+01 6.762501e+00
    endloop
  endfacet
  facet normal -3.555635e-15 -9.914449e-01 1.305262e-01
    outer loop
      vertex 1.000000e+01 1.176250e+01 6.762501e+00
      vertex -1.000000e+01 1.160023e+01 5.529873e+00
      vertex 1.000000e+01 1.160023e+01 5.529873e+00
    endloop
  endfacet
  facet normal 2.248884e-15 1.000000e+00 1.360304e-14
    outer loop
      vertex 1.000000e+01 1.376250e+01 6.762501e+00
      vertex -1.000000e+01 1.376250e+01 0.000000e+00
      vertex -1.000000e+01 1.376250e+01 6.762501e+00
    endloop
  endfacet
  facet normal 2.248884e-15 1.000000e+00 1.360304e-14
    outer loop
      vertex -1.000000e+01 1.376250e+01 0.000000e+00
      vertex 1.000000e+01 1.376250e+01 6.762501e+00
      vertex 1.000000e+01 1.376250e+01 0.000000e+00
    endloop
  endfacet
endsolid Default
