%TF.GenerationSoftware,KiCad,Pcbnew,(6.0.8)*%
%TF.CreationDate,2022-12-05T17:36:04-05:00*%
%TF.ProjectId,MIDIViolina,4d494449-5669-46f6-9c69-6e612e6b6963,1.00*%
%TF.SameCoordinates,PX42998f8PY853a720*%
%TF.FileFunction,Copper,L1,Top*%
%TF.FilePolarity,Positive*%
%FSLAX46Y46*%
G04 Gerber Fmt 4.6, Leading zero omitted, Abs format (unit mm)*
G04 Created by KiCad (PCBNEW (6.0.8)) date 2022-12-05 17:36:04*
%MOMM*%
%LPD*%
G01*
G04 APERTURE LIST*
%TA.AperFunction,ComponentPad*%
%ADD10C,1.600000*%
%TD*%
%TA.AperFunction,ComponentPad*%
%ADD11O,1.600000X1.600000*%
%TD*%
%TA.AperFunction,ComponentPad*%
%ADD12R,1.905000X2.000000*%
%TD*%
%TA.AperFunction,ComponentPad*%
%ADD13O,1.905000X2.000000*%
%TD*%
%TA.AperFunction,ComponentPad*%
%ADD14R,1.700000X1.700000*%
%TD*%
%TA.AperFunction,ComponentPad*%
%ADD15O,1.700000X1.700000*%
%TD*%
%TA.AperFunction,ComponentPad*%
%ADD16R,2.200000X2.200000*%
%TD*%
%TA.AperFunction,ComponentPad*%
%ADD17O,2.200000X2.200000*%
%TD*%
%TA.AperFunction,ComponentPad*%
%ADD18O,1.600000X2.400000*%
%TD*%
%TA.AperFunction,ComponentPad*%
%ADD19R,1.600000X2.400000*%
%TD*%
%TA.AperFunction,ComponentPad*%
%ADD20R,1.600000X1.600000*%
%TD*%
%TA.AperFunction,ComponentPad*%
%ADD21R,2.400000X1.600000*%
%TD*%
%TA.AperFunction,ComponentPad*%
%ADD22O,2.400000X1.600000*%
%TD*%
%TA.AperFunction,ComponentPad*%
%ADD23R,2.000000X2.000000*%
%TD*%
%TA.AperFunction,ComponentPad*%
%ADD24C,2.000000*%
%TD*%
%TA.AperFunction,ViaPad*%
%ADD25C,2.000000*%
%TD*%
G04 APERTURE END LIST*
D10*
%TO.P,R5,1*%
%TO.N,/Step*%
X81295000Y34290000D03*
D11*
%TO.P,R5,2*%
%TO.N,Net-(Q5-Pad1)*%
X81295000Y41910000D03*
%TD*%
D12*
%TO.P,Q5,1,G*%
%TO.N,Net-(Q5-Pad1)*%
X81295000Y44450000D03*
D13*
%TO.P,Q5,2,D*%
%TO.N,Net-(D1-Pad1)*%
X83835000Y44450000D03*
%TO.P,Q5,3,S*%
%TO.N,GND*%
X86375000Y44450000D03*
%TD*%
D14*
%TO.P,J7,1,Pin_1*%
%TO.N,+24V*%
X86375000Y39370000D03*
D15*
%TO.P,J7,2,Pin_2*%
%TO.N,Net-(D1-Pad1)*%
X83835000Y39370000D03*
%TD*%
D16*
%TO.P,D1,1,K*%
%TO.N,Net-(D1-Pad1)*%
X83835000Y41910000D03*
D17*
%TO.P,D1,2,A*%
%TO.N,+24V*%
X91455000Y41910000D03*
%TD*%
D18*
%TO.P,U6,16,VCC*%
%TO.N,+5V*%
X66040000Y6365000D03*
%TO.P,U6,15,QA*%
%TO.N,F2 NOTE*%
X63500000Y6365000D03*
%TO.P,U6,14,SER*%
%TO.N,Net-(U5-Pad9)*%
X60960000Y6365000D03*
%TO.P,U6,13,~{OE}*%
%TO.N,OUT ENABLE*%
X58420000Y6365000D03*
%TO.P,U6,12,RCLK*%
%TO.N,LATCH*%
X55880000Y6365000D03*
%TO.P,U6,11,SRCLK*%
%TO.N,SHIFT CLOCK*%
X53340000Y6365000D03*
%TO.P,U6,10,~{SRCLR}*%
%TO.N,SHIFT CLEAR*%
X50800000Y6365000D03*
%TO.P,U6,9,QH'*%
%TO.N,unconnected-(U6-Pad9)*%
X48260000Y6365000D03*
%TO.P,U6,8,GND*%
%TO.N,GND*%
X48260000Y13985000D03*
%TO.P,U6,7,QH*%
%TO.N,STRING 4*%
X50800000Y13985000D03*
%TO.P,U6,6,QG*%
%TO.N,B3 NOTE*%
X53340000Y13985000D03*
%TO.P,U6,5,QF*%
%TO.N,A#3 NOTE*%
X55880000Y13985000D03*
%TO.P,U6,4,QE*%
%TO.N,A3 NOTE*%
X58420000Y13985000D03*
%TO.P,U6,3,QD*%
%TO.N,G#3 NOTE*%
X60960000Y13985000D03*
%TO.P,U6,2,QC*%
%TO.N,G2 NOTE*%
X63500000Y13985000D03*
D19*
%TO.P,U6,1,QB*%
%TO.N,F#2 NOTE*%
X66040000Y13985000D03*
%TD*%
D12*
%TO.P,U1,1,VI*%
%TO.N,+24V*%
X140985000Y39370000D03*
D13*
%TO.P,U1,2,GND*%
%TO.N,GND*%
X143525000Y39370000D03*
%TO.P,U1,3,VO*%
%TO.N,+5V*%
X146065000Y39370000D03*
%TD*%
D17*
%TO.P,D20,2,A*%
%TO.N,+24V*%
X91455000Y54610000D03*
D16*
%TO.P,D20,1,K*%
%TO.N,Net-(D20-Pad1)*%
X83835000Y54610000D03*
%TD*%
D13*
%TO.P,Q9,3,S*%
%TO.N,GND*%
X25415000Y82550000D03*
%TO.P,Q9,2,D*%
%TO.N,Net-(D5-Pad1)*%
X22875000Y82550000D03*
D12*
%TO.P,Q9,1,G*%
%TO.N,Net-(Q9-Pad1)*%
X20335000Y82550000D03*
%TD*%
D17*
%TO.P,D19,2,A*%
%TO.N,+24V*%
X48275000Y54610000D03*
D16*
%TO.P,D19,1,K*%
%TO.N,Net-(D19-Pad1)*%
X40655000Y54610000D03*
%TD*%
D17*
%TO.P,D31,2,A*%
%TO.N,+24V*%
X12715000Y41910000D03*
D16*
%TO.P,D31,1,K*%
%TO.N,Net-(D31-Pad1)*%
X5095000Y41910000D03*
%TD*%
D11*
%TO.P,R20,2*%
%TO.N,Net-(Q20-Pad1)*%
X20335000Y41910000D03*
D10*
%TO.P,R20,1*%
%TO.N,A#2 NOTE*%
X20335000Y34290000D03*
%TD*%
D13*
%TO.P,Q33,3,S*%
%TO.N,GND*%
X60975000Y57150000D03*
%TO.P,Q33,2,D*%
%TO.N,Net-(D29-Pad1)*%
X58435000Y57150000D03*
D12*
%TO.P,Q33,1,G*%
%TO.N,Net-(Q33-Pad1)*%
X55895000Y57150000D03*
%TD*%
D17*
%TO.P,D11,2,A*%
%TO.N,+24V*%
X30495000Y92710000D03*
D16*
%TO.P,D11,1,K*%
%TO.N,Net-(D11-Pad1)*%
X22875000Y92710000D03*
%TD*%
D10*
%TO.P,R12,1*%
%TO.N,A NOTE*%
X81295000Y72390000D03*
D11*
%TO.P,R12,2*%
%TO.N,Net-(Q12-Pad1)*%
X81295000Y80010000D03*
%TD*%
D10*
%TO.P,R1,1*%
%TO.N,GND*%
X140985000Y90170000D03*
D11*
%TO.P,R1,2*%
%TO.N,/Motor 1*%
X133365000Y90170000D03*
%TD*%
D15*
%TO.P,J28,2,Pin_2*%
%TO.N,Net-(D19-Pad1)*%
X40655000Y52070000D03*
D14*
%TO.P,J28,1,Pin_1*%
%TO.N,+24V*%
X43195000Y52070000D03*
%TD*%
%TO.P,J9,1,Pin_1*%
%TO.N,+5V*%
X138435000Y2540000D03*
D15*
%TO.P,J9,2,Pin_2*%
%TO.N,GND*%
X135895000Y2540000D03*
%TO.P,J9,3,Pin_3*%
%TO.N,Net-(J9-Pad3)*%
X133355000Y2540000D03*
%TO.P,J9,4,Pin_4*%
%TO.N,Net-(J9-Pad4)*%
X130815000Y2540000D03*
%TD*%
%TO.P,J36,2,Pin_2*%
%TO.N,Net-(D27-Pad1)*%
X5095000Y52070000D03*
D14*
%TO.P,J36,1,Pin_1*%
%TO.N,+24V*%
X7635000Y52070000D03*
%TD*%
D12*
%TO.P,Q2,1,G*%
%TO.N,/Motor 3*%
X133365000Y77470000D03*
D13*
%TO.P,Q2,2,D*%
%TO.N,Net-(J2-Pad2)*%
X135905000Y77470000D03*
%TO.P,Q2,3,S*%
%TO.N,GND*%
X138445000Y77470000D03*
%TD*%
%TO.P,Q15,3,S*%
%TO.N,GND*%
X25415000Y95250000D03*
%TO.P,Q15,2,D*%
%TO.N,Net-(D11-Pad1)*%
X22875000Y95250000D03*
D12*
%TO.P,Q15,1,G*%
%TO.N,Net-(Q15-Pad1)*%
X20335000Y95250000D03*
%TD*%
%TO.P,Q7,1,G*%
%TO.N,Net-(Q7-Pad1)*%
X99075000Y69850000D03*
D13*
%TO.P,Q7,2,D*%
%TO.N,Net-(D3-Pad1)*%
X101615000Y69850000D03*
%TO.P,Q7,3,S*%
%TO.N,GND*%
X104155000Y69850000D03*
%TD*%
D20*
%TO.P,A1,1,GND*%
%TO.N,GND*%
X133365000Y48250000D03*
D11*
%TO.P,A1,2,VDD*%
%TO.N,+5V*%
X130825000Y48250000D03*
%TO.P,A1,3,1B*%
%TO.N,Net-(A1-Pad3)*%
X128285000Y48250000D03*
%TO.P,A1,4,1A*%
%TO.N,Net-(A1-Pad4)*%
X125745000Y48250000D03*
%TO.P,A1,5,2A*%
%TO.N,Net-(A1-Pad5)*%
X123205000Y48250000D03*
%TO.P,A1,6,2B*%
%TO.N,Net-(A1-Pad6)*%
X120665000Y48250000D03*
%TO.P,A1,7,GND*%
%TO.N,GND*%
X118125000Y48250000D03*
%TO.P,A1,8,VMOT*%
%TO.N,+24V*%
X115585000Y48250000D03*
%TO.P,A1,9,~{ENABLE}*%
%TO.N,/Enable*%
X115585000Y35550000D03*
%TO.P,A1,10,MS1*%
%TO.N,Net-(A1-Pad10)*%
X118125000Y35550000D03*
%TO.P,A1,11,MS2*%
%TO.N,Net-(A1-Pad11)*%
X120665000Y35550000D03*
%TO.P,A1,12,MS3*%
%TO.N,Net-(A1-Pad12)*%
X123205000Y35550000D03*
%TO.P,A1,13,~{RESET}*%
%TO.N,Net-(A1-Pad13)*%
X125745000Y35550000D03*
%TO.P,A1,14,~{SLEEP}*%
X128285000Y35550000D03*
%TO.P,A1,15,STEP*%
%TO.N,/Step*%
X130825000Y35550000D03*
%TO.P,A1,16,DIR*%
%TO.N,/Direction*%
X133365000Y35550000D03*
%TD*%
D16*
%TO.P,D2,1,K*%
%TO.N,Net-(D2-Pad1)*%
X83835000Y92710000D03*
D17*
%TO.P,D2,2,A*%
%TO.N,+24V*%
X91455000Y92710000D03*
%TD*%
D12*
%TO.P,Q12,1,G*%
%TO.N,Net-(Q12-Pad1)*%
X81295000Y82550000D03*
D13*
%TO.P,Q12,2,D*%
%TO.N,Net-(D8-Pad1)*%
X83835000Y82550000D03*
%TO.P,Q12,3,S*%
%TO.N,GND*%
X86375000Y82550000D03*
%TD*%
%TO.P,Q24,3,S*%
%TO.N,GND*%
X86375000Y57150000D03*
%TO.P,Q24,2,D*%
%TO.N,Net-(D20-Pad1)*%
X83835000Y57150000D03*
D12*
%TO.P,Q24,1,G*%
%TO.N,Net-(Q24-Pad1)*%
X81295000Y57150000D03*
%TD*%
D13*
%TO.P,Q10,3,S*%
%TO.N,GND*%
X43195000Y31750000D03*
%TO.P,Q10,2,D*%
%TO.N,Net-(D6-Pad1)*%
X40655000Y31750000D03*
D12*
%TO.P,Q10,1,G*%
%TO.N,Net-(Q10-Pad1)*%
X38115000Y31750000D03*
%TD*%
D11*
%TO.P,R17,2*%
%TO.N,Net-(Q17-Pad1)*%
X20335000Y54610000D03*
D10*
%TO.P,R17,1*%
%TO.N,STRING 2*%
X20335000Y46990000D03*
%TD*%
D13*
%TO.P,Q23,3,S*%
%TO.N,GND*%
X43195000Y57150000D03*
%TO.P,Q23,2,D*%
%TO.N,Net-(D19-Pad1)*%
X40655000Y57150000D03*
D12*
%TO.P,Q23,1,G*%
%TO.N,Net-(Q23-Pad1)*%
X38115000Y57150000D03*
%TD*%
D13*
%TO.P,Q13,3,S*%
%TO.N,GND*%
X7635000Y95250000D03*
%TO.P,Q13,2,D*%
%TO.N,Net-(D9-Pad1)*%
X5095000Y95250000D03*
D12*
%TO.P,Q13,1,G*%
%TO.N,Net-(Q13-Pad1)*%
X2555000Y95250000D03*
%TD*%
D17*
%TO.P,D18,2,A*%
%TO.N,+24V*%
X66055000Y80010000D03*
D16*
%TO.P,D18,1,K*%
%TO.N,Net-(D18-Pad1)*%
X58435000Y80010000D03*
%TD*%
D15*
%TO.P,J27,2,Pin_2*%
%TO.N,Net-(D18-Pad1)*%
X58435000Y77470000D03*
D14*
%TO.P,J27,1,Pin_1*%
%TO.N,+24V*%
X60975000Y77470000D03*
%TD*%
D17*
%TO.P,D4,2,A*%
%TO.N,+24V*%
X12715000Y29210000D03*
D16*
%TO.P,D4,1,K*%
%TO.N,Net-(D4-Pad1)*%
X5095000Y29210000D03*
%TD*%
D11*
%TO.P,R8,2*%
%TO.N,Net-(Q8-Pad1)*%
X2555000Y29210000D03*
D10*
%TO.P,R8,1*%
%TO.N,G#2 NOTE*%
X2555000Y21590000D03*
%TD*%
D12*
%TO.P,Q1,1,G*%
%TO.N,/Motor 1*%
X133365000Y92710000D03*
D13*
%TO.P,Q1,2,D*%
%TO.N,Net-(J1-Pad2)*%
X135905000Y92710000D03*
%TO.P,Q1,3,S*%
%TO.N,GND*%
X138445000Y92710000D03*
%TD*%
D14*
%TO.P,J3,1,Pin_1*%
%TO.N,+24V*%
X116855000Y72390000D03*
D15*
%TO.P,J3,2,Pin_2*%
%TO.N,Net-(J3-Pad2)*%
X119395000Y72390000D03*
%TD*%
D17*
%TO.P,D28,2,A*%
%TO.N,+24V*%
X48275000Y67310000D03*
D16*
%TO.P,D28,1,K*%
%TO.N,Net-(D28-Pad1)*%
X40655000Y67310000D03*
%TD*%
D13*
%TO.P,Q20,3,S*%
%TO.N,GND*%
X25415000Y44450000D03*
%TO.P,Q20,2,D*%
%TO.N,Net-(D16-Pad1)*%
X22875000Y44450000D03*
D12*
%TO.P,Q20,1,G*%
%TO.N,Net-(Q20-Pad1)*%
X20335000Y44450000D03*
%TD*%
D11*
%TO.P,R9,2*%
%TO.N,Net-(Q9-Pad1)*%
X20335000Y80010000D03*
D10*
%TO.P,R9,1*%
%TO.N,C2 NOTE*%
X20335000Y72390000D03*
%TD*%
D11*
%TO.P,R37,2*%
%TO.N,Net-(Q37-Pad1)*%
X55895000Y41910000D03*
D10*
%TO.P,R37,1*%
%TO.N,B3 NOTE*%
X55895000Y34290000D03*
%TD*%
%TO.P,R7,1*%
%TO.N,D NOTE*%
X99075000Y59690000D03*
D11*
%TO.P,R7,2*%
%TO.N,Net-(Q7-Pad1)*%
X99075000Y67310000D03*
%TD*%
D14*
%TO.P,J17,1,Pin_1*%
%TO.N,+24V*%
X86375000Y77470000D03*
D15*
%TO.P,J17,2,Pin_2*%
%TO.N,Net-(D8-Pad1)*%
X83835000Y77470000D03*
%TD*%
D11*
%TO.P,R32,2*%
%TO.N,Net-(Q32-Pad1)*%
X38115000Y67310000D03*
D10*
%TO.P,R32,1*%
%TO.N,E2 NOTE*%
X38115000Y59690000D03*
%TD*%
D14*
%TO.P,J5,1,Pin_1*%
%TO.N,+24V*%
X140985000Y48275000D03*
D15*
%TO.P,J5,2,Pin_2*%
%TO.N,GND*%
X140985000Y50815000D03*
%TO.P,J5,3,Pin_3*%
%TO.N,unconnected-(J5-Pad3)*%
X140985000Y53355000D03*
%TD*%
D14*
%TO.P,J12,1,Pin_1*%
%TO.N,+24V*%
X104155000Y64770000D03*
D15*
%TO.P,J12,2,Pin_2*%
%TO.N,Net-(D3-Pad1)*%
X101615000Y64770000D03*
%TD*%
D11*
%TO.P,R16,2*%
%TO.N,Net-(Q16-Pad1)*%
X55895000Y92710000D03*
D10*
%TO.P,R16,1*%
%TO.N,G2 NOTE*%
X55895000Y85090000D03*
%TD*%
D17*
%TO.P,D17,2,A*%
%TO.N,+24V*%
X48275000Y92710000D03*
D16*
%TO.P,D17,1,K*%
%TO.N,Net-(D17-Pad1)*%
X40655000Y92710000D03*
%TD*%
D12*
%TO.P,Q18,1,G*%
%TO.N,Net-(Q18-Pad1)*%
X81295000Y69850000D03*
D13*
%TO.P,Q18,2,D*%
%TO.N,Net-(D14-Pad1)*%
X83835000Y69850000D03*
%TO.P,Q18,3,S*%
%TO.N,GND*%
X86375000Y69850000D03*
%TD*%
D15*
%TO.P,J20,2,Pin_2*%
%TO.N,Net-(D11-Pad1)*%
X22875000Y90170000D03*
D14*
%TO.P,J20,1,Pin_1*%
%TO.N,+24V*%
X25415000Y90170000D03*
%TD*%
D15*
%TO.P,J25,2,Pin_2*%
%TO.N,Net-(D16-Pad1)*%
X22875000Y39370000D03*
D14*
%TO.P,J25,1,Pin_1*%
%TO.N,+24V*%
X25415000Y39370000D03*
%TD*%
D11*
%TO.P,R25,2*%
%TO.N,Net-(Q25-Pad1)*%
X2555000Y67310000D03*
D10*
%TO.P,R25,1*%
%TO.N,F NOTE*%
X2555000Y59690000D03*
%TD*%
D12*
%TO.P,Q34,1,G*%
%TO.N,Net-(Q34-Pad1)*%
X99075000Y82550000D03*
D13*
%TO.P,Q34,2,D*%
%TO.N,Net-(D30-Pad1)*%
X101615000Y82550000D03*
%TO.P,Q34,3,S*%
%TO.N,GND*%
X104155000Y82550000D03*
%TD*%
D15*
%TO.P,J29,2,Pin_2*%
%TO.N,Net-(D20-Pad1)*%
X83835000Y52070000D03*
D14*
%TO.P,J29,1,Pin_1*%
%TO.N,+24V*%
X86375000Y52070000D03*
%TD*%
D15*
%TO.P,J34,2,Pin_2*%
%TO.N,Net-(D25-Pad1)*%
X58435000Y26670000D03*
D14*
%TO.P,J34,1,Pin_1*%
%TO.N,+24V*%
X60975000Y26670000D03*
%TD*%
D17*
%TO.P,D22,2,A*%
%TO.N,+24V*%
X30495000Y29210000D03*
D16*
%TO.P,D22,1,K*%
%TO.N,Net-(D22-Pad1)*%
X22875000Y29210000D03*
%TD*%
D15*
%TO.P,J38,2,Pin_2*%
%TO.N,Net-(D29-Pad1)*%
X58435000Y52070000D03*
D14*
%TO.P,J38,1,Pin_1*%
%TO.N,+24V*%
X60975000Y52070000D03*
%TD*%
D11*
%TO.P,R15,2*%
%TO.N,Net-(Q15-Pad1)*%
X20335000Y92710000D03*
D10*
%TO.P,R15,1*%
%TO.N,C#2 NOTE*%
X20335000Y85090000D03*
%TD*%
D13*
%TO.P,Q29,3,S*%
%TO.N,GND*%
X60975000Y31750000D03*
%TO.P,Q29,2,D*%
%TO.N,Net-(D25-Pad1)*%
X58435000Y31750000D03*
D12*
%TO.P,Q29,1,G*%
%TO.N,Net-(Q29-Pad1)*%
X55895000Y31750000D03*
%TD*%
D15*
%TO.P,J31,2,Pin_2*%
%TO.N,Net-(D22-Pad1)*%
X22875000Y26670000D03*
D14*
%TO.P,J31,1,Pin_1*%
%TO.N,+24V*%
X25415000Y26670000D03*
%TD*%
D17*
%TO.P,D15,2,A*%
%TO.N,+24V*%
X12715000Y80010000D03*
D16*
%TO.P,D15,1,K*%
%TO.N,Net-(D15-Pad1)*%
X5095000Y80010000D03*
%TD*%
D13*
%TO.P,Q8,3,S*%
%TO.N,GND*%
X7635000Y31750000D03*
%TO.P,Q8,2,D*%
%TO.N,Net-(D4-Pad1)*%
X5095000Y31750000D03*
D12*
%TO.P,Q8,1,G*%
%TO.N,Net-(Q8-Pad1)*%
X2555000Y31750000D03*
%TD*%
D14*
%TO.P,J2,1,Pin_1*%
%TO.N,+24V*%
X133365000Y72390000D03*
D15*
%TO.P,J2,2,Pin_2*%
%TO.N,Net-(J2-Pad2)*%
X135905000Y72390000D03*
%TD*%
D10*
%TO.P,R4,1*%
%TO.N,GND*%
X124475000Y90170000D03*
D11*
%TO.P,R4,2*%
%TO.N,/Motor 4*%
X116855000Y90170000D03*
%TD*%
D13*
%TO.P,Q21,3,S*%
%TO.N,GND*%
X43195000Y95250000D03*
%TO.P,Q21,2,D*%
%TO.N,Net-(D17-Pad1)*%
X40655000Y95250000D03*
D12*
%TO.P,Q21,1,G*%
%TO.N,Net-(Q21-Pad1)*%
X38115000Y95250000D03*
%TD*%
D11*
%TO.P,R31,2*%
%TO.N,Net-(Q31-Pad1)*%
X2555000Y54610000D03*
D10*
%TO.P,R31,1*%
%TO.N,F# NOTE*%
X2555000Y46990000D03*
%TD*%
D17*
%TO.P,D5,2,A*%
%TO.N,+24V*%
X30495000Y80010000D03*
D16*
%TO.P,D5,1,K*%
%TO.N,Net-(D5-Pad1)*%
X22875000Y80010000D03*
%TD*%
D11*
%TO.P,R24,2*%
%TO.N,Net-(Q24-Pad1)*%
X81295000Y54610000D03*
D10*
%TO.P,R24,1*%
%TO.N,B NOTE*%
X81295000Y46990000D03*
%TD*%
D14*
%TO.P,J4,1,Pin_1*%
%TO.N,+24V*%
X116855000Y87630000D03*
D15*
%TO.P,J4,2,Pin_2*%
%TO.N,Net-(J4-Pad2)*%
X119395000Y87630000D03*
%TD*%
D14*
%TO.P,J1,1,Pin_1*%
%TO.N,+24V*%
X133365000Y87630000D03*
D15*
%TO.P,J1,2,Pin_2*%
%TO.N,Net-(J1-Pad2)*%
X135905000Y87630000D03*
%TD*%
D11*
%TO.P,R27,2*%
%TO.N,Net-(Q27-Pad1)*%
X38115000Y80335000D03*
D10*
%TO.P,R27,1*%
%TO.N,D#2 NOTE*%
X38115000Y72715000D03*
%TD*%
D15*
%TO.P,J42,2,Pin_2*%
%TO.N,Net-(D33-Pad1)*%
X58435000Y39370000D03*
D14*
%TO.P,J42,1,Pin_1*%
%TO.N,+24V*%
X60975000Y39370000D03*
%TD*%
D10*
%TO.P,R34,1*%
%TO.N,C# NOTE*%
X99075000Y72390000D03*
D11*
%TO.P,R34,2*%
%TO.N,Net-(Q34-Pad1)*%
X99075000Y80010000D03*
%TD*%
D15*
%TO.P,J14,2,Pin_2*%
%TO.N,Net-(D5-Pad1)*%
X22875000Y77470000D03*
D14*
%TO.P,J14,1,Pin_1*%
%TO.N,+24V*%
X25415000Y77470000D03*
%TD*%
D16*
%TO.P,D7,1,K*%
%TO.N,Net-(D7-Pad1)*%
X101615000Y53340000D03*
D17*
%TO.P,D7,2,A*%
%TO.N,+24V*%
X109235000Y53340000D03*
%TD*%
D15*
%TO.P,J19,2,Pin_2*%
%TO.N,Net-(D10-Pad1)*%
X22875000Y64770000D03*
D14*
%TO.P,J19,1,Pin_1*%
%TO.N,+24V*%
X25415000Y64770000D03*
%TD*%
D11*
%TO.P,R33,2*%
%TO.N,Net-(Q33-Pad1)*%
X55895000Y54610000D03*
D10*
%TO.P,R33,1*%
%TO.N,A#3 NOTE*%
X55895000Y46990000D03*
%TD*%
D11*
%TO.P,R36,2*%
%TO.N,Net-(Q36-Pad1)*%
X38115000Y41910000D03*
D10*
%TO.P,R36,1*%
%TO.N,F2 NOTE*%
X38115000Y34290000D03*
%TD*%
D11*
%TO.P,R28,2*%
%TO.N,Net-(Q28-Pad1)*%
X55895000Y67310000D03*
D10*
%TO.P,R28,1*%
%TO.N,A3 NOTE*%
X55895000Y59690000D03*
%TD*%
%TO.P,R11,1*%
%TO.N,STRING 1*%
X99075000Y45720000D03*
D11*
%TO.P,R11,2*%
%TO.N,Net-(Q11-Pad1)*%
X99075000Y53340000D03*
%TD*%
%TO.P,R19,2*%
%TO.N,Net-(Q19-Pad1)*%
X2555000Y80270000D03*
D10*
%TO.P,R19,1*%
%TO.N,E NOTE*%
X2555000Y72650000D03*
%TD*%
D15*
%TO.P,J21,2,Pin_2*%
%TO.N,Net-(D12-Pad1)*%
X58435000Y90170000D03*
D14*
%TO.P,J21,1,Pin_1*%
%TO.N,+24V*%
X60975000Y90170000D03*
%TD*%
D13*
%TO.P,Q31,3,S*%
%TO.N,GND*%
X7635000Y57150000D03*
%TO.P,Q31,2,D*%
%TO.N,Net-(D27-Pad1)*%
X5095000Y57150000D03*
D12*
%TO.P,Q31,1,G*%
%TO.N,Net-(Q31-Pad1)*%
X2555000Y57150000D03*
%TD*%
D11*
%TO.P,R23,2*%
%TO.N,Net-(Q23-Pad1)*%
X38115000Y54610000D03*
D10*
%TO.P,R23,1*%
%TO.N,STRING 3*%
X38115000Y46990000D03*
%TD*%
D14*
%TO.P,J39,1,Pin_1*%
%TO.N,+24V*%
X104155000Y77470000D03*
D15*
%TO.P,J39,2,Pin_2*%
%TO.N,Net-(D30-Pad1)*%
X101615000Y77470000D03*
%TD*%
D10*
%TO.P,R3,1*%
%TO.N,GND*%
X124475000Y74930000D03*
D11*
%TO.P,R3,2*%
%TO.N,/Motor 2*%
X116855000Y74930000D03*
%TD*%
D15*
%TO.P,J26,2,Pin_2*%
%TO.N,Net-(D17-Pad1)*%
X40655000Y90170000D03*
D14*
%TO.P,J26,1,Pin_1*%
%TO.N,+24V*%
X43195000Y90170000D03*
%TD*%
D15*
%TO.P,J32,2,Pin_2*%
%TO.N,Net-(D23-Pad1)*%
X40655000Y77795000D03*
D14*
%TO.P,J32,1,Pin_1*%
%TO.N,+24V*%
X43195000Y77795000D03*
%TD*%
D12*
%TO.P,Q3,1,G*%
%TO.N,/Motor 2*%
X116855000Y77470000D03*
D13*
%TO.P,Q3,2,D*%
%TO.N,Net-(J3-Pad2)*%
X119395000Y77470000D03*
%TO.P,Q3,3,S*%
%TO.N,GND*%
X121935000Y77470000D03*
%TD*%
D15*
%TO.P,J22,2,Pin_2*%
%TO.N,Net-(D13-Pad1)*%
X22875000Y52070000D03*
D14*
%TO.P,J22,1,Pin_1*%
%TO.N,+24V*%
X25415000Y52070000D03*
%TD*%
D21*
%TO.P,U3,1,QB*%
%TO.N,A NOTE*%
X83820000Y25385000D03*
D22*
%TO.P,U3,2,QC*%
%TO.N,A# NOTE*%
X83820000Y22845000D03*
%TO.P,U3,3,QD*%
%TO.N,B NOTE*%
X83820000Y20305000D03*
%TO.P,U3,4,QE*%
%TO.N,C NOTE*%
X83820000Y17765000D03*
%TO.P,U3,5,QF*%
%TO.N,C# NOTE*%
X83820000Y15225000D03*
%TO.P,U3,6,QG*%
%TO.N,D NOTE*%
X83820000Y12685000D03*
%TO.P,U3,7,QH*%
%TO.N,STRING 1*%
X83820000Y10145000D03*
%TO.P,U3,8,GND*%
%TO.N,GND*%
X83820000Y7605000D03*
%TO.P,U3,9,QH'*%
%TO.N,Net-(U3-Pad9)*%
X91440000Y7605000D03*
%TO.P,U3,10,~{SRCLR}*%
%TO.N,SHIFT CLEAR*%
X91440000Y10145000D03*
%TO.P,U3,11,SRCLK*%
%TO.N,SHIFT CLOCK*%
X91440000Y12685000D03*
%TO.P,U3,12,RCLK*%
%TO.N,LATCH*%
X91440000Y15225000D03*
%TO.P,U3,13,~{OE}*%
%TO.N,OUT ENABLE*%
X91440000Y17765000D03*
%TO.P,U3,14,SER*%
%TO.N,SHIFT I{slash}O*%
X91440000Y20305000D03*
%TO.P,U3,15,QA*%
%TO.N,G# NOTE*%
X91440000Y22845000D03*
%TO.P,U3,16,VCC*%
%TO.N,+5V*%
X91440000Y25385000D03*
%TD*%
D17*
%TO.P,D13,2,A*%
%TO.N,+24V*%
X30495000Y54610000D03*
D16*
%TO.P,D13,1,K*%
%TO.N,Net-(D13-Pad1)*%
X22875000Y54610000D03*
%TD*%
D13*
%TO.P,Q17,3,S*%
%TO.N,GND*%
X25415000Y57150000D03*
%TO.P,Q17,2,D*%
%TO.N,Net-(D13-Pad1)*%
X22875000Y57150000D03*
D12*
%TO.P,Q17,1,G*%
%TO.N,Net-(Q17-Pad1)*%
X20335000Y57150000D03*
%TD*%
%TO.P,Q4,1,G*%
%TO.N,/Motor 4*%
X116855000Y92710000D03*
D13*
%TO.P,Q4,2,D*%
%TO.N,Net-(J4-Pad2)*%
X119395000Y92710000D03*
%TO.P,Q4,3,S*%
%TO.N,GND*%
X121935000Y92710000D03*
%TD*%
D12*
%TO.P,Q30,1,G*%
%TO.N,Net-(Q30-Pad1)*%
X99075000Y95250000D03*
D13*
%TO.P,Q30,2,D*%
%TO.N,Net-(D26-Pad1)*%
X101615000Y95250000D03*
%TO.P,Q30,3,S*%
%TO.N,GND*%
X104155000Y95250000D03*
%TD*%
D16*
%TO.P,D26,1,K*%
%TO.N,Net-(D26-Pad1)*%
X101615000Y92710000D03*
D17*
%TO.P,D26,2,A*%
%TO.N,+24V*%
X109235000Y92710000D03*
%TD*%
D18*
%TO.P,U5,16,VCC*%
%TO.N,+5V*%
X43180000Y6365000D03*
%TO.P,U5,15,QA*%
%TO.N,A#2 NOTE*%
X40640000Y6365000D03*
%TO.P,U5,14,SER*%
%TO.N,Net-(U4-Pad9)*%
X38100000Y6365000D03*
%TO.P,U5,13,~{OE}*%
%TO.N,OUT ENABLE*%
X35560000Y6365000D03*
%TO.P,U5,12,RCLK*%
%TO.N,LATCH*%
X33020000Y6365000D03*
%TO.P,U5,11,SRCLK*%
%TO.N,SHIFT CLOCK*%
X30480000Y6365000D03*
%TO.P,U5,10,~{SRCLR}*%
%TO.N,SHIFT CLEAR*%
X27940000Y6365000D03*
%TO.P,U5,9,QH'*%
%TO.N,Net-(U5-Pad9)*%
X25400000Y6365000D03*
%TO.P,U5,8,GND*%
%TO.N,GND*%
X25400000Y13985000D03*
%TO.P,U5,7,QH*%
%TO.N,STRING 3*%
X27940000Y13985000D03*
%TO.P,U5,6,QG*%
%TO.N,E2 NOTE*%
X30480000Y13985000D03*
%TO.P,U5,5,QF*%
%TO.N,D#2 NOTE*%
X33020000Y13985000D03*
%TO.P,U5,4,QE*%
%TO.N,D2 NOTE*%
X35560000Y13985000D03*
%TO.P,U5,3,QD*%
%TO.N,C#2 NOTE*%
X38100000Y13985000D03*
%TO.P,U5,2,QC*%
%TO.N,C2 NOTE*%
X40640000Y13985000D03*
D19*
%TO.P,U5,1,QB*%
%TO.N,B2 NOTE*%
X43180000Y13985000D03*
%TD*%
D14*
%TO.P,J11,1,Pin_1*%
%TO.N,+24V*%
X86375000Y90170000D03*
D15*
%TO.P,J11,2,Pin_2*%
%TO.N,Net-(D2-Pad1)*%
X83835000Y90170000D03*
%TD*%
D17*
%TO.P,D32,2,A*%
%TO.N,+24V*%
X48275000Y41910000D03*
D16*
%TO.P,D32,1,K*%
%TO.N,Net-(D32-Pad1)*%
X40655000Y41910000D03*
%TD*%
D11*
%TO.P,R21,2*%
%TO.N,Net-(Q21-Pad1)*%
X38115000Y92710000D03*
D10*
%TO.P,R21,1*%
%TO.N,D2 NOTE*%
X38115000Y85090000D03*
%TD*%
D13*
%TO.P,Q27,3,S*%
%TO.N,GND*%
X43195000Y82875000D03*
%TO.P,Q27,2,D*%
%TO.N,Net-(D23-Pad1)*%
X40655000Y82875000D03*
D12*
%TO.P,Q27,1,G*%
%TO.N,Net-(Q27-Pad1)*%
X38115000Y82875000D03*
%TD*%
D17*
%TO.P,D16,2,A*%
%TO.N,+24V*%
X30495000Y41910000D03*
D16*
%TO.P,D16,1,K*%
%TO.N,Net-(D16-Pad1)*%
X22875000Y41910000D03*
%TD*%
D13*
%TO.P,Q35,3,S*%
%TO.N,GND*%
X7635000Y44450000D03*
%TO.P,Q35,2,D*%
%TO.N,Net-(D31-Pad1)*%
X5095000Y44450000D03*
D12*
%TO.P,Q35,1,G*%
%TO.N,Net-(Q35-Pad1)*%
X2555000Y44450000D03*
%TD*%
D13*
%TO.P,Q22,3,S*%
%TO.N,GND*%
X60975000Y82550000D03*
%TO.P,Q22,2,D*%
%TO.N,Net-(D18-Pad1)*%
X58435000Y82550000D03*
D12*
%TO.P,Q22,1,G*%
%TO.N,Net-(Q22-Pad1)*%
X55895000Y82550000D03*
%TD*%
D11*
%TO.P,R35,2*%
%TO.N,Net-(Q35-Pad1)*%
X2555000Y41910000D03*
D10*
%TO.P,R35,1*%
%TO.N,G NOTE*%
X2555000Y34290000D03*
%TD*%
D15*
%TO.P,J30,2,Pin_2*%
%TO.N,Net-(D21-Pad1)*%
X5095000Y64770000D03*
D14*
%TO.P,J30,1,Pin_1*%
%TO.N,+24V*%
X7635000Y64770000D03*
%TD*%
D15*
%TO.P,J37,2,Pin_2*%
%TO.N,Net-(D28-Pad1)*%
X40655000Y64770000D03*
D14*
%TO.P,J37,1,Pin_1*%
%TO.N,+24V*%
X43195000Y64770000D03*
%TD*%
D11*
%TO.P,R26,2*%
%TO.N,Net-(Q26-Pad1)*%
X20335000Y29210000D03*
D10*
%TO.P,R26,1*%
%TO.N,B2 NOTE*%
X20335000Y21590000D03*
%TD*%
D13*
%TO.P,Q26,3,S*%
%TO.N,GND*%
X25415000Y31750000D03*
%TO.P,Q26,2,D*%
%TO.N,Net-(D22-Pad1)*%
X22875000Y31750000D03*
D12*
%TO.P,Q26,1,G*%
%TO.N,Net-(Q26-Pad1)*%
X20335000Y31750000D03*
%TD*%
D17*
%TO.P,D6,2,A*%
%TO.N,+24V*%
X48275000Y29210000D03*
D16*
%TO.P,D6,1,K*%
%TO.N,Net-(D6-Pad1)*%
X40655000Y29210000D03*
%TD*%
D11*
%TO.P,R13,2*%
%TO.N,Net-(Q13-Pad1)*%
X2555000Y92710000D03*
D10*
%TO.P,R13,1*%
%TO.N,D# NOTE*%
X2555000Y85090000D03*
%TD*%
D12*
%TO.P,Q6,1,G*%
%TO.N,Net-(Q6-Pad1)*%
X81295000Y95250000D03*
D13*
%TO.P,Q6,2,D*%
%TO.N,Net-(D2-Pad1)*%
X83835000Y95250000D03*
%TO.P,Q6,3,S*%
%TO.N,GND*%
X86375000Y95250000D03*
%TD*%
D16*
%TO.P,D14,1,K*%
%TO.N,Net-(D14-Pad1)*%
X83835000Y67310000D03*
D17*
%TO.P,D14,2,A*%
%TO.N,+24V*%
X91455000Y67310000D03*
%TD*%
D11*
%TO.P,R29,2*%
%TO.N,Net-(Q29-Pad1)*%
X55895000Y29210000D03*
D10*
%TO.P,R29,1*%
%TO.N,STRING 4*%
X55895000Y21590000D03*
%TD*%
D15*
%TO.P,J18,2,Pin_2*%
%TO.N,Net-(D9-Pad1)*%
X5095000Y90170000D03*
D14*
%TO.P,J18,1,Pin_1*%
%TO.N,+24V*%
X7635000Y90170000D03*
%TD*%
D17*
%TO.P,D29,2,A*%
%TO.N,+24V*%
X66055000Y54610000D03*
D16*
%TO.P,D29,1,K*%
%TO.N,Net-(D29-Pad1)*%
X58435000Y54610000D03*
%TD*%
D14*
%TO.P,J10,1,Pin_1*%
%TO.N,Net-(A1-Pad3)*%
X128275000Y50800000D03*
D15*
%TO.P,J10,2,Pin_2*%
%TO.N,Net-(A1-Pad4)*%
X125735000Y50800000D03*
%TO.P,J10,3,Pin_3*%
%TO.N,Net-(A1-Pad5)*%
X123195000Y50800000D03*
%TO.P,J10,4,Pin_4*%
%TO.N,Net-(A1-Pad6)*%
X120655000Y50800000D03*
%TD*%
D10*
%TO.P,R18,1*%
%TO.N,A# NOTE*%
X81295000Y59690000D03*
D11*
%TO.P,R18,2*%
%TO.N,Net-(Q18-Pad1)*%
X81295000Y67310000D03*
%TD*%
%TO.P,R22,2*%
%TO.N,Net-(Q22-Pad1)*%
X55895000Y80010000D03*
D10*
%TO.P,R22,1*%
%TO.N,G#3 NOTE*%
X55895000Y72390000D03*
%TD*%
%TO.P,R2,1*%
%TO.N,GND*%
X140985000Y74930000D03*
D11*
%TO.P,R2,2*%
%TO.N,/Motor 3*%
X133365000Y74930000D03*
%TD*%
D14*
%TO.P,J8,1,Pin_1*%
%TO.N,Net-(A1-Pad12)*%
X123190000Y40640000D03*
D15*
%TO.P,J8,2,Pin_2*%
%TO.N,Net-(A1-Pad11)*%
X120650000Y40640000D03*
%TO.P,J8,3,Pin_3*%
%TO.N,Net-(A1-Pad10)*%
X118110000Y40640000D03*
%TD*%
D13*
%TO.P,Q28,3,S*%
%TO.N,GND*%
X60975000Y69850000D03*
%TO.P,Q28,2,D*%
%TO.N,Net-(D24-Pad1)*%
X58435000Y69850000D03*
D12*
%TO.P,Q28,1,G*%
%TO.N,Net-(Q28-Pad1)*%
X55895000Y69850000D03*
%TD*%
D17*
%TO.P,D12,2,A*%
%TO.N,+24V*%
X66055000Y92710000D03*
D16*
%TO.P,D12,1,K*%
%TO.N,Net-(D12-Pad1)*%
X58435000Y92710000D03*
%TD*%
D23*
%TO.P,U2,1,3V3*%
%TO.N,unconnected-(U2-Pad1)*%
X138445000Y30115000D03*
D24*
%TO.P,U2,2,GND*%
%TO.N,GND*%
X135905000Y30115000D03*
%TO.P,U2,3,D15*%
%TO.N,/Direction*%
X133365000Y30115000D03*
%TO.P,U2,4,D2*%
%TO.N,/Step*%
X130825000Y30115000D03*
%TO.P,U2,5,D4*%
%TO.N,unconnected-(U2-Pad5)*%
X128285000Y30115000D03*
%TO.P,U2,6,RX2*%
%TO.N,unconnected-(U2-Pad6)*%
X125745000Y30115000D03*
%TO.P,U2,7,TX2*%
%TO.N,unconnected-(U2-Pad7)*%
X123205000Y30115000D03*
%TO.P,U2,8,D5*%
%TO.N,unconnected-(U2-Pad8)*%
X120665000Y30115000D03*
%TO.P,U2,9,D18*%
%TO.N,unconnected-(U2-Pad9)*%
X118125000Y30115000D03*
%TO.P,U2,10,D19*%
%TO.N,/Enable*%
X115585000Y30115000D03*
%TO.P,U2,11,D21*%
%TO.N,unconnected-(U2-Pad11)*%
X113045000Y30115000D03*
%TO.P,U2,12,RX0*%
%TO.N,/Motor 4*%
X110505000Y30115000D03*
%TO.P,U2,13,TX0*%
%TO.N,/Motor 1*%
X107965000Y30115000D03*
%TO.P,U2,14,D22*%
%TO.N,/Motor 3*%
X105425000Y30115000D03*
%TO.P,U2,15,D23*%
%TO.N,/Motor 2*%
X102885000Y30115000D03*
%TO.P,U2,16,EN*%
%TO.N,unconnected-(U2-Pad16)*%
X102885000Y4715000D03*
%TO.P,U2,17,VP*%
%TO.N,unconnected-(U2-Pad17)*%
X105425000Y4715000D03*
%TO.P,U2,18,VN*%
%TO.N,unconnected-(U2-Pad18)*%
X107965000Y4715000D03*
%TO.P,U2,19,D34*%
%TO.N,SHIFT CLEAR*%
X110505000Y4715000D03*
%TO.P,U2,20,D35*%
%TO.N,SHIFT CLOCK*%
X113045000Y4715000D03*
%TO.P,U2,21,D32*%
%TO.N,LATCH*%
X115585000Y4715000D03*
%TO.P,U2,22,D33*%
%TO.N,OUT ENABLE*%
X118125000Y4715000D03*
%TO.P,U2,23,D25*%
%TO.N,SHIFT I{slash}O*%
X120665000Y4715000D03*
%TO.P,U2,24,D26*%
%TO.N,unconnected-(U2-Pad24)*%
X123205000Y4715000D03*
%TO.P,U2,25,D27*%
%TO.N,unconnected-(U2-Pad25)*%
X125745000Y4715000D03*
%TO.P,U2,26,D14*%
%TO.N,unconnected-(U2-Pad26)*%
X128285000Y4715000D03*
%TO.P,U2,27,D12*%
%TO.N,Net-(J9-Pad4)*%
X130825000Y4715000D03*
%TO.P,U2,28,D13*%
%TO.N,Net-(J9-Pad3)*%
X133365000Y4715000D03*
%TO.P,U2,29,GND*%
%TO.N,GND*%
X135905000Y4715000D03*
%TO.P,U2,30,VIN*%
%TO.N,+5V*%
X138445000Y4715000D03*
%TD*%
D17*
%TO.P,D25,2,A*%
%TO.N,+24V*%
X66055000Y29210000D03*
D16*
%TO.P,D25,1,K*%
%TO.N,Net-(D25-Pad1)*%
X58435000Y29210000D03*
%TD*%
D14*
%TO.P,J35,1,Pin_1*%
%TO.N,+24V*%
X104155000Y90170000D03*
D15*
%TO.P,J35,2,Pin_2*%
%TO.N,Net-(D26-Pad1)*%
X101615000Y90170000D03*
%TD*%
D16*
%TO.P,D8,1,K*%
%TO.N,Net-(D8-Pad1)*%
X83835000Y80010000D03*
D17*
%TO.P,D8,2,A*%
%TO.N,+24V*%
X91455000Y80010000D03*
%TD*%
%TO.P,D24,2,A*%
%TO.N,+24V*%
X66055000Y67310000D03*
D16*
%TO.P,D24,1,K*%
%TO.N,Net-(D24-Pad1)*%
X58435000Y67310000D03*
%TD*%
D17*
%TO.P,D21,2,A*%
%TO.N,+24V*%
X12715000Y67310000D03*
D16*
%TO.P,D21,1,K*%
%TO.N,Net-(D21-Pad1)*%
X5095000Y67310000D03*
%TD*%
D10*
%TO.P,R6,1*%
%TO.N,G# NOTE*%
X81295000Y85090000D03*
D11*
%TO.P,R6,2*%
%TO.N,Net-(Q6-Pad1)*%
X81295000Y92710000D03*
%TD*%
D15*
%TO.P,J24,2,Pin_2*%
%TO.N,Net-(D15-Pad1)*%
X5095000Y77470000D03*
D14*
%TO.P,J24,1,Pin_1*%
%TO.N,+24V*%
X7635000Y77470000D03*
%TD*%
D15*
%TO.P,J33,2,Pin_2*%
%TO.N,Net-(D24-Pad1)*%
X58435000Y64770000D03*
D14*
%TO.P,J33,1,Pin_1*%
%TO.N,+24V*%
X60975000Y64770000D03*
%TD*%
D17*
%TO.P,D9,2,A*%
%TO.N,+24V*%
X12715000Y92710000D03*
D16*
%TO.P,D9,1,K*%
%TO.N,Net-(D9-Pad1)*%
X5095000Y92710000D03*
%TD*%
D11*
%TO.P,R10,2*%
%TO.N,Net-(Q10-Pad1)*%
X38115000Y29210000D03*
D10*
%TO.P,R10,1*%
%TO.N,F#2 NOTE*%
X38115000Y21590000D03*
%TD*%
D17*
%TO.P,D27,2,A*%
%TO.N,+24V*%
X12715000Y54610000D03*
D16*
%TO.P,D27,1,K*%
%TO.N,Net-(D27-Pad1)*%
X5095000Y54610000D03*
%TD*%
D17*
%TO.P,D33,2,A*%
%TO.N,+24V*%
X66055000Y41910000D03*
D16*
%TO.P,D33,1,K*%
%TO.N,Net-(D33-Pad1)*%
X58435000Y41910000D03*
%TD*%
D13*
%TO.P,Q25,3,S*%
%TO.N,GND*%
X7635000Y69850000D03*
%TO.P,Q25,2,D*%
%TO.N,Net-(D21-Pad1)*%
X5095000Y69850000D03*
D12*
%TO.P,Q25,1,G*%
%TO.N,Net-(Q25-Pad1)*%
X2555000Y69850000D03*
%TD*%
D16*
%TO.P,D30,1,K*%
%TO.N,Net-(D30-Pad1)*%
X101615000Y80010000D03*
D17*
%TO.P,D30,2,A*%
%TO.N,+24V*%
X109235000Y80010000D03*
%TD*%
D14*
%TO.P,J23,1,Pin_1*%
%TO.N,+24V*%
X86375000Y64770000D03*
D15*
%TO.P,J23,2,Pin_2*%
%TO.N,Net-(D14-Pad1)*%
X83835000Y64770000D03*
%TD*%
D13*
%TO.P,Q32,3,S*%
%TO.N,GND*%
X43195000Y69850000D03*
%TO.P,Q32,2,D*%
%TO.N,Net-(D28-Pad1)*%
X40655000Y69850000D03*
D12*
%TO.P,Q32,1,G*%
%TO.N,Net-(Q32-Pad1)*%
X38115000Y69850000D03*
%TD*%
D15*
%TO.P,J15,2,Pin_2*%
%TO.N,Net-(D6-Pad1)*%
X40655000Y26670000D03*
D14*
%TO.P,J15,1,Pin_1*%
%TO.N,+24V*%
X43195000Y26670000D03*
%TD*%
D13*
%TO.P,Q19,3,S*%
%TO.N,GND*%
X7635000Y82810000D03*
%TO.P,Q19,2,D*%
%TO.N,Net-(D15-Pad1)*%
X5095000Y82810000D03*
D12*
%TO.P,Q19,1,G*%
%TO.N,Net-(Q19-Pad1)*%
X2555000Y82810000D03*
%TD*%
D13*
%TO.P,Q36,3,S*%
%TO.N,GND*%
X43195000Y44450000D03*
%TO.P,Q36,2,D*%
%TO.N,Net-(D32-Pad1)*%
X40655000Y44450000D03*
D12*
%TO.P,Q36,1,G*%
%TO.N,Net-(Q36-Pad1)*%
X38115000Y44450000D03*
%TD*%
D17*
%TO.P,D23,2,A*%
%TO.N,+24V*%
X48275000Y80335000D03*
D16*
%TO.P,D23,1,K*%
%TO.N,Net-(D23-Pad1)*%
X40655000Y80335000D03*
%TD*%
D13*
%TO.P,Q14,3,S*%
%TO.N,GND*%
X25415000Y69850000D03*
%TO.P,Q14,2,D*%
%TO.N,Net-(D10-Pad1)*%
X22875000Y69850000D03*
D12*
%TO.P,Q14,1,G*%
%TO.N,Net-(Q14-Pad1)*%
X20335000Y69850000D03*
%TD*%
D13*
%TO.P,Q16,3,S*%
%TO.N,GND*%
X60975000Y95250000D03*
%TO.P,Q16,2,D*%
%TO.N,Net-(D12-Pad1)*%
X58435000Y95250000D03*
D12*
%TO.P,Q16,1,G*%
%TO.N,Net-(Q16-Pad1)*%
X55895000Y95250000D03*
%TD*%
D17*
%TO.P,D10,2,A*%
%TO.N,+24V*%
X30495000Y67310000D03*
D16*
%TO.P,D10,1,K*%
%TO.N,Net-(D10-Pad1)*%
X22875000Y67310000D03*
%TD*%
D14*
%TO.P,J16,1,Pin_1*%
%TO.N,+24V*%
X104155000Y50800000D03*
D15*
%TO.P,J16,2,Pin_2*%
%TO.N,Net-(D7-Pad1)*%
X101615000Y50800000D03*
%TD*%
D12*
%TO.P,Q11,1,G*%
%TO.N,Net-(Q11-Pad1)*%
X99075000Y55880000D03*
D13*
%TO.P,Q11,2,D*%
%TO.N,Net-(D7-Pad1)*%
X101615000Y55880000D03*
%TO.P,Q11,3,S*%
%TO.N,GND*%
X104155000Y55880000D03*
%TD*%
D16*
%TO.P,D3,1,K*%
%TO.N,Net-(D3-Pad1)*%
X101615000Y67310000D03*
D17*
%TO.P,D3,2,A*%
%TO.N,+24V*%
X109235000Y67310000D03*
%TD*%
D13*
%TO.P,Q37,3,S*%
%TO.N,GND*%
X60975000Y44450000D03*
%TO.P,Q37,2,D*%
%TO.N,Net-(D33-Pad1)*%
X58435000Y44450000D03*
D12*
%TO.P,Q37,1,G*%
%TO.N,Net-(Q37-Pad1)*%
X55895000Y44450000D03*
%TD*%
D15*
%TO.P,J40,2,Pin_2*%
%TO.N,Net-(D31-Pad1)*%
X5095000Y39370000D03*
D14*
%TO.P,J40,1,Pin_1*%
%TO.N,+24V*%
X7635000Y39370000D03*
%TD*%
D15*
%TO.P,J41,2,Pin_2*%
%TO.N,Net-(D32-Pad1)*%
X40655000Y39370000D03*
D14*
%TO.P,J41,1,Pin_1*%
%TO.N,+24V*%
X43195000Y39370000D03*
%TD*%
D10*
%TO.P,R30,1*%
%TO.N,C NOTE*%
X99075000Y85090000D03*
D11*
%TO.P,R30,2*%
%TO.N,Net-(Q30-Pad1)*%
X99075000Y92710000D03*
%TD*%
D18*
%TO.P,U4,16,VCC*%
%TO.N,+5V*%
X20320000Y6365000D03*
%TO.P,U4,15,QA*%
%TO.N,D# NOTE*%
X17780000Y6365000D03*
%TO.P,U4,14,SER*%
%TO.N,Net-(U3-Pad9)*%
X15240000Y6365000D03*
%TO.P,U4,13,~{OE}*%
%TO.N,OUT ENABLE*%
X12700000Y6365000D03*
%TO.P,U4,12,RCLK*%
%TO.N,LATCH*%
X10160000Y6365000D03*
%TO.P,U4,11,SRCLK*%
%TO.N,SHIFT CLOCK*%
X7620000Y6365000D03*
%TO.P,U4,10,~{SRCLR}*%
%TO.N,SHIFT CLEAR*%
X5080000Y6365000D03*
%TO.P,U4,9,QH'*%
%TO.N,Net-(U4-Pad9)*%
X2540000Y6365000D03*
%TO.P,U4,8,GND*%
%TO.N,GND*%
X2540000Y13985000D03*
%TO.P,U4,7,QH*%
%TO.N,STRING 2*%
X5080000Y13985000D03*
%TO.P,U4,6,QG*%
%TO.N,A2 NOTE*%
X7620000Y13985000D03*
%TO.P,U4,5,QF*%
%TO.N,G#2 NOTE*%
X10160000Y13985000D03*
%TO.P,U4,4,QE*%
%TO.N,G NOTE*%
X12700000Y13985000D03*
%TO.P,U4,3,QD*%
%TO.N,F# NOTE*%
X15240000Y13985000D03*
%TO.P,U4,2,QC*%
%TO.N,F NOTE*%
X17780000Y13985000D03*
D19*
%TO.P,U4,1,QB*%
%TO.N,E NOTE*%
X20320000Y13985000D03*
%TD*%
D14*
%TO.P,J6,1,Pin_1*%
%TO.N,+5V*%
X123190000Y43180000D03*
D15*
%TO.P,J6,2,Pin_2*%
X120650000Y43180000D03*
%TO.P,J6,3,Pin_3*%
X118110000Y43180000D03*
%TD*%
D11*
%TO.P,R14,2*%
%TO.N,Net-(Q14-Pad1)*%
X20335000Y67310000D03*
D10*
%TO.P,R14,1*%
%TO.N,A2 NOTE*%
X20335000Y59690000D03*
%TD*%
D15*
%TO.P,J13,2,Pin_2*%
%TO.N,Net-(D4-Pad1)*%
X5095000Y26670000D03*
D14*
%TO.P,J13,1,Pin_1*%
%TO.N,+24V*%
X7635000Y26670000D03*
%TD*%
D25*
%TO.N,/Step*%
X83835000Y34290000D03*
%TO.N,GND*%
X88915000Y44450000D03*
%TO.N,*%
X140985000Y35560000D03*
%TO.N,+24V*%
X133365000Y69850000D03*
X138445000Y35560000D03*
X67960000Y26670000D03*
%TO.N,+5V*%
X67960000Y19050000D03*
X146065000Y35560000D03*
X146065000Y44450000D03*
X140985000Y17780000D03*
X146065000Y17780000D03*
X133365000Y44450000D03*
%TO.N,GND*%
X88915000Y57150000D03*
X50815000Y34290000D03*
X15255000Y85090000D03*
X62245000Y85090000D03*
X8905000Y59690000D03*
X15255000Y34290000D03*
X26685000Y72390000D03*
X134635000Y60960000D03*
X8905000Y72390000D03*
X50815000Y62230000D03*
X50815000Y72390000D03*
X26685000Y59690000D03*
X44465000Y85090000D03*
X62245000Y46990000D03*
X67960000Y21590000D03*
X26685000Y34290000D03*
X15255000Y59690000D03*
X62245000Y59690000D03*
X50815000Y59690000D03*
X63515000Y95250000D03*
X15255000Y90170000D03*
X106695000Y55880000D03*
X8905000Y34290000D03*
X10175000Y95250000D03*
X44465000Y46990000D03*
X15255000Y49530000D03*
X8905000Y46990000D03*
X15255000Y46990000D03*
X88915000Y82550000D03*
X44465000Y72390000D03*
X124475000Y72390000D03*
X15255000Y36830000D03*
X15255000Y87630000D03*
X139087500Y60960000D03*
X26685000Y46990000D03*
X50815000Y46990000D03*
X15255000Y82550000D03*
X50815000Y82550000D03*
X44465000Y34290000D03*
X50815000Y36830000D03*
X124475000Y69850000D03*
X88915000Y69850000D03*
X106695000Y82550000D03*
X15255000Y72390000D03*
X124475000Y87630000D03*
X45735000Y95250000D03*
X15255000Y74930000D03*
X88915000Y95250000D03*
X106695000Y95250000D03*
X50815000Y90170000D03*
X106695000Y69850000D03*
X140985000Y69850000D03*
X50815000Y85090000D03*
X93995000Y95250000D03*
X26685000Y85090000D03*
X50815000Y74930000D03*
X143525000Y35560000D03*
X27955000Y95250000D03*
X15255000Y62230000D03*
%TO.N,*%
X67960000Y24130000D03*
%TO.N,GND*%
X62245000Y72390000D03*
X44465000Y59690000D03*
X50815000Y87630000D03*
X62245000Y34290000D03*
X8905000Y85090000D03*
X50815000Y49530000D03*
%TO.N,/Motor 2*%
X114315000Y58420000D03*
X102885000Y38100000D03*
%TO.N,/Motor 1*%
X119395000Y58420000D03*
X107965000Y38100000D03*
%TO.N,/Motor 3*%
X116855000Y58420000D03*
X105425000Y38100000D03*
%TO.N,/Motor 4*%
X110505000Y38100000D03*
X121935000Y58420000D03*
%TO.N,G# NOTE*%
X83835000Y85090000D03*
X93995000Y22830000D03*
%TO.N,D NOTE*%
X101615000Y59690000D03*
X81295000Y12670000D03*
%TO.N,G#2 NOTE*%
X10160000Y16510000D03*
X5095000Y21590000D03*
%TO.N,C2 NOTE*%
X22875000Y72390000D03*
X40655000Y16510000D03*
%TO.N,F#2 NOTE*%
X66025000Y16510000D03*
X40655000Y21590000D03*
%TO.N,STRING 1*%
X101615000Y45720000D03*
X81295000Y10160000D03*
%TO.N,A NOTE*%
X81295000Y25370000D03*
X83835000Y72390000D03*
%TO.N,D# NOTE*%
X17795000Y3810000D03*
X5095000Y85090000D03*
%TO.N,A2 NOTE*%
X22875000Y59690000D03*
X7620000Y16510000D03*
%TO.N,C#2 NOTE*%
X38115000Y16510000D03*
X22875000Y85090000D03*
%TO.N,G2 NOTE*%
X63500000Y16510000D03*
X58435000Y85090000D03*
%TO.N,STRING 2*%
X5080000Y16510000D03*
X22875000Y46990000D03*
%TO.N,A# NOTE*%
X81295000Y22830000D03*
X83835000Y59690000D03*
%TO.N,E NOTE*%
X5095000Y72390000D03*
X20305000Y16510000D03*
%TO.N,A#2 NOTE*%
X40640000Y3810000D03*
X22875000Y34290000D03*
%TO.N,D2 NOTE*%
X35575000Y16510000D03*
X40655000Y85090000D03*
%TO.N,G#3 NOTE*%
X60960000Y16510000D03*
X58435000Y72390000D03*
%TO.N,STRING 3*%
X40655000Y46990000D03*
X27955000Y16510000D03*
%TO.N,B NOTE*%
X81295000Y20290000D03*
X83835000Y46990000D03*
%TO.N,F NOTE*%
X17780000Y16510000D03*
X5095000Y59690000D03*
%TO.N,B2 NOTE*%
X22875000Y21590000D03*
X43180000Y16510000D03*
%TO.N,D#2 NOTE*%
X40655000Y72390000D03*
X33035000Y16510000D03*
%TO.N,A3 NOTE*%
X58420000Y16510000D03*
X58435000Y59690000D03*
%TO.N,STRING 4*%
X50800000Y16510000D03*
X58435000Y21590000D03*
%TO.N,C NOTE*%
X81295000Y17750000D03*
X101615000Y85090000D03*
%TO.N,F# NOTE*%
X5095000Y46990000D03*
X15240000Y16510000D03*
%TO.N,E2 NOTE*%
X30495000Y16510000D03*
X40655000Y59690000D03*
%TO.N,A#3 NOTE*%
X58435000Y46990000D03*
X55880000Y16510000D03*
%TO.N,C# NOTE*%
X81295000Y15210000D03*
X101615000Y72390000D03*
%TO.N,G NOTE*%
X12700000Y16510000D03*
X5095000Y34290000D03*
%TO.N,F2 NOTE*%
X63515000Y3795000D03*
X40655000Y34290000D03*
%TO.N,B3 NOTE*%
X58435000Y34290000D03*
X53340000Y16510000D03*
%TO.N,SHIFT CLOCK*%
X30510000Y3795000D03*
X53370000Y3795000D03*
X7650000Y3810000D03*
X95235000Y12670000D03*
%TO.N,SHIFT CLEAR*%
X27970000Y3795000D03*
X5095000Y3810000D03*
X95235000Y10130000D03*
X50830000Y3795000D03*
%TO.N,OUT ENABLE*%
X95265000Y17750000D03*
X12685000Y3810000D03*
%TO.N,LATCH*%
X55910000Y3795000D03*
X95265000Y15210000D03*
X10175000Y3810000D03*
X33050000Y3795000D03*
%TO.N,Net-(U3-Pad9)*%
X95265000Y7620000D03*
X15255000Y3810000D03*
%TO.N,Net-(U4-Pad9)*%
X38115000Y3795000D03*
X2555000Y3810000D03*
%TO.N,Net-(U5-Pad9)*%
X25430000Y3795000D03*
X60975000Y3795000D03*
%TD*%
M02*
