M48
; DRILL file {KiCad (6.0.8)} date Mon Dec  5 17:38:24 2022
; FORMAT={-:-/ absolute / metric / decimal}
; #@! TF.CreationDate,2022-12-05T17:38:24-05:00
; #@! TF.GenerationSoftware,Kicad,Pcbnew,(6.0.8)
; #@! TF.FileFunction,Plated,1,2,PTH
FMAT,2
METRIC
; #@! TA.AperFunction,Plated,PTH,ComponentDrill
T1C0.800
; #@! TA.AperFunction,Plated,PTH,ViaDrill
T2C1.000
; #@! TA.AperFunction,Plated,PTH,ComponentDrill
T3C1.000
; #@! TA.AperFunction,Plated,PTH,ComponentDrill
T4C1.020
; #@! TA.AperFunction,Plated,PTH,ComponentDrill
T5C1.100
%
G90
G05
T1
X2.54Y13.985
X2.54Y6.365
X2.555Y92.71
X2.555Y85.09
X2.555Y80.27
X2.555Y72.65
X2.555Y67.31
X2.555Y59.69
X2.555Y54.61
X2.555Y46.99
X2.555Y41.91
X2.555Y34.29
X2.555Y29.21
X2.555Y21.59
X5.08Y13.985
X5.08Y6.365
X7.62Y13.985
X7.62Y6.365
X10.16Y13.985
X10.16Y6.365
X12.7Y13.985
X12.7Y6.365
X15.24Y13.985
X15.24Y6.365
X17.78Y13.985
X17.78Y6.365
X20.32Y13.985
X20.32Y6.365
X20.335Y92.71
X20.335Y85.09
X20.335Y80.01
X20.335Y72.39
X20.335Y67.31
X20.335Y59.69
X20.335Y54.61
X20.335Y46.99
X20.335Y41.91
X20.335Y34.29
X20.335Y29.21
X20.335Y21.59
X25.4Y13.985
X25.4Y6.365
X27.94Y13.985
X27.94Y6.365
X30.48Y13.985
X30.48Y6.365
X33.02Y13.985
X33.02Y6.365
X35.56Y13.985
X35.56Y6.365
X38.1Y13.985
X38.1Y6.365
X38.115Y92.71
X38.115Y85.09
X38.115Y80.335
X38.115Y72.715
X38.115Y67.31
X38.115Y59.69
X38.115Y54.61
X38.115Y46.99
X38.115Y41.91
X38.115Y34.29
X38.115Y29.21
X38.115Y21.59
X40.64Y13.985
X40.64Y6.365
X43.18Y13.985
X43.18Y6.365
X48.26Y13.985
X48.26Y6.365
X50.8Y13.985
X50.8Y6.365
X53.34Y13.985
X53.34Y6.365
X55.88Y13.985
X55.88Y6.365
X55.895Y92.71
X55.895Y85.09
X55.895Y80.01
X55.895Y72.39
X55.895Y67.31
X55.895Y59.69
X55.895Y54.61
X55.895Y46.99
X55.895Y41.91
X55.895Y34.29
X55.895Y29.21
X55.895Y21.59
X58.42Y13.985
X58.42Y6.365
X60.96Y13.985
X60.96Y6.365
X63.5Y13.985
X63.5Y6.365
X66.04Y13.985
X66.04Y6.365
X81.295Y92.71
X81.295Y85.09
X81.295Y80.01
X81.295Y72.39
X81.295Y67.31
X81.295Y59.69
X81.295Y54.61
X81.295Y46.99
X81.295Y41.91
X81.295Y34.29
X83.82Y25.385
X83.82Y22.845
X83.82Y20.305
X83.82Y17.765
X83.82Y15.225
X83.82Y12.685
X83.82Y10.145
X83.82Y7.605
X91.44Y25.385
X91.44Y22.845
X91.44Y20.305
X91.44Y17.765
X91.44Y15.225
X91.44Y12.685
X91.44Y10.145
X91.44Y7.605
X99.075Y92.71
X99.075Y85.09
X99.075Y80.01
X99.075Y72.39
X99.075Y67.31
X99.075Y59.69
X99.075Y53.34
X99.075Y45.72
X115.585Y48.25
X115.585Y35.55
X116.855Y90.17
X116.855Y74.93
X118.125Y48.25
X118.125Y35.55
X120.665Y48.25
X120.665Y35.55
X123.205Y48.25
X123.205Y35.55
X124.475Y90.17
X124.475Y74.93
X125.745Y48.25
X125.745Y35.55
X128.285Y48.25
X128.285Y35.55
X130.825Y48.25
X130.825Y35.55
X133.365Y90.17
X133.365Y74.93
X133.365Y48.25
X133.365Y35.55
X140.985Y90.17
X140.985Y74.93
T2
X2.555Y3.81
X5.08Y16.51
X5.095Y85.09
X5.095Y72.39
X5.095Y59.69
X5.095Y46.99
X5.095Y34.29
X5.095Y21.59
X5.095Y3.81
X7.62Y16.51
X7.65Y3.81
X8.905Y85.09
X8.905Y72.39
X8.905Y59.69
X8.905Y46.99
X8.905Y34.29
X10.16Y16.51
X10.175Y95.25
X10.175Y3.81
X12.685Y3.81
X12.7Y16.51
X15.24Y16.51
X15.255Y90.17
X15.255Y87.63
X15.255Y85.09
X15.255Y82.55
X15.255Y74.93
X15.255Y72.39
X15.255Y62.23
X15.255Y59.69
X15.255Y49.53
X15.255Y46.99
X15.255Y36.83
X15.255Y34.29
X15.255Y3.81
X17.78Y16.51
X17.795Y3.81
X20.305Y16.51
X22.875Y85.09
X22.875Y72.39
X22.875Y59.69
X22.875Y46.99
X22.875Y34.29
X22.875Y21.59
X25.43Y3.795
X26.685Y85.09
X26.685Y72.39
X26.685Y59.69
X26.685Y46.99
X26.685Y34.29
X27.955Y95.25
X27.955Y16.51
X27.97Y3.795
X30.495Y16.51
X30.51Y3.795
X33.035Y16.51
X33.05Y3.795
X35.575Y16.51
X38.115Y16.51
X38.115Y3.795
X40.64Y3.81
X40.655Y85.09
X40.655Y72.39
X40.655Y59.69
X40.655Y46.99
X40.655Y34.29
X40.655Y21.59
X40.655Y16.51
X43.18Y16.51
X44.465Y85.09
X44.465Y72.39
X44.465Y59.69
X44.465Y46.99
X44.465Y34.29
X45.735Y95.25
X50.8Y16.51
X50.815Y90.17
X50.815Y87.63
X50.815Y85.09
X50.815Y82.55
X50.815Y74.93
X50.815Y72.39
X50.815Y62.23
X50.815Y59.69
X50.815Y49.53
X50.815Y46.99
X50.815Y36.83
X50.815Y34.29
X50.83Y3.795
X53.34Y16.51
X53.37Y3.795
X55.88Y16.51
X55.91Y3.795
X58.42Y16.51
X58.435Y85.09
X58.435Y72.39
X58.435Y59.69
X58.435Y46.99
X58.435Y34.29
X58.435Y21.59
X60.96Y16.51
X60.975Y3.795
X62.245Y85.09
X62.245Y72.39
X62.245Y59.69
X62.245Y46.99
X62.245Y34.29
X63.5Y16.51
X63.515Y95.25
X63.515Y3.795
X66.025Y16.51
X67.96Y26.67
X67.96Y24.13
X67.96Y21.59
X67.96Y19.05
X81.295Y25.37
X81.295Y22.83
X81.295Y20.29
X81.295Y17.75
X81.295Y15.21
X81.295Y12.67
X81.295Y10.16
X83.835Y85.09
X83.835Y72.39
X83.835Y59.69
X83.835Y46.99
X83.835Y34.29
X88.915Y95.25
X88.915Y82.55
X88.915Y69.85
X88.915Y57.15
X88.915Y44.45
X93.995Y95.25
X93.995Y22.83
X95.235Y12.67
X95.235Y10.13
X95.265Y17.75
X95.265Y15.21
X95.265Y7.62
X101.615Y85.09
X101.615Y72.39
X101.615Y59.69
X101.615Y45.72
X102.885Y38.1
X105.425Y38.1
X106.695Y95.25
X106.695Y82.55
X106.695Y69.85
X106.695Y55.88
X107.965Y38.1
X110.505Y38.1
X114.315Y58.42
X116.855Y58.42
X119.395Y58.42
X121.935Y58.42
X124.475Y87.63
X124.475Y72.39
X124.475Y69.85
X133.365Y69.85
X133.365Y44.45
X134.635Y60.96
X138.445Y35.56
X139.088Y60.96
X140.985Y69.85
X140.985Y35.56
X140.985Y17.78
X143.525Y35.56
X146.065Y44.45
X146.065Y35.56
X146.065Y17.78
T3
X5.095Y90.17
X5.095Y77.47
X5.095Y64.77
X5.095Y52.07
X5.095Y39.37
X5.095Y26.67
X7.635Y90.17
X7.635Y77.47
X7.635Y64.77
X7.635Y52.07
X7.635Y39.37
X7.635Y26.67
X22.875Y90.17
X22.875Y77.47
X22.875Y64.77
X22.875Y52.07
X22.875Y39.37
X22.875Y26.67
X25.415Y90.17
X25.415Y77.47
X25.415Y64.77
X25.415Y52.07
X25.415Y39.37
X25.415Y26.67
X40.655Y90.17
X40.655Y77.795
X40.655Y64.77
X40.655Y52.07
X40.655Y39.37
X40.655Y26.67
X43.195Y90.17
X43.195Y77.795
X43.195Y64.77
X43.195Y52.07
X43.195Y39.37
X43.195Y26.67
X58.435Y90.17
X58.435Y77.47
X58.435Y64.77
X58.435Y52.07
X58.435Y39.37
X58.435Y26.67
X60.975Y90.17
X60.975Y77.47
X60.975Y64.77
X60.975Y52.07
X60.975Y39.37
X60.975Y26.67
X83.835Y90.17
X83.835Y77.47
X83.835Y64.77
X83.835Y52.07
X83.835Y39.37
X86.375Y90.17
X86.375Y77.47
X86.375Y64.77
X86.375Y52.07
X86.375Y39.37
X101.615Y90.17
X101.615Y77.47
X101.615Y64.77
X101.615Y50.8
X104.155Y90.17
X104.155Y77.47
X104.155Y64.77
X104.155Y50.8
X116.855Y87.63
X116.855Y72.39
X118.11Y43.18
X118.11Y40.64
X119.395Y87.63
X119.395Y72.39
X120.65Y43.18
X120.65Y40.64
X120.655Y50.8
X123.19Y43.18
X123.19Y40.64
X123.195Y50.8
X125.735Y50.8
X128.275Y50.8
X130.815Y2.54
X133.355Y2.54
X133.365Y87.63
X133.365Y72.39
X135.895Y2.54
X135.905Y87.63
X135.905Y72.39
X138.435Y2.54
X140.985Y53.355
X140.985Y50.815
X140.985Y48.275
T4
X102.885Y30.115
X102.885Y4.715
X105.425Y30.115
X105.425Y4.715
X107.965Y30.115
X107.965Y4.715
X110.505Y30.115
X110.505Y4.715
X113.045Y30.115
X113.045Y4.715
X115.585Y30.115
X115.585Y4.715
X118.125Y30.115
X118.125Y4.715
X120.665Y30.115
X120.665Y4.715
X123.205Y30.115
X123.205Y4.715
X125.745Y30.115
X125.745Y4.715
X128.285Y30.115
X128.285Y4.715
X130.825Y30.115
X130.825Y4.715
X133.365Y30.115
X133.365Y4.715
X135.905Y30.115
X135.905Y4.715
X138.445Y30.115
X138.445Y4.715
T5
X2.555Y95.25
X2.555Y82.81
X2.555Y69.85
X2.555Y57.15
X2.555Y44.45
X2.555Y31.75
X5.095Y95.25
X5.095Y92.71
X5.095Y82.81
X5.095Y80.01
X5.095Y69.85
X5.095Y67.31
X5.095Y57.15
X5.095Y54.61
X5.095Y44.45
X5.095Y41.91
X5.095Y31.75
X5.095Y29.21
X7.635Y95.25
X7.635Y82.81
X7.635Y69.85
X7.635Y57.15
X7.635Y44.45
X7.635Y31.75
X12.715Y92.71
X12.715Y80.01
X12.715Y67.31
X12.715Y54.61
X12.715Y41.91
X12.715Y29.21
X20.335Y95.25
X20.335Y82.55
X20.335Y69.85
X20.335Y57.15
X20.335Y44.45
X20.335Y31.75
X22.875Y95.25
X22.875Y92.71
X22.875Y82.55
X22.875Y80.01
X22.875Y69.85
X22.875Y67.31
X22.875Y57.15
X22.875Y54.61
X22.875Y44.45
X22.875Y41.91
X22.875Y31.75
X22.875Y29.21
X25.415Y95.25
X25.415Y82.55
X25.415Y69.85
X25.415Y57.15
X25.415Y44.45
X25.415Y31.75
X30.495Y92.71
X30.495Y80.01
X30.495Y67.31
X30.495Y54.61
X30.495Y41.91
X30.495Y29.21
X38.115Y95.25
X38.115Y82.875
X38.115Y69.85
X38.115Y57.15
X38.115Y44.45
X38.115Y31.75
X40.655Y95.25
X40.655Y92.71
X40.655Y82.875
X40.655Y80.335
X40.655Y69.85
X40.655Y67.31
X40.655Y57.15
X40.655Y54.61
X40.655Y44.45
X40.655Y41.91
X40.655Y31.75
X40.655Y29.21
X43.195Y95.25
X43.195Y82.875
X43.195Y69.85
X43.195Y57.15
X43.195Y44.45
X43.195Y31.75
X48.275Y92.71
X48.275Y80.335
X48.275Y67.31
X48.275Y54.61
X48.275Y41.91
X48.275Y29.21
X55.895Y95.25
X55.895Y82.55
X55.895Y69.85
X55.895Y57.15
X55.895Y44.45
X55.895Y31.75
X58.435Y95.25
X58.435Y92.71
X58.435Y82.55
X58.435Y80.01
X58.435Y69.85
X58.435Y67.31
X58.435Y57.15
X58.435Y54.61
X58.435Y44.45
X58.435Y41.91
X58.435Y31.75
X58.435Y29.21
X60.975Y95.25
X60.975Y82.55
X60.975Y69.85
X60.975Y57.15
X60.975Y44.45
X60.975Y31.75
X66.055Y92.71
X66.055Y80.01
X66.055Y67.31
X66.055Y54.61
X66.055Y41.91
X66.055Y29.21
X81.295Y95.25
X81.295Y82.55
X81.295Y69.85
X81.295Y57.15
X81.295Y44.45
X83.835Y95.25
X83.835Y92.71
X83.835Y82.55
X83.835Y80.01
X83.835Y69.85
X83.835Y67.31
X83.835Y57.15
X83.835Y54.61
X83.835Y44.45
X83.835Y41.91
X86.375Y95.25
X86.375Y82.55
X86.375Y69.85
X86.375Y57.15
X86.375Y44.45
X91.455Y92.71
X91.455Y80.01
X91.455Y67.31
X91.455Y54.61
X91.455Y41.91
X99.075Y95.25
X99.075Y82.55
X99.075Y69.85
X99.075Y55.88
X101.615Y95.25
X101.615Y92.71
X101.615Y82.55
X101.615Y80.01
X101.615Y69.85
X101.615Y67.31
X101.615Y55.88
X101.615Y53.34
X104.155Y95.25
X104.155Y82.55
X104.155Y69.85
X104.155Y55.88
X109.235Y92.71
X109.235Y80.01
X109.235Y67.31
X109.235Y53.34
X116.855Y92.71
X116.855Y77.47
X119.395Y92.71
X119.395Y77.47
X121.935Y92.71
X121.935Y77.47
X133.365Y92.71
X133.365Y77.47
X135.905Y92.71
X135.905Y77.47
X138.445Y92.71
X138.445Y77.47
X140.985Y39.37
X143.525Y39.37
X146.065Y39.37
T0
M30
