%TF.GenerationSoftware,KiCad,Pcbnew,(6.0.8)*%
%TF.CreationDate,2022-12-05T13:38:34-05:00*%
%TF.ProjectId,MIDIViolina,4d494449-5669-46f6-9c69-6e612e6b6963,1.00*%
%TF.SameCoordinates,PX4163808PY853a720*%
%TF.FileFunction,Copper,L1,Top*%
%TF.FilePolarity,Positive*%
%FSLAX46Y46*%
G04 Gerber Fmt 4.6, Leading zero omitted, Abs format (unit mm)*
G04 Created by KiCad (PCBNEW (6.0.8)) date 2022-12-05 13:38:34*
%MOMM*%
%LPD*%
G01*
G04 APERTURE LIST*
%TA.AperFunction,ComponentPad*%
%ADD10C,1.600000*%
%TD*%
%TA.AperFunction,ComponentPad*%
%ADD11O,1.600000X1.600000*%
%TD*%
%TA.AperFunction,ComponentPad*%
%ADD12R,1.905000X2.000000*%
%TD*%
%TA.AperFunction,ComponentPad*%
%ADD13O,1.905000X2.000000*%
%TD*%
%TA.AperFunction,ComponentPad*%
%ADD14R,1.700000X1.700000*%
%TD*%
%TA.AperFunction,ComponentPad*%
%ADD15O,1.700000X1.700000*%
%TD*%
%TA.AperFunction,ComponentPad*%
%ADD16R,2.200000X2.200000*%
%TD*%
%TA.AperFunction,ComponentPad*%
%ADD17O,2.200000X2.200000*%
%TD*%
%TA.AperFunction,ComponentPad*%
%ADD18O,1.600000X2.400000*%
%TD*%
%TA.AperFunction,ComponentPad*%
%ADD19R,1.600000X2.400000*%
%TD*%
%TA.AperFunction,ComponentPad*%
%ADD20R,1.600000X1.600000*%
%TD*%
%TA.AperFunction,ComponentPad*%
%ADD21R,2.400000X1.600000*%
%TD*%
%TA.AperFunction,ComponentPad*%
%ADD22O,2.400000X1.600000*%
%TD*%
%TA.AperFunction,ComponentPad*%
%ADD23R,2.000000X2.000000*%
%TD*%
%TA.AperFunction,ComponentPad*%
%ADD24C,2.000000*%
%TD*%
%TA.AperFunction,ViaPad*%
%ADD25C,2.000000*%
%TD*%
G04 APERTURE END LIST*
D10*
%TO.P,R5,1*%
%TO.N,/Step*%
X82565000Y35560000D03*
D11*
%TO.P,R5,2*%
%TO.N,Net-(Q5-Pad1)*%
X82565000Y43180000D03*
%TD*%
D12*
%TO.P,Q5,1,G*%
%TO.N,Net-(Q5-Pad1)*%
X82565000Y45720000D03*
D13*
%TO.P,Q5,2,D*%
%TO.N,Net-(D1-Pad1)*%
X85105000Y45720000D03*
%TO.P,Q5,3,S*%
%TO.N,GND*%
X87645000Y45720000D03*
%TD*%
D14*
%TO.P,J7,1,Pin_1*%
%TO.N,+24V*%
X87645000Y40640000D03*
D15*
%TO.P,J7,2,Pin_2*%
%TO.N,Net-(D1-Pad1)*%
X85105000Y40640000D03*
%TD*%
D16*
%TO.P,D1,1,K*%
%TO.N,Net-(D1-Pad1)*%
X85105000Y43180000D03*
D17*
%TO.P,D1,2,A*%
%TO.N,+24V*%
X92725000Y43180000D03*
%TD*%
D18*
%TO.P,U6,16,VCC*%
%TO.N,+5V*%
X67310000Y7635000D03*
%TO.P,U6,15,QA*%
%TO.N,F2 NOTE*%
X64770000Y7635000D03*
%TO.P,U6,14,SER*%
%TO.N,Net-(U5-Pad9)*%
X62230000Y7635000D03*
%TO.P,U6,13,~{OE}*%
%TO.N,OUT ENABLE*%
X59690000Y7635000D03*
%TO.P,U6,12,RCLK*%
%TO.N,LATCH*%
X57150000Y7635000D03*
%TO.P,U6,11,SRCLK*%
%TO.N,SHIFT CLOCK*%
X54610000Y7635000D03*
%TO.P,U6,10,~{SRCLR}*%
%TO.N,SHIFT CLEAR*%
X52070000Y7635000D03*
%TO.P,U6,9,QH'*%
%TO.N,unconnected-(U6-Pad9)*%
X49530000Y7635000D03*
%TO.P,U6,8,GND*%
%TO.N,GND*%
X49530000Y15255000D03*
%TO.P,U6,7,QH*%
%TO.N,STRING 4*%
X52070000Y15255000D03*
%TO.P,U6,6,QG*%
%TO.N,B3 NOTE*%
X54610000Y15255000D03*
%TO.P,U6,5,QF*%
%TO.N,A#3 NOTE*%
X57150000Y15255000D03*
%TO.P,U6,4,QE*%
%TO.N,A3 NOTE*%
X59690000Y15255000D03*
%TO.P,U6,3,QD*%
%TO.N,G#3 NOTE*%
X62230000Y15255000D03*
%TO.P,U6,2,QC*%
%TO.N,G2 NOTE*%
X64770000Y15255000D03*
D19*
%TO.P,U6,1,QB*%
%TO.N,F#2 NOTE*%
X67310000Y15255000D03*
%TD*%
D12*
%TO.P,U1,1,VI*%
%TO.N,+24V*%
X142255000Y39370000D03*
D13*
%TO.P,U1,2,GND*%
%TO.N,GND*%
X144795000Y39370000D03*
%TO.P,U1,3,VO*%
%TO.N,+5V*%
X147335000Y39370000D03*
%TD*%
D16*
%TO.P,D20,1,K*%
%TO.N,Net-(D20-Pad1)*%
X85105000Y55880000D03*
D17*
%TO.P,D20,2,A*%
%TO.N,+24V*%
X92725000Y55880000D03*
%TD*%
D13*
%TO.P,Q9,3,S*%
%TO.N,GND*%
X26685000Y83820000D03*
%TO.P,Q9,2,D*%
%TO.N,Net-(D5-Pad1)*%
X24145000Y83820000D03*
D12*
%TO.P,Q9,1,G*%
%TO.N,Net-(Q9-Pad1)*%
X21605000Y83820000D03*
%TD*%
D17*
%TO.P,D19,2,A*%
%TO.N,+24V*%
X49545000Y55880000D03*
D16*
%TO.P,D19,1,K*%
%TO.N,Net-(D19-Pad1)*%
X41925000Y55880000D03*
%TD*%
D17*
%TO.P,D31,2,A*%
%TO.N,+24V*%
X13985000Y43180000D03*
D16*
%TO.P,D31,1,K*%
%TO.N,Net-(D31-Pad1)*%
X6365000Y43180000D03*
%TD*%
D11*
%TO.P,R20,2*%
%TO.N,Net-(Q20-Pad1)*%
X21605000Y43180000D03*
D10*
%TO.P,R20,1*%
%TO.N,A#2 NOTE*%
X21605000Y35560000D03*
%TD*%
D13*
%TO.P,Q33,3,S*%
%TO.N,GND*%
X62245000Y58420000D03*
%TO.P,Q33,2,D*%
%TO.N,Net-(D29-Pad1)*%
X59705000Y58420000D03*
D12*
%TO.P,Q33,1,G*%
%TO.N,Net-(Q33-Pad1)*%
X57165000Y58420000D03*
%TD*%
D17*
%TO.P,D11,2,A*%
%TO.N,+24V*%
X31765000Y93980000D03*
D16*
%TO.P,D11,1,K*%
%TO.N,Net-(D11-Pad1)*%
X24145000Y93980000D03*
%TD*%
D10*
%TO.P,R12,1*%
%TO.N,A NOTE*%
X82565000Y73660000D03*
D11*
%TO.P,R12,2*%
%TO.N,Net-(Q12-Pad1)*%
X82565000Y81280000D03*
%TD*%
D10*
%TO.P,R1,1*%
%TO.N,GND*%
X142255000Y91440000D03*
D11*
%TO.P,R1,2*%
%TO.N,/Motor 1*%
X134635000Y91440000D03*
%TD*%
D15*
%TO.P,J28,2,Pin_2*%
%TO.N,Net-(D19-Pad1)*%
X41925000Y53340000D03*
D14*
%TO.P,J28,1,Pin_1*%
%TO.N,+24V*%
X44465000Y53340000D03*
%TD*%
%TO.P,J9,1,Pin_1*%
%TO.N,+5V*%
X139705000Y2540000D03*
D15*
%TO.P,J9,2,Pin_2*%
%TO.N,GND*%
X137165000Y2540000D03*
%TO.P,J9,3,Pin_3*%
%TO.N,Net-(J9-Pad3)*%
X134625000Y2540000D03*
%TO.P,J9,4,Pin_4*%
%TO.N,Net-(J9-Pad4)*%
X132085000Y2540000D03*
%TD*%
%TO.P,J36,2,Pin_2*%
%TO.N,Net-(D27-Pad1)*%
X6365000Y53340000D03*
D14*
%TO.P,J36,1,Pin_1*%
%TO.N,+24V*%
X8905000Y53340000D03*
%TD*%
D12*
%TO.P,Q2,1,G*%
%TO.N,/Motor 3*%
X134635000Y77470000D03*
D13*
%TO.P,Q2,2,D*%
%TO.N,Net-(J2-Pad2)*%
X137175000Y77470000D03*
%TO.P,Q2,3,S*%
%TO.N,GND*%
X139715000Y77470000D03*
%TD*%
%TO.P,Q15,3,S*%
%TO.N,GND*%
X26685000Y96520000D03*
%TO.P,Q15,2,D*%
%TO.N,Net-(D11-Pad1)*%
X24145000Y96520000D03*
D12*
%TO.P,Q15,1,G*%
%TO.N,Net-(Q15-Pad1)*%
X21605000Y96520000D03*
%TD*%
%TO.P,Q7,1,G*%
%TO.N,Net-(Q7-Pad1)*%
X100345000Y71120000D03*
D13*
%TO.P,Q7,2,D*%
%TO.N,Net-(D3-Pad1)*%
X102885000Y71120000D03*
%TO.P,Q7,3,S*%
%TO.N,GND*%
X105425000Y71120000D03*
%TD*%
D20*
%TO.P,A1,1,GND*%
%TO.N,GND*%
X134635000Y48250000D03*
D11*
%TO.P,A1,2,VDD*%
%TO.N,+5V*%
X132095000Y48250000D03*
%TO.P,A1,3,1B*%
%TO.N,Net-(A1-Pad3)*%
X129555000Y48250000D03*
%TO.P,A1,4,1A*%
%TO.N,Net-(A1-Pad4)*%
X127015000Y48250000D03*
%TO.P,A1,5,2A*%
%TO.N,Net-(A1-Pad5)*%
X124475000Y48250000D03*
%TO.P,A1,6,2B*%
%TO.N,Net-(A1-Pad6)*%
X121935000Y48250000D03*
%TO.P,A1,7,GND*%
%TO.N,GND*%
X119395000Y48250000D03*
%TO.P,A1,8,VMOT*%
%TO.N,+24V*%
X116855000Y48250000D03*
%TO.P,A1,9,~{ENABLE}*%
%TO.N,/Enable*%
X116855000Y35550000D03*
%TO.P,A1,10,MS1*%
%TO.N,Net-(A1-Pad10)*%
X119395000Y35550000D03*
%TO.P,A1,11,MS2*%
%TO.N,Net-(A1-Pad11)*%
X121935000Y35550000D03*
%TO.P,A1,12,MS3*%
%TO.N,Net-(A1-Pad12)*%
X124475000Y35550000D03*
%TO.P,A1,13,~{RESET}*%
%TO.N,Net-(A1-Pad13)*%
X127015000Y35550000D03*
%TO.P,A1,14,~{SLEEP}*%
X129555000Y35550000D03*
%TO.P,A1,15,STEP*%
%TO.N,/Step*%
X132095000Y35550000D03*
%TO.P,A1,16,DIR*%
%TO.N,/Direction*%
X134635000Y35550000D03*
%TD*%
D16*
%TO.P,D2,1,K*%
%TO.N,Net-(D2-Pad1)*%
X85105000Y93980000D03*
D17*
%TO.P,D2,2,A*%
%TO.N,+24V*%
X92725000Y93980000D03*
%TD*%
D12*
%TO.P,Q12,1,G*%
%TO.N,Net-(Q12-Pad1)*%
X82565000Y83820000D03*
D13*
%TO.P,Q12,2,D*%
%TO.N,Net-(D8-Pad1)*%
X85105000Y83820000D03*
%TO.P,Q12,3,S*%
%TO.N,GND*%
X87645000Y83820000D03*
%TD*%
D12*
%TO.P,Q24,1,G*%
%TO.N,Net-(Q24-Pad1)*%
X82565000Y58420000D03*
D13*
%TO.P,Q24,2,D*%
%TO.N,Net-(D20-Pad1)*%
X85105000Y58420000D03*
%TO.P,Q24,3,S*%
%TO.N,GND*%
X87645000Y58420000D03*
%TD*%
%TO.P,Q10,3,S*%
%TO.N,GND*%
X44465000Y33020000D03*
%TO.P,Q10,2,D*%
%TO.N,Net-(D6-Pad1)*%
X41925000Y33020000D03*
D12*
%TO.P,Q10,1,G*%
%TO.N,Net-(Q10-Pad1)*%
X39385000Y33020000D03*
%TD*%
D11*
%TO.P,R17,2*%
%TO.N,Net-(Q17-Pad1)*%
X21605000Y55880000D03*
D10*
%TO.P,R17,1*%
%TO.N,STRING 2*%
X21605000Y48260000D03*
%TD*%
D13*
%TO.P,Q23,3,S*%
%TO.N,GND*%
X44465000Y58420000D03*
%TO.P,Q23,2,D*%
%TO.N,Net-(D19-Pad1)*%
X41925000Y58420000D03*
D12*
%TO.P,Q23,1,G*%
%TO.N,Net-(Q23-Pad1)*%
X39385000Y58420000D03*
%TD*%
D13*
%TO.P,Q13,3,S*%
%TO.N,GND*%
X8905000Y96520000D03*
%TO.P,Q13,2,D*%
%TO.N,Net-(D9-Pad1)*%
X6365000Y96520000D03*
D12*
%TO.P,Q13,1,G*%
%TO.N,Net-(Q13-Pad1)*%
X3825000Y96520000D03*
%TD*%
D17*
%TO.P,D18,2,A*%
%TO.N,+24V*%
X67325000Y81280000D03*
D16*
%TO.P,D18,1,K*%
%TO.N,Net-(D18-Pad1)*%
X59705000Y81280000D03*
%TD*%
D15*
%TO.P,J27,2,Pin_2*%
%TO.N,Net-(D18-Pad1)*%
X59705000Y78740000D03*
D14*
%TO.P,J27,1,Pin_1*%
%TO.N,+24V*%
X62245000Y78740000D03*
%TD*%
D17*
%TO.P,D4,2,A*%
%TO.N,+24V*%
X13985000Y30480000D03*
D16*
%TO.P,D4,1,K*%
%TO.N,Net-(D4-Pad1)*%
X6365000Y30480000D03*
%TD*%
D11*
%TO.P,R8,2*%
%TO.N,Net-(Q8-Pad1)*%
X3825000Y30480000D03*
D10*
%TO.P,R8,1*%
%TO.N,G#2 NOTE*%
X3825000Y22860000D03*
%TD*%
D12*
%TO.P,Q1,1,G*%
%TO.N,/Motor 1*%
X134635000Y93980000D03*
D13*
%TO.P,Q1,2,D*%
%TO.N,Net-(J1-Pad2)*%
X137175000Y93980000D03*
%TO.P,Q1,3,S*%
%TO.N,GND*%
X139715000Y93980000D03*
%TD*%
D14*
%TO.P,J3,1,Pin_1*%
%TO.N,+24V*%
X118125000Y72390000D03*
D15*
%TO.P,J3,2,Pin_2*%
%TO.N,Net-(J3-Pad2)*%
X120665000Y72390000D03*
%TD*%
D17*
%TO.P,D28,2,A*%
%TO.N,+24V*%
X49545000Y68580000D03*
D16*
%TO.P,D28,1,K*%
%TO.N,Net-(D28-Pad1)*%
X41925000Y68580000D03*
%TD*%
D13*
%TO.P,Q20,3,S*%
%TO.N,GND*%
X26685000Y45720000D03*
%TO.P,Q20,2,D*%
%TO.N,Net-(D16-Pad1)*%
X24145000Y45720000D03*
D12*
%TO.P,Q20,1,G*%
%TO.N,Net-(Q20-Pad1)*%
X21605000Y45720000D03*
%TD*%
D11*
%TO.P,R9,2*%
%TO.N,Net-(Q9-Pad1)*%
X21605000Y81280000D03*
D10*
%TO.P,R9,1*%
%TO.N,C2 NOTE*%
X21605000Y73660000D03*
%TD*%
D11*
%TO.P,R37,2*%
%TO.N,Net-(Q37-Pad1)*%
X57165000Y43180000D03*
D10*
%TO.P,R37,1*%
%TO.N,B3 NOTE*%
X57165000Y35560000D03*
%TD*%
%TO.P,R7,1*%
%TO.N,D NOTE*%
X100345000Y60960000D03*
D11*
%TO.P,R7,2*%
%TO.N,Net-(Q7-Pad1)*%
X100345000Y68580000D03*
%TD*%
D14*
%TO.P,J17,1,Pin_1*%
%TO.N,+24V*%
X87645000Y78740000D03*
D15*
%TO.P,J17,2,Pin_2*%
%TO.N,Net-(D8-Pad1)*%
X85105000Y78740000D03*
%TD*%
D11*
%TO.P,R32,2*%
%TO.N,Net-(Q32-Pad1)*%
X39385000Y68580000D03*
D10*
%TO.P,R32,1*%
%TO.N,E2 NOTE*%
X39385000Y60960000D03*
%TD*%
D14*
%TO.P,J5,1,Pin_1*%
%TO.N,+24V*%
X142255000Y48275000D03*
D15*
%TO.P,J5,2,Pin_2*%
%TO.N,GND*%
X142255000Y50815000D03*
%TO.P,J5,3,Pin_3*%
%TO.N,unconnected-(J5-Pad3)*%
X142255000Y53355000D03*
%TD*%
D14*
%TO.P,J12,1,Pin_1*%
%TO.N,+24V*%
X105425000Y66040000D03*
D15*
%TO.P,J12,2,Pin_2*%
%TO.N,Net-(D3-Pad1)*%
X102885000Y66040000D03*
%TD*%
D11*
%TO.P,R16,2*%
%TO.N,Net-(Q16-Pad1)*%
X57165000Y93980000D03*
D10*
%TO.P,R16,1*%
%TO.N,G2 NOTE*%
X57165000Y86360000D03*
%TD*%
D17*
%TO.P,D17,2,A*%
%TO.N,+24V*%
X49545000Y93980000D03*
D16*
%TO.P,D17,1,K*%
%TO.N,Net-(D17-Pad1)*%
X41925000Y93980000D03*
%TD*%
D12*
%TO.P,Q18,1,G*%
%TO.N,Net-(Q18-Pad1)*%
X82565000Y71120000D03*
D13*
%TO.P,Q18,2,D*%
%TO.N,Net-(D14-Pad1)*%
X85105000Y71120000D03*
%TO.P,Q18,3,S*%
%TO.N,GND*%
X87645000Y71120000D03*
%TD*%
D15*
%TO.P,J20,2,Pin_2*%
%TO.N,Net-(D11-Pad1)*%
X24145000Y91440000D03*
D14*
%TO.P,J20,1,Pin_1*%
%TO.N,+24V*%
X26685000Y91440000D03*
%TD*%
D15*
%TO.P,J25,2,Pin_2*%
%TO.N,Net-(D16-Pad1)*%
X24145000Y40640000D03*
D14*
%TO.P,J25,1,Pin_1*%
%TO.N,+24V*%
X26685000Y40640000D03*
%TD*%
D11*
%TO.P,R25,2*%
%TO.N,Net-(Q25-Pad1)*%
X3825000Y68580000D03*
D10*
%TO.P,R25,1*%
%TO.N,F NOTE*%
X3825000Y60960000D03*
%TD*%
D12*
%TO.P,Q34,1,G*%
%TO.N,Net-(Q34-Pad1)*%
X100345000Y83820000D03*
D13*
%TO.P,Q34,2,D*%
%TO.N,Net-(D30-Pad1)*%
X102885000Y83820000D03*
%TO.P,Q34,3,S*%
%TO.N,GND*%
X105425000Y83820000D03*
%TD*%
D14*
%TO.P,J29,1,Pin_1*%
%TO.N,+24V*%
X87645000Y53340000D03*
D15*
%TO.P,J29,2,Pin_2*%
%TO.N,Net-(D20-Pad1)*%
X85105000Y53340000D03*
%TD*%
%TO.P,J34,2,Pin_2*%
%TO.N,Net-(D25-Pad1)*%
X59705000Y27940000D03*
D14*
%TO.P,J34,1,Pin_1*%
%TO.N,+24V*%
X62245000Y27940000D03*
%TD*%
D17*
%TO.P,D22,2,A*%
%TO.N,+24V*%
X31765000Y30480000D03*
D16*
%TO.P,D22,1,K*%
%TO.N,Net-(D22-Pad1)*%
X24145000Y30480000D03*
%TD*%
D15*
%TO.P,J38,2,Pin_2*%
%TO.N,Net-(D29-Pad1)*%
X59705000Y53340000D03*
D14*
%TO.P,J38,1,Pin_1*%
%TO.N,+24V*%
X62245000Y53340000D03*
%TD*%
D11*
%TO.P,R15,2*%
%TO.N,Net-(Q15-Pad1)*%
X21605000Y93980000D03*
D10*
%TO.P,R15,1*%
%TO.N,C#2 NOTE*%
X21605000Y86360000D03*
%TD*%
D13*
%TO.P,Q29,3,S*%
%TO.N,GND*%
X62245000Y33020000D03*
%TO.P,Q29,2,D*%
%TO.N,Net-(D25-Pad1)*%
X59705000Y33020000D03*
D12*
%TO.P,Q29,1,G*%
%TO.N,Net-(Q29-Pad1)*%
X57165000Y33020000D03*
%TD*%
D15*
%TO.P,J31,2,Pin_2*%
%TO.N,Net-(D22-Pad1)*%
X24145000Y27940000D03*
D14*
%TO.P,J31,1,Pin_1*%
%TO.N,+24V*%
X26685000Y27940000D03*
%TD*%
D17*
%TO.P,D15,2,A*%
%TO.N,+24V*%
X13985000Y81280000D03*
D16*
%TO.P,D15,1,K*%
%TO.N,Net-(D15-Pad1)*%
X6365000Y81280000D03*
%TD*%
D13*
%TO.P,Q8,3,S*%
%TO.N,GND*%
X8905000Y33020000D03*
%TO.P,Q8,2,D*%
%TO.N,Net-(D4-Pad1)*%
X6365000Y33020000D03*
D12*
%TO.P,Q8,1,G*%
%TO.N,Net-(Q8-Pad1)*%
X3825000Y33020000D03*
%TD*%
D14*
%TO.P,J2,1,Pin_1*%
%TO.N,+24V*%
X134635000Y72390000D03*
D15*
%TO.P,J2,2,Pin_2*%
%TO.N,Net-(J2-Pad2)*%
X137175000Y72390000D03*
%TD*%
D10*
%TO.P,R4,1*%
%TO.N,GND*%
X125745000Y91440000D03*
D11*
%TO.P,R4,2*%
%TO.N,/Motor 4*%
X118125000Y91440000D03*
%TD*%
D13*
%TO.P,Q21,3,S*%
%TO.N,GND*%
X44465000Y96520000D03*
%TO.P,Q21,2,D*%
%TO.N,Net-(D17-Pad1)*%
X41925000Y96520000D03*
D12*
%TO.P,Q21,1,G*%
%TO.N,Net-(Q21-Pad1)*%
X39385000Y96520000D03*
%TD*%
D11*
%TO.P,R31,2*%
%TO.N,Net-(Q31-Pad1)*%
X3825000Y55880000D03*
D10*
%TO.P,R31,1*%
%TO.N,F# NOTE*%
X3825000Y48260000D03*
%TD*%
D17*
%TO.P,D5,2,A*%
%TO.N,+24V*%
X31765000Y81280000D03*
D16*
%TO.P,D5,1,K*%
%TO.N,Net-(D5-Pad1)*%
X24145000Y81280000D03*
%TD*%
D10*
%TO.P,R24,1*%
%TO.N,B NOTE*%
X82565000Y48260000D03*
D11*
%TO.P,R24,2*%
%TO.N,Net-(Q24-Pad1)*%
X82565000Y55880000D03*
%TD*%
D14*
%TO.P,J4,1,Pin_1*%
%TO.N,+24V*%
X118125000Y88900000D03*
D15*
%TO.P,J4,2,Pin_2*%
%TO.N,Net-(J4-Pad2)*%
X120665000Y88900000D03*
%TD*%
D14*
%TO.P,J1,1,Pin_1*%
%TO.N,+24V*%
X134635000Y88900000D03*
D15*
%TO.P,J1,2,Pin_2*%
%TO.N,Net-(J1-Pad2)*%
X137175000Y88900000D03*
%TD*%
D11*
%TO.P,R27,2*%
%TO.N,Net-(Q27-Pad1)*%
X39385000Y81605000D03*
D10*
%TO.P,R27,1*%
%TO.N,D#2 NOTE*%
X39385000Y73985000D03*
%TD*%
D15*
%TO.P,J42,2,Pin_2*%
%TO.N,Net-(D33-Pad1)*%
X59705000Y40640000D03*
D14*
%TO.P,J42,1,Pin_1*%
%TO.N,+24V*%
X62245000Y40640000D03*
%TD*%
D10*
%TO.P,R34,1*%
%TO.N,C# NOTE*%
X100345000Y73660000D03*
D11*
%TO.P,R34,2*%
%TO.N,Net-(Q34-Pad1)*%
X100345000Y81280000D03*
%TD*%
D15*
%TO.P,J14,2,Pin_2*%
%TO.N,Net-(D5-Pad1)*%
X24145000Y78740000D03*
D14*
%TO.P,J14,1,Pin_1*%
%TO.N,+24V*%
X26685000Y78740000D03*
%TD*%
D16*
%TO.P,D7,1,K*%
%TO.N,Net-(D7-Pad1)*%
X102885000Y54610000D03*
D17*
%TO.P,D7,2,A*%
%TO.N,+24V*%
X110505000Y54610000D03*
%TD*%
D15*
%TO.P,J19,2,Pin_2*%
%TO.N,Net-(D10-Pad1)*%
X24145000Y66040000D03*
D14*
%TO.P,J19,1,Pin_1*%
%TO.N,+24V*%
X26685000Y66040000D03*
%TD*%
D11*
%TO.P,R33,2*%
%TO.N,Net-(Q33-Pad1)*%
X57165000Y55880000D03*
D10*
%TO.P,R33,1*%
%TO.N,A#3 NOTE*%
X57165000Y48260000D03*
%TD*%
D11*
%TO.P,R36,2*%
%TO.N,Net-(Q36-Pad1)*%
X39385000Y43180000D03*
D10*
%TO.P,R36,1*%
%TO.N,F2 NOTE*%
X39385000Y35560000D03*
%TD*%
D11*
%TO.P,R28,2*%
%TO.N,Net-(Q28-Pad1)*%
X57165000Y68580000D03*
D10*
%TO.P,R28,1*%
%TO.N,A3 NOTE*%
X57165000Y60960000D03*
%TD*%
%TO.P,R11,1*%
%TO.N,STRING 1*%
X100345000Y46990000D03*
D11*
%TO.P,R11,2*%
%TO.N,Net-(Q11-Pad1)*%
X100345000Y54610000D03*
%TD*%
%TO.P,R19,2*%
%TO.N,Net-(Q19-Pad1)*%
X3825000Y81540000D03*
D10*
%TO.P,R19,1*%
%TO.N,E NOTE*%
X3825000Y73920000D03*
%TD*%
D15*
%TO.P,J21,2,Pin_2*%
%TO.N,Net-(D12-Pad1)*%
X59705000Y91440000D03*
D14*
%TO.P,J21,1,Pin_1*%
%TO.N,+24V*%
X62245000Y91440000D03*
%TD*%
D13*
%TO.P,Q31,3,S*%
%TO.N,GND*%
X8905000Y58420000D03*
%TO.P,Q31,2,D*%
%TO.N,Net-(D27-Pad1)*%
X6365000Y58420000D03*
D12*
%TO.P,Q31,1,G*%
%TO.N,Net-(Q31-Pad1)*%
X3825000Y58420000D03*
%TD*%
D11*
%TO.P,R23,2*%
%TO.N,Net-(Q23-Pad1)*%
X39385000Y55880000D03*
D10*
%TO.P,R23,1*%
%TO.N,STRING 3*%
X39385000Y48260000D03*
%TD*%
D14*
%TO.P,J39,1,Pin_1*%
%TO.N,+24V*%
X105425000Y78740000D03*
D15*
%TO.P,J39,2,Pin_2*%
%TO.N,Net-(D30-Pad1)*%
X102885000Y78740000D03*
%TD*%
D10*
%TO.P,R3,1*%
%TO.N,GND*%
X125745000Y74930000D03*
D11*
%TO.P,R3,2*%
%TO.N,/Motor 2*%
X118125000Y74930000D03*
%TD*%
D15*
%TO.P,J26,2,Pin_2*%
%TO.N,Net-(D17-Pad1)*%
X41925000Y91440000D03*
D14*
%TO.P,J26,1,Pin_1*%
%TO.N,+24V*%
X44465000Y91440000D03*
%TD*%
D15*
%TO.P,J32,2,Pin_2*%
%TO.N,Net-(D23-Pad1)*%
X41925000Y79065000D03*
D14*
%TO.P,J32,1,Pin_1*%
%TO.N,+24V*%
X44465000Y79065000D03*
%TD*%
D12*
%TO.P,Q3,1,G*%
%TO.N,/Motor 2*%
X118125000Y77470000D03*
D13*
%TO.P,Q3,2,D*%
%TO.N,Net-(J3-Pad2)*%
X120665000Y77470000D03*
%TO.P,Q3,3,S*%
%TO.N,GND*%
X123205000Y77470000D03*
%TD*%
D15*
%TO.P,J22,2,Pin_2*%
%TO.N,Net-(D13-Pad1)*%
X24145000Y53340000D03*
D14*
%TO.P,J22,1,Pin_1*%
%TO.N,+24V*%
X26685000Y53340000D03*
%TD*%
D21*
%TO.P,U3,1,QB*%
%TO.N,A NOTE*%
X85090000Y25385000D03*
D22*
%TO.P,U3,2,QC*%
%TO.N,A# NOTE*%
X85090000Y22845000D03*
%TO.P,U3,3,QD*%
%TO.N,B NOTE*%
X85090000Y20305000D03*
%TO.P,U3,4,QE*%
%TO.N,C NOTE*%
X85090000Y17765000D03*
%TO.P,U3,5,QF*%
%TO.N,C# NOTE*%
X85090000Y15225000D03*
%TO.P,U3,6,QG*%
%TO.N,D NOTE*%
X85090000Y12685000D03*
%TO.P,U3,7,QH*%
%TO.N,STRING 1*%
X85090000Y10145000D03*
%TO.P,U3,8,GND*%
%TO.N,GND*%
X85090000Y7605000D03*
%TO.P,U3,9,QH'*%
%TO.N,Net-(U3-Pad9)*%
X92710000Y7605000D03*
%TO.P,U3,10,~{SRCLR}*%
%TO.N,SHIFT CLEAR*%
X92710000Y10145000D03*
%TO.P,U3,11,SRCLK*%
%TO.N,SHIFT CLOCK*%
X92710000Y12685000D03*
%TO.P,U3,12,RCLK*%
%TO.N,LATCH*%
X92710000Y15225000D03*
%TO.P,U3,13,~{OE}*%
%TO.N,OUT ENABLE*%
X92710000Y17765000D03*
%TO.P,U3,14,SER*%
%TO.N,SHIFT I{slash}O*%
X92710000Y20305000D03*
%TO.P,U3,15,QA*%
%TO.N,G# NOTE*%
X92710000Y22845000D03*
%TO.P,U3,16,VCC*%
%TO.N,+5V*%
X92710000Y25385000D03*
%TD*%
D17*
%TO.P,D13,2,A*%
%TO.N,+24V*%
X31765000Y55880000D03*
D16*
%TO.P,D13,1,K*%
%TO.N,Net-(D13-Pad1)*%
X24145000Y55880000D03*
%TD*%
D13*
%TO.P,Q17,3,S*%
%TO.N,GND*%
X26685000Y58420000D03*
%TO.P,Q17,2,D*%
%TO.N,Net-(D13-Pad1)*%
X24145000Y58420000D03*
D12*
%TO.P,Q17,1,G*%
%TO.N,Net-(Q17-Pad1)*%
X21605000Y58420000D03*
%TD*%
%TO.P,Q4,1,G*%
%TO.N,/Motor 4*%
X118125000Y93980000D03*
D13*
%TO.P,Q4,2,D*%
%TO.N,Net-(J4-Pad2)*%
X120665000Y93980000D03*
%TO.P,Q4,3,S*%
%TO.N,GND*%
X123205000Y93980000D03*
%TD*%
D12*
%TO.P,Q30,1,G*%
%TO.N,Net-(Q30-Pad1)*%
X100345000Y96520000D03*
D13*
%TO.P,Q30,2,D*%
%TO.N,Net-(D26-Pad1)*%
X102885000Y96520000D03*
%TO.P,Q30,3,S*%
%TO.N,GND*%
X105425000Y96520000D03*
%TD*%
D16*
%TO.P,D26,1,K*%
%TO.N,Net-(D26-Pad1)*%
X102885000Y93980000D03*
D17*
%TO.P,D26,2,A*%
%TO.N,+24V*%
X110505000Y93980000D03*
%TD*%
D18*
%TO.P,U5,16,VCC*%
%TO.N,+5V*%
X44450000Y7635000D03*
%TO.P,U5,15,QA*%
%TO.N,A#2 NOTE*%
X41910000Y7635000D03*
%TO.P,U5,14,SER*%
%TO.N,Net-(U4-Pad9)*%
X39370000Y7635000D03*
%TO.P,U5,13,~{OE}*%
%TO.N,OUT ENABLE*%
X36830000Y7635000D03*
%TO.P,U5,12,RCLK*%
%TO.N,LATCH*%
X34290000Y7635000D03*
%TO.P,U5,11,SRCLK*%
%TO.N,SHIFT CLOCK*%
X31750000Y7635000D03*
%TO.P,U5,10,~{SRCLR}*%
%TO.N,SHIFT CLEAR*%
X29210000Y7635000D03*
%TO.P,U5,9,QH'*%
%TO.N,Net-(U5-Pad9)*%
X26670000Y7635000D03*
%TO.P,U5,8,GND*%
%TO.N,GND*%
X26670000Y15255000D03*
%TO.P,U5,7,QH*%
%TO.N,STRING 3*%
X29210000Y15255000D03*
%TO.P,U5,6,QG*%
%TO.N,E2 NOTE*%
X31750000Y15255000D03*
%TO.P,U5,5,QF*%
%TO.N,D#2 NOTE*%
X34290000Y15255000D03*
%TO.P,U5,4,QE*%
%TO.N,D2 NOTE*%
X36830000Y15255000D03*
%TO.P,U5,3,QD*%
%TO.N,C#2 NOTE*%
X39370000Y15255000D03*
%TO.P,U5,2,QC*%
%TO.N,C2 NOTE*%
X41910000Y15255000D03*
D19*
%TO.P,U5,1,QB*%
%TO.N,B2 NOTE*%
X44450000Y15255000D03*
%TD*%
D14*
%TO.P,J11,1,Pin_1*%
%TO.N,+24V*%
X87645000Y91440000D03*
D15*
%TO.P,J11,2,Pin_2*%
%TO.N,Net-(D2-Pad1)*%
X85105000Y91440000D03*
%TD*%
D17*
%TO.P,D32,2,A*%
%TO.N,+24V*%
X49545000Y43180000D03*
D16*
%TO.P,D32,1,K*%
%TO.N,Net-(D32-Pad1)*%
X41925000Y43180000D03*
%TD*%
D11*
%TO.P,R21,2*%
%TO.N,Net-(Q21-Pad1)*%
X39385000Y93980000D03*
D10*
%TO.P,R21,1*%
%TO.N,D2 NOTE*%
X39385000Y86360000D03*
%TD*%
D13*
%TO.P,Q27,3,S*%
%TO.N,GND*%
X44465000Y84145000D03*
%TO.P,Q27,2,D*%
%TO.N,Net-(D23-Pad1)*%
X41925000Y84145000D03*
D12*
%TO.P,Q27,1,G*%
%TO.N,Net-(Q27-Pad1)*%
X39385000Y84145000D03*
%TD*%
D17*
%TO.P,D16,2,A*%
%TO.N,+24V*%
X31765000Y43180000D03*
D16*
%TO.P,D16,1,K*%
%TO.N,Net-(D16-Pad1)*%
X24145000Y43180000D03*
%TD*%
D13*
%TO.P,Q35,3,S*%
%TO.N,GND*%
X8905000Y45720000D03*
%TO.P,Q35,2,D*%
%TO.N,Net-(D31-Pad1)*%
X6365000Y45720000D03*
D12*
%TO.P,Q35,1,G*%
%TO.N,Net-(Q35-Pad1)*%
X3825000Y45720000D03*
%TD*%
D13*
%TO.P,Q22,3,S*%
%TO.N,GND*%
X62245000Y83820000D03*
%TO.P,Q22,2,D*%
%TO.N,Net-(D18-Pad1)*%
X59705000Y83820000D03*
D12*
%TO.P,Q22,1,G*%
%TO.N,Net-(Q22-Pad1)*%
X57165000Y83820000D03*
%TD*%
D11*
%TO.P,R35,2*%
%TO.N,Net-(Q35-Pad1)*%
X3825000Y43180000D03*
D10*
%TO.P,R35,1*%
%TO.N,G NOTE*%
X3825000Y35560000D03*
%TD*%
D15*
%TO.P,J30,2,Pin_2*%
%TO.N,Net-(D21-Pad1)*%
X6365000Y66040000D03*
D14*
%TO.P,J30,1,Pin_1*%
%TO.N,+24V*%
X8905000Y66040000D03*
%TD*%
D15*
%TO.P,J37,2,Pin_2*%
%TO.N,Net-(D28-Pad1)*%
X41925000Y66040000D03*
D14*
%TO.P,J37,1,Pin_1*%
%TO.N,+24V*%
X44465000Y66040000D03*
%TD*%
D11*
%TO.P,R26,2*%
%TO.N,Net-(Q26-Pad1)*%
X21605000Y30480000D03*
D10*
%TO.P,R26,1*%
%TO.N,B2 NOTE*%
X21605000Y22860000D03*
%TD*%
D13*
%TO.P,Q26,3,S*%
%TO.N,GND*%
X26685000Y33020000D03*
%TO.P,Q26,2,D*%
%TO.N,Net-(D22-Pad1)*%
X24145000Y33020000D03*
D12*
%TO.P,Q26,1,G*%
%TO.N,Net-(Q26-Pad1)*%
X21605000Y33020000D03*
%TD*%
D17*
%TO.P,D6,2,A*%
%TO.N,+24V*%
X49545000Y30480000D03*
D16*
%TO.P,D6,1,K*%
%TO.N,Net-(D6-Pad1)*%
X41925000Y30480000D03*
%TD*%
D11*
%TO.P,R13,2*%
%TO.N,Net-(Q13-Pad1)*%
X3825000Y93980000D03*
D10*
%TO.P,R13,1*%
%TO.N,D# NOTE*%
X3825000Y86360000D03*
%TD*%
D12*
%TO.P,Q6,1,G*%
%TO.N,Net-(Q6-Pad1)*%
X82565000Y96520000D03*
D13*
%TO.P,Q6,2,D*%
%TO.N,Net-(D2-Pad1)*%
X85105000Y96520000D03*
%TO.P,Q6,3,S*%
%TO.N,GND*%
X87645000Y96520000D03*
%TD*%
D16*
%TO.P,D14,1,K*%
%TO.N,Net-(D14-Pad1)*%
X85105000Y68580000D03*
D17*
%TO.P,D14,2,A*%
%TO.N,+24V*%
X92725000Y68580000D03*
%TD*%
D11*
%TO.P,R29,2*%
%TO.N,Net-(Q29-Pad1)*%
X57165000Y30480000D03*
D10*
%TO.P,R29,1*%
%TO.N,STRING 4*%
X57165000Y22860000D03*
%TD*%
D15*
%TO.P,J18,2,Pin_2*%
%TO.N,Net-(D9-Pad1)*%
X6365000Y91440000D03*
D14*
%TO.P,J18,1,Pin_1*%
%TO.N,+24V*%
X8905000Y91440000D03*
%TD*%
D17*
%TO.P,D29,2,A*%
%TO.N,+24V*%
X67325000Y55880000D03*
D16*
%TO.P,D29,1,K*%
%TO.N,Net-(D29-Pad1)*%
X59705000Y55880000D03*
%TD*%
D14*
%TO.P,J10,1,Pin_1*%
%TO.N,Net-(A1-Pad3)*%
X129545000Y50800000D03*
D15*
%TO.P,J10,2,Pin_2*%
%TO.N,Net-(A1-Pad4)*%
X127005000Y50800000D03*
%TO.P,J10,3,Pin_3*%
%TO.N,Net-(A1-Pad5)*%
X124465000Y50800000D03*
%TO.P,J10,4,Pin_4*%
%TO.N,Net-(A1-Pad6)*%
X121925000Y50800000D03*
%TD*%
D10*
%TO.P,R18,1*%
%TO.N,A# NOTE*%
X82565000Y60960000D03*
D11*
%TO.P,R18,2*%
%TO.N,Net-(Q18-Pad1)*%
X82565000Y68580000D03*
%TD*%
%TO.P,R22,2*%
%TO.N,Net-(Q22-Pad1)*%
X57165000Y81280000D03*
D10*
%TO.P,R22,1*%
%TO.N,G#3 NOTE*%
X57165000Y73660000D03*
%TD*%
%TO.P,R2,1*%
%TO.N,GND*%
X142255000Y74930000D03*
D11*
%TO.P,R2,2*%
%TO.N,/Motor 3*%
X134635000Y74930000D03*
%TD*%
D14*
%TO.P,J8,1,Pin_1*%
%TO.N,Net-(A1-Pad12)*%
X124460000Y40640000D03*
D15*
%TO.P,J8,2,Pin_2*%
%TO.N,Net-(A1-Pad11)*%
X121920000Y40640000D03*
%TO.P,J8,3,Pin_3*%
%TO.N,Net-(A1-Pad10)*%
X119380000Y40640000D03*
%TD*%
D13*
%TO.P,Q28,3,S*%
%TO.N,GND*%
X62245000Y71120000D03*
%TO.P,Q28,2,D*%
%TO.N,Net-(D24-Pad1)*%
X59705000Y71120000D03*
D12*
%TO.P,Q28,1,G*%
%TO.N,Net-(Q28-Pad1)*%
X57165000Y71120000D03*
%TD*%
D17*
%TO.P,D12,2,A*%
%TO.N,+24V*%
X67325000Y93980000D03*
D16*
%TO.P,D12,1,K*%
%TO.N,Net-(D12-Pad1)*%
X59705000Y93980000D03*
%TD*%
D23*
%TO.P,U2,1,3V3*%
%TO.N,unconnected-(U2-Pad1)*%
X139715000Y30115000D03*
D24*
%TO.P,U2,2,GND*%
%TO.N,GND*%
X137175000Y30115000D03*
%TO.P,U2,3,D15*%
%TO.N,/Direction*%
X134635000Y30115000D03*
%TO.P,U2,4,D2*%
%TO.N,/Step*%
X132095000Y30115000D03*
%TO.P,U2,5,D4*%
%TO.N,unconnected-(U2-Pad5)*%
X129555000Y30115000D03*
%TO.P,U2,6,RX2*%
%TO.N,unconnected-(U2-Pad6)*%
X127015000Y30115000D03*
%TO.P,U2,7,TX2*%
%TO.N,unconnected-(U2-Pad7)*%
X124475000Y30115000D03*
%TO.P,U2,8,D5*%
%TO.N,unconnected-(U2-Pad8)*%
X121935000Y30115000D03*
%TO.P,U2,9,D18*%
%TO.N,unconnected-(U2-Pad9)*%
X119395000Y30115000D03*
%TO.P,U2,10,D19*%
%TO.N,/Enable*%
X116855000Y30115000D03*
%TO.P,U2,11,D21*%
%TO.N,unconnected-(U2-Pad11)*%
X114315000Y30115000D03*
%TO.P,U2,12,RX0*%
%TO.N,/Motor 4*%
X111775000Y30115000D03*
%TO.P,U2,13,TX0*%
%TO.N,/Motor 1*%
X109235000Y30115000D03*
%TO.P,U2,14,D22*%
%TO.N,/Motor 3*%
X106695000Y30115000D03*
%TO.P,U2,15,D23*%
%TO.N,/Motor 2*%
X104155000Y30115000D03*
%TO.P,U2,16,EN*%
%TO.N,unconnected-(U2-Pad16)*%
X104155000Y4715000D03*
%TO.P,U2,17,VP*%
%TO.N,unconnected-(U2-Pad17)*%
X106695000Y4715000D03*
%TO.P,U2,18,VN*%
%TO.N,unconnected-(U2-Pad18)*%
X109235000Y4715000D03*
%TO.P,U2,19,D34*%
%TO.N,SHIFT CLEAR*%
X111775000Y4715000D03*
%TO.P,U2,20,D35*%
%TO.N,SHIFT CLOCK*%
X114315000Y4715000D03*
%TO.P,U2,21,D32*%
%TO.N,LATCH*%
X116855000Y4715000D03*
%TO.P,U2,22,D33*%
%TO.N,OUT ENABLE*%
X119395000Y4715000D03*
%TO.P,U2,23,D25*%
%TO.N,SHIFT I{slash}O*%
X121935000Y4715000D03*
%TO.P,U2,24,D26*%
%TO.N,unconnected-(U2-Pad24)*%
X124475000Y4715000D03*
%TO.P,U2,25,D27*%
%TO.N,unconnected-(U2-Pad25)*%
X127015000Y4715000D03*
%TO.P,U2,26,D14*%
%TO.N,unconnected-(U2-Pad26)*%
X129555000Y4715000D03*
%TO.P,U2,27,D12*%
%TO.N,Net-(J9-Pad4)*%
X132095000Y4715000D03*
%TO.P,U2,28,D13*%
%TO.N,Net-(J9-Pad3)*%
X134635000Y4715000D03*
%TO.P,U2,29,GND*%
%TO.N,GND*%
X137175000Y4715000D03*
%TO.P,U2,30,VIN*%
%TO.N,+5V*%
X139715000Y4715000D03*
%TD*%
D17*
%TO.P,D25,2,A*%
%TO.N,+24V*%
X67325000Y30480000D03*
D16*
%TO.P,D25,1,K*%
%TO.N,Net-(D25-Pad1)*%
X59705000Y30480000D03*
%TD*%
D14*
%TO.P,J35,1,Pin_1*%
%TO.N,+24V*%
X105425000Y91440000D03*
D15*
%TO.P,J35,2,Pin_2*%
%TO.N,Net-(D26-Pad1)*%
X102885000Y91440000D03*
%TD*%
D16*
%TO.P,D8,1,K*%
%TO.N,Net-(D8-Pad1)*%
X85105000Y81280000D03*
D17*
%TO.P,D8,2,A*%
%TO.N,+24V*%
X92725000Y81280000D03*
%TD*%
%TO.P,D24,2,A*%
%TO.N,+24V*%
X67325000Y68580000D03*
D16*
%TO.P,D24,1,K*%
%TO.N,Net-(D24-Pad1)*%
X59705000Y68580000D03*
%TD*%
D17*
%TO.P,D21,2,A*%
%TO.N,+24V*%
X13985000Y68580000D03*
D16*
%TO.P,D21,1,K*%
%TO.N,Net-(D21-Pad1)*%
X6365000Y68580000D03*
%TD*%
D10*
%TO.P,R6,1*%
%TO.N,G# NOTE*%
X82565000Y86360000D03*
D11*
%TO.P,R6,2*%
%TO.N,Net-(Q6-Pad1)*%
X82565000Y93980000D03*
%TD*%
D15*
%TO.P,J24,2,Pin_2*%
%TO.N,Net-(D15-Pad1)*%
X6365000Y78740000D03*
D14*
%TO.P,J24,1,Pin_1*%
%TO.N,+24V*%
X8905000Y78740000D03*
%TD*%
D15*
%TO.P,J33,2,Pin_2*%
%TO.N,Net-(D24-Pad1)*%
X59705000Y66040000D03*
D14*
%TO.P,J33,1,Pin_1*%
%TO.N,+24V*%
X62245000Y66040000D03*
%TD*%
D17*
%TO.P,D9,2,A*%
%TO.N,+24V*%
X13985000Y93980000D03*
D16*
%TO.P,D9,1,K*%
%TO.N,Net-(D9-Pad1)*%
X6365000Y93980000D03*
%TD*%
D11*
%TO.P,R10,2*%
%TO.N,Net-(Q10-Pad1)*%
X39385000Y30480000D03*
D10*
%TO.P,R10,1*%
%TO.N,F#2 NOTE*%
X39385000Y22860000D03*
%TD*%
D17*
%TO.P,D27,2,A*%
%TO.N,+24V*%
X13985000Y55880000D03*
D16*
%TO.P,D27,1,K*%
%TO.N,Net-(D27-Pad1)*%
X6365000Y55880000D03*
%TD*%
D17*
%TO.P,D33,2,A*%
%TO.N,+24V*%
X67325000Y43180000D03*
D16*
%TO.P,D33,1,K*%
%TO.N,Net-(D33-Pad1)*%
X59705000Y43180000D03*
%TD*%
D13*
%TO.P,Q25,3,S*%
%TO.N,GND*%
X8905000Y71120000D03*
%TO.P,Q25,2,D*%
%TO.N,Net-(D21-Pad1)*%
X6365000Y71120000D03*
D12*
%TO.P,Q25,1,G*%
%TO.N,Net-(Q25-Pad1)*%
X3825000Y71120000D03*
%TD*%
D16*
%TO.P,D30,1,K*%
%TO.N,Net-(D30-Pad1)*%
X102885000Y81280000D03*
D17*
%TO.P,D30,2,A*%
%TO.N,+24V*%
X110505000Y81280000D03*
%TD*%
D14*
%TO.P,J23,1,Pin_1*%
%TO.N,+24V*%
X87645000Y66040000D03*
D15*
%TO.P,J23,2,Pin_2*%
%TO.N,Net-(D14-Pad1)*%
X85105000Y66040000D03*
%TD*%
D13*
%TO.P,Q32,3,S*%
%TO.N,GND*%
X44465000Y71120000D03*
%TO.P,Q32,2,D*%
%TO.N,Net-(D28-Pad1)*%
X41925000Y71120000D03*
D12*
%TO.P,Q32,1,G*%
%TO.N,Net-(Q32-Pad1)*%
X39385000Y71120000D03*
%TD*%
D15*
%TO.P,J15,2,Pin_2*%
%TO.N,Net-(D6-Pad1)*%
X41925000Y27940000D03*
D14*
%TO.P,J15,1,Pin_1*%
%TO.N,+24V*%
X44465000Y27940000D03*
%TD*%
D13*
%TO.P,Q19,3,S*%
%TO.N,GND*%
X8905000Y84080000D03*
%TO.P,Q19,2,D*%
%TO.N,Net-(D15-Pad1)*%
X6365000Y84080000D03*
D12*
%TO.P,Q19,1,G*%
%TO.N,Net-(Q19-Pad1)*%
X3825000Y84080000D03*
%TD*%
D13*
%TO.P,Q36,3,S*%
%TO.N,GND*%
X44465000Y45720000D03*
%TO.P,Q36,2,D*%
%TO.N,Net-(D32-Pad1)*%
X41925000Y45720000D03*
D12*
%TO.P,Q36,1,G*%
%TO.N,Net-(Q36-Pad1)*%
X39385000Y45720000D03*
%TD*%
D17*
%TO.P,D23,2,A*%
%TO.N,+24V*%
X49545000Y81605000D03*
D16*
%TO.P,D23,1,K*%
%TO.N,Net-(D23-Pad1)*%
X41925000Y81605000D03*
%TD*%
D13*
%TO.P,Q14,3,S*%
%TO.N,GND*%
X26685000Y71120000D03*
%TO.P,Q14,2,D*%
%TO.N,Net-(D10-Pad1)*%
X24145000Y71120000D03*
D12*
%TO.P,Q14,1,G*%
%TO.N,Net-(Q14-Pad1)*%
X21605000Y71120000D03*
%TD*%
D13*
%TO.P,Q16,3,S*%
%TO.N,GND*%
X62245000Y96520000D03*
%TO.P,Q16,2,D*%
%TO.N,Net-(D12-Pad1)*%
X59705000Y96520000D03*
D12*
%TO.P,Q16,1,G*%
%TO.N,Net-(Q16-Pad1)*%
X57165000Y96520000D03*
%TD*%
D17*
%TO.P,D10,2,A*%
%TO.N,+24V*%
X31765000Y68580000D03*
D16*
%TO.P,D10,1,K*%
%TO.N,Net-(D10-Pad1)*%
X24145000Y68580000D03*
%TD*%
D14*
%TO.P,J16,1,Pin_1*%
%TO.N,+24V*%
X105425000Y52070000D03*
D15*
%TO.P,J16,2,Pin_2*%
%TO.N,Net-(D7-Pad1)*%
X102885000Y52070000D03*
%TD*%
D12*
%TO.P,Q11,1,G*%
%TO.N,Net-(Q11-Pad1)*%
X100345000Y57150000D03*
D13*
%TO.P,Q11,2,D*%
%TO.N,Net-(D7-Pad1)*%
X102885000Y57150000D03*
%TO.P,Q11,3,S*%
%TO.N,GND*%
X105425000Y57150000D03*
%TD*%
D16*
%TO.P,D3,1,K*%
%TO.N,Net-(D3-Pad1)*%
X102885000Y68580000D03*
D17*
%TO.P,D3,2,A*%
%TO.N,+24V*%
X110505000Y68580000D03*
%TD*%
D13*
%TO.P,Q37,3,S*%
%TO.N,GND*%
X62245000Y45720000D03*
%TO.P,Q37,2,D*%
%TO.N,Net-(D33-Pad1)*%
X59705000Y45720000D03*
D12*
%TO.P,Q37,1,G*%
%TO.N,Net-(Q37-Pad1)*%
X57165000Y45720000D03*
%TD*%
D15*
%TO.P,J40,2,Pin_2*%
%TO.N,Net-(D31-Pad1)*%
X6365000Y40640000D03*
D14*
%TO.P,J40,1,Pin_1*%
%TO.N,+24V*%
X8905000Y40640000D03*
%TD*%
D15*
%TO.P,J41,2,Pin_2*%
%TO.N,Net-(D32-Pad1)*%
X41925000Y40640000D03*
D14*
%TO.P,J41,1,Pin_1*%
%TO.N,+24V*%
X44465000Y40640000D03*
%TD*%
D10*
%TO.P,R30,1*%
%TO.N,C NOTE*%
X100345000Y86360000D03*
D11*
%TO.P,R30,2*%
%TO.N,Net-(Q30-Pad1)*%
X100345000Y93980000D03*
%TD*%
D18*
%TO.P,U4,16,VCC*%
%TO.N,+5V*%
X21590000Y7635000D03*
%TO.P,U4,15,QA*%
%TO.N,D# NOTE*%
X19050000Y7635000D03*
%TO.P,U4,14,SER*%
%TO.N,Net-(U3-Pad9)*%
X16510000Y7635000D03*
%TO.P,U4,13,~{OE}*%
%TO.N,OUT ENABLE*%
X13970000Y7635000D03*
%TO.P,U4,12,RCLK*%
%TO.N,LATCH*%
X11430000Y7635000D03*
%TO.P,U4,11,SRCLK*%
%TO.N,SHIFT CLOCK*%
X8890000Y7635000D03*
%TO.P,U4,10,~{SRCLR}*%
%TO.N,SHIFT CLEAR*%
X6350000Y7635000D03*
%TO.P,U4,9,QH'*%
%TO.N,Net-(U4-Pad9)*%
X3810000Y7635000D03*
%TO.P,U4,8,GND*%
%TO.N,GND*%
X3810000Y15255000D03*
%TO.P,U4,7,QH*%
%TO.N,STRING 2*%
X6350000Y15255000D03*
%TO.P,U4,6,QG*%
%TO.N,A2 NOTE*%
X8890000Y15255000D03*
%TO.P,U4,5,QF*%
%TO.N,G#2 NOTE*%
X11430000Y15255000D03*
%TO.P,U4,4,QE*%
%TO.N,G NOTE*%
X13970000Y15255000D03*
%TO.P,U4,3,QD*%
%TO.N,F# NOTE*%
X16510000Y15255000D03*
%TO.P,U4,2,QC*%
%TO.N,F NOTE*%
X19050000Y15255000D03*
D19*
%TO.P,U4,1,QB*%
%TO.N,E NOTE*%
X21590000Y15255000D03*
%TD*%
D14*
%TO.P,J6,1,Pin_1*%
%TO.N,+5V*%
X124460000Y43180000D03*
D15*
%TO.P,J6,2,Pin_2*%
X121920000Y43180000D03*
%TO.P,J6,3,Pin_3*%
X119380000Y43180000D03*
%TD*%
D11*
%TO.P,R14,2*%
%TO.N,Net-(Q14-Pad1)*%
X21605000Y68580000D03*
D10*
%TO.P,R14,1*%
%TO.N,A2 NOTE*%
X21605000Y60960000D03*
%TD*%
D15*
%TO.P,J13,2,Pin_2*%
%TO.N,Net-(D4-Pad1)*%
X6365000Y27940000D03*
D14*
%TO.P,J13,1,Pin_1*%
%TO.N,+24V*%
X8905000Y27940000D03*
%TD*%
D25*
%TO.N,/Step*%
X85105000Y35560000D03*
%TO.N,GND*%
X90185000Y45720000D03*
%TO.N,*%
X142255000Y35560000D03*
%TO.N,+24V*%
X134635000Y69850000D03*
X139715000Y35560000D03*
X69230000Y27940000D03*
%TO.N,+5V*%
X69230000Y20320000D03*
X147335000Y35560000D03*
X147335000Y44450000D03*
X142255000Y17780000D03*
X147335000Y17780000D03*
X134635000Y44450000D03*
%TO.N,GND*%
X90185000Y58420000D03*
X52085000Y35560000D03*
X16525000Y86360000D03*
X63515000Y86360000D03*
X10175000Y60960000D03*
X16525000Y35560000D03*
X27955000Y73660000D03*
X135905000Y60960000D03*
X10175000Y73660000D03*
X52085000Y63500000D03*
X52085000Y73660000D03*
X27955000Y60960000D03*
X45735000Y86360000D03*
X63515000Y48260000D03*
X69230000Y22860000D03*
X27955000Y35560000D03*
X16525000Y60960000D03*
X63515000Y60960000D03*
X52085000Y60960000D03*
X64785000Y96520000D03*
X16525000Y91440000D03*
X107965000Y57150000D03*
X10175000Y35560000D03*
X11445000Y96520000D03*
X45735000Y48260000D03*
X16525000Y50800000D03*
X10175000Y48260000D03*
X16525000Y48260000D03*
X90185000Y83820000D03*
X45735000Y73660000D03*
X125745000Y72390000D03*
X16525000Y38100000D03*
X16525000Y88900000D03*
X140357500Y60960000D03*
X27955000Y48260000D03*
X52085000Y48260000D03*
X16525000Y83820000D03*
X52085000Y83820000D03*
X45735000Y35560000D03*
X52085000Y38100000D03*
X125745000Y69850000D03*
X90185000Y71120000D03*
X107965000Y83820000D03*
X16525000Y73660000D03*
X125745000Y88900000D03*
X47005000Y96520000D03*
X16525000Y76200000D03*
X90185000Y96520000D03*
X107965000Y96520000D03*
X52085000Y91440000D03*
X107965000Y71120000D03*
X142255000Y69850000D03*
X52085000Y86360000D03*
X95265000Y96520000D03*
X27955000Y86360000D03*
X52085000Y76200000D03*
X144795000Y35560000D03*
X29225000Y96520000D03*
X16525000Y63500000D03*
%TO.N,*%
X69230000Y25400000D03*
%TO.N,GND*%
X63515000Y73660000D03*
X45735000Y60960000D03*
X52085000Y88900000D03*
X63515000Y35560000D03*
X10175000Y86360000D03*
X52085000Y50800000D03*
%TO.N,/Motor 2*%
X115585000Y58420000D03*
X104155000Y38100000D03*
%TO.N,/Motor 1*%
X120665000Y58420000D03*
X109235000Y38100000D03*
%TO.N,/Motor 3*%
X118125000Y58420000D03*
X106695000Y38100000D03*
%TO.N,/Motor 4*%
X111775000Y38100000D03*
X123205000Y58420000D03*
%TO.N,G# NOTE*%
X85105000Y86360000D03*
X95265000Y22830000D03*
%TO.N,D NOTE*%
X102885000Y60960000D03*
X82565000Y12670000D03*
%TO.N,G#2 NOTE*%
X11430000Y17780000D03*
X6365000Y22860000D03*
%TO.N,C2 NOTE*%
X24145000Y73660000D03*
X41925000Y17780000D03*
%TO.N,F#2 NOTE*%
X67295000Y17780000D03*
X41925000Y22860000D03*
%TO.N,STRING 1*%
X102885000Y46990000D03*
X82565000Y10160000D03*
%TO.N,A NOTE*%
X82565000Y25370000D03*
X85105000Y73660000D03*
%TO.N,D# NOTE*%
X19065000Y5080000D03*
X6365000Y86360000D03*
%TO.N,A2 NOTE*%
X24145000Y60960000D03*
X8890000Y17780000D03*
%TO.N,C#2 NOTE*%
X39385000Y17780000D03*
X24145000Y86360000D03*
%TO.N,G2 NOTE*%
X64770000Y17780000D03*
X59705000Y86360000D03*
%TO.N,STRING 2*%
X6350000Y17780000D03*
X24145000Y48260000D03*
%TO.N,A# NOTE*%
X82565000Y22830000D03*
X85105000Y60960000D03*
%TO.N,E NOTE*%
X6365000Y73660000D03*
X21575000Y17780000D03*
%TO.N,A#2 NOTE*%
X41910000Y5080000D03*
X24145000Y35560000D03*
%TO.N,D2 NOTE*%
X36845000Y17780000D03*
X41925000Y86360000D03*
%TO.N,G#3 NOTE*%
X62230000Y17780000D03*
X59705000Y73660000D03*
%TO.N,STRING 3*%
X41925000Y48260000D03*
X29225000Y17780000D03*
%TO.N,B NOTE*%
X82565000Y20290000D03*
X85105000Y48260000D03*
%TO.N,F NOTE*%
X19050000Y17780000D03*
X6365000Y60960000D03*
%TO.N,B2 NOTE*%
X24145000Y22860000D03*
X44450000Y17780000D03*
%TO.N,D#2 NOTE*%
X41925000Y73660000D03*
X34305000Y17780000D03*
%TO.N,A3 NOTE*%
X59690000Y17780000D03*
X59705000Y60960000D03*
%TO.N,STRING 4*%
X52070000Y17780000D03*
X59705000Y22860000D03*
%TO.N,C NOTE*%
X82565000Y17750000D03*
X102885000Y86360000D03*
%TO.N,F# NOTE*%
X6365000Y48260000D03*
X16510000Y17780000D03*
%TO.N,E2 NOTE*%
X31765000Y17780000D03*
X41925000Y60960000D03*
%TO.N,A#3 NOTE*%
X59705000Y48260000D03*
X57150000Y17780000D03*
%TO.N,C# NOTE*%
X82565000Y15210000D03*
X102885000Y73660000D03*
%TO.N,G NOTE*%
X13970000Y17780000D03*
X6365000Y35560000D03*
%TO.N,F2 NOTE*%
X64785000Y5065000D03*
X41925000Y35560000D03*
%TO.N,B3 NOTE*%
X59705000Y35560000D03*
X54610000Y17780000D03*
%TO.N,SHIFT CLOCK*%
X31780000Y5065000D03*
X54640000Y5065000D03*
X8920000Y5080000D03*
X96505000Y12670000D03*
%TO.N,SHIFT CLEAR*%
X29240000Y5065000D03*
X6365000Y5080000D03*
X96505000Y10130000D03*
X52100000Y5065000D03*
%TO.N,OUT ENABLE*%
X96535000Y17750000D03*
X13955000Y5080000D03*
%TO.N,LATCH*%
X57180000Y5065000D03*
X96535000Y15210000D03*
X11445000Y5080000D03*
X34320000Y5065000D03*
%TO.N,Net-(U3-Pad9)*%
X96535000Y7620000D03*
X16525000Y5080000D03*
%TO.N,Net-(U4-Pad9)*%
X39385000Y5065000D03*
X3825000Y5080000D03*
%TO.N,Net-(U5-Pad9)*%
X26700000Y5065000D03*
X62245000Y5065000D03*
%TD*%
M02*
