M48
; DRILL file {KiCad (6.0.8)} date Mon Dec  5 13:38:53 2022
; FORMAT={-:-/ absolute / metric / decimal}
; #@! TF.CreationDate,2022-12-05T13:38:53-05:00
; #@! TF.GenerationSoftware,Kicad,Pcbnew,(6.0.8)
; #@! TF.FileFunction,Plated,1,2,PTH
FMAT,2
METRIC
; #@! TA.AperFunction,Plated,PTH,ComponentDrill
T1C0.800
; #@! TA.AperFunction,Plated,PTH,ViaDrill
T2C1.000
; #@! TA.AperFunction,Plated,PTH,ComponentDrill
T3C1.000
; #@! TA.AperFunction,Plated,PTH,ComponentDrill
T4C1.020
; #@! TA.AperFunction,Plated,PTH,ComponentDrill
T5C1.100
%
G90
G05
T1
X3.81Y-15.255
X3.81Y-7.635
X3.825Y-93.98
X3.825Y-86.36
X3.825Y-81.54
X3.825Y-73.92
X3.825Y-68.58
X3.825Y-60.96
X3.825Y-55.88
X3.825Y-48.26
X3.825Y-43.18
X3.825Y-35.56
X3.825Y-30.48
X3.825Y-22.86
X6.35Y-15.255
X6.35Y-7.635
X8.89Y-15.255
X8.89Y-7.635
X11.43Y-15.255
X11.43Y-7.635
X13.97Y-15.255
X13.97Y-7.635
X16.51Y-15.255
X16.51Y-7.635
X19.05Y-15.255
X19.05Y-7.635
X21.59Y-15.255
X21.59Y-7.635
X21.605Y-93.98
X21.605Y-86.36
X21.605Y-81.28
X21.605Y-73.66
X21.605Y-68.58
X21.605Y-60.96
X21.605Y-55.88
X21.605Y-48.26
X21.605Y-43.18
X21.605Y-35.56
X21.605Y-30.48
X21.605Y-22.86
X26.67Y-15.255
X26.67Y-7.635
X29.21Y-15.255
X29.21Y-7.635
X31.75Y-15.255
X31.75Y-7.635
X34.29Y-15.255
X34.29Y-7.635
X36.83Y-15.255
X36.83Y-7.635
X39.37Y-15.255
X39.37Y-7.635
X39.385Y-93.98
X39.385Y-86.36
X39.385Y-81.605
X39.385Y-73.985
X39.385Y-68.58
X39.385Y-60.96
X39.385Y-55.88
X39.385Y-48.26
X39.385Y-43.18
X39.385Y-35.56
X39.385Y-30.48
X39.385Y-22.86
X41.91Y-15.255
X41.91Y-7.635
X44.45Y-15.255
X44.45Y-7.635
X49.53Y-15.255
X49.53Y-7.635
X52.07Y-15.255
X52.07Y-7.635
X54.61Y-15.255
X54.61Y-7.635
X57.15Y-15.255
X57.15Y-7.635
X57.165Y-93.98
X57.165Y-86.36
X57.165Y-81.28
X57.165Y-73.66
X57.165Y-68.58
X57.165Y-60.96
X57.165Y-55.88
X57.165Y-48.26
X57.165Y-43.18
X57.165Y-35.56
X57.165Y-30.48
X57.165Y-22.86
X59.69Y-15.255
X59.69Y-7.635
X62.23Y-15.255
X62.23Y-7.635
X64.77Y-15.255
X64.77Y-7.635
X67.31Y-15.255
X67.31Y-7.635
X82.565Y-93.98
X82.565Y-86.36
X82.565Y-81.28
X82.565Y-73.66
X82.565Y-68.58
X82.565Y-60.96
X82.565Y-55.88
X82.565Y-48.26
X82.565Y-43.18
X82.565Y-35.56
X85.09Y-25.385
X85.09Y-22.845
X85.09Y-20.305
X85.09Y-17.765
X85.09Y-15.225
X85.09Y-12.685
X85.09Y-10.145
X85.09Y-7.605
X92.71Y-25.385
X92.71Y-22.845
X92.71Y-20.305
X92.71Y-17.765
X92.71Y-15.225
X92.71Y-12.685
X92.71Y-10.145
X92.71Y-7.605
X100.345Y-93.98
X100.345Y-86.36
X100.345Y-81.28
X100.345Y-73.66
X100.345Y-68.58
X100.345Y-60.96
X100.345Y-54.61
X100.345Y-46.99
X116.855Y-48.25
X116.855Y-35.55
X118.125Y-91.44
X118.125Y-74.93
X119.395Y-48.25
X119.395Y-35.55
X121.935Y-48.25
X121.935Y-35.55
X124.475Y-48.25
X124.475Y-35.55
X125.745Y-91.44
X125.745Y-74.93
X127.015Y-48.25
X127.015Y-35.55
X129.555Y-48.25
X129.555Y-35.55
X132.095Y-48.25
X132.095Y-35.55
X134.635Y-91.44
X134.635Y-74.93
X134.635Y-48.25
X134.635Y-35.55
X142.255Y-91.44
X142.255Y-74.93
T2
X3.825Y-5.08
X6.35Y-17.78
X6.365Y-86.36
X6.365Y-73.66
X6.365Y-60.96
X6.365Y-48.26
X6.365Y-35.56
X6.365Y-22.86
X6.365Y-5.08
X8.89Y-17.78
X8.92Y-5.08
X10.175Y-86.36
X10.175Y-73.66
X10.175Y-60.96
X10.175Y-48.26
X10.175Y-35.56
X11.43Y-17.78
X11.445Y-96.52
X11.445Y-5.08
X13.955Y-5.08
X13.97Y-17.78
X16.51Y-17.78
X16.525Y-91.44
X16.525Y-88.9
X16.525Y-86.36
X16.525Y-83.82
X16.525Y-76.2
X16.525Y-73.66
X16.525Y-63.5
X16.525Y-60.96
X16.525Y-50.8
X16.525Y-48.26
X16.525Y-38.1
X16.525Y-35.56
X16.525Y-5.08
X19.05Y-17.78
X19.065Y-5.08
X21.575Y-17.78
X24.145Y-86.36
X24.145Y-73.66
X24.145Y-60.96
X24.145Y-48.26
X24.145Y-35.56
X24.145Y-22.86
X26.7Y-5.065
X27.955Y-86.36
X27.955Y-73.66
X27.955Y-60.96
X27.955Y-48.26
X27.955Y-35.56
X29.225Y-96.52
X29.225Y-17.78
X29.24Y-5.065
X31.765Y-17.78
X31.78Y-5.065
X34.305Y-17.78
X34.32Y-5.065
X36.845Y-17.78
X39.385Y-17.78
X39.385Y-5.065
X41.91Y-5.08
X41.925Y-86.36
X41.925Y-73.66
X41.925Y-60.96
X41.925Y-48.26
X41.925Y-35.56
X41.925Y-22.86
X41.925Y-17.78
X44.45Y-17.78
X45.735Y-86.36
X45.735Y-73.66
X45.735Y-60.96
X45.735Y-48.26
X45.735Y-35.56
X47.005Y-96.52
X52.07Y-17.78
X52.085Y-91.44
X52.085Y-88.9
X52.085Y-86.36
X52.085Y-83.82
X52.085Y-76.2
X52.085Y-73.66
X52.085Y-63.5
X52.085Y-60.96
X52.085Y-50.8
X52.085Y-48.26
X52.085Y-38.1
X52.085Y-35.56
X52.1Y-5.065
X54.61Y-17.78
X54.64Y-5.065
X57.15Y-17.78
X57.18Y-5.065
X59.69Y-17.78
X59.705Y-86.36
X59.705Y-73.66
X59.705Y-60.96
X59.705Y-48.26
X59.705Y-35.56
X59.705Y-22.86
X62.23Y-17.78
X62.245Y-5.065
X63.515Y-86.36
X63.515Y-73.66
X63.515Y-60.96
X63.515Y-48.26
X63.515Y-35.56
X64.77Y-17.78
X64.785Y-96.52
X64.785Y-5.065
X67.295Y-17.78
X69.23Y-27.94
X69.23Y-25.4
X69.23Y-22.86
X69.23Y-20.32
X82.565Y-25.37
X82.565Y-22.83
X82.565Y-20.29
X82.565Y-17.75
X82.565Y-15.21
X82.565Y-12.67
X82.565Y-10.16
X85.105Y-86.36
X85.105Y-73.66
X85.105Y-60.96
X85.105Y-48.26
X85.105Y-35.56
X90.185Y-96.52
X90.185Y-83.82
X90.185Y-71.12
X90.185Y-58.42
X90.185Y-45.72
X95.265Y-96.52
X95.265Y-22.83
X96.505Y-12.67
X96.505Y-10.13
X96.535Y-17.75
X96.535Y-15.21
X96.535Y-7.62
X102.885Y-86.36
X102.885Y-73.66
X102.885Y-60.96
X102.885Y-46.99
X104.155Y-38.1
X106.695Y-38.1
X107.965Y-96.52
X107.965Y-83.82
X107.965Y-71.12
X107.965Y-57.15
X109.235Y-38.1
X111.775Y-38.1
X115.585Y-58.42
X118.125Y-58.42
X120.665Y-58.42
X123.205Y-58.42
X125.745Y-88.9
X125.745Y-72.39
X125.745Y-69.85
X134.635Y-69.85
X134.635Y-44.45
X135.905Y-60.96
X139.715Y-35.56
X140.357Y-60.96
X142.255Y-69.85
X142.255Y-35.56
X142.255Y-17.78
X144.795Y-35.56
X147.335Y-44.45
X147.335Y-35.56
X147.335Y-17.78
T3
X6.365Y-91.44
X6.365Y-78.74
X6.365Y-66.04
X6.365Y-53.34
X6.365Y-40.64
X6.365Y-27.94
X8.905Y-91.44
X8.905Y-78.74
X8.905Y-66.04
X8.905Y-53.34
X8.905Y-40.64
X8.905Y-27.94
X24.145Y-91.44
X24.145Y-78.74
X24.145Y-66.04
X24.145Y-53.34
X24.145Y-40.64
X24.145Y-27.94
X26.685Y-91.44
X26.685Y-78.74
X26.685Y-66.04
X26.685Y-53.34
X26.685Y-40.64
X26.685Y-27.94
X41.925Y-91.44
X41.925Y-79.065
X41.925Y-66.04
X41.925Y-53.34
X41.925Y-40.64
X41.925Y-27.94
X44.465Y-91.44
X44.465Y-79.065
X44.465Y-66.04
X44.465Y-53.34
X44.465Y-40.64
X44.465Y-27.94
X59.705Y-91.44
X59.705Y-78.74
X59.705Y-66.04
X59.705Y-53.34
X59.705Y-40.64
X59.705Y-27.94
X62.245Y-91.44
X62.245Y-78.74
X62.245Y-66.04
X62.245Y-53.34
X62.245Y-40.64
X62.245Y-27.94
X85.105Y-91.44
X85.105Y-78.74
X85.105Y-66.04
X85.105Y-53.34
X85.105Y-40.64
X87.645Y-91.44
X87.645Y-78.74
X87.645Y-66.04
X87.645Y-53.34
X87.645Y-40.64
X102.885Y-91.44
X102.885Y-78.74
X102.885Y-66.04
X102.885Y-52.07
X105.425Y-91.44
X105.425Y-78.74
X105.425Y-66.04
X105.425Y-52.07
X118.125Y-88.9
X118.125Y-72.39
X119.38Y-43.18
X119.38Y-40.64
X120.665Y-88.9
X120.665Y-72.39
X121.92Y-43.18
X121.92Y-40.64
X121.925Y-50.8
X124.46Y-43.18
X124.46Y-40.64
X124.465Y-50.8
X127.005Y-50.8
X129.545Y-50.8
X132.085Y-2.54
X134.625Y-2.54
X134.635Y-88.9
X134.635Y-72.39
X137.165Y-2.54
X137.175Y-88.9
X137.175Y-72.39
X139.705Y-2.54
X142.255Y-53.355
X142.255Y-50.815
X142.255Y-48.275
T4
X104.155Y-30.115
X104.155Y-4.715
X106.695Y-30.115
X106.695Y-4.715
X109.235Y-30.115
X109.235Y-4.715
X111.775Y-30.115
X111.775Y-4.715
X114.315Y-30.115
X114.315Y-4.715
X116.855Y-30.115
X116.855Y-4.715
X119.395Y-30.115
X119.395Y-4.715
X121.935Y-30.115
X121.935Y-4.715
X124.475Y-30.115
X124.475Y-4.715
X127.015Y-30.115
X127.015Y-4.715
X129.555Y-30.115
X129.555Y-4.715
X132.095Y-30.115
X132.095Y-4.715
X134.635Y-30.115
X134.635Y-4.715
X137.175Y-30.115
X137.175Y-4.715
X139.715Y-30.115
X139.715Y-4.715
T5
X3.825Y-96.52
X3.825Y-84.08
X3.825Y-71.12
X3.825Y-58.42
X3.825Y-45.72
X3.825Y-33.02
X6.365Y-96.52
X6.365Y-93.98
X6.365Y-84.08
X6.365Y-81.28
X6.365Y-71.12
X6.365Y-68.58
X6.365Y-58.42
X6.365Y-55.88
X6.365Y-45.72
X6.365Y-43.18
X6.365Y-33.02
X6.365Y-30.48
X8.905Y-96.52
X8.905Y-84.08
X8.905Y-71.12
X8.905Y-58.42
X8.905Y-45.72
X8.905Y-33.02
X13.985Y-93.98
X13.985Y-81.28
X13.985Y-68.58
X13.985Y-55.88
X13.985Y-43.18
X13.985Y-30.48
X21.605Y-96.52
X21.605Y-83.82
X21.605Y-71.12
X21.605Y-58.42
X21.605Y-45.72
X21.605Y-33.02
X24.145Y-96.52
X24.145Y-93.98
X24.145Y-83.82
X24.145Y-81.28
X24.145Y-71.12
X24.145Y-68.58
X24.145Y-58.42
X24.145Y-55.88
X24.145Y-45.72
X24.145Y-43.18
X24.145Y-33.02
X24.145Y-30.48
X26.685Y-96.52
X26.685Y-83.82
X26.685Y-71.12
X26.685Y-58.42
X26.685Y-45.72
X26.685Y-33.02
X31.765Y-93.98
X31.765Y-81.28
X31.765Y-68.58
X31.765Y-55.88
X31.765Y-43.18
X31.765Y-30.48
X39.385Y-96.52
X39.385Y-84.145
X39.385Y-71.12
X39.385Y-58.42
X39.385Y-45.72
X39.385Y-33.02
X41.925Y-96.52
X41.925Y-93.98
X41.925Y-84.145
X41.925Y-81.605
X41.925Y-71.12
X41.925Y-68.58
X41.925Y-58.42
X41.925Y-55.88
X41.925Y-45.72
X41.925Y-43.18
X41.925Y-33.02
X41.925Y-30.48
X44.465Y-96.52
X44.465Y-84.145
X44.465Y-71.12
X44.465Y-58.42
X44.465Y-45.72
X44.465Y-33.02
X49.545Y-93.98
X49.545Y-81.605
X49.545Y-68.58
X49.545Y-55.88
X49.545Y-43.18
X49.545Y-30.48
X57.165Y-96.52
X57.165Y-83.82
X57.165Y-71.12
X57.165Y-58.42
X57.165Y-45.72
X57.165Y-33.02
X59.705Y-96.52
X59.705Y-93.98
X59.705Y-83.82
X59.705Y-81.28
X59.705Y-71.12
X59.705Y-68.58
X59.705Y-58.42
X59.705Y-55.88
X59.705Y-45.72
X59.705Y-43.18
X59.705Y-33.02
X59.705Y-30.48
X62.245Y-96.52
X62.245Y-83.82
X62.245Y-71.12
X62.245Y-58.42
X62.245Y-45.72
X62.245Y-33.02
X67.325Y-93.98
X67.325Y-81.28
X67.325Y-68.58
X67.325Y-55.88
X67.325Y-43.18
X67.325Y-30.48
X82.565Y-96.52
X82.565Y-83.82
X82.565Y-71.12
X82.565Y-58.42
X82.565Y-45.72
X85.105Y-96.52
X85.105Y-93.98
X85.105Y-83.82
X85.105Y-81.28
X85.105Y-71.12
X85.105Y-68.58
X85.105Y-58.42
X85.105Y-55.88
X85.105Y-45.72
X85.105Y-43.18
X87.645Y-96.52
X87.645Y-83.82
X87.645Y-71.12
X87.645Y-58.42
X87.645Y-45.72
X92.725Y-93.98
X92.725Y-81.28
X92.725Y-68.58
X92.725Y-55.88
X92.725Y-43.18
X100.345Y-96.52
X100.345Y-83.82
X100.345Y-71.12
X100.345Y-57.15
X102.885Y-96.52
X102.885Y-93.98
X102.885Y-83.82
X102.885Y-81.28
X102.885Y-71.12
X102.885Y-68.58
X102.885Y-57.15
X102.885Y-54.61
X105.425Y-96.52
X105.425Y-83.82
X105.425Y-71.12
X105.425Y-57.15
X110.505Y-93.98
X110.505Y-81.28
X110.505Y-68.58
X110.505Y-54.61
X118.125Y-93.98
X118.125Y-77.47
X120.665Y-93.98
X120.665Y-77.47
X123.205Y-93.98
X123.205Y-77.47
X134.635Y-93.98
X134.635Y-77.47
X137.175Y-93.98
X137.175Y-77.47
X139.715Y-93.98
X139.715Y-77.47
X142.255Y-39.37
X144.795Y-39.37
X147.335Y-39.37
T0
M30
