%TF.GenerationSoftware,KiCad,Pcbnew,(6.0.8)*%
%TF.CreationDate,2022-12-05T17:36:04-05:00*%
%TF.ProjectId,MIDIViolina,4d494449-5669-46f6-9c69-6e612e6b6963,1.00*%
%TF.SameCoordinates,PX42998f8PY853a720*%
%TF.FileFunction,Soldermask,Top*%
%TF.FilePolarity,Negative*%
%FSLAX46Y46*%
G04 Gerber Fmt 4.6, Leading zero omitted, Abs format (unit mm)*
G04 Created by KiCad (PCBNEW (6.0.8)) date 2022-12-05 17:36:04*
%MOMM*%
%LPD*%
G01*
G04 APERTURE LIST*
%ADD10C,1.600000*%
%ADD11O,1.600000X1.600000*%
%ADD12R,1.905000X2.000000*%
%ADD13O,1.905000X2.000000*%
%ADD14R,1.700000X1.700000*%
%ADD15O,1.700000X1.700000*%
%ADD16R,2.200000X2.200000*%
%ADD17O,2.200000X2.200000*%
%ADD18O,1.600000X2.400000*%
%ADD19R,1.600000X2.400000*%
%ADD20R,1.600000X1.600000*%
%ADD21R,2.400000X1.600000*%
%ADD22O,2.400000X1.600000*%
%ADD23R,2.000000X2.000000*%
%ADD24C,2.000000*%
G04 APERTURE END LIST*
D10*
%TO.C,R5*%
X81295000Y34290000D03*
D11*
X81295000Y41910000D03*
%TD*%
D12*
%TO.C,Q5*%
X81295000Y44450000D03*
D13*
X83835000Y44450000D03*
X86375000Y44450000D03*
%TD*%
D14*
%TO.C,J7*%
X86375000Y39370000D03*
D15*
X83835000Y39370000D03*
%TD*%
D16*
%TO.C,D1*%
X83835000Y41910000D03*
D17*
X91455000Y41910000D03*
%TD*%
D18*
%TO.C,U6*%
X66040000Y6365000D03*
X63500000Y6365000D03*
X60960000Y6365000D03*
X58420000Y6365000D03*
X55880000Y6365000D03*
X53340000Y6365000D03*
X50800000Y6365000D03*
X48260000Y6365000D03*
X48260000Y13985000D03*
X50800000Y13985000D03*
X53340000Y13985000D03*
X55880000Y13985000D03*
X58420000Y13985000D03*
X60960000Y13985000D03*
X63500000Y13985000D03*
D19*
X66040000Y13985000D03*
%TD*%
D12*
%TO.C,U1*%
X140985000Y39370000D03*
D13*
X143525000Y39370000D03*
X146065000Y39370000D03*
%TD*%
D17*
%TO.C,D20*%
X91455000Y54610000D03*
D16*
X83835000Y54610000D03*
%TD*%
D13*
%TO.C,Q9*%
X25415000Y82550000D03*
X22875000Y82550000D03*
D12*
X20335000Y82550000D03*
%TD*%
D17*
%TO.C,D19*%
X48275000Y54610000D03*
D16*
X40655000Y54610000D03*
%TD*%
D17*
%TO.C,D31*%
X12715000Y41910000D03*
D16*
X5095000Y41910000D03*
%TD*%
D11*
%TO.C,R20*%
X20335000Y41910000D03*
D10*
X20335000Y34290000D03*
%TD*%
D13*
%TO.C,Q33*%
X60975000Y57150000D03*
X58435000Y57150000D03*
D12*
X55895000Y57150000D03*
%TD*%
D17*
%TO.C,D11*%
X30495000Y92710000D03*
D16*
X22875000Y92710000D03*
%TD*%
D10*
%TO.C,R12*%
X81295000Y72390000D03*
D11*
X81295000Y80010000D03*
%TD*%
D10*
%TO.C,R1*%
X140985000Y90170000D03*
D11*
X133365000Y90170000D03*
%TD*%
D15*
%TO.C,J28*%
X40655000Y52070000D03*
D14*
X43195000Y52070000D03*
%TD*%
%TO.C,J9*%
X138435000Y2540000D03*
D15*
X135895000Y2540000D03*
X133355000Y2540000D03*
X130815000Y2540000D03*
%TD*%
%TO.C,J36*%
X5095000Y52070000D03*
D14*
X7635000Y52070000D03*
%TD*%
D12*
%TO.C,Q2*%
X133365000Y77470000D03*
D13*
X135905000Y77470000D03*
X138445000Y77470000D03*
%TD*%
%TO.C,Q15*%
X25415000Y95250000D03*
X22875000Y95250000D03*
D12*
X20335000Y95250000D03*
%TD*%
%TO.C,Q7*%
X99075000Y69850000D03*
D13*
X101615000Y69850000D03*
X104155000Y69850000D03*
%TD*%
D20*
%TO.C,A1*%
X133365000Y48250000D03*
D11*
X130825000Y48250000D03*
X128285000Y48250000D03*
X125745000Y48250000D03*
X123205000Y48250000D03*
X120665000Y48250000D03*
X118125000Y48250000D03*
X115585000Y48250000D03*
X115585000Y35550000D03*
X118125000Y35550000D03*
X120665000Y35550000D03*
X123205000Y35550000D03*
X125745000Y35550000D03*
X128285000Y35550000D03*
X130825000Y35550000D03*
X133365000Y35550000D03*
%TD*%
D16*
%TO.C,D2*%
X83835000Y92710000D03*
D17*
X91455000Y92710000D03*
%TD*%
D12*
%TO.C,Q12*%
X81295000Y82550000D03*
D13*
X83835000Y82550000D03*
X86375000Y82550000D03*
%TD*%
%TO.C,Q24*%
X86375000Y57150000D03*
X83835000Y57150000D03*
D12*
X81295000Y57150000D03*
%TD*%
D13*
%TO.C,Q10*%
X43195000Y31750000D03*
X40655000Y31750000D03*
D12*
X38115000Y31750000D03*
%TD*%
D11*
%TO.C,R17*%
X20335000Y54610000D03*
D10*
X20335000Y46990000D03*
%TD*%
D13*
%TO.C,Q23*%
X43195000Y57150000D03*
X40655000Y57150000D03*
D12*
X38115000Y57150000D03*
%TD*%
D13*
%TO.C,Q13*%
X7635000Y95250000D03*
X5095000Y95250000D03*
D12*
X2555000Y95250000D03*
%TD*%
D17*
%TO.C,D18*%
X66055000Y80010000D03*
D16*
X58435000Y80010000D03*
%TD*%
D15*
%TO.C,J27*%
X58435000Y77470000D03*
D14*
X60975000Y77470000D03*
%TD*%
D17*
%TO.C,D4*%
X12715000Y29210000D03*
D16*
X5095000Y29210000D03*
%TD*%
D11*
%TO.C,R8*%
X2555000Y29210000D03*
D10*
X2555000Y21590000D03*
%TD*%
D12*
%TO.C,Q1*%
X133365000Y92710000D03*
D13*
X135905000Y92710000D03*
X138445000Y92710000D03*
%TD*%
D14*
%TO.C,J3*%
X116855000Y72390000D03*
D15*
X119395000Y72390000D03*
%TD*%
D17*
%TO.C,D28*%
X48275000Y67310000D03*
D16*
X40655000Y67310000D03*
%TD*%
D13*
%TO.C,Q20*%
X25415000Y44450000D03*
X22875000Y44450000D03*
D12*
X20335000Y44450000D03*
%TD*%
D11*
%TO.C,R9*%
X20335000Y80010000D03*
D10*
X20335000Y72390000D03*
%TD*%
D11*
%TO.C,R37*%
X55895000Y41910000D03*
D10*
X55895000Y34290000D03*
%TD*%
%TO.C,R7*%
X99075000Y59690000D03*
D11*
X99075000Y67310000D03*
%TD*%
D14*
%TO.C,J17*%
X86375000Y77470000D03*
D15*
X83835000Y77470000D03*
%TD*%
D11*
%TO.C,R32*%
X38115000Y67310000D03*
D10*
X38115000Y59690000D03*
%TD*%
D14*
%TO.C,J5*%
X140985000Y48275000D03*
D15*
X140985000Y50815000D03*
X140985000Y53355000D03*
%TD*%
D14*
%TO.C,J12*%
X104155000Y64770000D03*
D15*
X101615000Y64770000D03*
%TD*%
D11*
%TO.C,R16*%
X55895000Y92710000D03*
D10*
X55895000Y85090000D03*
%TD*%
D17*
%TO.C,D17*%
X48275000Y92710000D03*
D16*
X40655000Y92710000D03*
%TD*%
D12*
%TO.C,Q18*%
X81295000Y69850000D03*
D13*
X83835000Y69850000D03*
X86375000Y69850000D03*
%TD*%
D15*
%TO.C,J20*%
X22875000Y90170000D03*
D14*
X25415000Y90170000D03*
%TD*%
D15*
%TO.C,J25*%
X22875000Y39370000D03*
D14*
X25415000Y39370000D03*
%TD*%
D11*
%TO.C,R25*%
X2555000Y67310000D03*
D10*
X2555000Y59690000D03*
%TD*%
D12*
%TO.C,Q34*%
X99075000Y82550000D03*
D13*
X101615000Y82550000D03*
X104155000Y82550000D03*
%TD*%
D15*
%TO.C,J29*%
X83835000Y52070000D03*
D14*
X86375000Y52070000D03*
%TD*%
D15*
%TO.C,J34*%
X58435000Y26670000D03*
D14*
X60975000Y26670000D03*
%TD*%
D17*
%TO.C,D22*%
X30495000Y29210000D03*
D16*
X22875000Y29210000D03*
%TD*%
D15*
%TO.C,J38*%
X58435000Y52070000D03*
D14*
X60975000Y52070000D03*
%TD*%
D11*
%TO.C,R15*%
X20335000Y92710000D03*
D10*
X20335000Y85090000D03*
%TD*%
D13*
%TO.C,Q29*%
X60975000Y31750000D03*
X58435000Y31750000D03*
D12*
X55895000Y31750000D03*
%TD*%
D15*
%TO.C,J31*%
X22875000Y26670000D03*
D14*
X25415000Y26670000D03*
%TD*%
D17*
%TO.C,D15*%
X12715000Y80010000D03*
D16*
X5095000Y80010000D03*
%TD*%
D13*
%TO.C,Q8*%
X7635000Y31750000D03*
X5095000Y31750000D03*
D12*
X2555000Y31750000D03*
%TD*%
D14*
%TO.C,J2*%
X133365000Y72390000D03*
D15*
X135905000Y72390000D03*
%TD*%
D10*
%TO.C,R4*%
X124475000Y90170000D03*
D11*
X116855000Y90170000D03*
%TD*%
D13*
%TO.C,Q21*%
X43195000Y95250000D03*
X40655000Y95250000D03*
D12*
X38115000Y95250000D03*
%TD*%
D11*
%TO.C,R31*%
X2555000Y54610000D03*
D10*
X2555000Y46990000D03*
%TD*%
D17*
%TO.C,D5*%
X30495000Y80010000D03*
D16*
X22875000Y80010000D03*
%TD*%
D11*
%TO.C,R24*%
X81295000Y54610000D03*
D10*
X81295000Y46990000D03*
%TD*%
D14*
%TO.C,J4*%
X116855000Y87630000D03*
D15*
X119395000Y87630000D03*
%TD*%
D14*
%TO.C,J1*%
X133365000Y87630000D03*
D15*
X135905000Y87630000D03*
%TD*%
D11*
%TO.C,R27*%
X38115000Y80335000D03*
D10*
X38115000Y72715000D03*
%TD*%
D15*
%TO.C,J42*%
X58435000Y39370000D03*
D14*
X60975000Y39370000D03*
%TD*%
D10*
%TO.C,R34*%
X99075000Y72390000D03*
D11*
X99075000Y80010000D03*
%TD*%
D15*
%TO.C,J14*%
X22875000Y77470000D03*
D14*
X25415000Y77470000D03*
%TD*%
D16*
%TO.C,D7*%
X101615000Y53340000D03*
D17*
X109235000Y53340000D03*
%TD*%
D15*
%TO.C,J19*%
X22875000Y64770000D03*
D14*
X25415000Y64770000D03*
%TD*%
D11*
%TO.C,R33*%
X55895000Y54610000D03*
D10*
X55895000Y46990000D03*
%TD*%
D11*
%TO.C,R36*%
X38115000Y41910000D03*
D10*
X38115000Y34290000D03*
%TD*%
D11*
%TO.C,R28*%
X55895000Y67310000D03*
D10*
X55895000Y59690000D03*
%TD*%
%TO.C,R11*%
X99075000Y45720000D03*
D11*
X99075000Y53340000D03*
%TD*%
%TO.C,R19*%
X2555000Y80270000D03*
D10*
X2555000Y72650000D03*
%TD*%
D15*
%TO.C,J21*%
X58435000Y90170000D03*
D14*
X60975000Y90170000D03*
%TD*%
D13*
%TO.C,Q31*%
X7635000Y57150000D03*
X5095000Y57150000D03*
D12*
X2555000Y57150000D03*
%TD*%
D11*
%TO.C,R23*%
X38115000Y54610000D03*
D10*
X38115000Y46990000D03*
%TD*%
D14*
%TO.C,J39*%
X104155000Y77470000D03*
D15*
X101615000Y77470000D03*
%TD*%
D10*
%TO.C,R3*%
X124475000Y74930000D03*
D11*
X116855000Y74930000D03*
%TD*%
D15*
%TO.C,J26*%
X40655000Y90170000D03*
D14*
X43195000Y90170000D03*
%TD*%
D15*
%TO.C,J32*%
X40655000Y77795000D03*
D14*
X43195000Y77795000D03*
%TD*%
D12*
%TO.C,Q3*%
X116855000Y77470000D03*
D13*
X119395000Y77470000D03*
X121935000Y77470000D03*
%TD*%
D15*
%TO.C,J22*%
X22875000Y52070000D03*
D14*
X25415000Y52070000D03*
%TD*%
D21*
%TO.C,U3*%
X83820000Y25385000D03*
D22*
X83820000Y22845000D03*
X83820000Y20305000D03*
X83820000Y17765000D03*
X83820000Y15225000D03*
X83820000Y12685000D03*
X83820000Y10145000D03*
X83820000Y7605000D03*
X91440000Y7605000D03*
X91440000Y10145000D03*
X91440000Y12685000D03*
X91440000Y15225000D03*
X91440000Y17765000D03*
X91440000Y20305000D03*
X91440000Y22845000D03*
X91440000Y25385000D03*
%TD*%
D17*
%TO.C,D13*%
X30495000Y54610000D03*
D16*
X22875000Y54610000D03*
%TD*%
D13*
%TO.C,Q17*%
X25415000Y57150000D03*
X22875000Y57150000D03*
D12*
X20335000Y57150000D03*
%TD*%
%TO.C,Q4*%
X116855000Y92710000D03*
D13*
X119395000Y92710000D03*
X121935000Y92710000D03*
%TD*%
D12*
%TO.C,Q30*%
X99075000Y95250000D03*
D13*
X101615000Y95250000D03*
X104155000Y95250000D03*
%TD*%
D16*
%TO.C,D26*%
X101615000Y92710000D03*
D17*
X109235000Y92710000D03*
%TD*%
D18*
%TO.C,U5*%
X43180000Y6365000D03*
X40640000Y6365000D03*
X38100000Y6365000D03*
X35560000Y6365000D03*
X33020000Y6365000D03*
X30480000Y6365000D03*
X27940000Y6365000D03*
X25400000Y6365000D03*
X25400000Y13985000D03*
X27940000Y13985000D03*
X30480000Y13985000D03*
X33020000Y13985000D03*
X35560000Y13985000D03*
X38100000Y13985000D03*
X40640000Y13985000D03*
D19*
X43180000Y13985000D03*
%TD*%
D14*
%TO.C,J11*%
X86375000Y90170000D03*
D15*
X83835000Y90170000D03*
%TD*%
D17*
%TO.C,D32*%
X48275000Y41910000D03*
D16*
X40655000Y41910000D03*
%TD*%
D11*
%TO.C,R21*%
X38115000Y92710000D03*
D10*
X38115000Y85090000D03*
%TD*%
D13*
%TO.C,Q27*%
X43195000Y82875000D03*
X40655000Y82875000D03*
D12*
X38115000Y82875000D03*
%TD*%
D17*
%TO.C,D16*%
X30495000Y41910000D03*
D16*
X22875000Y41910000D03*
%TD*%
D13*
%TO.C,Q35*%
X7635000Y44450000D03*
X5095000Y44450000D03*
D12*
X2555000Y44450000D03*
%TD*%
D13*
%TO.C,Q22*%
X60975000Y82550000D03*
X58435000Y82550000D03*
D12*
X55895000Y82550000D03*
%TD*%
D11*
%TO.C,R35*%
X2555000Y41910000D03*
D10*
X2555000Y34290000D03*
%TD*%
D15*
%TO.C,J30*%
X5095000Y64770000D03*
D14*
X7635000Y64770000D03*
%TD*%
D15*
%TO.C,J37*%
X40655000Y64770000D03*
D14*
X43195000Y64770000D03*
%TD*%
D11*
%TO.C,R26*%
X20335000Y29210000D03*
D10*
X20335000Y21590000D03*
%TD*%
D13*
%TO.C,Q26*%
X25415000Y31750000D03*
X22875000Y31750000D03*
D12*
X20335000Y31750000D03*
%TD*%
D17*
%TO.C,D6*%
X48275000Y29210000D03*
D16*
X40655000Y29210000D03*
%TD*%
D11*
%TO.C,R13*%
X2555000Y92710000D03*
D10*
X2555000Y85090000D03*
%TD*%
D12*
%TO.C,Q6*%
X81295000Y95250000D03*
D13*
X83835000Y95250000D03*
X86375000Y95250000D03*
%TD*%
D16*
%TO.C,D14*%
X83835000Y67310000D03*
D17*
X91455000Y67310000D03*
%TD*%
D11*
%TO.C,R29*%
X55895000Y29210000D03*
D10*
X55895000Y21590000D03*
%TD*%
D15*
%TO.C,J18*%
X5095000Y90170000D03*
D14*
X7635000Y90170000D03*
%TD*%
D17*
%TO.C,D29*%
X66055000Y54610000D03*
D16*
X58435000Y54610000D03*
%TD*%
D14*
%TO.C,J10*%
X128275000Y50800000D03*
D15*
X125735000Y50800000D03*
X123195000Y50800000D03*
X120655000Y50800000D03*
%TD*%
D10*
%TO.C,R18*%
X81295000Y59690000D03*
D11*
X81295000Y67310000D03*
%TD*%
%TO.C,R22*%
X55895000Y80010000D03*
D10*
X55895000Y72390000D03*
%TD*%
%TO.C,R2*%
X140985000Y74930000D03*
D11*
X133365000Y74930000D03*
%TD*%
D14*
%TO.C,J8*%
X123190000Y40640000D03*
D15*
X120650000Y40640000D03*
X118110000Y40640000D03*
%TD*%
D13*
%TO.C,Q28*%
X60975000Y69850000D03*
X58435000Y69850000D03*
D12*
X55895000Y69850000D03*
%TD*%
D17*
%TO.C,D12*%
X66055000Y92710000D03*
D16*
X58435000Y92710000D03*
%TD*%
D23*
%TO.C,U2*%
X138445000Y30115000D03*
D24*
X135905000Y30115000D03*
X133365000Y30115000D03*
X130825000Y30115000D03*
X128285000Y30115000D03*
X125745000Y30115000D03*
X123205000Y30115000D03*
X120665000Y30115000D03*
X118125000Y30115000D03*
X115585000Y30115000D03*
X113045000Y30115000D03*
X110505000Y30115000D03*
X107965000Y30115000D03*
X105425000Y30115000D03*
X102885000Y30115000D03*
X102885000Y4715000D03*
X105425000Y4715000D03*
X107965000Y4715000D03*
X110505000Y4715000D03*
X113045000Y4715000D03*
X115585000Y4715000D03*
X118125000Y4715000D03*
X120665000Y4715000D03*
X123205000Y4715000D03*
X125745000Y4715000D03*
X128285000Y4715000D03*
X130825000Y4715000D03*
X133365000Y4715000D03*
X135905000Y4715000D03*
X138445000Y4715000D03*
%TD*%
D17*
%TO.C,D25*%
X66055000Y29210000D03*
D16*
X58435000Y29210000D03*
%TD*%
D14*
%TO.C,J35*%
X104155000Y90170000D03*
D15*
X101615000Y90170000D03*
%TD*%
D16*
%TO.C,D8*%
X83835000Y80010000D03*
D17*
X91455000Y80010000D03*
%TD*%
%TO.C,D24*%
X66055000Y67310000D03*
D16*
X58435000Y67310000D03*
%TD*%
D17*
%TO.C,D21*%
X12715000Y67310000D03*
D16*
X5095000Y67310000D03*
%TD*%
D10*
%TO.C,R6*%
X81295000Y85090000D03*
D11*
X81295000Y92710000D03*
%TD*%
D15*
%TO.C,J24*%
X5095000Y77470000D03*
D14*
X7635000Y77470000D03*
%TD*%
D15*
%TO.C,J33*%
X58435000Y64770000D03*
D14*
X60975000Y64770000D03*
%TD*%
D17*
%TO.C,D9*%
X12715000Y92710000D03*
D16*
X5095000Y92710000D03*
%TD*%
D11*
%TO.C,R10*%
X38115000Y29210000D03*
D10*
X38115000Y21590000D03*
%TD*%
D17*
%TO.C,D27*%
X12715000Y54610000D03*
D16*
X5095000Y54610000D03*
%TD*%
D17*
%TO.C,D33*%
X66055000Y41910000D03*
D16*
X58435000Y41910000D03*
%TD*%
D13*
%TO.C,Q25*%
X7635000Y69850000D03*
X5095000Y69850000D03*
D12*
X2555000Y69850000D03*
%TD*%
D16*
%TO.C,D30*%
X101615000Y80010000D03*
D17*
X109235000Y80010000D03*
%TD*%
D14*
%TO.C,J23*%
X86375000Y64770000D03*
D15*
X83835000Y64770000D03*
%TD*%
D13*
%TO.C,Q32*%
X43195000Y69850000D03*
X40655000Y69850000D03*
D12*
X38115000Y69850000D03*
%TD*%
D15*
%TO.C,J15*%
X40655000Y26670000D03*
D14*
X43195000Y26670000D03*
%TD*%
D13*
%TO.C,Q19*%
X7635000Y82810000D03*
X5095000Y82810000D03*
D12*
X2555000Y82810000D03*
%TD*%
D13*
%TO.C,Q36*%
X43195000Y44450000D03*
X40655000Y44450000D03*
D12*
X38115000Y44450000D03*
%TD*%
D17*
%TO.C,D23*%
X48275000Y80335000D03*
D16*
X40655000Y80335000D03*
%TD*%
D13*
%TO.C,Q14*%
X25415000Y69850000D03*
X22875000Y69850000D03*
D12*
X20335000Y69850000D03*
%TD*%
D13*
%TO.C,Q16*%
X60975000Y95250000D03*
X58435000Y95250000D03*
D12*
X55895000Y95250000D03*
%TD*%
D17*
%TO.C,D10*%
X30495000Y67310000D03*
D16*
X22875000Y67310000D03*
%TD*%
D14*
%TO.C,J16*%
X104155000Y50800000D03*
D15*
X101615000Y50800000D03*
%TD*%
D12*
%TO.C,Q11*%
X99075000Y55880000D03*
D13*
X101615000Y55880000D03*
X104155000Y55880000D03*
%TD*%
D16*
%TO.C,D3*%
X101615000Y67310000D03*
D17*
X109235000Y67310000D03*
%TD*%
D13*
%TO.C,Q37*%
X60975000Y44450000D03*
X58435000Y44450000D03*
D12*
X55895000Y44450000D03*
%TD*%
D15*
%TO.C,J40*%
X5095000Y39370000D03*
D14*
X7635000Y39370000D03*
%TD*%
D15*
%TO.C,J41*%
X40655000Y39370000D03*
D14*
X43195000Y39370000D03*
%TD*%
D10*
%TO.C,R30*%
X99075000Y85090000D03*
D11*
X99075000Y92710000D03*
%TD*%
D18*
%TO.C,U4*%
X20320000Y6365000D03*
X17780000Y6365000D03*
X15240000Y6365000D03*
X12700000Y6365000D03*
X10160000Y6365000D03*
X7620000Y6365000D03*
X5080000Y6365000D03*
X2540000Y6365000D03*
X2540000Y13985000D03*
X5080000Y13985000D03*
X7620000Y13985000D03*
X10160000Y13985000D03*
X12700000Y13985000D03*
X15240000Y13985000D03*
X17780000Y13985000D03*
D19*
X20320000Y13985000D03*
%TD*%
D14*
%TO.C,J6*%
X123190000Y43180000D03*
D15*
X120650000Y43180000D03*
X118110000Y43180000D03*
%TD*%
D11*
%TO.C,R14*%
X20335000Y67310000D03*
D10*
X20335000Y59690000D03*
%TD*%
D15*
%TO.C,J13*%
X5095000Y26670000D03*
D14*
X7635000Y26670000D03*
%TD*%
M02*
